# Blender 5.2.2 LTS
# www.blender.org
mtllib aviation_light_ok.mtl
o aviation_light_ok
v -8.900000 0.070000 5.830000
v -8.900000 0.070000 5.890000
v -8.890862 0.069401 5.830000
v -8.890862 0.069401 5.890000
v -8.881883 0.067615 5.830000
v -8.881883 0.067615 5.890000
v -8.873212 0.064672 5.830000
v -8.873212 0.064672 5.890000
v -8.865000 0.060622 5.830000
v -8.865000 0.060622 5.890000
v -8.857387 0.055535 5.830000
v -8.857387 0.055535 5.890000
v -8.850502 0.049497 5.830000
v -8.850502 0.049497 5.890000
v -8.844465 0.042613 5.830000
v -8.844465 0.042613 5.890000
v -8.839377 0.035000 5.830000
v -8.839377 0.035000 5.890000
v -8.835328 0.026788 5.830000
v -8.835328 0.026788 5.890000
v -8.832385 0.018117 5.830000
v -8.832385 0.018117 5.890000
v -8.830599 0.009137 5.830000
v -8.830599 0.009137 5.890000
v -8.830000 0.000000 5.830000
v -8.830000 0.000000 5.890000
v -8.830599 -0.009137 5.830000
v -8.830599 -0.009137 5.890000
v -8.832385 -0.018117 5.830000
v -8.832385 -0.018117 5.890000
v -8.835328 -0.026788 5.830000
v -8.835328 -0.026788 5.890000
v -8.839377 -0.035000 5.830000
v -8.839377 -0.035000 5.890000
v -8.844465 -0.042613 5.830000
v -8.844465 -0.042613 5.890000
v -8.850502 -0.049497 5.830000
v -8.850502 -0.049497 5.890000
v -8.857387 -0.055535 5.830000
v -8.857387 -0.055535 5.890000
v -8.865000 -0.060622 5.830000
v -8.865000 -0.060622 5.890000
v -8.873212 -0.064672 5.830000
v -8.873212 -0.064672 5.890000
v -8.881883 -0.067615 5.830000
v -8.881883 -0.067615 5.890000
v -8.890862 -0.069401 5.830000
v -8.890862 -0.069401 5.890000
v -8.900000 -0.070000 5.830000
v -8.900000 -0.070000 5.890000
v -8.909137 -0.069401 5.830000
v -8.909137 -0.069401 5.890000
v -8.918117 -0.067615 5.830000
v -8.918117 -0.067615 5.890000
v -8.926787 -0.064672 5.830000
v -8.926787 -0.064672 5.890000
v -8.934999 -0.060622 5.830000
v -8.934999 -0.060622 5.890000
v -8.942613 -0.055535 5.830000
v -8.942613 -0.055535 5.890000
v -8.949497 -0.049497 5.830000
v -8.949497 -0.049497 5.890000
v -8.955534 -0.042613 5.830000
v -8.955534 -0.042613 5.890000
v -8.960622 -0.035000 5.830000
v -8.960622 -0.035000 5.890000
v -8.964671 -0.026788 5.830000
v -8.964671 -0.026788 5.890000
v -8.967614 -0.018117 5.830000
v -8.967614 -0.018117 5.890000
v -8.969400 -0.009137 5.830000
v -8.969400 -0.009137 5.890000
v -8.969999 0.000000 5.830000
v -8.969999 0.000000 5.890000
v -8.969400 0.009137 5.830000
v -8.969400 0.009137 5.890000
v -8.967614 0.018117 5.830000
v -8.967614 0.018117 5.890000
v -8.964671 0.026788 5.830000
v -8.964671 0.026788 5.890000
v -8.960622 0.035000 5.830000
v -8.960622 0.035000 5.890000
v -8.955534 0.042613 5.830000
v -8.955534 0.042613 5.890000
v -8.949497 0.049497 5.830000
v -8.949497 0.049497 5.890000
v -8.942613 0.055535 5.830000
v -8.942613 0.055535 5.890000
v -8.934999 0.060622 5.830000
v -8.934999 0.060622 5.890000
v -8.926787 0.064672 5.830000
v -8.926787 0.064672 5.890000
v -8.918117 0.067615 5.830000
v -8.918117 0.067615 5.890000
v -8.909137 0.069401 5.830000
v -8.909137 0.069401 5.890000
v -8.900000 0.000000 5.965000
v -8.900000 0.014632 5.963559
v -8.900000 0.041668 5.952360
v -8.900000 0.053033 5.943033
v -8.900000 0.069291 5.918701
v -8.900000 0.075000 5.890000
v -8.897145 0.014351 5.963559
v -8.894401 0.028150 5.959291
v -8.891870 0.040867 5.952360
v -8.889653 0.052014 5.943033
v -8.887834 0.061162 5.931668
v -8.886481 0.067960 5.918701
v -8.885649 0.072145 5.904632
v -8.885367 0.073559 5.890000
v -8.894401 0.013518 5.963559
v -8.889016 0.026517 5.959291
v -8.884054 0.038496 5.952360
v -8.879704 0.048996 5.943033
v -8.876136 0.057613 5.931668
v -8.873483 0.064016 5.918701
v -8.871850 0.067960 5.904632
v -8.871299 0.069291 5.890000
v -8.891870 0.012166 5.963559
v -8.884054 0.023864 5.959291
v -8.876850 0.034645 5.952360
v -8.870536 0.044095 5.943033
v -8.865355 0.051851 5.931668
v -8.861504 0.057613 5.918701
v -8.859133 0.061162 5.904632
v -8.858332 0.062360 5.890000
v -8.889653 0.010346 5.963559
v -8.879704 0.020295 5.959291
v -8.870536 0.029464 5.952360
v -8.862499 0.037500 5.943033
v -8.855905 0.044095 5.931668
v -8.851004 0.048996 5.918701
v -8.847985 0.052014 5.904632
v -8.846967 0.053033 5.890000
v -8.887834 0.008129 5.963559
v -8.876136 0.015946 5.959291
v -8.865355 0.023149 5.952360
v -8.855905 0.029464 5.943033
v -8.848149 0.034645 5.931668
v -8.842386 0.038496 5.918701
v -8.838838 0.040867 5.904632
v -8.837640 0.041668 5.890000
v -8.886481 0.005599 5.963559
v -8.873483 0.010983 5.959291
v -8.861504 0.015946 5.952360
v -8.851004 0.020295 5.943033
v -8.842386 0.023864 5.931668
v -8.835983 0.026516 5.918701
v -8.832040 0.028150 5.904632
v -8.830709 0.028701 5.890000
v -8.885649 0.002855 5.963559
v -8.871850 0.005599 5.959291
v -8.859133 0.008129 5.952360
v -8.847985 0.010346 5.943033
v -8.838838 0.012166 5.931668
v -8.832040 0.013518 5.918701
v -8.827854 0.014351 5.904632
v -8.826441 0.014632 5.890000
v -8.885367 -0.000000 5.963559
v -8.871299 -0.000000 5.959291
v -8.858332 -0.000000 5.952360
v -8.846967 -0.000000 5.943033
v -8.837640 -0.000000 5.931668
v -8.830709 -0.000000 5.918701
v -8.826441 -0.000000 5.904632
v -8.825000 -0.000000 5.890000
v -8.885649 -0.002855 5.963559
v -8.871850 -0.005599 5.959291
v -8.859133 -0.008129 5.952360
v -8.847985 -0.010346 5.943033
v -8.838838 -0.012166 5.931668
v -8.832040 -0.013518 5.918701
v -8.827854 -0.014351 5.904632
v -8.826441 -0.014632 5.890000
v -8.886481 -0.005599 5.963559
v -8.873483 -0.010983 5.959291
v -8.861504 -0.015946 5.952360
v -8.851004 -0.020295 5.943033
v -8.842386 -0.023864 5.931668
v -8.835983 -0.026516 5.918701
v -8.832040 -0.028150 5.904632
v -8.830709 -0.028701 5.890000
v -8.887834 -0.008129 5.963559
v -8.876136 -0.015946 5.959291
v -8.865355 -0.023149 5.952360
v -8.855905 -0.029464 5.943033
v -8.848149 -0.034645 5.931668
v -8.842386 -0.038496 5.918701
v -8.838838 -0.040867 5.904632
v -8.837640 -0.041668 5.890000
v -8.889653 -0.010346 5.963559
v -8.879704 -0.020295 5.959291
v -8.870536 -0.029464 5.952360
v -8.862499 -0.037500 5.943033
v -8.855905 -0.044095 5.931668
v -8.851004 -0.048996 5.918701
v -8.847985 -0.052014 5.904632
v -8.846967 -0.053033 5.890000
v -8.891870 -0.012166 5.963559
v -8.884054 -0.023864 5.959291
v -8.876850 -0.034645 5.952360
v -8.870536 -0.044095 5.943033
v -8.865355 -0.051851 5.931668
v -8.861504 -0.057613 5.918701
v -8.859133 -0.061162 5.904632
v -8.858332 -0.062360 5.890000
v -8.894401 -0.013518 5.963559
v -8.889016 -0.026516 5.959291
v -8.884054 -0.038496 5.952360
v -8.879704 -0.048996 5.943033
v -8.876136 -0.057613 5.931668
v -8.873483 -0.064016 5.918701
v -8.871850 -0.067960 5.904632
v -8.871299 -0.069291 5.890000
v -8.897145 -0.014351 5.963559
v -8.894401 -0.028150 5.959291
v -8.891870 -0.040867 5.952360
v -8.889653 -0.052014 5.943033
v -8.887834 -0.061162 5.931668
v -8.886481 -0.067960 5.918701
v -8.885649 -0.072145 5.904632
v -8.885367 -0.073559 5.890000
v -8.900000 -0.014632 5.963559
v -8.900000 -0.028701 5.959291
v -8.900000 -0.041668 5.952360
v -8.900000 -0.053033 5.943033
v -8.900000 -0.062360 5.931668
v -8.900000 -0.069291 5.918701
v -8.900000 -0.073559 5.904632
v -8.900000 -0.075000 5.890000
v -8.902854 -0.014351 5.963559
v -8.905599 -0.028150 5.959291
v -8.908129 -0.040867 5.952360
v -8.910346 -0.052014 5.943033
v -8.912166 -0.061162 5.931668
v -8.913518 -0.067960 5.918701
v -8.914351 -0.072145 5.904632
v -8.914632 -0.073559 5.890000
v -8.905599 -0.013518 5.963559
v -8.910983 -0.026516 5.959291
v -8.915945 -0.038496 5.952360
v -8.920295 -0.048996 5.943033
v -8.923863 -0.057613 5.931668
v -8.926517 -0.064016 5.918701
v -8.928149 -0.067960 5.904632
v -8.928700 -0.069291 5.890000
v -8.908129 -0.012166 5.963559
v -8.915945 -0.023864 5.959291
v -8.923149 -0.034645 5.952360
v -8.929463 -0.044095 5.943033
v -8.934645 -0.051851 5.931668
v -8.938496 -0.057613 5.918701
v -8.940866 -0.061162 5.904632
v -8.941668 -0.062360 5.890000
v -8.910346 -0.010346 5.963559
v -8.920295 -0.020295 5.959291
v -8.929463 -0.029464 5.952360
v -8.937500 -0.037500 5.943033
v -8.944095 -0.044095 5.931668
v -8.948996 -0.048996 5.918701
v -8.952014 -0.052014 5.904632
v -8.953032 -0.053033 5.890000
v -8.912166 -0.008129 5.963559
v -8.923863 -0.015946 5.959291
v -8.934645 -0.023149 5.952360
v -8.944095 -0.029464 5.943033
v -8.951850 -0.034645 5.931668
v -8.957613 -0.038496 5.918701
v -8.961162 -0.040867 5.904632
v -8.962359 -0.041668 5.890000
v -8.913518 -0.005599 5.963559
v -8.926517 -0.010983 5.959291
v -8.938496 -0.015946 5.952360
v -8.948996 -0.020295 5.943033
v -8.957613 -0.023864 5.931668
v -8.964016 -0.026516 5.918701
v -8.967959 -0.028150 5.904632
v -8.969291 -0.028701 5.890000
v -8.914351 -0.002855 5.963559
v -8.928149 -0.005599 5.959291
v -8.940866 -0.008129 5.952360
v -8.952014 -0.010346 5.943033
v -8.961162 -0.012166 5.931668
v -8.967959 -0.013518 5.918701
v -8.972145 -0.014351 5.904632
v -8.973558 -0.014632 5.890000
v -8.914632 0.000000 5.963559
v -8.928700 0.000000 5.959291
v -8.941668 0.000000 5.952360
v -8.953032 0.000000 5.943033
v -8.962359 0.000000 5.931668
v -8.969291 0.000000 5.918701
v -8.973558 0.000000 5.904632
v -8.974999 0.000000 5.890000
v -8.914351 0.002855 5.963559
v -8.928149 0.005599 5.959291
v -8.940866 0.008129 5.952360
v -8.952014 0.010346 5.943033
v -8.961162 0.012166 5.931668
v -8.967959 0.013518 5.918701
v -8.972145 0.014351 5.904632
v -8.973558 0.014632 5.890000
v -8.913518 0.005599 5.963559
v -8.926517 0.010983 5.959291
v -8.938496 0.015946 5.952360
v -8.948996 0.020295 5.943033
v -8.957613 0.023864 5.931668
v -8.964016 0.026516 5.918701
v -8.967959 0.028150 5.904632
v -8.969291 0.028701 5.890000
v -8.912166 0.008129 5.963559
v -8.923863 0.015946 5.959291
v -8.934645 0.023149 5.952360
v -8.944095 0.029464 5.943033
v -8.951850 0.034645 5.931668
v -8.957613 0.038496 5.918701
v -8.961162 0.040867 5.904632
v -8.962359 0.041668 5.890000
v -8.910346 0.010346 5.963559
v -8.920295 0.020295 5.959291
v -8.929463 0.029464 5.952360
v -8.937500 0.037500 5.943033
v -8.944095 0.044095 5.931668
v -8.948996 0.048996 5.918701
v -8.952014 0.052014 5.904632
v -8.953032 0.053033 5.890000
v -8.908129 0.012166 5.963559
v -8.915945 0.023864 5.959291
v -8.923149 0.034645 5.952360
v -8.929463 0.044095 5.943033
v -8.934645 0.051851 5.931668
v -8.938496 0.057613 5.918701
v -8.940866 0.061162 5.904632
v -8.941668 0.062360 5.890000
v -8.905599 0.013518 5.963559
v -8.910983 0.026516 5.959291
v -8.915945 0.038496 5.952360
v -8.920295 0.048996 5.943033
v -8.923863 0.057613 5.931668
v -8.926517 0.064016 5.918701
v -8.928149 0.067960 5.904632
v -8.928700 0.069291 5.890000
v -8.902854 0.014351 5.963559
v -8.905599 0.028150 5.959291
v -8.908129 0.040867 5.952360
v -8.910346 0.052014 5.943033
v -8.912166 0.061162 5.931668
v -8.913518 0.067959 5.918701
v -8.914351 0.072145 5.904632
v -8.914631 0.073559 5.890000
v -8.900000 0.028701 5.959291
v -8.900000 0.062360 5.931668
v -8.900000 0.073559 5.904632
v -8.900000 0.075000 5.890000
v -8.885367 0.073559 5.890000
v -8.871299 0.069291 5.890000
v -8.858332 0.062360 5.890000
v -8.846967 0.053033 5.890000
v -8.837640 0.041668 5.890000
v -8.830709 0.028701 5.890000
v -8.826441 0.014632 5.890000
v -8.825000 -0.000000 5.890000
v -8.826441 -0.014632 5.890000
v -8.830709 -0.028701 5.890000
v -8.837640 -0.041668 5.890000
v -8.846967 -0.053033 5.890000
v -8.858332 -0.062360 5.890000
v -8.871299 -0.069291 5.890000
v -8.885367 -0.073559 5.890000
v -8.900000 -0.075000 5.890000
v -8.914632 -0.073559 5.890000
v -8.928700 -0.069291 5.890000
v -8.941668 -0.062360 5.890000
v -8.953032 -0.053033 5.890000
v -8.962359 -0.041668 5.890000
v -8.969291 -0.028701 5.890000
v -8.973558 -0.014632 5.890000
v -8.974999 0.000000 5.890000
v -8.973558 0.014632 5.890000
v -8.969291 0.028701 5.890000
v -8.962359 0.041668 5.890000
v -8.953032 0.053033 5.890000
v -8.941668 0.062360 5.890000
v -8.928700 0.069291 5.890000
v -8.914631 0.073559 5.890000
vn 0.0654 0.9979 -0.0000
vn 0.1951 0.9808 -0.0000
vn 0.3214 0.9469 -0.0000
vn 0.4423 0.8969 -0.0000
vn 0.5556 0.8315 -0.0000
vn 0.6593 0.7518 -0.0000
vn 0.7518 0.6593 -0.0000
vn 0.8315 0.5556 -0.0000
vn 0.8969 0.4423 -0.0000
vn 0.9469 0.3214 -0.0000
vn 0.9808 0.1951 -0.0000
vn 0.9979 0.0654 -0.0000
vn 0.9979 -0.0654 -0.0000
vn 0.9808 -0.1951 -0.0000
vn 0.9469 -0.3214 -0.0000
vn 0.8969 -0.4423 -0.0000
vn 0.8315 -0.5556 -0.0000
vn 0.7518 -0.6593 -0.0000
vn 0.6593 -0.7518 -0.0000
vn 0.5556 -0.8315 -0.0000
vn 0.4423 -0.8969 -0.0000
vn 0.3214 -0.9469 -0.0000
vn 0.1951 -0.9808 -0.0000
vn 0.0654 -0.9979 -0.0000
vn -0.0654 -0.9979 -0.0000
vn -0.1951 -0.9808 -0.0000
vn -0.3214 -0.9469 -0.0000
vn -0.4423 -0.8969 -0.0000
vn -0.5556 -0.8315 -0.0000
vn -0.6593 -0.7518 -0.0000
vn -0.7518 -0.6593 -0.0000
vn -0.8315 -0.5556 -0.0000
vn -0.8969 -0.4423 -0.0000
vn -0.9469 -0.3214 -0.0000
vn -0.9808 -0.1951 -0.0000
vn -0.9979 -0.0654 -0.0000
vn -0.9979 0.0654 -0.0000
vn -0.9808 0.1951 -0.0000
vn -0.9469 0.3214 -0.0000
vn -0.8969 0.4423 -0.0000
vn -0.8315 0.5556 -0.0000
vn -0.7518 0.6593 -0.0000
vn -0.6593 0.7518 -0.0000
vn -0.5556 0.8315 -0.0000
vn -0.4423 0.8969 -0.0000
vn -0.3214 0.9469 -0.0000
vn -0.0000 -0.0000 1.0000
vn -0.1951 0.9808 -0.0000
vn -0.0654 0.9979 -0.0000
vn -0.0000 -0.0000 -1.0000
vn 0.0938 0.9527 0.2890
vn 0.0975 0.9904 0.0976
vn 0.0097 0.0980 0.9951
vn 0.0928 0.9620 -0.2568
vn 0.0286 0.2902 0.9565
vn 0.0464 0.4709 0.8810
vn 0.0624 0.6332 0.7715
vn 0.0759 0.7708 0.6326
vn 0.0865 0.8786 0.4696
vn 0.2563 0.8448 0.4696
vn 0.2779 0.9161 0.2890
vn 0.2889 0.9524 0.0975
vn 0.0286 0.0942 0.9951
vn 0.2882 0.9227 -0.2562
vn 0.0846 0.2790 0.9565
vn 0.1374 0.4528 0.8810
vn 0.1847 0.6088 0.7715
vn 0.2248 0.7412 0.6326
vn 0.2230 0.4173 0.8810
vn 0.2999 0.5611 0.7715
vn 0.3651 0.6831 0.6326
vn 0.4162 0.7786 0.4696
vn 0.4513 0.8443 0.2890
vn 0.4691 0.8777 0.0975
vn 0.0464 0.0869 0.9951
vn 0.4506 0.8548 -0.2575
vn 0.1374 0.2571 0.9565
vn 0.6073 0.7400 0.2890
vn 0.6314 0.7693 0.0975
vn 0.0625 0.0761 0.9951
vn 0.6028 0.7936 -0.0826
vn 0.1850 0.2254 0.9565
vn 0.3002 0.3658 0.8810
vn 0.4036 0.4918 0.7715
vn 0.4913 0.5987 0.6326
vn 0.5601 0.6825 0.4696
vn 0.3658 0.3002 0.8810
vn 0.4918 0.4036 0.7715
vn 0.5987 0.4913 0.6326
vn 0.6825 0.5601 0.4696
vn 0.7400 0.6073 0.2890
vn 0.7693 0.6314 0.0975
vn 0.0761 0.0625 0.9951
vn 0.7776 0.6273 -0.0438
vn 0.2254 0.1850 0.9565
vn 0.8443 0.4513 0.2890
vn 0.8777 0.4691 0.0975
vn 0.0869 0.0464 0.9951
vn 0.8757 0.4781 -0.0674
vn 0.2571 0.1374 0.9565
vn 0.4173 0.2230 0.8810
vn 0.5611 0.2999 0.7715
vn 0.6831 0.3651 0.6326
vn 0.7786 0.4162 0.4696
vn 0.6088 0.1847 0.7715
vn 0.7412 0.2248 0.6326
vn 0.8448 0.2563 0.4696
vn 0.9161 0.2779 0.2890
vn 0.9524 0.2889 0.0975
vn 0.0942 0.0286 0.9951
vn 0.9541 0.2780 -0.1113
vn 0.2790 0.0846 0.9565
vn 0.4528 0.1374 0.8810
vn 0.9904 0.0976 0.0975
vn 0.0980 0.0097 0.9951
vn 0.9876 0.0972 -0.1234
vn 0.2902 0.0286 0.9565
vn 0.4709 0.0464 0.8810
vn 0.6332 0.0624 0.7715
vn 0.7708 0.0759 0.6326
vn 0.8786 0.0865 0.4696
vn 0.9527 0.0938 0.2890
vn 0.6332 -0.0624 0.7715
vn 0.7708 -0.0759 0.6326
vn 0.8786 -0.0865 0.4696
vn 0.9527 -0.0938 0.2890
vn 0.9904 -0.0975 0.0975
vn 0.0980 -0.0097 0.9951
vn 0.9876 -0.0972 -0.1234
vn 0.2902 -0.0286 0.9565
vn 0.4709 -0.0464 0.8810
vn 0.9524 -0.2889 0.0975
vn 0.0942 -0.0286 0.9951
vn 0.9476 -0.2941 -0.1243
vn 0.2790 -0.0846 0.9565
vn 0.4528 -0.1374 0.8810
vn 0.6088 -0.1847 0.7715
vn 0.7412 -0.2248 0.6326
vn 0.8448 -0.2563 0.4696
vn 0.9161 -0.2779 0.2890
vn 0.6831 -0.3651 0.6326
vn 0.7786 -0.4162 0.4696
vn 0.8443 -0.4513 0.2890
vn 0.8777 -0.4691 0.0975
vn 0.0869 -0.0464 0.9951
vn 0.8736 -0.4711 -0.1217
vn 0.2571 -0.1374 0.9565
vn 0.4173 -0.2230 0.8810
vn 0.5611 -0.2999 0.7715
vn 0.7854 -0.6169 -0.0509
vn 0.2254 -0.1850 0.9565
vn 0.3658 -0.3002 0.8810
vn 0.4918 -0.4036 0.7715
vn 0.5987 -0.4913 0.6326
vn 0.6825 -0.5601 0.4696
vn 0.7400 -0.6073 0.2890
vn 0.7693 -0.6314 0.0975
vn 0.0761 -0.0625 0.9951
vn 0.5601 -0.6825 0.4696
vn 0.6073 -0.7400 0.2890
vn 0.6314 -0.7693 0.0975
vn 0.0625 -0.0761 0.9951
vn 0.6306 -0.7339 -0.2523
vn 0.1850 -0.2254 0.9565
vn 0.3002 -0.3658 0.8810
vn 0.4036 -0.4918 0.7715
vn 0.4913 -0.5987 0.6326
vn 0.1374 -0.2571 0.9565
vn 0.2230 -0.4173 0.8810
vn 0.2999 -0.5611 0.7715
vn 0.3651 -0.6831 0.6326
vn 0.4162 -0.7786 0.4696
vn 0.4513 -0.8443 0.2890
vn 0.4691 -0.8777 0.0975
vn 0.0464 -0.0869 0.9951
vn 0.4664 -0.8846 -0.0000
vn 0.2563 -0.8448 0.4696
vn 0.2779 -0.9161 0.2890
vn 0.2889 -0.9524 0.0975
vn 0.0286 -0.0942 0.9951
vn 0.2882 -0.9227 -0.2562
vn 0.0846 -0.2790 0.9565
vn 0.1374 -0.4528 0.8810
vn 0.1847 -0.6088 0.7715
vn 0.2248 -0.7412 0.6326
vn 0.0464 -0.4709 0.8810
vn 0.0624 -0.6332 0.7715
vn 0.0759 -0.7708 0.6326
vn 0.0865 -0.8786 0.4696
vn 0.0938 -0.9527 0.2890
vn 0.0975 -0.9904 0.0975
vn 0.0097 -0.0980 0.9951
vn 0.0914 -0.9958 -0.0000
vn 0.0286 -0.2902 0.9565
vn -0.0938 -0.9527 0.2890
vn -0.0975 -0.9904 0.0975
vn -0.0097 -0.0980 0.9951
vn -0.1042 -0.9609 -0.2565
vn -0.0286 -0.2902 0.9565
vn -0.0464 -0.4709 0.8810
vn -0.0624 -0.6332 0.7715
vn -0.0759 -0.7708 0.6326
vn -0.0865 -0.8786 0.4696
vn -0.1374 -0.4528 0.8810
vn -0.1847 -0.6088 0.7715
vn -0.2248 -0.7412 0.6326
vn -0.2563 -0.8448 0.4696
vn -0.2779 -0.9161 0.2890
vn -0.2889 -0.9524 0.0975
vn -0.0286 -0.0942 0.9951
vn -0.2785 -0.9600 0.0290
vn -0.0846 -0.2790 0.9565
vn -0.4513 -0.8443 0.2890
vn -0.4691 -0.8777 0.0975
vn -0.0464 -0.0869 0.9951
vn -0.4664 -0.8846 -0.0000
vn -0.1374 -0.2571 0.9565
vn -0.2230 -0.4173 0.8810
vn -0.2999 -0.5611 0.7715
vn -0.3651 -0.6831 0.6326
vn -0.4162 -0.7786 0.4696
vn -0.4036 -0.4918 0.7715
vn -0.4913 -0.5987 0.6326
vn -0.5601 -0.6825 0.4696
vn -0.6073 -0.7400 0.2890
vn -0.6314 -0.7693 0.0975
vn -0.0625 -0.0761 0.9951
vn -0.6062 -0.7838 -0.1347
vn -0.1850 -0.2254 0.9565
vn -0.3002 -0.3658 0.8810
vn -0.7693 -0.6314 0.0975
vn -0.0761 -0.0625 0.9951
vn -0.7587 -0.6493 -0.0536
vn -0.2254 -0.1850 0.9565
vn -0.3658 -0.3002 0.8810
vn -0.4918 -0.4036 0.7715
vn -0.5987 -0.4913 0.6326
vn -0.6825 -0.5601 0.4696
vn -0.7400 -0.6073 0.2890
vn -0.6831 -0.3651 0.6326
vn -0.7786 -0.4162 0.4696
vn -0.8443 -0.4513 0.2890
vn -0.8777 -0.4691 0.0975
vn -0.0869 -0.0464 0.9951
vn -0.8736 -0.4711 -0.1217
vn -0.2571 -0.1374 0.9565
vn -0.4173 -0.2230 0.8810
vn -0.5611 -0.2999 0.7715
vn -0.0942 -0.0286 0.9951
vn -0.9539 -0.2764 -0.1169
vn -0.2790 -0.0846 0.9565
vn -0.4528 -0.1374 0.8810
vn -0.6088 -0.1847 0.7715
vn -0.7412 -0.2248 0.6326
vn -0.8448 -0.2563 0.4696
vn -0.9161 -0.2779 0.2890
vn -0.9524 -0.2889 0.0975
vn -0.7708 -0.0759 0.6326
vn -0.8786 -0.0865 0.4696
vn -0.9527 -0.0938 0.2890
vn -0.9904 -0.0975 0.0975
vn -0.0980 -0.0097 0.9951
vn -0.9874 -0.0969 -0.1249
vn -0.2902 -0.0286 0.9565
vn -0.4709 -0.0464 0.8810
vn -0.6332 -0.0624 0.7715
vn -0.9876 0.0972 -0.1234
vn -0.2902 0.0286 0.9565
vn -0.4709 0.0464 0.8810
vn -0.6332 0.0624 0.7715
vn -0.7708 0.0759 0.6326
vn -0.8786 0.0865 0.4696
vn -0.9527 0.0938 0.2890
vn -0.9904 0.0975 0.0975
vn -0.0980 0.0097 0.9951
vn -0.8448 0.2563 0.4696
vn -0.9161 0.2779 0.2890
vn -0.9524 0.2889 0.0975
vn -0.0942 0.0286 0.9951
vn -0.9478 0.2959 -0.1185
vn -0.2790 0.0846 0.9565
vn -0.4528 0.1374 0.8810
vn -0.6088 0.1847 0.7715
vn -0.7412 0.2248 0.6326
vn -0.2571 0.1374 0.9565
vn -0.4173 0.2231 0.8810
vn -0.5611 0.2999 0.7715
vn -0.6831 0.3651 0.6326
vn -0.7786 0.4162 0.4696
vn -0.8443 0.4513 0.2890
vn -0.8777 0.4691 0.0975
vn -0.0869 0.0464 0.9951
vn -0.8655 0.4725 -0.1664
vn -0.6825 0.5601 0.4696
vn -0.7400 0.6073 0.2890
vn -0.7693 0.6314 0.0975
vn -0.0761 0.0625 0.9951
vn -0.7533 0.6541 -0.0685
vn -0.2254 0.1850 0.9565
vn -0.3658 0.3002 0.8810
vn -0.4918 0.4036 0.7715
vn -0.5987 0.4913 0.6326
vn -0.3002 0.3658 0.8810
vn -0.4036 0.4918 0.7715
vn -0.4913 0.5987 0.6326
vn -0.5601 0.6825 0.4696
vn -0.6073 0.7400 0.2890
vn -0.6314 0.7693 0.0975
vn -0.0625 0.0761 0.9951
vn -0.6028 0.7936 -0.0826
vn -0.1850 0.2254 0.9565
vn -0.4513 0.8443 0.2890
vn -0.4691 0.8777 0.0975
vn -0.0464 0.0869 0.9951
vn -0.4580 0.8890 -0.0012
vn -0.1374 0.2571 0.9565
vn -0.2231 0.4173 0.8810
vn -0.2999 0.5611 0.7715
vn -0.3651 0.6831 0.6326
vn -0.4162 0.7786 0.4696
vn -0.1847 0.6088 0.7715
vn -0.2248 0.7412 0.6326
vn -0.2563 0.8448 0.4696
vn -0.2779 0.9161 0.2890
vn -0.2889 0.9524 0.0975
vn -0.0286 0.0942 0.9951
vn -0.2634 0.8434 -0.4683
vn -0.0846 0.2790 0.9565
vn -0.1374 0.4528 0.8810
vn -0.0976 0.9904 0.0976
vn -0.0097 0.0980 0.9951
vn -0.1026 0.9888 -0.1086
vn -0.0286 0.2902 0.9565
vn -0.0464 0.4709 0.8810
vn -0.0624 0.6332 0.7715
vn -0.0759 0.7708 0.6326
vn -0.0865 0.8786 0.4696
vn -0.0938 0.9527 0.2890
vn 0.0975 0.9904 0.0975
vn 0.0963 0.9617 0.2567
vn 0.2889 0.9524 0.0976
vn 0.2785 0.9600 0.0290
vn 0.2231 0.4173 0.8810
vn 0.4838 0.8752 -0.0012
vn 0.6462 0.7521 -0.1292
vn 0.7481 0.6495 -0.1360
vn 0.8859 0.4517 -0.1052
vn 0.4173 0.2231 0.8810
vn 0.9475 0.2966 -0.1191
vn 0.9904 0.0975 0.0975
vn 0.9904 -0.0976 0.0975
vn 0.9874 -0.0969 -0.1249
vn 0.9478 -0.2959 -0.1185
vn 0.8879 -0.4501 -0.0951
vn 0.7759 -0.6175 -0.1293
vn 0.6130 -0.7789 -0.1326
vn 0.1850 -0.2254 0.9566
vn 0.1374 -0.2571 0.9566
vn 0.4634 -0.8405 -0.2807
vn 0.2855 -0.9522 0.1088
vn 0.0960 -0.9954 -0.0000
vn -0.0944 -0.9896 -0.1087
vn -0.2882 -0.9227 -0.2562
vn -0.4838 -0.8752 -0.0012
vn -0.6436 -0.7612 -0.0793
vn -0.7808 -0.6214 -0.0651
vn -0.8879 -0.4501 -0.0951
vn -0.9478 -0.2959 -0.1185
vn -0.9876 -0.0972 -0.1234
vn -0.9874 0.0969 -0.1249
vn -0.9520 0.2759 -0.1324
vn -0.4173 0.2230 0.8810
vn -0.8788 0.4739 -0.0557
vn -0.7812 0.6136 -0.1149
vn -0.6462 0.7521 -0.1292
vn -0.4918 0.8707 -0.0000
vn -0.2230 0.4173 0.8810
vn -0.2838 0.9463 -0.1546
vn -0.0975 0.9904 0.0975
vn -0.0996 0.9950 -0.0000
s 0
usemtl steel_grey
f 2//1 3//1 1//1
f 4//2 5//2 3//2
f 6//3 7//3 5//3
f 8//4 9//4 7//4
f 10//5 11//5 9//5
f 12//6 13//6 11//6
f 14//7 15//7 13//7
f 16//8 17//8 15//8
f 18//9 19//9 17//9
f 20//10 21//10 19//10
f 22//11 23//11 21//11
f 24//12 25//12 23//12
f 26//13 27//13 25//13
f 28//14 29//14 27//14
f 30//15 31//15 29//15
f 32//16 33//16 31//16
f 34//17 35//17 33//17
f 36//18 37//18 35//18
f 38//19 39//19 37//19
f 40//20 41//20 39//20
f 42//21 43//21 41//21
f 44//22 45//22 43//22
f 46//23 47//23 45//23
f 48//24 49//24 47//24
f 50//25 51//25 49//25
f 52//26 53//26 51//26
f 54//27 55//27 53//27
f 56//28 57//28 55//28
f 58//29 59//29 57//29
f 60//30 61//30 59//30
f 62//31 63//31 61//31
f 64//32 65//32 63//32
f 66//33 67//33 65//33
f 68//34 69//34 67//34
f 70//35 71//35 69//35
f 72//36 73//36 71//36
f 74//37 75//37 73//37
f 76//38 77//38 75//38
f 78//39 79//39 77//39
f 80//40 81//40 79//40
f 82//41 83//41 81//41
f 84//42 85//42 83//42
f 86//43 87//43 85//43
f 88//44 89//44 87//44
f 90//45 91//45 89//45
f 92//46 93//46 91//46
f 70//47 38//47 6//47
f 94//48 95//48 93//48
f 96//49 1//49 95//49
f 31//50 63//50 95//50
f 2//1 4//1 3//1
f 4//2 6//2 5//2
f 6//3 8//3 7//3
f 8//4 10//4 9//4
f 10//5 12//5 11//5
f 12//6 14//6 13//6
f 14//7 16//7 15//7
f 16//8 18//8 17//8
f 18//9 20//9 19//9
f 20//10 22//10 21//10
f 22//11 24//11 23//11
f 24//12 26//12 25//12
f 26//13 28//13 27//13
f 28//14 30//14 29//14
f 30//15 32//15 31//15
f 32//16 34//16 33//16
f 34//17 36//17 35//17
f 36//18 38//18 37//18
f 38//19 40//19 39//19
f 40//20 42//20 41//20
f 42//21 44//21 43//21
f 44//22 46//22 45//22
f 46//23 48//23 47//23
f 48//24 50//24 49//24
f 50//25 52//25 51//25
f 52//26 54//26 53//26
f 54//27 56//27 55//27
f 56//28 58//28 57//28
f 58//29 60//29 59//29
f 60//30 62//30 61//30
f 62//31 64//31 63//31
f 64//32 66//32 65//32
f 66//33 68//33 67//33
f 68//34 70//34 69//34
f 70//35 72//35 71//35
f 72//36 74//36 73//36
f 74//37 76//37 75//37
f 76//38 78//38 77//38
f 78//39 80//39 79//39
f 80//40 82//40 81//40
f 82//41 84//41 83//41
f 84//42 86//42 85//42
f 86//43 88//43 87//43
f 88//44 90//44 89//44
f 90//45 92//45 91//45
f 92//46 94//46 93//46
f 6//47 4//47 2//47
f 2//47 96//47 94//47
f 94//47 92//47 90//47
f 90//47 88//47 86//47
f 86//47 84//47 82//47
f 82//47 80//47 78//47
f 78//47 76//47 74//47
f 74//47 72//47 70//47
f 70//47 68//47 66//47
f 66//47 64//47 62//47
f 62//47 60//47 58//47
f 58//47 56//47 54//47
f 54//47 52//47 50//47
f 50//47 48//47 46//47
f 46//47 44//47 42//47
f 42//47 40//47 38//47
f 38//47 36//47 34//47
f 34//47 32//47 30//47
f 30//47 28//47 26//47
f 26//47 24//47 22//47
f 22//47 20//47 18//47
f 18//47 16//47 14//47
f 14//47 12//47 10//47
f 10//47 8//47 6//47
f 6//47 2//47 94//47
f 94//47 90//47 86//47
f 86//47 82//47 78//47
f 78//47 74//47 70//47
f 70//47 66//47 62//47
f 62//47 58//47 54//47
f 54//47 50//47 46//47
f 46//47 42//47 38//47
f 38//47 34//47 30//47
f 30//47 26//47 22//47
f 22//47 18//47 14//47
f 14//47 10//47 6//47
f 6//47 94//47 86//47
f 86//47 78//47 70//47
f 70//47 62//47 54//47
f 54//47 46//47 38//47
f 38//47 30//47 22//47
f 22//47 14//47 6//47
f 6//47 86//47 70//47
f 70//47 54//47 38//47
f 38//47 22//47 6//47
f 94//48 96//48 95//48
f 96//49 2//49 1//49
f 95//50 1//50 3//50
f 3//50 5//50 7//50
f 7//50 9//50 11//50
f 11//50 13//50 15//50
f 15//50 17//50 19//50
f 19//50 21//50 23//50
f 23//50 25//50 27//50
f 27//50 29//50 31//50
f 31//50 33//50 35//50
f 35//50 37//50 39//50
f 39//50 41//50 43//50
f 43//50 45//50 47//50
f 47//50 49//50 51//50
f 51//50 53//50 55//50
f 55//50 57//50 59//50
f 59//50 61//50 63//50
f 63//50 65//50 67//50
f 67//50 69//50 71//50
f 71//50 73//50 75//50
f 75//50 77//50 79//50
f 79//50 81//50 83//50
f 83//50 85//50 87//50
f 87//50 89//50 91//50
f 91//50 93//50 95//50
f 95//50 3//50 7//50
f 7//50 11//50 15//50
f 15//50 19//50 23//50
f 23//50 27//50 31//50
f 31//50 35//50 39//50
f 39//50 43//50 47//50
f 47//50 51//50 55//50
f 55//50 59//50 63//50
f 63//50 67//50 71//50
f 71//50 75//50 79//50
f 79//50 83//50 87//50
f 87//50 91//50 95//50
f 95//50 7//50 15//50
f 15//50 23//50 31//50
f 31//50 39//50 47//50
f 47//50 55//50 63//50
f 63//50 71//50 79//50
f 79//50 87//50 95//50
f 95//50 15//50 31//50
f 31//50 47//50 63//50
f 63//50 79//50 95//50
usemtl light_red
f 353//51 108//51 109//51
f 353//52 110//52 102//52
f 98//53 97//53 103//53
f 110//54 354//54 102//54
f 351//55 103//55 104//55
f 99//56 104//56 105//56
f 99//57 106//57 100//57
f 352//58 106//58 107//58
f 101//59 107//59 108//59
f 107//60 116//60 108//60
f 108//61 117//61 109//61
f 109//62 118//62 110//62
f 103//63 97//63 111//63
f 110//64 356//64 355//64
f 103//65 112//65 104//65
f 104//66 113//66 105//66
f 105//67 114//67 106//67
f 106//68 115//68 107//68
f 112//69 121//69 113//69
f 113//70 122//70 114//70
f 114//71 123//71 115//71
f 115//72 124//72 116//72
f 116//73 125//73 117//73
f 117//74 126//74 118//74
f 111//75 97//75 119//75
f 118//76 357//76 356//76
f 111//77 120//77 112//77
f 124//78 133//78 125//78
f 125//79 134//79 126//79
f 119//80 97//80 127//80
f 357//81 134//81 358//81
f 119//82 128//82 120//82
f 120//83 129//83 121//83
f 122//84 129//84 130//84
f 122//85 131//85 123//85
f 123//86 132//86 124//86
f 128//87 137//87 129//87
f 129//88 138//88 130//88
f 130//89 139//89 131//89
f 131//90 140//90 132//90
f 132//91 141//91 133//91
f 133//92 142//92 134//92
f 127//93 97//93 135//93
f 358//94 142//94 359//94
f 127//95 136//95 128//95
f 140//96 149//96 141//96
f 141//97 150//97 142//97
f 135//98 97//98 143//98
f 142//99 360//99 359//99
f 135//100 144//100 136//100
f 136//101 145//101 137//101
f 138//102 145//102 146//102
f 138//103 147//103 139//103
f 139//104 148//104 140//104
f 146//105 153//105 154//105
f 146//106 155//106 147//106
f 147//107 156//107 148//107
f 148//108 157//108 149//108
f 149//109 158//109 150//109
f 143//110 97//110 151//110
f 150//111 361//111 360//111
f 143//112 152//112 144//112
f 144//113 153//113 145//113
f 158//114 165//114 166//114
f 151//115 97//115 159//115
f 158//116 362//116 361//116
f 151//117 160//117 152//117
f 152//118 161//118 153//118
f 154//119 161//119 162//119
f 154//120 163//120 155//120
f 155//121 164//121 156//121
f 156//122 165//122 157//122
f 161//123 170//123 162//123
f 163//124 170//124 171//124
f 163//125 172//125 164//125
f 164//126 173//126 165//126
f 166//127 173//127 174//127
f 159//128 97//128 167//128
f 166//129 363//129 362//129
f 159//130 168//130 160//130
f 160//131 169//131 161//131
f 173//132 182//132 174//132
f 167//133 97//133 175//133
f 363//134 182//134 364//134
f 167//135 176//135 168//135
f 168//136 177//136 169//136
f 170//137 177//137 178//137
f 170//138 179//138 171//138
f 171//139 180//139 172//139
f 172//140 181//140 173//140
f 178//141 187//141 179//141
f 179//142 188//142 180//142
f 180//143 189//143 181//143
f 181//144 190//144 182//144
f 175//145 97//145 183//145
f 364//146 190//146 365//146
f 175//147 184//147 176//147
f 176//148 185//148 177//148
f 178//149 185//149 186//149
f 365//150 198//150 366//150
f 184//151 191//151 192//151
f 185//152 192//152 193//152
f 186//153 193//153 194//153
f 186//154 195//154 187//154
f 187//155 196//155 188//155
f 188//156 197//156 189//156
f 190//157 197//157 198//157
f 183//158 97//158 191//158
f 195//159 204//159 196//159
f 196//160 205//160 197//160
f 198//161 205//161 206//161
f 191//162 97//162 199//162
f 198//163 367//163 366//163
f 191//164 200//164 192//164
f 192//165 201//165 193//165
f 194//166 201//166 202//166
f 194//167 203//167 195//167
f 199//168 208//168 200//168
f 200//169 209//169 201//169
f 202//170 209//170 210//170
f 202//171 211//171 203//171
f 203//172 212//172 204//172
f 204//173 213//173 205//173
f 206//174 213//174 214//174
f 199//175 97//175 207//175
f 206//176 368//176 367//176
f 211//177 220//177 212//177
f 212//178 221//178 213//178
f 214//179 221//179 222//179
f 207//180 97//180 215//180
f 214//181 369//181 368//181
f 207//182 216//182 208//182
f 208//183 217//183 209//183
f 210//184 217//184 218//184
f 210//185 219//185 211//185
f 217//186 224//186 225//186
f 218//187 225//187 226//187
f 218//188 227//188 219//188
f 219//189 228//189 220//189
f 220//190 229//190 221//190
f 222//191 229//191 230//191
f 215//192 97//192 223//192
f 222//193 370//193 369//193
f 216//194 223//194 224//194
f 228//195 237//195 229//195
f 230//196 237//196 238//196
f 223//197 97//197 231//197
f 230//198 371//198 370//198
f 224//199 231//199 232//199
f 224//200 233//200 225//200
f 226//201 233//201 234//201
f 226//202 235//202 227//202
f 227//203 236//203 228//203
f 232//204 241//204 233//204
f 234//205 241//205 242//205
f 234//206 243//206 235//206
f 235//207 244//207 236//207
f 236//208 245//208 237//208
f 238//209 245//209 246//209
f 231//210 97//210 239//210
f 371//211 246//211 372//211
f 231//212 240//212 232//212
f 244//213 253//213 245//213
f 246//214 253//214 254//214
f 239//215 97//215 247//215
f 246//216 373//216 372//216
f 239//217 248//217 240//217
f 240//218 249//218 241//218
f 242//219 249//219 250//219
f 242//220 251//220 243//220
f 243//221 252//221 244//221
f 250//222 257//222 258//222
f 250//223 259//223 251//223
f 251//224 260//224 252//224
f 252//225 261//225 253//225
f 254//226 261//226 262//226
f 247//227 97//227 255//227
f 254//228 374//228 373//228
f 247//229 256//229 248//229
f 248//230 257//230 249//230
f 262//231 269//231 270//231
f 255//232 97//232 263//232
f 270//233 374//233 262//233
f 255//234 264//234 256//234
f 257//235 264//235 265//235
f 258//236 265//236 266//236
f 258//237 267//237 259//237
f 259//238 268//238 260//238
f 260//239 269//239 261//239
f 266//240 275//240 267//240
f 267//241 276//241 268//241
f 268//242 277//242 269//242
f 270//243 277//243 278//243
f 263//244 97//244 271//244
f 278//245 375//245 270//245
f 264//246 271//246 272//246
f 265//247 272//247 273//247
f 266//248 273//248 274//248
f 271//249 97//249 279//249
f 286//250 376//250 278//250
f 271//251 280//251 272//251
f 273//252 280//252 281//252
f 274//253 281//253 282//253
f 274//254 283//254 275//254
f 275//255 284//255 276//255
f 276//256 285//256 277//256
f 278//257 285//257 286//257
f 282//258 291//258 283//258
f 283//259 292//259 284//259
f 284//260 293//260 285//260
f 286//261 293//261 294//261
f 279//262 97//262 287//262
f 294//263 377//263 286//263
f 280//264 287//264 288//264
f 281//265 288//265 289//265
f 281//266 290//266 282//266
f 294//267 379//267 378//267
f 287//268 296//268 288//268
f 289//269 296//269 297//269
f 290//270 297//270 298//270
f 290//271 299//271 291//271
f 291//272 300//272 292//272
f 292//273 301//273 293//273
f 294//274 301//274 302//274
f 287//275 97//275 295//275
f 299//276 308//276 300//276
f 300//277 309//277 301//277
f 302//278 309//278 310//278
f 295//279 97//279 303//279
f 302//280 380//280 379//280
f 295//281 304//281 296//281
f 296//282 305//282 297//282
f 298//283 305//283 306//283
f 298//284 307//284 299//284
f 303//285 312//285 304//285
f 305//286 312//286 313//286
f 306//287 313//287 314//287
f 306//288 315//288 307//288
f 307//289 316//289 308//289
f 308//290 317//290 309//290
f 310//291 317//291 318//291
f 303//292 97//292 311//292
f 310//293 381//293 380//293
f 315//294 324//294 316//294
f 316//295 325//295 317//295
f 318//296 325//296 326//296
f 311//297 97//297 319//297
f 318//298 382//298 381//298
f 311//299 320//299 312//299
f 313//300 320//300 321//300
f 314//301 321//301 322//301
f 314//302 323//302 315//302
f 320//303 329//303 321//303
f 322//304 329//304 330//304
f 322//305 331//305 323//305
f 323//306 332//306 324//306
f 324//307 333//307 325//307
f 326//308 333//308 334//308
f 319//309 97//309 327//309
f 334//310 382//310 326//310
f 319//311 328//311 320//311
f 332//312 341//312 333//312
f 334//313 341//313 342//313
f 327//314 97//314 335//314
f 342//315 383//315 334//315
f 327//316 336//316 328//316
f 328//317 337//317 329//317
f 330//318 337//318 338//318
f 330//319 339//319 331//319
f 331//320 340//320 332//320
f 338//321 345//321 346//321
f 338//322 347//322 339//322
f 340//323 347//323 348//323
f 340//324 349//324 341//324
f 342//325 349//325 350//325
f 335//326 97//326 343//326
f 342//327 385//327 384//327
f 335//328 344//328 336//328
f 337//329 344//329 345//329
f 350//330 353//330 102//330
f 343//331 97//331 98//331
f 102//332 385//332 350//332
f 344//333 98//333 351//333
f 345//334 351//334 99//334
f 346//335 99//335 100//335
f 347//336 100//336 352//336
f 348//337 352//337 101//337
f 349//338 101//338 353//338
f 370//50 378//50 354//50
f 353//51 101//51 108//51
f 353//339 109//339 110//339
f 110//340 355//340 354//340
f 351//55 98//55 103//55
f 99//56 351//56 104//56
f 99//57 105//57 106//57
f 352//58 100//58 106//58
f 101//59 352//59 107//59
f 107//60 115//60 116//60
f 108//61 116//61 117//61
f 109//341 117//341 118//341
f 110//342 118//342 356//342
f 103//65 111//65 112//65
f 104//66 112//66 113//66
f 105//67 113//67 114//67
f 106//68 114//68 115//68
f 112//343 120//343 121//343
f 113//70 121//70 122//70
f 114//71 122//71 123//71
f 115//72 123//72 124//72
f 116//73 124//73 125//73
f 117//74 125//74 126//74
f 118//344 126//344 357//344
f 111//77 119//77 120//77
f 124//78 132//78 133//78
f 125//79 133//79 134//79
f 357//345 126//345 134//345
f 119//82 127//82 128//82
f 120//83 128//83 129//83
f 122//84 121//84 129//84
f 122//85 130//85 131//85
f 123//86 131//86 132//86
f 128//87 136//87 137//87
f 129//88 137//88 138//88
f 130//89 138//89 139//89
f 131//90 139//90 140//90
f 132//91 140//91 141//91
f 133//92 141//92 142//92
f 358//346 134//346 142//346
f 127//95 135//95 136//95
f 140//96 148//96 149//96
f 141//97 149//97 150//97
f 142//347 150//347 360//347
f 135//100 143//100 144//100
f 136//348 144//348 145//348
f 138//102 137//102 145//102
f 138//103 146//103 147//103
f 139//104 147//104 148//104
f 146//105 145//105 153//105
f 146//106 154//106 155//106
f 147//107 155//107 156//107
f 148//108 156//108 157//108
f 149//109 157//109 158//109
f 150//349 158//349 361//349
f 143//112 151//112 152//112
f 144//113 152//113 153//113
f 158//350 157//350 165//350
f 158//116 166//116 362//116
f 151//117 159//117 160//117
f 152//118 160//118 161//118
f 154//119 153//119 161//119
f 154//120 162//120 163//120
f 155//121 163//121 164//121
f 156//122 164//122 165//122
f 161//123 169//123 170//123
f 163//124 162//124 170//124
f 163//125 171//125 172//125
f 164//126 172//126 173//126
f 166//351 165//351 173//351
f 166//352 174//352 363//352
f 159//130 167//130 168//130
f 160//131 168//131 169//131
f 173//132 181//132 182//132
f 363//353 174//353 182//353
f 167//135 175//135 176//135
f 168//136 176//136 177//136
f 170//137 169//137 177//137
f 170//138 178//138 179//138
f 171//139 179//139 180//139
f 172//140 180//140 181//140
f 178//141 186//141 187//141
f 179//142 187//142 188//142
f 180//143 188//143 189//143
f 181//144 189//144 190//144
f 364//354 182//354 190//354
f 175//147 183//147 184//147
f 176//148 184//148 185//148
f 178//149 177//149 185//149
f 365//355 190//355 198//355
f 184//151 183//151 191//151
f 185//152 184//152 192//152
f 186//153 185//153 193//153
f 186//154 194//154 195//154
f 187//155 195//155 196//155
f 188//156 196//156 197//156
f 190//157 189//157 197//157
f 195//159 203//159 204//159
f 196//160 204//160 205//160
f 198//161 197//161 205//161
f 198//356 206//356 367//356
f 191//357 199//357 200//357
f 192//165 200//165 201//165
f 194//166 193//166 201//166
f 194//167 202//167 203//167
f 199//358 207//358 208//358
f 200//169 208//169 209//169
f 202//170 201//170 209//170
f 202//171 210//171 211//171
f 203//172 211//172 212//172
f 204//173 212//173 213//173
f 206//174 205//174 213//174
f 206//359 214//359 368//359
f 211//177 219//177 220//177
f 212//178 220//178 221//178
f 214//179 213//179 221//179
f 214//360 222//360 369//360
f 207//182 215//182 216//182
f 208//183 216//183 217//183
f 210//184 209//184 217//184
f 210//185 218//185 219//185
f 217//186 216//186 224//186
f 218//187 217//187 225//187
f 218//188 226//188 227//188
f 219//189 227//189 228//189
f 220//190 228//190 229//190
f 222//191 221//191 229//191
f 222//361 230//361 370//361
f 216//194 215//194 223//194
f 228//195 236//195 237//195
f 230//196 229//196 237//196
f 230//362 238//362 371//362
f 224//199 223//199 231//199
f 224//200 232//200 233//200
f 226//201 225//201 233//201
f 226//202 234//202 235//202
f 227//203 235//203 236//203
f 232//204 240//204 241//204
f 234//205 233//205 241//205
f 234//206 242//206 243//206
f 235//207 243//207 244//207
f 236//208 244//208 245//208
f 238//209 237//209 245//209
f 371//363 238//363 246//363
f 231//212 239//212 240//212
f 244//213 252//213 253//213
f 246//214 245//214 253//214
f 246//364 254//364 373//364
f 239//217 247//217 248//217
f 240//218 248//218 249//218
f 242//219 241//219 249//219
f 242//220 250//220 251//220
f 243//221 251//221 252//221
f 250//222 249//222 257//222
f 250//223 258//223 259//223
f 251//224 259//224 260//224
f 252//225 260//225 261//225
f 254//226 253//226 261//226
f 254//365 262//365 374//365
f 247//229 255//229 256//229
f 248//230 256//230 257//230
f 262//231 261//231 269//231
f 270//366 375//366 374//366
f 255//234 263//234 264//234
f 257//235 256//235 264//235
f 258//236 257//236 265//236
f 258//237 266//237 267//237
f 259//238 267//238 268//238
f 260//239 268//239 269//239
f 266//240 274//240 275//240
f 267//241 275//241 276//241
f 268//242 276//242 277//242
f 270//243 269//243 277//243
f 278//367 376//367 375//367
f 264//246 263//246 271//246
f 265//247 264//247 272//247
f 266//248 265//248 273//248
f 286//368 377//368 376//368
f 271//251 279//251 280//251
f 273//252 272//252 280//252
f 274//253 273//253 281//253
f 274//254 282//254 283//254
f 275//255 283//255 284//255
f 276//256 284//256 285//256
f 278//257 277//257 285//257
f 282//258 290//258 291//258
f 283//259 291//259 292//259
f 284//260 292//260 293//260
f 286//261 285//261 293//261
f 294//369 378//369 377//369
f 280//264 279//264 287//264
f 281//265 280//265 288//265
f 281//266 289//266 290//266
f 294//370 302//370 379//370
f 287//268 295//268 296//268
f 289//269 288//269 296//269
f 290//270 289//270 297//270
f 290//271 298//271 299//271
f 291//272 299//272 300//272
f 292//273 300//273 301//273
f 294//274 293//274 301//274
f 299//276 307//276 308//276
f 300//277 308//277 309//277
f 302//278 301//278 309//278
f 302//371 310//371 380//371
f 295//281 303//281 304//281
f 296//282 304//282 305//282
f 298//283 297//283 305//283
f 298//284 306//284 307//284
f 303//285 311//285 312//285
f 305//372 304//372 312//372
f 306//287 305//287 313//287
f 306//288 314//288 315//288
f 307//289 315//289 316//289
f 308//290 316//290 317//290
f 310//291 309//291 317//291
f 310//373 318//373 381//373
f 315//294 323//294 324//294
f 316//295 324//295 325//295
f 318//296 317//296 325//296
f 318//374 326//374 382//374
f 311//299 319//299 320//299
f 313//300 312//300 320//300
f 314//301 313//301 321//301
f 314//302 322//302 323//302
f 320//303 328//303 329//303
f 322//304 321//304 329//304
f 322//305 330//305 331//305
f 323//306 331//306 332//306
f 324//307 332//307 333//307
f 326//308 325//308 333//308
f 334//375 383//375 382//375
f 319//311 327//311 328//311
f 332//312 340//312 341//312
f 334//313 333//313 341//313
f 342//376 384//376 383//376
f 327//316 335//316 336//316
f 328//377 336//377 337//377
f 330//318 329//318 337//318
f 330//319 338//319 339//319
f 331//320 339//320 340//320
f 338//321 337//321 345//321
f 338//322 346//322 347//322
f 340//323 339//323 347//323
f 340//324 348//324 349//324
f 342//325 341//325 349//325
f 342//378 350//378 385//378
f 335//328 343//328 344//328
f 337//329 336//329 344//329
f 350//379 349//379 353//379
f 102//380 354//380 385//380
f 344//333 343//333 98//333
f 345//334 344//334 351//334
f 346//335 345//335 99//335
f 347//336 346//336 100//336
f 348//337 347//337 352//337
f 349//338 348//338 101//338
f 354//50 355//50 356//50
f 356//50 357//50 358//50
f 358//50 359//50 360//50
f 360//50 361//50 362//50
f 362//50 363//50 364//50
f 364//50 365//50 366//50
f 366//50 367//50 368//50
f 368//50 369//50 370//50
f 370//50 371//50 372//50
f 372//50 373//50 374//50
f 374//50 375//50 376//50
f 376//50 377//50 378//50
f 378//50 379//50 380//50
f 380//50 381//50 382//50
f 382//50 383//50 384//50
f 384//50 385//50 354//50
f 354//50 356//50 358//50
f 358//50 360//50 362//50
f 362//50 364//50 366//50
f 366//50 368//50 370//50
f 370//50 372//50 374//50
f 374//50 376//50 378//50
f 378//50 380//50 382//50
f 382//50 384//50 354//50
f 354//50 358//50 362//50
f 362//50 366//50 370//50
f 370//50 374//50 378//50
f 378//50 382//50 354//50
f 354//50 362//50 370//50
