# Blender 5.2.2 LTS
# www.blender.org
mtllib aviation_light_broken.mtl
o aviation_light_broken
v -8.900000 0.070000 5.830000
v -8.900000 0.070000 5.890000
v -8.890862 0.069401 5.830000
v -8.890862 0.069401 5.890000
v -8.881883 0.067615 5.830000
v -8.881883 0.067615 5.890000
v -8.873212 0.064672 5.830000
v -8.873212 0.064672 5.890000
v -8.865000 0.060622 5.830000
v -8.865000 0.060622 5.890000
v -8.857387 0.055535 5.830000
v -8.857387 0.055535 5.890000
v -8.850502 0.049497 5.830000
v -8.850502 0.049497 5.890000
v -8.844465 0.042613 5.830000
v -8.844465 0.042613 5.890000
v -8.839377 0.035000 5.830000
v -8.839377 0.035000 5.890000
v -8.835328 0.026788 5.830000
v -8.835328 0.026788 5.890000
v -8.832385 0.018117 5.830000
v -8.832385 0.018117 5.890000
v -8.830599 0.009137 5.830000
v -8.830599 0.009137 5.890000
v -8.830000 0.000000 5.830000
v -8.830000 0.000000 5.890000
v -8.830599 -0.009137 5.830000
v -8.830599 -0.009137 5.890000
v -8.832385 -0.018117 5.830000
v -8.832385 -0.018117 5.890000
v -8.835328 -0.026788 5.830000
v -8.835328 -0.026788 5.890000
v -8.839377 -0.035000 5.830000
v -8.839377 -0.035000 5.890000
v -8.844465 -0.042613 5.830000
v -8.844465 -0.042613 5.890000
v -8.850502 -0.049497 5.830000
v -8.850502 -0.049497 5.890000
v -8.857387 -0.055535 5.830000
v -8.857387 -0.055535 5.890000
v -8.865000 -0.060622 5.830000
v -8.865000 -0.060622 5.890000
v -8.873212 -0.064672 5.830000
v -8.873212 -0.064672 5.890000
v -8.881883 -0.067615 5.830000
v -8.881883 -0.067615 5.890000
v -8.890862 -0.069401 5.830000
v -8.890862 -0.069401 5.890000
v -8.900000 -0.070000 5.830000
v -8.900000 -0.070000 5.890000
v -8.909137 -0.069401 5.830000
v -8.909137 -0.069401 5.890000
v -8.918117 -0.067615 5.830000
v -8.918117 -0.067615 5.890000
v -8.926787 -0.064672 5.830000
v -8.926787 -0.064672 5.890000
v -8.934999 -0.060622 5.830000
v -8.934999 -0.060622 5.890000
v -8.942613 -0.055535 5.830000
v -8.942613 -0.055535 5.890000
v -8.949497 -0.049497 5.830000
v -8.949497 -0.049497 5.890000
v -8.955534 -0.042613 5.830000
v -8.955534 -0.042613 5.890000
v -8.960622 -0.035000 5.830000
v -8.960622 -0.035000 5.890000
v -8.964671 -0.026788 5.830000
v -8.964671 -0.026788 5.890000
v -8.967614 -0.018117 5.830000
v -8.967614 -0.018117 5.890000
v -8.969400 -0.009137 5.830000
v -8.969400 -0.009137 5.890000
v -8.969999 0.000000 5.830000
v -8.969999 0.000000 5.890000
v -8.969400 0.009137 5.830000
v -8.969400 0.009137 5.890000
v -8.967614 0.018117 5.830000
v -8.967614 0.018117 5.890000
v -8.964671 0.026788 5.830000
v -8.964671 0.026788 5.890000
v -8.960622 0.035000 5.830000
v -8.960622 0.035000 5.890000
v -8.955534 0.042613 5.830000
v -8.955534 0.042613 5.890000
v -8.949497 0.049497 5.830000
v -8.949497 0.049497 5.890000
v -8.942613 0.055535 5.830000
v -8.942613 0.055535 5.890000
v -8.934999 0.060622 5.830000
v -8.934999 0.060622 5.890000
v -8.926787 0.064672 5.830000
v -8.926787 0.064672 5.890000
v -8.918117 0.067615 5.830000
v -8.918117 0.067615 5.890000
v -8.909137 0.069401 5.830000
v -8.909137 0.069401 5.890000
v -8.900000 0.000000 5.965000
v -8.900000 0.014632 5.963559
v -8.920000 -0.020000 5.900000
v -8.900000 0.041668 5.952360
v -8.900000 0.053033 5.943033
v -8.900000 0.069291 5.918701
v -8.900000 0.075000 5.890000
v -8.897145 0.014351 5.963559
v -8.894401 0.028150 5.959291
v -8.891870 0.040867 5.952360
v -8.889653 0.052014 5.943033
v -8.887834 0.061162 5.931668
v -8.886481 0.067960 5.918701
v -8.885649 0.072145 5.904632
v -8.885367 0.073559 5.890000
v -8.894401 0.013518 5.963559
v -8.889016 0.026517 5.959291
v -8.884054 0.038496 5.952360
v -8.879704 0.048996 5.943033
v -8.876136 0.057613 5.931668
v -8.873483 0.064016 5.918701
v -8.871850 0.067960 5.904632
v -8.871299 0.069291 5.890000
v -8.891870 0.012166 5.963559
v -8.884054 0.023864 5.959291
v -8.876850 0.034645 5.952360
v -8.870536 0.044095 5.943033
v -8.865355 0.051851 5.931668
v -8.861504 0.057613 5.918701
v -8.859133 0.061162 5.904632
v -8.858332 0.062360 5.890000
v -8.889653 0.010346 5.963559
v -8.879704 0.020295 5.959291
v -8.870536 0.029464 5.952360
v -8.862499 0.037500 5.943033
v -8.855905 0.044095 5.931668
v -8.851004 0.048996 5.918701
v -8.847985 0.052014 5.904632
v -8.846967 0.053033 5.890000
v -8.887834 0.008129 5.963559
v -8.876136 0.015946 5.959291
v -8.865355 0.023149 5.952360
v -8.855905 0.029464 5.943033
v -8.848149 0.034645 5.931668
v -8.842386 0.038496 5.918701
v -8.838838 0.040867 5.904632
v -8.837640 0.041668 5.890000
v -8.886481 0.005599 5.963559
v -8.873483 0.010983 5.959291
v -8.861504 0.015946 5.952360
v -8.851004 0.020295 5.943033
v -8.842386 0.023864 5.931668
v -8.835983 0.026516 5.918701
v -8.832040 0.028150 5.904632
v -8.830709 0.028701 5.890000
v -8.885649 0.002855 5.963559
v -8.871850 0.005599 5.959291
v -8.859133 0.008129 5.952360
v -8.847985 0.010346 5.943033
v -8.838838 0.012166 5.931668
v -8.832040 0.013518 5.918701
v -8.827854 0.014351 5.904632
v -8.826441 0.014632 5.890000
v -8.885367 -0.000000 5.963559
v -8.871299 -0.000000 5.959291
v -8.858332 -0.000000 5.952360
v -8.846967 -0.000000 5.943033
v -8.837640 -0.000000 5.931668
v -8.830709 -0.000000 5.918701
v -8.826441 -0.000000 5.904632
v -8.825000 -0.000000 5.890000
v -8.885649 -0.002855 5.963559
v -8.871850 -0.005599 5.959291
v -8.859133 -0.008129 5.952360
v -8.847985 -0.010346 5.943033
v -8.838838 -0.012166 5.931668
v -8.832040 -0.013518 5.918701
v -8.827854 -0.014351 5.904632
v -8.826441 -0.014632 5.890000
v -8.886481 -0.005599 5.963559
v -8.873483 -0.010983 5.959291
v -8.861504 -0.015946 5.952360
v -8.830709 -0.028701 5.890000
v -8.887834 -0.008129 5.963559
v -8.876136 -0.015946 5.959291
v -8.837640 -0.041668 5.890000
v -8.889653 -0.010346 5.963559
v -8.846967 -0.053033 5.890000
v -8.891870 -0.012166 5.963559
v -8.858332 -0.062360 5.890000
v -8.894401 -0.013518 5.963559
v -8.871299 -0.069291 5.890000
v -8.897145 -0.014351 5.963559
v -8.885367 -0.073559 5.890000
v -8.900000 -0.014632 5.963559
v -8.900000 -0.075000 5.890000
v -8.902854 -0.014351 5.963559
v -8.914632 -0.073559 5.890000
v -8.905599 -0.013518 5.963559
v -8.920295 -0.048996 5.943033
v -8.923863 -0.057613 5.931668
v -8.926517 -0.064016 5.918701
v -8.928149 -0.067960 5.904632
v -8.928700 -0.069291 5.890000
v -8.908129 -0.012166 5.963559
v -8.923149 -0.034645 5.952360
v -8.929463 -0.044095 5.943033
v -8.934645 -0.051851 5.931668
v -8.938496 -0.057613 5.918701
v -8.940866 -0.061162 5.904632
v -8.941668 -0.062360 5.890000
v -8.910346 -0.010346 5.963559
v -8.920295 -0.020295 5.959291
v -8.929463 -0.029464 5.952360
v -8.937500 -0.037500 5.943033
v -8.944095 -0.044095 5.931668
v -8.948996 -0.048996 5.918701
v -8.952014 -0.052014 5.904632
v -8.953032 -0.053033 5.890000
v -8.912166 -0.008129 5.963559
v -8.923863 -0.015946 5.959291
v -8.934645 -0.023149 5.952360
v -8.944095 -0.029464 5.943033
v -8.951850 -0.034645 5.931668
v -8.957613 -0.038496 5.918701
v -8.961162 -0.040867 5.904632
v -8.962359 -0.041668 5.890000
v -8.913518 -0.005599 5.963559
v -8.926517 -0.010983 5.959291
v -8.938496 -0.015946 5.952360
v -8.948996 -0.020295 5.943033
v -8.957613 -0.023864 5.931668
v -8.964016 -0.026516 5.918701
v -8.967959 -0.028150 5.904632
v -8.969291 -0.028701 5.890000
v -8.914351 -0.002855 5.963559
v -8.928149 -0.005599 5.959291
v -8.940866 -0.008129 5.952360
v -8.952014 -0.010346 5.943033
v -8.961162 -0.012166 5.931668
v -8.967959 -0.013518 5.918701
v -8.972145 -0.014351 5.904632
v -8.973558 -0.014632 5.890000
v -8.914632 0.000000 5.963559
v -8.928700 0.000000 5.959291
v -8.941668 0.000000 5.952360
v -8.953032 0.000000 5.943033
v -8.962359 0.000000 5.931668
v -8.969291 0.000000 5.918701
v -8.973558 0.000000 5.904632
v -8.974999 0.000000 5.890000
v -8.914351 0.002855 5.963559
v -8.928149 0.005599 5.959291
v -8.940866 0.008129 5.952360
v -8.952014 0.010346 5.943033
v -8.961162 0.012166 5.931668
v -8.967959 0.013518 5.918701
v -8.972145 0.014351 5.904632
v -8.973558 0.014632 5.890000
v -8.913518 0.005599 5.963559
v -8.926517 0.010983 5.959291
v -8.938496 0.015946 5.952360
v -8.948996 0.020295 5.943033
v -8.957613 0.023864 5.931668
v -8.964016 0.026516 5.918701
v -8.967959 0.028150 5.904632
v -8.969291 0.028701 5.890000
v -8.912166 0.008129 5.963559
v -8.923863 0.015946 5.959291
v -8.934645 0.023149 5.952360
v -8.944095 0.029464 5.943033
v -8.951850 0.034645 5.931668
v -8.957613 0.038496 5.918701
v -8.961162 0.040867 5.904632
v -8.962359 0.041668 5.890000
v -8.910346 0.010346 5.963559
v -8.920295 0.020295 5.959291
v -8.929463 0.029464 5.952360
v -8.937500 0.037500 5.943033
v -8.944095 0.044095 5.931668
v -8.948996 0.048996 5.918701
v -8.952014 0.052014 5.904632
v -8.953032 0.053033 5.890000
v -8.908129 0.012166 5.963559
v -8.915945 0.023864 5.959291
v -8.923149 0.034645 5.952360
v -8.929463 0.044095 5.943033
v -8.934645 0.051851 5.931668
v -8.938496 0.057613 5.918701
v -8.940866 0.061162 5.904632
v -8.941668 0.062360 5.890000
v -8.905599 0.013518 5.963559
v -8.910983 0.026516 5.959291
v -8.915945 0.038496 5.952360
v -8.920295 0.048996 5.943033
v -8.923863 0.057613 5.931668
v -8.926517 0.064016 5.918701
v -8.928149 0.067960 5.904632
v -8.928700 0.069291 5.890000
v -8.902854 0.014351 5.963559
v -8.905599 0.028150 5.959291
v -8.908129 0.040867 5.952360
v -8.910346 0.052014 5.943033
v -8.912166 0.061162 5.931668
v -8.913518 0.067959 5.918701
v -8.914351 0.072145 5.904632
v -8.914631 0.073559 5.890000
v -8.900000 0.028701 5.959291
v -8.900000 0.062360 5.931668
v -8.900000 0.073559 5.904632
v -8.900000 0.075000 5.890000
v -8.885367 0.073559 5.890000
v -8.871299 0.069291 5.890000
v -8.858332 0.062360 5.890000
v -8.846967 0.053033 5.890000
v -8.837640 0.041668 5.890000
v -8.830709 0.028701 5.890000
v -8.826441 0.014632 5.890000
v -8.825000 -0.000000 5.890000
v -8.826441 -0.014632 5.890000
v -8.830709 -0.028701 5.890000
v -8.837640 -0.041668 5.890000
v -8.846967 -0.053033 5.890000
v -8.858332 -0.062360 5.890000
v -8.871299 -0.069291 5.890000
v -8.885367 -0.073559 5.890000
v -8.900000 -0.075000 5.890000
v -8.914632 -0.073559 5.890000
v -8.928700 -0.069291 5.890000
v -8.941668 -0.062360 5.890000
v -8.953032 -0.053033 5.890000
v -8.962359 -0.041668 5.890000
v -8.969291 -0.028701 5.890000
v -8.973558 -0.014632 5.890000
v -8.974999 0.000000 5.890000
v -8.973558 0.014632 5.890000
v -8.969291 0.028701 5.890000
v -8.962359 0.041668 5.890000
v -8.953032 0.053033 5.890000
v -8.941668 0.062360 5.890000
v -8.928700 0.069291 5.890000
v -8.914631 0.073559 5.890000
v -8.850914 -0.020000 5.943033
v -8.851715 -0.020000 5.943665
v -8.841214 -0.020000 5.931668
v -8.834006 -0.020000 5.918701
v -8.829568 -0.020000 5.904632
v -8.829093 -0.020000 5.900000
v -8.831618 -0.028324 5.900000
v -8.838458 -0.041121 5.900000
v -8.863670 -0.020000 5.952360
v -8.870068 -0.020000 5.955390
v -8.847663 -0.052337 5.900000
v -8.879463 -0.020000 5.959291
v -8.879999 -0.020000 5.959417
v -8.886636 -0.020000 5.960701
v -8.858879 -0.061541 5.900000
v -8.871675 -0.068381 5.900000
v -8.891715 -0.020000 5.961431
v -8.896022 -0.020000 5.961812
v -8.885560 -0.072593 5.900000
v -8.900000 -0.074015 5.900000
v -8.900000 -0.020000 5.961930
v -8.903977 -0.020000 5.961812
v -8.914439 -0.072593 5.900000
v -8.920000 -0.058785 5.931668
v -8.920000 -0.065993 5.918701
v -8.920000 -0.070432 5.904632
v -8.920000 -0.070906 5.900000
v -8.908284 -0.020000 5.961431
v -8.920000 -0.048284 5.943665
v -8.920000 -0.049086 5.943033
v -8.920000 -0.029932 5.955390
v -8.920000 -0.036329 5.952360
v -8.913363 -0.020000 5.960701
v -8.920000 -0.020537 5.959291
v -8.920000 -0.020000 5.959417
v -8.920000 -0.020000 5.959417
v -8.920000 -0.020000 5.959417
vn 0.0654 0.9979 -0.0000
vn 0.1951 0.9808 -0.0000
vn 0.3214 0.9469 -0.0000
vn 0.4423 0.8969 -0.0000
vn 0.5556 0.8315 -0.0000
vn 0.6593 0.7518 -0.0000
vn 0.7518 0.6593 -0.0000
vn 0.8315 0.5556 -0.0000
vn 0.8969 0.4423 -0.0000
vn 0.9469 0.3214 -0.0000
vn 0.9808 0.1951 -0.0000
vn 0.9979 0.0654 -0.0000
vn 0.9979 -0.0654 -0.0000
vn 0.9808 -0.1951 -0.0000
vn 0.9469 -0.3214 -0.0000
vn 0.8969 -0.4423 -0.0000
vn 0.8315 -0.5556 -0.0000
vn 0.7518 -0.6593 -0.0000
vn 0.6593 -0.7518 -0.0000
vn 0.5556 -0.8315 -0.0000
vn 0.4423 -0.8969 -0.0000
vn 0.3214 -0.9469 -0.0000
vn 0.1951 -0.9808 -0.0000
vn 0.0654 -0.9979 -0.0000
vn -0.0654 -0.9979 -0.0000
vn -0.1951 -0.9808 -0.0000
vn -0.3214 -0.9469 -0.0000
vn -0.4423 -0.8969 -0.0000
vn -0.5556 -0.8315 -0.0000
vn -0.6593 -0.7518 -0.0000
vn -0.7518 -0.6593 -0.0000
vn -0.8315 -0.5556 -0.0000
vn -0.8969 -0.4423 -0.0000
vn -0.9469 -0.3214 -0.0000
vn -0.9808 -0.1951 -0.0000
vn -0.9979 -0.0654 -0.0000
vn -0.9979 0.0654 -0.0000
vn -0.9808 0.1951 -0.0000
vn -0.9469 0.3214 -0.0000
vn -0.8969 0.4423 -0.0000
vn -0.8315 0.5556 -0.0000
vn -0.7518 0.6593 -0.0000
vn -0.6593 0.7518 -0.0000
vn -0.5556 0.8315 -0.0000
vn -0.4423 0.8969 -0.0000
vn -0.3214 0.9469 -0.0000
vn -0.0000 -0.0000 1.0000
vn -0.1951 0.9808 -0.0000
vn -0.0654 0.9979 -0.0000
vn -0.0000 -0.0000 -1.0000
vn 0.0464 0.4709 0.8810
vn 0.0624 0.6332 0.7715
vn 0.0759 0.7708 0.6326
vn 0.0865 0.8786 0.4696
vn 0.0938 0.9527 0.2890
vn 0.0975 0.9904 0.0976
vn 0.0097 0.0980 0.9951
vn 0.0928 0.9620 -0.2568
vn 0.0286 0.2902 0.9565
vn 0.2882 0.9227 -0.2562
vn 0.0846 0.2790 0.9565
vn 0.1374 0.4528 0.8810
vn 0.1847 0.6088 0.7715
vn 0.2248 0.7412 0.6326
vn 0.2563 0.8448 0.4696
vn 0.2779 0.9161 0.2890
vn 0.2889 0.9524 0.0975
vn 0.0286 0.0942 0.9951
vn 0.4162 0.7786 0.4696
vn 0.4513 0.8443 0.2890
vn 0.4691 0.8777 0.0975
vn 0.0464 0.0869 0.9951
vn 0.4506 0.8548 -0.2575
vn 0.1374 0.2571 0.9565
vn 0.2230 0.4173 0.8810
vn 0.2999 0.5611 0.7715
vn 0.3651 0.6831 0.6326
vn 0.1850 0.2254 0.9565
vn 0.3002 0.3658 0.8810
vn 0.4036 0.4918 0.7715
vn 0.4913 0.5987 0.6326
vn 0.5601 0.6825 0.4696
vn 0.6073 0.7400 0.2890
vn 0.6314 0.7693 0.0975
vn 0.0625 0.0761 0.9951
vn 0.6028 0.7936 -0.0826
vn 0.6825 0.5601 0.4696
vn 0.7400 0.6073 0.2890
vn 0.7693 0.6314 0.0975
vn 0.0761 0.0625 0.9951
vn 0.7776 0.6273 -0.0438
vn 0.2254 0.1850 0.9565
vn 0.3658 0.3002 0.8810
vn 0.4918 0.4036 0.7715
vn 0.5987 0.4913 0.6326
vn 0.4173 0.2230 0.8810
vn 0.5611 0.2999 0.7715
vn 0.6831 0.3651 0.6326
vn 0.7786 0.4162 0.4696
vn 0.8443 0.4513 0.2890
vn 0.8777 0.4691 0.0975
vn 0.0869 0.0464 0.9951
vn 0.8757 0.4781 -0.0674
vn 0.2571 0.1374 0.9565
vn 0.9161 0.2779 0.2890
vn 0.9524 0.2889 0.0975
vn 0.0942 0.0286 0.9951
vn 0.9541 0.2780 -0.1113
vn 0.2790 0.0846 0.9565
vn 0.4528 0.1374 0.8810
vn 0.6088 0.1847 0.7715
vn 0.7412 0.2248 0.6326
vn 0.8448 0.2563 0.4696
vn 0.4709 0.0464 0.8810
vn 0.6332 0.0624 0.7715
vn 0.7708 0.0759 0.6326
vn 0.8786 0.0865 0.4696
vn 0.9527 0.0938 0.2890
vn 0.9904 0.0976 0.0975
vn 0.0980 0.0097 0.9951
vn 0.9876 0.0972 -0.1234
vn 0.2902 0.0286 0.9565
vn 0.9527 -0.0938 0.2890
vn 0.9904 -0.0975 0.0975
vn 0.0980 -0.0097 0.9951
vn 0.9876 -0.0972 -0.1234
vn 0.2902 -0.0286 0.9565
vn 0.4709 -0.0464 0.8810
vn 0.6332 -0.0624 0.7715
vn 0.7708 -0.0759 0.6326
vn 0.8786 -0.0865 0.4696
vn 0.6088 -0.1847 0.7715
vn 0.7412 -0.2248 0.6326
vn 0.8448 -0.2563 0.4696
vn 0.9161 -0.2779 0.2890
vn 0.9524 -0.2889 0.0975
vn 0.0942 -0.0286 0.9951
vn 0.9476 -0.2941 -0.1243
vn 0.2790 -0.0846 0.9565
vn 0.4528 -0.1374 0.8810
vn 0.8777 -0.4691 0.0975
vn 0.0869 -0.0464 0.9951
vn 0.8736 -0.4711 -0.1217
vn 0.2571 -0.1374 0.9565
vn 0.4173 -0.2231 0.8810
vn 0.5611 -0.2999 0.7715
vn 0.7693 -0.6314 0.0975
vn 0.0761 -0.0625 0.9951
vn 0.7854 -0.6169 -0.0509
vn 0.2254 -0.1850 0.9565
vn 0.3658 -0.3002 0.8810
vn 0.0625 -0.0761 0.9951
vn 0.6306 -0.7339 -0.2523
vn 0.1850 -0.2254 0.9565
vn 0.6314 -0.7693 0.0975
vn 0.4691 -0.8777 0.0975
vn 0.0464 -0.0869 0.9951
vn 0.4664 -0.8846 -0.0000
vn 0.1374 -0.2571 0.9565
vn 0.2882 -0.9227 -0.2562
vn 0.0846 -0.2790 0.9565
vn 0.2889 -0.9524 0.0975
vn 0.0286 -0.0942 0.9951
vn 0.0975 -0.9904 0.0976
vn 0.0097 -0.0980 0.9951
vn 0.0914 -0.9958 -0.0000
vn 0.0286 -0.2902 0.9565
vn -0.0286 -0.2902 0.9565
vn -0.0975 -0.9904 0.0975
vn -0.0097 -0.0980 0.9951
vn -0.1042 -0.9609 -0.2565
vn -0.2563 -0.8448 0.4696
vn -0.2779 -0.9161 0.2890
vn -0.2889 -0.9524 0.0975
vn -0.0286 -0.0942 0.9951
vn -0.2785 -0.9600 0.0290
vn -0.0846 -0.2790 0.9565
vn -0.1847 -0.6088 0.7715
vn -0.2248 -0.7412 0.6326
vn -0.2231 -0.4173 0.8810
vn -0.2999 -0.5611 0.7715
vn -0.3651 -0.6831 0.6326
vn -0.4162 -0.7786 0.4696
vn -0.4513 -0.8443 0.2890
vn -0.4691 -0.8777 0.0975
vn -0.0464 -0.0869 0.9951
vn -0.4664 -0.8846 -0.0000
vn -0.1374 -0.2571 0.9565
vn -0.6073 -0.7400 0.2890
vn -0.6314 -0.7693 0.0975
vn -0.0625 -0.0761 0.9951
vn -0.6062 -0.7838 -0.1347
vn -0.1850 -0.2254 0.9565
vn -0.3002 -0.3658 0.8810
vn -0.4036 -0.4918 0.7715
vn -0.4913 -0.5987 0.6326
vn -0.5601 -0.6825 0.4696
vn -0.4918 -0.4036 0.7715
vn -0.5987 -0.4913 0.6326
vn -0.6825 -0.5601 0.4696
vn -0.7400 -0.6073 0.2890
vn -0.7693 -0.6314 0.0975
vn -0.0761 -0.0625 0.9951
vn -0.7587 -0.6493 -0.0536
vn -0.2254 -0.1850 0.9565
vn -0.3658 -0.3002 0.8810
vn -0.8777 -0.4691 0.0975
vn -0.0869 -0.0464 0.9951
vn -0.8736 -0.4711 -0.1217
vn -0.2571 -0.1374 0.9565
vn -0.4173 -0.2230 0.8810
vn -0.5611 -0.2999 0.7715
vn -0.6831 -0.3651 0.6326
vn -0.7786 -0.4162 0.4696
vn -0.8443 -0.4513 0.2890
vn -0.6088 -0.1847 0.7715
vn -0.7412 -0.2248 0.6326
vn -0.8448 -0.2563 0.4696
vn -0.9161 -0.2779 0.2890
vn -0.9524 -0.2889 0.0975
vn -0.0942 -0.0286 0.9951
vn -0.9539 -0.2764 -0.1169
vn -0.2790 -0.0846 0.9565
vn -0.4528 -0.1374 0.8810
vn -0.9904 -0.0975 0.0975
vn -0.0980 -0.0097 0.9951
vn -0.9874 -0.0969 -0.1249
vn -0.2902 -0.0286 0.9565
vn -0.4709 -0.0464 0.8810
vn -0.6332 -0.0624 0.7715
vn -0.7708 -0.0759 0.6326
vn -0.8786 -0.0865 0.4696
vn -0.9527 -0.0938 0.2890
vn -0.7708 0.0759 0.6326
vn -0.8786 0.0865 0.4696
vn -0.9527 0.0938 0.2890
vn -0.9904 0.0975 0.0975
vn -0.0980 0.0097 0.9951
vn -0.9876 0.0972 -0.1234
vn -0.2902 0.0286 0.9565
vn -0.4709 0.0464 0.8810
vn -0.6332 0.0624 0.7715
vn -0.0942 0.0286 0.9951
vn -0.9478 0.2959 -0.1185
vn -0.2790 0.0846 0.9565
vn -0.4528 0.1374 0.8810
vn -0.6088 0.1847 0.7715
vn -0.7412 0.2248 0.6326
vn -0.8448 0.2563 0.4696
vn -0.9161 0.2779 0.2890
vn -0.9524 0.2889 0.0975
vn -0.6831 0.3651 0.6326
vn -0.7786 0.4162 0.4696
vn -0.8443 0.4513 0.2890
vn -0.8777 0.4691 0.0975
vn -0.0869 0.0464 0.9951
vn -0.8655 0.4725 -0.1664
vn -0.2571 0.1374 0.9565
vn -0.4173 0.2231 0.8810
vn -0.5611 0.2999 0.7715
vn -0.7533 0.6541 -0.0685
vn -0.2254 0.1850 0.9565
vn -0.3658 0.3002 0.8810
vn -0.4918 0.4036 0.7715
vn -0.5987 0.4913 0.6326
vn -0.6825 0.5601 0.4696
vn -0.7400 0.6073 0.2890
vn -0.7693 0.6314 0.0975
vn -0.0761 0.0625 0.9951
vn -0.5601 0.6825 0.4696
vn -0.6073 0.7400 0.2890
vn -0.6314 0.7693 0.0975
vn -0.0625 0.0761 0.9951
vn -0.6028 0.7936 -0.0826
vn -0.1850 0.2254 0.9565
vn -0.3002 0.3658 0.8810
vn -0.4036 0.4918 0.7715
vn -0.4913 0.5987 0.6326
vn -0.2231 0.4173 0.8810
vn -0.2999 0.5611 0.7715
vn -0.3651 0.6831 0.6326
vn -0.4162 0.7786 0.4696
vn -0.4513 0.8443 0.2890
vn -0.4691 0.8777 0.0975
vn -0.0464 0.0869 0.9951
vn -0.4580 0.8890 -0.0012
vn -0.1374 0.2571 0.9565
vn -0.2779 0.9161 0.2890
vn -0.2889 0.9524 0.0975
vn -0.0286 0.0942 0.9951
vn -0.2634 0.8434 -0.4683
vn -0.0846 0.2790 0.9565
vn -0.1374 0.4528 0.8810
vn -0.1847 0.6088 0.7715
vn -0.2248 0.7412 0.6326
vn -0.2563 0.8448 0.4696
vn -0.0464 0.4709 0.8810
vn -0.0624 0.6332 0.7715
vn -0.0759 0.7708 0.6326
vn -0.0865 0.8786 0.4696
vn -0.0938 0.9527 0.2890
vn -0.0976 0.9904 0.0976
vn -0.0097 0.0980 0.9951
vn -0.1026 0.9888 -0.1086
vn -0.0286 0.2902 0.9565
vn 1.0000 -0.0000 -0.0000
vn -0.0000 -1.0000 -0.0000
vn 0.0975 0.9904 0.0975
vn 0.0963 0.9617 0.2567
vn 0.2785 0.9600 0.0290
vn 0.2889 0.9524 0.0976
vn 0.4838 0.8752 -0.0012
vn 0.2231 0.4173 0.8810
vn 0.6462 0.7521 -0.1292
vn 0.7481 0.6495 -0.1360
vn 0.4173 0.2231 0.8810
vn 0.8859 0.4517 -0.1052
vn 0.9475 0.2966 -0.1191
vn 0.9904 0.0975 0.0975
vn 0.9904 -0.0976 0.0975
vn 0.9874 -0.0969 -0.1249
vn 0.9478 -0.2959 -0.1185
vn 0.8879 -0.4501 -0.0951
vn 0.4173 -0.2230 0.8810
vn 0.7759 -0.6175 -0.1293
vn 0.2254 -0.1850 0.9566
vn 0.6130 -0.7789 -0.1326
vn 0.4634 -0.8405 -0.2807
vn 0.2855 -0.9522 0.1088
vn 0.2889 -0.9524 0.0976
vn 0.0975 -0.9904 0.0975
vn 0.0960 -0.9954 -0.0000
vn -0.0944 -0.9896 -0.1087
vn -0.2882 -0.9227 -0.2562
vn -0.4838 -0.8752 -0.0012
vn -0.6436 -0.7612 -0.0793
vn -0.7808 -0.6214 -0.0651
vn -0.0000 -0.2800 0.9600
vn 0.2809 -0.1872 0.9413
vn -0.8879 -0.4501 -0.0951
vn -0.9478 -0.2959 -0.1185
vn -0.9876 -0.0972 -0.1234
vn -0.9874 0.0969 -0.1249
vn -0.9520 0.2759 -0.1324
vn -0.8788 0.4739 -0.0557
vn -0.4173 0.2230 0.8810
vn -0.7812 0.6136 -0.1149
vn -0.6462 0.7521 -0.1292
vn -0.2230 0.4173 0.8810
vn -0.4918 0.8707 -0.0000
vn -0.2838 0.9463 -0.1546
vn -0.0975 0.9904 0.0975
vn -0.0996 0.9950 -0.0000
vn 0.9981 0.0624 -0.0000
s 0
usemtl steel_grey
f 2//1 3//1 1//1
f 4//2 5//2 3//2
f 6//3 7//3 5//3
f 8//4 9//4 7//4
f 10//5 11//5 9//5
f 12//6 13//6 11//6
f 14//7 15//7 13//7
f 16//8 17//8 15//8
f 18//9 19//9 17//9
f 20//10 21//10 19//10
f 22//11 23//11 21//11
f 24//12 25//12 23//12
f 26//13 27//13 25//13
f 28//14 29//14 27//14
f 30//15 31//15 29//15
f 32//16 33//16 31//16
f 34//17 35//17 33//17
f 36//18 37//18 35//18
f 38//19 39//19 37//19
f 40//20 41//20 39//20
f 42//21 43//21 41//21
f 44//22 45//22 43//22
f 46//23 47//23 45//23
f 48//24 49//24 47//24
f 50//25 51//25 49//25
f 52//26 53//26 51//26
f 54//27 55//27 53//27
f 56//28 57//28 55//28
f 58//29 59//29 57//29
f 60//30 61//30 59//30
f 62//31 63//31 61//31
f 64//32 65//32 63//32
f 66//33 67//33 65//33
f 68//34 69//34 67//34
f 70//35 71//35 69//35
f 72//36 73//36 71//36
f 74//37 75//37 73//37
f 76//38 77//38 75//38
f 78//39 79//39 77//39
f 80//40 81//40 79//40
f 82//41 83//41 81//41
f 84//42 85//42 83//42
f 86//43 87//43 85//43
f 88//44 89//44 87//44
f 90//45 91//45 89//45
f 92//46 93//46 91//46
f 70//47 38//47 6//47
f 94//48 95//48 93//48
f 96//49 1//49 95//49
f 31//50 63//50 95//50
f 2//1 4//1 3//1
f 4//2 6//2 5//2
f 6//3 8//3 7//3
f 8//4 10//4 9//4
f 10//5 12//5 11//5
f 12//6 14//6 13//6
f 14//7 16//7 15//7
f 16//8 18//8 17//8
f 18//9 20//9 19//9
f 20//10 22//10 21//10
f 22//11 24//11 23//11
f 24//12 26//12 25//12
f 26//13 28//13 27//13
f 28//14 30//14 29//14
f 30//15 32//15 31//15
f 32//16 34//16 33//16
f 34//17 36//17 35//17
f 36//18 38//18 37//18
f 38//19 40//19 39//19
f 40//20 42//20 41//20
f 42//21 44//21 43//21
f 44//22 46//22 45//22
f 46//23 48//23 47//23
f 48//24 50//24 49//24
f 50//25 52//25 51//25
f 52//26 54//26 53//26
f 54//27 56//27 55//27
f 56//28 58//28 57//28
f 58//29 60//29 59//29
f 60//30 62//30 61//30
f 62//31 64//31 63//31
f 64//32 66//32 65//32
f 66//33 68//33 67//33
f 68//34 70//34 69//34
f 70//35 72//35 71//35
f 72//36 74//36 73//36
f 74//37 76//37 75//37
f 76//38 78//38 77//38
f 78//39 80//39 79//39
f 80//40 82//40 81//40
f 82//41 84//41 83//41
f 84//42 86//42 85//42
f 86//43 88//43 87//43
f 88//44 90//44 89//44
f 90//45 92//45 91//45
f 92//46 94//46 93//46
f 6//47 4//47 2//47
f 2//47 96//47 94//47
f 94//47 92//47 90//47
f 90//47 88//47 86//47
f 86//47 84//47 82//47
f 82//47 80//47 78//47
f 78//47 76//47 74//47
f 74//47 72//47 70//47
f 70//47 68//47 66//47
f 66//47 64//47 62//47
f 62//47 60//47 58//47
f 58//47 56//47 54//47
f 54//47 52//47 50//47
f 50//47 48//47 46//47
f 46//47 44//47 42//47
f 42//47 40//47 38//47
f 38//47 36//47 34//47
f 34//47 32//47 30//47
f 30//47 28//47 26//47
f 26//47 24//47 22//47
f 22//47 20//47 18//47
f 18//47 16//47 14//47
f 14//47 12//47 10//47
f 10//47 8//47 6//47
f 6//47 2//47 94//47
f 94//47 90//47 86//47
f 86//47 82//47 78//47
f 78//47 74//47 70//47
f 70//47 66//47 62//47
f 62//47 58//47 54//47
f 54//47 50//47 46//47
f 46//47 42//47 38//47
f 38//47 34//47 30//47
f 30//47 26//47 22//47
f 22//47 18//47 14//47
f 14//47 10//47 6//47
f 6//47 94//47 86//47
f 86//47 78//47 70//47
f 70//47 62//47 54//47
f 54//47 46//47 38//47
f 38//47 30//47 22//47
f 22//47 14//47 6//47
f 6//47 86//47 70//47
f 70//47 54//47 38//47
f 38//47 22//47 6//47
f 94//48 96//48 95//48
f 96//49 2//49 1//49
f 95//50 1//50 3//50
f 3//50 5//50 7//50
f 7//50 9//50 11//50
f 11//50 13//50 15//50
f 15//50 17//50 19//50
f 19//50 21//50 23//50
f 23//50 25//50 27//50
f 27//50 29//50 31//50
f 31//50 33//50 35//50
f 35//50 37//50 39//50
f 39//50 41//50 43//50
f 43//50 45//50 47//50
f 47//50 49//50 51//50
f 51//50 53//50 55//50
f 55//50 57//50 59//50
f 59//50 61//50 63//50
f 63//50 65//50 67//50
f 67//50 69//50 71//50
f 71//50 73//50 75//50
f 75//50 77//50 79//50
f 79//50 81//50 83//50
f 83//50 85//50 87//50
f 87//50 89//50 91//50
f 91//50 93//50 95//50
f 95//50 3//50 7//50
f 7//50 11//50 15//50
f 15//50 19//50 23//50
f 23//50 27//50 31//50
f 31//50 35//50 39//50
f 39//50 43//50 47//50
f 47//50 51//50 55//50
f 55//50 59//50 63//50
f 63//50 67//50 71//50
f 71//50 75//50 79//50
f 79//50 83//50 87//50
f 87//50 91//50 95//50
f 95//50 7//50 15//50
f 15//50 23//50 31//50
f 31//50 39//50 47//50
f 47//50 55//50 63//50
f 63//50 71//50 79//50
f 79//50 87//50 95//50
f 95//50 15//50 31//50
f 31//50 47//50 63//50
f 63//50 79//50 95//50
usemtl dead_glass
f 100//51 105//51 106//51
f 100//52 107//52 101//52
f 305//53 107//53 108//53
f 102//54 108//54 109//54
f 306//55 109//55 110//55
f 306//56 111//56 103//56
f 98//57 97//57 104//57
f 111//58 307//58 103//58
f 304//59 104//59 105//59
f 111//60 309//60 308//60
f 104//61 113//61 105//61
f 105//62 114//62 106//62
f 106//63 115//63 107//63
f 107//64 116//64 108//64
f 108//65 117//65 109//65
f 109//66 118//66 110//66
f 110//67 119//67 111//67
f 104//68 97//68 112//68
f 116//69 125//69 117//69
f 117//70 126//70 118//70
f 118//71 127//71 119//71
f 112//72 97//72 120//72
f 119//73 310//73 309//73
f 112//74 121//74 113//74
f 113//75 122//75 114//75
f 114//76 123//76 115//76
f 115//77 124//77 116//77
f 120//78 129//78 121//78
f 121//79 130//79 122//79
f 123//80 130//80 131//80
f 123//81 132//81 124//81
f 124//82 133//82 125//82
f 125//83 134//83 126//83
f 126//84 135//84 127//84
f 120//85 97//85 128//85
f 310//86 135//86 311//86
f 132//87 141//87 133//87
f 133//88 142//88 134//88
f 134//89 143//89 135//89
f 128//90 97//90 136//90
f 311//91 143//91 312//91
f 128//92 137//92 129//92
f 129//93 138//93 130//93
f 130//94 139//94 131//94
f 131//95 140//95 132//95
f 137//96 146//96 138//96
f 139//97 146//97 147//97
f 139//98 148//98 140//98
f 140//99 149//99 141//99
f 141//100 150//100 142//100
f 142//101 151//101 143//101
f 136//102 97//102 144//102
f 143//103 313//103 312//103
f 136//104 145//104 137//104
f 149//105 158//105 150//105
f 150//106 159//106 151//106
f 144//107 97//107 152//107
f 151//108 314//108 313//108
f 144//109 153//109 145//109
f 145//110 154//110 146//110
f 147//111 154//111 155//111
f 147//112 156//112 148//112
f 148//113 157//113 149//113
f 153//114 162//114 154//114
f 155//115 162//115 163//115
f 155//116 164//116 156//116
f 156//117 165//117 157//117
f 157//118 166//118 158//118
f 159//119 166//119 167//119
f 152//120 97//120 160//120
f 159//121 315//121 314//121
f 152//122 161//122 153//122
f 165//123 174//123 166//123
f 167//124 174//124 175//124
f 160//125 97//125 168//125
f 167//126 316//126 315//126
f 160//127 169//127 161//127
f 161//128 170//128 162//128
f 162//129 171//129 163//129
f 164//130 171//130 172//130
f 164//131 173//131 165//131
f 171//132 178//132 340//132
f 341//133 171//133 339//133
f 342//134 172//134 341//134
f 343//135 173//135 342//135
f 179//136 174//136 344//136
f 168//137 97//137 176//137
f 316//138 179//138 317//138
f 168//139 177//139 169//139
f 169//140 178//140 170//140
f 346//141 179//141 345//141
f 176//142 97//142 180//142
f 317//143 182//143 318//143
f 176//144 181//144 177//144
f 178//145 181//145 348//145
f 340//146 178//146 347//146
f 349//147 182//147 346//147
f 180//148 97//148 183//148
f 318//149 184//149 319//149
f 181//150 183//150 351//150
f 348//151 181//151 350//151
f 183//152 97//152 185//152
f 184//153 320//153 319//153
f 183//154 352//154 351//154
f 186//155 349//155 353//155
f 186//156 354//156 188//156
f 185//157 97//157 187//157
f 186//158 321//158 320//158
f 185//159 355//159 352//159
f 188//160 322//160 321//160
f 187//161 356//161 355//161
f 188//162 357//162 190//162
f 187//163 97//163 189//163
f 358//164 190//164 357//164
f 189//165 97//165 191//165
f 190//166 323//166 322//166
f 189//167 359//167 356//167
f 359//168 193//168 360//168
f 361//169 192//169 358//169
f 191//170 97//170 193//170
f 192//171 324//171 323//171
f 198//172 362//172 197//172
f 199//173 363//173 198//173
f 200//174 361//174 365//174
f 193//175 97//175 195//175
f 324//176 200//176 325//176
f 360//177 195//177 366//177
f 196//178 368//178 367//178
f 197//179 368//179 196//179
f 202//180 370//180 369//180
f 370//181 203//181 196//181
f 196//182 204//182 197//182
f 197//183 205//183 198//183
f 198//184 206//184 199//184
f 200//185 206//185 207//185
f 195//186 97//186 201//186
f 200//187 326//187 325//187
f 201//188 366//188 195//188
f 205//189 214//189 206//189
f 207//190 214//190 215//190
f 201//191 97//191 208//191
f 207//192 327//192 326//192
f 208//193 371//193 201//193
f 209//193 372//193 373//193
f 372//194 210//194 202//194
f 203//195 210//195 211//195
f 203//196 212//196 204//196
f 204//197 213//197 205//197
f 211//198 218//198 219//198
f 211//199 220//199 212//199
f 212//200 221//200 213//200
f 213//201 222//201 214//201
f 215//202 222//202 223//202
f 208//203 97//203 216//203
f 223//204 327//204 215//204
f 217//205 375//205 208//205
f 210//206 217//206 218//206
f 223//207 230//207 231//207
f 216//208 97//208 224//208
f 231//209 328//209 223//209
f 217//210 224//210 225//210
f 218//211 225//211 226//211
f 219//212 226//212 227//212
f 219//213 228//213 220//213
f 220//214 229//214 221//214
f 221//215 230//215 222//215
f 227//216 234//216 235//216
f 227//217 236//217 228//217
f 228//218 237//218 229//218
f 229//219 238//219 230//219
f 231//220 238//220 239//220
f 224//221 97//221 232//221
f 239//222 329//222 231//222
f 224//223 233//223 225//223
f 226//224 233//224 234//224
f 239//225 246//225 247//225
f 232//226 97//226 240//226
f 247//227 330//227 239//227
f 233//228 240//228 241//228
f 234//229 241//229 242//229
f 234//230 243//230 235//230
f 235//231 244//231 236//231
f 236//232 245//232 237//232
f 237//233 246//233 238//233
f 243//234 252//234 244//234
f 244//235 253//235 245//235
f 245//236 254//236 246//236
f 247//237 254//237 255//237
f 240//238 97//238 248//238
f 247//239 332//239 331//239
f 240//240 249//240 241//240
f 242//241 249//241 250//241
f 243//242 250//242 251//242
f 248//243 97//243 256//243
f 255//244 333//244 332//244
f 248//245 257//245 249//245
f 249//246 258//246 250//246
f 251//247 258//247 259//247
f 251//248 260//248 252//248
f 252//249 261//249 253//249
f 253//250 262//250 254//250
f 255//251 262//251 263//251
f 259//252 268//252 260//252
f 260//253 269//253 261//253
f 261//254 270//254 262//254
f 263//255 270//255 271//255
f 256//256 97//256 264//256
f 263//257 334//257 333//257
f 256//258 265//258 257//258
f 258//259 265//259 266//259
f 259//260 266//260 267//260
f 271//261 335//261 334//261
f 264//262 273//262 265//262
f 266//263 273//263 274//263
f 267//264 274//264 275//264
f 267//265 276//265 268//265
f 268//266 277//266 269//266
f 269//267 278//267 270//267
f 271//268 278//268 279//268
f 264//269 97//269 272//269
f 276//270 285//270 277//270
f 277//271 286//271 278//271
f 279//272 286//272 287//272
f 272//273 97//273 280//273
f 287//274 335//274 279//274
f 272//275 281//275 273//275
f 273//276 282//276 274//276
f 275//277 282//277 283//277
f 275//278 284//278 276//278
f 281//279 290//279 282//279
f 283//280 290//280 291//280
f 283//281 292//281 284//281
f 284//282 293//282 285//282
f 285//283 294//283 286//283
f 287//284 294//284 295//284
f 280//285 97//285 288//285
f 295//286 336//286 287//286
f 280//287 289//287 281//287
f 293//288 302//288 294//288
f 295//289 302//289 303//289
f 288//290 97//290 296//290
f 295//291 338//291 337//291
f 288//292 297//292 289//292
f 290//293 297//293 298//293
f 291//294 298//294 299//294
f 291//295 300//295 292//295
f 293//296 300//296 301//296
f 298//297 304//297 100//297
f 299//298 100//298 101//298
f 300//299 101//299 305//299
f 301//300 305//300 102//300
f 302//301 102//301 306//301
f 303//302 306//302 103//302
f 296//303 97//303 98//303
f 103//304 338//304 303//304
f 297//305 98//305 304//305
f 320//50 328//50 336//50
f 370//306 363//306 375//306
f 355//307 99//307 341//307
f 358//47 349//47 99//47
f 100//51 304//51 105//51
f 100//52 106//52 107//52
f 305//53 101//53 107//53
f 102//54 305//54 108//54
f 306//55 102//55 109//55
f 306//308 110//308 111//308
f 111//309 308//309 307//309
f 304//59 98//59 104//59
f 111//310 119//310 309//310
f 104//61 112//61 113//61
f 105//62 113//62 114//62
f 106//63 114//63 115//63
f 107//64 115//64 116//64
f 108//65 116//65 117//65
f 109//66 117//66 118//66
f 110//311 118//311 119//311
f 116//69 124//69 125//69
f 117//70 125//70 126//70
f 118//71 126//71 127//71
f 119//312 127//312 310//312
f 112//74 120//74 121//74
f 113//313 121//313 122//313
f 114//76 122//76 123//76
f 115//77 123//77 124//77
f 120//78 128//78 129//78
f 121//79 129//79 130//79
f 123//80 122//80 130//80
f 123//81 131//81 132//81
f 124//82 132//82 133//82
f 125//83 133//83 134//83
f 126//84 134//84 135//84
f 310//314 127//314 135//314
f 132//87 140//87 141//87
f 133//88 141//88 142//88
f 134//89 142//89 143//89
f 311//315 135//315 143//315
f 128//92 136//92 137//92
f 129//93 137//93 138//93
f 130//94 138//94 139//94
f 131//95 139//95 140//95
f 137//316 145//316 146//316
f 139//97 138//97 146//97
f 139//98 147//98 148//98
f 140//99 148//99 149//99
f 141//100 149//100 150//100
f 142//101 150//101 151//101
f 143//317 151//317 313//317
f 136//104 144//104 145//104
f 149//105 157//105 158//105
f 150//106 158//106 159//106
f 151//318 159//318 314//318
f 144//109 152//109 153//109
f 145//110 153//110 154//110
f 147//111 146//111 154//111
f 147//112 155//112 156//112
f 148//113 156//113 157//113
f 153//114 161//114 162//114
f 155//115 154//115 162//115
f 155//116 163//116 164//116
f 156//117 164//117 165//117
f 157//118 165//118 166//118
f 159//319 158//319 166//319
f 159//121 167//121 315//121
f 152//122 160//122 161//122
f 165//123 173//123 174//123
f 167//320 166//320 174//320
f 167//321 175//321 316//321
f 160//127 168//127 169//127
f 161//128 169//128 170//128
f 162//129 170//129 171//129
f 164//130 163//130 171//130
f 164//131 172//131 173//131
f 340//132 339//132 171//132
f 171//132 170//132 178//132
f 341//133 172//133 171//133
f 342//134 173//134 172//134
f 343//135 174//135 173//135
f 344//136 345//136 179//136
f 179//136 175//136 174//136
f 174//136 343//136 344//136
f 316//322 175//322 179//322
f 168//139 176//139 177//139
f 169//140 177//140 178//140
f 346//141 182//141 179//141
f 317//323 179//323 182//323
f 176//144 180//144 181//144
f 348//324 347//324 178//324
f 178//324 177//324 181//324
f 349//147 184//147 182//147
f 318//325 182//325 184//325
f 351//326 350//326 181//326
f 181//150 180//150 183//150
f 184//327 186//327 320//327
f 183//154 185//154 352//154
f 186//155 184//155 349//155
f 186//156 353//156 354//156
f 186//328 188//328 321//328
f 185//159 187//159 355//159
f 188//329 190//329 322//329
f 187//161 189//161 356//161
f 188//330 354//330 357//330
f 358//331 192//331 190//331
f 190//332 192//332 323//332
f 189//167 191//167 359//167
f 359//168 191//168 193//168
f 361//169 194//169 192//169
f 192//333 194//333 324//333
f 198//172 363//172 362//172
f 199//173 364//173 363//173
f 364//174 199//174 200//174
f 200//174 194//174 361//174
f 365//174 364//174 200//174
f 324//334 194//334 200//334
f 360//177 193//177 195//177
f 197//179 362//179 368//179
f 196//181 367//181 370//181
f 370//181 202//181 203//181
f 196//182 203//182 204//182
f 197//183 204//183 205//183
f 198//184 205//184 206//184
f 200//185 199//185 206//185
f 200//335 207//335 326//335
f 201//188 371//188 366//188
f 205//189 213//189 214//189
f 207//190 206//190 214//190
f 207//336 215//336 327//336
f 208//193 374//193 371//193
f 202//194 369//194 372//194
f 372//194 209//194 210//194
f 203//195 202//195 210//195
f 203//196 211//196 212//196
f 204//197 212//197 213//197
f 211//198 210//198 218//198
f 211//199 219//199 220//199
f 212//200 220//200 221//200
f 213//201 221//201 222//201
f 215//202 214//202 222//202
f 223//337 328//337 327//337
f 208//205 216//205 217//205
f 217//205 209//205 373//205
f 375//338 374//338 208//338
f 217//339 373//339 375//339
f 210//206 209//206 217//206
f 223//207 222//207 230//207
f 231//340 329//340 328//340
f 217//210 216//210 224//210
f 218//211 217//211 225//211
f 219//212 218//212 226//212
f 219//213 227//213 228//213
f 220//214 228//214 229//214
f 221//215 229//215 230//215
f 227//216 226//216 234//216
f 227//217 235//217 236//217
f 228//218 236//218 237//218
f 229//219 237//219 238//219
f 231//220 230//220 238//220
f 239//341 330//341 329//341
f 224//223 232//223 233//223
f 226//224 225//224 233//224
f 239//225 238//225 246//225
f 247//342 331//342 330//342
f 233//228 232//228 240//228
f 234//229 233//229 241//229
f 234//230 242//230 243//230
f 235//231 243//231 244//231
f 236//232 244//232 245//232
f 237//233 245//233 246//233
f 243//234 251//234 252//234
f 244//235 252//235 253//235
f 245//236 253//236 254//236
f 247//237 246//237 254//237
f 247//343 255//343 332//343
f 240//240 248//240 249//240
f 242//241 241//241 249//241
f 243//242 242//242 250//242
f 255//344 263//344 333//344
f 248//245 256//245 257//245
f 249//246 257//246 258//246
f 251//247 250//247 258//247
f 251//248 259//248 260//248
f 252//249 260//249 261//249
f 253//250 261//250 262//250
f 255//251 254//251 262//251
f 259//252 267//252 268//252
f 260//253 268//253 269//253
f 261//254 269//254 270//254
f 263//255 262//255 270//255
f 263//345 271//345 334//345
f 256//258 264//258 265//258
f 258//346 257//346 265//346
f 259//260 258//260 266//260
f 271//347 279//347 335//347
f 264//262 272//262 273//262
f 266//263 265//263 273//263
f 267//264 266//264 274//264
f 267//265 275//265 276//265
f 268//266 276//266 277//266
f 269//267 277//267 278//267
f 271//268 270//268 278//268
f 276//270 284//270 285//270
f 277//271 285//271 286//271
f 279//272 278//272 286//272
f 287//348 336//348 335//348
f 272//275 280//275 281//275
f 273//276 281//276 282//276
f 275//277 274//277 282//277
f 275//278 283//278 284//278
f 281//349 289//349 290//349
f 283//280 282//280 290//280
f 283//281 291//281 292//281
f 284//282 292//282 293//282
f 285//283 293//283 294//283
f 287//284 286//284 294//284
f 295//350 337//350 336//350
f 280//287 288//287 289//287
f 293//288 301//288 302//288
f 295//289 294//289 302//289
f 295//351 303//351 338//351
f 288//292 296//292 297//292
f 290//293 289//293 297//293
f 291//294 290//294 298//294
f 291//295 299//295 300//295
f 293//296 292//296 300//296
f 298//297 297//297 304//297
f 299//298 298//298 100//298
f 300//299 299//299 101//299
f 301//300 300//300 305//300
f 302//301 301//301 102//301
f 303//352 302//352 306//352
f 103//353 307//353 338//353
f 297//305 296//305 98//305
f 336//50 337//50 338//50
f 338//50 307//50 308//50
f 308//50 309//50 310//50
f 310//50 311//50 312//50
f 312//50 313//50 314//50
f 314//50 315//50 316//50
f 316//50 317//50 318//50
f 318//50 319//50 320//50
f 320//50 321//50 322//50
f 322//50 323//50 324//50
f 324//50 325//50 326//50
f 326//50 327//50 328//50
f 328//50 329//50 330//50
f 330//50 331//50 332//50
f 332//50 333//50 334//50
f 334//50 335//50 336//50
f 336//50 338//50 308//50
f 308//50 310//50 312//50
f 312//50 314//50 316//50
f 316//50 318//50 320//50
f 320//50 322//50 324//50
f 324//50 326//50 328//50
f 328//50 330//50 332//50
f 332//50 334//50 336//50
f 336//50 308//50 312//50
f 312//50 316//50 320//50
f 320//50 324//50 328//50
f 328//50 332//50 336//50
f 336//50 312//50 320//50
f 375//354 373//354 372//354
f 372//306 369//306 370//306
f 370//306 367//306 368//306
f 368//306 362//306 363//306
f 363//306 364//306 365//306
f 365//306 99//306 375//306
f 375//306 372//306 370//306
f 370//306 368//306 363//306
f 363//306 365//306 375//306
f 341//307 339//307 340//307
f 340//307 347//307 348//307
f 348//307 350//307 351//307
f 351//307 352//307 355//307
f 355//307 356//307 359//307
f 359//307 360//307 366//307
f 366//307 371//307 374//307
f 374//307 375//307 99//307
f 99//307 344//307 343//307
f 343//307 342//307 341//307
f 341//307 340//307 348//307
f 348//307 351//307 355//307
f 355//307 359//307 366//307
f 366//307 374//307 99//307
f 99//307 343//307 341//307
f 341//307 348//307 355//307
f 355//307 366//307 99//307
f 365//47 361//47 358//47
f 358//47 357//47 354//47
f 354//47 353//47 349//47
f 349//47 346//47 345//47
f 345//47 344//47 99//47
f 99//47 365//47 358//47
f 358//47 354//47 349//47
f 349//47 345//47 99//47
