# Blender 5.2.2 LTS
# www.blender.org
mtllib bedplate.mtl
o bedplate
v -3.400000 -1.300000 0.000000
v -3.400000 -1.300000 0.450000
v -3.400000 -0.900000 0.000000
v -3.400000 -0.900000 0.450000
v 2.700000 -1.300000 0.000000
v 2.700000 -1.300000 0.450000
v 2.700000 -0.900000 0.000000
v 2.700000 -0.900000 0.450000
v -2.730000 -0.900000 0.225000
v -2.728888 -0.900000 0.208032
v -2.725570 -0.900000 0.258646
v -2.725570 -0.900000 0.191354
v -2.728888 -0.900000 0.241968
v -2.720104 -0.900000 0.175251
v -2.703136 -0.900000 0.304139
v -2.712583 -0.900000 0.160000
v -2.712583 -0.900000 0.290000
v -2.703136 -0.900000 0.145861
v -2.720104 -0.900000 0.274749
v -2.691924 -0.900000 0.133076
v -2.665000 -0.900000 0.337583
v -2.679139 -0.900000 0.121864
v -2.679139 -0.900000 0.328136
v -2.649749 -0.900000 0.104896
v -2.616968 -0.900000 0.096112
v -2.616968 -0.900000 0.353888
v -2.633646 -0.900000 0.099430
v -2.633646 -0.900000 0.350570
v -2.665000 -0.900000 0.112417
v -2.649749 -0.900000 0.345104
v -2.691924 -0.900000 0.316924
v -2.566353 -0.900000 0.099430
v -2.566353 -0.900000 0.350570
v -2.583031 -0.900000 0.096112
v -2.583031 -0.900000 0.353888
v -2.520861 -0.900000 0.121864
v -2.520861 -0.900000 0.328136
v -2.535000 -0.900000 0.112417
v -2.535000 -0.900000 0.337583
v -2.550251 -0.900000 0.104896
v -2.550251 -0.900000 0.345104
v -2.496864 -0.900000 0.304139
v -2.487417 -0.900000 0.160000
v -2.496864 -0.900000 0.145861
v -2.487417 -0.900000 0.290000
v -2.474430 -0.900000 0.258646
v -2.470000 -0.900000 0.225000
v -2.471112 -0.900000 0.208032
v -2.471112 -0.900000 0.241968
v -2.474430 -0.900000 0.191354
v -2.479896 -0.900000 0.274749
v -2.479896 -0.900000 0.175251
v -2.508076 -0.900000 0.316924
v -2.508076 -0.900000 0.133076
v -2.600000 -0.900000 0.095000
v -2.600000 -0.900000 0.355000
v -2.730000 -1.300000 0.225000
v -2.728888 -1.300000 0.208032
v -2.725570 -1.300000 0.191354
v -2.728888 -1.300000 0.241968
v -2.725570 -1.300000 0.258646
v -2.720104 -1.300000 0.274749
v -2.703136 -1.300000 0.145861
v -2.712583 -1.300000 0.160000
v -2.712583 -1.300000 0.290000
v -2.720104 -1.300000 0.175251
v -2.703136 -1.300000 0.304139
v -2.691924 -1.300000 0.316924
v -2.665000 -1.300000 0.112417
v -2.679139 -1.300000 0.121864
v -2.679139 -1.300000 0.328136
v -2.649749 -1.300000 0.345104
v -2.616968 -1.300000 0.096112
v -2.616968 -1.300000 0.353888
v -2.633646 -1.300000 0.099430
v -2.633646 -1.300000 0.350570
v -2.649749 -1.300000 0.104896
v -2.665000 -1.300000 0.337583
v -2.691924 -1.300000 0.133076
v -2.566353 -1.300000 0.099430
v -2.566353 -1.300000 0.350570
v -2.583031 -1.300000 0.096112
v -2.583031 -1.300000 0.353888
v -2.520861 -1.300000 0.121864
v -2.520861 -1.300000 0.328136
v -2.535000 -1.300000 0.112417
v -2.535000 -1.300000 0.337583
v -2.550251 -1.300000 0.104896
v -2.550251 -1.300000 0.345104
v -2.496864 -1.300000 0.145861
v -2.487417 -1.300000 0.290000
v -2.487417 -1.300000 0.160000
v -2.496864 -1.300000 0.304139
v -2.474430 -1.300000 0.191354
v -2.470000 -1.300000 0.225000
v -2.471112 -1.300000 0.208032
v -2.471112 -1.300000 0.241968
v -2.474430 -1.300000 0.258646
v -2.479896 -1.300000 0.274749
v -2.479896 -1.300000 0.175251
v -2.508076 -1.300000 0.316924
v -2.508076 -1.300000 0.133076
v -2.600000 -1.300000 0.095000
v -2.600000 -1.300000 0.355000
v -1.949749 -0.900000 0.345104
v -1.933646 -0.900000 0.350570
v -1.900000 -0.900000 0.355000
v -1.916968 -0.900000 0.353888
v -1.866354 -0.900000 0.350570
v -1.835000 -0.900000 0.337583
v -1.850251 -0.900000 0.345104
v -1.883032 -0.900000 0.353888
v -1.991924 -0.900000 0.316924
v -1.965000 -0.900000 0.337583
v -1.979139 -0.900000 0.328136
v -1.820861 -0.900000 0.328136
v -1.796864 -0.900000 0.304139
v -1.808076 -0.900000 0.316924
v -2.003136 -0.900000 0.304139
v -1.787417 -0.900000 0.290000
v -1.916968 -0.900000 0.096112
v -1.933646 -0.900000 0.099430
v -1.900000 -0.900000 0.095000
v -1.883032 -0.900000 0.096112
v -1.949749 -0.900000 0.104896
v -1.850251 -0.900000 0.104896
v -1.866354 -0.900000 0.099430
v -2.012583 -0.900000 0.290000
v -1.779896 -0.900000 0.274749
v -1.965000 -0.900000 0.112417
v -1.835000 -0.900000 0.112417
v -1.979139 -0.900000 0.121864
v -1.820861 -0.900000 0.121864
v -2.020104 -0.900000 0.274749
v -1.774430 -0.900000 0.258646
v -1.991924 -0.900000 0.133076
v -1.808076 -0.900000 0.133076
v -2.003136 -0.900000 0.145861
v -1.796864 -0.900000 0.145861
v -2.025570 -0.900000 0.258646
v -1.771112 -0.900000 0.241968
v -2.028888 -0.900000 0.241968
v -1.770000 -0.900000 0.225000
v -2.012583 -0.900000 0.160000
v -1.787417 -0.900000 0.160000
v -2.020104 -0.900000 0.175251
v -1.779896 -0.900000 0.175251
v -2.030000 -0.900000 0.225000
v -2.029758 -0.900000 0.221316
v -2.025570 -0.900000 0.191354
v -1.774430 -0.900000 0.191354
v -2.028888 -0.900000 0.208032
v -1.771112 -0.900000 0.208032
v -1.933646 -1.300000 0.099430
v -1.949749 -1.300000 0.104896
v -1.900000 -1.300000 0.095000
v -1.916968 -1.300000 0.096112
v -1.866354 -1.300000 0.099430
v -1.835000 -1.300000 0.112417
v -1.883032 -1.300000 0.096112
v -1.850251 -1.300000 0.104896
v -1.991924 -1.300000 0.133076
v -1.965000 -1.300000 0.112417
v -1.979139 -1.300000 0.121864
v -1.820861 -1.300000 0.121864
v -1.796864 -1.300000 0.145861
v -1.808076 -1.300000 0.133076
v -2.003136 -1.300000 0.145861
v -1.787417 -1.300000 0.160000
v -1.933646 -1.300000 0.350570
v -1.916968 -1.300000 0.353888
v -1.900000 -1.300000 0.355000
v -1.883032 -1.300000 0.353888
v -1.949749 -1.300000 0.345104
v -1.850251 -1.300000 0.345104
v -1.866354 -1.300000 0.350570
v -2.012583 -1.300000 0.160000
v -1.779896 -1.300000 0.175251
v -1.965000 -1.300000 0.337583
v -1.835000 -1.300000 0.337583
v -1.979139 -1.300000 0.328136
v -1.820861 -1.300000 0.328136
v -2.020104 -1.300000 0.175251
v -1.774430 -1.300000 0.191354
v -1.991924 -1.300000 0.316924
v -1.808076 -1.300000 0.316924
v -2.003136 -1.300000 0.304139
v -1.796864 -1.300000 0.304139
v -2.025570 -1.300000 0.191354
v -1.771112 -1.300000 0.208032
v -2.028888 -1.300000 0.208032
v -1.770000 -1.300000 0.225000
v -2.012583 -1.300000 0.290000
v -1.787417 -1.300000 0.290000
v -2.020104 -1.300000 0.274749
v -1.779896 -1.300000 0.274749
v -2.029758 -1.300000 0.228684
v -2.030000 -1.300000 0.225000
v -2.025570 -1.300000 0.258646
v -1.774430 -1.300000 0.258646
v -2.028888 -1.300000 0.241968
v -1.771112 -1.300000 0.241968
v -1.291924 -0.900000 0.133076
v -1.279139 -0.900000 0.121864
v -1.265000 -0.900000 0.112417
v -1.249749 -0.900000 0.104896
v -1.200000 -0.900000 0.095000
v -1.216968 -0.900000 0.096112
v -1.233647 -0.900000 0.099430
v -1.166354 -0.900000 0.099430
v -1.135000 -0.900000 0.112417
v -1.150251 -0.900000 0.104896
v -1.108076 -0.900000 0.133076
v -1.096864 -0.900000 0.145861
v -1.120861 -0.900000 0.121864
v -1.183032 -0.900000 0.096112
v -1.216968 -0.900000 0.353888
v -1.183032 -0.900000 0.353888
v -1.200000 -0.900000 0.355000
v -1.303136 -0.900000 0.145861
v -1.087417 -0.900000 0.160000
v -1.233647 -0.900000 0.350570
v -1.249749 -0.900000 0.345104
v -1.166354 -0.900000 0.350570
v -1.265000 -0.900000 0.337583
v -1.150251 -0.900000 0.345104
v -1.135000 -0.900000 0.337583
v -1.079896 -0.900000 0.175251
v -1.312583 -0.900000 0.160000
v -1.279139 -0.900000 0.328136
v -1.120861 -0.900000 0.328136
v -1.291924 -0.900000 0.316924
v -1.108076 -0.900000 0.316924
v -1.320104 -0.900000 0.175251
v -1.074430 -0.900000 0.191354
v -1.303136 -0.900000 0.304139
v -1.096864 -0.900000 0.304139
v -1.312583 -0.900000 0.290000
v -1.087417 -0.900000 0.290000
v -1.325570 -0.900000 0.191354
v -1.071112 -0.900000 0.208032
v -1.328888 -0.900000 0.208032
v -1.070000 -0.900000 0.225000
v -1.320104 -0.900000 0.274749
v -1.079896 -0.900000 0.274749
v -1.325570 -0.900000 0.258646
v -1.330000 -0.900000 0.225000
v -1.329546 -0.900000 0.231928
v -1.071112 -0.900000 0.241968
v -1.328888 -0.900000 0.241968
v -1.074430 -0.900000 0.258646
v -1.291924 -1.300000 0.316924
v -1.279139 -1.300000 0.328136
v -1.265000 -1.300000 0.337583
v -1.249749 -1.300000 0.345104
v -1.200000 -1.300000 0.355000
v -1.216968 -1.300000 0.353888
v -1.233647 -1.300000 0.350570
v -1.166354 -1.300000 0.350570
v -1.135000 -1.300000 0.337583
v -1.150251 -1.300000 0.345104
v -1.108076 -1.300000 0.316924
v -1.096864 -1.300000 0.304139
v -1.120861 -1.300000 0.328136
v -1.183032 -1.300000 0.353888
v -1.216968 -1.300000 0.096112
v -1.183032 -1.300000 0.096112
v -1.200000 -1.300000 0.095000
v -1.303136 -1.300000 0.304139
v -1.087417 -1.300000 0.290000
v -1.233647 -1.300000 0.099430
v -1.249749 -1.300000 0.104896
v -1.166354 -1.300000 0.099430
v -1.265000 -1.300000 0.112417
v -1.150251 -1.300000 0.104896
v -1.135000 -1.300000 0.112417
v -1.079896 -1.300000 0.274749
v -1.312583 -1.300000 0.290000
v -1.279139 -1.300000 0.121864
v -1.120861 -1.300000 0.121864
v -1.291924 -1.300000 0.133076
v -1.108076 -1.300000 0.133076
v -1.320104 -1.300000 0.274749
v -1.074430 -1.300000 0.258646
v -1.303136 -1.300000 0.145861
v -1.096864 -1.300000 0.145861
v -1.312583 -1.300000 0.160000
v -1.087417 -1.300000 0.160000
v -1.325570 -1.300000 0.258646
v -1.071112 -1.300000 0.241968
v -1.328888 -1.300000 0.241968
v -1.070000 -1.300000 0.225000
v -1.320104 -1.300000 0.175251
v -1.079896 -1.300000 0.175251
v -1.325570 -1.300000 0.191354
v -1.329546 -1.300000 0.218072
v -1.330000 -1.300000 0.225000
v -1.071112 -1.300000 0.208032
v -1.328888 -1.300000 0.208032
v -1.074430 -1.300000 0.191354
v -7.900000 -0.800000 0.000000
v -7.900000 -0.800000 0.300000
v -7.900000 -0.500000 0.000000
v -7.900000 -0.500000 0.300000
v -3.400000 -0.800000 0.000000
v -3.400000 -0.800000 0.300000
v -3.400000 -0.500000 0.000000
v -3.400000 -0.500000 0.300000
v -3.400000 0.900000 0.000000
v -3.400000 0.900000 0.450000
v -3.400000 1.300000 0.000000
v -3.400000 1.300000 0.450000
v 2.700000 0.900000 0.000000
v 2.700000 0.900000 0.450000
v 2.700000 1.300000 0.000000
v 2.700000 1.300000 0.450000
v -2.730000 1.300000 0.225000
v -2.728888 1.300000 0.208032
v -2.725570 1.300000 0.258646
v -2.725570 1.300000 0.191354
v -2.728888 1.300000 0.241968
v -2.720104 1.300000 0.175251
v -2.703136 1.300000 0.304139
v -2.712583 1.300000 0.160000
v -2.712583 1.300000 0.290000
v -2.703136 1.300000 0.145861
v -2.720104 1.300000 0.274749
v -2.691924 1.300000 0.133076
v -2.665000 1.300000 0.337583
v -2.679139 1.300000 0.121864
v -2.679139 1.300000 0.328136
v -2.649749 1.300000 0.104896
v -2.616968 1.300000 0.096112
v -2.616968 1.300000 0.353888
v -2.633646 1.300000 0.099430
v -2.633646 1.300000 0.350570
v -2.665000 1.300000 0.112417
v -2.649749 1.300000 0.345104
v -2.691924 1.300000 0.316924
v -2.566353 1.300000 0.099430
v -2.566353 1.300000 0.350570
v -2.583031 1.300000 0.096112
v -2.583031 1.300000 0.353888
v -2.520861 1.300000 0.121864
v -2.520861 1.300000 0.328136
v -2.535000 1.300000 0.112417
v -2.535000 1.300000 0.337583
v -2.550251 1.300000 0.104896
v -2.550251 1.300000 0.345104
v -2.496864 1.300000 0.304139
v -2.487417 1.300000 0.160000
v -2.496864 1.300000 0.145861
v -2.487417 1.300000 0.290000
v -2.474430 1.300000 0.258646
v -2.470000 1.300000 0.225000
v -2.471112 1.300000 0.208032
v -2.471112 1.300000 0.241968
v -2.474430 1.300000 0.191354
v -2.479896 1.300000 0.274749
v -2.479896 1.300000 0.175251
v -2.508076 1.300000 0.316924
v -2.508076 1.300000 0.133076
v -2.600000 1.300000 0.095000
v -2.600000 1.300000 0.355000
v -2.730000 0.900000 0.225000
v -2.728888 0.900000 0.208032
v -2.725570 0.900000 0.191354
v -2.728888 0.900000 0.241968
v -2.725570 0.900000 0.258646
v -2.720104 0.900000 0.274749
v -2.703136 0.900000 0.145861
v -2.712583 0.900000 0.160000
v -2.712583 0.900000 0.290000
v -2.720104 0.900000 0.175251
v -2.703136 0.900000 0.304139
v -2.691924 0.900000 0.316924
v -2.665000 0.900000 0.112417
v -2.679139 0.900000 0.121864
v -2.679139 0.900000 0.328136
v -2.649749 0.900000 0.345104
v -2.616968 0.900000 0.096112
v -2.616968 0.900000 0.353888
v -2.633646 0.900000 0.099430
v -2.633646 0.900000 0.350570
v -2.649749 0.900000 0.104896
v -2.665000 0.900000 0.337583
v -2.691924 0.900000 0.133076
v -2.566353 0.900000 0.099430
v -2.566353 0.900000 0.350570
v -2.583031 0.900000 0.096112
v -2.583031 0.900000 0.353888
v -2.520861 0.900000 0.121864
v -2.520861 0.900000 0.328136
v -2.535000 0.900000 0.112417
v -2.535000 0.900000 0.337583
v -2.550251 0.900000 0.104896
v -2.550251 0.900000 0.345104
v -2.496864 0.900000 0.145861
v -2.487417 0.900000 0.290000
v -2.487417 0.900000 0.160000
v -2.496864 0.900000 0.304139
v -2.474430 0.900000 0.191354
v -2.470000 0.900000 0.225000
v -2.471112 0.900000 0.208032
v -2.471112 0.900000 0.241968
v -2.474430 0.900000 0.258646
v -2.479896 0.900000 0.274749
v -2.479896 0.900000 0.175251
v -2.508076 0.900000 0.316924
v -2.508076 0.900000 0.133076
v -2.600000 0.900000 0.095000
v -2.600000 0.900000 0.355000
v -1.949749 1.300000 0.345104
v -1.933646 1.300000 0.350570
v -1.900000 1.300000 0.355000
v -1.916968 1.300000 0.353888
v -1.866354 1.300000 0.350570
v -1.835000 1.300000 0.337583
v -1.850251 1.300000 0.345104
v -1.883032 1.300000 0.353888
v -1.991924 1.300000 0.316924
v -1.965000 1.300000 0.337583
v -1.979139 1.300000 0.328136
v -1.820861 1.300000 0.328136
v -1.796864 1.300000 0.304139
v -1.808076 1.300000 0.316924
v -2.003136 1.300000 0.304139
v -1.787417 1.300000 0.290000
v -1.916968 1.300000 0.096112
v -1.933646 1.300000 0.099430
v -1.900000 1.300000 0.095000
v -1.883032 1.300000 0.096112
v -1.949749 1.300000 0.104896
v -1.850251 1.300000 0.104896
v -1.866354 1.300000 0.099430
v -2.012583 1.300000 0.290000
v -1.779896 1.300000 0.274749
v -1.965000 1.300000 0.112417
v -1.835000 1.300000 0.112417
v -1.979139 1.300000 0.121864
v -1.820861 1.300000 0.121864
v -2.020104 1.300000 0.274749
v -1.774430 1.300000 0.258646
v -1.991924 1.300000 0.133076
v -1.808076 1.300000 0.133076
v -2.003136 1.300000 0.145861
v -1.796864 1.300000 0.145861
v -2.025570 1.300000 0.258646
v -1.771112 1.300000 0.241968
v -2.028888 1.300000 0.241968
v -1.770000 1.300000 0.225000
v -2.012583 1.300000 0.160000
v -1.787417 1.300000 0.160000
v -2.020104 1.300000 0.175251
v -1.779896 1.300000 0.175251
v -2.030000 1.300000 0.225000
v -2.029758 1.300000 0.221316
v -2.025570 1.300000 0.191354
v -1.774430 1.300000 0.191354
v -2.028888 1.300000 0.208032
v -1.771112 1.300000 0.208032
v -1.933646 0.900000 0.099430
v -1.949749 0.900000 0.104896
v -1.900000 0.900000 0.095000
v -1.916968 0.900000 0.096112
v -1.866354 0.900000 0.099430
v -1.835000 0.900000 0.112417
v -1.883032 0.900000 0.096112
v -1.850251 0.900000 0.104896
v -1.991924 0.900000 0.133076
v -1.965000 0.900000 0.112417
v -1.979139 0.900000 0.121864
v -1.820861 0.900000 0.121864
v -1.796864 0.900000 0.145861
v -1.808076 0.900000 0.133076
v -2.003136 0.900000 0.145861
v -1.787417 0.900000 0.160000
v -1.933646 0.900000 0.350570
v -1.916968 0.900000 0.353888
v -1.900000 0.900000 0.355000
v -1.883032 0.900000 0.353888
v -1.949749 0.900000 0.345104
v -1.850251 0.900000 0.345104
v -1.866354 0.900000 0.350570
v -2.012583 0.900000 0.160000
v -1.779896 0.900000 0.175251
v -1.965000 0.900000 0.337583
v -1.835000 0.900000 0.337583
v -1.979139 0.900000 0.328136
v -1.820861 0.900000 0.328136
v -2.020104 0.900000 0.175251
v -1.774430 0.900000 0.191354
v -1.991924 0.900000 0.316924
v -1.808076 0.900000 0.316924
v -2.003136 0.900000 0.304139
v -1.796864 0.900000 0.304139
v -2.025570 0.900000 0.191354
v -1.771112 0.900000 0.208032
v -2.028888 0.900000 0.208032
v -1.770000 0.900000 0.225000
v -2.012583 0.900000 0.290000
v -1.787417 0.900000 0.290000
v -2.020104 0.900000 0.274749
v -1.779896 0.900000 0.274749
v -2.029758 0.900000 0.228684
v -2.030000 0.900000 0.225000
v -2.025570 0.900000 0.258646
v -1.774430 0.900000 0.258646
v -2.028888 0.900000 0.241968
v -1.771112 0.900000 0.241968
v -1.291924 1.300000 0.133076
v -1.279139 1.300000 0.121864
v -1.265000 1.300000 0.112417
v -1.249749 1.300000 0.104896
v -1.200000 1.300000 0.095000
v -1.216968 1.300000 0.096112
v -1.233647 1.300000 0.099430
v -1.166354 1.300000 0.099430
v -1.135000 1.300000 0.112417
v -1.150251 1.300000 0.104896
v -1.108076 1.300000 0.133076
v -1.096864 1.300000 0.145861
v -1.120861 1.300000 0.121864
v -1.183032 1.300000 0.096112
v -1.216968 1.300000 0.353888
v -1.183032 1.300000 0.353888
v -1.200000 1.300000 0.355000
v -1.303136 1.300000 0.145861
v -1.087417 1.300000 0.160000
v -1.233647 1.300000 0.350570
v -1.249749 1.300000 0.345104
v -1.166354 1.300000 0.350570
v -1.265000 1.300000 0.337583
v -1.150251 1.300000 0.345104
v -1.135000 1.300000 0.337583
v -1.079896 1.300000 0.175251
v -1.312583 1.300000 0.160000
v -1.279139 1.300000 0.328136
v -1.120861 1.300000 0.328136
v -1.291924 1.300000 0.316924
v -1.108076 1.300000 0.316924
v -1.320104 1.300000 0.175251
v -1.074430 1.300000 0.191354
v -1.303136 1.300000 0.304139
v -1.096864 1.300000 0.304139
v -1.312583 1.300000 0.290000
v -1.087417 1.300000 0.290000
v -1.325570 1.300000 0.191354
v -1.071112 1.300000 0.208032
v -1.328888 1.300000 0.208032
v -1.070000 1.300000 0.225000
v -1.320104 1.300000 0.274749
v -1.079896 1.300000 0.274749
v -1.325570 1.300000 0.258646
v -1.330000 1.300000 0.225000
v -1.329546 1.300000 0.231928
v -1.071112 1.300000 0.241968
v -1.328888 1.300000 0.241968
v -1.074430 1.300000 0.258646
v -1.291924 0.900000 0.316924
v -1.279139 0.900000 0.328136
v -1.265000 0.900000 0.337583
v -1.249749 0.900000 0.345104
v -1.200000 0.900000 0.355000
v -1.216968 0.900000 0.353888
v -1.233647 0.900000 0.350570
v -1.166354 0.900000 0.350570
v -1.135000 0.900000 0.337583
v -1.150251 0.900000 0.345104
v -1.108076 0.900000 0.316924
v -1.096864 0.900000 0.304139
v -1.120861 0.900000 0.328136
v -1.183032 0.900000 0.353888
v -1.216968 0.900000 0.096112
v -1.183032 0.900000 0.096112
v -1.200000 0.900000 0.095000
v -1.303136 0.900000 0.304139
v -1.087417 0.900000 0.290000
v -1.233647 0.900000 0.099430
v -1.249749 0.900000 0.104896
v -1.166354 0.900000 0.099430
v -1.265000 0.900000 0.112417
v -1.150251 0.900000 0.104896
v -1.135000 0.900000 0.112417
v -1.079896 0.900000 0.274749
v -1.312583 0.900000 0.290000
v -1.279139 0.900000 0.121864
v -1.120861 0.900000 0.121864
v -1.291924 0.900000 0.133076
v -1.108076 0.900000 0.133076
v -1.320104 0.900000 0.274749
v -1.074430 0.900000 0.258646
v -1.303136 0.900000 0.145861
v -1.096864 0.900000 0.145861
v -1.312583 0.900000 0.160000
v -1.087417 0.900000 0.160000
v -1.325570 0.900000 0.258646
v -1.071112 0.900000 0.241968
v -1.328888 0.900000 0.241968
v -1.070000 0.900000 0.225000
v -1.320104 0.900000 0.175251
v -1.079896 0.900000 0.175251
v -1.325570 0.900000 0.191354
v -1.329546 0.900000 0.218072
v -1.330000 0.900000 0.225000
v -1.071112 0.900000 0.208032
v -1.328888 0.900000 0.208032
v -1.074430 0.900000 0.191354
v -7.900000 0.500000 0.000000
v -7.900000 0.500000 0.300000
v -7.900000 0.800000 0.000000
v -7.900000 0.800000 0.300000
v -3.400000 0.500000 0.000000
v -3.400000 0.500000 0.300000
v -3.400000 0.800000 0.000000
v -3.400000 0.800000 0.300000
v -0.500000 -1.300000 0.000000
v -0.500000 -1.300000 0.450000
v -0.500000 1.300000 0.000000
v -0.500000 1.300000 0.450000
v 2.700000 -1.300000 0.000000
v 2.700000 -1.300000 0.450000
v 2.700000 1.300000 0.000000
v 2.700000 1.300000 0.450000
v -0.300000 0.000000 0.000000
v -0.297433 -0.039158 0.000000
v -0.289778 -0.077646 0.000000
v -0.297433 0.039158 0.000000
v -0.289778 0.077646 0.000000
v -0.277164 0.114805 0.000000
v -0.238006 -0.182628 0.000000
v -0.259808 -0.150000 0.000000
v -0.259808 0.150000 0.000000
v -0.277164 -0.114805 0.000000
v -0.238006 0.182628 0.000000
v -0.212132 0.212132 0.000000
v -0.150000 -0.259808 0.000000
v -0.182628 -0.238006 0.000000
v -0.182628 0.238006 0.000000
v -0.114805 0.277164 0.000000
v -0.039158 -0.297433 0.000000
v -0.039158 0.297433 0.000000
v -0.077646 -0.289778 0.000000
v -0.077646 0.289778 0.000000
v -0.114805 -0.277164 0.000000
v -0.150000 0.259808 0.000000
v -0.212132 -0.212132 0.000000
v 0.077646 -0.289778 0.000000
v 0.077646 0.289778 0.000000
v 0.039158 -0.297433 0.000000
v 0.039158 0.297433 0.000000
v 0.182628 -0.238006 0.000000
v 0.182628 0.238006 0.000000
v 0.150000 -0.259808 0.000000
v 0.150000 0.259808 0.000000
v 0.114805 -0.277164 0.000000
v 0.114805 0.277164 0.000000
v 0.238006 -0.182628 0.000000
v 0.259808 0.150000 0.000000
v 0.259808 -0.150000 0.000000
v 0.238006 0.182628 0.000000
v 0.289778 -0.077646 0.000000
v 0.300000 0.000000 0.000000
v 0.297434 -0.039158 0.000000
v 0.297434 0.039158 0.000000
v 0.289778 0.077646 0.000000
v 0.277164 0.114805 0.000000
v 0.277164 -0.114805 0.000000
v 0.212132 -0.212132 0.000000
v 0.212132 0.212132 0.000000
v 0.000000 -0.300000 0.000000
v 0.000000 0.300000 0.000000
v -0.300000 0.000000 0.450000
v -0.297433 -0.039158 0.450000
v -0.289778 -0.077646 0.450000
v -0.297433 0.039158 0.450000
v -0.289778 0.077646 0.450000
v -0.277164 0.114805 0.450000
v -0.238006 -0.182628 0.450000
v -0.259808 -0.150000 0.450000
v -0.259808 0.150000 0.450000
v -0.277164 -0.114805 0.450000
v -0.238006 0.182628 0.450000
v -0.212132 0.212132 0.450000
v -0.150000 -0.259808 0.450000
v -0.182628 -0.238006 0.450000
v -0.182628 0.238006 0.450000
v -0.114805 0.277164 0.450000
v -0.039158 -0.297433 0.450000
v -0.039158 0.297433 0.450000
v -0.077646 -0.289778 0.450000
v -0.077646 0.289778 0.450000
v -0.114805 -0.277164 0.450000
v -0.150000 0.259808 0.450000
v -0.212132 -0.212132 0.450000
v 0.077646 -0.289778 0.450000
v 0.077646 0.289778 0.450000
v 0.039158 -0.297433 0.450000
v 0.039158 0.297433 0.450000
v 0.182628 -0.238006 0.450000
v 0.182628 0.238006 0.450000
v 0.150000 -0.259808 0.450000
v 0.150000 0.259808 0.450000
v 0.114805 -0.277164 0.450000
v 0.114805 0.277164 0.450000
v 0.238006 -0.182628 0.450000
v 0.259808 0.150000 0.450000
v 0.259808 -0.150000 0.450000
v 0.238006 0.182628 0.450000
v 0.289778 -0.077646 0.450000
v 0.300000 0.000000 0.450000
v 0.297434 -0.039158 0.450000
v 0.297434 0.039158 0.450000
v 0.289778 0.077646 0.450000
v 0.277164 0.114805 0.450000
v 0.277164 -0.114805 0.450000
v 0.212132 0.212132 0.450000
v 0.212132 -0.212132 0.450000
v 0.000000 -0.300000 0.450000
v 0.000000 0.300000 0.450000
v -7.900000 -0.800000 0.000000
v -7.900000 -0.800000 0.300000
v -7.900000 0.800000 0.000000
v -7.900000 0.800000 0.300000
v -7.700000 -0.800000 0.000000
v -7.700000 -0.800000 0.300000
v -7.700000 0.800000 0.000000
v -7.700000 0.800000 0.300000
v -5.100000 -0.800000 0.000000
v -5.100000 -0.800000 0.300000
v -5.100000 0.800000 0.000000
v -5.100000 0.800000 0.300000
v -4.900000 -0.800000 0.000000
v -4.900000 -0.800000 0.300000
v -4.900000 0.800000 0.000000
v -4.900000 0.800000 0.300000
v -3.400000 -0.800000 0.000000
v -3.400000 -0.800000 0.300000
v -3.400000 0.800000 0.000000
v -3.400000 0.800000 0.300000
v -3.200000 -0.800000 0.000000
v -3.200000 -0.800000 0.300000
v -3.200000 0.800000 0.000000
v -3.200000 0.800000 0.300000
v -3.400000 -1.300000 0.000000
v -3.400000 -1.300000 0.450000
v -3.400000 1.300000 0.000000
v -3.400000 1.300000 0.450000
v -3.150000 -1.300000 0.000000
v -3.150000 -1.300000 0.450000
v -3.150000 1.300000 0.000000
v -3.150000 1.300000 0.450000
v -1.869580 -1.220000 0.450000
v -1.869580 -1.220000 1.143218
v -1.869580 -0.980000 0.450000
v -1.869580 -0.980000 1.143218
v -1.769580 -1.220000 0.450000
v -1.769580 -1.220000 1.143218
v -1.769580 -0.980000 0.450000
v -1.769580 -0.980000 1.143218
v -1.899580 -1.163000 0.450000
v -1.899580 -1.163000 0.464000
v -1.884858 -1.171500 0.450000
v -1.884858 -1.171500 0.464000
v -1.884858 -1.188500 0.450000
v -1.884858 -1.188500 0.464000
v -1.899580 -1.197000 0.450000
v -1.899580 -1.197000 0.464000
v -1.914303 -1.188500 0.450000
v -1.914303 -1.188500 0.464000
v -1.914303 -1.171500 0.450000
v -1.914303 -1.171500 0.464000
v -1.899580 -1.003000 0.450000
v -1.899580 -1.003000 0.464000
v -1.884858 -1.011500 0.450000
v -1.884858 -1.011500 0.464000
v -1.884858 -1.028500 0.450000
v -1.884858 -1.028500 0.464000
v -1.899580 -1.037000 0.450000
v -1.899580 -1.037000 0.464000
v -1.914303 -1.028500 0.450000
v -1.914303 -1.028500 0.464000
v -1.914303 -1.011500 0.450000
v -1.914303 -1.011500 0.464000
v -0.873385 -1.220000 0.450000
v -0.873385 -1.220000 1.230367
v -0.873385 -0.980000 0.450000
v -0.873385 -0.980000 1.230367
v -0.773385 -1.220000 0.450000
v -0.773385 -1.220000 1.230367
v -0.773385 -0.980000 0.450000
v -0.773385 -0.980000 1.230367
v -0.743385 -1.163000 0.450000
v -0.743385 -1.163000 0.464000
v -0.728662 -1.171500 0.450000
v -0.728662 -1.171500 0.464000
v -0.728662 -1.188500 0.450000
v -0.728662 -1.188500 0.464000
v -0.743385 -1.197000 0.450000
v -0.743385 -1.197000 0.464000
v -0.758107 -1.188500 0.450000
v -0.758107 -1.188500 0.464000
v -0.758107 -1.171500 0.450000
v -0.758107 -1.171500 0.464000
v -0.743385 -1.003000 0.450000
v -0.743385 -1.003000 0.464000
v -0.728662 -1.011500 0.450000
v -0.728662 -1.011500 0.464000
v -0.728662 -1.028500 0.450000
v -0.728662 -1.028500 0.464000
v -0.743385 -1.037000 0.450000
v -0.743385 -1.037000 0.464000
v -0.758107 -1.028500 0.450000
v -0.758107 -1.028500 0.464000
v -0.758107 -1.011500 0.450000
v -0.758107 -1.011500 0.464000
v -1.869580 0.980000 0.450000
v -1.869580 0.980000 1.143218
v -1.869580 1.220000 0.450000
v -1.869580 1.220000 1.143218
v -1.769580 0.980000 0.450000
v -1.769580 0.980000 1.143218
v -1.769580 1.220000 0.450000
v -1.769580 1.220000 1.143218
v -1.899580 1.037000 0.450000
v -1.899580 1.037000 0.464000
v -1.884858 1.028500 0.450000
v -1.884858 1.028500 0.464000
v -1.884858 1.011500 0.450000
v -1.884858 1.011500 0.464000
v -1.899580 1.003000 0.450000
v -1.899580 1.003000 0.464000
v -1.914303 1.011500 0.450000
v -1.914303 1.011500 0.464000
v -1.914303 1.028500 0.450000
v -1.914303 1.028500 0.464000
v -1.899580 1.197000 0.450000
v -1.899580 1.197000 0.464000
v -1.884858 1.188500 0.450000
v -1.884858 1.188500 0.464000
v -1.884858 1.171500 0.450000
v -1.884858 1.171500 0.464000
v -1.899580 1.163000 0.450000
v -1.899580 1.163000 0.464000
v -1.914303 1.171500 0.450000
v -1.914303 1.171500 0.464000
v -1.914303 1.188500 0.450000
v -1.914303 1.188500 0.464000
v -0.873385 0.980000 0.450000
v -0.873385 0.980000 1.230367
v -0.873385 1.220000 0.450000
v -0.873385 1.220000 1.230367
v -0.773385 0.980000 0.450000
v -0.773385 0.980000 1.230367
v -0.773385 1.220000 0.450000
v -0.773385 1.220000 1.230367
v -0.743385 1.037000 0.450000
v -0.743385 1.037000 0.464000
v -0.728662 1.028500 0.450000
v -0.728662 1.028500 0.464000
v -0.728662 1.011500 0.450000
v -0.728662 1.011500 0.464000
v -0.743385 1.003000 0.450000
v -0.743385 1.003000 0.464000
v -0.758107 1.011500 0.450000
v -0.758107 1.011500 0.464000
v -0.758107 1.028500 0.450000
v -0.758107 1.028500 0.464000
v -0.743385 1.197000 0.450000
v -0.743385 1.197000 0.464000
v -0.728662 1.188500 0.450000
v -0.728662 1.188500 0.464000
v -0.728662 1.171500 0.450000
v -0.728662 1.171500 0.464000
v -0.743385 1.163000 0.450000
v -0.743385 1.163000 0.464000
v -0.758107 1.171500 0.450000
v -0.758107 1.171500 0.464000
v -0.758107 1.188500 0.450000
v -0.758107 1.188500 0.464000
vn -1.0000 -0.0000 -0.0000
vn -0.0000 1.0000 -0.0000
vn 1.0000 -0.0000 -0.0000
vn -0.0000 -1.0000 -0.0000
vn -0.0000 -0.0000 -1.0000
vn -0.0000 -0.0000 1.0000
vn -0.0654 -0.0000 -0.9979
vn -0.1951 -0.0000 -0.9808
vn -0.3214 -0.0000 -0.9469
vn -0.4423 -0.0000 -0.8969
vn -0.5556 -0.0000 -0.8315
vn -0.6593 -0.0000 -0.7518
vn -0.7518 -0.0000 -0.6593
vn -0.8315 -0.0000 -0.5556
vn -0.8969 -0.0000 -0.4423
vn -0.9469 -0.0000 -0.3214
vn -0.9808 -0.0000 -0.1951
vn -0.9979 -0.0000 -0.0654
vn -0.9979 -0.0000 0.0654
vn -0.9808 -0.0000 0.1951
vn -0.9469 -0.0000 0.3214
vn -0.8969 -0.0000 0.4423
vn -0.8315 -0.0000 0.5556
vn -0.7518 -0.0000 0.6593
vn -0.6593 -0.0000 0.7518
vn -0.5556 -0.0000 0.8315
vn -0.4423 -0.0000 0.8969
vn -0.3214 -0.0000 0.9469
vn -0.1951 -0.0000 0.9808
vn -0.0654 -0.0000 0.9979
vn 0.0654 -0.0000 0.9979
vn 0.1951 -0.0000 0.9808
vn 0.3214 -0.0000 0.9469
vn 0.4423 -0.0000 0.8969
vn 0.5556 -0.0000 0.8315
vn 0.6593 -0.0000 0.7518
vn 0.7518 -0.0000 0.6593
vn 0.8315 -0.0000 0.5556
vn 0.8969 -0.0000 0.4423
vn 0.9469 -0.0000 0.3214
vn 0.9808 -0.0000 0.1951
vn 0.9979 -0.0000 0.0654
vn 0.9979 -0.0000 -0.0654
vn 0.9808 -0.0000 -0.1951
vn 0.9469 -0.0000 -0.3214
vn 0.8969 -0.0000 -0.4423
vn 0.8315 -0.0000 -0.5556
vn 0.7518 -0.0000 -0.6593
vn 0.6593 -0.0000 -0.7518
vn 0.5556 -0.0000 -0.8315
vn 0.4423 -0.0000 -0.8969
vn 0.3214 -0.0000 -0.9469
vn 0.1951 -0.0000 -0.9808
vn 0.0654 -0.0000 -0.9979
vn -0.0654 -0.9979 -0.0000
vn -0.1951 -0.9808 -0.0000
vn -0.3214 -0.9469 -0.0000
vn -0.4423 -0.8969 -0.0000
vn -0.5556 -0.8315 -0.0000
vn -0.6593 -0.7518 -0.0000
vn -0.7518 -0.6593 -0.0000
vn -0.8315 -0.5556 -0.0000
vn -0.8969 -0.4423 -0.0000
vn -0.9469 -0.3214 -0.0000
vn -0.9808 -0.1951 -0.0000
vn -0.9979 -0.0654 -0.0000
vn -0.9979 0.0654 -0.0000
vn -0.9808 0.1951 -0.0000
vn -0.9469 0.3214 -0.0000
vn -0.8969 0.4423 -0.0000
vn -0.8315 0.5556 -0.0000
vn -0.7518 0.6593 -0.0000
vn -0.6593 0.7518 -0.0000
vn -0.5556 0.8315 -0.0000
vn -0.4423 0.8969 -0.0000
vn -0.3214 0.9469 -0.0000
vn -0.1951 0.9808 -0.0000
vn -0.0654 0.9979 -0.0000
vn 0.0654 0.9979 -0.0000
vn 0.1951 0.9808 -0.0000
vn 0.3214 0.9469 -0.0000
vn 0.4423 0.8969 -0.0000
vn 0.5556 0.8315 -0.0000
vn 0.6593 0.7518 -0.0000
vn 0.7518 0.6593 -0.0000
vn 0.8315 0.5556 -0.0000
vn 0.8969 0.4423 -0.0000
vn 0.9469 0.3214 -0.0000
vn 0.9808 0.1951 -0.0000
vn 0.9979 0.0654 -0.0000
vn 0.9979 -0.0654 -0.0000
vn 0.9808 -0.1951 -0.0000
vn 0.9469 -0.3214 -0.0000
vn 0.8969 -0.4423 -0.0000
vn 0.8315 -0.5556 -0.0000
vn 0.7518 -0.6593 -0.0000
vn 0.6593 -0.7518 -0.0000
vn 0.5556 -0.8315 -0.0000
vn 0.4423 -0.8969 -0.0000
vn 0.3214 -0.9469 -0.0000
vn 0.1951 -0.9808 -0.0000
vn 0.0654 -0.9979 -0.0000
vn 0.5000 0.8660 -0.0000
vn 0.5000 -0.8660 -0.0000
vn -0.5000 -0.8660 -0.0000
vn -0.5000 0.8660 -0.0000
vn -0.0000 1.0000 -0.0001
vn -0.0000 1.0000 0.0003
vn -0.0000 1.0000 -0.0002
vn -0.0000 1.0000 0.0001
vn -0.0000 1.0000 -0.0003
vn -0.0000 1.0000 0.0002
vn -0.0000 -1.0000 0.0001
vn -0.0000 -1.0000 -0.0001
s 0
usemtl gear_paint
f 2//1 3//1 1//1
f 3//2 13//2 9//2
f 247//2 143//2 248//2
f 7//2 214//2 221//2
f 148//2 47//2 49//2
f 8//3 5//3 7//3
f 297//4 192//4 296//4
f 6//4 263//4 270//4
f 95//4 198//4 197//4
f 2//4 58//4 57//4
f 7//5 1//5 3//5
f 4//6 6//6 8//6
f 35//7 104//7 56//7
f 33//8 83//8 35//8
f 41//9 81//9 33//9
f 39//10 89//10 41//10
f 37//11 87//11 39//11
f 53//12 85//12 37//12
f 53//13 93//13 101//13
f 42//14 91//14 93//14
f 45//15 99//15 91//15
f 51//16 98//16 99//16
f 46//17 97//17 98//17
f 49//18 95//18 97//18
f 47//19 96//19 95//19
f 48//20 94//20 96//20
f 50//21 100//21 94//21
f 52//22 92//22 100//22
f 43//23 90//23 92//23
f 44//24 102//24 90//24
f 54//25 84//25 102//25
f 36//26 86//26 84//26
f 38//27 88//27 86//27
f 40//28 80//28 88//28
f 32//29 82//29 80//29
f 34//30 103//30 82//30
f 55//31 73//31 103//31
f 25//32 75//32 73//32
f 27//33 77//33 75//33
f 24//34 69//34 77//34
f 29//35 70//35 69//35
f 22//36 79//36 70//36
f 18//37 79//37 20//37
f 16//38 63//38 18//38
f 14//39 64//39 16//39
f 12//40 66//40 14//40
f 10//41 59//41 12//41
f 9//42 58//42 10//42
f 13//43 57//43 9//43
f 11//44 60//44 13//44
f 19//45 61//45 11//45
f 17//46 62//46 19//46
f 15//47 65//47 17//47
f 31//48 67//48 15//48
f 23//49 68//49 31//49
f 21//50 71//50 23//50
f 30//51 78//51 21//51
f 28//52 72//52 30//52
f 26//53 76//53 28//53
f 56//54 74//54 26//54
f 112//7 172//7 107//7
f 109//8 173//8 112//8
f 111//9 176//9 109//9
f 110//10 175//10 111//10
f 116//11 180//11 110//11
f 118//12 182//12 116//12
f 118//13 188//13 186//13
f 194//14 117//14 120//14
f 196//15 120//15 129//15
f 200//16 129//16 135//16
f 141//17 200//17 135//17
f 143//18 202//18 141//18
f 190//19 143//19 153//19
f 153//20 184//20 190//20
f 147//21 184//21 151//21
f 147//22 169//22 178//22
f 166//23 145//23 139//23
f 139//24 167//24 166//24
f 137//25 165//25 167//25
f 133//26 159//26 165//26
f 131//27 161//27 159//27
f 126//28 158//28 161//28
f 127//29 160//29 158//29
f 124//30 156//30 160//30
f 123//31 157//31 156//31
f 121//32 154//32 157//32
f 122//33 155//33 154//33
f 125//34 163//34 155//34
f 130//35 164//35 163//35
f 132//36 162//36 164//36
f 136//37 168//37 162//37
f 138//38 177//38 168//38
f 144//39 183//39 177//39
f 150//40 183//40 146//40
f 152//41 189//41 150//41
f 152//42 149//42 198//42
f 197//43 148//43 201//43
f 142//44 199//44 201//44
f 140//45 195//45 199//45
f 134//46 193//46 195//46
f 128//47 187//47 193//47
f 119//48 185//48 187//48
f 115//49 185//49 113//49
f 114//50 181//50 115//50
f 105//51 179//51 114//51
f 106//52 174//52 105//52
f 108//53 170//53 106//53
f 107//54 171//54 108//54
f 218//7 256//7 219//7
f 224//8 265//8 218//8
f 226//9 259//9 224//9
f 227//10 261//10 226//10
f 231//11 260//11 227//11
f 233//12 264//12 231//12
f 263//13 233//13 237//13
f 270//14 237//14 239//14
f 277//15 239//15 245//15
f 251//16 277//16 245//16
f 249//17 284//17 251//17
f 249//18 292//18 290//18
f 243//19 298//19 292//19
f 300//20 241//20 235//20
f 228//21 300//21 235//21
f 228//22 288//22 294//22
f 286//23 221//23 214//23
f 214//24 282//24 286//24
f 213//25 280//25 282//25
f 215//26 276//26 280//26
f 211//27 275//27 276//27
f 212//28 273//28 275//28
f 210//29 267//29 273//29
f 216//30 268//30 267//30
f 207//31 266//31 268//31
f 208//32 271//32 266//32
f 209//33 272//33 271//33
f 206//34 274//34 272//34
f 205//35 279//35 274//35
f 204//36 281//36 279//36
f 220//37 281//37 203//37
f 229//38 285//38 220//38
f 234//39 287//39 229//39
f 240//40 293//40 234//40
f 242//41 295//41 240//41
f 247//42 296//42 299//42
f 248//43 291//43 297//43
f 246//44 291//44 250//44
f 246//45 283//45 289//45
f 238//46 283//46 244//46
f 238//47 269//47 278//47
f 236//48 252//48 269//48
f 230//49 252//49 232//49
f 225//50 253//50 230//50
f 223//51 254//51 225//51
f 222//52 255//52 223//52
f 217//53 258//53 222//53
f 219//54 257//54 217//54
f 302//1 303//1 301//1
f 304//2 307//2 303//2
f 308//3 305//3 307//3
f 306//4 301//4 305//4
f 307//5 301//5 303//5
f 304//6 306//6 308//6
f 310//1 311//1 309//1
f 311//2 321//2 317//2
f 555//2 451//2 556//2
f 315//2 522//2 529//2
f 456//2 355//2 357//2
f 316//3 313//3 315//3
f 605//4 500//4 604//4
f 314//4 571//4 578//4
f 403//4 506//4 505//4
f 310//4 366//4 365//4
f 315//5 309//5 311//5
f 312//6 314//6 316//6
f 343//7 412//7 364//7
f 341//8 391//8 343//8
f 349//9 389//9 341//9
f 347//10 397//10 349//10
f 345//11 395//11 347//11
f 361//12 393//12 345//12
f 361//13 401//13 409//13
f 350//14 399//14 401//14
f 353//15 407//15 399//15
f 359//16 406//16 407//16
f 354//17 405//17 406//17
f 357//18 403//18 405//18
f 355//19 404//19 403//19
f 356//20 402//20 404//20
f 358//21 408//21 402//21
f 360//22 400//22 408//22
f 351//23 398//23 400//23
f 352//24 410//24 398//24
f 362//25 392//25 410//25
f 344//26 394//26 392//26
f 346//27 396//27 394//27
f 348//28 388//28 396//28
f 340//29 390//29 388//29
f 342//30 411//30 390//30
f 363//31 381//31 411//31
f 333//32 383//32 381//32
f 335//33 385//33 383//33
f 332//34 377//34 385//34
f 337//35 378//35 377//35
f 330//36 387//36 378//36
f 326//37 387//37 328//37
f 324//38 371//38 326//38
f 322//39 372//39 324//39
f 320//40 374//40 322//40
f 318//41 367//41 320//41
f 317//42 366//42 318//42
f 321//43 365//43 317//43
f 319//44 368//44 321//44
f 327//45 369//45 319//45
f 325//46 370//46 327//46
f 323//47 373//47 325//47
f 339//48 375//48 323//48
f 331//49 376//49 339//49
f 329//50 379//50 331//50
f 338//51 386//51 329//51
f 336//52 380//52 338//52
f 334//53 384//53 336//53
f 364//54 382//54 334//54
f 420//7 480//7 415//7
f 417//8 481//8 420//8
f 419//9 484//9 417//9
f 418//10 483//10 419//10
f 424//11 488//11 418//11
f 426//12 490//12 424//12
f 426//13 496//13 494//13
f 502//14 425//14 428//14
f 504//15 428//15 437//15
f 508//16 437//16 443//16
f 449//17 508//17 443//17
f 451//18 510//18 449//18
f 498//19 451//19 461//19
f 461//20 492//20 498//20
f 455//21 492//21 459//21
f 455//22 477//22 486//22
f 474//23 453//23 447//23
f 447//24 475//24 474//24
f 445//25 473//25 475//25
f 441//26 467//26 473//26
f 439//27 469//27 467//27
f 434//28 466//28 469//28
f 435//29 468//29 466//29
f 432//30 464//30 468//30
f 431//31 465//31 464//31
f 429//32 462//32 465//32
f 430//33 463//33 462//33
f 433//34 471//34 463//34
f 438//35 472//35 471//35
f 440//36 470//36 472//36
f 444//37 476//37 470//37
f 446//38 485//38 476//38
f 452//39 491//39 485//39
f 458//40 491//40 454//40
f 460//41 497//41 458//41
f 460//42 457//42 506//42
f 505//43 456//43 509//43
f 450//44 507//44 509//44
f 448//45 503//45 507//45
f 442//46 501//46 503//46
f 436//47 495//47 501//47
f 427//48 493//48 495//48
f 423//49 493//49 421//49
f 422//50 489//50 423//50
f 413//51 487//51 422//51
f 414//52 482//52 413//52
f 416//53 478//53 414//53
f 415//54 479//54 416//54
f 526//7 564//7 527//7
f 532//8 573//8 526//8
f 534//9 567//9 532//9
f 535//10 569//10 534//10
f 539//11 568//11 535//11
f 541//12 572//12 539//12
f 571//13 541//13 545//13
f 578//14 545//14 547//14
f 585//15 547//15 553//15
f 559//16 585//16 553//16
f 557//17 592//17 559//17
f 557//18 600//18 598//18
f 551//19 606//19 600//19
f 608//20 549//20 543//20
f 536//21 608//21 543//21
f 536//22 596//22 602//22
f 594//23 529//23 522//23
f 522//24 590//24 594//24
f 521//25 588//25 590//25
f 523//26 584//26 588//26
f 519//27 583//27 584//27
f 520//28 581//28 583//28
f 518//29 575//29 581//29
f 524//30 576//30 575//30
f 515//31 574//31 576//31
f 516//32 579//32 574//32
f 517//33 580//33 579//33
f 514//34 582//34 580//34
f 513//35 587//35 582//35
f 512//36 589//36 587//36
f 528//37 589//37 511//37
f 537//38 593//38 528//38
f 542//39 595//39 537//39
f 548//40 601//40 542//40
f 550//41 603//41 548//41
f 555//42 604//42 607//42
f 556//43 599//43 605//43
f 554//44 599//44 558//44
f 554//45 591//45 597//45
f 546//46 591//46 552//46
f 546//47 577//47 586//47
f 544//48 560//48 577//48
f 538//49 560//49 540//49
f 533//50 561//50 538//50
f 531//51 562//51 533//51
f 530//52 563//52 531//52
f 525//53 566//53 530//53
f 527//54 565//54 525//54
f 610//1 611//1 609//1
f 612//2 615//2 611//2
f 616//3 613//3 615//3
f 614//4 609//4 613//4
f 615//5 609//5 611//5
f 612//6 614//6 616//6
f 618//1 619//1 617//1
f 620//2 623//2 619//2
f 624//3 621//3 623//3
f 622//4 617//4 621//4
f 617//5 619//5 625//5
f 621//5 664//5 663//5
f 624//6 713//6 711//6
f 620//6 618//6 673//6
f 672//55 699//55 720//55
f 651//56 697//56 699//56
f 649//57 705//57 697//57
f 657//58 703//58 705//58
f 655//59 701//59 703//59
f 653//60 717//60 701//60
f 661//61 717//61 670//61
f 659//62 709//62 661//62
f 667//63 707//63 659//63
f 666//64 715//64 667//64
f 665//65 714//65 666//65
f 663//66 713//66 665//66
f 664//67 711//67 663//67
f 662//68 712//68 664//68
f 668//69 710//69 662//69
f 660//70 716//70 668//70
f 658//71 708//71 660//71
f 669//72 706//72 658//72
f 652//73 718//73 669//73
f 654//74 700//74 652//74
f 656//75 702//75 654//75
f 648//76 704//76 656//76
f 650//77 696//77 648//77
f 671//78 698//78 650//78
f 641//79 719//79 671//79
f 643//80 689//80 641//80
f 645//81 691//81 643//81
f 637//82 693//82 645//82
f 638//83 685//83 637//83
f 647//84 686//84 638//84
f 647//85 679//85 695//85
f 631//86 680//86 679//86
f 632//87 682//87 680//87
f 634//88 675//88 682//88
f 627//89 674//89 675//89
f 626//90 673//90 674//90
f 625//91 676//91 673//91
f 628//92 677//92 676//92
f 629//93 678//93 677//93
f 630//94 681//94 678//94
f 633//95 683//95 681//95
f 635//96 684//96 683//96
f 636//97 687//97 684//97
f 639//98 694//98 687//98
f 646//99 688//99 694//99
f 640//100 692//100 688//100
f 644//101 690//101 692//101
f 642//102 720//102 690//102
f 722//1 723//1 721//1
f 724//2 727//2 723//2
f 728//3 725//3 727//3
f 726//4 721//4 725//4
f 727//5 721//5 723//5
f 724//6 726//6 728//6
f 730//1 731//1 729//1
f 732//2 735//2 731//2
f 736//3 733//3 735//3
f 734//4 729//4 733//4
f 735//5 729//5 731//5
f 732//6 734//6 736//6
f 738//1 739//1 737//1
f 740//2 743//2 739//2
f 744//3 741//3 743//3
f 742//4 737//4 741//4
f 743//5 737//5 739//5
f 740//6 742//6 744//6
f 746//1 747//1 745//1
f 748//2 751//2 747//2
f 752//3 749//3 751//3
f 750//4 745//4 749//4
f 751//5 745//5 747//5
f 748//6 750//6 752//6
f 754//1 755//1 753//1
f 756//2 759//2 755//2
f 760//3 757//3 759//3
f 758//4 753//4 757//4
f 759//5 753//5 755//5
f 756//6 758//6 760//6
f 786//1 787//1 785//1
f 788//2 791//2 787//2
f 792//3 789//3 791//3
f 790//4 785//4 789//4
f 791//5 785//5 787//5
f 788//6 790//6 792//6
f 818//1 819//1 817//1
f 820//2 823//2 819//2
f 824//3 821//3 823//3
f 822//4 817//4 821//4
f 823//5 817//5 819//5
f 820//6 822//6 824//6
f 850//1 851//1 849//1
f 852//2 855//2 851//2
f 856//3 853//3 855//3
f 854//4 849//4 853//4
f 855//5 849//5 851//5
f 852//6 854//6 856//6
f 2//1 4//1 3//1
f 10//2 12//2 3//2
f 3//2 4//2 11//2
f 3//2 11//2 13//2
f 9//2 10//2 3//2
f 247//2 153//2 143//2
f 250//2 248//2 143//2
f 250//2 143//2 141//2
f 246//2 250//2 141//2
f 246//2 141//2 135//2
f 244//2 246//2 135//2
f 244//2 135//2 129//2
f 238//2 244//2 129//2
f 238//2 129//2 120//2
f 236//2 238//2 120//2
f 236//2 120//2 117//2
f 232//2 236//2 117//2
f 232//2 117//2 118//2
f 230//2 232//2 118//2
f 230//2 118//2 116//2
f 225//2 230//2 116//2
f 225//2 116//2 110//2
f 223//2 225//2 110//2
f 223//2 110//2 111//2
f 222//2 223//2 111//2
f 222//2 111//2 109//2
f 217//2 222//2 109//2
f 217//2 109//2 112//2
f 219//2 217//2 112//2
f 219//2 112//2 107//2
f 142//2 148//2 49//2
f 142//2 49//2 46//2
f 140//2 142//2 46//2
f 140//2 46//2 51//2
f 134//2 140//2 51//2
f 134//2 51//2 45//2
f 128//2 134//2 45//2
f 128//2 45//2 42//2
f 119//2 128//2 42//2
f 119//2 42//2 53//2
f 113//2 119//2 53//2
f 113//2 53//2 37//2
f 115//2 113//2 37//2
f 115//2 37//2 39//2
f 114//2 115//2 39//2
f 114//2 39//2 41//2
f 105//2 114//2 41//2
f 105//2 41//2 33//2
f 106//2 105//2 33//2
f 106//2 33//2 35//2
f 108//2 106//2 35//2
f 108//2 35//2 56//2
f 107//2 108//2 56//2
f 153//2 247//2 242//2
f 151//2 153//2 242//2
f 151//2 242//2 240//2
f 147//2 151//2 240//2
f 147//2 240//2 234//2
f 145//2 147//2 234//2
f 145//2 234//2 229//2
f 139//2 145//2 229//2
f 139//2 229//2 220//2
f 137//2 139//2 220//2
f 137//2 220//2 203//2
f 133//2 137//2 203//2
f 133//2 203//2 204//2
f 131//2 133//2 204//2
f 131//2 204//2 205//2
f 126//2 131//2 205//2
f 126//2 205//2 206//2
f 127//2 126//2 206//2
f 127//2 206//2 209//2
f 124//2 127//2 209//2
f 124//2 209//2 208//2
f 123//2 124//2 208//2
f 123//2 208//2 207//2
f 19//2 11//2 4//2
f 3//2 12//2 14//2
f 3//2 14//2 16//2
f 17//2 19//2 4//2
f 15//2 17//2 4//2
f 3//2 16//2 18//2
f 3//2 18//2 20//2
f 31//2 15//2 4//2
f 23//2 31//2 4//2
f 3//2 20//2 22//2
f 3//2 22//2 29//2
f 21//2 23//2 4//2
f 30//2 21//2 4//2
f 3//2 29//2 24//2
f 3//2 24//2 27//2
f 28//2 30//2 4//2
f 26//2 28//2 4//2
f 3//2 27//2 25//2
f 3//2 25//2 55//2
f 56//2 26//2 4//2
f 107//2 56//2 4//2
f 7//2 3//2 55//2
f 7//2 55//2 34//2
f 107//2 4//2 8//2
f 219//2 107//2 8//2
f 7//2 34//2 32//2
f 7//2 32//2 40//2
f 218//2 219//2 8//2
f 224//2 218//2 8//2
f 48//2 47//2 149//2
f 48//2 149//2 152//2
f 50//2 48//2 152//2
f 50//2 152//2 150//2
f 52//2 50//2 150//2
f 52//2 150//2 146//2
f 43//2 52//2 146//2
f 43//2 146//2 144//2
f 44//2 43//2 144//2
f 44//2 144//2 138//2
f 54//2 44//2 138//2
f 54//2 138//2 136//2
f 36//2 54//2 136//2
f 36//2 136//2 132//2
f 38//2 36//2 132//2
f 38//2 132//2 130//2
f 224//2 8//2 7//2
f 226//2 224//2 7//2
f 40//2 38//2 130//2
f 40//2 130//2 125//2
f 227//2 226//2 7//2
f 231//2 227//2 7//2
f 40//2 125//2 122//2
f 40//2 122//2 121//2
f 233//2 231//2 7//2
f 237//2 233//2 7//2
f 40//2 121//2 123//2
f 7//2 40//2 123//2
f 239//2 237//2 7//2
f 245//2 239//2 7//2
f 7//2 123//2 207//2
f 7//2 207//2 216//2
f 251//2 245//2 7//2
f 249//2 251//2 7//2
f 7//2 216//2 210//2
f 7//2 210//2 212//2
f 243//2 249//2 7//2
f 241//2 243//2 7//2
f 7//2 212//2 211//2
f 7//2 211//2 215//2
f 235//2 241//2 7//2
f 228//2 235//2 7//2
f 7//2 215//2 213//2
f 7//2 213//2 214//2
f 221//2 228//2 7//2
f 148//2 149//2 47//2
f 8//3 6//3 5//3
f 297//4 202//4 192//4
f 299//4 296//4 192//4
f 299//4 192//4 190//4
f 295//4 299//4 190//4
f 295//4 190//4 184//4
f 293//4 295//4 184//4
f 293//4 184//4 178//4
f 287//4 293//4 178//4
f 287//4 178//4 169//4
f 285//4 287//4 169//4
f 285//4 169//4 166//4
f 281//4 285//4 166//4
f 281//4 166//4 167//4
f 279//4 281//4 167//4
f 279//4 167//4 165//4
f 274//4 279//4 165//4
f 274//4 165//4 159//4
f 272//4 274//4 159//4
f 272//4 159//4 161//4
f 271//4 272//4 161//4
f 271//4 161//4 158//4
f 266//4 271//4 158//4
f 266//4 158//4 160//4
f 268//4 266//4 160//4
f 268//4 160//4 156//4
f 191//4 198//4 96//4
f 191//4 96//4 94//4
f 189//4 191//4 94//4
f 189//4 94//4 100//4
f 183//4 189//4 100//4
f 183//4 100//4 92//4
f 177//4 183//4 92//4
f 177//4 92//4 90//4
f 168//4 177//4 90//4
f 168//4 90//4 102//4
f 162//4 168//4 102//4
f 162//4 102//4 84//4
f 164//4 162//4 84//4
f 164//4 84//4 86//4
f 163//4 164//4 86//4
f 163//4 86//4 88//4
f 155//4 163//4 88//4
f 155//4 88//4 80//4
f 154//4 155//4 80//4
f 154//4 80//4 82//4
f 157//4 154//4 82//4
f 157//4 82//4 103//4
f 156//4 157//4 103//4
f 202//4 297//4 291//4
f 200//4 202//4 291//4
f 200//4 291//4 289//4
f 196//4 200//4 289//4
f 196//4 289//4 283//4
f 194//4 196//4 283//4
f 194//4 283//4 278//4
f 188//4 194//4 278//4
f 188//4 278//4 269//4
f 186//4 188//4 269//4
f 186//4 269//4 252//4
f 182//4 186//4 252//4
f 182//4 252//4 253//4
f 180//4 182//4 253//4
f 180//4 253//4 254//4
f 175//4 180//4 254//4
f 175//4 254//4 255//4
f 176//4 175//4 255//4
f 176//4 255//4 258//4
f 173//4 176//4 258//4
f 173//4 258//4 257//4
f 172//4 173//4 257//4
f 172//4 257//4 256//4
f 66//4 59//4 1//4
f 2//4 61//4 62//4
f 2//4 62//4 65//4
f 64//4 66//4 1//4
f 63//4 64//4 1//4
f 2//4 65//4 67//4
f 2//4 67//4 68//4
f 79//4 63//4 1//4
f 70//4 79//4 1//4
f 2//4 68//4 71//4
f 2//4 71//4 78//4
f 69//4 70//4 1//4
f 77//4 69//4 1//4
f 2//4 78//4 72//4
f 2//4 72//4 76//4
f 75//4 77//4 1//4
f 73//4 75//4 1//4
f 2//4 76//4 74//4
f 2//4 74//4 104//4
f 103//4 73//4 1//4
f 156//4 103//4 1//4
f 6//4 2//4 104//4
f 6//4 104//4 83//4
f 156//4 1//4 5//4
f 268//4 156//4 5//4
f 6//4 83//4 81//4
f 6//4 81//4 89//4
f 267//4 268//4 5//4
f 273//4 267//4 5//4
f 97//4 95//4 197//4
f 97//4 197//4 201//4
f 98//4 97//4 201//4
f 98//4 201//4 199//4
f 99//4 98//4 199//4
f 99//4 199//4 195//4
f 91//4 99//4 195//4
f 91//4 195//4 193//4
f 93//4 91//4 193//4
f 93//4 193//4 187//4
f 101//4 93//4 187//4
f 101//4 187//4 185//4
f 85//4 101//4 185//4
f 85//4 185//4 181//4
f 87//4 85//4 181//4
f 87//4 181//4 179//4
f 273//4 5//4 6//4
f 275//4 273//4 6//4
f 89//4 87//4 179//4
f 89//4 179//4 174//4
f 276//4 275//4 6//4
f 280//4 276//4 6//4
f 89//4 174//4 170//4
f 89//4 170//4 171//4
f 282//4 280//4 6//4
f 286//4 282//4 6//4
f 89//4 171//4 172//4
f 6//4 89//4 172//4
f 288//4 286//4 6//4
f 294//4 288//4 6//4
f 6//4 172//4 256//4
f 6//4 256//4 265//4
f 300//4 294//4 6//4
f 298//4 300//4 6//4
f 6//4 265//4 259//4
f 6//4 259//4 261//4
f 292//4 298//4 6//4
f 290//4 292//4 6//4
f 6//4 261//4 260//4
f 6//4 260//4 264//4
f 284//4 290//4 6//4
f 277//4 284//4 6//4
f 6//4 264//4 262//4
f 6//4 262//4 263//4
f 270//4 277//4 6//4
f 95//4 96//4 198//4
f 60//4 61//4 2//4
f 2//4 1//4 59//4
f 2//4 59//4 58//4
f 57//4 60//4 2//4
f 7//5 5//5 1//5
f 4//6 2//6 6//6
f 35//7 83//7 104//7
f 33//8 81//8 83//8
f 41//9 89//9 81//9
f 39//10 87//10 89//10
f 37//11 85//11 87//11
f 53//12 101//12 85//12
f 53//13 42//13 93//13
f 42//14 45//14 91//14
f 45//15 51//15 99//15
f 51//16 46//16 98//16
f 46//17 49//17 97//17
f 49//18 47//18 95//18
f 47//19 48//19 96//19
f 48//20 50//20 94//20
f 50//21 52//21 100//21
f 52//22 43//22 92//22
f 43//23 44//23 90//23
f 44//24 54//24 102//24
f 54//25 36//25 84//25
f 36//26 38//26 86//26
f 38//27 40//27 88//27
f 40//28 32//28 80//28
f 32//29 34//29 82//29
f 34//30 55//30 103//30
f 55//31 25//31 73//31
f 25//32 27//32 75//32
f 27//33 24//33 77//33
f 24//34 29//34 69//34
f 29//35 22//35 70//35
f 22//36 20//36 79//36
f 18//37 63//37 79//37
f 16//38 64//38 63//38
f 14//39 66//39 64//39
f 12//40 59//40 66//40
f 10//41 58//41 59//41
f 9//42 57//42 58//42
f 13//43 60//43 57//43
f 11//44 61//44 60//44
f 19//45 62//45 61//45
f 17//46 65//46 62//46
f 15//47 67//47 65//47
f 31//48 68//48 67//48
f 23//49 71//49 68//49
f 21//50 78//50 71//50
f 30//51 72//51 78//51
f 28//52 76//52 72//52
f 26//53 74//53 76//53
f 56//54 104//54 74//54
f 112//7 173//7 172//7
f 109//8 176//8 173//8
f 111//9 175//9 176//9
f 110//10 180//10 175//10
f 116//11 182//11 180//11
f 118//12 186//12 182//12
f 118//13 117//13 188//13
f 194//14 188//14 117//14
f 196//15 194//15 120//15
f 200//16 196//16 129//16
f 141//17 202//17 200//17
f 143//18 192//18 202//18
f 190//19 192//19 143//19
f 153//20 151//20 184//20
f 147//21 178//21 184//21
f 147//22 145//22 169//22
f 166//23 169//23 145//23
f 139//24 137//24 167//24
f 137//25 133//25 165//25
f 133//26 131//26 159//26
f 131//27 126//27 161//27
f 126//28 127//28 158//28
f 127//29 124//29 160//29
f 124//30 123//30 156//30
f 123//31 121//31 157//31
f 121//32 122//32 154//32
f 122//33 125//33 155//33
f 125//34 130//34 163//34
f 130//35 132//35 164//35
f 132//36 136//36 162//36
f 136//37 138//37 168//37
f 138//38 144//38 177//38
f 144//39 146//39 183//39
f 150//40 189//40 183//40
f 152//41 191//41 189//41
f 198//42 191//42 152//42
f 149//42 148//42 198//42
f 197//43 198//43 148//43
f 148//43 142//43 201//43
f 142//44 140//44 199//44
f 140//45 134//45 195//45
f 134//46 128//46 193//46
f 128//47 119//47 187//47
f 119//48 113//48 185//48
f 115//49 181//49 185//49
f 114//50 179//50 181//50
f 105//51 174//51 179//51
f 106//52 170//52 174//52
f 108//53 171//53 170//53
f 107//54 172//54 171//54
f 218//7 265//7 256//7
f 224//8 259//8 265//8
f 226//9 261//9 259//9
f 227//10 260//10 261//10
f 231//11 264//11 260//11
f 233//12 262//12 264//12
f 263//13 262//13 233//13
f 270//14 263//14 237//14
f 277//15 270//15 239//15
f 251//16 284//16 277//16
f 249//17 290//17 284//17
f 249//18 243//18 292//18
f 243//19 241//19 298//19
f 300//20 298//20 241//20
f 228//21 294//21 300//21
f 228//22 221//22 288//22
f 286//23 288//23 221//23
f 214//24 213//24 282//24
f 213//25 215//25 280//25
f 215//26 211//26 276//26
f 211//27 212//27 275//27
f 212//28 210//28 273//28
f 210//29 216//29 267//29
f 216//30 207//30 268//30
f 207//31 208//31 266//31
f 208//32 209//32 271//32
f 209//33 206//33 272//33
f 206//34 205//34 274//34
f 205//35 204//35 279//35
f 204//36 203//36 281//36
f 220//37 285//37 281//37
f 229//38 287//38 285//38
f 234//39 293//39 287//39
f 240//40 295//40 293//40
f 242//41 299//41 295//41
f 299//42 242//42 247//42
f 247//42 297//42 296//42
f 297//43 247//43 248//43
f 248//43 250//43 291//43
f 246//44 289//44 291//44
f 246//45 244//45 283//45
f 238//46 278//46 283//46
f 238//47 236//47 269//47
f 236//48 232//48 252//48
f 230//49 253//49 252//49
f 225//50 254//50 253//50
f 223//51 255//51 254//51
f 222//52 258//52 255//52
f 217//53 257//53 258//53
f 219//54 256//54 257//54
f 302//1 304//1 303//1
f 304//2 308//2 307//2
f 308//3 306//3 305//3
f 306//4 302//4 301//4
f 307//5 305//5 301//5
f 304//6 302//6 306//6
f 310//1 312//1 311//1
f 318//2 320//2 311//2
f 311//2 312//2 319//2
f 311//2 319//2 321//2
f 317//2 318//2 311//2
f 555//2 461//2 451//2
f 558//2 556//2 451//2
f 558//2 451//2 449//2
f 554//2 558//2 449//2
f 554//2 449//2 443//2
f 552//2 554//2 443//2
f 552//2 443//2 437//2
f 546//2 552//2 437//2
f 546//2 437//2 428//2
f 544//2 546//2 428//2
f 544//2 428//2 425//2
f 540//2 544//2 425//2
f 540//2 425//2 426//2
f 538//2 540//2 426//2
f 538//2 426//2 424//2
f 533//2 538//2 424//2
f 533//2 424//2 418//2
f 531//2 533//2 418//2
f 531//2 418//2 419//2
f 530//2 531//2 419//2
f 530//2 419//2 417//2
f 525//2 530//2 417//2
f 525//107 417//107 420//107
f 527//108 525//108 420//108
f 527//109 420//109 415//109
f 450//2 456//2 357//2
f 450//2 357//2 354//2
f 448//2 450//2 354//2
f 448//2 354//2 359//2
f 442//2 448//2 359//2
f 442//2 359//2 353//2
f 436//2 442//2 353//2
f 436//2 353//2 350//2
f 427//2 436//2 350//2
f 427//2 350//2 361//2
f 421//2 427//2 361//2
f 421//2 361//2 345//2
f 423//2 421//2 345//2
f 423//2 345//2 347//2
f 422//2 423//2 347//2
f 422//2 347//2 349//2
f 413//107 422//107 349//107
f 413//2 349//2 341//2
f 414//2 413//2 341//2
f 414//2 341//2 343//2
f 416//107 414//107 343//107
f 416//107 343//107 364//107
f 415//2 416//2 364//2
f 461//2 555//2 550//2
f 459//2 461//2 550//2
f 459//2 550//2 548//2
f 455//2 459//2 548//2
f 455//2 548//2 542//2
f 453//2 455//2 542//2
f 453//2 542//2 537//2
f 447//2 453//2 537//2
f 447//2 537//2 528//2
f 445//2 447//2 528//2
f 445//2 528//2 511//2
f 441//2 445//2 511//2
f 441//2 511//2 512//2
f 439//2 441//2 512//2
f 439//2 512//2 513//2
f 434//2 439//2 513//2
f 434//2 513//2 514//2
f 435//2 434//2 514//2
f 435//2 514//2 517//2
f 432//2 435//2 517//2
f 432//110 517//110 516//110
f 431//2 432//2 516//2
f 431//110 516//110 515//110
f 327//2 319//2 312//2
f 311//2 320//2 322//2
f 311//2 322//2 324//2
f 325//2 327//2 312//2
f 323//2 325//2 312//2
f 311//2 324//2 326//2
f 311//2 326//2 328//2
f 339//2 323//2 312//2
f 331//2 339//2 312//2
f 311//2 328//2 330//2
f 311//2 330//2 337//2
f 329//2 331//2 312//2
f 338//2 329//2 312//2
f 311//2 337//2 332//2
f 311//2 332//2 335//2
f 336//2 338//2 312//2
f 334//2 336//2 312//2
f 311//2 335//2 333//2
f 311//2 333//2 363//2
f 364//2 334//2 312//2
f 415//2 364//2 312//2
f 315//2 311//2 363//2
f 315//110 363//110 342//110
f 415//2 312//2 316//2
f 527//2 415//2 316//2
f 315//2 342//2 340//2
f 315//110 340//110 348//110
f 526//111 527//111 316//111
f 532//110 526//110 316//110
f 356//2 355//2 457//2
f 356//2 457//2 460//2
f 358//2 356//2 460//2
f 358//2 460//2 458//2
f 360//2 358//2 458//2
f 360//2 458//2 454//2
f 351//2 360//2 454//2
f 351//2 454//2 452//2
f 352//2 351//2 452//2
f 352//2 452//2 446//2
f 362//2 352//2 446//2
f 362//2 446//2 444//2
f 344//2 362//2 444//2
f 344//2 444//2 440//2
f 346//2 344//2 440//2
f 346//2 440//2 438//2
f 532//2 316//2 315//2
f 534//2 532//2 315//2
f 348//2 346//2 438//2
f 348//2 438//2 433//2
f 535//2 534//2 315//2
f 539//2 535//2 315//2
f 348//107 433//107 430//107
f 348//110 430//110 429//110
f 541//2 539//2 315//2
f 545//2 541//2 315//2
f 348//109 429//109 431//109
f 315//107 348//107 431//107
f 547//2 545//2 315//2
f 553//2 547//2 315//2
f 315//2 431//2 515//2
f 315//112 515//112 524//112
f 559//2 553//2 315//2
f 557//2 559//2 315//2
f 315//107 524//107 518//107
f 315//2 518//2 520//2
f 551//2 557//2 315//2
f 549//2 551//2 315//2
f 315//2 520//2 519//2
f 315//2 519//2 523//2
f 543//2 549//2 315//2
f 536//2 543//2 315//2
f 315//2 523//2 521//2
f 315//2 521//2 522//2
f 529//2 536//2 315//2
f 456//2 457//2 355//2
f 316//3 314//3 313//3
f 605//4 510//4 500//4
f 607//4 604//4 500//4
f 607//4 500//4 498//4
f 603//4 607//4 498//4
f 603//4 498//4 492//4
f 601//4 603//4 492//4
f 601//4 492//4 486//4
f 595//4 601//4 486//4
f 595//4 486//4 477//4
f 593//4 595//4 477//4
f 593//4 477//4 474//4
f 589//4 593//4 474//4
f 589//4 474//4 475//4
f 587//4 589//4 475//4
f 587//4 475//4 473//4
f 582//4 587//4 473//4
f 582//4 473//4 467//4
f 580//4 582//4 467//4
f 580//4 467//4 469//4
f 579//4 580//4 469//4
f 579//4 469//4 466//4
f 574//4 579//4 466//4
f 574//4 466//4 468//4
f 576//4 574//4 468//4
f 576//4 468//4 464//4
f 499//4 506//4 404//4
f 499//4 404//4 402//4
f 497//4 499//4 402//4
f 497//4 402//4 408//4
f 491//4 497//4 408//4
f 491//4 408//4 400//4
f 485//4 491//4 400//4
f 485//4 400//4 398//4
f 476//4 485//4 398//4
f 476//4 398//4 410//4
f 470//4 476//4 410//4
f 470//4 410//4 392//4
f 472//4 470//4 392//4
f 472//4 392//4 394//4
f 471//4 472//4 394//4
f 471//4 394//4 396//4
f 463//4 471//4 396//4
f 463//4 396//4 388//4
f 462//4 463//4 388//4
f 462//4 388//4 390//4
f 465//4 462//4 390//4
f 465//4 390//4 411//4
f 464//4 465//4 411//4
f 510//4 605//4 599//4
f 508//4 510//4 599//4
f 508//4 599//4 597//4
f 504//4 508//4 597//4
f 504//4 597//4 591//4
f 502//4 504//4 591//4
f 502//4 591//4 586//4
f 496//4 502//4 586//4
f 496//4 586//4 577//4
f 494//4 496//4 577//4
f 494//4 577//4 560//4
f 490//4 494//4 560//4
f 490//4 560//4 561//4
f 488//4 490//4 561//4
f 488//4 561//4 562//4
f 483//4 488//4 562//4
f 483//4 562//4 563//4
f 484//4 483//4 563//4
f 484//4 563//4 566//4
f 481//4 484//4 566//4
f 481//4 566//4 565//4
f 480//4 481//4 565//4
f 480//4 565//4 564//4
f 374//4 367//4 309//4
f 310//4 369//4 370//4
f 310//4 370//4 373//4
f 372//4 374//4 309//4
f 371//4 372//4 309//4
f 310//4 373//4 375//4
f 310//4 375//4 376//4
f 387//4 371//4 309//4
f 378//4 387//4 309//4
f 310//4 376//4 379//4
f 310//4 379//4 386//4
f 377//4 378//4 309//4
f 385//4 377//4 309//4
f 310//4 386//4 380//4
f 310//4 380//4 384//4
f 383//4 385//4 309//4
f 381//4 383//4 309//4
f 310//4 384//4 382//4
f 310//4 382//4 412//4
f 411//4 381//4 309//4
f 464//4 411//4 309//4
f 314//4 310//4 412//4
f 314//113 412//113 391//113
f 464//4 309//4 313//4
f 576//4 464//4 313//4
f 314//4 391//4 389//4
f 314//113 389//113 397//113
f 575//4 576//4 313//4
f 581//4 575//4 313//4
f 405//4 403//4 505//4
f 405//4 505//4 509//4
f 406//4 405//4 509//4
f 406//4 509//4 507//4
f 407//4 406//4 507//4
f 407//4 507//4 503//4
f 399//4 407//4 503//4
f 399//4 503//4 501//4
f 401//4 399//4 501//4
f 401//4 501//4 495//4
f 409//4 401//4 495//4
f 409//4 495//4 493//4
f 393//4 409//4 493//4
f 393//4 493//4 489//4
f 395//4 393//4 489//4
f 395//4 489//4 487//4
f 581//4 313//4 314//4
f 583//4 581//4 314//4
f 397//4 395//4 487//4
f 397//4 487//4 482//4
f 584//4 583//4 314//4
f 588//4 584//4 314//4
f 397//4 482//4 478//4
f 397//4 478//4 479//4
f 590//4 588//4 314//4
f 594//4 590//4 314//4
f 397//4 479//4 480//4
f 314//114 397//114 480//114
f 596//4 594//4 314//4
f 602//4 596//4 314//4
f 314//4 480//4 564//4
f 314//4 564//4 573//4
f 608//4 602//4 314//4
f 606//4 608//4 314//4
f 314//4 573//4 567//4
f 314//4 567//4 569//4
f 600//4 606//4 314//4
f 598//4 600//4 314//4
f 314//4 569//4 568//4
f 314//4 568//4 572//4
f 592//4 598//4 314//4
f 585//4 592//4 314//4
f 314//4 572//4 570//4
f 314//4 570//4 571//4
f 578//4 585//4 314//4
f 403//4 404//4 506//4
f 368//4 369//4 310//4
f 310//4 309//4 367//4
f 310//4 367//4 366//4
f 365//4 368//4 310//4
f 315//5 313//5 309//5
f 312//6 310//6 314//6
f 343//7 391//7 412//7
f 341//8 389//8 391//8
f 349//9 397//9 389//9
f 347//10 395//10 397//10
f 345//11 393//11 395//11
f 361//12 409//12 393//12
f 361//13 350//13 401//13
f 350//14 353//14 399//14
f 353//15 359//15 407//15
f 359//16 354//16 406//16
f 354//17 357//17 405//17
f 357//18 355//18 403//18
f 355//19 356//19 404//19
f 356//20 358//20 402//20
f 358//21 360//21 408//21
f 360//22 351//22 400//22
f 351//23 352//23 398//23
f 352//24 362//24 410//24
f 362//25 344//25 392//25
f 344//26 346//26 394//26
f 346//27 348//27 396//27
f 348//28 340//28 388//28
f 340//29 342//29 390//29
f 342//30 363//30 411//30
f 363//31 333//31 381//31
f 333//32 335//32 383//32
f 335//33 332//33 385//33
f 332//34 337//34 377//34
f 337//35 330//35 378//35
f 330//36 328//36 387//36
f 326//37 371//37 387//37
f 324//38 372//38 371//38
f 322//39 374//39 372//39
f 320//40 367//40 374//40
f 318//41 366//41 367//41
f 317//42 365//42 366//42
f 321//43 368//43 365//43
f 319//44 369//44 368//44
f 327//45 370//45 369//45
f 325//46 373//46 370//46
f 323//47 375//47 373//47
f 339//48 376//48 375//48
f 331//49 379//49 376//49
f 329//50 386//50 379//50
f 338//51 380//51 386//51
f 336//52 384//52 380//52
f 334//53 382//53 384//53
f 364//54 412//54 382//54
f 420//7 481//7 480//7
f 417//8 484//8 481//8
f 419//9 483//9 484//9
f 418//10 488//10 483//10
f 424//11 490//11 488//11
f 426//12 494//12 490//12
f 426//13 425//13 496//13
f 502//14 496//14 425//14
f 504//15 502//15 428//15
f 508//16 504//16 437//16
f 449//17 510//17 508//17
f 451//18 500//18 510//18
f 498//19 500//19 451//19
f 461//20 459//20 492//20
f 455//21 486//21 492//21
f 455//22 453//22 477//22
f 474//23 477//23 453//23
f 447//24 445//24 475//24
f 445//25 441//25 473//25
f 441//26 439//26 467//26
f 439//27 434//27 469//27
f 434//28 435//28 466//28
f 435//29 432//29 468//29
f 432//30 431//30 464//30
f 431//31 429//31 465//31
f 429//32 430//32 462//32
f 430//33 433//33 463//33
f 433//34 438//34 471//34
f 438//35 440//35 472//35
f 440//36 444//36 470//36
f 444//37 446//37 476//37
f 446//38 452//38 485//38
f 452//39 454//39 491//39
f 458//40 497//40 491//40
f 460//41 499//41 497//41
f 506//42 499//42 460//42
f 457//42 456//42 506//42
f 505//43 506//43 456//43
f 456//43 450//43 509//43
f 450//44 448//44 507//44
f 448//45 442//45 503//45
f 442//46 436//46 501//46
f 436//47 427//47 495//47
f 427//48 421//48 493//48
f 423//49 489//49 493//49
f 422//50 487//50 489//50
f 413//51 482//51 487//51
f 414//52 478//52 482//52
f 416//53 479//53 478//53
f 415//54 480//54 479//54
f 526//7 573//7 564//7
f 532//8 567//8 573//8
f 534//9 569//9 567//9
f 535//10 568//10 569//10
f 539//11 572//11 568//11
f 541//12 570//12 572//12
f 571//13 570//13 541//13
f 578//14 571//14 545//14
f 585//15 578//15 547//15
f 559//16 592//16 585//16
f 557//17 598//17 592//17
f 557//18 551//18 600//18
f 551//19 549//19 606//19
f 608//20 606//20 549//20
f 536//21 602//21 608//21
f 536//22 529//22 596//22
f 594//23 596//23 529//23
f 522//24 521//24 590//24
f 521//25 523//25 588//25
f 523//26 519//26 584//26
f 519//27 520//27 583//27
f 520//28 518//28 581//28
f 518//29 524//29 575//29
f 524//30 515//30 576//30
f 515//31 516//31 574//31
f 516//32 517//32 579//32
f 517//33 514//33 580//33
f 514//34 513//34 582//34
f 513//35 512//35 587//35
f 512//36 511//36 589//36
f 528//37 593//37 589//37
f 537//38 595//38 593//38
f 542//39 601//39 595//39
f 548//40 603//40 601//40
f 550//41 607//41 603//41
f 607//42 550//42 555//42
f 555//42 605//42 604//42
f 605//43 555//43 556//43
f 556//43 558//43 599//43
f 554//44 597//44 599//44
f 554//45 552//45 591//45
f 546//46 586//46 591//46
f 546//47 544//47 577//47
f 544//48 540//48 560//48
f 538//49 561//49 560//49
f 533//50 562//50 561//50
f 531//51 563//51 562//51
f 530//52 566//52 563//52
f 525//53 565//53 566//53
f 527//54 564//54 565//54
f 610//1 612//1 611//1
f 612//2 616//2 615//2
f 616//3 614//3 613//3
f 614//4 610//4 609//4
f 615//5 613//5 609//5
f 612//6 610//6 614//6
f 618//1 620//1 619//1
f 620//2 624//2 623//2
f 624//3 622//3 621//3
f 622//4 618//4 617//4
f 637//5 645//5 617//5
f 619//5 640//5 646//5
f 619//5 646//5 639//5
f 638//5 637//5 617//5
f 647//5 638//5 617//5
f 619//5 639//5 636//5
f 619//5 636//5 635//5
f 631//5 647//5 617//5
f 632//5 631//5 617//5
f 619//5 635//5 633//5
f 619//5 633//5 630//5
f 634//5 632//5 617//5
f 627//5 634//5 617//5
f 619//5 630//5 629//5
f 619//5 629//5 628//5
f 626//5 627//5 617//5
f 619//5 628//5 625//5
f 625//5 626//5 617//5
f 644//5 640//5 619//5
f 619//5 623//5 621//5
f 621//5 617//5 645//5
f 621//5 645//5 643//5
f 642//5 644//5 619//5
f 672//5 642//5 619//5
f 621//5 643//5 641//5
f 621//5 641//5 671//5
f 651//5 672//5 619//5
f 649//5 651//5 619//5
f 621//5 671//5 650//5
f 621//5 650//5 648//5
f 657//5 649//5 619//5
f 655//5 657//5 619//5
f 621//5 648//5 656//5
f 621//5 656//5 654//5
f 655//5 619//5 621//5
f 653//5 655//5 621//5
f 621//5 654//5 652//5
f 621//5 652//5 669//5
f 670//5 653//5 621//5
f 661//5 670//5 621//5
f 621//5 669//5 658//5
f 621//5 658//5 660//5
f 659//5 661//5 621//5
f 667//5 659//5 621//5
f 621//5 660//5 668//5
f 621//5 668//5 662//5
f 666//5 667//5 621//5
f 665//5 666//5 621//5
f 621//5 662//5 664//5
f 663//5 665//5 621//5
f 691//6 693//6 618//6
f 618//6 622//6 624//6
f 624//6 620//6 688//6
f 624//6 688//6 692//6
f 689//6 691//6 618//6
f 719//6 689//6 618//6
f 624//6 692//6 690//6
f 624//6 690//6 720//6
f 698//6 719//6 618//6
f 696//6 698//6 618//6
f 624//6 720//6 699//6
f 624//6 699//6 697//6
f 704//6 696//6 618//6
f 702//6 704//6 618//6
f 624//6 697//6 705//6
f 624//6 705//6 703//6
f 702//6 618//6 624//6
f 700//6 702//6 624//6
f 624//6 703//6 701//6
f 624//6 701//6 717//6
f 718//6 700//6 624//6
f 706//6 718//6 624//6
f 624//6 717//6 709//6
f 624//6 709//6 707//6
f 708//6 706//6 624//6
f 716//6 708//6 624//6
f 624//6 707//6 715//6
f 624//6 715//6 714//6
f 710//6 716//6 624//6
f 712//6 710//6 624//6
f 624//6 714//6 713//6
f 711//6 712//6 624//6
f 694//6 688//6 620//6
f 618//6 693//6 685//6
f 618//6 685//6 686//6
f 687//6 694//6 620//6
f 684//6 687//6 620//6
f 618//6 686//6 695//6
f 618//6 695//6 679//6
f 683//6 684//6 620//6
f 681//6 683//6 620//6
f 618//6 679//6 680//6
f 618//6 680//6 682//6
f 678//6 681//6 620//6
f 677//6 678//6 620//6
f 618//6 682//6 675//6
f 618//6 675//6 674//6
f 676//6 677//6 620//6
f 618//6 674//6 673//6
f 673//6 676//6 620//6
f 672//55 651//55 699//55
f 651//56 649//56 697//56
f 649//57 657//57 705//57
f 657//58 655//58 703//58
f 655//59 653//59 701//59
f 653//60 670//60 717//60
f 661//61 709//61 717//61
f 659//62 707//62 709//62
f 667//63 715//63 707//63
f 666//64 714//64 715//64
f 665//65 713//65 714//65
f 663//66 711//66 713//66
f 664//67 712//67 711//67
f 662//68 710//68 712//68
f 668//69 716//69 710//69
f 660//70 708//70 716//70
f 658//71 706//71 708//71
f 669//72 718//72 706//72
f 652//73 700//73 718//73
f 654//74 702//74 700//74
f 656//75 704//75 702//75
f 648//76 696//76 704//76
f 650//77 698//77 696//77
f 671//78 719//78 698//78
f 641//79 689//79 719//79
f 643//80 691//80 689//80
f 645//81 693//81 691//81
f 637//82 685//82 693//82
f 638//83 686//83 685//83
f 647//84 695//84 686//84
f 647//85 631//85 679//85
f 631//86 632//86 680//86
f 632//87 634//87 682//87
f 634//88 627//88 675//88
f 627//89 626//89 674//89
f 626//90 625//90 673//90
f 625//91 628//91 676//91
f 628//92 629//92 677//92
f 629//93 630//93 678//93
f 630//94 633//94 681//94
f 633//95 635//95 683//95
f 635//96 636//96 684//96
f 636//97 639//97 687//97
f 639//98 646//98 694//98
f 646//99 640//99 688//99
f 640//100 644//100 692//100
f 644//101 642//101 690//101
f 642//102 672//102 720//102
f 722//1 724//1 723//1
f 724//2 728//2 727//2
f 728//3 726//3 725//3
f 726//4 722//4 721//4
f 727//5 725//5 721//5
f 724//6 722//6 726//6
f 730//1 732//1 731//1
f 732//2 736//2 735//2
f 736//3 734//3 733//3
f 734//4 730//4 729//4
f 735//5 733//5 729//5
f 732//6 730//6 734//6
f 738//1 740//1 739//1
f 740//2 744//2 743//2
f 744//3 742//3 741//3
f 742//4 738//4 737//4
f 743//5 741//5 737//5
f 740//6 738//6 742//6
f 746//1 748//1 747//1
f 748//2 752//2 751//2
f 752//3 750//3 749//3
f 750//4 746//4 745//4
f 751//5 749//5 745//5
f 748//6 746//6 750//6
f 754//1 756//1 755//1
f 756//2 760//2 759//2
f 760//3 758//3 757//3
f 758//4 754//4 753//4
f 759//5 757//5 753//5
f 756//6 754//6 758//6
f 786//1 788//1 787//1
f 788//2 792//2 791//2
f 792//3 790//3 789//3
f 790//4 786//4 785//4
f 791//5 789//5 785//5
f 788//6 786//6 790//6
f 818//1 820//1 819//1
f 820//2 824//2 823//2
f 824//3 822//3 821//3
f 822//4 818//4 817//4
f 823//5 821//5 817//5
f 820//6 818//6 822//6
f 850//1 852//1 851//1
f 852//2 856//2 855//2
f 856//3 854//3 853//3
f 854//4 850//4 849//4
f 855//5 853//5 849//5
f 852//6 850//6 854//6
usemtl bolt_black
f 762//103 763//103 761//103
f 764//3 765//3 763//3
f 766//104 767//104 765//104
f 768//105 769//105 767//105
f 762//6 770//6 766//6
f 770//1 771//1 769//1
f 772//106 761//106 771//106
f 763//5 767//5 771//5
f 774//103 775//103 773//103
f 776//3 777//3 775//3
f 778//104 779//104 777//104
f 780//105 781//105 779//105
f 774//6 782//6 778//6
f 782//1 783//1 781//1
f 784//106 773//106 783//106
f 775//5 779//5 783//5
f 794//103 795//103 793//103
f 796//3 797//3 795//3
f 798//104 799//104 797//104
f 800//105 801//105 799//105
f 794//6 802//6 798//6
f 802//1 803//1 801//1
f 804//106 793//106 803//106
f 795//5 799//5 803//5
f 806//103 807//103 805//103
f 808//3 809//3 807//3
f 810//104 811//104 809//104
f 812//105 813//105 811//105
f 806//6 814//6 810//6
f 814//1 815//1 813//1
f 816//106 805//106 815//106
f 807//5 811//5 815//5
f 826//103 827//103 825//103
f 828//3 829//3 827//3
f 830//104 831//104 829//104
f 832//105 833//105 831//105
f 826//6 834//6 830//6
f 834//1 835//1 833//1
f 836//106 825//106 835//106
f 827//5 831//5 835//5
f 838//103 839//103 837//103
f 840//3 841//3 839//3
f 842//104 843//104 841//104
f 844//105 845//105 843//105
f 838//6 846//6 842//6
f 846//1 847//1 845//1
f 848//106 837//106 847//106
f 839//5 843//5 847//5
f 858//103 859//103 857//103
f 860//3 861//3 859//3
f 862//104 863//104 861//104
f 864//105 865//105 863//105
f 858//6 866//6 862//6
f 866//1 867//1 865//1
f 868//106 857//106 867//106
f 859//5 863//5 867//5
f 870//103 871//103 869//103
f 872//3 873//3 871//3
f 874//104 875//104 873//104
f 876//105 877//105 875//105
f 870//6 878//6 874//6
f 878//1 879//1 877//1
f 880//106 869//106 879//106
f 871//5 875//5 879//5
f 762//103 764//103 763//103
f 764//3 766//3 765//3
f 766//104 768//104 767//104
f 768//105 770//105 769//105
f 766//6 764//6 762//6
f 762//6 772//6 770//6
f 770//6 768//6 766//6
f 770//1 772//1 771//1
f 772//106 762//106 761//106
f 771//5 761//5 763//5
f 763//5 765//5 767//5
f 767//5 769//5 771//5
f 774//103 776//103 775//103
f 776//3 778//3 777//3
f 778//104 780//104 779//104
f 780//105 782//105 781//105
f 778//6 776//6 774//6
f 774//6 784//6 782//6
f 782//6 780//6 778//6
f 782//1 784//1 783//1
f 784//106 774//106 773//106
f 783//5 773//5 775//5
f 775//5 777//5 779//5
f 779//5 781//5 783//5
f 794//103 796//103 795//103
f 796//3 798//3 797//3
f 798//104 800//104 799//104
f 800//105 802//105 801//105
f 798//6 796//6 794//6
f 794//6 804//6 802//6
f 802//6 800//6 798//6
f 802//1 804//1 803//1
f 804//106 794//106 793//106
f 803//5 793//5 795//5
f 795//5 797//5 799//5
f 799//5 801//5 803//5
f 806//103 808//103 807//103
f 808//3 810//3 809//3
f 810//104 812//104 811//104
f 812//105 814//105 813//105
f 810//6 808//6 806//6
f 806//6 816//6 814//6
f 814//6 812//6 810//6
f 814//1 816//1 815//1
f 816//106 806//106 805//106
f 815//5 805//5 807//5
f 807//5 809//5 811//5
f 811//5 813//5 815//5
f 826//103 828//103 827//103
f 828//3 830//3 829//3
f 830//104 832//104 831//104
f 832//105 834//105 833//105
f 830//6 828//6 826//6
f 826//6 836//6 834//6
f 834//6 832//6 830//6
f 834//1 836//1 835//1
f 836//106 826//106 825//106
f 835//5 825//5 827//5
f 827//5 829//5 831//5
f 831//5 833//5 835//5
f 838//103 840//103 839//103
f 840//3 842//3 841//3
f 842//104 844//104 843//104
f 844//105 846//105 845//105
f 842//6 840//6 838//6
f 838//6 848//6 846//6
f 846//6 844//6 842//6
f 846//1 848//1 847//1
f 848//106 838//106 837//106
f 847//5 837//5 839//5
f 839//5 841//5 843//5
f 843//5 845//5 847//5
f 858//103 860//103 859//103
f 860//3 862//3 861//3
f 862//104 864//104 863//104
f 864//105 866//105 865//105
f 862//6 860//6 858//6
f 858//6 868//6 866//6
f 866//6 864//6 862//6
f 866//1 868//1 867//1
f 868//106 858//106 857//106
f 867//5 857//5 859//5
f 859//5 861//5 863//5
f 863//5 865//5 867//5
f 870//103 872//103 871//103
f 872//3 874//3 873//3
f 874//104 876//104 875//104
f 876//105 878//105 877//105
f 874//6 872//6 870//6
f 870//6 880//6 878//6
f 878//6 876//6 874//6
f 878//1 880//1 879//1
f 880//106 870//106 869//106
f 879//5 869//5 871//5
f 871//5 873//5 875//5
f 875//5 877//5 879//5
