# Blender 5.2.2 LTS
# www.blender.org
mtllib brake_disc_ok.mtl
o brake_disc_ok
v -8.800000 0.450000 0.000000
v -8.740001 0.450000 -0.000000
v -8.800000 0.449037 -0.029431
v -8.740001 0.449037 -0.029431
v -8.800000 0.446150 -0.058737
v -8.740001 0.446150 -0.058737
v -8.800000 0.441353 -0.087791
v -8.740001 0.441353 -0.087791
v -8.800000 0.434667 -0.116469
v -8.740001 0.434667 -0.116469
v -8.800000 0.426119 -0.144648
v -8.740001 0.426119 -0.144648
v -8.800000 0.415746 -0.172208
v -8.740001 0.415746 -0.172208
v -8.800000 0.403593 -0.199030
v -8.740001 0.403593 -0.199030
v -8.800000 0.389711 -0.225000
v -8.740001 0.389711 -0.225000
v -8.800000 0.374161 -0.250007
v -8.740001 0.374161 -0.250007
v -8.800000 0.357009 -0.273943
v -8.740001 0.357009 -0.273943
v -8.800000 0.338328 -0.296706
v -8.740001 0.338328 -0.296706
v -8.800000 0.318198 -0.318198
v -8.740001 0.318198 -0.318198
v -8.800000 0.296706 -0.338328
v -8.740001 0.296706 -0.338328
v -8.800000 0.273943 -0.357009
v -8.740001 0.273943 -0.357009
v -8.800000 0.250007 -0.374161
v -8.740001 0.250007 -0.374161
v -8.800000 0.225000 -0.389711
v -8.740001 0.225000 -0.389711
v -8.800000 0.199030 -0.403593
v -8.740001 0.199030 -0.403593
v -8.800000 0.172208 -0.415746
v -8.740001 0.172208 -0.415746
v -8.800000 0.144648 -0.426119
v -8.740001 0.144648 -0.426119
v -8.800000 0.116469 -0.434667
v -8.740001 0.116469 -0.434667
v -8.800000 0.087791 -0.441353
v -8.740001 0.087791 -0.441353
v -8.800000 0.058737 -0.446150
v -8.740001 0.058737 -0.446150
v -8.800000 0.029431 -0.449037
v -8.740001 0.029431 -0.449037
v -8.800000 0.000000 -0.450000
v -8.740001 0.000000 -0.450000
v -8.800000 -0.029431 -0.449037
v -8.740001 -0.029431 -0.449037
v -8.800000 -0.058737 -0.446150
v -8.740001 -0.058737 -0.446150
v -8.800000 -0.087791 -0.441353
v -8.740001 -0.087791 -0.441353
v -8.800000 -0.116469 -0.434667
v -8.740001 -0.116469 -0.434667
v -8.800000 -0.144648 -0.426119
v -8.740001 -0.144648 -0.426119
v -8.800000 -0.172208 -0.415746
v -8.740001 -0.172208 -0.415746
v -8.800000 -0.199030 -0.403593
v -8.740001 -0.199030 -0.403593
v -8.800000 -0.225000 -0.389711
v -8.740001 -0.225000 -0.389711
v -8.800000 -0.250007 -0.374161
v -8.740001 -0.250007 -0.374161
v -8.800000 -0.273943 -0.357009
v -8.740001 -0.273943 -0.357009
v -8.800000 -0.296706 -0.338328
v -8.740001 -0.296706 -0.338328
v -8.800000 -0.318198 -0.318198
v -8.740001 -0.318198 -0.318198
v -8.800000 -0.338328 -0.296706
v -8.740001 -0.338328 -0.296706
v -8.800000 -0.357009 -0.273943
v -8.740001 -0.357009 -0.273943
v -8.800000 -0.374161 -0.250007
v -8.740001 -0.374161 -0.250007
v -8.800000 -0.389711 -0.225000
v -8.740001 -0.389711 -0.225000
v -8.800000 -0.403593 -0.199030
v -8.740001 -0.403593 -0.199030
v -8.800000 -0.415746 -0.172208
v -8.740001 -0.415746 -0.172208
v -8.800000 -0.426119 -0.144648
v -8.740001 -0.426119 -0.144648
v -8.800000 -0.434667 -0.116469
v -8.740001 -0.434667 -0.116469
v -8.800000 -0.441353 -0.087791
v -8.740001 -0.441353 -0.087791
v -8.800000 -0.446150 -0.058737
v -8.740001 -0.446150 -0.058737
v -8.800000 -0.449037 -0.029431
v -8.740001 -0.449037 -0.029431
v -8.800000 -0.450000 0.000000
v -8.740001 -0.450000 -0.000000
v -8.800000 -0.449037 0.029431
v -8.740001 -0.449037 0.029431
v -8.800000 -0.446150 0.058737
v -8.740001 -0.446150 0.058737
v -8.800000 -0.441353 0.087791
v -8.740001 -0.441353 0.087791
v -8.800000 -0.434667 0.116469
v -8.740001 -0.434667 0.116469
v -8.800000 -0.426119 0.144648
v -8.740001 -0.426119 0.144648
v -8.800000 -0.415746 0.172208
v -8.740001 -0.415746 0.172208
v -8.800000 -0.403593 0.199030
v -8.740001 -0.403593 0.199030
v -8.800000 -0.389711 0.225000
v -8.740001 -0.389711 0.225000
v -8.800000 -0.374161 0.250007
v -8.740001 -0.374161 0.250007
v -8.800000 -0.357009 0.273943
v -8.740001 -0.357009 0.273943
v -8.800000 -0.338328 0.296706
v -8.740001 -0.338328 0.296706
v -8.800000 -0.318198 0.318198
v -8.740001 -0.318198 0.318198
v -8.800000 -0.296706 0.338328
v -8.740001 -0.296706 0.338328
v -8.800000 -0.273943 0.357009
v -8.740001 -0.273943 0.357009
v -8.800000 -0.250007 0.374161
v -8.740001 -0.250007 0.374161
v -8.800000 -0.225000 0.389711
v -8.740001 -0.225000 0.389711
v -8.800000 -0.199030 0.403593
v -8.740001 -0.199030 0.403593
v -8.800000 -0.172208 0.415746
v -8.740001 -0.172208 0.415746
v -8.800000 -0.144648 0.426119
v -8.740001 -0.144648 0.426119
v -8.800000 -0.116469 0.434667
v -8.740001 -0.116469 0.434667
v -8.800000 -0.087791 0.441353
v -8.740001 -0.087791 0.441353
v -8.800000 -0.058737 0.446150
v -8.740001 -0.058737 0.446150
v -8.800000 -0.029431 0.449037
v -8.740001 -0.029431 0.449037
v -8.800000 0.000000 0.450000
v -8.740001 0.000000 0.450000
v -8.800000 0.029431 0.449037
v -8.740001 0.029431 0.449037
v -8.800000 0.058737 0.446150
v -8.740001 0.058737 0.446150
v -8.800000 0.087791 0.441353
v -8.740001 0.087791 0.441353
v -8.800000 0.116469 0.434667
v -8.740001 0.116469 0.434667
v -8.800000 0.144648 0.426119
v -8.740001 0.144648 0.426119
v -8.800000 0.172208 0.415746
v -8.740001 0.172208 0.415746
v -8.800000 0.199030 0.403593
v -8.740001 0.199030 0.403593
v -8.800000 0.225000 0.389711
v -8.740001 0.225000 0.389711
v -8.800000 0.250007 0.374161
v -8.740001 0.250007 0.374161
v -8.800000 0.273943 0.357009
v -8.740001 0.273943 0.357009
v -8.800000 0.296706 0.338328
v -8.740001 0.296706 0.338328
v -8.800000 0.318198 0.318198
v -8.740001 0.318198 0.318198
v -8.800000 0.338328 0.296706
v -8.740001 0.338328 0.296706
v -8.800000 0.357009 0.273943
v -8.740001 0.357009 0.273943
v -8.800000 0.374161 0.250007
v -8.740001 0.374161 0.250007
v -8.800000 0.389711 0.225000
v -8.740001 0.389711 0.225000
v -8.800000 0.403593 0.199030
v -8.740001 0.403593 0.199030
v -8.800000 0.415746 0.172208
v -8.740001 0.415746 0.172208
v -8.800000 0.426119 0.144648
v -8.740001 0.426119 0.144648
v -8.800000 0.434667 0.116469
v -8.740001 0.434667 0.116469
v -8.800000 0.441353 0.087791
v -8.740001 0.441353 0.087791
v -8.800000 0.446150 0.058737
v -8.740001 0.446150 0.058737
v -8.800000 0.449037 0.029431
v -8.740001 0.449037 0.029431
v -8.850000 0.220000 0.000000
v -8.690001 0.220000 -0.000000
v -8.850000 0.218941 -0.021564
v -8.690001 0.218941 -0.021564
v -8.850000 0.215773 -0.042920
v -8.690001 0.215773 -0.042920
v -8.850000 0.210527 -0.063863
v -8.690001 0.210527 -0.063863
v -8.850000 0.203253 -0.084190
v -8.690001 0.203253 -0.084190
v -8.850000 0.194023 -0.103707
v -8.690001 0.194023 -0.103707
v -8.850000 0.182923 -0.122225
v -8.690001 0.182923 -0.122225
v -8.850000 0.170062 -0.139567
v -8.690001 0.170062 -0.139567
v -8.850000 0.155563 -0.155563
v -8.690001 0.155563 -0.155563
v -8.850000 0.139567 -0.170062
v -8.690001 0.139567 -0.170062
v -8.850000 0.122225 -0.182923
v -8.690001 0.122225 -0.182923
v -8.850000 0.103707 -0.194023
v -8.690001 0.103707 -0.194023
v -8.850000 0.084190 -0.203253
v -8.690001 0.084190 -0.203253
v -8.850000 0.063863 -0.210527
v -8.690001 0.063863 -0.210527
v -8.850000 0.042920 -0.215773
v -8.690001 0.042920 -0.215773
v -8.850000 0.021564 -0.218941
v -8.690001 0.021564 -0.218941
v -8.850000 0.000000 -0.220000
v -8.690001 0.000000 -0.220000
v -8.850000 -0.021564 -0.218941
v -8.690001 -0.021564 -0.218941
v -8.850000 -0.042920 -0.215773
v -8.690001 -0.042920 -0.215773
v -8.850000 -0.063863 -0.210527
v -8.690001 -0.063863 -0.210527
v -8.850000 -0.084190 -0.203253
v -8.690001 -0.084190 -0.203253
v -8.850000 -0.103707 -0.194023
v -8.690001 -0.103707 -0.194023
v -8.850000 -0.122225 -0.182923
v -8.690001 -0.122225 -0.182923
v -8.850000 -0.139567 -0.170062
v -8.690001 -0.139567 -0.170062
v -8.850000 -0.155563 -0.155563
v -8.690001 -0.155563 -0.155563
v -8.850000 -0.170062 -0.139567
v -8.690001 -0.170062 -0.139567
v -8.850000 -0.182923 -0.122225
v -8.690001 -0.182923 -0.122225
v -8.850000 -0.194023 -0.103707
v -8.690001 -0.194023 -0.103707
v -8.850000 -0.203253 -0.084190
v -8.690001 -0.203253 -0.084190
v -8.850000 -0.210527 -0.063863
v -8.690001 -0.210527 -0.063863
v -8.850000 -0.215773 -0.042920
v -8.690001 -0.215773 -0.042920
v -8.850000 -0.218941 -0.021564
v -8.690001 -0.218941 -0.021564
v -8.850000 -0.220000 0.000000
v -8.690001 -0.220000 -0.000000
v -8.850000 -0.218941 0.021564
v -8.690001 -0.218941 0.021564
v -8.850000 -0.215773 0.042920
v -8.690001 -0.215773 0.042920
v -8.850000 -0.210527 0.063863
v -8.690001 -0.210527 0.063863
v -8.850000 -0.203253 0.084190
v -8.690001 -0.203253 0.084190
v -8.850000 -0.194023 0.103707
v -8.690001 -0.194023 0.103707
v -8.850000 -0.182923 0.122225
v -8.690001 -0.182923 0.122225
v -8.850000 -0.170062 0.139567
v -8.690001 -0.170062 0.139567
v -8.850000 -0.155563 0.155563
v -8.690001 -0.155563 0.155563
v -8.850000 -0.139567 0.170062
v -8.690001 -0.139567 0.170062
v -8.850000 -0.122225 0.182923
v -8.690001 -0.122225 0.182923
v -8.850000 -0.103707 0.194023
v -8.690001 -0.103707 0.194023
v -8.850000 -0.084190 0.203253
v -8.690001 -0.084190 0.203253
v -8.850000 -0.063863 0.210527
v -8.690001 -0.063863 0.210527
v -8.850000 -0.042920 0.215773
v -8.690001 -0.042920 0.215773
v -8.850000 -0.021564 0.218941
v -8.690001 -0.021564 0.218941
v -8.850000 0.000000 0.220000
v -8.690001 0.000000 0.220000
v -8.850000 0.021564 0.218941
v -8.690001 0.021564 0.218941
v -8.850000 0.042920 0.215773
v -8.690001 0.042920 0.215773
v -8.850000 0.063863 0.210527
v -8.690001 0.063863 0.210527
v -8.850000 0.084190 0.203253
v -8.690001 0.084190 0.203253
v -8.850000 0.103707 0.194023
v -8.690001 0.103707 0.194023
v -8.850000 0.122225 0.182923
v -8.690001 0.122225 0.182923
v -8.850000 0.139567 0.170062
v -8.690001 0.139567 0.170062
v -8.850000 0.155563 0.155563
v -8.690001 0.155563 0.155563
v -8.850000 0.170062 0.139567
v -8.690001 0.170062 0.139567
v -8.850000 0.182923 0.122225
v -8.690001 0.182923 0.122225
v -8.850000 0.194023 0.103707
v -8.690001 0.194023 0.103707
v -8.850000 0.203253 0.084190
v -8.690001 0.203253 0.084190
v -8.850000 0.210527 0.063863
v -8.690001 0.210527 0.063863
v -8.850000 0.215773 0.042920
v -8.690001 0.215773 0.042920
v -8.850000 0.218941 0.021564
v -8.690001 0.218941 0.021564
vn -0.0000 0.9995 -0.0327
vn -0.0000 0.9952 -0.0980
vn -0.0000 0.9866 -0.1629
vn -0.0000 0.9739 -0.2271
vn -0.0000 0.9569 -0.2903
vn -0.0000 0.9359 -0.3523
vn -0.0000 0.9109 -0.4127
vn -0.0000 0.8819 -0.4714
vn -0.0000 0.8492 -0.5281
vn -0.0000 0.8128 -0.5825
vn -0.0000 0.7730 -0.6344
vn -0.0000 0.7299 -0.6836
vn -0.0000 0.6836 -0.7299
vn -0.0000 0.6344 -0.7730
vn -0.0000 0.5825 -0.8128
vn -0.0000 0.5281 -0.8492
vn -0.0000 0.4714 -0.8819
vn -0.0000 0.4127 -0.9109
vn -0.0000 0.3523 -0.9359
vn -0.0000 0.2903 -0.9569
vn -0.0000 0.2271 -0.9739
vn -0.0000 0.1629 -0.9866
vn -0.0000 0.0980 -0.9952
vn -0.0000 0.0327 -0.9995
vn -0.0000 -0.0327 -0.9995
vn -0.0000 -0.0980 -0.9952
vn -0.0000 -0.1629 -0.9866
vn -0.0000 -0.2271 -0.9739
vn -0.0000 -0.2903 -0.9569
vn -0.0000 -0.3522 -0.9359
vn -0.0000 -0.4127 -0.9109
vn -0.0000 -0.4714 -0.8819
vn -0.0000 -0.5281 -0.8492
vn -0.0000 -0.5825 -0.8128
vn -0.0000 -0.6344 -0.7730
vn -0.0000 -0.6836 -0.7299
vn -0.0000 -0.7299 -0.6836
vn -0.0000 -0.7730 -0.6344
vn -0.0000 -0.8128 -0.5825
vn -0.0000 -0.8492 -0.5281
vn -0.0000 -0.8819 -0.4714
vn -0.0000 -0.9109 -0.4127
vn -0.0000 -0.9359 -0.3523
vn -0.0000 -0.9569 -0.2903
vn -0.0000 -0.9739 -0.2271
vn -0.0000 -0.9866 -0.1629
vn -0.0000 -0.9952 -0.0980
vn -0.0000 -0.9995 -0.0327
vn -0.0000 -0.9995 0.0327
vn -0.0000 -0.9952 0.0980
vn -0.0000 -0.9866 0.1629
vn -0.0000 -0.9739 0.2271
vn -0.0000 -0.9569 0.2903
vn -0.0000 -0.9359 0.3523
vn -0.0000 -0.9109 0.4127
vn -0.0000 -0.8819 0.4714
vn -0.0000 -0.8492 0.5281
vn -0.0000 -0.8128 0.5825
vn -0.0000 -0.7730 0.6344
vn -0.0000 -0.7299 0.6836
vn -0.0000 -0.6836 0.7299
vn -0.0000 -0.6344 0.7730
vn -0.0000 -0.5825 0.8128
vn -0.0000 -0.5281 0.8492
vn -0.0000 -0.4714 0.8819
vn -0.0000 -0.4127 0.9109
vn -0.0000 -0.3523 0.9359
vn -0.0000 -0.2903 0.9569
vn -0.0000 -0.2271 0.9739
vn -0.0000 -0.1629 0.9866
vn -0.0000 -0.0980 0.9952
vn -0.0000 -0.0327 0.9995
vn -0.0000 0.0327 0.9995
vn -0.0000 0.0980 0.9952
vn -0.0000 0.1629 0.9866
vn -0.0000 0.2271 0.9739
vn -0.0000 0.2903 0.9569
vn -0.0000 0.3522 0.9359
vn -0.0000 0.4127 0.9109
vn -0.0000 0.4714 0.8819
vn -0.0000 0.5281 0.8492
vn -0.0000 0.5825 0.8128
vn -0.0000 0.6344 0.7730
vn -0.0000 0.6836 0.7299
vn -0.0000 0.7299 0.6836
vn -0.0000 0.7730 0.6344
vn -0.0000 0.8128 0.5825
vn -0.0000 0.8492 0.5281
vn -0.0000 0.8819 0.4714
vn -0.0000 0.9109 0.4127
vn -0.0000 0.9359 0.3523
vn -0.0000 0.9569 0.2903
vn -0.0000 0.9739 0.2271
vn -0.0000 0.9866 0.1629
vn 1.0000 -0.0000 -0.0000
vn -0.0000 0.9952 0.0980
vn -0.0000 0.9995 0.0327
vn -1.0000 -0.0000 -0.0000
vn -0.0000 0.9988 -0.0491
vn -0.0000 0.9892 -0.1467
vn -0.0000 0.9700 -0.2430
vn -0.0000 0.9415 -0.3369
vn -0.0000 0.9040 -0.4276
vn -0.0000 0.8577 -0.5141
vn -0.0000 0.8032 -0.5957
vn -0.0000 0.7410 -0.6716
vn -0.0000 0.6716 -0.7410
vn -0.0000 0.5957 -0.8032
vn -0.0000 0.5141 -0.8577
vn -0.0000 0.4276 -0.9040
vn -0.0000 0.3369 -0.9415
vn -0.0000 0.2430 -0.9700
vn -0.0000 0.1467 -0.9892
vn -0.0000 0.0491 -0.9988
vn -0.0000 -0.0491 -0.9988
vn -0.0000 -0.1467 -0.9892
vn -0.0000 -0.2430 -0.9700
vn -0.0000 -0.3369 -0.9415
vn -0.0000 -0.4276 -0.9040
vn -0.0000 -0.5141 -0.8577
vn -0.0000 -0.5957 -0.8032
vn -0.0000 -0.6716 -0.7410
vn -0.0000 -0.7410 -0.6716
vn -0.0000 -0.8032 -0.5957
vn -0.0000 -0.8577 -0.5141
vn -0.0000 -0.9040 -0.4276
vn -0.0000 -0.9415 -0.3369
vn -0.0000 -0.9700 -0.2430
vn -0.0000 -0.9892 -0.1467
vn -0.0000 -0.9988 -0.0491
vn -0.0000 -0.9988 0.0491
vn -0.0000 -0.9892 0.1467
vn -0.0000 -0.9700 0.2430
vn -0.0000 -0.9415 0.3369
vn -0.0000 -0.9040 0.4276
vn -0.0000 -0.8577 0.5141
vn -0.0000 -0.8032 0.5957
vn -0.0000 -0.7410 0.6716
vn -0.0000 -0.6716 0.7410
vn -0.0000 -0.5957 0.8032
vn -0.0000 -0.5141 0.8577
vn -0.0000 -0.4276 0.9040
vn -0.0000 -0.3369 0.9415
vn -0.0000 -0.2430 0.9700
vn -0.0000 -0.1467 0.9892
vn -0.0000 -0.0491 0.9988
vn -0.0000 0.0491 0.9988
vn -0.0000 0.1467 0.9892
vn -0.0000 0.2430 0.9700
vn -0.0000 0.3369 0.9415
vn -0.0000 0.4276 0.9040
vn -0.0000 0.5141 0.8577
vn -0.0000 0.5957 0.8032
vn -0.0000 0.6716 0.7410
vn -0.0000 0.7410 0.6716
vn -0.0000 0.8032 0.5957
vn -0.0000 0.8577 0.5141
vn -0.0000 0.9040 0.4276
vn -0.0000 0.9415 0.3369
vn -0.0000 0.9700 0.2430
vn -0.0000 0.9892 0.1467
vn -0.0000 0.9988 0.0491
vn -0.0000 0.3522 -0.9359
vn -0.0000 -0.3523 -0.9359
vn -0.0000 -0.3522 0.9359
vn -0.0000 0.3523 0.9359
s 0
usemtl pipe_steel
f 2//1 3//1 1//1
f 4//2 5//2 3//2
f 6//3 7//3 5//3
f 8//4 9//4 7//4
f 10//5 11//5 9//5
f 12//6 13//6 11//6
f 14//7 15//7 13//7
f 16//8 17//8 15//8
f 18//9 19//9 17//9
f 20//10 21//10 19//10
f 22//11 23//11 21//11
f 24//12 25//12 23//12
f 26//13 27//13 25//13
f 28//14 29//14 27//14
f 30//15 31//15 29//15
f 32//16 33//16 31//16
f 34//17 35//17 33//17
f 36//18 37//18 35//18
f 38//19 39//19 37//19
f 40//20 41//20 39//20
f 42//21 43//21 41//21
f 44//22 45//22 43//22
f 46//23 47//23 45//23
f 48//24 49//24 47//24
f 50//25 51//25 49//25
f 52//26 53//26 51//26
f 54//27 55//27 53//27
f 56//28 57//28 55//28
f 58//29 59//29 57//29
f 60//30 61//30 59//30
f 62//31 63//31 61//31
f 64//32 65//32 63//32
f 66//33 67//33 65//33
f 68//34 69//34 67//34
f 70//35 71//35 69//35
f 72//36 73//36 71//36
f 74//37 75//37 73//37
f 76//38 77//38 75//38
f 78//39 79//39 77//39
f 80//40 81//40 79//40
f 82//41 83//41 81//41
f 84//42 85//42 83//42
f 86//43 87//43 85//43
f 88//44 89//44 87//44
f 90//45 91//45 89//45
f 92//46 93//46 91//46
f 94//47 95//47 93//47
f 96//48 97//48 95//48
f 98//49 99//49 97//49
f 100//50 101//50 99//50
f 102//51 103//51 101//51
f 104//52 105//52 103//52
f 106//53 107//53 105//53
f 108//54 109//54 107//54
f 110//55 111//55 109//55
f 112//56 113//56 111//56
f 114//57 115//57 113//57
f 116//58 117//58 115//58
f 118//59 119//59 117//59
f 120//60 121//60 119//60
f 122//61 123//61 121//61
f 124//62 125//62 123//62
f 126//63 127//63 125//63
f 128//64 129//64 127//64
f 130//65 131//65 129//65
f 132//66 133//66 131//66
f 134//67 135//67 133//67
f 136//68 137//68 135//68
f 138//69 139//69 137//69
f 140//70 141//70 139//70
f 142//71 143//71 141//71
f 144//72 145//72 143//72
f 146//73 147//73 145//73
f 148//74 149//74 147//74
f 150//75 151//75 149//75
f 152//76 153//76 151//76
f 154//77 155//77 153//77
f 156//78 157//78 155//78
f 158//79 159//79 157//79
f 160//80 161//80 159//80
f 162//81 163//81 161//81
f 164//82 165//82 163//82
f 166//83 167//83 165//83
f 168//84 169//84 167//84
f 170//85 171//85 169//85
f 172//86 173//86 171//86
f 174//87 175//87 173//87
f 176//88 177//88 175//88
f 178//89 179//89 177//89
f 180//90 181//90 179//90
f 182//91 183//91 181//91
f 184//92 185//92 183//92
f 186//93 187//93 185//93
f 188//94 189//94 187//94
f 134//95 70//95 6//95
f 190//96 191//96 189//96
f 192//97 1//97 191//97
f 63//98 127//98 191//98
f 2//1 4//1 3//1
f 4//2 6//2 5//2
f 6//3 8//3 7//3
f 8//4 10//4 9//4
f 10//5 12//5 11//5
f 12//6 14//6 13//6
f 14//7 16//7 15//7
f 16//8 18//8 17//8
f 18//9 20//9 19//9
f 20//10 22//10 21//10
f 22//11 24//11 23//11
f 24//12 26//12 25//12
f 26//13 28//13 27//13
f 28//14 30//14 29//14
f 30//15 32//15 31//15
f 32//16 34//16 33//16
f 34//17 36//17 35//17
f 36//18 38//18 37//18
f 38//163 40//163 39//163
f 40//20 42//20 41//20
f 42//21 44//21 43//21
f 44//22 46//22 45//22
f 46//23 48//23 47//23
f 48//24 50//24 49//24
f 50//25 52//25 51//25
f 52//26 54//26 53//26
f 54//27 56//27 55//27
f 56//28 58//28 57//28
f 58//29 60//29 59//29
f 60//164 62//164 61//164
f 62//31 64//31 63//31
f 64//32 66//32 65//32
f 66//33 68//33 67//33
f 68//34 70//34 69//34
f 70//35 72//35 71//35
f 72//36 74//36 73//36
f 74//37 76//37 75//37
f 76//38 78//38 77//38
f 78//39 80//39 79//39
f 80//40 82//40 81//40
f 82//41 84//41 83//41
f 84//42 86//42 85//42
f 86//43 88//43 87//43
f 88//44 90//44 89//44
f 90//45 92//45 91//45
f 92//46 94//46 93//46
f 94//47 96//47 95//47
f 96//48 98//48 97//48
f 98//49 100//49 99//49
f 100//50 102//50 101//50
f 102//51 104//51 103//51
f 104//52 106//52 105//52
f 106//53 108//53 107//53
f 108//54 110//54 109//54
f 110//55 112//55 111//55
f 112//56 114//56 113//56
f 114//57 116//57 115//57
f 116//58 118//58 117//58
f 118//59 120//59 119//59
f 120//60 122//60 121//60
f 122//61 124//61 123//61
f 124//62 126//62 125//62
f 126//63 128//63 127//63
f 128//64 130//64 129//64
f 130//65 132//65 131//65
f 132//66 134//66 133//66
f 134//165 136//165 135//165
f 136//68 138//68 137//68
f 138//69 140//69 139//69
f 140//70 142//70 141//70
f 142//71 144//71 143//71
f 144//72 146//72 145//72
f 146//73 148//73 147//73
f 148//74 150//74 149//74
f 150//75 152//75 151//75
f 152//76 154//76 153//76
f 154//77 156//77 155//77
f 156//166 158//166 157//166
f 158//79 160//79 159//79
f 160//80 162//80 161//80
f 162//81 164//81 163//81
f 164//82 166//82 165//82
f 166//83 168//83 167//83
f 168//84 170//84 169//84
f 170//85 172//85 171//85
f 172//86 174//86 173//86
f 174//87 176//87 175//87
f 176//88 178//88 177//88
f 178//89 180//89 179//89
f 180//90 182//90 181//90
f 182//91 184//91 183//91
f 184//92 186//92 185//92
f 186//93 188//93 187//93
f 188//94 190//94 189//94
f 6//95 4//95 2//95
f 2//95 192//95 190//95
f 190//95 188//95 186//95
f 186//95 184//95 182//95
f 182//95 180//95 178//95
f 178//95 176//95 174//95
f 174//95 172//95 170//95
f 170//95 168//95 166//95
f 166//95 164//95 162//95
f 162//95 160//95 158//95
f 158//95 156//95 154//95
f 154//95 152//95 150//95
f 150//95 148//95 146//95
f 146//95 144//95 142//95
f 142//95 140//95 138//95
f 138//95 136//95 134//95
f 134//95 132//95 130//95
f 130//95 128//95 126//95
f 126//95 124//95 122//95
f 122//95 120//95 118//95
f 118//95 116//95 114//95
f 114//95 112//95 110//95
f 110//95 108//95 106//95
f 106//95 104//95 102//95
f 102//95 100//95 98//95
f 98//95 96//95 94//95
f 94//95 92//95 90//95
f 90//95 88//95 86//95
f 86//95 84//95 82//95
f 82//95 80//95 78//95
f 78//95 76//95 74//95
f 74//95 72//95 70//95
f 70//95 68//95 66//95
f 66//95 64//95 62//95
f 62//95 60//95 58//95
f 58//95 56//95 54//95
f 54//95 52//95 50//95
f 50//95 48//95 46//95
f 46//95 44//95 42//95
f 42//95 40//95 38//95
f 38//95 36//95 34//95
f 34//95 32//95 30//95
f 30//95 28//95 26//95
f 26//95 24//95 22//95
f 22//95 20//95 18//95
f 18//95 16//95 14//95
f 14//95 12//95 10//95
f 10//95 8//95 6//95
f 6//95 2//95 190//95
f 190//95 186//95 182//95
f 182//95 178//95 174//95
f 174//95 170//95 166//95
f 166//95 162//95 158//95
f 158//95 154//95 150//95
f 150//95 146//95 142//95
f 142//95 138//95 134//95
f 134//95 130//95 126//95
f 126//95 122//95 118//95
f 118//95 114//95 110//95
f 110//95 106//95 102//95
f 102//95 98//95 94//95
f 94//95 90//95 86//95
f 86//95 82//95 78//95
f 78//95 74//95 70//95
f 70//95 66//95 62//95
f 62//95 58//95 54//95
f 54//95 50//95 46//95
f 46//95 42//95 38//95
f 38//95 34//95 30//95
f 30//95 26//95 22//95
f 22//95 18//95 14//95
f 14//95 10//95 6//95
f 6//95 190//95 182//95
f 182//95 174//95 166//95
f 166//95 158//95 150//95
f 150//95 142//95 134//95
f 134//95 126//95 118//95
f 118//95 110//95 102//95
f 102//95 94//95 86//95
f 86//95 78//95 70//95
f 70//95 62//95 54//95
f 54//95 46//95 38//95
f 38//95 30//95 22//95
f 22//95 14//95 6//95
f 6//95 182//95 166//95
f 166//95 150//95 134//95
f 134//95 118//95 102//95
f 102//95 86//95 70//95
f 70//95 54//95 38//95
f 38//95 22//95 6//95
f 6//95 166//95 134//95
f 134//95 102//95 70//95
f 70//95 38//95 6//95
f 190//96 192//96 191//96
f 192//97 2//97 1//97
f 191//98 1//98 3//98
f 3//98 5//98 7//98
f 7//98 9//98 11//98
f 11//98 13//98 15//98
f 15//98 17//98 19//98
f 19//98 21//98 23//98
f 23//98 25//98 27//98
f 27//98 29//98 31//98
f 31//98 33//98 35//98
f 35//98 37//98 39//98
f 39//98 41//98 43//98
f 43//98 45//98 47//98
f 47//98 49//98 51//98
f 51//98 53//98 55//98
f 55//98 57//98 59//98
f 59//98 61//98 63//98
f 63//98 65//98 67//98
f 67//98 69//98 71//98
f 71//98 73//98 75//98
f 75//98 77//98 79//98
f 79//98 81//98 83//98
f 83//98 85//98 87//98
f 87//98 89//98 91//98
f 91//98 93//98 95//98
f 95//98 97//98 99//98
f 99//98 101//98 103//98
f 103//98 105//98 107//98
f 107//98 109//98 111//98
f 111//98 113//98 115//98
f 115//98 117//98 119//98
f 119//98 121//98 123//98
f 123//98 125//98 127//98
f 127//98 129//98 131//98
f 131//98 133//98 135//98
f 135//98 137//98 139//98
f 139//98 141//98 143//98
f 143//98 145//98 147//98
f 147//98 149//98 151//98
f 151//98 153//98 155//98
f 155//98 157//98 159//98
f 159//98 161//98 163//98
f 163//98 165//98 167//98
f 167//98 169//98 171//98
f 171//98 173//98 175//98
f 175//98 177//98 179//98
f 179//98 181//98 183//98
f 183//98 185//98 187//98
f 187//98 189//98 191//98
f 191//98 3//98 7//98
f 7//98 11//98 15//98
f 15//98 19//98 23//98
f 23//98 27//98 31//98
f 31//98 35//98 39//98
f 39//98 43//98 47//98
f 47//98 51//98 55//98
f 55//98 59//98 63//98
f 63//98 67//98 71//98
f 71//98 75//98 79//98
f 79//98 83//98 87//98
f 87//98 91//98 95//98
f 95//98 99//98 103//98
f 103//98 107//98 111//98
f 111//98 115//98 119//98
f 119//98 123//98 127//98
f 127//98 131//98 135//98
f 135//98 139//98 143//98
f 143//98 147//98 151//98
f 151//98 155//98 159//98
f 159//98 163//98 167//98
f 167//98 171//98 175//98
f 175//98 179//98 183//98
f 183//98 187//98 191//98
f 191//98 7//98 15//98
f 15//98 23//98 31//98
f 31//98 39//98 47//98
f 47//98 55//98 63//98
f 63//98 71//98 79//98
f 79//98 87//98 95//98
f 95//98 103//98 111//98
f 111//98 119//98 127//98
f 127//98 135//98 143//98
f 143//98 151//98 159//98
f 159//98 167//98 175//98
f 175//98 183//98 191//98
f 191//98 15//98 31//98
f 31//98 47//98 63//98
f 63//98 79//98 95//98
f 95//98 111//98 127//98
f 127//98 143//98 159//98
f 159//98 175//98 191//98
f 191//98 31//98 63//98
f 63//98 95//98 127//98
f 127//98 159//98 191//98
usemtl gear_paint
f 194//99 195//99 193//99
f 196//100 197//100 195//100
f 198//101 199//101 197//101
f 200//102 201//102 199//102
f 202//103 203//103 201//103
f 204//104 205//104 203//104
f 206//105 207//105 205//105
f 208//106 209//106 207//106
f 210//107 211//107 209//107
f 212//108 213//108 211//108
f 214//109 215//109 213//109
f 216//110 217//110 215//110
f 218//111 219//111 217//111
f 220//112 221//112 219//112
f 222//113 223//113 221//113
f 224//114 225//114 223//114
f 226//115 227//115 225//115
f 228//116 229//116 227//116
f 230//117 231//117 229//117
f 232//118 233//118 231//118
f 234//119 235//119 233//119
f 236//120 237//120 235//120
f 238//121 239//121 237//121
f 240//122 241//122 239//122
f 242//123 243//123 241//123
f 244//124 245//124 243//124
f 246//125 247//125 245//125
f 248//126 249//126 247//126
f 250//127 251//127 249//127
f 252//128 253//128 251//128
f 254//129 255//129 253//129
f 256//130 257//130 255//130
f 258//131 259//131 257//131
f 260//132 261//132 259//132
f 262//133 263//133 261//133
f 264//134 265//134 263//134
f 266//135 267//135 265//135
f 268//136 269//136 267//136
f 270//137 271//137 269//137
f 272//138 273//138 271//138
f 274//139 275//139 273//139
f 276//140 277//140 275//140
f 278//141 279//141 277//141
f 280//142 281//142 279//142
f 282//143 283//143 281//143
f 284//144 285//144 283//144
f 286//145 287//145 285//145
f 288//146 289//146 287//146
f 290//147 291//147 289//147
f 292//148 293//148 291//148
f 294//149 295//149 293//149
f 296//150 297//150 295//150
f 298//151 299//151 297//151
f 300//152 301//152 299//152
f 302//153 303//153 301//153
f 304//154 305//154 303//154
f 306//155 307//155 305//155
f 308//156 309//156 307//156
f 310//157 311//157 309//157
f 312//158 313//158 311//158
f 314//159 315//159 313//159
f 316//160 317//160 315//160
f 262//95 230//95 198//95
f 318//161 319//161 317//161
f 320//162 193//162 319//162
f 255//98 287//98 319//98
f 194//99 196//99 195//99
f 196//100 198//100 197//100
f 198//101 200//101 199//101
f 200//102 202//102 201//102
f 202//103 204//103 203//103
f 204//104 206//104 205//104
f 206//105 208//105 207//105
f 208//106 210//106 209//106
f 210//107 212//107 211//107
f 212//108 214//108 213//108
f 214//109 216//109 215//109
f 216//110 218//110 217//110
f 218//111 220//111 219//111
f 220//112 222//112 221//112
f 222//113 224//113 223//113
f 224//114 226//114 225//114
f 226//115 228//115 227//115
f 228//116 230//116 229//116
f 230//117 232//117 231//117
f 232//118 234//118 233//118
f 234//119 236//119 235//119
f 236//120 238//120 237//120
f 238//121 240//121 239//121
f 240//122 242//122 241//122
f 242//123 244//123 243//123
f 244//124 246//124 245//124
f 246//125 248//125 247//125
f 248//126 250//126 249//126
f 250//127 252//127 251//127
f 252//128 254//128 253//128
f 254//129 256//129 255//129
f 256//130 258//130 257//130
f 258//131 260//131 259//131
f 260//132 262//132 261//132
f 262//133 264//133 263//133
f 264//134 266//134 265//134
f 266//135 268//135 267//135
f 268//136 270//136 269//136
f 270//137 272//137 271//137
f 272//138 274//138 273//138
f 274//139 276//139 275//139
f 276//140 278//140 277//140
f 278//141 280//141 279//141
f 280//142 282//142 281//142
f 282//143 284//143 283//143
f 284//144 286//144 285//144
f 286//145 288//145 287//145
f 288//146 290//146 289//146
f 290//147 292//147 291//147
f 292//148 294//148 293//148
f 294//149 296//149 295//149
f 296//150 298//150 297//150
f 298//151 300//151 299//151
f 300//152 302//152 301//152
f 302//153 304//153 303//153
f 304//154 306//154 305//154
f 306//155 308//155 307//155
f 308//156 310//156 309//156
f 310//157 312//157 311//157
f 312//158 314//158 313//158
f 314//159 316//159 315//159
f 316//160 318//160 317//160
f 198//95 196//95 194//95
f 194//95 320//95 318//95
f 318//95 316//95 314//95
f 314//95 312//95 310//95
f 310//95 308//95 306//95
f 306//95 304//95 302//95
f 302//95 300//95 298//95
f 298//95 296//95 294//95
f 294//95 292//95 290//95
f 290//95 288//95 286//95
f 286//95 284//95 282//95
f 282//95 280//95 278//95
f 278//95 276//95 274//95
f 274//95 272//95 270//95
f 270//95 268//95 266//95
f 266//95 264//95 262//95
f 262//95 260//95 258//95
f 258//95 256//95 254//95
f 254//95 252//95 250//95
f 250//95 248//95 246//95
f 246//95 244//95 242//95
f 242//95 240//95 238//95
f 238//95 236//95 234//95
f 234//95 232//95 230//95
f 230//95 228//95 226//95
f 226//95 224//95 222//95
f 222//95 220//95 218//95
f 218//95 216//95 214//95
f 214//95 212//95 210//95
f 210//95 208//95 206//95
f 206//95 204//95 202//95
f 202//95 200//95 198//95
f 198//95 194//95 318//95
f 318//95 314//95 310//95
f 310//95 306//95 302//95
f 302//95 298//95 294//95
f 294//95 290//95 286//95
f 286//95 282//95 278//95
f 278//95 274//95 270//95
f 270//95 266//95 262//95
f 262//95 258//95 254//95
f 254//95 250//95 246//95
f 246//95 242//95 238//95
f 238//95 234//95 230//95
f 230//95 226//95 222//95
f 222//95 218//95 214//95
f 214//95 210//95 206//95
f 206//95 202//95 198//95
f 198//95 318//95 310//95
f 310//95 302//95 294//95
f 294//95 286//95 278//95
f 278//95 270//95 262//95
f 262//95 254//95 246//95
f 246//95 238//95 230//95
f 230//95 222//95 214//95
f 214//95 206//95 198//95
f 198//95 310//95 294//95
f 294//95 278//95 262//95
f 262//95 246//95 230//95
f 230//95 214//95 198//95
f 198//95 294//95 262//95
f 318//161 320//161 319//161
f 320//162 194//162 193//162
f 319//98 193//98 195//98
f 195//98 197//98 199//98
f 199//98 201//98 203//98
f 203//98 205//98 207//98
f 207//98 209//98 211//98
f 211//98 213//98 215//98
f 215//98 217//98 219//98
f 219//98 221//98 223//98
f 223//98 225//98 227//98
f 227//98 229//98 231//98
f 231//98 233//98 235//98
f 235//98 237//98 239//98
f 239//98 241//98 243//98
f 243//98 245//98 247//98
f 247//98 249//98 251//98
f 251//98 253//98 255//98
f 255//98 257//98 259//98
f 259//98 261//98 263//98
f 263//98 265//98 267//98
f 267//98 269//98 271//98
f 271//98 273//98 275//98
f 275//98 277//98 279//98
f 279//98 281//98 283//98
f 283//98 285//98 287//98
f 287//98 289//98 291//98
f 291//98 293//98 295//98
f 295//98 297//98 299//98
f 299//98 301//98 303//98
f 303//98 305//98 307//98
f 307//98 309//98 311//98
f 311//98 313//98 315//98
f 315//98 317//98 319//98
f 319//98 195//98 199//98
f 199//98 203//98 207//98
f 207//98 211//98 215//98
f 215//98 219//98 223//98
f 223//98 227//98 231//98
f 231//98 235//98 239//98
f 239//98 243//98 247//98
f 247//98 251//98 255//98
f 255//98 259//98 263//98
f 263//98 267//98 271//98
f 271//98 275//98 279//98
f 279//98 283//98 287//98
f 287//98 291//98 295//98
f 295//98 299//98 303//98
f 303//98 307//98 311//98
f 311//98 315//98 319//98
f 319//98 199//98 207//98
f 207//98 215//98 223//98
f 223//98 231//98 239//98
f 239//98 247//98 255//98
f 255//98 263//98 271//98
f 271//98 279//98 287//98
f 287//98 295//98 303//98
f 303//98 311//98 319//98
f 319//98 207//98 223//98
f 223//98 239//98 255//98
f 255//98 271//98 287//98
f 287//98 303//98 319//98
f 319//98 223//98 255//98
