# Blender 5.2.2 LTS
# www.blender.org
mtllib brake_caliper_ok.mtl
o brake_caliper_ok
v -8.920000 -0.140000 0.520000
v -8.920000 -0.140000 0.600000
v -8.920000 0.140000 0.520000
v -8.920000 0.140000 0.600000
v -8.620001 -0.140000 0.520000
v -8.620001 -0.140000 0.600000
v -8.620001 0.140000 0.520000
v -8.620001 0.140000 0.600000
v -8.700000 -0.140000 0.280000
v -8.700000 -0.140000 0.530000
v -8.700000 0.140000 0.280000
v -8.700000 0.140000 0.530000
v -8.620000 -0.140000 0.280000
v -8.620000 -0.140000 0.530000
v -8.620000 0.140000 0.280000
v -8.620000 0.140000 0.530000
v -8.920000 -0.140000 0.280000
v -8.920000 -0.140000 0.530000
v -8.920000 0.140000 0.280000
v -8.920000 0.140000 0.530000
v -8.840000 -0.140000 0.280000
v -8.840000 -0.140000 0.530000
v -8.840000 0.140000 0.280000
v -8.840000 0.140000 0.530000
v -8.920000 -0.050000 0.600000
v -8.920000 -0.050000 0.870000
v -8.920000 0.050000 0.600000
v -8.920000 0.050000 0.870000
v -8.620001 -0.050000 0.600000
v -8.620001 -0.050000 0.870000
v -8.620001 0.050000 0.600000
v -8.620001 0.050000 0.870000
v -8.714000 -0.120000 0.300000
v -8.714000 -0.120000 0.500000
v -8.714000 0.120000 0.300000
v -8.714000 0.120000 0.500000
v -8.706000 -0.120000 0.300000
v -8.706000 -0.120000 0.500000
v -8.706000 0.120000 0.300000
v -8.706000 0.120000 0.500000
v -8.738999 -0.110000 0.310000
v -8.738999 -0.110000 0.490000
v -8.738999 0.110000 0.310000
v -8.738999 0.110000 0.490000
v -8.714000 -0.110000 0.310000
v -8.714000 -0.110000 0.490000
v -8.714000 0.110000 0.310000
v -8.714000 0.110000 0.490000
v -8.705999 -0.040000 0.360000
v -8.705999 -0.040000 0.440000
v -8.705999 0.040000 0.360000
v -8.705999 0.040000 0.440000
v -8.695000 -0.040000 0.360000
v -8.695000 -0.040000 0.440000
v -8.695000 0.040000 0.360000
v -8.695000 0.040000 0.440000
v -8.834000 -0.120000 0.300000
v -8.834000 -0.120000 0.500000
v -8.834000 0.120000 0.300000
v -8.834000 0.120000 0.500000
v -8.826000 -0.120000 0.300000
v -8.826000 -0.120000 0.500000
v -8.826000 0.120000 0.300000
v -8.826000 0.120000 0.500000
v -8.826000 -0.110000 0.310000
v -8.826000 -0.110000 0.490000
v -8.826000 0.110000 0.310000
v -8.826000 0.110000 0.490000
v -8.801001 -0.110000 0.310000
v -8.801001 -0.110000 0.490000
v -8.801001 0.110000 0.310000
v -8.801001 0.110000 0.490000
v -8.845000 -0.040000 0.360000
v -8.845000 -0.040000 0.440000
v -8.845000 0.040000 0.360000
v -8.845000 0.040000 0.440000
v -8.834001 -0.040000 0.360000
v -8.834001 -0.040000 0.440000
v -8.834001 0.040000 0.360000
v -8.834001 0.040000 0.440000
vn -1.0000 -0.0000 -0.0000
vn -0.0000 1.0000 -0.0000
vn 1.0000 -0.0000 -0.0000
vn -0.0000 -1.0000 -0.0000
vn -0.0000 -0.0000 -1.0000
vn -0.0000 -0.0000 1.0000
s 0
usemtl alarm_red
f 2//1 3//1 1//1
f 4//2 7//2 3//2
f 8//3 5//3 7//3
f 6//4 1//4 5//4
f 7//5 1//5 3//5
f 4//6 6//6 8//6
f 10//1 11//1 9//1
f 12//2 15//2 11//2
f 16//3 13//3 15//3
f 14//4 9//4 13//4
f 15//5 9//5 11//5
f 12//6 14//6 16//6
f 18//1 19//1 17//1
f 20//2 23//2 19//2
f 24//3 21//3 23//3
f 22//4 17//4 21//4
f 23//5 17//5 19//5
f 20//6 22//6 24//6
f 2//1 4//1 3//1
f 4//2 8//2 7//2
f 8//3 6//3 5//3
f 6//4 2//4 1//4
f 7//5 5//5 1//5
f 4//6 2//6 6//6
f 10//1 12//1 11//1
f 12//2 16//2 15//2
f 16//3 14//3 13//3
f 14//4 10//4 9//4
f 15//5 13//5 9//5
f 12//6 10//6 14//6
f 18//1 20//1 19//1
f 20//2 24//2 23//2
f 24//3 22//3 21//3
f 22//4 18//4 17//4
f 23//5 21//5 17//5
f 20//6 18//6 22//6
usemtl gear_paint
f 26//1 27//1 25//1
f 28//2 31//2 27//2
f 32//3 29//3 31//3
f 30//4 25//4 29//4
f 31//5 25//5 27//5
f 28//6 30//6 32//6
f 26//1 28//1 27//1
f 28//2 32//2 31//2
f 32//3 30//3 29//3
f 30//4 26//4 25//4
f 31//5 29//5 25//5
f 28//6 26//6 30//6
usemtl pipe_steel
f 34//1 35//1 33//1
f 36//2 39//2 35//2
f 40//3 37//3 39//3
f 38//4 33//4 37//4
f 39//5 33//5 35//5
f 36//6 38//6 40//6
f 50//1 51//1 49//1
f 52//2 55//2 51//2
f 56//3 53//3 55//3
f 54//4 49//4 53//4
f 55//5 49//5 51//5
f 52//6 54//6 56//6
f 58//1 59//1 57//1
f 60//2 63//2 59//2
f 64//3 61//3 63//3
f 62//4 57//4 61//4
f 63//5 57//5 59//5
f 60//6 62//6 64//6
f 74//1 75//1 73//1
f 76//2 79//2 75//2
f 80//3 77//3 79//3
f 78//4 73//4 77//4
f 79//5 73//5 75//5
f 76//6 78//6 80//6
f 34//1 36//1 35//1
f 36//2 40//2 39//2
f 40//3 38//3 37//3
f 38//4 34//4 33//4
f 39//5 37//5 33//5
f 36//6 34//6 38//6
f 50//1 52//1 51//1
f 52//2 56//2 55//2
f 56//3 54//3 53//3
f 54//4 50//4 49//4
f 55//5 53//5 49//5
f 52//6 50//6 54//6
f 58//1 60//1 59//1
f 60//2 64//2 63//2
f 64//3 62//3 61//3
f 62//4 58//4 57//4
f 63//5 61//5 57//5
f 60//6 58//6 62//6
f 74//1 76//1 75//1
f 76//2 80//2 79//2
f 80//3 78//3 77//3
f 78//4 74//4 73//4
f 79//5 77//5 73//5
f 76//6 74//6 78//6
usemtl rubber
f 42//1 43//1 41//1
f 44//2 47//2 43//2
f 48//3 45//3 47//3
f 46//4 41//4 45//4
f 47//5 41//5 43//5
f 44//6 46//6 48//6
f 66//1 67//1 65//1
f 68//2 71//2 67//2
f 72//3 69//3 71//3
f 70//4 65//4 69//4
f 71//5 65//5 67//5
f 68//6 70//6 72//6
f 42//1 44//1 43//1
f 44//2 48//2 47//2
f 48//3 46//3 45//3
f 46//4 42//4 41//4
f 47//5 45//5 41//5
f 44//6 42//6 46//6
f 66//1 68//1 67//1
f 68//2 72//2 71//2
f 72//3 70//3 69//3
f 70//4 66//4 65//4
f 71//5 69//5 65//5
f 68//6 66//6 70//6
