# Blender 5.2.2 LTS
# www.blender.org
mtllib brake_caliper_worn.mtl
o brake_caliper_worn
v -8.920000 -0.140000 0.520000
v -8.920000 -0.140000 0.600000
v -8.920000 0.140000 0.520000
v -8.920000 0.140000 0.600000
v -8.620001 -0.140000 0.520000
v -8.620001 -0.140000 0.600000
v -8.620001 0.140000 0.520000
v -8.620001 0.140000 0.600000
v -8.700000 -0.140000 0.280000
v -8.700000 -0.140000 0.530000
v -8.700000 0.140000 0.280000
v -8.700000 0.140000 0.530000
v -8.620000 -0.140000 0.280000
v -8.620000 -0.140000 0.530000
v -8.620000 0.140000 0.280000
v -8.620000 0.140000 0.530000
v -8.920000 -0.140000 0.280000
v -8.920000 -0.140000 0.530000
v -8.920000 0.140000 0.280000
v -8.920000 0.140000 0.530000
v -8.840000 -0.140000 0.280000
v -8.840000 -0.140000 0.530000
v -8.840000 0.140000 0.280000
v -8.840000 0.140000 0.530000
v -8.920000 -0.050000 0.600000
v -8.920000 -0.050000 0.870000
v -8.920000 0.050000 0.600000
v -8.920000 0.050000 0.870000
v -8.620001 -0.050000 0.600000
v -8.620001 -0.050000 0.870000
v -8.620001 0.050000 0.600000
v -8.620001 0.050000 0.870000
v -8.735000 -0.120000 0.300000
v -8.735000 -0.120000 0.500000
v -8.735000 0.120000 0.300000
v -8.735000 0.120000 0.500000
v -8.727000 -0.120000 0.300000
v -8.727000 -0.120000 0.500000
v -8.727000 0.120000 0.300000
v -8.727000 0.120000 0.500000
v -8.739000 -0.110000 0.310000
v -8.739000 -0.110000 0.490000
v -8.739000 0.110000 0.310000
v -8.739000 0.110000 0.490000
v -8.735001 -0.110000 0.310000
v -8.735001 -0.110000 0.490000
v -8.735001 0.110000 0.310000
v -8.735001 0.110000 0.490000
v -8.727000 -0.040000 0.360000
v -8.727000 -0.040000 0.440000
v -8.727000 0.040000 0.360000
v -8.727000 0.040000 0.440000
v -8.695001 -0.040000 0.360000
v -8.695001 -0.040000 0.440000
v -8.695001 0.040000 0.360000
v -8.695001 0.040000 0.440000
v -8.813000 -0.120000 0.300000
v -8.813000 -0.120000 0.500000
v -8.813000 0.120000 0.300000
v -8.813000 0.120000 0.500000
v -8.805000 -0.120000 0.300000
v -8.805000 -0.120000 0.500000
v -8.805000 0.120000 0.300000
v -8.805000 0.120000 0.500000
v -8.805000 -0.110000 0.310000
v -8.805000 -0.110000 0.490000
v -8.805000 0.110000 0.310000
v -8.805000 0.110000 0.490000
v -8.801001 -0.110000 0.310000
v -8.801001 -0.110000 0.490000
v -8.801001 0.110000 0.310000
v -8.801001 0.110000 0.490000
v -8.845000 -0.040000 0.360000
v -8.845000 -0.040000 0.440000
v -8.845000 0.040000 0.360000
v -8.845000 0.040000 0.440000
v -8.813001 -0.040000 0.360000
v -8.813001 -0.040000 0.440000
v -8.813001 0.040000 0.360000
v -8.813001 0.040000 0.440000
v -8.660000 0.160000 0.520000
v -8.660000 0.160000 0.580000
v -8.658694 0.159914 0.520000
v -8.658694 0.159914 0.580000
v -8.657412 0.159659 0.520000
v -8.657412 0.159659 0.580000
v -8.656173 0.159239 0.520000
v -8.656173 0.159239 0.580000
v -8.655000 0.158660 0.520000
v -8.655000 0.158660 0.580000
v -8.653913 0.157934 0.520000
v -8.653913 0.157934 0.580000
v -8.652928 0.157071 0.520000
v -8.652928 0.157071 0.580000
v -8.652066 0.156088 0.520000
v -8.652066 0.156088 0.580000
v -8.651340 0.155000 0.520000
v -8.651340 0.155000 0.580000
v -8.650761 0.153827 0.520000
v -8.650761 0.153827 0.580000
v -8.650341 0.152588 0.520000
v -8.650341 0.152588 0.580000
v -8.650085 0.151305 0.520000
v -8.650085 0.151305 0.580000
v -8.650000 0.150000 0.520000
v -8.650000 0.150000 0.580000
v -8.650085 0.148695 0.520000
v -8.650085 0.148695 0.580000
v -8.650341 0.147412 0.520000
v -8.650341 0.147412 0.580000
v -8.650761 0.146173 0.520000
v -8.650761 0.146173 0.580000
v -8.651340 0.145000 0.520000
v -8.651340 0.145000 0.580000
v -8.652066 0.143912 0.520000
v -8.652066 0.143912 0.580000
v -8.652928 0.142929 0.520000
v -8.652928 0.142929 0.580000
v -8.653913 0.142066 0.520000
v -8.653913 0.142066 0.580000
v -8.655000 0.141340 0.520000
v -8.655000 0.141340 0.580000
v -8.656173 0.140761 0.520000
v -8.656173 0.140761 0.580000
v -8.657412 0.140341 0.520000
v -8.657412 0.140341 0.580000
v -8.658694 0.140086 0.520000
v -8.658694 0.140086 0.580000
v -8.660000 0.140000 0.520000
v -8.660000 0.140000 0.580000
v -8.661305 0.140086 0.520000
v -8.661305 0.140086 0.580000
v -8.662588 0.140341 0.520000
v -8.662588 0.140341 0.580000
v -8.663827 0.140761 0.520000
v -8.663827 0.140761 0.580000
v -8.665000 0.141340 0.520000
v -8.665000 0.141340 0.580000
v -8.666087 0.142066 0.520000
v -8.666087 0.142066 0.580000
v -8.667071 0.142929 0.520000
v -8.667071 0.142929 0.580000
v -8.667933 0.143912 0.520000
v -8.667933 0.143912 0.580000
v -8.668660 0.145000 0.520000
v -8.668660 0.145000 0.580000
v -8.669239 0.146173 0.520000
v -8.669239 0.146173 0.580000
v -8.669659 0.147412 0.520000
v -8.669659 0.147412 0.580000
v -8.669914 0.148695 0.520000
v -8.669914 0.148695 0.580000
v -8.670000 0.150000 0.520000
v -8.670000 0.150000 0.580000
v -8.669914 0.151305 0.520000
v -8.669914 0.151305 0.580000
v -8.669659 0.152588 0.520000
v -8.669659 0.152588 0.580000
v -8.669239 0.153827 0.520000
v -8.669239 0.153827 0.580000
v -8.668660 0.155000 0.520000
v -8.668660 0.155000 0.580000
v -8.667933 0.156088 0.520000
v -8.667933 0.156088 0.580000
v -8.667071 0.157071 0.520000
v -8.667071 0.157071 0.580000
v -8.666087 0.157934 0.520000
v -8.666087 0.157934 0.580000
v -8.665000 0.158660 0.520000
v -8.665000 0.158660 0.580000
v -8.663827 0.159239 0.520000
v -8.663827 0.159239 0.580000
v -8.662588 0.159659 0.520000
v -8.662588 0.159659 0.580000
v -8.661305 0.159914 0.520000
v -8.661305 0.159914 0.580000
v -8.850000 0.103402 -1.134813
v -8.850000 0.103402 -1.131813
v -8.836717 0.103746 -1.134813
v -8.836717 0.103746 -1.131813
v -8.822943 0.104638 -1.134813
v -8.822943 0.104638 -1.131813
v -8.808402 0.105486 -1.134813
v -8.808402 0.105486 -1.131813
v -8.793179 0.105524 -1.134813
v -8.793179 0.105524 -1.131813
v -8.777725 0.104013 -1.134813
v -8.777725 0.104013 -1.131813
v -8.762755 0.100439 -1.134813
v -8.762755 0.100439 -1.131813
v -8.749042 0.094630 -1.134813
v -8.749042 0.094630 -1.131813
v -8.737194 0.086774 -1.134813
v -8.737194 0.086774 -1.131813
v -8.727490 0.077340 -1.134813
v -8.727490 0.077340 -1.131813
v -8.719809 0.066916 -1.134813
v -8.719809 0.066916 -1.131813
v -8.713695 0.056044 -1.134813
v -8.713695 0.056044 -1.131813
v -8.708529 0.045076 -1.134813
v -8.708529 0.045076 -1.131813
v -8.703755 0.034125 -1.134813
v -8.703755 0.034125 -1.131813
v -8.699080 0.023092 -1.134813
v -8.699080 0.023092 -1.131813
v -8.694588 0.011774 -1.134813
v -8.694588 0.011774 -1.131813
v -8.690738 0.000000 -1.134813
v -8.690738 0.000000 -1.131813
v -8.688229 -0.012256 -1.134813
v -8.688229 -0.012256 -1.131813
v -8.687792 -0.024819 -1.134813
v -8.687792 -0.024819 -1.131813
v -8.689977 -0.037340 -1.134813
v -8.689977 -0.037340 -1.131813
v -8.694991 -0.049390 -1.134813
v -8.694991 -0.049390 -1.131813
v -8.702649 -0.060585 -1.134813
v -8.702649 -0.060585 -1.131813
v -8.712444 -0.070702 -1.134813
v -8.712444 -0.070702 -1.131813
v -8.723713 -0.079724 -1.134813
v -8.723713 -0.079724 -1.131813
v -8.735831 -0.087822 -1.134813
v -8.735831 -0.087822 -1.131813
v -8.748379 -0.095251 -1.134813
v -8.748379 -0.095251 -1.131813
v -8.761213 -0.102214 -1.134813
v -8.761213 -0.102214 -1.131813
v -8.774444 -0.108736 -1.134813
v -8.774444 -0.108736 -1.131813
v -8.788293 -0.114597 -1.134813
v -8.788293 -0.114597 -1.131813
v -8.802935 -0.119351 -1.134813
v -8.802935 -0.119351 -1.131813
v -8.818339 -0.122438 -1.134813
v -8.818339 -0.122438 -1.131813
v -8.834207 -0.123349 -1.134813
v -8.834207 -0.123349 -1.131813
v -8.850000 -0.121797 -1.134813
v -8.850000 -0.121797 -1.131813
v -8.865088 -0.117839 -1.134813
v -8.865088 -0.117839 -1.131813
v -8.878937 -0.111902 -1.134813
v -8.878937 -0.111902 -1.131813
v -8.891289 -0.104700 -1.134813
v -8.891289 -0.104700 -1.131813
v -8.902272 -0.097073 -1.134813
v -8.902272 -0.097073 -1.131813
v -8.912379 -0.089771 -1.134813
v -8.912379 -0.089771 -1.131813
v -8.922335 -0.083274 -1.134813
v -8.922335 -0.083274 -1.131813
v -8.932871 -0.077676 -1.134813
v -8.932871 -0.077676 -1.131813
v -8.944492 -0.072686 -1.134813
v -8.944492 -0.072686 -1.131813
v -8.957290 -0.067731 -1.134813
v -8.957290 -0.067731 -1.131813
v -8.970880 -0.062130 -1.134813
v -8.970880 -0.062130 -1.131813
v -8.984468 -0.055288 -1.134813
v -8.984468 -0.055288 -1.131813
v -8.997044 -0.046852 -1.134813
v -8.997044 -0.046852 -1.131813
v -9.007615 -0.036778 -1.134813
v -9.007615 -0.036778 -1.131813
v -9.015449 -0.025315 -1.134813
v -9.015449 -0.025315 -1.131813
v -9.020208 -0.012895 -1.134813
v -9.020208 -0.012895 -1.131813
v -9.021978 0.000000 -1.134813
v -9.021978 0.000000 -1.131813
v -9.021163 0.012968 -1.134813
v -9.021163 0.012968 -1.131813
v -9.018301 0.025752 -1.134813
v -9.018301 0.025752 -1.131813
v -9.013865 0.038237 -1.134813
v -9.013865 0.038237 -1.131813
v -9.008116 0.050380 -1.134813
v -9.008116 0.050380 -1.131813
v -9.001048 0.062105 -1.134813
v -9.001048 0.062105 -1.131813
v -8.992455 0.073219 -1.134813
v -8.992455 0.073219 -1.131813
v -8.982075 0.083378 -1.134813
v -8.982075 0.083378 -1.131813
v -8.969769 0.092129 -1.134813
v -8.969769 0.092129 -1.131813
v -8.955648 0.099025 -1.134813
v -8.955648 0.099025 -1.131813
v -8.940129 0.103760 -1.134813
v -8.940129 0.103760 -1.131813
v -8.923863 0.106298 -1.134813
v -8.923863 0.106298 -1.131813
v -8.907580 0.106932 -1.134813
v -8.907580 0.106932 -1.131813
v -8.891897 0.106242 -1.134813
v -8.891897 0.106242 -1.131813
v -8.877147 0.104978 -1.134813
v -8.877147 0.104978 -1.131813
v -8.863298 0.103862 -1.134813
v -8.863298 0.103862 -1.131813
vn -1.0000 -0.0000 -0.0000
vn -0.0000 1.0000 -0.0000
vn 1.0000 -0.0000 -0.0000
vn -0.0000 -1.0000 -0.0000
vn -0.0000 -0.0000 -1.0000
vn -0.0000 -0.0000 1.0000
vn 0.0654 0.9979 -0.0000
vn 0.1951 0.9808 -0.0000
vn 0.3214 0.9469 -0.0000
vn 0.4423 0.8969 -0.0000
vn 0.5556 0.8315 -0.0000
vn 0.6593 0.7518 -0.0000
vn 0.7518 0.6593 -0.0000
vn 0.8315 0.5556 -0.0000
vn 0.8969 0.4423 -0.0000
vn 0.9469 0.3214 -0.0000
vn 0.9808 0.1951 -0.0000
vn 0.9979 0.0654 -0.0000
vn 0.9979 -0.0654 -0.0000
vn 0.9808 -0.1951 -0.0000
vn 0.9469 -0.3214 -0.0000
vn 0.8969 -0.4423 -0.0000
vn 0.8315 -0.5556 -0.0000
vn 0.7518 -0.6593 -0.0000
vn 0.6593 -0.7518 -0.0000
vn 0.5556 -0.8315 -0.0000
vn 0.4423 -0.8969 -0.0000
vn 0.3214 -0.9469 -0.0000
vn 0.1951 -0.9808 -0.0000
vn 0.0654 -0.9979 -0.0000
vn -0.0654 -0.9979 -0.0000
vn -0.1951 -0.9808 -0.0000
vn -0.3214 -0.9469 -0.0000
vn -0.4423 -0.8969 -0.0000
vn -0.5556 -0.8315 -0.0000
vn -0.6593 -0.7518 -0.0000
vn -0.7518 -0.6593 -0.0000
vn -0.8315 -0.5556 -0.0000
vn -0.8969 -0.4423 -0.0000
vn -0.9469 -0.3214 -0.0000
vn -0.9808 -0.1951 -0.0000
vn -0.9979 -0.0654 -0.0000
vn -0.9979 0.0654 -0.0000
vn -0.9808 0.1951 -0.0000
vn -0.9469 0.3214 -0.0000
vn -0.8969 0.4423 -0.0000
vn -0.8315 0.5556 -0.0000
vn -0.7518 0.6593 -0.0000
vn -0.6593 0.7518 -0.0000
vn -0.5556 0.8315 -0.0000
vn -0.4423 0.8969 -0.0000
vn -0.3214 0.9469 -0.0000
vn -0.1951 0.9808 -0.0000
vn -0.0654 0.9979 -0.0000
vn -0.0258 0.9997 -0.0000
vn -0.0646 0.9979 -0.0000
vn -0.0582 0.9983 -0.0000
vn -0.0025 1.0000 -0.0000
vn 0.0973 0.9953 -0.0000
vn 0.2322 0.9727 -0.0000
vn 0.3901 0.9208 -0.0000
vn 0.5526 0.8334 -0.0000
vn 0.6971 0.7170 -0.0000
vn 0.8050 0.5933 -0.0000
vn 0.8716 0.4902 -0.0000
vn 0.9047 0.4261 -0.0000
vn 0.9167 0.3996 -0.0000
vn 0.9207 0.3902 -0.0000
vn 0.9295 0.3689 -0.0000
vn 0.9505 0.3108 -0.0000
vn 0.9797 0.2006 -0.0000
vn 0.9994 0.0347 -0.0000
vn 0.9851 -0.1719 -0.0000
vn 0.9232 -0.3842 -0.0000
vn 0.8254 -0.5646 -0.0000
vn 0.7184 -0.6956 -0.0000
vn 0.6250 -0.7806 -0.0000
vn 0.5556 -0.8314 -0.0000
vn 0.5095 -0.8605 -0.0000
vn 0.4768 -0.8790 -0.0000
vn 0.4422 -0.8969 -0.0000
vn 0.3897 -0.9209 -0.0000
vn 0.3088 -0.9511 -0.0000
vn 0.1965 -0.9805 -0.0000
vn 0.0573 -0.9984 -0.0000
vn -0.0978 -0.9952 -0.0000
vn -0.2537 -0.9673 -0.0000
vn -0.3941 -0.9191 -0.0000
vn -0.5037 -0.8639 -0.0000
vn -0.5704 -0.8214 -0.0000
vn -0.5856 -0.8106 -0.0000
vn -0.5466 -0.8374 -0.0000
vn -0.4692 -0.8831 -0.0000
vn -0.3946 -0.9189 -0.0000
vn -0.3610 -0.9326 -0.0000
vn -0.3811 -0.9246 -0.0000
vn -0.4497 -0.8932 -0.0000
vn -0.5571 -0.8304 -0.0000
vn -0.6898 -0.7240 -0.0000
vn -0.8256 -0.5642 -0.0000
vn -0.9338 -0.3578 -0.0000
vn -0.9907 -0.1360 -0.0000
vn -0.9980 0.0628 -0.0000
vn -0.9758 0.2185 -0.0000
vn -0.9423 0.3347 -0.0000
vn -0.9038 0.4280 -0.0000
vn -0.8564 0.5163 -0.0000
vn -0.7911 0.6117 -0.0000
vn -0.6995 0.7147 -0.0000
vn -0.5795 0.8150 -0.0000
vn -0.4388 0.8986 -0.0000
vn -0.2918 0.9565 -0.0000
vn -0.1542 0.9880 -0.0000
vn -0.0389 0.9992 -0.0000
vn 0.0439 0.9990 -0.0000
vn 0.0854 0.9963 -0.0000
vn 0.0803 0.9968 -0.0000
vn 0.0346 0.9994 -0.0000
vn -0.0583 0.9983 -0.0000
vn 0.6970 0.7170 -0.0000
vn 0.9233 -0.3842 -0.0000
vn 0.3897 -0.9210 -0.0000
vn -0.5036 -0.8639 -0.0000
vn -0.3611 -0.9325 -0.0000
vn -0.9423 0.3348 -0.0000
vn -0.9038 0.4279 -0.0000
vn -0.5795 0.8149 -0.0000
vn -0.2919 0.9565 -0.0000
vn 0.0001 -0.0000 1.0000
vn -0.0002 -0.0000 1.0000
vn -0.0001 -0.0000 1.0000
vn -0.0006 -0.0000 1.0000
vn 0.0002 -0.0000 1.0000
vn -0.0009 -0.0000 1.0000
vn -0.0011 -0.0000 1.0000
vn 0.0004 -0.0000 1.0000
vn -0.0002 -0.0000 -1.0000
vn -0.0001 -0.0000 -1.0000
vn -0.0004 -0.0000 -1.0000
vn 0.0001 -0.0000 -1.0000
s 0
usemtl alarm_red
f 2//1 3//1 1//1
f 4//2 7//2 3//2
f 8//3 5//3 7//3
f 6//4 1//4 5//4
f 7//5 1//5 3//5
f 4//6 6//6 8//6
f 10//1 11//1 9//1
f 12//2 15//2 11//2
f 16//3 13//3 15//3
f 14//4 9//4 13//4
f 15//5 9//5 11//5
f 12//6 14//6 16//6
f 18//1 19//1 17//1
f 20//2 23//2 19//2
f 24//3 21//3 23//3
f 22//4 17//4 21//4
f 23//5 17//5 19//5
f 20//6 22//6 24//6
f 82//7 83//7 81//7
f 84//8 85//8 83//8
f 86//9 87//9 85//9
f 88//10 89//10 87//10
f 90//11 91//11 89//11
f 92//12 93//12 91//12
f 94//13 95//13 93//13
f 96//14 97//14 95//14
f 98//15 99//15 97//15
f 100//16 101//16 99//16
f 102//17 103//17 101//17
f 104//18 105//18 103//18
f 106//19 107//19 105//19
f 108//20 109//20 107//20
f 110//21 111//21 109//21
f 112//22 113//22 111//22
f 114//23 115//23 113//23
f 116//24 117//24 115//24
f 118//25 119//25 117//25
f 120//26 121//26 119//26
f 122//27 123//27 121//27
f 124//28 125//28 123//28
f 126//29 127//29 125//29
f 128//30 129//30 127//30
f 130//31 131//31 129//31
f 132//32 133//32 131//32
f 134//33 135//33 133//33
f 136//34 137//34 135//34
f 138//35 139//35 137//35
f 140//36 141//36 139//36
f 142//37 143//37 141//37
f 144//38 145//38 143//38
f 146//39 147//39 145//39
f 148//40 149//40 147//40
f 150//41 151//41 149//41
f 152//42 153//42 151//42
f 154//43 155//43 153//43
f 156//44 157//44 155//44
f 158//45 159//45 157//45
f 160//46 161//46 159//46
f 162//47 163//47 161//47
f 164//48 165//48 163//48
f 166//49 167//49 165//49
f 168//50 169//50 167//50
f 170//51 171//51 169//51
f 172//52 173//52 171//52
f 150//6 118//6 86//6
f 174//53 175//53 173//53
f 176//54 81//54 175//54
f 111//5 143//5 175//5
f 2//1 4//1 3//1
f 4//2 8//2 7//2
f 8//3 6//3 5//3
f 6//4 2//4 1//4
f 7//5 5//5 1//5
f 4//6 2//6 6//6
f 10//1 12//1 11//1
f 12//2 16//2 15//2
f 16//3 14//3 13//3
f 14//4 10//4 9//4
f 15//5 13//5 9//5
f 12//6 10//6 14//6
f 18//1 20//1 19//1
f 20//2 24//2 23//2
f 24//3 22//3 21//3
f 22//4 18//4 17//4
f 23//5 21//5 17//5
f 20//6 18//6 22//6
f 82//7 84//7 83//7
f 84//8 86//8 85//8
f 86//9 88//9 87//9
f 88//10 90//10 89//10
f 90//11 92//11 91//11
f 92//12 94//12 93//12
f 94//13 96//13 95//13
f 96//14 98//14 97//14
f 98//15 100//15 99//15
f 100//16 102//16 101//16
f 102//17 104//17 103//17
f 104//18 106//18 105//18
f 106//19 108//19 107//19
f 108//20 110//20 109//20
f 110//21 112//21 111//21
f 112//22 114//22 113//22
f 114//23 116//23 115//23
f 116//24 118//24 117//24
f 118//25 120//25 119//25
f 120//26 122//26 121//26
f 122//27 124//27 123//27
f 124//28 126//28 125//28
f 126//29 128//29 127//29
f 128//30 130//30 129//30
f 130//31 132//31 131//31
f 132//32 134//32 133//32
f 134//33 136//33 135//33
f 136//34 138//34 137//34
f 138//35 140//35 139//35
f 140//36 142//36 141//36
f 142//37 144//37 143//37
f 144//38 146//38 145//38
f 146//39 148//39 147//39
f 148//40 150//40 149//40
f 150//41 152//41 151//41
f 152//42 154//42 153//42
f 154//43 156//43 155//43
f 156//44 158//44 157//44
f 158//45 160//45 159//45
f 160//46 162//46 161//46
f 162//47 164//47 163//47
f 164//48 166//48 165//48
f 166//49 168//49 167//49
f 168//50 170//50 169//50
f 170//51 172//51 171//51
f 172//52 174//52 173//52
f 86//6 84//6 82//6
f 82//6 176//6 174//6
f 174//6 172//6 170//6
f 170//6 168//6 166//6
f 166//6 164//6 162//6
f 162//6 160//6 158//6
f 158//6 156//6 154//6
f 154//6 152//6 150//6
f 150//6 148//6 146//6
f 146//6 144//6 142//6
f 142//6 140//6 138//6
f 138//6 136//6 134//6
f 134//6 132//6 130//6
f 130//6 128//6 126//6
f 126//6 124//6 122//6
f 122//6 120//6 118//6
f 118//6 116//6 114//6
f 114//6 112//6 110//6
f 110//6 108//6 106//6
f 106//6 104//6 102//6
f 102//6 100//6 98//6
f 98//6 96//6 94//6
f 94//6 92//6 90//6
f 90//6 88//6 86//6
f 86//6 82//6 174//6
f 174//6 170//6 166//6
f 166//6 162//6 158//6
f 158//6 154//6 150//6
f 150//6 146//6 142//6
f 142//6 138//6 134//6
f 134//6 130//6 126//6
f 126//6 122//6 118//6
f 118//6 114//6 110//6
f 110//6 106//6 102//6
f 102//6 98//6 94//6
f 94//6 90//6 86//6
f 86//6 174//6 166//6
f 166//6 158//6 150//6
f 150//6 142//6 134//6
f 134//6 126//6 118//6
f 118//6 110//6 102//6
f 102//6 94//6 86//6
f 86//6 166//6 150//6
f 150//6 134//6 118//6
f 118//6 102//6 86//6
f 174//53 176//53 175//53
f 176//54 82//54 81//54
f 175//5 81//5 83//5
f 83//5 85//5 87//5
f 87//5 89//5 91//5
f 91//5 93//5 95//5
f 95//5 97//5 99//5
f 99//5 101//5 103//5
f 103//5 105//5 107//5
f 107//5 109//5 111//5
f 111//5 113//5 115//5
f 115//5 117//5 119//5
f 119//5 121//5 123//5
f 123//5 125//5 127//5
f 127//5 129//5 131//5
f 131//5 133//5 135//5
f 135//5 137//5 139//5
f 139//5 141//5 143//5
f 143//5 145//5 147//5
f 147//5 149//5 151//5
f 151//5 153//5 155//5
f 155//5 157//5 159//5
f 159//5 161//5 163//5
f 163//5 165//5 167//5
f 167//5 169//5 171//5
f 171//5 173//5 175//5
f 175//5 83//5 87//5
f 87//5 91//5 95//5
f 95//5 99//5 103//5
f 103//5 107//5 111//5
f 111//5 115//5 119//5
f 119//5 123//5 127//5
f 127//5 131//5 135//5
f 135//5 139//5 143//5
f 143//5 147//5 151//5
f 151//5 155//5 159//5
f 159//5 163//5 167//5
f 167//5 171//5 175//5
f 175//5 87//5 95//5
f 95//5 103//5 111//5
f 111//5 119//5 127//5
f 127//5 135//5 143//5
f 143//5 151//5 159//5
f 159//5 167//5 175//5
f 175//5 95//5 111//5
f 111//5 127//5 143//5
f 143//5 159//5 175//5
usemtl gear_paint
f 26//1 27//1 25//1
f 28//2 31//2 27//2
f 32//3 29//3 31//3
f 30//4 25//4 29//4
f 31//5 25//5 27//5
f 28//6 30//6 32//6
f 26//1 28//1 27//1
f 28//2 32//2 31//2
f 32//3 30//3 29//3
f 30//4 26//4 25//4
f 31//5 29//5 25//5
f 28//6 26//6 30//6
usemtl pipe_steel
f 34//1 35//1 33//1
f 36//2 39//2 35//2
f 40//3 37//3 39//3
f 38//4 33//4 37//4
f 39//5 33//5 35//5
f 36//6 38//6 40//6
f 50//1 51//1 49//1
f 52//2 55//2 51//2
f 56//3 53//3 55//3
f 54//4 49//4 53//4
f 55//5 49//5 51//5
f 52//6 54//6 56//6
f 58//1 59//1 57//1
f 60//2 63//2 59//2
f 64//3 61//3 63//3
f 62//4 57//4 61//4
f 63//5 57//5 59//5
f 60//6 62//6 64//6
f 74//1 75//1 73//1
f 76//2 79//2 75//2
f 80//3 77//3 79//3
f 78//4 73//4 77//4
f 79//5 73//5 75//5
f 76//6 78//6 80//6
f 34//1 36//1 35//1
f 36//2 40//2 39//2
f 40//3 38//3 37//3
f 38//4 34//4 33//4
f 39//5 37//5 33//5
f 36//6 34//6 38//6
f 50//1 52//1 51//1
f 52//2 56//2 55//2
f 56//3 54//3 53//3
f 54//4 50//4 49//4
f 55//5 53//5 49//5
f 52//6 50//6 54//6
f 58//1 60//1 59//1
f 60//2 64//2 63//2
f 64//3 62//3 61//3
f 62//4 58//4 57//4
f 63//5 61//5 57//5
f 60//6 58//6 62//6
f 74//1 76//1 75//1
f 76//2 80//2 79//2
f 80//3 78//3 77//3
f 78//4 74//4 73//4
f 79//5 77//5 73//5
f 76//6 74//6 78//6
usemtl rubber
f 42//1 43//1 41//1
f 44//2 47//2 43//2
f 48//3 45//3 47//3
f 46//4 41//4 45//4
f 47//5 41//5 43//5
f 44//6 46//6 48//6
f 66//1 67//1 65//1
f 68//2 71//2 67//2
f 72//3 69//3 71//3
f 70//4 65//4 69//4
f 71//5 65//5 67//5
f 68//6 70//6 72//6
f 42//1 44//1 43//1
f 44//2 48//2 47//2
f 48//3 46//3 45//3
f 46//4 42//4 41//4
f 47//5 45//5 41//5
f 44//6 42//6 46//6
f 66//1 68//1 67//1
f 68//2 72//2 71//2
f 72//3 70//3 69//3
f 70//4 66//4 65//4
f 71//5 69//5 65//5
f 68//6 66//6 70//6
usemtl carbon
f 178//55 179//55 177//55
f 180//56 181//56 179//56
f 182//57 183//57 181//57
f 184//58 185//58 183//58
f 186//59 187//59 185//59
f 188//60 189//60 187//60
f 190//61 191//61 189//61
f 192//62 193//62 191//62
f 194//63 195//63 193//63
f 196//64 197//64 195//64
f 198//65 199//65 197//65
f 200//66 201//66 199//66
f 202//67 203//67 201//67
f 204//68 205//68 203//68
f 206//69 207//69 205//69
f 208//70 209//70 207//70
f 210//71 211//71 209//71
f 212//72 213//72 211//72
f 214//73 215//73 213//73
f 216//74 217//74 215//74
f 218//75 219//75 217//75
f 220//76 221//76 219//76
f 222//77 223//77 221//77
f 224//78 225//78 223//78
f 226//79 227//79 225//79
f 228//80 229//80 227//80
f 230//81 231//81 229//81
f 232//82 233//82 231//82
f 234//83 235//83 233//83
f 236//84 237//84 235//84
f 238//85 239//85 237//85
f 240//86 241//86 239//86
f 242//87 243//87 241//87
f 244//88 245//88 243//88
f 246//89 247//89 245//89
f 248//90 249//90 247//90
f 250//91 251//91 249//91
f 252//92 253//92 251//92
f 254//93 255//93 253//93
f 256//94 257//94 255//94
f 258//95 259//95 257//95
f 260//96 261//96 259//96
f 262//97 263//97 261//97
f 264//98 265//98 263//98
f 266//99 267//99 265//99
f 268//100 269//100 267//100
f 270//101 271//101 269//101
f 272//102 273//102 271//102
f 274//103 275//103 273//103
f 276//104 277//104 275//104
f 278//105 279//105 277//105
f 280//106 281//106 279//106
f 282//107 283//107 281//107
f 284//108 285//108 283//108
f 286//109 287//109 285//109
f 288//110 289//110 287//110
f 290//111 291//111 289//111
f 292//112 293//112 291//112
f 294//113 295//113 293//113
f 296//114 297//114 295//114
f 298//115 299//115 297//115
f 300//116 301//116 299//116
f 248//6 232//6 200//6
f 302//117 303//117 301//117
f 304//118 177//118 303//118
f 265//5 281//5 297//5
f 178//55 180//55 179//55
f 180//56 182//56 181//56
f 182//119 184//119 183//119
f 184//58 186//58 185//58
f 186//59 188//59 187//59
f 188//60 190//60 189//60
f 190//61 192//61 191//61
f 192//62 194//62 193//62
f 194//120 196//120 195//120
f 196//64 198//64 197//64
f 198//65 200//65 199//65
f 200//66 202//66 201//66
f 202//67 204//67 203//67
f 204//68 206//68 205//68
f 206//69 208//69 207//69
f 208//70 210//70 209//70
f 210//71 212//71 211//71
f 212//72 214//72 213//72
f 214//73 216//73 215//73
f 216//121 218//121 217//121
f 218//75 220//75 219//75
f 220//76 222//76 221//76
f 222//77 224//77 223//77
f 224//78 226//78 225//78
f 226//79 228//79 227//79
f 228//80 230//80 229//80
f 230//81 232//81 231//81
f 232//122 234//122 233//122
f 234//83 236//83 235//83
f 236//84 238//84 237//84
f 238//85 240//85 239//85
f 240//86 242//86 241//86
f 242//87 244//87 243//87
f 244//88 246//88 245//88
f 246//123 248//123 247//123
f 248//90 250//90 249//90
f 250//91 252//91 251//91
f 252//92 254//92 253//92
f 254//93 256//93 255//93
f 256//94 258//94 257//94
f 258//124 260//124 259//124
f 260//96 262//96 261//96
f 262//97 264//97 263//97
f 264//98 266//98 265//98
f 266//99 268//99 267//99
f 268//100 270//100 269//100
f 270//101 272//101 271//101
f 272//102 274//102 273//102
f 274//103 276//103 275//103
f 276//104 278//104 277//104
f 278//125 280//125 279//125
f 280//126 282//126 281//126
f 282//107 284//107 283//107
f 284//108 286//108 285//108
f 286//109 288//109 287//109
f 288//127 290//127 289//127
f 290//111 292//111 291//111
f 292//128 294//128 293//128
f 294//113 296//113 295//113
f 296//114 298//114 297//114
f 298//115 300//115 299//115
f 300//116 302//116 301//116
f 302//6 300//6 298//6
f 298//6 296//6 294//6
f 294//6 292//6 290//6
f 290//129 288//129 286//129
f 286//6 284//6 282//6
f 282//130 280//130 278//130
f 278//129 276//129 274//129
f 274//6 272//6 270//6
f 270//131 268//131 266//131
f 266//131 264//131 262//131
f 262//6 260//6 258//6
f 266//6 262//6 258//6
f 274//6 270//6 266//6
f 282//6 278//6 274//6
f 290//6 286//6 282//6
f 298//6 294//6 290//6
f 304//131 302//131 298//131
f 304//6 298//6 290//6
f 290//6 282//6 274//6
f 274//6 266//6 258//6
f 274//6 258//6 256//6
f 304//6 290//6 274//6
f 178//6 304//6 274//6
f 274//129 256//129 254//129
f 252//132 250//132 248//132
f 274//131 254//131 252//131
f 180//6 178//6 274//6
f 184//133 182//133 180//133
f 188//6 186//6 184//6
f 192//6 190//6 188//6
f 196//6 194//6 192//6
f 200//6 198//6 196//6
f 204//134 202//134 200//134
f 208//135 206//135 204//135
f 212//133 210//133 208//133
f 216//131 214//131 212//131
f 220//129 218//129 216//129
f 224//6 222//6 220//6
f 228//130 226//130 224//130
f 232//6 230//6 228//6
f 236//6 234//6 232//6
f 240//6 238//6 236//6
f 244//6 242//6 240//6
f 248//129 246//129 244//129
f 274//6 252//6 248//6
f 184//6 180//6 274//6
f 192//6 188//6 184//6
f 200//6 196//6 192//6
f 208//136 204//136 200//136
f 216//6 212//6 208//6
f 224//6 220//6 216//6
f 232//129 228//129 224//129
f 240//6 236//6 232//6
f 248//6 244//6 240//6
f 184//6 274//6 248//6
f 200//6 192//6 184//6
f 216//6 208//6 200//6
f 232//6 224//6 216//6
f 248//6 240//6 232//6
f 200//6 184//6 248//6
f 232//6 216//6 200//6
f 302//117 304//117 303//117
f 304//118 178//118 177//118
f 179//137 181//137 183//137
f 183//5 185//5 187//5
f 187//5 189//5 191//5
f 191//138 193//138 195//138
f 195//5 197//5 199//5
f 199//5 201//5 203//5
f 203//5 205//5 207//5
f 207//139 209//139 211//139
f 211//138 213//138 215//138
f 215//140 217//140 219//140
f 219//140 221//140 223//140
f 223//5 225//5 227//5
f 227//5 229//5 231//5
f 231//5 233//5 235//5
f 235//5 237//5 239//5
f 239//5 241//5 243//5
f 243//5 245//5 247//5
f 247//5 249//5 251//5
f 243//5 247//5 251//5
f 235//5 239//5 243//5
f 227//5 231//5 235//5
f 219//5 223//5 227//5
f 211//5 215//5 219//5
f 203//5 207//5 211//5
f 195//138 199//138 203//138
f 187//5 191//5 195//5
f 179//5 183//5 187//5
f 177//5 179//5 187//5
f 187//5 195//5 203//5
f 203//5 211//5 219//5
f 219//5 227//5 235//5
f 235//5 243//5 251//5
f 235//5 251//5 253//5
f 203//5 219//5 235//5
f 177//5 187//5 203//5
f 303//5 177//5 203//5
f 203//5 235//5 253//5
f 203//5 253//5 255//5
f 301//5 303//5 203//5
f 297//5 299//5 301//5
f 293//5 295//5 297//5
f 289//5 291//5 293//5
f 285//140 287//140 289//140
f 281//137 283//137 285//137
f 277//137 279//137 281//137
f 273//138 275//138 277//138
f 269//140 271//140 273//140
f 265//5 267//5 269//5
f 261//5 263//5 265//5
f 257//139 259//139 261//139
f 203//5 255//5 257//5
f 297//5 301//5 203//5
f 289//5 293//5 297//5
f 281//5 285//5 289//5
f 273//5 277//5 281//5
f 265//5 269//5 273//5
f 257//5 261//5 265//5
f 297//5 203//5 257//5
f 281//5 289//5 297//5
f 265//5 273//5 281//5
f 297//5 257//5 265//5
