# Blender 5.2.2 LTS
# www.blender.org
mtllib bushing_left_cracked.mtl
o bushing_left_cracked
v -0.900000 -0.970000 -0.050000
v -0.420000 -1.101820 -0.112367
v -0.420000 -1.162288 -0.046360
v -0.420000 -1.115679 -0.110392
v -0.420000 -1.065412 0.001930
v -0.270000 -0.970000 -0.050000
v -0.420000 -1.159908 -0.032564
v -0.420000 -1.054705 -0.007089
v -0.900000 -0.970626 -0.062742
v -0.270000 -0.970626 -0.062742
v -0.900000 -0.972498 -0.075362
v -0.270000 -0.972498 -0.075362
v -0.900000 -0.975598 -0.087737
v -0.270000 -0.975598 -0.087737
v -0.900000 -0.979896 -0.099749
v -0.270000 -0.979896 -0.099749
v -0.900000 -0.985350 -0.111282
v -0.270000 -0.985350 -0.111282
v -0.900000 -0.991909 -0.122224
v -0.270000 -0.991909 -0.122224
v -0.900000 -0.999509 -0.132471
v -0.270000 -0.999509 -0.132471
v -0.900000 -1.008076 -0.141924
v -0.270000 -1.008076 -0.141924
v -0.900000 -1.017529 -0.150491
v -0.270000 -1.017529 -0.150491
v -0.900000 -1.027776 -0.158091
v -0.270000 -1.027776 -0.158091
v -0.900000 -1.038718 -0.164650
v -0.270000 -1.038718 -0.164650
v -0.900000 -1.050251 -0.170104
v -0.270000 -1.050251 -0.170104
v -0.900000 -1.062263 -0.174402
v -0.270000 -1.062263 -0.174402
v -0.900000 -1.074638 -0.177502
v -0.270000 -1.074638 -0.177502
v -0.900000 -1.087258 -0.179374
v -0.270000 -1.087258 -0.179374
v -0.900000 -1.100000 -0.180000
v -0.270000 -1.100000 -0.180000
v -0.900000 -1.112742 -0.179374
v -0.900000 -1.125362 -0.177502
v -0.270000 -1.125362 -0.177502
v -0.900000 -1.137737 -0.174402
v -0.270000 -1.137737 -0.174402
v -0.900000 -1.149749 -0.170104
v -0.270000 -1.149749 -0.170104
v -0.900000 -1.161282 -0.164650
v -0.270000 -1.161282 -0.164650
v -0.900000 -1.172224 -0.158091
v -0.270000 -1.172224 -0.158091
v -0.900000 -1.182471 -0.150491
v -0.270000 -1.182471 -0.150491
v -0.900000 -1.191924 -0.141924
v -0.270000 -1.191924 -0.141924
v -0.900000 -1.200491 -0.132471
v -0.270000 -1.200491 -0.132471
v -0.900000 -1.208091 -0.122224
v -0.270000 -1.208091 -0.122224
v -0.900000 -1.214650 -0.111282
v -0.270000 -1.214650 -0.111282
v -0.900000 -1.220104 -0.099749
v -0.270000 -1.220104 -0.099749
v -0.900000 -1.224402 -0.087737
v -0.270000 -1.224402 -0.087737
v -0.900000 -1.227502 -0.075362
v -0.270000 -1.227502 -0.075362
v -0.900000 -1.229374 -0.062742
v -0.270000 -1.229374 -0.062742
v -0.900000 -1.230000 -0.050000
v -0.270000 -1.230000 -0.050000
v -0.900000 -1.229374 -0.037258
v -0.270000 -1.229374 -0.037258
v -0.900000 -1.227502 -0.024638
v -0.900000 -1.224402 -0.012263
v -0.270000 -1.224402 -0.012263
v -0.900000 -1.220104 -0.000251
v -0.270000 -1.220104 -0.000251
v -0.900000 -1.214650 0.011282
v -0.270000 -1.214650 0.011282
v -0.900000 -1.208091 0.022224
v -0.270000 -1.208091 0.022224
v -0.900000 -1.200491 0.032471
v -0.270000 -1.200491 0.032471
v -0.900000 -1.191924 0.041924
v -0.270000 -1.191924 0.041924
v -0.900000 -1.182471 0.050491
v -0.270000 -1.182471 0.050491
v -0.900000 -1.172224 0.058091
v -0.270000 -1.172224 0.058091
v -0.900000 -1.161282 0.064650
v -0.270000 -1.161282 0.064650
v -0.900000 -1.149749 0.070104
v -0.270000 -1.149749 0.070104
v -0.900000 -1.137737 0.074402
v -0.270000 -1.137737 0.074402
v -0.900000 -1.125362 0.077502
v -0.270000 -1.125362 0.077502
v -0.900000 -1.112742 0.079374
v -0.270000 -1.112742 0.079374
v -0.900000 -1.100000 0.080000
v -0.270000 -1.100000 0.080000
v -0.900000 -1.087258 0.079374
v -0.270000 -1.087258 0.079374
v -0.900000 -1.074638 0.077502
v -0.270000 -1.074638 0.077502
v -0.900000 -1.062263 0.074402
v -0.270000 -1.062263 0.074402
v -0.900000 -1.050251 0.070104
v -0.270000 -1.050251 0.070104
v -0.900000 -1.038718 0.064650
v -0.270000 -1.038718 0.064650
v -0.900000 -1.027776 0.058091
v -0.270000 -1.027776 0.058091
v -0.900000 -1.017529 0.050491
v -0.900000 -1.008076 0.041924
v -0.270000 -1.008076 0.041924
v -0.900000 -0.999509 0.032471
v -0.270000 -0.999509 0.032471
v -0.900000 -0.991909 0.022224
v -0.270000 -0.991909 0.022224
v -0.900000 -0.985350 0.011282
v -0.270000 -0.985350 0.011282
v -0.900000 -0.979896 -0.000251
v -0.270000 -0.979896 -0.000251
v -0.900000 -0.975598 -0.012263
v -0.270000 -0.975598 -0.012263
v -0.900000 -0.972498 -0.024638
v -0.270000 -0.972498 -0.024638
v -0.900000 -0.970626 -0.037258
v -0.270000 -0.970626 -0.037258
v -0.420000 -1.021826 0.053678
v -0.270000 -1.021826 0.053678
v -0.420000 -1.017529 0.050491
v -0.270000 -1.011107 0.044671
v -0.420000 -1.011107 0.044671
v -0.270000 -1.054705 -0.007089
v -0.270000 -1.065412 0.001930
v -0.270000 -1.229017 -0.034851
v -0.420000 -1.229017 -0.034851
v -0.420000 -1.227502 -0.024638
v -0.420000 -1.226606 -0.021060
v -0.270000 -1.226606 -0.021060
v -0.270000 -1.159908 -0.032564
v -0.270000 -1.162288 -0.046360
v -0.270000 -1.111381 -0.179441
v -0.420000 -1.111381 -0.179441
v -0.420000 -1.112742 -0.179374
v -0.270000 -1.125248 -0.177519
v -0.420000 -1.125248 -0.177519
v -0.270000 -1.115679 -0.110392
v -0.270000 -1.101820 -0.112367
v -0.310000 -0.958000 -0.050000
v -0.280000 -0.958000 -0.050000
v -0.310000 -0.958684 -0.063918
v -0.280000 -0.958684 -0.063918
v -0.310000 -0.960729 -0.077703
v -0.280000 -0.960729 -0.077703
v -0.310000 -0.964114 -0.091220
v -0.280000 -0.964114 -0.091220
v -0.310000 -0.968809 -0.104341
v -0.280000 -0.968809 -0.104341
v -0.310000 -0.974767 -0.116938
v -0.280000 -0.974767 -0.116938
v -0.310000 -0.981931 -0.128891
v -0.280000 -0.981931 -0.128891
v -0.310000 -0.990233 -0.140084
v -0.280000 -0.990233 -0.140084
v -0.310000 -0.999591 -0.150409
v -0.280000 -0.999591 -0.150409
v -0.310000 -1.009916 -0.159767
v -0.280000 -1.009916 -0.159767
v -0.310000 -1.021109 -0.168069
v -0.280000 -1.021109 -0.168069
v -0.310000 -1.033062 -0.175233
v -0.280000 -1.033062 -0.175233
v -0.310000 -1.045659 -0.181191
v -0.280000 -1.045659 -0.181191
v -0.310000 -1.058780 -0.185886
v -0.280000 -1.058780 -0.185886
v -0.310000 -1.072297 -0.189272
v -0.280000 -1.072297 -0.189272
v -0.310000 -1.086082 -0.191316
v -0.280000 -1.086082 -0.191316
v -0.310000 -1.100000 -0.192000
v -0.280000 -1.100000 -0.192000
v -0.310000 -1.113918 -0.191316
v -0.280000 -1.113918 -0.191316
v -0.310000 -1.127703 -0.189272
v -0.280000 -1.127703 -0.189272
v -0.310000 -1.141220 -0.185886
v -0.280000 -1.141220 -0.185886
v -0.310000 -1.154341 -0.181191
v -0.280000 -1.154341 -0.181191
v -0.310000 -1.166938 -0.175233
v -0.280000 -1.166938 -0.175233
v -0.310000 -1.178891 -0.168069
v -0.280000 -1.178891 -0.168069
v -0.310000 -1.190084 -0.159767
v -0.280000 -1.190084 -0.159767
v -0.310000 -1.200409 -0.150409
v -0.280000 -1.200409 -0.150409
v -0.310000 -1.209767 -0.140084
v -0.280000 -1.209767 -0.140084
v -0.310000 -1.218069 -0.128891
v -0.280000 -1.218069 -0.128891
v -0.310000 -1.225233 -0.116938
v -0.280000 -1.225233 -0.116938
v -0.310000 -1.231191 -0.104341
v -0.280000 -1.231191 -0.104341
v -0.310000 -1.235886 -0.091220
v -0.280000 -1.235886 -0.091220
v -0.310000 -1.239272 -0.077703
v -0.280000 -1.239272 -0.077703
v -0.310000 -1.241316 -0.063918
v -0.280000 -1.241316 -0.063918
v -0.310000 -1.242000 -0.050000
v -0.280000 -1.242000 -0.050000
v -0.310000 -1.241316 -0.036082
v -0.280000 -1.241316 -0.036082
v -0.310000 -1.239272 -0.022297
v -0.280000 -1.239272 -0.022297
v -0.310000 -1.235886 -0.008780
v -0.280000 -1.235886 -0.008780
v -0.310000 -1.231191 0.004341
v -0.280000 -1.231191 0.004341
v -0.310000 -1.225233 0.016938
v -0.280000 -1.225233 0.016938
v -0.310000 -1.218069 0.028891
v -0.280000 -1.218069 0.028891
v -0.310000 -1.209767 0.040084
v -0.280000 -1.209767 0.040084
v -0.310000 -1.200409 0.050409
v -0.280000 -1.200409 0.050409
v -0.310000 -1.190084 0.059767
v -0.280000 -1.190084 0.059767
v -0.310000 -1.178891 0.068069
v -0.280000 -1.178891 0.068069
v -0.310000 -1.166938 0.075233
v -0.280000 -1.166938 0.075233
v -0.310000 -1.154341 0.081191
v -0.280000 -1.154341 0.081191
v -0.310000 -1.141220 0.085886
v -0.280000 -1.141220 0.085886
v -0.310000 -1.127703 0.089272
v -0.280000 -1.127703 0.089272
v -0.310000 -1.113918 0.091316
v -0.280000 -1.113918 0.091316
v -0.310000 -1.100000 0.092000
v -0.280000 -1.100000 0.092000
v -0.310000 -1.086082 0.091316
v -0.280000 -1.086082 0.091316
v -0.310000 -1.072297 0.089272
v -0.280000 -1.072297 0.089272
v -0.310000 -1.058780 0.085886
v -0.280000 -1.058780 0.085886
v -0.310000 -1.045659 0.081191
v -0.280000 -1.045659 0.081191
v -0.310000 -1.033062 0.075233
v -0.280000 -1.033062 0.075233
v -0.310000 -1.021109 0.068069
v -0.280000 -1.021109 0.068069
v -0.310000 -1.009916 0.059767
v -0.280000 -1.009916 0.059767
v -0.310000 -0.999591 0.050409
v -0.280000 -0.999591 0.050409
v -0.310000 -0.990233 0.040084
v -0.280000 -0.990233 0.040084
v -0.310000 -0.981931 0.028891
v -0.280000 -0.981931 0.028891
v -0.310000 -0.974767 0.016938
v -0.280000 -0.974767 0.016938
v -0.310000 -0.968809 0.004341
v -0.280000 -0.968809 0.004341
v -0.310000 -0.964114 -0.008780
v -0.280000 -0.964114 -0.008780
v -0.310000 -0.960729 -0.022297
v -0.280000 -0.960729 -0.022297
v -0.310000 -0.958684 -0.036082
v -0.280000 -0.958684 -0.036082
v -0.280000 -1.033332 0.049776
v -0.280000 -1.043432 0.055831
v -0.280000 -1.007239 0.026127
v -0.280000 -1.015147 0.034853
v -0.280000 -1.023873 0.042761
v -0.280000 -0.989134 -0.004078
v -0.280000 -0.994169 0.006568
v -0.280000 -0.982306 -0.026589
v -0.280000 -0.980578 -0.038238
v -0.280000 -0.985167 -0.015166
v -0.280000 -1.000224 0.016668
v -0.280000 -1.123411 0.067694
v -0.280000 -1.111762 0.069422
v -0.280000 -1.134834 0.064833
v -0.280000 -1.156568 0.055831
v -0.280000 -1.145922 0.060866
v -0.280000 -1.184853 0.034853
v -0.280000 -1.176127 0.042761
v -0.280000 -1.199776 0.016668
v -0.280000 -1.205831 0.006568
v -0.280000 -1.192761 0.026127
v -0.280000 -1.166668 0.049776
v -0.280000 -1.217694 -0.073411
v -0.280000 -1.219422 -0.061762
v -0.280000 -1.205831 -0.106568
v -0.280000 -1.210866 -0.095922
v -0.280000 -1.214833 -0.084834
v -0.280000 -1.192761 -0.126127
v -0.280000 -1.184853 -0.134853
v -0.280000 -1.176127 -0.142761
v -0.280000 -1.166668 -0.149776
v -0.280000 -1.156568 -0.155831
v -0.280000 -1.199776 -0.116668
v -0.280000 -1.000224 -0.116668
v -0.280000 -0.994169 -0.106568
v -0.280000 -1.023873 -0.142761
v -0.280000 -1.015147 -0.134853
v -0.280000 -1.007239 -0.126127
v -0.280000 -1.043432 -0.155831
v -0.280000 -1.065166 -0.164833
v -0.280000 -1.054078 -0.160866
v -0.280000 -1.088238 -0.169422
v -0.280000 -1.076589 -0.167694
v -0.280000 -1.033332 -0.149776
v -0.280000 -1.100000 0.070000
v -0.280000 -1.088238 0.069422
v -0.280000 -1.054078 0.060866
v -0.280000 -1.065166 0.064833
v -0.280000 -1.076589 0.067694
v -0.280000 -1.210866 -0.004078
v -0.280000 -1.214833 -0.015166
v -0.280000 -0.982306 -0.073411
v -0.280000 -0.980578 -0.061762
v -0.280000 -0.980000 -0.050000
v -0.280000 -1.217694 -0.026589
v -0.280000 -1.219422 -0.038238
v -0.280000 -0.985167 -0.084834
v -0.280000 -1.220000 -0.050000
v -0.280000 -1.134834 -0.164833
v -0.280000 -1.145922 -0.160866
v -0.280000 -1.100000 -0.170000
v -0.280000 -1.123411 -0.167694
v -0.280000 -1.111762 -0.169422
v -0.280000 -0.989134 -0.095922
v -0.310000 -0.985167 -0.084834
v -0.310000 -0.982306 -0.073411
v -0.310000 -1.000224 -0.116668
v -0.310000 -0.994169 -0.106568
v -0.310000 -0.989134 -0.095922
v -0.310000 -1.015147 -0.134853
v -0.310000 -1.023873 -0.142761
v -0.310000 -1.033332 -0.149776
v -0.310000 -1.043432 -0.155831
v -0.310000 -1.054078 -0.160866
v -0.310000 -1.007239 -0.126127
v -0.310000 -1.205831 -0.106568
v -0.310000 -1.210866 -0.095922
v -0.310000 -1.184853 -0.134853
v -0.310000 -1.192761 -0.126127
v -0.310000 -1.199776 -0.116668
v -0.310000 -1.166668 -0.149776
v -0.310000 -1.156568 -0.155831
v -0.310000 -1.145922 -0.160866
v -0.310000 -1.134834 -0.164833
v -0.310000 -1.123411 -0.167694
v -0.310000 -1.176127 -0.142761
v -0.310000 -1.156568 0.055831
v -0.310000 -1.145922 0.060866
v -0.310000 -1.184853 0.034853
v -0.310000 -1.166668 0.049776
v -0.310000 -1.176127 0.042761
v -0.310000 -1.205831 0.006568
v -0.310000 -1.199776 0.016668
v -0.310000 -1.214833 -0.015166
v -0.310000 -1.217694 -0.026589
v -0.310000 -1.210866 -0.004078
v -0.310000 -1.192761 0.026127
v -0.310000 -1.065166 0.064833
v -0.310000 -1.076589 0.067694
v -0.310000 -1.054078 0.060866
v -0.310000 -1.033332 0.049776
v -0.310000 -1.043432 0.055831
v -0.310000 -1.007239 0.026127
v -0.310000 -1.015147 0.034853
v -0.310000 -0.994169 0.006568
v -0.310000 -0.989134 -0.004078
v -0.310000 -1.000224 0.016668
v -0.310000 -1.023873 0.042761
v -0.310000 -0.980000 -0.050000
v -0.310000 -1.217694 -0.073411
v -0.310000 -1.219422 -0.061762
v -0.310000 -0.980578 -0.061762
v -0.310000 -1.076589 -0.167694
v -0.310000 -1.065166 -0.164833
v -0.310000 -1.100000 -0.170000
v -0.310000 -1.111762 -0.169422
v -0.310000 -1.088238 -0.169422
v -0.310000 -1.214833 -0.084834
v -0.310000 -1.100000 0.070000
v -0.310000 -1.111762 0.069422
v -0.310000 -1.088238 0.069422
v -0.310000 -1.134834 0.064833
v -0.310000 -1.123411 0.067694
v -0.310000 -0.982306 -0.026589
v -0.310000 -0.985167 -0.015166
v -0.310000 -1.220000 -0.050000
v -0.310000 -1.219422 -0.038238
v -0.310000 -0.980578 -0.038238
vn -0.0000 0.9988 -0.0491
vn -0.0000 0.9892 -0.1467
vn -0.0000 0.9700 -0.2430
vn -0.0000 0.9415 -0.3369
vn -0.0000 0.9040 -0.4276
vn -0.0000 0.8577 -0.5141
vn -0.0000 0.8032 -0.5957
vn -0.0000 0.7410 -0.6716
vn -0.0000 0.6716 -0.7410
vn -0.0000 0.5957 -0.8032
vn -0.0000 0.5141 -0.8577
vn -0.0000 0.4276 -0.9040
vn -0.0000 0.3369 -0.9415
vn -0.0000 0.2430 -0.9700
vn -0.0000 0.1467 -0.9892
vn -0.0000 0.0491 -0.9988
vn -0.0000 -0.0491 -0.9988
vn -0.0000 -0.1467 -0.9892
vn -0.0000 -0.2430 -0.9700
vn -0.0000 -0.3369 -0.9415
vn -0.0000 -0.4276 -0.9040
vn -0.0000 -0.5141 -0.8577
vn -0.0000 -0.5957 -0.8032
vn -0.0000 -0.6716 -0.7410
vn -0.0000 -0.7410 -0.6716
vn -0.0000 -0.8032 -0.5957
vn -0.0000 -0.8577 -0.5141
vn -0.0000 -0.9040 -0.4276
vn -0.0000 -0.9415 -0.3369
vn -0.0000 -0.9700 -0.2430
vn -0.0000 -0.9892 -0.1467
vn -0.0000 -0.9988 -0.0491
vn -0.0000 -0.9988 0.0491
vn -0.0000 -0.9892 0.1467
vn -0.0000 -0.9700 0.2430
vn -0.0000 -0.9415 0.3369
vn -0.0000 -0.9040 0.4276
vn -0.0000 -0.8577 0.5141
vn -0.0000 -0.8032 0.5957
vn -0.0000 -0.7410 0.6716
vn -0.0000 -0.6716 0.7410
vn -0.0000 -0.5957 0.8032
vn -0.0000 -0.5141 0.8577
vn -0.0000 -0.4276 0.9040
vn -0.0000 -0.3369 0.9415
vn -0.0000 -0.2430 0.9700
vn -0.0000 -0.1467 0.9892
vn -0.0000 -0.0491 0.9988
vn -0.0000 0.0491 0.9988
vn -0.0000 0.1467 0.9892
vn -0.0000 0.2430 0.9700
vn -0.0000 0.3369 0.9415
vn -0.0000 0.4276 0.9040
vn -0.0000 0.5141 0.8577
vn -0.0000 0.5957 0.8032
vn -0.0000 0.6716 0.7410
vn -0.0000 0.7410 0.6716
vn -0.0000 0.8032 0.5957
vn -0.0000 0.8577 0.5141
vn -0.0000 0.9040 0.4276
vn -0.0000 0.9415 0.3369
vn -0.0000 0.9700 0.2430
vn 1.0000 -0.0000 -0.0000
vn -0.0000 0.9892 0.1467
vn -0.0000 0.9988 0.0491
vn -1.0000 -0.0000 -0.0000
vn -0.0000 -0.7648 0.6442
vn -0.0000 0.7648 -0.6442
vn -0.0000 0.6442 0.7648
vn -0.0000 -0.1700 -0.9854
vn -0.0000 0.1700 0.9854
vn -0.0000 -0.9854 0.1700
vn -0.0000 0.9900 -0.1411
vn -0.0000 -0.9900 0.1411
vn -0.0000 -0.1411 -0.9900
vn -0.0000 0.7409 -0.6716
vn -0.0000 -0.6716 -0.7409
vn -0.0000 -0.1468 -0.9892
vn -0.0000 -0.1470 -0.9891
vn -0.0000 -0.7409 -0.6716
s 0
usemtl rubber
f 6//1 9//1 1//1
f 10//2 11//2 9//2
f 12//3 13//3 11//3
f 14//4 15//4 13//4
f 16//5 17//5 15//5
f 18//6 19//6 17//6
f 20//7 21//7 19//7
f 22//8 23//8 21//8
f 24//9 25//9 23//9
f 26//10 27//10 25//10
f 28//11 29//11 27//11
f 30//12 31//12 29//12
f 32//13 33//13 31//13
f 34//14 35//14 33//14
f 36//15 37//15 35//15
f 38//16 39//16 37//16
f 41//17 40//17 147//17
f 42//18 148//18 150//18
f 43//19 44//19 42//19
f 45//20 46//20 44//20
f 47//21 48//21 46//21
f 49//22 50//22 48//22
f 51//23 52//23 50//23
f 53//24 54//24 52//24
f 55//25 56//25 54//25
f 57//26 58//26 56//26
f 59//27 60//27 58//27
f 61//28 62//28 60//28
f 63//29 64//29 62//29
f 65//30 66//30 64//30
f 67//31 68//31 66//31
f 69//32 70//32 68//32
f 71//33 72//33 70//33
f 140//34 72//34 139//34
f 76//35 74//35 142//35
f 76//36 77//36 75//36
f 78//37 79//37 77//37
f 80//38 81//38 79//38
f 82//39 83//39 81//39
f 84//40 85//40 83//40
f 86//41 87//41 85//41
f 88//42 89//42 87//42
f 90//43 91//43 89//43
f 92//44 93//44 91//44
f 94//45 95//45 93//45
f 96//46 97//46 95//46
f 98//47 99//47 97//47
f 100//48 101//48 99//48
f 102//49 103//49 101//49
f 104//50 105//50 103//50
f 106//51 107//51 105//51
f 108//52 109//52 107//52
f 110//53 111//53 109//53
f 112//54 113//54 111//54
f 132//55 115//55 114//55
f 136//56 117//56 115//56
f 117//57 118//57 116//57
f 119//58 120//58 118//58
f 121//59 122//59 120//59
f 123//60 124//60 122//60
f 125//61 126//61 124//61
f 127//62 128//62 126//62
f 144//63 145//63 47//63
f 129//64 130//64 128//64
f 131//65 1//65 130//65
f 66//66 97//66 128//66
f 132//63 8//63 136//63
f 136//67 137//67 135//67
f 132//68 138//68 5//68
f 5//69 137//69 8//69
f 140//63 7//63 142//63
f 142//70 144//70 143//70
f 140//71 145//71 3//71
f 7//72 145//72 144//72
f 4//63 148//63 147//63
f 4//73 149//73 150//73
f 2//74 146//74 152//74
f 4//75 152//75 151//75
f 154//1 155//1 153//1
f 156//2 157//2 155//2
f 158//3 159//3 157//3
f 160//4 161//4 159//4
f 162//5 163//5 161//5
f 164//6 165//6 163//6
f 166//7 167//7 165//7
f 168//8 169//8 167//8
f 170//9 171//9 169//9
f 172//10 173//10 171//10
f 174//11 175//11 173//11
f 176//12 177//12 175//12
f 178//13 179//13 177//13
f 180//14 181//14 179//14
f 182//15 183//15 181//15
f 184//16 185//16 183//16
f 186//17 187//17 185//17
f 188//18 189//18 187//18
f 190//19 191//19 189//19
f 192//20 193//20 191//20
f 194//21 195//21 193//21
f 196//22 197//22 195//22
f 198//23 199//23 197//23
f 200//24 201//24 199//24
f 202//25 203//25 201//25
f 204//26 205//26 203//26
f 206//27 207//27 205//27
f 208//28 209//28 207//28
f 210//29 211//29 209//29
f 212//30 213//30 211//30
f 214//31 215//31 213//31
f 216//32 217//32 215//32
f 218//33 219//33 217//33
f 220//34 221//34 219//34
f 222//35 223//35 221//35
f 224//36 225//36 223//36
f 226//37 227//37 225//37
f 228//38 229//38 227//38
f 230//39 231//39 229//39
f 232//40 233//40 231//40
f 234//41 235//41 233//41
f 236//42 237//42 235//42
f 238//43 239//43 237//43
f 240//44 241//44 239//44
f 242//45 243//45 241//45
f 244//46 245//46 243//46
f 246//47 247//47 245//47
f 248//48 249//48 247//48
f 250//49 251//49 249//49
f 252//50 253//50 251//50
f 254//51 255//51 253//51
f 256//52 257//52 255//52
f 258//53 259//53 257//53
f 260//54 261//54 259//54
f 262//55 263//55 261//55
f 264//56 265//56 263//56
f 266//57 267//57 265//57
f 268//58 269//58 267//58
f 270//59 271//59 269//59
f 272//60 273//60 271//60
f 274//61 275//61 273//61
f 276//62 277//62 275//62
f 232//63 302//63 295//63
f 174//63 324//63 319//63
f 278//64 279//64 277//64
f 280//65 153//65 279//65
f 199//66 358//66 366//66
f 263//66 384//66 388//66
f 333//33 389//33 392//33
f 332//34 392//34 346//34
f 337//35 346//35 345//35
f 344//36 345//36 349//36
f 315//37 349//37 348//37
f 314//38 348//38 347//38
f 318//39 347//39 355//39
f 317//40 355//40 350//40
f 317//41 351//41 316//41
f 316//42 352//42 324//42
f 324//43 353//43 319//43
f 319//44 354//44 321//44
f 321//45 394//45 320//45
f 320//46 393//46 323//46
f 323//47 397//47 322//47
f 322//48 395//48 341//48
f 341//49 396//49 343//49
f 343//50 365//50 342//50
f 342//51 364//51 339//51
f 339//52 363//52 340//52
f 340//53 362//53 312//53
f 312//54 361//54 311//54
f 311//55 366//55 310//55
f 310//56 358//56 309//56
f 309//57 359//57 308//57
f 308//58 360//58 313//58
f 313//59 356//59 305//59
f 305//60 357//60 306//60
f 306//61 398//61 307//61
f 307//62 390//62 303//62
f 303//64 391//64 304//64
f 304//65 406//65 338//65
f 338//1 407//1 336//1
f 336//2 375//2 335//2
f 335//3 374//3 331//3
f 331//4 376//4 330//4
f 330//5 372//5 300//5
f 300//6 373//6 299//6
f 299//7 377//7 301//7
f 301//76 369//76 297//76
f 298//9 369//9 371//9
f 302//10 371//10 370//10
f 295//11 370//11 367//11
f 296//12 367//12 368//12
f 294//13 368//13 402//13
f 292//14 402//14 403//14
f 293//15 403//15 400//15
f 325//16 400//16 399//16
f 326//17 399//17 401//17
f 329//18 401//18 379//18
f 328//19 379//19 378//19
f 327//20 378//20 380//20
f 282//21 380//21 382//21
f 281//22 382//22 381//22
f 285//23 381//23 388//23
f 284//77 388//77 384//77
f 283//25 384//25 383//25
f 291//26 383//26 387//26
f 287//27 387//27 385//27
f 286//28 385//28 386//28
f 290//29 386//29 405//29
f 288//30 405//30 404//30
f 289//31 404//31 408//31
f 334//32 408//32 389//32
f 6//1 10//1 9//1
f 10//2 12//2 11//2
f 12//3 14//3 13//3
f 14//4 16//4 15//4
f 16//5 18//5 17//5
f 18//6 20//6 19//6
f 20//7 22//7 21//7
f 22//8 24//8 23//8
f 24//9 26//9 25//9
f 26//10 28//10 27//10
f 28//11 30//11 29//11
f 30//12 32//12 31//12
f 32//13 34//13 33//13
f 34//14 36//14 35//14
f 36//15 38//15 37//15
f 38//16 40//16 39//16
f 147//17 148//17 41//17
f 41//17 39//17 40//17
f 40//17 146//17 147//17
f 149//78 43//78 42//78
f 42//18 41//18 148//18
f 150//79 149//79 42//79
f 43//19 45//19 44//19
f 45//20 47//20 46//20
f 47//21 49//21 48//21
f 49//22 51//22 50//22
f 51//23 53//23 52//23
f 53//24 55//24 54//24
f 55//25 57//25 56//25
f 57//26 59//26 58//26
f 59//27 61//27 60//27
f 61//28 63//28 62//28
f 63//29 65//29 64//29
f 65//30 67//30 66//30
f 67//31 69//31 68//31
f 69//32 71//32 70//32
f 71//33 73//33 72//33
f 140//34 141//34 74//34
f 72//34 73//34 139//34
f 140//34 74//34 72//34
f 142//35 143//35 76//35
f 76//35 75//35 74//35
f 74//35 141//35 142//35
f 76//36 78//36 77//36
f 78//37 80//37 79//37
f 80//38 82//38 81//38
f 82//39 84//39 83//39
f 84//40 86//40 85//40
f 86//41 88//41 87//41
f 88//42 90//42 89//42
f 90//43 92//43 91//43
f 92//44 94//44 93//44
f 94//45 96//45 95//45
f 96//46 98//46 97//46
f 98//47 100//47 99//47
f 100//48 102//48 101//48
f 102//49 104//49 103//49
f 104//50 106//50 105//50
f 106//51 108//51 107//51
f 108//52 110//52 109//52
f 110//53 112//53 111//53
f 112//54 114//54 113//54
f 132//55 134//55 115//55
f 115//55 113//55 114//55
f 114//55 133//55 132//55
f 136//56 135//56 117//56
f 117//56 116//56 115//56
f 115//56 134//56 136//56
f 117//57 119//57 118//57
f 119//58 121//58 120//58
f 121//59 123//59 122//59
f 123//60 125//60 124//60
f 125//61 127//61 126//61
f 127//62 129//62 128//62
f 152//63 146//63 40//63
f 40//63 38//63 36//63
f 36//63 34//63 32//63
f 32//63 30//63 28//63
f 28//63 26//63 24//63
f 24//63 22//63 20//63
f 20//63 18//63 16//63
f 16//63 14//63 12//63
f 12//63 10//63 6//63
f 6//63 131//63 129//63
f 129//63 127//63 125//63
f 125//63 123//63 121//63
f 121//63 119//63 117//63
f 117//63 135//63 137//63
f 138//63 133//63 114//63
f 121//63 117//63 137//63
f 138//63 114//63 112//63
f 125//63 121//63 137//63
f 138//63 112//63 110//63
f 129//63 125//63 137//63
f 138//63 110//63 108//63
f 6//63 129//63 137//63
f 138//63 108//63 106//63
f 12//63 6//63 137//63
f 138//63 106//63 104//63
f 16//63 12//63 137//63
f 138//63 104//63 102//63
f 16//63 137//63 138//63
f 24//63 20//63 16//63
f 32//63 28//63 24//63
f 40//63 36//63 32//63
f 152//63 40//63 32//63
f 32//63 24//63 16//63
f 138//63 102//63 100//63
f 32//63 16//63 138//63
f 152//63 32//63 138//63
f 138//63 100//63 98//63
f 98//63 96//63 94//63
f 94//63 92//63 90//63
f 90//63 88//63 86//63
f 86//63 84//63 82//63
f 82//63 80//63 78//63
f 78//63 76//63 143//63
f 78//63 143//63 144//63
f 86//63 82//63 78//63
f 94//63 90//63 86//63
f 138//63 98//63 94//63
f 151//63 152//63 138//63
f 43//63 149//63 151//63
f 47//63 45//63 43//63
f 51//63 49//63 47//63
f 55//63 53//63 51//63
f 59//63 57//63 55//63
f 63//63 61//63 59//63
f 67//63 65//63 63//63
f 71//63 69//63 67//63
f 139//63 73//63 71//63
f 145//63 139//63 71//63
f 71//63 67//63 63//63
f 63//63 59//63 55//63
f 55//63 51//63 47//63
f 47//63 43//63 151//63
f 151//63 138//63 94//63
f 94//63 86//63 78//63
f 94//63 78//63 144//63
f 47//63 151//63 94//63
f 63//63 55//63 47//63
f 145//63 71//63 63//63
f 47//63 94//63 144//63
f 145//63 63//63 47//63
f 129//64 131//64 130//64
f 131//65 6//65 1//65
f 128//66 130//66 1//66
f 1//66 9//66 11//66
f 11//66 13//66 15//66
f 15//66 17//66 19//66
f 19//66 21//66 23//66
f 23//66 25//66 27//66
f 27//66 29//66 31//66
f 31//66 33//66 35//66
f 35//66 37//66 39//66
f 39//66 41//66 42//66
f 42//66 44//66 46//66
f 46//66 48//66 50//66
f 50//66 52//66 54//66
f 54//66 56//66 58//66
f 58//66 60//66 62//66
f 62//66 64//66 66//66
f 66//66 68//66 70//66
f 70//66 72//66 74//66
f 74//66 75//66 77//66
f 77//66 79//66 81//66
f 81//66 83//66 85//66
f 85//66 87//66 89//66
f 89//66 91//66 93//66
f 93//66 95//66 97//66
f 97//66 99//66 101//66
f 101//66 103//66 105//66
f 105//66 107//66 109//66
f 109//66 111//66 113//66
f 113//66 115//66 116//66
f 116//66 118//66 120//66
f 120//66 122//66 124//66
f 124//66 126//66 128//66
f 128//66 1//66 11//66
f 11//66 15//66 19//66
f 19//66 23//66 27//66
f 27//66 31//66 35//66
f 35//66 39//66 42//66
f 42//66 46//66 50//66
f 50//66 54//66 58//66
f 58//66 62//66 66//66
f 66//66 70//66 74//66
f 74//66 77//66 81//66
f 81//66 85//66 89//66
f 89//66 93//66 97//66
f 97//66 101//66 105//66
f 105//66 109//66 113//66
f 113//66 116//66 120//66
f 120//66 124//66 128//66
f 128//66 11//66 19//66
f 19//66 27//66 35//66
f 35//66 42//66 50//66
f 50//66 58//66 66//66
f 66//66 74//66 81//66
f 81//66 89//66 97//66
f 97//66 105//66 113//66
f 113//66 120//66 128//66
f 128//66 19//66 35//66
f 35//66 50//66 66//66
f 66//66 81//66 97//66
f 97//66 113//66 128//66
f 128//66 35//66 66//66
f 136//63 134//63 132//63
f 132//63 5//63 8//63
f 136//67 8//67 137//67
f 132//68 133//68 138//68
f 5//69 138//69 137//69
f 142//63 141//63 140//63
f 140//63 3//63 7//63
f 142//70 7//70 144//70
f 140//71 139//71 145//71
f 7//72 3//72 145//72
f 147//63 2//63 4//63
f 4//63 150//63 148//63
f 4//73 151//73 149//73
f 2//74 147//74 146//74
f 4//75 2//75 152//75
f 154//1 156//1 155//1
f 156//2 158//2 157//2
f 158//3 160//3 159//3
f 160//4 162//4 161//4
f 162//5 164//5 163//5
f 164//6 166//6 165//6
f 166//7 168//7 167//7
f 168//8 170//8 169//8
f 170//9 172//9 171//9
f 172//10 174//10 173//10
f 174//11 176//11 175//11
f 176//12 178//12 177//12
f 178//13 180//13 179//13
f 180//14 182//14 181//14
f 182//15 184//15 183//15
f 184//16 186//16 185//16
f 186//17 188//17 187//17
f 188//18 190//18 189//18
f 190//19 192//19 191//19
f 192//20 194//20 193//20
f 194//21 196//21 195//21
f 196//22 198//22 197//22
f 198//23 200//23 199//23
f 200//24 202//24 201//24
f 202//25 204//25 203//25
f 204//26 206//26 205//26
f 206//27 208//27 207//27
f 208//28 210//28 209//28
f 210//29 212//29 211//29
f 212//30 214//30 213//30
f 214//31 216//31 215//31
f 216//32 218//32 217//32
f 218//33 220//33 219//33
f 220//34 222//34 221//34
f 222//35 224//35 223//35
f 224//36 226//36 225//36
f 226//37 228//37 227//37
f 228//38 230//38 229//38
f 230//39 232//39 231//39
f 232//40 234//40 233//40
f 234//41 236//41 235//41
f 236//42 238//42 237//42
f 238//43 240//43 239//43
f 240//44 242//44 241//44
f 242//45 244//45 243//45
f 244//46 246//46 245//46
f 246//47 248//47 247//47
f 248//48 250//48 249//48
f 250//49 252//49 251//49
f 252//50 254//50 253//50
f 254//51 256//51 255//51
f 256//52 258//52 257//52
f 258//53 260//53 259//53
f 260//54 262//54 261//54
f 262//55 264//55 263//55
f 264//56 266//56 265//56
f 266//57 268//57 267//57
f 268//58 270//58 269//58
f 270//59 272//59 271//59
f 272//60 274//60 273//60
f 274//61 276//61 275//61
f 276//62 278//62 277//62
f 329//63 254//63 252//63
f 252//63 250//63 248//63
f 248//63 246//63 244//63
f 244//63 242//63 240//63
f 240//63 238//63 236//63
f 236//63 234//63 232//63
f 232//63 230//63 228//63
f 228//63 226//63 224//63
f 224//63 222//63 335//63
f 224//63 335//63 331//63
f 232//63 228//63 224//63
f 240//63 236//63 232//63
f 248//63 244//63 240//63
f 329//63 252//63 248//63
f 326//63 329//63 248//63
f 248//63 240//63 232//63
f 232//63 224//63 331//63
f 232//63 331//63 330//63
f 325//63 326//63 248//63
f 293//63 325//63 248//63
f 232//63 330//63 300//63
f 232//63 300//63 299//63
f 292//63 293//63 248//63
f 294//63 292//63 248//63
f 232//63 299//63 301//63
f 232//63 301//63 297//63
f 294//63 248//63 232//63
f 296//63 294//63 232//63
f 232//63 297//63 298//63
f 232//63 298//63 302//63
f 295//63 296//63 232//63
f 336//63 335//63 222//63
f 222//63 220//63 218//63
f 218//63 216//63 214//63
f 214//63 212//63 210//63
f 210//63 208//63 206//63
f 206//63 204//63 202//63
f 202//63 200//63 198//63
f 198//63 196//63 194//63
f 194//63 192//63 190//63
f 190//63 188//63 186//63
f 186//63 184//63 182//63
f 182//63 180//63 178//63
f 178//63 176//63 174//63
f 174//63 172//63 170//63
f 170//63 168//63 166//63
f 166//63 164//63 162//63
f 162//63 160//63 158//63
f 158//63 156//63 154//63
f 154//63 280//63 278//63
f 278//63 276//63 274//63
f 274//63 272//63 270//63
f 270//63 268//63 266//63
f 266//63 264//63 262//63
f 262//63 260//63 258//63
f 258//63 256//63 254//63
f 254//63 329//63 328//63
f 254//63 328//63 327//63
f 262//63 258//63 254//63
f 270//63 266//63 262//63
f 278//63 274//63 270//63
f 158//63 154//63 278//63
f 166//63 162//63 158//63
f 174//63 170//63 166//63
f 182//63 178//63 174//63
f 190//63 186//63 182//63
f 198//63 194//63 190//63
f 206//63 202//63 198//63
f 214//63 210//63 206//63
f 222//63 218//63 214//63
f 338//63 336//63 222//63
f 304//63 338//63 222//63
f 222//63 214//63 206//63
f 206//63 198//63 190//63
f 190//63 182//63 174//63
f 174//63 166//63 158//63
f 158//63 278//63 270//63
f 270//63 262//63 254//63
f 254//63 327//63 282//63
f 254//63 282//63 281//63
f 304//63 222//63 206//63
f 303//63 304//63 206//63
f 270//63 254//63 281//63
f 270//63 281//63 285//63
f 307//63 303//63 206//63
f 306//63 307//63 206//63
f 270//63 285//63 284//63
f 270//63 284//63 283//63
f 305//63 306//63 206//63
f 313//63 305//63 206//63
f 270//63 283//63 291//63
f 270//63 291//63 287//63
f 308//63 313//63 206//63
f 309//63 308//63 206//63
f 270//63 287//63 286//63
f 270//63 286//63 290//63
f 309//63 206//63 190//63
f 310//63 309//63 190//63
f 158//63 270//63 290//63
f 158//63 290//63 288//63
f 311//63 310//63 190//63
f 312//63 311//63 190//63
f 158//63 288//63 289//63
f 158//63 289//63 334//63
f 340//63 312//63 190//63
f 339//63 340//63 190//63
f 158//63 334//63 333//63
f 158//63 333//63 332//63
f 342//63 339//63 190//63
f 343//63 342//63 190//63
f 158//63 332//63 337//63
f 158//63 337//63 344//63
f 341//63 343//63 190//63
f 322//63 341//63 190//63
f 174//63 158//63 344//63
f 174//63 344//63 315//63
f 322//63 190//63 174//63
f 323//63 322//63 174//63
f 174//63 315//63 314//63
f 174//63 314//63 318//63
f 320//63 323//63 174//63
f 321//63 320//63 174//63
f 174//63 318//63 317//63
f 174//63 317//63 316//63
f 319//63 321//63 174//63
f 174//63 316//63 324//63
f 278//64 280//64 279//64
f 280//65 154//65 153//65
f 350//66 355//66 167//66
f 167//66 169//66 171//66
f 171//66 173//66 175//66
f 175//66 177//66 179//66
f 179//66 181//66 183//66
f 183//66 185//66 187//66
f 187//66 189//66 191//66
f 191//66 193//66 195//66
f 195//66 197//66 199//66
f 199//66 201//66 203//66
f 203//66 205//66 207//66
f 207//66 209//66 211//66
f 211//66 213//66 215//66
f 215//66 217//66 219//66
f 219//66 221//66 223//66
f 223//66 225//66 227//66
f 227//66 229//66 231//66
f 231//66 377//66 373//66
f 231//66 373//66 372//66
f 223//66 227//66 231//66
f 215//66 219//66 223//66
f 207//66 211//66 215//66
f 199//66 203//66 207//66
f 191//66 195//66 199//66
f 183//66 187//66 191//66
f 175//66 179//66 183//66
f 167//66 171//66 175//66
f 351//66 350//66 167//66
f 352//66 351//66 167//66
f 167//66 175//66 183//66
f 183//66 191//66 199//66
f 199//66 207//66 215//66
f 215//66 223//66 231//66
f 231//66 372//66 376//66
f 231//66 376//66 374//66
f 352//66 167//66 183//66
f 353//66 352//66 183//66
f 215//66 231//66 374//66
f 215//66 374//66 375//66
f 354//66 353//66 183//66
f 394//66 354//66 183//66
f 215//66 375//66 407//66
f 215//66 407//66 406//66
f 393//66 394//66 183//66
f 397//66 393//66 183//66
f 215//66 406//66 391//66
f 215//66 391//66 390//66
f 395//66 397//66 183//66
f 396//66 395//66 183//66
f 215//66 390//66 398//66
f 215//66 398//66 357//66
f 396//66 183//66 199//66
f 365//66 396//66 199//66
f 199//66 215//66 357//66
f 199//66 357//66 356//66
f 364//66 365//66 199//66
f 363//66 364//66 199//66
f 199//66 356//66 360//66
f 199//66 360//66 359//66
f 362//66 363//66 199//66
f 361//66 362//66 199//66
f 199//66 359//66 358//66
f 366//66 361//66 199//66
f 369//66 377//66 231//66
f 231//66 233//66 235//66
f 235//66 237//66 239//66
f 239//66 241//66 243//66
f 243//66 245//66 247//66
f 247//66 249//66 251//66
f 251//66 253//66 255//66
f 255//66 257//66 259//66
f 259//66 261//66 263//66
f 263//66 265//66 267//66
f 267//66 269//66 271//66
f 271//66 273//66 275//66
f 275//66 277//66 279//66
f 279//66 153//66 155//66
f 155//66 157//66 159//66
f 159//66 161//66 163//66
f 163//66 165//66 167//66
f 167//66 355//66 347//66
f 167//66 347//66 348//66
f 159//66 163//66 167//66
f 279//66 155//66 159//66
f 271//66 275//66 279//66
f 263//66 267//66 271//66
f 255//66 259//66 263//66
f 247//66 251//66 255//66
f 239//66 243//66 247//66
f 231//66 235//66 239//66
f 371//66 369//66 231//66
f 370//66 371//66 231//66
f 231//66 239//66 247//66
f 247//66 255//66 263//66
f 263//66 271//66 279//66
f 279//66 159//66 167//66
f 167//66 348//66 349//66
f 167//66 349//66 345//66
f 370//66 231//66 247//66
f 367//66 370//66 247//66
f 279//66 167//66 345//66
f 279//66 345//66 346//66
f 368//66 367//66 247//66
f 402//66 368//66 247//66
f 279//66 346//66 392//66
f 279//66 392//66 389//66
f 403//66 402//66 247//66
f 400//66 403//66 247//66
f 279//66 389//66 408//66
f 279//66 408//66 404//66
f 399//66 400//66 247//66
f 401//66 399//66 247//66
f 279//66 404//66 405//66
f 279//66 405//66 386//66
f 401//66 247//66 263//66
f 379//66 401//66 263//66
f 263//66 279//66 386//66
f 263//66 386//66 385//66
f 378//66 379//66 263//66
f 380//66 378//66 263//66
f 263//66 385//66 387//66
f 263//66 387//66 383//66
f 382//66 380//66 263//66
f 381//66 382//66 263//66
f 263//66 383//66 384//66
f 388//66 381//66 263//66
f 333//33 334//33 389//33
f 332//34 333//34 392//34
f 337//35 332//35 346//35
f 344//36 337//36 345//36
f 315//37 344//37 349//37
f 314//38 315//38 348//38
f 318//39 314//39 347//39
f 317//40 318//40 355//40
f 317//41 350//41 351//41
f 316//42 351//42 352//42
f 324//43 352//43 353//43
f 319//44 353//44 354//44
f 321//45 354//45 394//45
f 320//46 394//46 393//46
f 323//47 393//47 397//47
f 322//48 397//48 395//48
f 341//49 395//49 396//49
f 343//50 396//50 365//50
f 342//51 365//51 364//51
f 339//52 364//52 363//52
f 340//53 363//53 362//53
f 312//54 362//54 361//54
f 311//55 361//55 366//55
f 310//56 366//56 358//56
f 309//57 358//57 359//57
f 308//58 359//58 360//58
f 313//59 360//59 356//59
f 305//60 356//60 357//60
f 306//61 357//61 398//61
f 307//62 398//62 390//62
f 303//64 390//64 391//64
f 304//65 391//65 406//65
f 338//1 406//1 407//1
f 336//2 407//2 375//2
f 335//3 375//3 374//3
f 331//4 374//4 376//4
f 330//5 376//5 372//5
f 300//6 372//6 373//6
f 299//7 373//7 377//7
f 301//8 377//8 369//8
f 298//9 297//9 369//9
f 302//10 298//10 371//10
f 295//11 302//11 370//11
f 296//12 295//12 367//12
f 294//13 296//13 368//13
f 292//14 294//14 402//14
f 293//15 292//15 403//15
f 325//16 293//16 400//16
f 326//17 325//17 399//17
f 329//18 326//18 401//18
f 328//19 329//19 379//19
f 327//20 328//20 378//20
f 282//21 327//21 380//21
f 281//22 282//22 382//22
f 285//23 281//23 381//23
f 284//24 285//24 388//24
f 283//80 284//80 384//80
f 291//26 283//26 383//26
f 287//27 291//27 387//27
f 286//28 287//28 385//28
f 290//29 286//29 386//29
f 288//30 290//30 405//30
f 289//31 288//31 404//31
f 334//32 289//32 408//32
