# Blender 5.2.2 LTS
# www.blender.org
mtllib cable_loop.mtl
o cable_loop
v -0.077942 0.045000 21.570000
v -0.045000 0.077942 21.570000
v -0.000000 0.090000 21.570000
v 0.045000 0.077942 21.570000
v 0.077942 0.045000 21.570000
v 0.090000 0.000000 21.570000
v 0.077942 -0.045000 21.570000
v 0.045000 -0.077942 21.570000
v 0.000000 -0.090000 21.570000
v -0.045000 -0.077942 21.570000
v -0.077942 -0.045000 21.570000
v -0.090000 -0.000000 21.570000
v -0.066567 0.056375 20.746052
v -0.033644 0.089298 20.747650
v 0.011339 0.101339 20.749037
v 0.056329 0.089272 20.749836
v 0.089272 0.056329 20.749836
v 0.101339 0.011339 20.749037
v 0.089298 -0.033644 20.747650
v 0.056375 -0.066567 20.746052
v 0.011392 -0.078608 20.744665
v -0.033598 -0.066541 20.743866
v -0.066540 -0.033598 20.743866
v -0.078608 0.011392 20.744665
v -0.033654 0.089289 19.800070
v -0.000772 0.122171 19.802893
v 0.044176 0.134176 19.805334
v 0.089146 0.122088 19.806746
v 0.122088 0.089146 19.806746
v 0.134176 0.044176 19.805334
v 0.122171 -0.000772 19.802893
v 0.089289 -0.033653 19.800072
v 0.044341 -0.045659 19.797628
v -0.000629 -0.033571 19.796217
v -0.033571 -0.000629 19.796217
v -0.045659 0.044341 19.797628
v 0.018987 0.141929 18.768093
v 0.051818 0.174760 18.771908
v 0.096722 0.186722 18.775213
v 0.141667 0.174609 18.777121
v 0.174609 0.141667 18.777121
v 0.186722 0.096722 18.775213
v 0.174761 0.051818 18.771908
v 0.141929 0.018987 18.768093
v 0.097025 0.007025 18.764788
v 0.052080 0.019138 18.762880
v 0.019138 0.052080 18.762880
v 0.007025 0.097025 18.764788
v 0.089548 0.212490 17.686153
v 0.122320 0.245262 17.690884
v 0.167172 0.257173 17.694979
v 0.212087 0.245030 17.697344
v 0.245030 0.212087 17.697344
v 0.257173 0.167173 17.694979
v 0.245262 0.122320 17.690884
v 0.212490 0.089548 17.686153
v 0.167638 0.077637 17.682058
v 0.122723 0.089780 17.679693
v 0.089780 0.122722 17.679693
v 0.077637 0.167637 17.682058
v 0.176227 0.299169 16.590317
v 0.208925 0.331868 16.595978
v 0.253714 0.343714 16.600882
v 0.298592 0.331534 16.603712
v 0.331534 0.298592 16.603712
v 0.343714 0.253714 16.600882
v 0.331868 0.208925 16.595978
v 0.299170 0.176227 16.590317
v 0.254381 0.164381 16.585413
v 0.209503 0.176561 16.582582
v 0.176561 0.209503 16.582582
v 0.164381 0.254381 16.585413
v 0.277225 0.400167 15.516644
v 0.309824 0.432766 15.523355
v 0.354526 0.444526 15.529165
v 0.399354 0.432297 15.532520
v 0.432297 0.399354 15.532520
v 0.444526 0.354526 15.529165
v 0.432766 0.309824 15.523355
v 0.400167 0.277225 15.516644
v 0.355465 0.265464 15.510834
v 0.310636 0.277694 15.507479
v 0.277694 0.310636 15.507479
v 0.265464 0.355464 15.510834
v 0.390746 0.513688 14.501183
v 0.423198 0.546141 14.509186
v 0.467774 0.557774 14.516117
v 0.512529 0.545472 14.520119
v 0.545472 0.512529 14.520119
v 0.557774 0.467774 14.516117
v 0.546141 0.423198 14.509186
v 0.513688 0.390746 14.501183
v 0.469112 0.379112 14.494251
v 0.424357 0.391415 14.490250
v 0.391415 0.424357 14.490250
v 0.379112 0.469112 14.494251
v 0.515009 0.637952 13.579931
v 0.547220 0.670162 13.589697
v 0.591586 0.681586 13.598153
v 0.636220 0.669163 13.603035
v 0.669163 0.636220 13.603035
v 0.681586 0.591586 13.598153
v 0.670162 0.547220 13.589697
v 0.637952 0.515009 13.579931
v 0.593585 0.503585 13.571475
v 0.548951 0.516009 13.566593
v 0.516009 0.548951 13.566593
v 0.503585 0.593585 13.571475
v 0.648275 0.771218 12.788767
v 0.680017 0.802959 12.801231
v 0.723976 0.813977 12.812026
v 0.768376 0.801318 12.818259
v 0.801318 0.768376 12.818259
v 0.813977 0.723977 12.812027
v 0.802959 0.680017 12.801231
v 0.771218 0.648275 12.788767
v 0.727258 0.637258 12.777972
v 0.682858 0.649916 12.771739
v 0.649916 0.682858 12.771739
v 0.637258 0.727258 12.777971
v 0.788973 0.911916 12.163181
v 0.819549 0.942491 12.180521
v 0.862499 0.952499 12.195539
v 0.906315 0.939258 12.204209
v 0.939258 0.906315 12.204209
v 0.952499 0.862499 12.195539
v 0.942491 0.819549 12.180521
v 0.911916 0.788973 12.163181
v 0.868966 0.778966 12.148164
v 0.825149 0.792207 12.139493
v 0.792207 0.825149 12.139493
v 0.778966 0.868966 12.148164
v 0.936613 1.059555 11.737251
v 0.962695 1.085637 11.765709
v 1.001754 1.091754 11.790355
v 1.043323 1.076266 11.804584
v 1.076266 1.043324 11.804584
v 1.091754 1.001754 11.790355
v 1.085637 0.962695 11.765709
v 1.059556 0.936613 11.737251
v 1.020497 0.930497 11.712605
v 0.978927 0.945985 11.698377
v 0.945985 0.978927 11.698377
v 0.930497 1.020497 11.712605
v 1.094741 1.217683 11.547327
v 1.102298 1.225241 11.592672
v 1.125314 1.215314 11.631942
v 1.157622 1.190564 11.654614
v 1.190564 1.157622 11.654614
v 1.215314 1.125314 11.631942
v 1.225241 1.102298 11.592672
v 1.217683 1.094741 11.547327
v 1.194667 1.104667 11.508058
v 1.162359 1.129417 11.485385
v 1.129417 1.162359 11.485385
v 1.104667 1.194667 11.508058
v 0.000000 0.200000 19.029999
v 0.000000 0.200000 19.110001
v 0.026105 0.198289 19.029999
v 0.026105 0.198289 19.110001
v 0.051764 0.193185 19.029999
v 0.051764 0.193185 19.110001
v 0.076537 0.184776 19.029999
v 0.076537 0.184776 19.110001
v 0.100000 0.173205 19.029999
v 0.100000 0.173205 19.110001
v 0.121752 0.158671 19.029999
v 0.121752 0.158671 19.110001
v 0.141421 0.141421 19.029999
v 0.141421 0.141421 19.110001
v 0.158671 0.121752 19.029999
v 0.158671 0.121752 19.110001
v 0.173205 0.100000 19.029999
v 0.173205 0.100000 19.110001
v 0.184776 0.076537 19.029999
v 0.184776 0.076537 19.110001
v 0.193185 0.051764 19.029999
v 0.193185 0.051764 19.110001
v 0.198289 0.026105 19.029999
v 0.198289 0.026105 19.110001
v 0.200000 0.000000 19.029999
v 0.200000 0.000000 19.110001
v 0.198289 -0.026105 19.029999
v 0.198289 -0.026105 19.110001
v 0.193185 -0.051764 19.029999
v 0.193185 -0.051764 19.110001
v 0.184776 -0.076537 19.029999
v 0.184776 -0.076537 19.110001
v 0.173205 -0.100000 19.029999
v 0.173205 -0.100000 19.110001
v 0.158671 -0.121752 19.029999
v 0.158671 -0.121752 19.110001
v 0.141421 -0.141421 19.029999
v 0.141421 -0.141421 19.110001
v 0.121752 -0.158671 19.029999
v 0.121752 -0.158671 19.110001
v 0.100000 -0.173205 19.029999
v 0.100000 -0.173205 19.110001
v 0.076537 -0.184776 19.029999
v 0.076537 -0.184776 19.110001
v 0.051764 -0.193185 19.029999
v 0.051764 -0.193185 19.110001
v 0.026105 -0.198289 19.029999
v 0.026105 -0.198289 19.110001
v 0.000000 -0.200000 19.029999
v 0.000000 -0.200000 19.110001
v -0.026105 -0.198289 19.029999
v -0.026105 -0.198289 19.110001
v -0.051764 -0.193185 19.029999
v -0.051764 -0.193185 19.110001
v -0.076537 -0.184776 19.029999
v -0.076537 -0.184776 19.110001
v -0.100000 -0.173205 19.029999
v -0.100000 -0.173205 19.110001
v -0.121752 -0.158671 19.029999
v -0.121752 -0.158671 19.110001
v -0.141421 -0.141421 19.029999
v -0.141421 -0.141421 19.110001
v -0.158671 -0.121752 19.029999
v -0.158671 -0.121752 19.110001
v -0.173205 -0.100000 19.029999
v -0.173205 -0.100000 19.110001
v -0.184776 -0.076537 19.029999
v -0.184776 -0.076537 19.110001
v -0.193185 -0.051764 19.029999
v -0.193185 -0.051764 19.110001
v -0.198289 -0.026105 19.029999
v -0.198289 -0.026105 19.110001
v -0.200000 0.000000 19.029999
v -0.200000 0.000000 19.110001
v -0.198289 0.026105 19.029999
v -0.198289 0.026105 19.110001
v -0.193185 0.051764 19.029999
v -0.193185 0.051764 19.110001
v -0.184776 0.076537 19.029999
v -0.184776 0.076537 19.110001
v -0.173205 0.100000 19.029999
v -0.173205 0.100000 19.110001
v -0.158671 0.121752 19.029999
v -0.158671 0.121752 19.110001
v -0.141421 0.141421 19.029999
v -0.141421 0.141421 19.110001
v -0.121752 0.158671 19.029999
v -0.121752 0.158671 19.110001
v -0.100000 0.173205 19.029999
v -0.100000 0.173205 19.110001
v -0.076537 0.184776 19.029999
v -0.076537 0.184776 19.110001
v -0.051764 0.193185 19.029999
v -0.051764 0.193185 19.110001
v -0.026105 0.198289 19.029999
v -0.026105 0.198289 19.110001
vn -0.8676 0.4973 -0.0051
vn -0.9997 -0.0014 -0.0243
vn -0.9999 -0.0023 -0.0138
vn -0.5027 0.8645 0.0050
vn -0.8671 0.4981 -0.0090
vn -0.0023 0.9999 0.0138
vn -0.5021 0.8647 0.0088
vn 0.4992 0.8663 0.0189
vn -0.0020 0.9997 0.0242
vn 0.8659 0.4990 0.0332
vn 0.8663 0.4992 0.0189
vn 0.9997 -0.0020 0.0242
vn 0.9999 -0.0023 0.0138
vn 0.8647 -0.5021 0.0088
vn 0.8645 -0.5027 0.0050
vn 0.4981 -0.8671 -0.0090
vn 0.4973 -0.8676 -0.0051
vn -0.0014 -0.9997 -0.0243
vn -0.0023 -0.9999 -0.0138
vn -0.5001 -0.8653 -0.0332
vn -0.5006 -0.8655 -0.0189
vn -0.8653 -0.5001 -0.0332
vn -0.8655 -0.5006 -0.0189
vn -0.9991 -0.0004 -0.0429
vn -0.8666 0.4988 -0.0158
vn -0.5019 0.8648 0.0156
vn 0.4990 0.8659 0.0332
vn -0.0022 0.9991 0.0428
vn 0.8650 0.4983 0.0585
vn 0.9991 -0.0022 0.0428
vn 0.8648 -0.5019 0.0156
vn 0.4988 -0.8666 -0.0158
vn -0.0004 -0.9991 -0.0429
vn -0.4992 -0.8645 -0.0585
vn -0.8645 -0.4992 -0.0585
vn -0.9983 0.0005 -0.0580
vn -0.8662 0.4992 -0.0213
vn -0.5020 0.8646 0.0211
vn 0.4983 0.8650 0.0585
vn -0.0028 0.9983 0.0578
vn 0.8639 0.4973 0.0791
vn 0.9983 -0.0028 0.0578
vn 0.8646 -0.5020 0.0211
vn 0.4992 -0.8662 -0.0213
vn 0.0005 -0.9983 -0.0580
vn -0.4981 -0.8635 -0.0791
vn -0.8635 -0.4981 -0.0791
vn -0.9974 0.0015 -0.0719
vn -0.8658 0.4996 -0.0264
vn -0.5023 0.8643 0.0261
vn 0.4973 0.8639 0.0791
vn -0.0037 0.9974 0.0717
vn 0.8627 0.4961 0.0980
vn 0.9974 -0.0037 0.0717
vn 0.8643 -0.5023 0.0261
vn 0.4996 -0.8658 -0.0264
vn 0.0015 -0.9974 -0.0719
vn -0.4968 -0.8623 -0.0981
vn -0.8623 -0.4968 -0.0981
vn -0.8655 0.4999 -0.0316
vn -0.5028 0.8638 0.0313
vn -0.0049 0.9963 0.0858
vn 0.4946 0.8612 0.1174
vn 0.4961 0.8627 0.0980
vn 0.8612 0.4946 0.1174
vn 0.9963 -0.0049 0.0858
vn 0.8638 -0.5028 0.0313
vn 0.4999 -0.8655 -0.0316
vn 0.0025 -0.9963 -0.0860
vn -0.8607 -0.4953 -0.1174
vn -0.9963 0.0025 -0.0860
vn -0.8651 0.5002 -0.0375
vn -0.5036 0.8632 0.0370
vn -0.0066 0.9948 0.1017
vn 0.4924 0.8592 0.1391
vn 0.8592 0.4924 0.1391
vn 0.9948 -0.0066 0.1017
vn 0.8632 -0.5036 0.0370
vn 0.5002 -0.8651 -0.0375
vn -0.4953 -0.8607 -0.1174
vn 0.0038 -0.9948 -0.1020
vn -0.8586 -0.4933 -0.1391
vn -0.9948 0.0038 -0.1020
vn -0.8645 0.5006 -0.0449
vn -0.5049 0.8621 0.0440
vn -0.0093 0.9926 0.1212
vn 0.4893 0.8562 0.1659
vn 0.8562 0.4893 0.1659
vn 0.9926 -0.0093 0.1212
vn 0.8621 -0.5049 0.0440
vn 0.5006 -0.8645 -0.0449
vn -0.4933 -0.8586 -0.1391
vn 0.0056 -0.9926 -0.1217
vn -0.8555 -0.4904 -0.1660
vn -0.9926 0.0056 -0.1217
vn -0.8637 0.5010 -0.0550
vn -0.5071 0.8602 0.0535
vn -0.0137 0.9889 0.1478
vn 0.4840 0.8513 0.2024
vn 0.8513 0.4840 0.2024
vn 0.9889 -0.0137 0.1478
vn 0.8602 -0.5071 0.0535
vn 0.5010 -0.8637 -0.0550
vn -0.4904 -0.8555 -0.1660
vn 0.0085 -0.9889 -0.1486
vn -0.8504 -0.4857 -0.2025
vn -0.9889 0.0085 -0.1486
vn -0.8621 0.5017 -0.0708
vn -0.5116 0.8565 0.0677
vn -0.0225 0.9819 0.1883
vn 0.4738 0.8420 0.2582
vn 0.8420 0.4738 0.2582
vn 0.9819 -0.0225 0.1883
vn 0.8565 -0.5116 0.0677
vn 0.5017 -0.8621 -0.0708
vn -0.4857 -0.8504 -0.2025
vn 0.0140 -0.9817 -0.1901
vn -0.8403 -0.4764 -0.2587
vn -0.9817 0.0140 -0.1901
vn -0.8581 0.5036 -0.1007
vn -0.5225 0.8477 0.0919
vn -0.0437 0.9646 0.2599
vn 0.4487 0.8190 0.3576
vn 0.8190 0.4487 0.3576
vn 0.9646 -0.0437 0.2599
vn 0.8477 -0.5225 0.0919
vn 0.5036 -0.8580 -0.1007
vn -0.4764 -0.8403 -0.2587
vn 0.0278 -0.9635 -0.2662
vn -0.8149 -0.4533 -0.3612
vn -0.9635 0.0278 -0.2662
vn -0.8383 0.5153 -0.1782
vn -0.5590 0.8176 0.1380
vn -0.1184 0.9027 0.4135
vn 0.3592 0.7366 0.5730
vn 0.7366 0.3592 0.5730
vn 0.9027 -0.1184 0.4135
vn 0.8176 -0.5590 0.1380
vn 0.5153 -0.8383 -0.1782
vn -0.4533 -0.8149 -0.3612
vn 0.0853 -0.8901 -0.4477
vn -0.7136 -0.3604 -0.6007
vn -0.8901 0.0853 -0.4477
vn -0.8225 0.4969 -0.2768
vn -0.5971 0.7874 0.1535
vn -0.1683 0.8334 0.5265
vn 0.2848 0.6408 0.7129
vn 0.6408 0.2848 0.7129
vn 0.8334 -0.1683 0.5265
vn 0.7874 -0.5971 0.1535
vn 0.4969 -0.8225 -0.2768
vn -0.3604 -0.7136 -0.6007
vn 0.0985 -0.7955 -0.5979
vn -0.5925 -0.2831 -0.7541
vn -0.7955 0.0985 -0.5979
vn 0.0654 0.9979 -0.0000
vn 0.1951 0.9808 -0.0000
vn 0.3214 0.9469 -0.0000
vn 0.4423 0.8969 -0.0000
vn 0.5556 0.8315 -0.0000
vn 0.6593 0.7518 -0.0000
vn 0.7518 0.6593 -0.0000
vn 0.8315 0.5556 -0.0000
vn 0.8969 0.4423 -0.0000
vn 0.9469 0.3214 -0.0000
vn 0.9808 0.1951 -0.0000
vn 0.9979 0.0654 -0.0000
vn 0.9979 -0.0654 -0.0000
vn 0.9808 -0.1951 -0.0000
vn 0.9469 -0.3214 -0.0000
vn 0.8969 -0.4423 -0.0000
vn 0.8315 -0.5556 -0.0000
vn 0.7518 -0.6593 -0.0000
vn 0.6593 -0.7518 -0.0000
vn 0.5556 -0.8315 -0.0000
vn 0.4423 -0.8969 -0.0000
vn 0.3214 -0.9469 -0.0000
vn 0.1951 -0.9808 -0.0000
vn 0.0654 -0.9979 -0.0000
vn -0.0654 -0.9979 -0.0000
vn -0.1951 -0.9808 -0.0000
vn -0.3214 -0.9469 -0.0000
vn -0.4423 -0.8969 -0.0000
vn -0.5556 -0.8315 -0.0000
vn -0.6593 -0.7518 -0.0000
vn -0.7518 -0.6593 -0.0000
vn -0.8315 -0.5556 -0.0000
vn -0.8969 -0.4423 -0.0000
vn -0.9469 -0.3214 -0.0000
vn -0.9808 -0.1951 -0.0000
vn -0.9979 -0.0654 -0.0000
vn -0.9979 0.0654 -0.0000
vn -0.9808 0.1951 -0.0000
vn -0.9469 0.3214 -0.0000
vn -0.8969 0.4423 -0.0000
vn -0.8315 0.5556 -0.0000
vn -0.7518 0.6593 -0.0000
vn -0.6593 0.7518 -0.0000
vn -0.5556 0.8315 -0.0000
vn -0.4423 0.8969 -0.0000
vn -0.3214 0.9469 -0.0000
vn -0.0000 -0.0000 1.0000
vn -0.1951 0.9808 -0.0000
vn -0.0654 0.9979 -0.0000
vn -0.0000 -0.0000 -1.0000
vn -0.2831 -0.5925 -0.7541
vn -0.0001 -0.0000 1.0000
vn 0.0002 -0.0000 1.0000
vn -0.0007 -0.0000 1.0000
vn 0.0001 -0.0000 1.0000
vn -0.0002 -0.0000 1.0000
vn 0.0007 -0.0000 1.0000
vn -0.0003 -0.0000 -1.0000
vn 0.0003 -0.0000 -1.0000
vn 0.0002 -0.0000 -1.0000
vn -0.0002 -0.0000 -1.0000
s 1
usemtl cable_black
f 1//1 24//2 12//3
f 2//4 13//5 1//1
f 3//6 14//7 2//4
f 4//8 15//9 3//6
f 17//10 4//8 5//11
f 18//12 5//11 6//13
f 19//14 6//13 7//15
f 20//16 7//15 8//17
f 21//18 8//17 9//19
f 22//20 9//19 10//21
f 23//22 10//21 11//23
f 12//3 23//22 11//23
f 13//5 36//24 24//2
f 14//7 25//25 13//5
f 15//9 26//26 14//7
f 16//27 27//28 15//9
f 29//29 16//27 17//10
f 30//30 17//10 18//12
f 31//31 18//12 19//14
f 32//32 19//14 20//16
f 33//33 20//16 21//18
f 34//34 21//18 22//20
f 35//35 22//20 23//22
f 24//2 35//35 23//22
f 25//25 48//36 36//24
f 26//26 37//37 25//25
f 27//28 38//38 26//26
f 28//39 39//40 27//28
f 41//41 28//39 29//29
f 42//42 29//29 30//30
f 43//43 30//30 31//31
f 44//44 31//31 32//32
f 45//45 32//32 33//33
f 46//46 33//33 34//34
f 47//47 34//34 35//35
f 36//24 47//47 35//35
f 37//37 60//48 48//36
f 38//38 49//49 37//37
f 39//40 50//50 38//38
f 40//51 51//52 39//40
f 53//53 40//51 41//41
f 54//54 41//41 42//42
f 55//55 42//42 43//43
f 56//56 43//43 44//44
f 57//57 44//44 45//45
f 58//58 45//45 46//46
f 59//59 46//46 47//47
f 48//36 59//59 47//47
f 61//60 60//48 49//49
f 62//61 49//49 50//50
f 63//62 50//50 51//52
f 64//63 51//52 52//64
f 65//65 52//64 53//53
f 54//54 65//65 53//53
f 55//55 66//66 54//54
f 56//56 67//67 55//55
f 57//57 68//68 56//56
f 58//58 69//69 57//57
f 71//70 58//58 59//59
f 72//71 59//59 60//48
f 73//72 72//71 61//60
f 74//73 61//60 62//61
f 75//74 62//61 63//62
f 76//75 63//62 64//63
f 77//76 64//63 65//65
f 66//66 77//76 65//65
f 67//67 78//77 66//66
f 68//68 79//78 67//67
f 69//69 80//79 68//68
f 70//80 81//81 69//69
f 83//82 70//80 71//70
f 84//83 71//70 72//71
f 85//84 84//83 73//72
f 86//85 73//72 74//73
f 87//86 74//73 75//74
f 88//87 75//74 76//75
f 89//88 76//75 77//76
f 78//77 89//88 77//76
f 79//78 90//89 78//77
f 80//79 91//90 79//78
f 81//81 92//91 80//79
f 82//92 93//93 81//81
f 95//94 82//92 83//82
f 96//95 83//82 84//83
f 97//96 96//95 85//84
f 98//97 85//84 86//85
f 99//98 86//85 87//86
f 100//99 87//86 88//87
f 101//100 88//87 89//88
f 90//89 101//100 89//88
f 91//90 102//101 90//89
f 92//91 103//102 91//90
f 93//93 104//103 92//91
f 94//104 105//105 93//93
f 107//106 94//104 95//94
f 108//107 95//94 96//95
f 109//108 108//107 97//96
f 110//109 97//96 98//97
f 111//110 98//97 99//98
f 112//111 99//98 100//99
f 113//112 100//99 101//100
f 102//101 113//112 101//100
f 103//102 114//113 102//101
f 104//103 115//114 103//102
f 105//105 116//115 104//103
f 106//116 117//117 105//105
f 119//118 106//116 107//106
f 120//119 107//106 108//107
f 121//120 120//119 109//108
f 122//121 109//108 110//109
f 123//122 110//109 111//110
f 124//123 111//110 112//111
f 125//124 112//111 113//112
f 114//113 125//124 113//112
f 115//114 126//125 114//113
f 116//115 127//126 115//114
f 117//117 128//127 116//115
f 118//128 129//129 117//117
f 131//130 118//128 119//118
f 132//131 119//118 120//119
f 133//132 132//131 121//120
f 134//133 121//120 122//121
f 135//134 122//121 123//122
f 136//135 123//122 124//123
f 137//136 124//123 125//124
f 126//125 137//136 125//124
f 127//126 138//137 126//125
f 128//127 139//138 127//126
f 129//129 140//139 128//127
f 130//140 141//141 129//129
f 143//142 130//140 131//130
f 144//143 131//130 132//131
f 145//144 144//143 133//132
f 146//145 133//132 134//133
f 147//146 134//133 135//134
f 148//147 135//134 136//135
f 149//148 136//135 137//136
f 138//137 149//148 137//136
f 139//138 150//149 138//137
f 140//139 151//150 139//138
f 141//141 152//151 140//139
f 142//152 153//153 141//141
f 155//154 142//152 143//142
f 156//155 143//142 144//143
f 1//1 13//5 24//2
f 2//4 14//7 13//5
f 3//6 15//9 14//7
f 4//8 16//27 15//9
f 17//10 16//27 4//8
f 18//12 17//10 5//11
f 19//14 18//12 6//13
f 20//16 19//14 7//15
f 21//18 20//16 8//17
f 22//20 21//18 9//19
f 23//22 22//20 10//21
f 12//3 24//2 23//22
f 13//5 25//25 36//24
f 14//7 26//26 25//25
f 15//9 27//28 26//26
f 16//27 28//39 27//28
f 29//29 28//39 16//27
f 30//30 29//29 17//10
f 31//31 30//30 18//12
f 32//32 31//31 19//14
f 33//33 32//32 20//16
f 34//34 33//33 21//18
f 35//35 34//34 22//20
f 24//2 36//24 35//35
f 25//25 37//37 48//36
f 26//26 38//38 37//37
f 27//28 39//40 38//38
f 28//39 40//51 39//40
f 41//41 40//51 28//39
f 42//42 41//41 29//29
f 43//43 42//42 30//30
f 44//44 43//43 31//31
f 45//45 44//44 32//32
f 46//46 45//45 33//33
f 47//47 46//46 34//34
f 36//24 48//36 47//47
f 37//37 49//49 60//48
f 38//38 50//50 49//49
f 39//40 51//52 50//50
f 40//51 52//64 51//52
f 53//53 52//64 40//51
f 54//54 53//53 41//41
f 55//55 54//54 42//42
f 56//56 55//55 43//43
f 57//57 56//56 44//44
f 58//58 57//57 45//45
f 59//59 58//58 46//46
f 48//36 60//48 59//59
f 61//60 72//71 60//48
f 62//61 61//60 49//49
f 63//62 62//61 50//50
f 64//63 63//62 51//52
f 65//65 64//63 52//64
f 54//54 66//66 65//65
f 55//55 67//67 66//66
f 56//56 68//68 67//67
f 57//57 69//69 68//68
f 58//58 70//80 69//69
f 71//70 70//80 58//58
f 72//71 71//70 59//59
f 73//72 84//83 72//71
f 74//73 73//72 61//60
f 75//74 74//73 62//61
f 76//75 75//74 63//62
f 77//76 76//75 64//63
f 66//66 78//77 77//76
f 67//67 79//78 78//77
f 68//68 80//79 79//78
f 69//69 81//81 80//79
f 70//80 82//92 81//81
f 83//82 82//92 70//80
f 84//83 83//82 71//70
f 85//84 96//95 84//83
f 86//85 85//84 73//72
f 87//86 86//85 74//73
f 88//87 87//86 75//74
f 89//88 88//87 76//75
f 78//77 90//89 89//88
f 79//78 91//90 90//89
f 80//79 92//91 91//90
f 81//81 93//93 92//91
f 82//92 94//104 93//93
f 95//94 94//104 82//92
f 96//95 95//94 83//82
f 97//96 108//107 96//95
f 98//97 97//96 85//84
f 99//98 98//97 86//85
f 100//99 99//98 87//86
f 101//100 100//99 88//87
f 90//89 102//101 101//100
f 91//90 103//102 102//101
f 92//91 104//103 103//102
f 93//93 105//105 104//103
f 94//104 106//116 105//105
f 107//106 106//116 94//104
f 108//107 107//106 95//94
f 109//108 120//119 108//107
f 110//109 109//108 97//96
f 111//110 110//109 98//97
f 112//111 111//110 99//98
f 113//112 112//111 100//99
f 102//101 114//113 113//112
f 103//102 115//114 114//113
f 104//103 116//115 115//114
f 105//105 117//117 116//115
f 106//116 118//128 117//117
f 119//118 118//128 106//116
f 120//119 119//118 107//106
f 121//120 132//131 120//119
f 122//121 121//120 109//108
f 123//122 122//121 110//109
f 124//123 123//122 111//110
f 125//124 124//123 112//111
f 114//113 126//125 125//124
f 115//114 127//126 126//125
f 116//115 128//127 127//126
f 117//117 129//129 128//127
f 118//128 130//140 129//129
f 131//130 130//140 118//128
f 132//131 131//130 119//118
f 133//132 144//143 132//131
f 134//133 133//132 121//120
f 135//134 134//133 122//121
f 136//135 135//134 123//122
f 137//136 136//135 124//123
f 126//125 138//137 137//136
f 127//126 139//138 138//137
f 128//127 140//139 139//138
f 129//129 141//141 140//139
f 130//140 142//152 141//141
f 143//142 142//152 130//140
f 144//143 143//142 131//130
f 145//144 156//155 144//143
f 146//145 145//144 133//132
f 147//146 146//145 134//133
f 148//147 147//146 135//134
f 149//148 148//147 136//135
f 138//137 150//149 149//148
f 139//138 151//150 150//149
f 140//139 152//151 151//150
f 141//141 153//153 152//151
f 142//152 154//206 153//153
f 155//154 154//206 142//152
f 156//155 155//154 143//142
s 0
usemtl steel_grey
f 158//156 159//156 157//156
f 160//157 161//157 159//157
f 162//158 163//158 161//158
f 164//159 165//159 163//159
f 166//160 167//160 165//160
f 168//161 169//161 167//161
f 170//162 171//162 169//162
f 172//163 173//163 171//163
f 174//164 175//164 173//164
f 176//165 177//165 175//165
f 178//166 179//166 177//166
f 180//167 181//167 179//167
f 182//168 183//168 181//168
f 184//169 185//169 183//169
f 186//170 187//170 185//170
f 188//171 189//171 187//171
f 190//172 191//172 189//172
f 192//173 193//173 191//173
f 194//174 195//174 193//174
f 196//175 197//175 195//175
f 198//176 199//176 197//176
f 200//177 201//177 199//177
f 202//178 203//178 201//178
f 204//179 205//179 203//179
f 206//180 207//180 205//180
f 208//181 209//181 207//181
f 210//182 211//182 209//182
f 212//183 213//183 211//183
f 214//184 215//184 213//184
f 216//185 217//185 215//185
f 218//186 219//186 217//186
f 220//187 221//187 219//187
f 222//188 223//188 221//188
f 224//189 225//189 223//189
f 226//190 227//190 225//190
f 228//191 229//191 227//191
f 230//192 231//192 229//192
f 232//193 233//193 231//193
f 234//194 235//194 233//194
f 236//195 237//195 235//195
f 238//196 239//196 237//196
f 240//197 241//197 239//197
f 242//198 243//198 241//198
f 244//199 245//199 243//199
f 246//200 247//200 245//200
f 248//201 249//201 247//201
f 226//202 194//202 162//202
f 250//203 251//203 249//203
f 252//204 157//204 251//204
f 187//205 219//205 251//205
f 158//156 160//156 159//156
f 160//157 162//157 161//157
f 162//158 164//158 163//158
f 164//159 166//159 165//159
f 166//160 168//160 167//160
f 168//161 170//161 169//161
f 170//162 172//162 171//162
f 172//163 174//163 173//163
f 174//164 176//164 175//164
f 176//165 178//165 177//165
f 178//166 180//166 179//166
f 180//167 182//167 181//167
f 182//168 184//168 183//168
f 184//169 186//169 185//169
f 186//170 188//170 187//170
f 188//171 190//171 189//171
f 190//172 192//172 191//172
f 192//173 194//173 193//173
f 194//174 196//174 195//174
f 196//175 198//175 197//175
f 198//176 200//176 199//176
f 200//177 202//177 201//177
f 202//178 204//178 203//178
f 204//179 206//179 205//179
f 206//180 208//180 207//180
f 208//181 210//181 209//181
f 210//182 212//182 211//182
f 212//183 214//183 213//183
f 214//184 216//184 215//184
f 216//185 218//185 217//185
f 218//186 220//186 219//186
f 220//187 222//187 221//187
f 222//188 224//188 223//188
f 224//189 226//189 225//189
f 226//190 228//190 227//190
f 228//191 230//191 229//191
f 230//192 232//192 231//192
f 232//193 234//193 233//193
f 234//194 236//194 235//194
f 236//195 238//195 237//195
f 238//196 240//196 239//196
f 240//197 242//197 241//197
f 242//198 244//198 243//198
f 244//199 246//199 245//199
f 246//200 248//200 247//200
f 248//201 250//201 249//201
f 162//207 160//207 158//207
f 158//208 252//208 250//208
f 250//202 248//202 246//202
f 246//202 244//202 242//202
f 242//209 240//209 238//209
f 238//202 236//202 234//202
f 234//202 232//202 230//202
f 230//202 228//202 226//202
f 226//202 224//202 222//202
f 222//209 220//209 218//209
f 218//202 216//202 214//202
f 214//202 212//202 210//202
f 210//210 208//210 206//210
f 206//211 204//211 202//211
f 202//202 200//202 198//202
f 198//202 196//202 194//202
f 194//212 192//212 190//212
f 190//202 188//202 186//202
f 186//202 184//202 182//202
f 182//202 180//202 178//202
f 178//202 176//202 174//202
f 174//212 172//212 170//212
f 170//202 168//202 166//202
f 166//202 164//202 162//202
f 162//202 158//202 250//202
f 250//202 246//202 242//202
f 242//202 238//202 234//202
f 234//202 230//202 226//202
f 226//202 222//202 218//202
f 218//202 214//202 210//202
f 210//202 206//202 202//202
f 202//202 198//202 194//202
f 194//202 190//202 186//202
f 186//202 182//202 178//202
f 178//202 174//202 170//202
f 170//202 166//202 162//202
f 162//202 250//202 242//202
f 242//202 234//202 226//202
f 226//202 218//202 210//202
f 210//202 202//202 194//202
f 194//202 186//202 178//202
f 178//202 170//202 162//202
f 162//202 242//202 226//202
f 226//202 210//202 194//202
f 194//202 178//202 162//202
f 250//203 252//203 251//203
f 252//204 158//204 157//204
f 251//205 157//205 159//205
f 159//213 161//213 163//213
f 163//205 165//205 167//205
f 167//205 169//205 171//205
f 171//205 173//205 175//205
f 175//205 177//205 179//205
f 179//205 181//205 183//205
f 183//205 185//205 187//205
f 187//205 189//205 191//205
f 191//205 193//205 195//205
f 195//213 197//213 199//213
f 199//213 201//213 203//213
f 203//205 205//205 207//205
f 207//214 209//214 211//214
f 211//205 213//205 215//205
f 215//205 217//205 219//205
f 219//205 221//205 223//205
f 223//205 225//205 227//205
f 227//205 229//205 231//205
f 231//205 233//205 235//205
f 235//205 237//205 239//205
f 239//205 241//205 243//205
f 243//214 245//214 247//214
f 247//214 249//214 251//214
f 251//205 159//205 163//205
f 163//205 167//205 171//205
f 171//205 175//205 179//205
f 179//215 183//215 187//215
f 187//205 191//205 195//205
f 195//205 199//205 203//205
f 203//205 207//205 211//205
f 211//205 215//205 219//205
f 219//205 223//205 227//205
f 227//216 231//216 235//216
f 235//205 239//205 243//205
f 243//205 247//205 251//205
f 251//205 163//205 171//205
f 171//205 179//205 187//205
f 187//205 195//205 203//205
f 203//205 211//205 219//205
f 219//205 227//205 235//205
f 235//205 243//205 251//205
f 251//205 171//205 187//205
f 187//205 203//205 219//205
f 219//205 235//205 251//205
