# Blender 5.2.2 LTS
# www.blender.org
mtllib cooling_unit.mtl
o cooling_unit
v -6.300000 -1.300000 0.000000
v -6.300000 -1.300000 0.300000
v -6.300000 -0.850000 0.000000
v -6.300000 -0.850000 0.300000
v -5.400000 -1.300000 0.000000
v -5.400000 -1.300000 0.300000
v -5.400000 -0.850000 0.000000
v -5.400000 -0.850000 0.300000
v -5.750000 -0.955000 0.450000
v -5.450000 -0.955000 0.450000
v -5.750000 -0.956027 0.434337
v -5.450000 -0.956027 0.434337
v -5.750000 -0.959089 0.418942
v -5.450000 -0.959089 0.418942
v -5.750000 -0.964135 0.404078
v -5.450000 -0.964135 0.404078
v -5.750000 -0.971077 0.390000
v -5.450000 -0.971077 0.390000
v -5.750000 -0.979798 0.376949
v -5.450000 -0.979798 0.376949
v -5.750000 -0.990147 0.365147
v -5.450000 -0.990147 0.365147
v -5.750000 -1.001949 0.354798
v -5.450000 -1.001949 0.354798
v -5.750000 -1.015000 0.346077
v -5.450000 -1.015000 0.346077
v -5.750000 -1.029078 0.339134
v -5.450000 -1.029078 0.339134
v -5.750000 -1.043942 0.334089
v -5.450000 -1.043942 0.334089
v -5.750000 -1.059337 0.331027
v -5.450000 -1.059337 0.331027
v -5.750000 -1.075000 0.330000
v -5.450000 -1.075000 0.330000
v -5.750000 -1.090663 0.331027
v -5.450000 -1.090663 0.331027
v -5.750000 -1.106058 0.334089
v -5.450000 -1.106058 0.334089
v -5.750000 -1.120922 0.339134
v -5.450000 -1.120922 0.339134
v -5.750000 -1.135000 0.346077
v -5.450000 -1.135000 0.346077
v -5.750000 -1.148051 0.354798
v -5.450000 -1.148051 0.354798
v -5.750000 -1.159853 0.365147
v -5.450000 -1.159853 0.365147
v -5.750000 -1.170202 0.376949
v -5.450000 -1.170202 0.376949
v -5.750000 -1.178923 0.390000
v -5.450000 -1.178923 0.390000
v -5.750000 -1.185866 0.404078
v -5.450000 -1.185866 0.404078
v -5.750000 -1.190911 0.418942
v -5.450000 -1.190911 0.418942
v -5.750000 -1.193973 0.434337
v -5.450000 -1.193973 0.434337
v -5.750000 -1.195000 0.450000
v -5.450000 -1.195000 0.450000
v -5.750000 -1.193973 0.465663
v -5.450000 -1.193973 0.465663
v -5.750000 -1.190911 0.481058
v -5.450000 -1.190911 0.481058
v -5.750000 -1.185866 0.495922
v -5.450000 -1.185866 0.495922
v -5.750000 -1.178923 0.510000
v -5.450000 -1.178923 0.510000
v -5.750000 -1.170202 0.523051
v -5.450000 -1.170202 0.523051
v -5.750000 -1.159853 0.534853
v -5.450000 -1.159853 0.534853
v -5.750000 -1.148051 0.545202
v -5.450000 -1.148051 0.545202
v -5.750000 -1.135000 0.553923
v -5.450000 -1.135000 0.553923
v -5.750000 -1.120922 0.560866
v -5.450000 -1.120922 0.560866
v -5.750000 -1.106058 0.565911
v -5.450000 -1.106058 0.565911
v -5.750000 -1.090663 0.568973
v -5.450000 -1.090663 0.568973
v -5.750000 -1.075000 0.570000
v -5.450000 -1.075000 0.570000
v -5.750000 -1.059337 0.568973
v -5.450000 -1.059337 0.568973
v -5.750000 -1.043942 0.565911
v -5.450000 -1.043942 0.565911
v -5.750000 -1.029078 0.560866
v -5.450000 -1.029078 0.560866
v -5.750000 -1.015000 0.553923
v -5.450000 -1.015000 0.553923
v -5.750000 -1.001949 0.545202
v -5.450000 -1.001949 0.545202
v -5.750000 -0.990147 0.534853
v -5.450000 -0.990147 0.534853
v -5.750000 -0.979798 0.523051
v -5.450000 -0.979798 0.523051
v -5.750000 -0.971077 0.510000
v -5.450000 -0.971077 0.510000
v -5.750000 -0.964135 0.495922
v -5.450000 -0.964135 0.495922
v -5.750000 -0.959089 0.481058
v -5.450000 -0.959089 0.481058
v -5.750000 -0.956027 0.465663
v -5.450000 -0.956027 0.465663
v -6.125000 -0.920000 1.000000
v -5.575000 -0.920000 1.000000
v -6.125000 -0.921540 0.976505
v -5.575000 -0.921540 0.976505
v -6.125000 -0.926133 0.953413
v -5.575000 -0.926133 0.953413
v -6.125000 -0.933702 0.931117
v -5.575000 -0.933702 0.931117
v -6.125000 -0.944115 0.910000
v -5.575000 -0.944115 0.910000
v -6.125000 -0.957196 0.890423
v -5.575000 -0.957196 0.890423
v -6.125000 -0.972721 0.872721
v -5.575000 -0.972721 0.872721
v -6.125000 -0.990423 0.857196
v -5.575000 -0.990423 0.857196
v -6.125000 -1.010000 0.844115
v -5.575000 -1.010000 0.844115
v -6.125000 -1.031117 0.833702
v -5.575000 -1.031117 0.833702
v -6.125000 -1.053413 0.826133
v -5.575000 -1.053413 0.826133
v -6.125000 -1.076505 0.821540
v -5.575000 -1.076505 0.821540
v -6.125000 -1.100000 0.820000
v -5.575000 -1.100000 0.820000
v -6.125000 -1.123495 0.821540
v -5.575000 -1.123495 0.821540
v -6.125000 -1.146587 0.826133
v -5.575000 -1.146587 0.826133
v -6.125000 -1.168883 0.833702
v -5.575000 -1.168883 0.833702
v -6.125000 -1.190000 0.844115
v -5.575000 -1.190000 0.844115
v -6.125000 -1.209577 0.857196
v -5.575000 -1.209577 0.857196
v -6.125000 -1.227279 0.872721
v -5.575000 -1.227279 0.872721
v -6.125000 -1.242804 0.890423
v -5.575000 -1.242804 0.890423
v -6.125000 -1.255885 0.910000
v -5.575000 -1.255885 0.910000
v -6.125000 -1.266298 0.931117
v -5.575000 -1.266298 0.931117
v -6.125000 -1.273867 0.953413
v -5.575000 -1.273867 0.953413
v -6.125000 -1.278460 0.976505
v -5.575000 -1.278460 0.976505
v -6.125000 -1.280000 1.000000
v -5.575000 -1.280000 1.000000
v -6.125000 -1.278460 1.023495
v -5.575000 -1.278460 1.023495
v -6.125000 -1.273867 1.046587
v -5.575000 -1.273867 1.046587
v -6.125000 -1.266298 1.068883
v -5.575000 -1.266298 1.068883
v -6.125000 -1.255885 1.090000
v -5.575000 -1.255885 1.090000
v -6.125000 -1.242804 1.109577
v -5.575000 -1.242804 1.109577
v -6.125000 -1.227279 1.127279
v -5.575000 -1.227279 1.127279
v -6.125000 -1.209577 1.142804
v -5.575000 -1.209577 1.142804
v -6.125000 -1.190000 1.155885
v -5.575000 -1.190000 1.155885
v -6.125000 -1.168883 1.166298
v -5.575000 -1.168883 1.166298
v -6.125000 -1.146587 1.173867
v -5.575000 -1.146587 1.173867
v -6.125000 -1.123495 1.178460
v -5.575000 -1.123495 1.178460
v -6.125000 -1.100000 1.180000
v -5.575000 -1.100000 1.180000
v -6.125000 -1.076505 1.178460
v -5.575000 -1.076505 1.178460
v -6.125000 -1.053413 1.173867
v -5.575000 -1.053413 1.173867
v -6.125000 -1.031117 1.166298
v -5.575000 -1.031117 1.166298
v -6.125000 -1.010000 1.155885
v -5.575000 -1.010000 1.155885
v -6.125000 -0.990423 1.142804
v -5.575000 -0.990423 1.142804
v -6.125000 -0.972721 1.127279
v -5.575000 -0.972721 1.127279
v -6.125000 -0.957196 1.109577
v -5.575000 -0.957196 1.109577
v -6.125000 -0.944115 1.090000
v -5.575000 -0.944115 1.090000
v -6.125000 -0.933702 1.068883
v -5.575000 -0.933702 1.068883
v -6.125000 -0.926133 1.046587
v -5.575000 -0.926133 1.046587
v -6.125000 -0.921540 1.023495
v -5.575000 -0.921540 1.023495
v -5.459869 -1.091214 0.473232
v -5.109869 -0.516214 1.023232
v -5.471360 -1.081243 0.470119
v -5.121360 -0.506243 1.020119
v -5.477127 -1.069598 0.461616
v -5.127127 -0.494598 1.011616
v -5.475626 -1.059402 0.450000
v -5.125626 -0.484402 1.000000
v -5.467257 -1.053384 0.438384
v -5.117258 -0.478384 0.988384
v -5.454266 -1.053159 0.429881
v -5.104266 -0.478159 0.979881
v -5.440130 -1.058786 0.426769
v -5.090130 -0.483786 0.976768
v -5.428639 -1.068758 0.429881
v -5.078640 -0.493757 0.979881
v -5.422872 -1.080402 0.438384
v -5.072872 -0.505402 0.988384
v -5.424374 -1.090598 0.450000
v -5.074374 -0.515598 1.000000
v -5.432742 -1.096616 0.461616
v -5.082742 -0.521616 1.011616
v -5.445734 -1.096841 0.470119
v -5.095734 -0.521841 1.020119
v -5.850000 -1.327000 0.800000
v -5.850000 -1.327000 1.200000
v -5.861000 -1.324052 0.800000
v -5.861000 -1.324052 1.200000
v -5.869052 -1.316000 0.800000
v -5.869052 -1.316000 1.200000
v -5.872000 -1.305000 0.800000
v -5.872000 -1.305000 1.200000
v -5.869052 -1.294000 0.800000
v -5.869052 -1.294000 1.200000
v -5.861000 -1.285947 0.800000
v -5.861000 -1.285947 1.200000
v -5.850000 -1.283000 0.800000
v -5.850000 -1.283000 1.200000
v -5.839000 -1.285947 0.800000
v -5.839000 -1.285947 1.200000
v -5.830947 -1.294000 0.800000
v -5.830947 -1.294000 1.200000
v -5.828000 -1.305000 0.800000
v -5.828000 -1.305000 1.200000
v -5.830947 -1.316000 0.800000
v -5.830947 -1.316000 1.200000
v -5.839000 -1.324052 0.800000
v -5.839000 -1.324052 1.200000
vn -1.0000 -0.0000 -0.0000
vn -0.0000 1.0000 -0.0000
vn 1.0000 -0.0000 -0.0000
vn -0.0000 -1.0000 -0.0000
vn -0.0000 -0.0000 -1.0000
vn -0.0000 -0.0000 1.0000
vn -0.0000 0.9979 -0.0654
vn -0.0000 0.9808 -0.1951
vn -0.0000 0.9469 -0.3214
vn -0.0000 0.8969 -0.4423
vn -0.0000 0.8315 -0.5556
vn -0.0000 0.7518 -0.6593
vn -0.0000 0.6593 -0.7518
vn -0.0000 0.5556 -0.8315
vn -0.0000 0.4423 -0.8969
vn -0.0000 0.3214 -0.9469
vn -0.0000 0.1951 -0.9808
vn -0.0000 0.0654 -0.9979
vn -0.0000 -0.0654 -0.9979
vn -0.0000 -0.1951 -0.9808
vn -0.0000 -0.3214 -0.9469
vn -0.0000 -0.4423 -0.8969
vn -0.0000 -0.5556 -0.8315
vn -0.0000 -0.6593 -0.7518
vn -0.0000 -0.7518 -0.6593
vn -0.0000 -0.8315 -0.5556
vn -0.0000 -0.8969 -0.4423
vn -0.0000 -0.9469 -0.3214
vn -0.0000 -0.9808 -0.1951
vn -0.0000 -0.9979 -0.0654
vn -0.0000 -0.9979 0.0654
vn -0.0000 -0.9808 0.1951
vn -0.0000 -0.9469 0.3214
vn -0.0000 -0.8969 0.4423
vn -0.0000 -0.8315 0.5556
vn -0.0000 -0.7518 0.6593
vn -0.0000 -0.6593 0.7518
vn -0.0000 -0.5556 0.8315
vn -0.0000 -0.4423 0.8969
vn -0.0000 -0.3214 0.9469
vn -0.0000 -0.1951 0.9808
vn -0.0000 -0.0654 0.9979
vn -0.0000 0.0654 0.9979
vn -0.0000 0.1951 0.9808
vn -0.0000 0.3214 0.9469
vn -0.0000 0.4423 0.8969
vn -0.0000 0.5556 0.8315
vn -0.0000 0.6593 0.7518
vn -0.0000 0.7518 0.6593
vn -0.0000 0.8315 0.5556
vn -0.0000 0.8969 0.4423
vn -0.0000 0.9469 0.3214
vn -0.0000 0.9808 0.1951
vn -0.0000 0.9979 0.0654
vn -0.5389 -0.3875 0.7480
vn -0.8366 -0.0145 0.5476
vn -0.9102 0.3624 0.2004
vn -0.7399 0.6421 -0.2004
vn -0.3714 0.7498 -0.5476
vn 0.0967 0.6566 -0.7480
vn 0.5389 0.3875 -0.7480
vn 0.8366 0.0145 -0.5476
vn 0.9102 -0.3623 -0.2004
vn 0.7399 -0.6421 0.2004
vn 0.4026 0.6615 0.6327
vn 0.3714 -0.7498 0.5476
vn -0.0967 -0.6566 0.7480
vn -0.4026 -0.6615 -0.6327
vn -0.2588 -0.9659 -0.0000
vn -0.7071 -0.7071 -0.0000
vn -0.9659 -0.2588 -0.0000
vn -0.9659 0.2588 -0.0000
vn -0.7071 0.7071 -0.0000
vn -0.2588 0.9659 -0.0000
vn 0.2588 0.9659 -0.0000
vn 0.7071 0.7071 -0.0000
vn 0.9659 0.2588 -0.0000
vn 0.9659 -0.2588 -0.0000
vn 0.7071 -0.7071 -0.0000
vn 0.2588 -0.9659 -0.0000
vn 0.9102 -0.3624 -0.2004
vn -0.4027 -0.6615 -0.6327
s 0
usemtl gear_paint
f 2//1 3//1 1//1
f 4//2 7//2 3//2
f 8//3 5//3 7//3
f 6//4 1//4 5//4
f 7//5 1//5 3//5
f 4//6 6//6 8//6
f 2//1 4//1 3//1
f 4//2 8//2 7//2
f 8//3 6//3 5//3
f 6//4 2//4 1//4
f 7//5 5//5 1//5
f 4//6 2//6 6//6
usemtl generator_paint
f 10//7 11//7 9//7
f 12//8 13//8 11//8
f 14//9 15//9 13//9
f 16//10 17//10 15//10
f 18//11 19//11 17//11
f 20//12 21//12 19//12
f 22//13 23//13 21//13
f 24//14 25//14 23//14
f 26//15 27//15 25//15
f 28//16 29//16 27//16
f 30//17 31//17 29//17
f 32//18 33//18 31//18
f 33//19 36//19 35//19
f 35//20 38//20 37//20
f 38//21 39//21 37//21
f 39//22 42//22 41//22
f 42//23 43//23 41//23
f 44//24 45//24 43//24
f 46//25 47//25 45//25
f 48//26 49//26 47//26
f 50//27 51//27 49//27
f 52//28 53//28 51//28
f 54//29 55//29 53//29
f 56//30 57//30 55//30
f 58//31 59//31 57//31
f 60//32 61//32 59//32
f 62//33 63//33 61//33
f 64//34 65//34 63//34
f 66//35 67//35 65//35
f 68//36 69//36 67//36
f 70//37 71//37 69//37
f 72//38 73//38 71//38
f 74//39 75//39 73//39
f 76//40 77//40 75//40
f 77//41 80//41 79//41
f 80//42 81//42 79//42
f 82//43 83//43 81//43
f 84//44 85//44 83//44
f 86//45 87//45 85//45
f 88//46 89//46 87//46
f 90//47 91//47 89//47
f 92//48 93//48 91//48
f 94//49 95//49 93//49
f 96//50 97//50 95//50
f 98//51 99//51 97//51
f 100//52 101//52 99//52
f 78//3 46//3 14//3
f 102//53 103//53 101//53
f 104//54 9//54 103//54
f 39//1 71//1 103//1
f 10//7 12//7 11//7
f 12//8 14//8 13//8
f 14//9 16//9 15//9
f 16//10 18//10 17//10
f 18//11 20//11 19//11
f 20//12 22//12 21//12
f 22//13 24//13 23//13
f 24//14 26//14 25//14
f 26//15 28//15 27//15
f 28//16 30//16 29//16
f 30//17 32//17 31//17
f 32//18 34//18 33//18
f 33//19 34//19 36//19
f 35//20 36//20 38//20
f 38//21 40//21 39//21
f 39//22 40//22 42//22
f 42//23 44//23 43//23
f 44//24 46//24 45//24
f 46//25 48//25 47//25
f 48//26 50//26 49//26
f 50//27 52//27 51//27
f 52//28 54//28 53//28
f 54//29 56//29 55//29
f 56//30 58//30 57//30
f 58//31 60//31 59//31
f 60//32 62//32 61//32
f 62//33 64//33 63//33
f 64//34 66//34 65//34
f 66//35 68//35 67//35
f 68//36 70//36 69//36
f 70//37 72//37 71//37
f 72//38 74//38 73//38
f 74//39 76//39 75//39
f 76//40 78//40 77//40
f 77//41 78//41 80//41
f 80//42 82//42 81//42
f 82//43 84//43 83//43
f 84//44 86//44 85//44
f 86//45 88//45 87//45
f 88//46 90//46 89//46
f 90//47 92//47 91//47
f 92//48 94//48 93//48
f 94//49 96//49 95//49
f 96//50 98//50 97//50
f 98//51 100//51 99//51
f 100//52 102//52 101//52
f 14//3 12//3 10//3
f 10//3 104//3 102//3
f 102//3 100//3 98//3
f 98//3 96//3 94//3
f 94//3 92//3 90//3
f 90//3 88//3 86//3
f 86//3 84//3 82//3
f 82//3 80//3 78//3
f 78//3 76//3 74//3
f 74//3 72//3 70//3
f 70//3 68//3 66//3
f 66//3 64//3 62//3
f 62//3 60//3 58//3
f 58//3 56//3 54//3
f 54//3 52//3 50//3
f 50//3 48//3 46//3
f 46//3 44//3 42//3
f 42//3 40//3 38//3
f 38//3 36//3 34//3
f 34//3 32//3 30//3
f 30//3 28//3 26//3
f 26//3 24//3 22//3
f 22//3 20//3 18//3
f 18//3 16//3 14//3
f 14//3 10//3 102//3
f 102//3 98//3 94//3
f 94//3 90//3 86//3
f 86//3 82//3 78//3
f 78//3 74//3 70//3
f 70//3 66//3 62//3
f 62//3 58//3 54//3
f 54//3 50//3 46//3
f 46//3 42//3 38//3
f 38//3 34//3 30//3
f 30//3 26//3 22//3
f 22//3 18//3 14//3
f 14//3 102//3 94//3
f 94//3 86//3 78//3
f 78//3 70//3 62//3
f 62//3 54//3 46//3
f 46//3 38//3 30//3
f 30//3 22//3 14//3
f 14//3 94//3 78//3
f 78//3 62//3 46//3
f 46//3 30//3 14//3
f 102//53 104//53 103//53
f 104//54 10//54 9//54
f 103//1 9//1 11//1
f 11//1 13//1 15//1
f 15//1 17//1 19//1
f 19//1 21//1 23//1
f 23//1 25//1 27//1
f 27//1 29//1 31//1
f 31//1 33//1 35//1
f 35//1 37//1 39//1
f 39//1 41//1 43//1
f 43//1 45//1 47//1
f 47//1 49//1 51//1
f 51//1 53//1 55//1
f 55//1 57//1 59//1
f 59//1 61//1 63//1
f 63//1 65//1 67//1
f 67//1 69//1 71//1
f 71//1 73//1 75//1
f 75//1 77//1 79//1
f 79//1 81//1 83//1
f 83//1 85//1 87//1
f 87//1 89//1 91//1
f 91//1 93//1 95//1
f 95//1 97//1 99//1
f 99//1 101//1 103//1
f 103//1 11//1 15//1
f 15//1 19//1 23//1
f 23//1 27//1 31//1
f 31//1 35//1 39//1
f 39//1 43//1 47//1
f 47//1 51//1 55//1
f 55//1 59//1 63//1
f 63//1 67//1 71//1
f 71//1 75//1 79//1
f 79//1 83//1 87//1
f 87//1 91//1 95//1
f 95//1 99//1 103//1
f 103//1 15//1 23//1
f 23//1 31//1 39//1
f 39//1 47//1 55//1
f 55//1 63//1 71//1
f 71//1 79//1 87//1
f 87//1 95//1 103//1
f 103//1 23//1 39//1
f 39//1 55//1 71//1
f 71//1 87//1 103//1
usemtl steel_grey
f 106//7 107//7 105//7
f 108//8 109//8 107//8
f 110//9 111//9 109//9
f 112//10 113//10 111//10
f 114//11 115//11 113//11
f 116//12 117//12 115//12
f 118//13 119//13 117//13
f 120//14 121//14 119//14
f 122//15 123//15 121//15
f 124//16 125//16 123//16
f 126//17 127//17 125//17
f 128//18 129//18 127//18
f 130//19 131//19 129//19
f 132//20 133//20 131//20
f 134//21 135//21 133//21
f 135//22 138//22 137//22
f 138//23 139//23 137//23
f 140//24 141//24 139//24
f 142//25 143//25 141//25
f 144//26 145//26 143//26
f 146//27 147//27 145//27
f 148//28 149//28 147//28
f 150//29 151//29 149//29
f 152//30 153//30 151//30
f 154//31 155//31 153//31
f 156//32 157//32 155//32
f 158//33 159//33 157//33
f 159//34 162//34 161//34
f 162//35 163//35 161//35
f 164//36 165//36 163//36
f 166//37 167//37 165//37
f 168//38 169//38 167//38
f 170//39 171//39 169//39
f 172//40 173//40 171//40
f 174//41 175//41 173//41
f 176//42 177//42 175//42
f 178//43 179//43 177//43
f 180//44 181//44 179//44
f 182//45 183//45 181//45
f 184//46 185//46 183//46
f 186//47 187//47 185//47
f 188//48 189//48 187//48
f 190//49 191//49 189//49
f 192//50 193//50 191//50
f 194//51 195//51 193//51
f 196//52 197//52 195//52
f 174//3 142//3 110//3
f 198//53 199//53 197//53
f 200//54 105//54 199//54
f 135//1 167//1 199//1
f 106//7 108//7 107//7
f 108//8 110//8 109//8
f 110//9 112//9 111//9
f 112//10 114//10 113//10
f 114//11 116//11 115//11
f 116//12 118//12 117//12
f 118//13 120//13 119//13
f 120//14 122//14 121//14
f 122//15 124//15 123//15
f 124//16 126//16 125//16
f 126//17 128//17 127//17
f 128//18 130//18 129//18
f 130//19 132//19 131//19
f 132//20 134//20 133//20
f 134//21 136//21 135//21
f 135//22 136//22 138//22
f 138//23 140//23 139//23
f 140//24 142//24 141//24
f 142//25 144//25 143//25
f 144//26 146//26 145//26
f 146//27 148//27 147//27
f 148//28 150//28 149//28
f 150//29 152//29 151//29
f 152//30 154//30 153//30
f 154//31 156//31 155//31
f 156//32 158//32 157//32
f 158//33 160//33 159//33
f 159//34 160//34 162//34
f 162//35 164//35 163//35
f 164//36 166//36 165//36
f 166//37 168//37 167//37
f 168//38 170//38 169//38
f 170//39 172//39 171//39
f 172//40 174//40 173//40
f 174//41 176//41 175//41
f 176//42 178//42 177//42
f 178//43 180//43 179//43
f 180//44 182//44 181//44
f 182//45 184//45 183//45
f 184//46 186//46 185//46
f 186//47 188//47 187//47
f 188//48 190//48 189//48
f 190//49 192//49 191//49
f 192//50 194//50 193//50
f 194//51 196//51 195//51
f 196//52 198//52 197//52
f 110//3 108//3 106//3
f 106//3 200//3 198//3
f 198//3 196//3 194//3
f 194//3 192//3 190//3
f 190//3 188//3 186//3
f 186//3 184//3 182//3
f 182//3 180//3 178//3
f 178//3 176//3 174//3
f 174//3 172//3 170//3
f 170//3 168//3 166//3
f 166//3 164//3 162//3
f 162//3 160//3 158//3
f 158//3 156//3 154//3
f 154//3 152//3 150//3
f 150//3 148//3 146//3
f 146//3 144//3 142//3
f 142//3 140//3 138//3
f 138//3 136//3 134//3
f 134//3 132//3 130//3
f 130//3 128//3 126//3
f 126//3 124//3 122//3
f 122//3 120//3 118//3
f 118//3 116//3 114//3
f 114//3 112//3 110//3
f 110//3 106//3 198//3
f 198//3 194//3 190//3
f 190//3 186//3 182//3
f 182//3 178//3 174//3
f 174//3 170//3 166//3
f 166//3 162//3 158//3
f 158//3 154//3 150//3
f 150//3 146//3 142//3
f 142//3 138//3 134//3
f 134//3 130//3 126//3
f 126//3 122//3 118//3
f 118//3 114//3 110//3
f 110//3 198//3 190//3
f 190//3 182//3 174//3
f 174//3 166//3 158//3
f 158//3 150//3 142//3
f 142//3 134//3 126//3
f 126//3 118//3 110//3
f 110//3 190//3 174//3
f 174//3 158//3 142//3
f 142//3 126//3 110//3
f 198//53 200//53 199//53
f 200//54 106//54 105//54
f 199//1 105//1 107//1
f 107//1 109//1 111//1
f 111//1 113//1 115//1
f 115//1 117//1 119//1
f 119//1 121//1 123//1
f 123//1 125//1 127//1
f 127//1 129//1 131//1
f 131//1 133//1 135//1
f 135//1 137//1 139//1
f 139//1 141//1 143//1
f 143//1 145//1 147//1
f 147//1 149//1 151//1
f 151//1 153//1 155//1
f 155//1 157//1 159//1
f 159//1 161//1 163//1
f 163//1 165//1 167//1
f 167//1 169//1 171//1
f 171//1 173//1 175//1
f 175//1 177//1 179//1
f 179//1 181//1 183//1
f 183//1 185//1 187//1
f 187//1 189//1 191//1
f 191//1 193//1 195//1
f 195//1 197//1 199//1
f 199//1 107//1 111//1
f 111//1 115//1 119//1
f 119//1 123//1 127//1
f 127//1 131//1 135//1
f 135//1 139//1 143//1
f 143//1 147//1 151//1
f 151//1 155//1 159//1
f 159//1 163//1 167//1
f 167//1 171//1 175//1
f 175//1 179//1 183//1
f 183//1 187//1 191//1
f 191//1 195//1 199//1
f 199//1 111//1 119//1
f 119//1 127//1 135//1
f 135//1 143//1 151//1
f 151//1 159//1 167//1
f 167//1 175//1 183//1
f 183//1 191//1 199//1
f 199//1 119//1 135//1
f 135//1 151//1 167//1
f 167//1 183//1 199//1
usemtl pipe_steel
f 201//55 204//55 203//55
f 203//56 206//56 205//56
f 206//57 207//57 205//57
f 208//58 209//58 207//58
f 210//59 211//59 209//59
f 212//60 213//60 211//60
f 214//61 215//61 213//61
f 215//62 218//62 217//62
f 217//63 220//63 219//63
f 220//64 221//64 219//64
f 222//65 214//65 206//65
f 222//66 223//66 221//66
f 224//67 201//67 223//67
f 207//68 215//68 223//68
f 226//69 227//69 225//69
f 228//70 229//70 227//70
f 230//71 231//71 229//71
f 232//72 233//72 231//72
f 234//73 235//73 233//73
f 236//74 237//74 235//74
f 238//75 239//75 237//75
f 240//76 241//76 239//76
f 242//77 243//77 241//77
f 244//78 245//78 243//78
f 246//6 238//6 230//6
f 246//79 247//79 245//79
f 248//80 225//80 247//80
f 231//5 239//5 247//5
f 201//55 202//55 204//55
f 203//56 204//56 206//56
f 206//57 208//57 207//57
f 208//58 210//58 209//58
f 210//59 212//59 211//59
f 212//60 214//60 213//60
f 214//61 216//61 215//61
f 215//62 216//62 218//62
f 217//81 218//81 220//81
f 220//64 222//64 221//64
f 206//65 204//65 202//65
f 202//65 224//65 222//65
f 222//65 220//65 218//65
f 218//65 216//65 214//65
f 214//65 212//65 210//65
f 210//65 208//65 206//65
f 206//65 202//65 222//65
f 222//65 218//65 214//65
f 214//65 210//65 206//65
f 222//66 224//66 223//66
f 224//67 202//67 201//67
f 223//68 201//68 203//68
f 203//68 205//68 207//68
f 207//82 209//82 211//82
f 211//68 213//68 215//68
f 215//68 217//68 219//68
f 219//82 221//82 223//82
f 223//68 203//68 207//68
f 207//68 211//68 215//68
f 215//68 219//68 223//68
f 226//69 228//69 227//69
f 228//70 230//70 229//70
f 230//71 232//71 231//71
f 232//72 234//72 233//72
f 234//73 236//73 235//73
f 236//74 238//74 237//74
f 238//75 240//75 239//75
f 240//76 242//76 241//76
f 242//77 244//77 243//77
f 244//78 246//78 245//78
f 230//6 228//6 226//6
f 226//6 248//6 246//6
f 246//6 244//6 242//6
f 242//6 240//6 238//6
f 238//6 236//6 234//6
f 234//6 232//6 230//6
f 230//6 226//6 246//6
f 246//6 242//6 238//6
f 238//6 234//6 230//6
f 246//79 248//79 247//79
f 248//80 226//80 225//80
f 247//5 225//5 227//5
f 227//5 229//5 231//5
f 231//5 233//5 235//5
f 235//5 237//5 239//5
f 239//5 241//5 243//5
f 243//5 245//5 247//5
f 247//5 227//5 231//5
f 231//5 235//5 239//5
f 239//5 243//5 247//5
