# Blender 5.2.2 LTS
# www.blender.org
mtllib coolant_level_low.mtl
o coolant_level_low
v -5.850000 -1.342000 0.830000
v -5.850000 -1.342000 1.170000
v -5.856000 -1.340392 0.830000
v -5.856000 -1.340392 1.170000
v -5.860392 -1.336000 0.830000
v -5.860392 -1.336000 1.170000
v -5.862000 -1.330000 0.830000
v -5.862000 -1.330000 1.170000
v -5.860392 -1.324000 0.830000
v -5.860392 -1.324000 1.170000
v -5.856000 -1.319608 0.830000
v -5.856000 -1.319608 1.170000
v -5.850000 -1.318000 0.830000
v -5.850000 -1.318000 1.170000
v -5.844000 -1.319608 0.830000
v -5.844000 -1.319608 1.170000
v -5.839608 -1.324000 0.830000
v -5.839608 -1.324000 1.170000
v -5.838000 -1.330000 0.830000
v -5.838000 -1.330000 1.170000
v -5.839608 -1.336000 0.830000
v -5.839608 -1.336000 1.170000
v -5.844000 -1.340392 0.830000
v -5.844000 -1.340392 1.170000
v -5.850000 -1.345000 0.830000
v -5.850000 -1.345000 0.857200
v -5.856500 -1.343258 0.830000
v -5.856500 -1.343258 0.857200
v -5.861258 -1.338500 0.830000
v -5.861258 -1.338500 0.857200
v -5.863000 -1.332000 0.830000
v -5.863000 -1.332000 0.857200
v -5.861258 -1.325500 0.830000
v -5.861258 -1.325500 0.857200
v -5.856500 -1.320742 0.830000
v -5.856500 -1.320742 0.857200
v -5.850000 -1.319000 0.830000
v -5.850000 -1.319000 0.857200
v -5.843500 -1.320742 0.830000
v -5.843500 -1.320742 0.857200
v -5.838742 -1.325500 0.830000
v -5.838742 -1.325500 0.857200
v -5.837000 -1.332000 0.830000
v -5.837000 -1.332000 0.857200
v -5.838742 -1.338500 0.830000
v -5.838742 -1.338500 0.857200
v -5.843500 -1.343258 0.830000
v -5.843500 -1.343258 0.857200
v -5.880000 -1.350000 0.964000
v -5.880000 -1.350000 0.969000
v -5.880000 -1.345000 0.964000
v -5.880000 -1.345000 0.969000
v -5.820000 -1.350000 0.964000
v -5.820000 -1.350000 0.969000
v -5.820000 -1.345000 0.964000
v -5.820000 -1.345000 0.969000
vn -0.2588 -0.9659 -0.0000
vn -0.7071 -0.7071 -0.0000
vn -0.9659 -0.2589 -0.0000
vn -0.9659 0.2589 -0.0000
vn -0.7071 0.7071 -0.0000
vn -0.2588 0.9659 -0.0000
vn 0.2588 0.9659 -0.0000
vn 0.7071 0.7071 -0.0000
vn 0.9659 0.2589 -0.0000
vn 0.9659 -0.2589 -0.0000
vn -0.0000 -0.0000 1.0000
vn 0.7071 -0.7071 -0.0000
vn 0.2588 -0.9659 -0.0000
vn -0.0000 -0.0000 -1.0000
vn -0.7070 -0.7072 -0.0000
vn -0.7072 0.7070 -0.0000
vn 0.9659 0.2590 -0.0000
vn 0.9659 -0.2587 -0.0000
vn 0.7072 -0.7070 -0.0000
vn -1.0000 -0.0000 -0.0000
vn -0.0000 1.0000 -0.0000
vn 1.0000 -0.0000 -0.0000
vn -0.0000 -1.0000 -0.0000
vn -0.7072 -0.7070 -0.0000
vn -0.7070 0.7072 -0.0000
vn 0.7072 0.7070 -0.0000
vn 0.9659 0.2587 -0.0000
vn 0.9659 -0.2590 -0.0000
s 0
usemtl glass
f 2//1 3//1 1//1
f 4//2 5//2 3//2
f 6//3 7//3 5//3
f 8//4 9//4 7//4
f 10//5 11//5 9//5
f 12//6 13//6 11//6
f 14//7 15//7 13//7
f 16//8 17//8 15//8
f 18//9 19//9 17//9
f 20//10 21//10 19//10
f 22//11 14//11 6//11
f 22//12 23//12 21//12
f 24//13 1//13 23//13
f 7//14 15//14 23//14
f 2//1 4//1 3//1
f 4//2 6//2 5//2
f 6//3 8//3 7//3
f 8//4 10//4 9//4
f 10//5 12//5 11//5
f 12//6 14//6 13//6
f 14//7 16//7 15//7
f 16//8 18//8 17//8
f 18//9 20//9 19//9
f 20//10 22//10 21//10
f 6//11 4//11 2//11
f 2//11 24//11 22//11
f 22//11 20//11 18//11
f 18//11 16//11 14//11
f 14//11 12//11 10//11
f 10//11 8//11 6//11
f 6//11 2//11 22//11
f 22//11 18//11 14//11
f 14//11 10//11 6//11
f 22//12 24//12 23//12
f 24//13 2//13 1//13
f 23//14 1//14 3//14
f 3//14 5//14 7//14
f 7//14 9//14 11//14
f 11//14 13//14 15//14
f 15//14 17//14 19//14
f 19//14 21//14 23//14
f 23//14 3//14 7//14
f 7//14 11//14 15//14
f 15//14 19//14 23//14
usemtl coolant
f 26//1 27//1 25//1
f 28//15 29//15 27//15
f 30//3 31//3 29//3
f 32//4 33//4 31//4
f 34//16 35//16 33//16
f 36//6 37//6 35//6
f 38//7 39//7 37//7
f 40//8 41//8 39//8
f 42//17 43//17 41//17
f 44//18 45//18 43//18
f 46//11 38//11 30//11
f 46//19 47//19 45//19
f 48//13 25//13 47//13
f 31//14 39//14 47//14
f 26//1 28//1 27//1
f 28//24 30//24 29//24
f 30//3 32//3 31//3
f 32//4 34//4 33//4
f 34//25 36//25 35//25
f 36//6 38//6 37//6
f 38//7 40//7 39//7
f 40//26 42//26 41//26
f 42//27 44//27 43//27
f 44//28 46//28 45//28
f 30//11 28//11 26//11
f 26//11 48//11 46//11
f 46//11 44//11 42//11
f 42//11 40//11 38//11
f 38//11 36//11 34//11
f 34//11 32//11 30//11
f 30//11 26//11 46//11
f 46//11 42//11 38//11
f 38//11 34//11 30//11
f 46//12 48//12 47//12
f 48//13 26//13 25//13
f 47//14 25//14 27//14
f 27//14 29//14 31//14
f 31//14 33//14 35//14
f 35//14 37//14 39//14
f 39//14 41//14 43//14
f 43//14 45//14 47//14
f 47//14 27//14 31//14
f 31//14 35//14 39//14
f 39//14 43//14 47//14
usemtl alarm_red
f 50//20 51//20 49//20
f 52//21 55//21 51//21
f 56//22 53//22 55//22
f 54//23 49//23 53//23
f 55//14 49//14 51//14
f 52//11 54//11 56//11
f 50//20 52//20 51//20
f 52//21 56//21 55//21
f 56//22 54//22 53//22
f 54//23 50//23 49//23
f 55//14 53//14 49//14
f 52//11 50//11 54//11
