# Blender 5.2.2 LTS
# www.blender.org
mtllib cover_bolts_missing.mtl
o cover_bolts_missing
v -2.310000 0.794000 0.527000
v -2.310000 0.780000 0.527000
v -2.295278 0.794000 0.518500
v -2.295278 0.780000 0.518500
v -2.295278 0.794000 0.501500
v -2.295278 0.780000 0.501500
v -2.310000 0.794000 0.493000
v -2.310000 0.780000 0.493000
v -2.324722 0.794000 0.501500
v -2.324722 0.780000 0.501500
v -2.324722 0.794000 0.518500
v -2.324722 0.780000 0.518500
v -2.310000 0.782000 0.101000
v -2.310000 0.780000 0.101000
v -2.308564 0.782000 0.100906
v -2.308564 0.780000 0.100906
v -2.307153 0.782000 0.100625
v -2.307153 0.780000 0.100625
v -2.305790 0.782000 0.100163
v -2.305790 0.780000 0.100163
v -2.304500 0.782000 0.099526
v -2.304500 0.780000 0.099526
v -2.303303 0.782000 0.098727
v -2.303303 0.780000 0.098727
v -2.302222 0.782000 0.097778
v -2.302222 0.780000 0.097778
v -2.301273 0.782000 0.096696
v -2.301273 0.780000 0.096696
v -2.300474 0.782000 0.095500
v -2.300474 0.780000 0.095500
v -2.299837 0.782000 0.094210
v -2.299837 0.780000 0.094210
v -2.299375 0.782000 0.092847
v -2.299375 0.780000 0.092847
v -2.299094 0.782000 0.091436
v -2.299094 0.780000 0.091436
v -2.299000 0.782000 0.090000
v -2.299000 0.780000 0.090000
v -2.299094 0.782000 0.088564
v -2.299094 0.780000 0.088564
v -2.299375 0.782000 0.087153
v -2.299375 0.780000 0.087153
v -2.299837 0.782000 0.085791
v -2.299837 0.780000 0.085791
v -2.300474 0.782000 0.084500
v -2.300474 0.780000 0.084500
v -2.301273 0.782000 0.083304
v -2.301273 0.780000 0.083304
v -2.302222 0.782000 0.082222
v -2.302222 0.780000 0.082222
v -2.303303 0.782000 0.081273
v -2.303303 0.780000 0.081273
v -2.304500 0.782000 0.080474
v -2.304500 0.780000 0.080474
v -2.305790 0.782000 0.079837
v -2.305790 0.780000 0.079837
v -2.307153 0.782000 0.079375
v -2.307153 0.780000 0.079375
v -2.308564 0.782000 0.079094
v -2.308564 0.780000 0.079094
v -2.310000 0.782000 0.079000
v -2.310000 0.780000 0.079000
v -2.311436 0.782000 0.079094
v -2.311436 0.780000 0.079094
v -2.312847 0.782000 0.079375
v -2.312847 0.780000 0.079375
v -2.314209 0.782000 0.079837
v -2.314209 0.780000 0.079837
v -2.315500 0.782000 0.080474
v -2.315500 0.780000 0.080474
v -2.316696 0.782000 0.081273
v -2.316696 0.780000 0.081273
v -2.317778 0.782000 0.082222
v -2.317778 0.780000 0.082222
v -2.318727 0.782000 0.083304
v -2.318727 0.780000 0.083304
v -2.319526 0.782000 0.084500
v -2.319526 0.780000 0.084500
v -2.320163 0.782000 0.085791
v -2.320163 0.780000 0.085791
v -2.320625 0.782000 0.087153
v -2.320625 0.780000 0.087153
v -2.320906 0.782000 0.088564
v -2.320906 0.780000 0.088564
v -2.321000 0.782000 0.090000
v -2.321000 0.780000 0.090000
v -2.320906 0.782000 0.091436
v -2.320906 0.780000 0.091436
v -2.320625 0.782000 0.092847
v -2.320625 0.780000 0.092847
v -2.320163 0.782000 0.094210
v -2.320163 0.780000 0.094210
v -2.319526 0.782000 0.095500
v -2.319526 0.780000 0.095500
v -2.318727 0.782000 0.096696
v -2.318727 0.780000 0.096696
v -2.317778 0.782000 0.097778
v -2.317778 0.780000 0.097778
v -2.316696 0.782000 0.098727
v -2.316696 0.780000 0.098727
v -2.315500 0.782000 0.099526
v -2.315500 0.780000 0.099526
v -2.314209 0.782000 0.100163
v -2.314209 0.780000 0.100163
v -2.312847 0.782000 0.100625
v -2.312847 0.780000 0.100625
v -2.311436 0.782000 0.100906
v -2.311436 0.780000 0.100906
v -2.100000 0.794000 0.527000
v -2.100000 0.780000 0.527000
v -2.085278 0.794000 0.518500
v -2.085278 0.780000 0.518500
v -2.085278 0.794000 0.501500
v -2.085278 0.780000 0.501500
v -2.100000 0.794000 0.493000
v -2.100000 0.780000 0.493000
v -2.114722 0.794000 0.501500
v -2.114722 0.780000 0.501500
v -2.114722 0.794000 0.518500
v -2.114722 0.780000 0.518500
v -2.100000 0.794000 0.107000
v -2.100000 0.780000 0.107000
v -2.085278 0.794000 0.098500
v -2.085278 0.780000 0.098500
v -2.085278 0.794000 0.081500
v -2.085278 0.780000 0.081500
v -2.100000 0.794000 0.073000
v -2.100000 0.780000 0.073000
v -2.114722 0.794000 0.081500
v -2.114722 0.780000 0.081500
v -2.114722 0.794000 0.098500
v -2.114722 0.780000 0.098500
v -1.890000 0.794000 0.527000
v -1.890000 0.780000 0.527000
v -1.875278 0.794000 0.518500
v -1.875278 0.780000 0.518500
v -1.875278 0.794000 0.501500
v -1.875278 0.780000 0.501500
v -1.890000 0.794000 0.493000
v -1.890000 0.780000 0.493000
v -1.904722 0.794000 0.501500
v -1.904722 0.780000 0.501500
v -1.904722 0.794000 0.518500
v -1.904722 0.780000 0.518500
v -1.890000 0.794000 0.107000
v -1.890000 0.780000 0.107000
v -1.875278 0.794000 0.098500
v -1.875278 0.780000 0.098500
v -1.875278 0.794000 0.081500
v -1.875278 0.780000 0.081500
v -1.890000 0.794000 0.073000
v -1.890000 0.780000 0.073000
v -1.904722 0.794000 0.081500
v -1.904722 0.780000 0.081500
v -1.904722 0.794000 0.098500
v -1.904722 0.780000 0.098500
v -2.310000 0.794000 0.317000
v -2.310000 0.780000 0.317000
v -2.295278 0.794000 0.308500
v -2.295278 0.780000 0.308500
v -2.295278 0.794000 0.291500
v -2.295278 0.780000 0.291500
v -2.310000 0.794000 0.283000
v -2.310000 0.780000 0.283000
v -2.324722 0.794000 0.291500
v -2.324722 0.780000 0.291500
v -2.324722 0.794000 0.308500
v -2.324722 0.780000 0.308500
v -1.890000 0.794000 0.317000
v -1.890000 0.780000 0.317000
v -1.875278 0.794000 0.308500
v -1.875278 0.780000 0.308500
v -1.875278 0.794000 0.291500
v -1.875278 0.780000 0.291500
v -1.890000 0.794000 0.283000
v -1.890000 0.780000 0.283000
v -1.904722 0.794000 0.291500
v -1.904722 0.780000 0.291500
v -1.904722 0.794000 0.308500
v -1.904722 0.780000 0.308500
vn 0.5000 -0.0000 0.8660
vn 1.0000 -0.0000 -0.0000
vn 0.5000 -0.0000 -0.8660
vn -0.5000 -0.0000 -0.8660
vn -0.0000 -1.0000 -0.0000
vn -1.0000 -0.0000 -0.0000
vn -0.5000 -0.0000 0.8660
vn -0.0000 1.0000 -0.0000
vn 0.0654 -0.0000 0.9979
vn 0.1951 -0.0000 0.9808
vn 0.3214 -0.0000 0.9469
vn 0.4423 -0.0000 0.8969
vn 0.5556 -0.0000 0.8315
vn 0.6594 -0.0000 0.7518
vn 0.7518 -0.0000 0.6593
vn 0.8315 -0.0000 0.5556
vn 0.8969 -0.0000 0.4423
vn 0.9469 -0.0000 0.3214
vn 0.9808 -0.0000 0.1951
vn 0.9979 -0.0000 0.0654
vn 0.9979 -0.0000 -0.0654
vn 0.9808 -0.0000 -0.1951
vn 0.9469 -0.0000 -0.3214
vn 0.8969 -0.0000 -0.4423
vn 0.8315 -0.0000 -0.5556
vn 0.7518 -0.0000 -0.6593
vn 0.6594 -0.0000 -0.7518
vn 0.5556 -0.0000 -0.8315
vn 0.4423 -0.0000 -0.8969
vn 0.3214 -0.0000 -0.9469
vn 0.1951 -0.0000 -0.9808
vn 0.0654 -0.0000 -0.9979
vn -0.0654 -0.0000 -0.9979
vn -0.1951 -0.0000 -0.9808
vn -0.3214 -0.0000 -0.9469
vn -0.4423 -0.0000 -0.8969
vn -0.5556 -0.0000 -0.8315
vn -0.6594 -0.0000 -0.7518
vn -0.7518 -0.0000 -0.6593
vn -0.8315 -0.0000 -0.5556
vn -0.8969 -0.0000 -0.4423
vn -0.9469 -0.0000 -0.3214
vn -0.9808 -0.0000 -0.1951
vn -0.9979 -0.0000 -0.0654
vn -0.9979 -0.0000 0.0654
vn -0.9808 -0.0000 0.1951
vn -0.9469 -0.0000 0.3214
vn -0.8969 -0.0000 0.4423
vn -0.8315 -0.0000 0.5556
vn -0.7518 -0.0000 0.6593
vn -0.6594 -0.0000 0.7518
vn -0.5556 -0.0000 0.8315
vn -0.4423 -0.0000 0.8969
vn -0.3214 -0.0000 0.9469
vn -0.1951 -0.0000 0.9808
vn -0.0654 -0.0000 0.9979
s 0
usemtl bolt_black
f 2//1 3//1 1//1
f 4//2 5//2 3//2
f 6//3 7//3 5//3
f 8//4 9//4 7//4
f 2//5 10//5 6//5
f 10//6 11//6 9//6
f 12//7 1//7 11//7
f 3//8 7//8 11//8
f 110//1 111//1 109//1
f 112//2 113//2 111//2
f 114//3 115//3 113//3
f 116//4 117//4 115//4
f 110//5 118//5 114//5
f 118//6 119//6 117//6
f 120//7 109//7 119//7
f 111//8 115//8 119//8
f 122//1 123//1 121//1
f 124//2 125//2 123//2
f 126//3 127//3 125//3
f 128//4 129//4 127//4
f 122//5 130//5 126//5
f 130//6 131//6 129//6
f 132//7 121//7 131//7
f 123//8 127//8 131//8
f 134//1 135//1 133//1
f 136//2 137//2 135//2
f 138//3 139//3 137//3
f 140//4 141//4 139//4
f 134//5 142//5 138//5
f 142//6 143//6 141//6
f 144//7 133//7 143//7
f 135//8 139//8 143//8
f 146//1 147//1 145//1
f 148//2 149//2 147//2
f 150//3 151//3 149//3
f 152//4 153//4 151//4
f 146//5 154//5 150//5
f 154//6 155//6 153//6
f 156//7 145//7 155//7
f 147//8 151//8 155//8
f 158//1 159//1 157//1
f 160//2 161//2 159//2
f 162//3 163//3 161//3
f 164//4 165//4 163//4
f 158//5 166//5 162//5
f 166//6 167//6 165//6
f 168//7 157//7 167//7
f 159//8 163//8 167//8
f 170//1 171//1 169//1
f 172//2 173//2 171//2
f 174//3 175//3 173//3
f 176//4 177//4 175//4
f 170//5 178//5 174//5
f 178//6 179//6 177//6
f 180//7 169//7 179//7
f 171//8 175//8 179//8
f 2//1 4//1 3//1
f 4//2 6//2 5//2
f 6//3 8//3 7//3
f 8//4 10//4 9//4
f 6//5 4//5 2//5
f 2//5 12//5 10//5
f 10//5 8//5 6//5
f 10//6 12//6 11//6
f 12//7 2//7 1//7
f 11//8 1//8 3//8
f 3//8 5//8 7//8
f 7//8 9//8 11//8
f 110//1 112//1 111//1
f 112//2 114//2 113//2
f 114//3 116//3 115//3
f 116//4 118//4 117//4
f 114//5 112//5 110//5
f 110//5 120//5 118//5
f 118//5 116//5 114//5
f 118//6 120//6 119//6
f 120//7 110//7 109//7
f 119//8 109//8 111//8
f 111//8 113//8 115//8
f 115//8 117//8 119//8
f 122//1 124//1 123//1
f 124//2 126//2 125//2
f 126//3 128//3 127//3
f 128//4 130//4 129//4
f 126//5 124//5 122//5
f 122//5 132//5 130//5
f 130//5 128//5 126//5
f 130//6 132//6 131//6
f 132//7 122//7 121//7
f 131//8 121//8 123//8
f 123//8 125//8 127//8
f 127//8 129//8 131//8
f 134//1 136//1 135//1
f 136//2 138//2 137//2
f 138//3 140//3 139//3
f 140//4 142//4 141//4
f 138//5 136//5 134//5
f 134//5 144//5 142//5
f 142//5 140//5 138//5
f 142//6 144//6 143//6
f 144//7 134//7 133//7
f 143//8 133//8 135//8
f 135//8 137//8 139//8
f 139//8 141//8 143//8
f 146//1 148//1 147//1
f 148//2 150//2 149//2
f 150//3 152//3 151//3
f 152//4 154//4 153//4
f 150//5 148//5 146//5
f 146//5 156//5 154//5
f 154//5 152//5 150//5
f 154//6 156//6 155//6
f 156//7 146//7 145//7
f 155//8 145//8 147//8
f 147//8 149//8 151//8
f 151//8 153//8 155//8
f 158//1 160//1 159//1
f 160//2 162//2 161//2
f 162//3 164//3 163//3
f 164//4 166//4 165//4
f 162//5 160//5 158//5
f 158//5 168//5 166//5
f 166//5 164//5 162//5
f 166//6 168//6 167//6
f 168//7 158//7 157//7
f 167//8 157//8 159//8
f 159//8 161//8 163//8
f 163//8 165//8 167//8
f 170//1 172//1 171//1
f 172//2 174//2 173//2
f 174//3 176//3 175//3
f 176//4 178//4 177//4
f 174//5 172//5 170//5
f 170//5 180//5 178//5
f 178//5 176//5 174//5
f 178//6 180//6 179//6
f 180//7 170//7 169//7
f 179//8 169//8 171//8
f 171//8 173//8 175//8
f 175//8 177//8 179//8
usemtl crack
f 14//9 15//9 13//9
f 16//10 17//10 15//10
f 18//11 19//11 17//11
f 20//12 21//12 19//12
f 22//13 23//13 21//13
f 24//14 25//14 23//14
f 26//15 27//15 25//15
f 28//16 29//16 27//16
f 30//17 31//17 29//17
f 32//18 33//18 31//18
f 34//19 35//19 33//19
f 36//20 37//20 35//20
f 38//21 39//21 37//21
f 40//22 41//22 39//22
f 42//23 43//23 41//23
f 44//24 45//24 43//24
f 46//25 47//25 45//25
f 48//26 49//26 47//26
f 50//27 51//27 49//27
f 52//28 53//28 51//28
f 54//29 55//29 53//29
f 56//30 57//30 55//30
f 58//31 59//31 57//31
f 60//32 61//32 59//32
f 62//33 63//33 61//33
f 64//34 65//34 63//34
f 66//35 67//35 65//35
f 68//36 69//36 67//36
f 70//37 71//37 69//37
f 72//38 73//38 71//38
f 74//39 75//39 73//39
f 76//40 77//40 75//40
f 78//41 79//41 77//41
f 80//42 81//42 79//42
f 82//43 83//43 81//43
f 84//44 85//44 83//44
f 86//45 87//45 85//45
f 88//46 89//46 87//46
f 90//47 91//47 89//47
f 92//48 93//48 91//48
f 94//49 95//49 93//49
f 96//50 97//50 95//50
f 98//51 99//51 97//51
f 100//52 101//52 99//52
f 102//53 103//53 101//53
f 104//54 105//54 103//54
f 82//5 50//5 18//5
f 106//55 107//55 105//55
f 108//56 13//56 107//56
f 43//8 75//8 107//8
f 14//9 16//9 15//9
f 16//10 18//10 17//10
f 18//11 20//11 19//11
f 20//12 22//12 21//12
f 22//13 24//13 23//13
f 24//14 26//14 25//14
f 26//15 28//15 27//15
f 28//16 30//16 29//16
f 30//17 32//17 31//17
f 32//18 34//18 33//18
f 34//19 36//19 35//19
f 36//20 38//20 37//20
f 38//21 40//21 39//21
f 40//22 42//22 41//22
f 42//23 44//23 43//23
f 44//24 46//24 45//24
f 46//25 48//25 47//25
f 48//26 50//26 49//26
f 50//27 52//27 51//27
f 52//28 54//28 53//28
f 54//29 56//29 55//29
f 56//30 58//30 57//30
f 58//31 60//31 59//31
f 60//32 62//32 61//32
f 62//33 64//33 63//33
f 64//34 66//34 65//34
f 66//35 68//35 67//35
f 68//36 70//36 69//36
f 70//37 72//37 71//37
f 72//38 74//38 73//38
f 74//39 76//39 75//39
f 76//40 78//40 77//40
f 78//41 80//41 79//41
f 80//42 82//42 81//42
f 82//43 84//43 83//43
f 84//44 86//44 85//44
f 86//45 88//45 87//45
f 88//46 90//46 89//46
f 90//47 92//47 91//47
f 92//48 94//48 93//48
f 94//49 96//49 95//49
f 96//50 98//50 97//50
f 98//51 100//51 99//51
f 100//52 102//52 101//52
f 102//53 104//53 103//53
f 104//54 106//54 105//54
f 18//5 16//5 14//5
f 14//5 108//5 106//5
f 106//5 104//5 102//5
f 102//5 100//5 98//5
f 98//5 96//5 94//5
f 94//5 92//5 90//5
f 90//5 88//5 86//5
f 86//5 84//5 82//5
f 82//5 80//5 78//5
f 78//5 76//5 74//5
f 74//5 72//5 70//5
f 70//5 68//5 66//5
f 66//5 64//5 62//5
f 62//5 60//5 58//5
f 58//5 56//5 54//5
f 54//5 52//5 50//5
f 50//5 48//5 46//5
f 46//5 44//5 42//5
f 42//5 40//5 38//5
f 38//5 36//5 34//5
f 34//5 32//5 30//5
f 30//5 28//5 26//5
f 26//5 24//5 22//5
f 22//5 20//5 18//5
f 18//5 14//5 106//5
f 106//5 102//5 98//5
f 98//5 94//5 90//5
f 90//5 86//5 82//5
f 82//5 78//5 74//5
f 74//5 70//5 66//5
f 66//5 62//5 58//5
f 58//5 54//5 50//5
f 50//5 46//5 42//5
f 42//5 38//5 34//5
f 34//5 30//5 26//5
f 26//5 22//5 18//5
f 18//5 106//5 98//5
f 98//5 90//5 82//5
f 82//5 74//5 66//5
f 66//5 58//5 50//5
f 50//5 42//5 34//5
f 34//5 26//5 18//5
f 18//5 98//5 82//5
f 82//5 66//5 50//5
f 50//5 34//5 18//5
f 106//55 108//55 107//55
f 108//56 14//56 13//56
f 107//8 13//8 15//8
f 15//8 17//8 19//8
f 19//8 21//8 23//8
f 23//8 25//8 27//8
f 27//8 29//8 31//8
f 31//8 33//8 35//8
f 35//8 37//8 39//8
f 39//8 41//8 43//8
f 43//8 45//8 47//8
f 47//8 49//8 51//8
f 51//8 53//8 55//8
f 55//8 57//8 59//8
f 59//8 61//8 63//8
f 63//8 65//8 67//8
f 67//8 69//8 71//8
f 71//8 73//8 75//8
f 75//8 77//8 79//8
f 79//8 81//8 83//8
f 83//8 85//8 87//8
f 87//8 89//8 91//8
f 91//8 93//8 95//8
f 95//8 97//8 99//8
f 99//8 101//8 103//8
f 103//8 105//8 107//8
f 107//8 15//8 19//8
f 19//8 23//8 27//8
f 27//8 31//8 35//8
f 35//8 39//8 43//8
f 43//8 47//8 51//8
f 51//8 55//8 59//8
f 59//8 63//8 67//8
f 67//8 71//8 75//8
f 75//8 79//8 83//8
f 83//8 87//8 91//8
f 91//8 95//8 99//8
f 99//8 103//8 107//8
f 107//8 19//8 27//8
f 27//8 35//8 43//8
f 43//8 51//8 59//8
f 59//8 67//8 75//8
f 75//8 83//8 91//8
f 91//8 99//8 107//8
f 107//8 27//8 43//8
f 43//8 59//8 75//8
f 75//8 91//8 107//8
