# Blender 5.2.2 LTS
# www.blender.org
mtllib cover.mtl
o nacelle_cover
v -9.550000 -2.100000 0.250000
v -9.800000 -1.850000 0.250000
v -9.645672 -2.080970 0.250000
v -9.550001 -2.080970 0.154329
v -9.648069 -2.058003 0.151932
v -9.780971 -1.850000 0.154329
v -9.780971 -1.945671 0.250000
v -9.758003 -1.948068 0.151932
v -9.550000 -2.100000 3.950000
v -9.550000 -1.850000 4.200000
v -9.800000 -1.850000 3.950000
v -9.550001 -2.080970 4.045671
v -9.645672 -2.080970 3.950000
v -9.648069 -2.058003 4.048068
v -9.645672 -1.850000 4.180970
v -9.550001 -1.945671 4.180970
v -9.648069 -1.948068 4.158003
v -9.780971 -1.945671 3.950000
v -9.780971 -1.850000 4.045671
v -9.758003 -1.948068 4.048068
v -9.800000 1.850000 0.250000
v -9.550000 2.100000 0.250000
v -9.780971 1.945671 0.250000
v -9.780971 1.850000 0.154329
v -9.758003 1.948068 0.151932
v -9.550001 2.080970 0.154329
v -9.645672 2.080970 0.250000
v -9.648069 2.058003 0.151932
v -9.550000 1.850000 4.200000
v -9.550000 2.100000 3.950000
v -9.800000 1.850000 3.950000
v -9.550001 1.945671 4.180970
v -9.645672 1.850000 4.180970
v -9.648069 1.948068 4.158003
v -9.645672 2.080970 3.950000
v -9.550001 2.080970 4.045671
v -9.648069 2.058003 4.048068
v -9.780971 1.850000 4.045671
v -9.780971 1.945671 3.950000
v -9.758003 1.948068 4.048068
v 2.800000 -1.850000 0.250000
v 2.550000 -2.100000 0.250000
v 2.780971 -1.945671 0.250000
v 2.780971 -1.850000 0.154329
v 2.758003 -1.948068 0.151932
v 2.550001 -2.080970 0.154329
v 2.645671 -2.080970 0.250000
v 2.648069 -2.058003 0.151932
v 2.550000 -1.850000 4.200000
v 2.550000 -2.100000 3.950000
v 2.800000 -1.850000 3.950000
v 2.550001 -1.945671 4.180970
v 2.645671 -1.850000 4.180970
v 2.648069 -1.948068 4.158003
v 2.645671 -2.080970 3.950000
v 2.550001 -2.080970 4.045671
v 2.648069 -2.058003 4.048068
v 2.780971 -1.850000 4.045671
v 2.780971 -1.945671 3.950000
v 2.758003 -1.948068 4.048068
v 2.550000 2.100000 0.250000
v 2.800000 1.850000 0.250000
v 2.645671 2.080970 0.250000
v 2.550001 2.080970 0.154329
v 2.648069 2.058003 0.151932
v 2.780971 1.850000 0.154329
v 2.780971 1.945671 0.250000
v 2.758003 1.948068 0.151932
v 2.550000 1.850000 4.200000
v 2.800000 1.850000 3.950000
v 2.550000 2.100000 3.950000
v 2.645671 1.850000 4.180970
v 2.550001 1.945671 4.180970
v 2.648069 1.948068 4.158003
v 2.780971 1.945671 3.950000
v 2.780971 1.850000 4.045671
v 2.758003 1.948068 4.048068
v 2.550001 2.080970 4.045671
v 2.645671 2.080970 3.950000
v 2.648069 2.058003 4.048068
v -9.706987 -2.040000 0.250000
v -9.687551 -2.040000 0.192995
v -9.675108 -2.040000 0.153970
v -9.607006 -2.040000 0.112449
v -9.646030 -2.040000 0.124892
v -9.550001 -2.040000 0.093014
v -9.661152 -2.040000 0.138848
v -9.740000 -1.907006 0.112448
v -9.740000 -1.850000 0.093012
v -9.740000 -1.946030 0.124891
v -9.740000 -1.987552 0.192994
v -9.740000 -1.975109 0.153970
v -9.740000 -2.006988 0.250000
v -9.740000 -1.961153 0.138847
v -9.607006 -2.040000 4.087551
v -9.550001 -2.040000 4.106986
v -9.646030 -2.040000 4.075108
v -9.687551 -2.040000 4.007005
v -9.675108 -2.040000 4.046030
v -9.706987 -2.040000 3.950000
v -9.661152 -2.040000 4.061152
v -9.706987 -1.850000 4.140000
v -9.687551 -1.907005 4.140000
v -9.675108 -1.946030 4.140000
v -9.607006 -1.987551 4.140000
v -9.646030 -1.975108 4.140000
v -9.550001 -2.006986 4.140000
v -9.661152 -1.961152 4.140000
v -9.740000 -1.987552 4.007006
v -9.740000 -2.006988 3.950000
v -9.740000 -1.975109 4.046030
v -9.740000 -1.907006 4.087552
v -9.740000 -1.946030 4.075109
v -9.740000 -1.850000 4.106988
v -9.740000 -1.961153 4.061152
v -9.740000 1.987552 0.192994
v -9.740000 2.006988 0.250000
v -9.740000 1.975109 0.153970
v -9.740000 1.946030 0.124891
v -9.740000 1.907006 0.112448
v -9.740000 1.850000 0.093012
v -9.740000 1.961153 0.138847
v -9.607006 2.040000 0.112449
v -9.550001 2.040000 0.093014
v -9.646030 2.040000 0.124892
v -9.687551 2.040000 0.192995
v -9.675108 2.040000 0.153970
v -9.706987 2.040000 0.250000
v -9.661152 2.040000 0.138848
v -9.550001 2.006986 4.140000
v -9.607006 1.987551 4.140000
v -9.646030 1.975108 4.140000
v -9.687551 1.907005 4.140000
v -9.675108 1.946030 4.140000
v -9.706987 1.850000 4.140000
v -9.661152 1.961152 4.140000
v -9.687551 2.040000 4.007005
v -9.706987 2.040000 3.950000
v -9.675108 2.040000 4.046030
v -9.607006 2.040000 4.087551
v -9.646030 2.040000 4.075108
v -9.550001 2.040000 4.106986
v -9.661152 2.040000 4.061152
v -9.740000 1.907006 4.087552
v -9.740000 1.850000 4.106988
v -9.740000 1.946030 4.075109
v -9.740000 1.975109 4.046030
v -9.740000 1.987552 4.007006
v -9.740000 2.006988 3.950000
v -9.740000 1.961153 4.061152
v 2.740000 -2.006988 0.250000
v 2.740000 -1.987552 0.192994
v 2.740000 -1.975109 0.153970
v 2.740000 -1.907006 0.112448
v 2.740000 -1.946030 0.124891
v 2.740000 -1.850000 0.093012
v 2.740000 -1.961153 0.138847
v 2.607006 -2.040000 0.112449
v 2.550001 -2.040000 0.093014
v 2.646030 -2.040000 0.124892
v 2.687551 -2.040000 0.192995
v 2.675108 -2.040000 0.153970
v 2.706987 -2.040000 0.250000
v 2.661152 -2.040000 0.138848
v 2.607006 -1.987551 4.140000
v 2.550001 -2.006986 4.140000
v 2.646030 -1.975108 4.140000
v 2.687551 -1.907005 4.140000
v 2.675108 -1.946030 4.140000
v 2.706987 -1.850000 4.140000
v 2.661152 -1.961152 4.140000
v 2.687551 -2.040000 4.007005
v 2.706987 -2.040000 3.950000
v 2.675108 -2.040000 4.046030
v 2.607006 -2.040000 4.087551
v 2.646030 -2.040000 4.075108
v 2.550001 -2.040000 4.106986
v 2.661152 -2.040000 4.061152
v 2.740000 -1.850000 4.106988
v 2.740000 -1.907006 4.087552
v 2.740000 -1.946030 4.075109
v 2.740000 -1.987552 4.007006
v 2.740000 -1.975109 4.046030
v 2.740000 -2.006988 3.950000
v 2.740000 -1.961153 4.061152
v 2.687551 2.040000 0.192995
v 2.706987 2.040000 0.250000
v 2.675108 2.040000 0.153970
v 2.646030 2.040000 0.124892
v 2.607006 2.040000 0.112449
v 2.550001 2.040000 0.093014
v 2.661152 2.040000 0.138848
v 2.740000 1.907006 0.112448
v 2.740000 1.850000 0.093012
v 2.740000 1.946030 0.124891
v 2.740000 1.987552 0.192994
v 2.740000 1.975109 0.153970
v 2.740000 2.006988 0.250000
v 2.740000 1.961153 0.138847
v 2.687551 1.907005 4.140000
v 2.706987 1.850000 4.140000
v 2.675108 1.946030 4.140000
v 2.607006 1.987551 4.140000
v 2.646030 1.975108 4.140000
v 2.550001 2.006986 4.140000
v 2.661152 1.961152 4.140000
v 2.740000 1.987552 4.007006
v 2.740000 2.006988 3.950000
v 2.740000 1.975109 4.046030
v 2.740000 1.907006 4.087552
v 2.740000 1.946030 4.075109
v 2.740000 1.850000 4.106988
v 2.740000 1.961153 4.061152
v 2.607006 2.040000 4.087551
v 2.550001 2.040000 4.106986
v 2.646030 2.040000 4.075108
v 2.675108 2.040000 4.046030
v 2.687551 2.040000 4.007005
v 2.706987 2.040000 3.950000
v 2.661152 2.040000 4.061152
v 2.800000 -0.258819 2.423465
v 2.800000 0.000000 2.457539
v 2.800000 -0.130526 2.448984
v 2.800000 0.382683 2.381419
v 2.800000 0.258819 2.423465
v 2.800000 0.608761 2.250893
v 2.800000 0.500000 2.323565
v 2.800000 0.130526 2.448984
v 2.800000 0.793353 2.066301
v 2.800000 0.923880 1.840223
v 2.800000 0.866025 1.957539
v 2.800000 1.000000 1.457539
v 2.800000 0.991445 1.327013
v 2.800000 0.991445 1.588066
v 2.800000 0.965926 1.716358
v 2.800000 0.965926 1.198720
v 2.800000 0.707107 2.164646
v 2.800000 -1.000000 1.457539
v 2.800000 -0.991445 1.327013
v 2.800000 -0.991445 1.588066
v 2.800000 -0.923880 1.840223
v 2.800000 -0.923880 1.074856
v 2.800000 -0.965926 1.716358
v 2.800000 -0.965926 1.198720
v 2.800000 -0.793353 0.848778
v 2.800000 -0.829690 0.903159
v 2.800000 -0.793353 2.066301
v 2.800000 -0.608761 0.664186
v 2.800000 -0.608761 2.250893
v 2.800000 -0.707107 0.750432
v 2.800000 -0.707107 2.164646
v 2.800000 -0.500000 0.591514
v 2.800000 -0.866025 0.957539
v 2.800000 -0.866025 1.957539
v 2.800000 -0.382683 0.533660
v 2.800000 -0.382683 2.381419
v 2.800000 -0.130526 0.466094
v 2.800000 0.130526 0.466094
v 2.800000 0.000000 0.457539
v 2.800000 -0.258819 0.491614
v 2.800000 0.382683 0.533660
v 2.800000 0.608761 0.664186
v 2.800000 0.500000 0.591514
v 2.800000 0.793353 0.848778
v 2.800000 0.829689 0.903158
v 2.800000 0.923880 1.074856
v 2.800000 0.866025 0.957539
v 2.800000 0.707107 0.750432
v 2.800000 0.258819 0.491614
v 2.800000 -0.500000 2.323565
v 2.740000 -1.000000 1.457540
v 2.740000 -0.991445 1.327013
v 2.740000 -0.991445 1.588066
v 2.740000 -0.793353 2.066301
v 2.740000 -0.866025 1.957540
v 2.740000 -0.923880 1.840223
v 2.740000 -0.965926 1.198720
v 2.740000 -0.965926 1.716359
v 2.740000 -0.608761 2.250893
v 2.740000 -0.258819 2.423465
v 2.740000 -0.382683 2.381419
v 2.740000 -0.500000 2.323565
v 2.740000 0.000000 2.457540
v 2.740000 0.258819 2.423465
v 2.740000 0.130526 2.448984
v 2.740000 -0.130526 2.448984
v 2.740000 -0.707107 2.164646
v 2.740000 -0.923880 1.074856
v 2.740000 -0.793353 0.848778
v 2.740000 -0.866025 0.957540
v 2.740000 -0.608761 0.664186
v 2.740000 -0.382683 0.533660
v 2.740000 -0.500000 0.591514
v 2.740000 -0.707107 0.750433
v 2.740000 -0.130526 0.466095
v 2.740000 0.130526 0.466095
v 2.740000 0.000000 0.457540
v 2.740000 0.382683 0.533660
v 2.740000 0.382683 2.381419
v 2.740000 0.258819 0.491614
v 2.740000 -0.258819 0.491614
v 2.740000 0.608761 0.664186
v 2.740000 0.608761 2.250893
v 2.740000 0.793353 0.848778
v 2.740000 0.793353 2.066301
v 2.740000 0.707107 0.750433
v 2.740000 0.707107 2.164646
v 2.740000 0.923880 1.074856
v 2.740000 0.923880 1.840223
v 2.740000 1.000000 1.457540
v 2.740000 0.991445 1.327013
v 2.740000 0.991445 1.588066
v 2.740000 0.965926 1.198720
v 2.740000 0.965926 1.716359
v 2.740000 0.866025 0.957540
v 2.740000 0.866025 1.957540
v 2.740000 0.500000 0.591514
v 2.740000 0.500000 2.323565
v -6.200000 -0.500000 4.200000
v -6.200000 0.500000 4.200000
v -5.200000 0.500000 4.200000
v -5.200000 -0.500000 4.200000
v -6.200000 -0.500000 4.140000
v -6.200000 0.500000 4.140000
v -5.200000 0.500000 4.140000
v -5.200000 -0.500000 4.140000
vn -0.1915 -0.9626 -0.1915
vn -0.5662 -0.8014 -0.1930
vn -0.1769 -0.8131 -0.5547
vn -0.4732 -0.7164 -0.5127
vn -0.9626 -0.1915 -0.1915
vn -0.8014 -0.1930 -0.5662
vn -0.8131 -0.5547 -0.1769
vn -0.7164 -0.5127 -0.4731
vn -0.1915 -0.9626 0.1915
vn -0.1930 -0.8014 0.5662
vn -0.5547 -0.8131 0.1769
vn -0.4732 -0.7164 0.5127
vn -0.1915 -0.1915 0.9626
vn -0.5662 -0.1930 0.8014
vn -0.1769 -0.5547 0.8131
vn -0.4732 -0.5127 0.7164
vn -0.9626 -0.1915 0.1915
vn -0.8014 -0.5662 0.1930
vn -0.8131 -0.1769 0.5547
vn -0.7165 -0.4731 0.5127
vn -0.9626 0.1915 -0.1915
vn -0.8014 0.5662 -0.1930
vn -0.8131 0.1769 -0.5547
vn -0.7164 0.5127 -0.4731
vn -0.1915 0.9626 -0.1915
vn -0.1930 0.8014 -0.5662
vn -0.5547 0.8131 -0.1769
vn -0.5127 0.7164 -0.4731
vn -0.1915 0.1915 0.9626
vn -0.1930 0.5662 0.8014
vn -0.5547 0.1769 0.8131
vn -0.4731 0.5127 0.7165
vn -0.1915 0.9626 0.1915
vn -0.5662 0.8014 0.1930
vn -0.1769 0.8131 0.5547
vn -0.4732 0.7164 0.5127
vn -0.9626 0.1915 0.1915
vn -0.8014 0.1930 0.5662
vn -0.8131 0.5547 0.1769
vn -0.7164 0.5127 0.4731
vn 0.9626 -0.1915 -0.1915
vn 0.8014 -0.5662 -0.1930
vn 0.8131 -0.1769 -0.5547
vn 0.7165 -0.4731 -0.5127
vn 0.1915 -0.9626 -0.1915
vn 0.1930 -0.8014 -0.5662
vn 0.5547 -0.8131 -0.1769
vn 0.5127 -0.7164 -0.4731
vn 0.1915 -0.1915 0.9626
vn 0.1930 -0.5662 0.8014
vn 0.5547 -0.1769 0.8131
vn 0.5127 -0.4731 0.7165
vn 0.1915 -0.9626 0.1915
vn 0.5662 -0.8014 0.1930
vn 0.1769 -0.8131 0.5547
vn 0.4732 -0.7164 0.5127
vn 0.9626 -0.1915 0.1915
vn 0.8014 -0.1930 0.5662
vn 0.8131 -0.5547 0.1769
vn 0.7164 -0.5127 0.4731
vn 0.1915 0.9626 -0.1915
vn 0.5662 0.8014 -0.1930
vn 0.1769 0.8131 -0.5547
vn 0.5127 0.7164 -0.4731
vn 0.9626 0.1915 -0.1915
vn 0.8014 0.1930 -0.5662
vn 0.8131 0.5547 -0.1769
vn 0.7164 0.5127 -0.4731
vn 0.1915 0.1915 0.9626
vn 0.5662 0.1930 0.8014
vn 0.1769 0.5547 0.8131
vn 0.4732 0.5127 0.7164
vn 0.9626 0.1915 0.1915
vn 0.8014 0.5662 0.1930
vn 0.8131 0.1769 0.5547
vn 0.7165 0.4731 0.5127
vn 0.1915 0.9626 0.1915
vn 0.1930 0.8014 0.5662
vn 0.5547 0.8131 0.1769
vn 0.4732 0.7164 0.5127
vn -0.8315 -0.0000 -0.5556
vn -0.9808 -0.0000 -0.1951
vn -0.1951 -0.9808 -0.0000
vn -0.5556 -0.8315 -0.0000
vn -0.8315 -0.5556 -0.0000
vn -0.9808 -0.1951 -0.0000
vn -0.1951 -0.0000 0.9808
vn -0.5556 -0.0000 0.8315
vn -0.8315 -0.0000 0.5556
vn -0.9808 -0.0000 0.1951
vn -0.1951 0.9808 -0.0000
vn -0.5556 0.8315 -0.0000
vn -0.8315 0.5556 -0.0000
vn -0.9808 0.1951 -0.0000
vn -0.0000 0.8315 -0.5556
vn -0.0000 0.9808 -0.1951
vn -0.0000 0.1951 0.9808
vn -0.0000 0.5556 0.8315
vn -0.0000 0.8315 0.5556
vn -0.0000 0.9808 0.1951
vn 0.9808 0.1951 -0.0000
vn 0.8315 0.5556 -0.0000
vn 0.5556 0.8315 -0.0000
vn 0.1951 0.9808 -0.0000
vn 0.8315 -0.0000 -0.5556
vn 0.9808 -0.0000 -0.1951
vn 0.1951 -0.0000 0.9808
vn 0.5556 -0.0000 0.8315
vn 0.8315 -0.0000 0.5556
vn 0.9808 -0.0000 0.1951
vn 0.1951 -0.9808 -0.0000
vn 0.5556 -0.8315 -0.0000
vn 0.8315 -0.5556 -0.0000
vn 0.9808 -0.1951 -0.0000
vn -0.0000 -0.8315 -0.5556
vn -0.0000 -0.9808 -0.1951
vn -0.0000 -0.1951 0.9808
vn -0.0000 -0.5556 0.8315
vn -0.0000 -0.8315 0.5556
vn -0.0000 -0.9808 0.1951
vn -1.0000 -0.0000 -0.0000
vn -0.0000 -1.0000 -0.0000
vn -0.0000 -0.0000 1.0000
vn -0.0000 1.0000 -0.0000
vn 1.0000 -0.0000 -0.0000
vn -0.0000 -0.0000 -1.0000
vn -0.0000 -0.9979 0.0654
vn -0.0000 -0.9469 0.3214
vn -0.0000 -0.8969 0.4423
vn -0.0000 -0.7518 0.6593
vn -0.0000 -0.6593 0.7518
vn -0.0000 -0.4423 0.8969
vn -0.0000 -0.3214 0.9469
vn -0.0000 -0.0654 0.9979
vn -0.0000 0.0654 0.9979
vn -0.0000 0.3214 0.9469
vn -0.0000 0.4423 0.8969
vn -0.0000 0.6593 0.7518
vn -0.0000 0.7518 0.6593
vn -0.0000 0.8969 0.4423
vn -0.0000 0.9469 0.3214
vn -0.0000 0.9979 0.0654
vn -0.0000 0.9979 -0.0654
vn -0.0000 0.9469 -0.3214
vn -0.0000 0.8969 -0.4423
vn -0.0000 0.7518 -0.6593
vn -0.0000 0.6593 -0.7518
vn -0.0000 0.5556 -0.8315
vn -0.0000 0.4423 -0.8969
vn -0.0000 0.3214 -0.9469
vn -0.0000 0.1951 -0.9808
vn -0.0000 0.0654 -0.9979
vn -0.0000 -0.0654 -0.9979
vn -0.0000 -0.1951 -0.9808
vn -0.0000 -0.3214 -0.9469
vn -0.0000 -0.4423 -0.8969
vn -0.0000 -0.5556 -0.8315
vn -0.0000 -0.6593 -0.7518
vn -0.0000 -0.7518 -0.6593
vn -0.0000 -0.8969 -0.4423
vn -0.0000 -0.9469 -0.3214
vn -0.0000 -0.9979 -0.0654
vn -0.2175 -0.9515 -0.2175
vn -0.5547 -0.8131 -0.1769
vn -0.5467 -0.8182 -0.1782
vn -0.1861 -0.8169 -0.5459
vn -0.5127 -0.7164 -0.4731
vn -0.9515 -0.2175 -0.2175
vn -0.8131 -0.1768 -0.5547
vn -0.8182 -0.1782 -0.5467
vn -0.8169 -0.5459 -0.1861
vn -0.7165 -0.4731 -0.5127
vn -0.2175 -0.9515 0.2175
vn -0.1769 -0.8131 0.5546
vn -0.1782 -0.8182 0.5467
vn -0.5459 -0.8169 0.1861
vn -0.5127 -0.7164 0.4731
vn -0.2175 -0.2175 0.9515
vn -0.5547 -0.1769 0.8131
vn -0.5467 -0.1782 0.8182
vn -0.1861 -0.5459 0.8169
vn -0.5127 -0.4731 0.7165
vn -0.9515 -0.2175 0.2175
vn -0.8131 -0.5547 0.1769
vn -0.8182 -0.5467 0.1782
vn -0.8169 -0.1861 0.5459
vn -0.7164 -0.5127 0.4731
vn -0.9515 0.2175 -0.2175
vn -0.8131 0.5547 -0.1769
vn -0.8182 0.5467 -0.1782
vn -0.8169 0.1861 -0.5459
vn -0.7165 0.4731 -0.5127
vn -0.2175 0.9515 -0.2175
vn -0.1769 0.8131 -0.5546
vn -0.1782 0.8182 -0.5467
vn -0.5459 0.8169 -0.1861
vn -0.4732 0.7164 -0.5127
vn -0.2175 0.2175 0.9515
vn -0.1768 0.5547 0.8131
vn -0.1782 0.5467 0.8182
vn -0.5459 0.1861 0.8169
vn -0.5127 0.4731 0.7165
vn -0.2175 0.9515 0.2175
vn -0.5547 0.8131 0.1769
vn -0.5467 0.8182 0.1782
vn -0.1861 0.8169 0.5459
vn -0.5127 0.7164 0.4731
vn -0.9515 0.2175 0.2175
vn -0.8131 0.1768 0.5547
vn -0.8182 0.1782 0.5467
vn -0.8169 0.5459 0.1861
vn -0.7165 0.4731 0.5127
vn 0.9515 -0.2175 -0.2175
vn 0.8131 -0.5547 -0.1769
vn 0.8182 -0.5467 -0.1782
vn 0.8169 -0.1861 -0.5459
vn 0.7164 -0.5127 -0.4731
vn 0.2175 -0.9515 -0.2175
vn 0.1769 -0.8131 -0.5546
vn 0.1782 -0.8182 -0.5467
vn 0.5459 -0.8169 -0.1861
vn 0.4732 -0.7164 -0.5127
vn 0.2175 -0.2175 0.9515
vn 0.1768 -0.5547 0.8131
vn 0.1782 -0.5467 0.8182
vn 0.5459 -0.1861 0.8169
vn 0.4732 -0.5127 0.7164
vn 0.2175 -0.9515 0.2175
vn 0.5547 -0.8131 0.1769
vn 0.5467 -0.8182 0.1782
vn 0.1861 -0.8169 0.5459
vn 0.5127 -0.7164 0.4731
vn 0.9515 -0.2175 0.2175
vn 0.8131 -0.1768 0.5547
vn 0.8182 -0.1782 0.5467
vn 0.8169 -0.5459 0.1861
vn 0.7165 -0.4731 0.5127
vn 0.2175 0.9515 -0.2175
vn 0.5547 0.8131 -0.1769
vn 0.5467 0.8182 -0.1782
vn 0.1861 0.8169 -0.5459
vn 0.4732 0.7164 -0.5127
vn 0.9515 0.2175 -0.2175
vn 0.8131 0.1768 -0.5547
vn 0.8182 0.1782 -0.5467
vn 0.8169 0.5459 -0.1861
vn 0.7165 0.4731 -0.5127
vn 0.2175 0.2175 0.9515
vn 0.5547 0.1769 0.8131
vn 0.5467 0.1782 0.8182
vn 0.1861 0.5459 0.8169
vn 0.5127 0.4731 0.7165
vn 0.9515 0.2175 0.2175
vn 0.8131 0.5547 0.1769
vn 0.8182 0.5467 0.1782
vn 0.8169 0.1861 0.5459
vn 0.7164 0.5127 0.4731
vn 0.2175 0.9515 0.2175
vn 0.1769 0.8131 0.5546
vn 0.1782 0.8182 0.5467
vn 0.5459 0.8169 0.1861
vn 0.5127 0.7164 0.4731
vn 1.0000 -0.0001 -0.0000
vn -0.0000 -1.0000 0.0001
vn -1.0000 0.0001 -0.0000
vn -1.0000 0.0005 -0.0000
vn -1.0000 -0.0001 -0.0000
vn -1.0000 -0.0003 -0.0000
vn 0.0001 -0.0000 -1.0000
s 0
usemtl grp_white
f 3//1 4//1 1//1
f 82//2 5//2 81//2
f 84//3 4//3 85//3
f 5//4 87//4 85//4
f 6//5 7//5 2//5
f 88//6 8//6 89//6
f 91//7 7//7 92//7
f 8//8 94//8 92//8
f 12//9 13//9 9//9
f 95//10 14//10 96//10
f 98//11 13//11 99//11
f 101//12 14//12 97//12
f 15//13 16//13 10//13
f 103//14 17//14 102//14
f 105//15 16//15 106//15
f 17//16 108//16 106//16
f 18//17 19//17 11//17
f 109//18 20//18 110//18
f 112//19 19//19 113//19
f 20//20 115//20 113//20
f 23//21 24//21 21//21
f 116//22 25//22 117//22
f 120//23 24//23 119//23
f 122//24 25//24 118//24
f 26//25 27//25 22//25
f 123//26 28//26 124//26
f 126//27 27//27 127//27
f 28//28 129//28 127//28
f 32//29 33//29 29//29
f 131//30 34//30 130//30
f 133//31 33//31 134//31
f 136//32 34//32 132//32
f 35//33 36//33 30//33
f 137//34 37//34 138//34
f 140//35 36//35 141//35
f 37//36 143//36 141//36
f 38//37 39//37 31//37
f 144//38 40//38 145//38
f 148//39 39//39 147//39
f 40//40 150//40 147//40
f 43//41 44//41 41//41
f 152//42 45//42 151//42
f 154//43 44//43 155//43
f 45//44 157//44 155//44
f 46//45 47//45 42//45
f 158//46 48//46 159//46
f 161//47 47//47 162//47
f 48//48 164//48 162//48
f 52//49 53//49 49//49
f 165//50 54//50 166//50
f 168//51 53//51 169//51
f 54//52 171//52 169//52
f 55//53 56//53 50//53
f 172//54 57//54 173//54
f 175//55 56//55 176//55
f 57//56 178//56 176//56
f 58//57 59//57 51//57
f 180//58 60//58 179//58
f 182//59 59//59 183//59
f 60//60 185//60 183//60
f 63//61 64//61 61//61
f 186//62 65//62 187//62
f 190//63 64//63 189//63
f 192//64 65//64 188//64
f 66//65 67//65 62//65
f 193//66 68//66 194//66
f 196//67 67//67 197//67
f 68//68 199//68 197//68
f 72//69 73//69 69//69
f 200//70 74//70 201//70
f 203//71 73//71 204//71
f 74//72 206//72 204//72
f 75//73 76//73 70//73
f 207//74 77//74 208//74
f 210//75 76//75 211//75
f 77//76 213//76 211//76
f 78//77 79//77 71//77
f 214//78 80//78 215//78
f 218//79 79//79 217//79
f 220//80 80//80 216//80
f 6//81 121//81 89//81
f 6//82 21//82 24//82
f 9//83 3//83 1//83
f 3//84 100//84 81//84
f 18//85 93//85 110//85
f 18//86 2//86 7//86
f 29//87 15//87 10//87
f 15//88 135//88 102//88
f 19//89 145//89 38//89
f 38//90 11//90 19//90
f 22//91 35//91 30//91
f 35//92 128//92 138//92
f 39//93 117//93 23//93
f 23//94 31//94 39//94
f 64//95 124//95 26//95
f 26//96 61//96 64//96
f 69//97 32//97 29//97
f 32//98 205//98 130//98
f 36//99 215//99 78//99
f 78//100 30//100 36//100
f 62//101 75//101 70//101
f 67//102 208//102 75//102
f 79//103 187//103 63//103
f 63//104 71//104 79//104
f 66//105 156//105 194//105
f 66//106 41//106 44//106
f 49//107 72//107 69//107
f 53//108 201//108 72//108
f 58//109 212//109 179//109
f 58//110 70//110 76//110
f 42//111 55//111 50//111
f 47//112 173//112 55//112
f 43//113 184//113 151//113
f 43//114 51//114 59//114
f 46//115 86//115 159//115
f 46//116 1//116 4//116
f 10//117 52//117 49//117
f 52//118 107//118 166//118
f 12//119 177//119 96//119
f 12//120 50//120 56//120
f 11//121 21//121 2//121
f 50//122 1//122 42//122
f 29//123 319//123 320//123
f 69//123 321//123 322//123
f 30//124 61//124 22//124
f 41//125 62//125 259//125
f 51//125 222//125 228//125
f 116//125 150//125 112//125
f 126//122 123//122 186//122
f 207//121 299//121 284//121
f 193//121 156//121 295//121
f 172//124 164//124 84//124
f 171//126 133//126 136//126
f 103//126 133//126 323//126
f 232//127 311//127 233//127
f 233//120 313//120 236//120
f 236//128 308//128 266//128
f 266//129 315//129 267//129
f 264//119 265//119 315//119
f 264//130 306//130 268//130
f 268//131 302//131 262//131
f 262//118 317//118 263//118
f 263//132 298//132 261//132
f 261//133 300//133 269//133
f 258//117 300//117 296//117
f 259//134 296//134 297//134
f 259//135 295//135 257//135
f 257//97 301//97 260//97
f 255//136 301//136 292//136
f 252//137 292//137 293//137
f 248//98 293//98 291//98
f 250//138 291//138 294//138
f 245//139 294//139 289//139
f 290//99 246//99 245//99
f 242//140 290//140 288//140
f 244//141 288//141 277//141
f 239//100 277//100 272//100
f 238//142 272//142 271//142
f 240//143 271//143 273//143
f 243//96 273//96 278//96
f 241//144 278//144 276//144
f 254//145 276//145 275//145
f 247//95 275//95 274//95
f 251//146 274//146 287//146
f 249//147 287//147 279//147
f 282//148 249//148 279//148
f 256//149 282//149 281//149
f 281//150 221//150 256//150
f 223//151 280//151 286//151
f 283//152 223//152 286//152
f 228//153 283//153 285//153
f 284//154 228//154 285//154
f 299//155 225//155 284//155
f 318//156 224//156 299//156
f 226//157 318//157 303//157
f 307//158 226//158 303//158
f 237//159 305//159 229//159
f 229//115 316//115 231//115
f 231//160 309//160 230//160
f 230//161 314//161 235//161
f 235//116 312//116 234//116
f 234//162 310//162 232//162
f 320//125 323//125 324//125
f 321//122 324//122 325//122
f 321//121 326//121 322//121
f 322//124 323//124 319//124
f 3//163 5//163 4//163
f 82//164 83//164 5//164
f 5//165 3//165 81//165
f 84//166 86//166 4//166
f 4//3 5//3 85//3
f 5//167 83//167 87//167
f 6//168 8//168 7//168
f 88//169 90//169 8//169
f 8//170 6//170 89//170
f 91//171 93//171 7//171
f 7//7 8//7 92//7
f 8//172 90//172 94//172
f 12//173 14//173 13//173
f 95//174 97//174 14//174
f 14//175 12//175 96//175
f 98//176 100//176 13//176
f 13//11 14//11 99//11
f 101//177 99//177 14//177
f 15//178 17//178 16//178
f 103//179 104//179 17//179
f 17//180 15//180 102//180
f 105//181 107//181 16//181
f 16//15 17//15 106//15
f 17//182 104//182 108//182
f 18//183 20//183 19//183
f 109//184 111//184 20//184
f 20//185 18//185 110//185
f 112//186 114//186 19//186
f 19//19 20//19 113//19
f 20//187 111//187 115//187
f 23//188 25//188 24//188
f 116//189 118//189 25//189
f 25//190 23//190 117//190
f 120//191 121//191 24//191
f 24//23 25//23 119//23
f 122//192 119//192 25//192
f 26//193 28//193 27//193
f 123//194 125//194 28//194
f 28//195 26//195 124//195
f 126//196 128//196 27//196
f 27//27 28//27 127//27
f 28//197 125//197 129//197
f 32//198 34//198 33//198
f 131//199 132//199 34//199
f 34//200 32//200 130//200
f 133//201 135//201 33//201
f 33//31 34//31 134//31
f 136//202 134//202 34//202
f 35//203 37//203 36//203
f 137//204 139//204 37//204
f 37//205 35//205 138//205
f 140//206 142//206 36//206
f 36//35 37//35 141//35
f 37//207 139//207 143//207
f 38//208 40//208 39//208
f 144//209 146//209 40//209
f 40//210 38//210 145//210
f 148//211 149//211 39//211
f 39//39 40//39 147//39
f 40//212 146//212 150//212
f 43//213 45//213 44//213
f 152//214 153//214 45//214
f 45//215 43//215 151//215
f 154//216 156//216 44//216
f 44//43 45//43 155//43
f 45//217 153//217 157//217
f 46//218 48//218 47//218
f 158//219 160//219 48//219
f 48//220 46//220 159//220
f 161//221 163//221 47//221
f 47//47 48//47 162//47
f 48//222 160//222 164//222
f 52//223 54//223 53//223
f 165//224 167//224 54//224
f 54//225 52//225 166//225
f 168//226 170//226 53//226
f 53//51 54//51 169//51
f 54//227 167//227 171//227
f 55//228 57//228 56//228
f 172//229 174//229 57//229
f 57//230 55//230 173//230
f 175//231 177//231 56//231
f 56//55 57//55 176//55
f 57//232 174//232 178//232
f 58//233 60//233 59//233
f 180//234 181//234 60//234
f 60//235 58//235 179//235
f 182//236 184//236 59//236
f 59//59 60//59 183//59
f 60//237 181//237 185//237
f 63//238 65//238 64//238
f 186//239 188//239 65//239
f 65//240 63//240 187//240
f 190//241 191//241 64//241
f 64//63 65//63 189//63
f 192//242 189//242 65//242
f 66//243 68//243 67//243
f 193//244 195//244 68//244
f 68//245 66//245 194//245
f 196//246 198//246 67//246
f 67//67 68//67 197//67
f 68//247 195//247 199//247
f 72//248 74//248 73//248
f 200//249 202//249 74//249
f 74//250 72//250 201//250
f 203//251 205//251 73//251
f 73//71 74//71 204//71
f 74//252 202//252 206//252
f 75//253 77//253 76//253
f 207//254 209//254 77//254
f 77//255 75//255 208//255
f 210//256 212//256 76//256
f 76//75 77//75 211//75
f 77//257 209//257 213//257
f 78//258 80//258 79//258
f 214//259 216//259 80//259
f 80//260 78//260 215//260
f 218//261 219//261 79//261
f 79//79 80//79 217//79
f 220//262 217//262 80//262
f 6//81 24//81 121//81
f 6//82 2//82 21//82
f 9//83 13//83 3//83
f 3//84 13//84 100//84
f 18//85 7//85 93//85
f 18//86 11//86 2//86
f 29//87 33//87 15//87
f 15//88 33//88 135//88
f 19//89 114//89 145//89
f 38//90 31//90 11//90
f 22//91 27//91 35//91
f 35//92 27//92 128//92
f 39//93 149//93 117//93
f 23//94 21//94 31//94
f 64//95 191//95 124//95
f 26//96 22//96 61//96
f 69//97 73//97 32//97
f 32//98 73//98 205//98
f 36//99 142//99 215//99
f 78//100 71//100 30//100
f 62//101 67//101 75//101
f 67//102 198//102 208//102
f 79//103 219//103 187//103
f 63//104 61//104 71//104
f 66//105 44//105 156//105
f 66//106 62//106 41//106
f 49//107 53//107 72//107
f 53//108 170//108 201//108
f 58//109 76//109 212//109
f 58//110 51//110 70//110
f 42//111 47//111 55//111
f 47//112 163//112 173//112
f 43//113 59//113 184//113
f 43//114 41//114 51//114
f 46//115 4//115 86//115
f 46//116 42//116 1//116
f 10//117 16//117 52//117
f 52//118 16//118 107//118
f 12//119 56//119 177//119
f 12//120 9//120 50//120
f 11//121 31//121 21//121
f 50//122 9//122 1//122
f 29//123 10//123 319//123
f 322//123 319//123 10//123
f 10//123 49//123 69//123
f 69//123 29//123 320//123
f 69//123 320//123 321//123
f 322//123 10//123 69//123
f 30//124 71//124 61//124
f 245//125 246//125 41//125
f 62//125 265//125 264//125
f 62//125 264//125 268//125
f 250//125 245//125 41//125
f 248//125 250//125 41//125
f 62//125 268//125 262//125
f 62//125 262//125 263//125
f 252//125 248//125 41//125
f 255//125 252//125 41//125
f 62//125 263//125 261//125
f 62//125 261//125 269//125
f 260//125 255//125 41//125
f 257//125 260//125 41//125
f 62//125 269//125 258//125
f 259//125 257//125 41//125
f 62//125 258//125 259//125
f 267//125 265//125 62//125
f 41//125 246//125 253//125
f 41//125 253//125 242//125
f 266//125 267//125 62//125
f 236//125 266//125 62//125
f 41//125 242//125 244//125
f 41//125 244//125 239//125
f 236//125 62//125 70//125
f 233//125 236//125 70//125
f 51//125 41//125 239//125
f 51//125 239//125 238//125
f 232//125 233//125 70//125
f 234//125 232//125 70//125
f 51//125 238//125 240//125
f 51//125 240//125 243//125
f 235//125 234//125 70//125
f 230//125 235//125 70//125
f 51//125 243//125 241//125
f 51//125 241//125 254//125
f 231//125 230//125 70//125
f 229//125 231//125 70//125
f 51//125 254//125 247//125
f 51//125 247//125 251//125
f 237//125 229//125 70//125
f 226//125 237//125 70//125
f 51//125 251//125 249//125
f 51//125 249//125 270//125
f 226//125 70//125 51//125
f 227//125 226//125 51//125
f 51//125 270//125 256//125
f 51//125 256//125 221//125
f 224//125 227//125 51//125
f 225//125 224//125 51//125
f 51//125 221//125 223//125
f 51//125 223//125 222//125
f 228//125 225//125 51//125
f 91//125 92//125 94//125
f 94//125 90//125 88//125
f 88//125 89//125 121//125
f 120//125 119//125 122//125
f 88//125 121//125 120//125
f 91//125 94//125 88//125
f 110//125 93//125 91//125
f 115//125 111//125 109//125
f 109//125 110//125 91//125
f 91//125 88//125 120//125
f 120//125 122//125 118//125
f 116//263 117//263 149//263
f 120//125 118//125 116//125
f 109//125 91//125 120//125
f 113//125 115//125 109//125
f 145//125 114//125 112//125
f 112//125 113//125 109//125
f 109//125 120//125 116//125
f 116//125 149//125 148//125
f 148//125 147//125 150//125
f 150//125 146//125 144//125
f 144//125 145//125 112//125
f 112//125 109//125 116//125
f 116//125 148//125 150//125
f 150//125 144//125 112//125
f 217//264 220//264 216//264
f 214//122 215//122 142//122
f 217//122 216//122 214//122
f 187//122 219//122 218//122
f 218//122 217//122 214//122
f 214//122 142//122 140//122
f 140//122 141//122 143//122
f 143//122 139//122 137//122
f 137//122 138//122 128//122
f 126//122 127//122 129//122
f 137//122 128//122 126//122
f 140//122 143//122 137//122
f 218//122 214//122 140//122
f 186//122 187//122 218//122
f 192//122 188//122 186//122
f 190//122 189//122 192//122
f 124//122 191//122 190//122
f 129//122 125//122 123//122
f 123//122 124//122 190//122
f 190//122 192//122 186//122
f 186//122 218//122 140//122
f 140//122 137//122 126//122
f 126//122 129//122 123//122
f 123//122 190//122 186//122
f 186//122 140//122 126//122
f 154//121 155//121 157//121
f 157//121 153//121 152//121
f 152//265 151//265 184//265
f 182//121 183//121 185//121
f 152//121 184//121 182//121
f 154//121 157//121 152//121
f 290//121 289//121 154//121
f 288//121 290//121 154//121
f 154//121 152//121 182//121
f 182//121 185//121 181//121
f 180//121 179//121 212//121
f 182//121 181//121 180//121
f 288//121 154//121 182//121
f 277//266 288//266 182//266
f 182//121 180//121 212//121
f 210//121 211//121 213//121
f 182//121 212//121 210//121
f 272//121 277//121 182//121
f 271//121 272//121 182//121
f 182//121 210//121 213//121
f 213//121 209//121 207//121
f 207//267 208//267 198//267
f 196//121 197//121 199//121
f 207//121 198//121 196//121
f 182//121 213//121 207//121
f 273//121 271//121 182//121
f 278//121 273//121 182//121
f 207//121 196//121 199//121
f 199//121 195//121 193//121
f 193//121 304//121 315//121
f 193//121 315//121 308//121
f 207//121 199//121 193//121
f 276//121 278//121 182//121
f 275//121 276//121 182//121
f 207//121 193//121 308//121
f 207//268 308//268 313//268
f 274//121 275//121 182//121
f 287//121 274//121 182//121
f 207//121 313//121 311//121
f 207//121 311//121 310//121
f 279//121 287//121 182//121
f 282//121 279//121 182//121
f 207//121 310//121 312//121
f 207//121 312//121 314//121
f 282//121 182//121 207//121
f 281//121 282//121 207//121
f 207//121 314//121 309//121
f 207//121 309//121 316//121
f 280//121 281//121 207//121
f 286//121 280//121 207//121
f 207//121 316//121 305//121
f 207//121 305//121 307//121
f 283//121 286//121 207//121
f 285//121 283//121 207//121
f 207//121 307//121 303//121
f 207//121 303//121 318//121
f 284//121 285//121 207//121
f 207//121 318//121 299//121
f 306//121 304//121 193//121
f 193//121 194//121 156//121
f 156//121 154//121 289//121
f 156//121 289//121 294//121
f 302//121 306//121 193//121
f 317//121 302//121 193//121
f 156//121 294//121 291//121
f 156//121 291//121 293//121
f 298//121 317//121 193//121
f 300//121 298//121 193//121
f 156//121 293//121 292//121
f 156//121 292//121 301//121
f 296//121 300//121 193//121
f 297//121 296//121 193//121
f 156//121 301//121 295//121
f 295//121 297//121 193//121
f 98//124 99//124 101//124
f 101//124 97//124 95//124
f 95//124 96//124 177//124
f 175//124 176//124 178//124
f 95//124 177//124 175//124
f 98//124 101//124 95//124
f 81//124 100//124 98//124
f 87//124 83//124 82//124
f 82//124 81//124 98//124
f 98//124 95//124 175//124
f 175//124 178//124 174//124
f 172//124 173//124 163//124
f 175//124 174//124 172//124
f 82//124 98//124 175//124
f 85//124 87//124 82//124
f 159//124 86//124 84//124
f 84//124 85//124 82//124
f 82//124 175//124 172//124
f 172//124 163//124 161//124
f 161//124 162//124 164//124
f 164//124 160//124 158//124
f 158//124 159//124 84//124
f 84//124 82//124 172//124
f 172//124 161//124 164//124
f 164//124 158//124 84//124
f 168//126 169//126 171//126
f 171//126 167//126 165//126
f 165//126 166//126 107//126
f 107//126 105//126 323//126
f 107//126 323//126 326//126
f 171//126 165//126 107//126
f 170//126 168//126 171//126
f 200//126 201//126 170//126
f 206//126 202//126 200//126
f 203//126 204//126 206//126
f 130//126 205//126 203//126
f 136//126 132//126 131//126
f 131//126 130//126 203//126
f 203//126 206//126 200//126
f 200//126 170//126 171//126
f 171//126 107//126 326//126
f 325//126 324//126 133//126
f 171//126 326//126 325//126
f 203//126 200//126 171//126
f 136//126 131//126 203//126
f 133//126 134//126 136//126
f 171//126 325//126 133//126
f 136//126 203//126 171//126
f 106//269 108//269 104//269
f 103//126 102//126 135//126
f 106//126 104//126 103//126
f 323//126 105//126 106//126
f 133//126 324//126 323//126
f 103//126 135//126 133//126
f 323//126 106//126 103//126
f 232//127 310//127 311//127
f 233//120 311//120 313//120
f 236//128 313//128 308//128
f 266//129 308//129 315//129
f 315//119 304//119 264//119
f 265//119 267//119 315//119
f 264//130 304//130 306//130
f 268//131 306//131 302//131
f 262//118 302//118 317//118
f 263//132 317//132 298//132
f 261//133 298//133 300//133
f 258//117 269//117 300//117
f 259//134 258//134 296//134
f 259//135 297//135 295//135
f 257//97 295//97 301//97
f 255//136 260//136 301//136
f 252//137 255//137 292//137
f 248//98 252//98 293//98
f 250//138 248//138 291//138
f 245//139 250//139 294//139
f 245//99 289//99 290//99
f 290//99 253//99 246//99
f 242//140 253//140 290//140
f 244//141 242//141 288//141
f 239//100 244//100 277//100
f 238//142 239//142 272//142
f 240//143 238//143 271//143
f 243//96 240//96 273//96
f 241//144 243//144 278//144
f 254//145 241//145 276//145
f 247//95 254//95 275//95
f 251//146 247//146 274//146
f 249//147 251//147 287//147
f 282//148 270//148 249//148
f 256//149 270//149 282//149
f 281//150 280//150 221//150
f 223//151 221//151 280//151
f 283//152 222//152 223//152
f 228//153 222//153 283//153
f 284//154 225//154 228//154
f 299//155 224//155 225//155
f 318//156 227//156 224//156
f 226//157 227//157 318//157
f 307//158 237//158 226//158
f 237//159 307//159 305//159
f 229//115 305//115 316//115
f 231//160 316//160 309//160
f 230//161 309//161 314//161
f 235//116 314//116 312//116
f 234//162 312//162 310//162
f 320//125 319//125 323//125
f 321//122 320//122 324//122
f 321//121 325//121 326//121
f 322//124 326//124 323//124
