# Blender 5.2.2 LTS
# www.blender.org
mtllib cover_bolts_ok.mtl
o cover_bolts_ok
v -2.310000 0.794000 0.527000
v -2.310000 0.780000 0.527000
v -2.295278 0.794000 0.518500
v -2.295278 0.780000 0.518500
v -2.295278 0.794000 0.501500
v -2.295278 0.780000 0.501500
v -2.310000 0.794000 0.493000
v -2.310000 0.780000 0.493000
v -2.324722 0.794000 0.501500
v -2.324722 0.780000 0.501500
v -2.324722 0.794000 0.518500
v -2.324722 0.780000 0.518500
v -2.310000 0.794000 0.107000
v -2.310000 0.780000 0.107000
v -2.295278 0.794000 0.098500
v -2.295278 0.780000 0.098500
v -2.295278 0.794000 0.081500
v -2.295278 0.780000 0.081500
v -2.310000 0.794000 0.073000
v -2.310000 0.780000 0.073000
v -2.324722 0.794000 0.081500
v -2.324722 0.780000 0.081500
v -2.324722 0.794000 0.098500
v -2.324722 0.780000 0.098500
v -2.100000 0.794000 0.527000
v -2.100000 0.780000 0.527000
v -2.085278 0.794000 0.518500
v -2.085278 0.780000 0.518500
v -2.085278 0.794000 0.501500
v -2.085278 0.780000 0.501500
v -2.100000 0.794000 0.493000
v -2.100000 0.780000 0.493000
v -2.114722 0.794000 0.501500
v -2.114722 0.780000 0.501500
v -2.114722 0.794000 0.518500
v -2.114722 0.780000 0.518500
v -2.100000 0.794000 0.107000
v -2.100000 0.780000 0.107000
v -2.085278 0.794000 0.098500
v -2.085278 0.780000 0.098500
v -2.085278 0.794000 0.081500
v -2.085278 0.780000 0.081500
v -2.100000 0.794000 0.073000
v -2.100000 0.780000 0.073000
v -2.114722 0.794000 0.081500
v -2.114722 0.780000 0.081500
v -2.114722 0.794000 0.098500
v -2.114722 0.780000 0.098500
v -1.890000 0.794000 0.527000
v -1.890000 0.780000 0.527000
v -1.875278 0.794000 0.518500
v -1.875278 0.780000 0.518500
v -1.875278 0.794000 0.501500
v -1.875278 0.780000 0.501500
v -1.890000 0.794000 0.493000
v -1.890000 0.780000 0.493000
v -1.904722 0.794000 0.501500
v -1.904722 0.780000 0.501500
v -1.904722 0.794000 0.518500
v -1.904722 0.780000 0.518500
v -1.890000 0.794000 0.107000
v -1.890000 0.780000 0.107000
v -1.875278 0.794000 0.098500
v -1.875278 0.780000 0.098500
v -1.875278 0.794000 0.081500
v -1.875278 0.780000 0.081500
v -1.890000 0.794000 0.073000
v -1.890000 0.780000 0.073000
v -1.904722 0.794000 0.081500
v -1.904722 0.780000 0.081500
v -1.904722 0.794000 0.098500
v -1.904722 0.780000 0.098500
v -2.310000 0.794000 0.317000
v -2.310000 0.780000 0.317000
v -2.295278 0.794000 0.308500
v -2.295278 0.780000 0.308500
v -2.295278 0.794000 0.291500
v -2.295278 0.780000 0.291500
v -2.310000 0.794000 0.283000
v -2.310000 0.780000 0.283000
v -2.324722 0.794000 0.291500
v -2.324722 0.780000 0.291500
v -2.324722 0.794000 0.308500
v -2.324722 0.780000 0.308500
v -1.890000 0.794000 0.317000
v -1.890000 0.780000 0.317000
v -1.875278 0.794000 0.308500
v -1.875278 0.780000 0.308500
v -1.875278 0.794000 0.291500
v -1.875278 0.780000 0.291500
v -1.890000 0.794000 0.283000
v -1.890000 0.780000 0.283000
v -1.904722 0.794000 0.291500
v -1.904722 0.780000 0.291500
v -1.904722 0.794000 0.308500
v -1.904722 0.780000 0.308500
vn 0.5000 -0.0000 0.8660
vn 1.0000 -0.0000 -0.0000
vn 0.5000 -0.0000 -0.8660
vn -0.5000 -0.0000 -0.8660
vn -0.0000 -1.0000 -0.0000
vn -1.0000 -0.0000 -0.0000
vn -0.5000 -0.0000 0.8660
vn -0.0000 1.0000 -0.0000
s 0
usemtl bolt_black
f 2//1 3//1 1//1
f 4//2 5//2 3//2
f 6//3 7//3 5//3
f 8//4 9//4 7//4
f 2//5 10//5 6//5
f 10//6 11//6 9//6
f 12//7 1//7 11//7
f 3//8 7//8 11//8
f 14//1 15//1 13//1
f 16//2 17//2 15//2
f 18//3 19//3 17//3
f 20//4 21//4 19//4
f 14//5 22//5 18//5
f 22//6 23//6 21//6
f 24//7 13//7 23//7
f 15//8 19//8 23//8
f 26//1 27//1 25//1
f 28//2 29//2 27//2
f 30//3 31//3 29//3
f 32//4 33//4 31//4
f 26//5 34//5 30//5
f 34//6 35//6 33//6
f 36//7 25//7 35//7
f 27//8 31//8 35//8
f 38//1 39//1 37//1
f 40//2 41//2 39//2
f 42//3 43//3 41//3
f 44//4 45//4 43//4
f 38//5 46//5 42//5
f 46//6 47//6 45//6
f 48//7 37//7 47//7
f 39//8 43//8 47//8
f 50//1 51//1 49//1
f 52//2 53//2 51//2
f 54//3 55//3 53//3
f 56//4 57//4 55//4
f 50//5 58//5 54//5
f 58//6 59//6 57//6
f 60//7 49//7 59//7
f 51//8 55//8 59//8
f 62//1 63//1 61//1
f 64//2 65//2 63//2
f 66//3 67//3 65//3
f 68//4 69//4 67//4
f 62//5 70//5 66//5
f 70//6 71//6 69//6
f 72//7 61//7 71//7
f 63//8 67//8 71//8
f 74//1 75//1 73//1
f 76//2 77//2 75//2
f 78//3 79//3 77//3
f 80//4 81//4 79//4
f 74//5 82//5 78//5
f 82//6 83//6 81//6
f 84//7 73//7 83//7
f 75//8 79//8 83//8
f 86//1 87//1 85//1
f 88//2 89//2 87//2
f 90//3 91//3 89//3
f 92//4 93//4 91//4
f 86//5 94//5 90//5
f 94//6 95//6 93//6
f 96//7 85//7 95//7
f 87//8 91//8 95//8
f 2//1 4//1 3//1
f 4//2 6//2 5//2
f 6//3 8//3 7//3
f 8//4 10//4 9//4
f 6//5 4//5 2//5
f 2//5 12//5 10//5
f 10//5 8//5 6//5
f 10//6 12//6 11//6
f 12//7 2//7 1//7
f 11//8 1//8 3//8
f 3//8 5//8 7//8
f 7//8 9//8 11//8
f 14//1 16//1 15//1
f 16//2 18//2 17//2
f 18//3 20//3 19//3
f 20//4 22//4 21//4
f 18//5 16//5 14//5
f 14//5 24//5 22//5
f 22//5 20//5 18//5
f 22//6 24//6 23//6
f 24//7 14//7 13//7
f 23//8 13//8 15//8
f 15//8 17//8 19//8
f 19//8 21//8 23//8
f 26//1 28//1 27//1
f 28//2 30//2 29//2
f 30//3 32//3 31//3
f 32//4 34//4 33//4
f 30//5 28//5 26//5
f 26//5 36//5 34//5
f 34//5 32//5 30//5
f 34//6 36//6 35//6
f 36//7 26//7 25//7
f 35//8 25//8 27//8
f 27//8 29//8 31//8
f 31//8 33//8 35//8
f 38//1 40//1 39//1
f 40//2 42//2 41//2
f 42//3 44//3 43//3
f 44//4 46//4 45//4
f 42//5 40//5 38//5
f 38//5 48//5 46//5
f 46//5 44//5 42//5
f 46//6 48//6 47//6
f 48//7 38//7 37//7
f 47//8 37//8 39//8
f 39//8 41//8 43//8
f 43//8 45//8 47//8
f 50//1 52//1 51//1
f 52//2 54//2 53//2
f 54//3 56//3 55//3
f 56//4 58//4 57//4
f 54//5 52//5 50//5
f 50//5 60//5 58//5
f 58//5 56//5 54//5
f 58//6 60//6 59//6
f 60//7 50//7 49//7
f 59//8 49//8 51//8
f 51//8 53//8 55//8
f 55//8 57//8 59//8
f 62//1 64//1 63//1
f 64//2 66//2 65//2
f 66//3 68//3 67//3
f 68//4 70//4 69//4
f 66//5 64//5 62//5
f 62//5 72//5 70//5
f 70//5 68//5 66//5
f 70//6 72//6 71//6
f 72//7 62//7 61//7
f 71//8 61//8 63//8
f 63//8 65//8 67//8
f 67//8 69//8 71//8
f 74//1 76//1 75//1
f 76//2 78//2 77//2
f 78//3 80//3 79//3
f 80//4 82//4 81//4
f 78//5 76//5 74//5
f 74//5 84//5 82//5
f 82//5 80//5 78//5
f 82//6 84//6 83//6
f 84//7 74//7 73//7
f 83//8 73//8 75//8
f 75//8 77//8 79//8
f 79//8 81//8 83//8
f 86//1 88//1 87//1
f 88//2 90//2 89//2
f 90//3 92//3 91//3
f 92//4 94//4 93//4
f 90//5 88//5 86//5
f 86//5 96//5 94//5
f 94//5 92//5 90//5
f 94//6 96//6 95//6
f 96//7 86//7 85//7
f 95//8 85//8 87//8
f 87//8 89//8 91//8
f 91//8 93//8 95//8
