# Blender 5.2.2 LTS
# www.blender.org
mtllib crane_trolley.mtl
o crane_trolley
v -0.250000 -0.140000 -0.330000
v -0.250000 -0.140000 -0.030000
v -0.250000 0.140000 -0.330000
v -0.250000 0.140000 -0.030000
v 0.250000 -0.140000 -0.330000
v 0.250000 -0.140000 -0.030000
v 0.250000 0.140000 -0.330000
v 0.250000 0.140000 -0.030000
v -0.175000 0.100000 -0.220000
v 0.175000 0.100000 -0.220000
v -0.175000 0.099144 -0.233053
v 0.175000 0.099144 -0.233053
v -0.175000 0.096593 -0.245882
v 0.175000 0.096593 -0.245882
v -0.175000 0.092388 -0.258268
v 0.175000 0.092388 -0.258268
v -0.175000 0.086603 -0.270000
v 0.175000 0.086603 -0.270000
v -0.175000 0.079335 -0.280876
v 0.175000 0.079335 -0.280876
v -0.175000 0.070711 -0.290711
v 0.175000 0.070711 -0.290711
v -0.175000 0.060876 -0.299335
v 0.175000 0.060876 -0.299335
v -0.175000 0.050000 -0.306603
v 0.175000 0.050000 -0.306603
v -0.175000 0.038268 -0.312388
v 0.175000 0.038268 -0.312388
v -0.175000 0.025882 -0.316593
v 0.175000 0.025882 -0.316593
v -0.175000 0.013053 -0.319144
v 0.175000 0.013053 -0.319144
v -0.175000 0.000000 -0.320000
v 0.175000 0.000000 -0.320000
v -0.175000 -0.013053 -0.319144
v 0.175000 -0.013053 -0.319144
v -0.175000 -0.025882 -0.316593
v 0.175000 -0.025882 -0.316593
v -0.175000 -0.038268 -0.312388
v 0.175000 -0.038268 -0.312388
v -0.175000 -0.050000 -0.306603
v 0.175000 -0.050000 -0.306603
v -0.175000 -0.060876 -0.299335
v 0.175000 -0.060876 -0.299335
v -0.175000 -0.070711 -0.290711
v 0.175000 -0.070711 -0.290711
v -0.175000 -0.079335 -0.280876
v 0.175000 -0.079335 -0.280876
v -0.175000 -0.086603 -0.270000
v 0.175000 -0.086603 -0.270000
v -0.175000 -0.092388 -0.258268
v 0.175000 -0.092388 -0.258268
v -0.175000 -0.096593 -0.245882
v 0.175000 -0.096593 -0.245882
v -0.175000 -0.099144 -0.233053
v 0.175000 -0.099144 -0.233053
v -0.175000 -0.100000 -0.220000
v 0.175000 -0.100000 -0.220000
v -0.175000 -0.099144 -0.206947
v 0.175000 -0.099144 -0.206947
v -0.175000 -0.096593 -0.194118
v 0.175000 -0.096593 -0.194118
v -0.175000 -0.092388 -0.181732
v 0.175000 -0.092388 -0.181732
v -0.175000 -0.086603 -0.170000
v 0.175000 -0.086603 -0.170000
v -0.175000 -0.079335 -0.159124
v 0.175000 -0.079335 -0.159124
v -0.175000 -0.070711 -0.149289
v 0.175000 -0.070711 -0.149289
v -0.175000 -0.060876 -0.140665
v 0.175000 -0.060876 -0.140665
v -0.175000 -0.050000 -0.133397
v 0.175000 -0.050000 -0.133397
v -0.175000 -0.038268 -0.127612
v 0.175000 -0.038268 -0.127612
v -0.175000 -0.025882 -0.123407
v 0.175000 -0.025882 -0.123407
v -0.175000 -0.013053 -0.120856
v 0.175000 -0.013053 -0.120856
v -0.175000 0.000000 -0.120000
v 0.175000 0.000000 -0.120000
v -0.175000 0.013053 -0.120856
v 0.175000 0.013053 -0.120856
v -0.175000 0.025882 -0.123407
v 0.175000 0.025882 -0.123407
v -0.175000 0.038268 -0.127612
v 0.175000 0.038268 -0.127612
v -0.175000 0.050000 -0.133397
v 0.175000 0.050000 -0.133397
v -0.175000 0.060876 -0.140665
v 0.175000 0.060876 -0.140665
v -0.175000 0.070711 -0.149289
v 0.175000 0.070711 -0.149289
v -0.175000 0.079335 -0.159124
v 0.175000 0.079335 -0.159124
v -0.175000 0.086603 -0.170000
v 0.175000 0.086603 -0.170000
v -0.175000 0.092388 -0.181732
v 0.175000 0.092388 -0.181732
v -0.175000 0.096593 -0.194118
v 0.175000 0.096593 -0.194118
v -0.175000 0.099144 -0.206947
v 0.175000 0.099144 -0.206947
v -0.180000 -0.100000 0.000000
v -0.180000 -0.120000 0.000000
v -0.175432 -0.100000 -0.000299
v -0.175432 -0.120000 -0.000299
v -0.170941 -0.100000 -0.001193
v -0.170941 -0.120000 -0.001193
v -0.166606 -0.100000 -0.002664
v -0.166606 -0.120000 -0.002664
v -0.162500 -0.100000 -0.004689
v -0.162500 -0.120000 -0.004689
v -0.158693 -0.100000 -0.007233
v -0.158693 -0.120000 -0.007233
v -0.155251 -0.100000 -0.010251
v -0.155251 -0.120000 -0.010251
v -0.152233 -0.100000 -0.013693
v -0.152233 -0.120000 -0.013693
v -0.149689 -0.100000 -0.017500
v -0.149689 -0.120000 -0.017500
v -0.147664 -0.100000 -0.021606
v -0.147664 -0.120000 -0.021606
v -0.146193 -0.100000 -0.025941
v -0.146193 -0.120000 -0.025941
v -0.145299 -0.100000 -0.030432
v -0.145299 -0.120000 -0.030432
v -0.145000 -0.100000 -0.035000
v -0.145000 -0.120000 -0.035000
v -0.145299 -0.100000 -0.039568
v -0.145299 -0.120000 -0.039568
v -0.146193 -0.100000 -0.044059
v -0.146193 -0.120000 -0.044059
v -0.147664 -0.100000 -0.048394
v -0.147664 -0.120000 -0.048394
v -0.149689 -0.100000 -0.052500
v -0.149689 -0.120000 -0.052500
v -0.152233 -0.100000 -0.056307
v -0.152233 -0.120000 -0.056307
v -0.155251 -0.100000 -0.059749
v -0.155251 -0.120000 -0.059749
v -0.158693 -0.100000 -0.062767
v -0.158693 -0.120000 -0.062767
v -0.162500 -0.100000 -0.065311
v -0.162500 -0.120000 -0.065311
v -0.166606 -0.100000 -0.067336
v -0.166606 -0.120000 -0.067336
v -0.170941 -0.100000 -0.068807
v -0.170941 -0.120000 -0.068807
v -0.175432 -0.100000 -0.069701
v -0.175432 -0.120000 -0.069701
v -0.180000 -0.100000 -0.070000
v -0.180000 -0.120000 -0.070000
v -0.184568 -0.100000 -0.069701
v -0.184568 -0.120000 -0.069701
v -0.189059 -0.100000 -0.068807
v -0.189059 -0.120000 -0.068807
v -0.193394 -0.100000 -0.067336
v -0.193394 -0.120000 -0.067336
v -0.197500 -0.100000 -0.065311
v -0.197500 -0.120000 -0.065311
v -0.201307 -0.100000 -0.062767
v -0.201307 -0.120000 -0.062767
v -0.204749 -0.100000 -0.059749
v -0.204749 -0.120000 -0.059749
v -0.207767 -0.100000 -0.056307
v -0.207767 -0.120000 -0.056307
v -0.210311 -0.100000 -0.052500
v -0.210311 -0.120000 -0.052500
v -0.212336 -0.100000 -0.048394
v -0.212336 -0.120000 -0.048394
v -0.213807 -0.100000 -0.044059
v -0.213807 -0.120000 -0.044059
v -0.214701 -0.100000 -0.039568
v -0.214701 -0.120000 -0.039568
v -0.215000 -0.100000 -0.035000
v -0.215000 -0.120000 -0.035000
v -0.214701 -0.100000 -0.030432
v -0.214701 -0.120000 -0.030432
v -0.213807 -0.100000 -0.025941
v -0.213807 -0.120000 -0.025941
v -0.212336 -0.100000 -0.021606
v -0.212336 -0.120000 -0.021606
v -0.210311 -0.100000 -0.017500
v -0.210311 -0.120000 -0.017500
v -0.207767 -0.100000 -0.013693
v -0.207767 -0.120000 -0.013693
v -0.204749 -0.100000 -0.010251
v -0.204749 -0.120000 -0.010251
v -0.201307 -0.100000 -0.007233
v -0.201307 -0.120000 -0.007233
v -0.197500 -0.100000 -0.004689
v -0.197500 -0.120000 -0.004689
v -0.193394 -0.100000 -0.002664
v -0.193394 -0.120000 -0.002664
v -0.189059 -0.100000 -0.001193
v -0.189059 -0.120000 -0.001193
v -0.184568 -0.100000 -0.000299
v -0.184568 -0.120000 -0.000299
v -0.180000 0.120000 0.000000
v -0.180000 0.100000 0.000000
v -0.175432 0.120000 -0.000299
v -0.175432 0.100000 -0.000299
v -0.170941 0.120000 -0.001193
v -0.170941 0.100000 -0.001193
v -0.166606 0.120000 -0.002664
v -0.166606 0.100000 -0.002664
v -0.162500 0.120000 -0.004689
v -0.162500 0.100000 -0.004689
v -0.158693 0.120000 -0.007233
v -0.158693 0.100000 -0.007233
v -0.155251 0.120000 -0.010251
v -0.155251 0.100000 -0.010251
v -0.152233 0.120000 -0.013693
v -0.152233 0.100000 -0.013693
v -0.149689 0.120000 -0.017500
v -0.149689 0.100000 -0.017500
v -0.147664 0.120000 -0.021606
v -0.147664 0.100000 -0.021606
v -0.146193 0.120000 -0.025941
v -0.146193 0.100000 -0.025941
v -0.145299 0.120000 -0.030432
v -0.145299 0.100000 -0.030432
v -0.145000 0.120000 -0.035000
v -0.145000 0.100000 -0.035000
v -0.145299 0.120000 -0.039568
v -0.145299 0.100000 -0.039568
v -0.146193 0.120000 -0.044059
v -0.146193 0.100000 -0.044059
v -0.147664 0.120000 -0.048394
v -0.147664 0.100000 -0.048394
v -0.149689 0.120000 -0.052500
v -0.149689 0.100000 -0.052500
v -0.152233 0.120000 -0.056307
v -0.152233 0.100000 -0.056307
v -0.155251 0.120000 -0.059749
v -0.155251 0.100000 -0.059749
v -0.158693 0.120000 -0.062767
v -0.158693 0.100000 -0.062767
v -0.162500 0.120000 -0.065311
v -0.162500 0.100000 -0.065311
v -0.166606 0.120000 -0.067336
v -0.166606 0.100000 -0.067336
v -0.170941 0.120000 -0.068807
v -0.170941 0.100000 -0.068807
v -0.175432 0.120000 -0.069701
v -0.175432 0.100000 -0.069701
v -0.180000 0.120000 -0.070000
v -0.180000 0.100000 -0.070000
v -0.184568 0.120000 -0.069701
v -0.184568 0.100000 -0.069701
v -0.189059 0.120000 -0.068807
v -0.189059 0.100000 -0.068807
v -0.193394 0.120000 -0.067336
v -0.193394 0.100000 -0.067336
v -0.197500 0.120000 -0.065311
v -0.197500 0.100000 -0.065311
v -0.201307 0.120000 -0.062767
v -0.201307 0.100000 -0.062767
v -0.204749 0.120000 -0.059749
v -0.204749 0.100000 -0.059749
v -0.207767 0.120000 -0.056307
v -0.207767 0.100000 -0.056307
v -0.210311 0.120000 -0.052500
v -0.210311 0.100000 -0.052500
v -0.212336 0.120000 -0.048394
v -0.212336 0.100000 -0.048394
v -0.213807 0.120000 -0.044059
v -0.213807 0.100000 -0.044059
v -0.214701 0.120000 -0.039568
v -0.214701 0.100000 -0.039568
v -0.215000 0.120000 -0.035000
v -0.215000 0.100000 -0.035000
v -0.214701 0.120000 -0.030432
v -0.214701 0.100000 -0.030432
v -0.213807 0.120000 -0.025941
v -0.213807 0.100000 -0.025941
v -0.212336 0.120000 -0.021606
v -0.212336 0.100000 -0.021606
v -0.210311 0.120000 -0.017500
v -0.210311 0.100000 -0.017500
v -0.207767 0.120000 -0.013693
v -0.207767 0.100000 -0.013693
v -0.204749 0.120000 -0.010251
v -0.204749 0.100000 -0.010251
v -0.201307 0.120000 -0.007233
v -0.201307 0.100000 -0.007233
v -0.197500 0.120000 -0.004689
v -0.197500 0.100000 -0.004689
v -0.193394 0.120000 -0.002664
v -0.193394 0.100000 -0.002664
v -0.189059 0.120000 -0.001193
v -0.189059 0.100000 -0.001193
v -0.184568 0.120000 -0.000299
v -0.184568 0.100000 -0.000299
v 0.180000 -0.100000 0.000000
v 0.180000 -0.120000 0.000000
v 0.184568 -0.100000 -0.000299
v 0.184568 -0.120000 -0.000299
v 0.189059 -0.100000 -0.001193
v 0.189059 -0.120000 -0.001193
v 0.193394 -0.100000 -0.002664
v 0.193394 -0.120000 -0.002664
v 0.197500 -0.100000 -0.004689
v 0.197500 -0.120000 -0.004689
v 0.201307 -0.100000 -0.007233
v 0.201307 -0.120000 -0.007233
v 0.204749 -0.100000 -0.010251
v 0.204749 -0.120000 -0.010251
v 0.207767 -0.100000 -0.013693
v 0.207767 -0.120000 -0.013693
v 0.210311 -0.100000 -0.017500
v 0.210311 -0.120000 -0.017500
v 0.212336 -0.100000 -0.021606
v 0.212336 -0.120000 -0.021606
v 0.213807 -0.100000 -0.025941
v 0.213807 -0.120000 -0.025941
v 0.214701 -0.100000 -0.030432
v 0.214701 -0.120000 -0.030432
v 0.215000 -0.100000 -0.035000
v 0.215000 -0.120000 -0.035000
v 0.214701 -0.100000 -0.039568
v 0.214701 -0.120000 -0.039568
v 0.213807 -0.100000 -0.044059
v 0.213807 -0.120000 -0.044059
v 0.212336 -0.100000 -0.048394
v 0.212336 -0.120000 -0.048394
v 0.210311 -0.100000 -0.052500
v 0.210311 -0.120000 -0.052500
v 0.207767 -0.100000 -0.056307
v 0.207767 -0.120000 -0.056307
v 0.204749 -0.100000 -0.059749
v 0.204749 -0.120000 -0.059749
v 0.201307 -0.100000 -0.062767
v 0.201307 -0.120000 -0.062767
v 0.197500 -0.100000 -0.065311
v 0.197500 -0.120000 -0.065311
v 0.193394 -0.100000 -0.067336
v 0.193394 -0.120000 -0.067336
v 0.189059 -0.100000 -0.068807
v 0.189059 -0.120000 -0.068807
v 0.184568 -0.100000 -0.069701
v 0.184568 -0.120000 -0.069701
v 0.180000 -0.100000 -0.070000
v 0.180000 -0.120000 -0.070000
v 0.175432 -0.100000 -0.069701
v 0.175432 -0.120000 -0.069701
v 0.170941 -0.100000 -0.068807
v 0.170941 -0.120000 -0.068807
v 0.166606 -0.100000 -0.067336
v 0.166606 -0.120000 -0.067336
v 0.162500 -0.100000 -0.065311
v 0.162500 -0.120000 -0.065311
v 0.158693 -0.100000 -0.062767
v 0.158693 -0.120000 -0.062767
v 0.155251 -0.100000 -0.059749
v 0.155251 -0.120000 -0.059749
v 0.152233 -0.100000 -0.056307
v 0.152233 -0.120000 -0.056307
v 0.149689 -0.100000 -0.052500
v 0.149689 -0.120000 -0.052500
v 0.147664 -0.100000 -0.048394
v 0.147664 -0.120000 -0.048394
v 0.146193 -0.100000 -0.044059
v 0.146193 -0.120000 -0.044059
v 0.145299 -0.100000 -0.039568
v 0.145299 -0.120000 -0.039568
v 0.145000 -0.100000 -0.035000
v 0.145000 -0.120000 -0.035000
v 0.145299 -0.100000 -0.030432
v 0.145299 -0.120000 -0.030432
v 0.146193 -0.100000 -0.025941
v 0.146193 -0.120000 -0.025941
v 0.147664 -0.100000 -0.021606
v 0.147664 -0.120000 -0.021606
v 0.149689 -0.100000 -0.017500
v 0.149689 -0.120000 -0.017500
v 0.152233 -0.100000 -0.013693
v 0.152233 -0.120000 -0.013693
v 0.155251 -0.100000 -0.010251
v 0.155251 -0.120000 -0.010251
v 0.158693 -0.100000 -0.007233
v 0.158693 -0.120000 -0.007233
v 0.162500 -0.100000 -0.004689
v 0.162500 -0.120000 -0.004689
v 0.166606 -0.100000 -0.002664
v 0.166606 -0.120000 -0.002664
v 0.170941 -0.100000 -0.001193
v 0.170941 -0.120000 -0.001193
v 0.175432 -0.100000 -0.000299
v 0.175432 -0.120000 -0.000299
v 0.180000 0.120000 0.000000
v 0.180000 0.100000 0.000000
v 0.184568 0.120000 -0.000299
v 0.184568 0.100000 -0.000299
v 0.189059 0.120000 -0.001193
v 0.189059 0.100000 -0.001193
v 0.193394 0.120000 -0.002664
v 0.193394 0.100000 -0.002664
v 0.197500 0.120000 -0.004689
v 0.197500 0.100000 -0.004689
v 0.201307 0.120000 -0.007233
v 0.201307 0.100000 -0.007233
v 0.204749 0.120000 -0.010251
v 0.204749 0.100000 -0.010251
v 0.207767 0.120000 -0.013693
v 0.207767 0.100000 -0.013693
v 0.210311 0.120000 -0.017500
v 0.210311 0.100000 -0.017500
v 0.212336 0.120000 -0.021606
v 0.212336 0.100000 -0.021606
v 0.213807 0.120000 -0.025941
v 0.213807 0.100000 -0.025941
v 0.214701 0.120000 -0.030432
v 0.214701 0.100000 -0.030432
v 0.215000 0.120000 -0.035000
v 0.215000 0.100000 -0.035000
v 0.214701 0.120000 -0.039568
v 0.214701 0.100000 -0.039568
v 0.213807 0.120000 -0.044059
v 0.213807 0.100000 -0.044059
v 0.212336 0.120000 -0.048394
v 0.212336 0.100000 -0.048394
v 0.210311 0.120000 -0.052500
v 0.210311 0.100000 -0.052500
v 0.207767 0.120000 -0.056307
v 0.207767 0.100000 -0.056307
v 0.204749 0.120000 -0.059749
v 0.204749 0.100000 -0.059749
v 0.201307 0.120000 -0.062767
v 0.201307 0.100000 -0.062767
v 0.197500 0.120000 -0.065311
v 0.197500 0.100000 -0.065311
v 0.193394 0.120000 -0.067336
v 0.193394 0.100000 -0.067336
v 0.189059 0.120000 -0.068807
v 0.189059 0.100000 -0.068807
v 0.184568 0.120000 -0.069701
v 0.184568 0.100000 -0.069701
v 0.180000 0.120000 -0.070000
v 0.180000 0.100000 -0.070000
v 0.175432 0.120000 -0.069701
v 0.175432 0.100000 -0.069701
v 0.170941 0.120000 -0.068807
v 0.170941 0.100000 -0.068807
v 0.166606 0.120000 -0.067336
v 0.166606 0.100000 -0.067336
v 0.162500 0.120000 -0.065311
v 0.162500 0.100000 -0.065311
v 0.158693 0.120000 -0.062767
v 0.158693 0.100000 -0.062767
v 0.155251 0.120000 -0.059749
v 0.155251 0.100000 -0.059749
v 0.152233 0.120000 -0.056307
v 0.152233 0.100000 -0.056307
v 0.149689 0.120000 -0.052500
v 0.149689 0.100000 -0.052500
v 0.147664 0.120000 -0.048394
v 0.147664 0.100000 -0.048394
v 0.146193 0.120000 -0.044059
v 0.146193 0.100000 -0.044059
v 0.145299 0.120000 -0.039568
v 0.145299 0.100000 -0.039568
v 0.145000 0.120000 -0.035000
v 0.145000 0.100000 -0.035000
v 0.145299 0.120000 -0.030432
v 0.145299 0.100000 -0.030432
v 0.146193 0.120000 -0.025941
v 0.146193 0.100000 -0.025941
v 0.147664 0.120000 -0.021606
v 0.147664 0.100000 -0.021606
v 0.149689 0.120000 -0.017500
v 0.149689 0.100000 -0.017500
v 0.152233 0.120000 -0.013693
v 0.152233 0.100000 -0.013693
v 0.155251 0.120000 -0.010251
v 0.155251 0.100000 -0.010251
v 0.158693 0.120000 -0.007233
v 0.158693 0.100000 -0.007233
v 0.162500 0.120000 -0.004689
v 0.162500 0.100000 -0.004689
v 0.166606 0.120000 -0.002664
v 0.166606 0.100000 -0.002664
v 0.170941 0.120000 -0.001193
v 0.170941 0.100000 -0.001193
v 0.175432 0.120000 -0.000299
v 0.175432 0.100000 -0.000299
vn -1.0000 -0.0000 -0.0000
vn -0.0000 1.0000 -0.0000
vn 1.0000 -0.0000 -0.0000
vn -0.0000 -1.0000 -0.0000
vn -0.0000 -0.0000 -1.0000
vn -0.0000 -0.0000 1.0000
vn -0.0000 0.9979 -0.0654
vn -0.0000 0.9808 -0.1951
vn -0.0000 0.9469 -0.3214
vn -0.0000 0.8969 -0.4423
vn -0.0000 0.8315 -0.5556
vn -0.0000 0.7518 -0.6593
vn -0.0000 0.6593 -0.7518
vn -0.0000 0.5556 -0.8315
vn -0.0000 0.4423 -0.8969
vn -0.0000 0.3214 -0.9469
vn -0.0000 0.1951 -0.9808
vn -0.0000 0.0654 -0.9979
vn -0.0000 -0.0654 -0.9979
vn -0.0000 -0.1951 -0.9808
vn -0.0000 -0.3214 -0.9469
vn -0.0000 -0.4423 -0.8969
vn -0.0000 -0.5556 -0.8315
vn -0.0000 -0.6593 -0.7518
vn -0.0000 -0.7518 -0.6593
vn -0.0000 -0.8315 -0.5556
vn -0.0000 -0.8969 -0.4423
vn -0.0000 -0.9469 -0.3214
vn -0.0000 -0.9808 -0.1951
vn -0.0000 -0.9979 -0.0654
vn -0.0000 -0.9979 0.0654
vn -0.0000 -0.9808 0.1951
vn -0.0000 -0.9469 0.3214
vn -0.0000 -0.8969 0.4423
vn -0.0000 -0.8315 0.5556
vn -0.0000 -0.7518 0.6593
vn -0.0000 -0.6593 0.7518
vn -0.0000 -0.5556 0.8315
vn -0.0000 -0.4423 0.8969
vn -0.0000 -0.3214 0.9469
vn -0.0000 -0.1951 0.9808
vn -0.0000 -0.0654 0.9979
vn -0.0000 0.0654 0.9979
vn -0.0000 0.1951 0.9808
vn -0.0000 0.3214 0.9469
vn -0.0000 0.4423 0.8969
vn -0.0000 0.5556 0.8315
vn -0.0000 0.6593 0.7518
vn -0.0000 0.7518 0.6593
vn -0.0000 0.8315 0.5556
vn -0.0000 0.8969 0.4423
vn -0.0000 0.9469 0.3214
vn -0.0000 0.9808 0.1951
vn -0.0000 0.9979 0.0654
vn 0.0654 -0.0000 0.9979
vn 0.1951 -0.0000 0.9808
vn 0.3214 -0.0000 0.9469
vn 0.4423 -0.0000 0.8969
vn 0.5556 -0.0000 0.8315
vn 0.6593 -0.0000 0.7518
vn 0.7518 -0.0000 0.6593
vn 0.8315 -0.0000 0.5556
vn 0.8969 -0.0000 0.4423
vn 0.9469 -0.0000 0.3214
vn 0.9808 -0.0000 0.1951
vn 0.9979 -0.0000 0.0654
vn 0.9979 -0.0000 -0.0654
vn 0.9808 -0.0000 -0.1951
vn 0.9469 -0.0000 -0.3214
vn 0.8969 -0.0000 -0.4423
vn 0.8315 -0.0000 -0.5556
vn 0.7518 -0.0000 -0.6593
vn 0.6593 -0.0000 -0.7518
vn 0.5556 -0.0000 -0.8315
vn 0.4423 -0.0000 -0.8969
vn 0.3214 -0.0000 -0.9469
vn 0.1951 -0.0000 -0.9808
vn 0.0654 -0.0000 -0.9979
vn -0.0654 -0.0000 -0.9979
vn -0.1951 -0.0000 -0.9808
vn -0.3214 -0.0000 -0.9469
vn -0.4423 -0.0000 -0.8969
vn -0.5556 -0.0000 -0.8315
vn -0.6593 -0.0000 -0.7518
vn -0.7518 -0.0000 -0.6593
vn -0.8315 -0.0000 -0.5556
vn -0.8969 -0.0000 -0.4423
vn -0.9469 -0.0000 -0.3214
vn -0.9808 -0.0000 -0.1951
vn -0.9979 -0.0000 -0.0654
vn -0.9979 -0.0000 0.0654
vn -0.9808 -0.0000 0.1951
vn -0.9469 -0.0000 0.3214
vn -0.8969 -0.0000 0.4423
vn -0.8315 -0.0000 0.5556
vn -0.7518 -0.0000 0.6593
vn -0.6593 -0.0000 0.7518
vn -0.5556 -0.0000 0.8315
vn -0.4423 -0.0000 0.8969
vn -0.3214 -0.0000 0.9469
vn -0.1951 -0.0000 0.9808
vn -0.0654 -0.0000 0.9979
s 0
usemtl hatch_yellow
f 2//1 3//1 1//1
f 4//2 7//2 3//2
f 8//3 5//3 7//3
f 6//4 1//4 5//4
f 7//5 1//5 3//5
f 4//6 6//6 8//6
f 2//1 4//1 3//1
f 4//2 8//2 7//2
f 8//3 6//3 5//3
f 6//4 2//4 1//4
f 7//5 5//5 1//5
f 4//6 2//6 6//6
usemtl generator_paint
f 10//7 11//7 9//7
f 12//8 13//8 11//8
f 14//9 15//9 13//9
f 16//10 17//10 15//10
f 18//11 19//11 17//11
f 20//12 21//12 19//12
f 22//13 23//13 21//13
f 24//14 25//14 23//14
f 26//15 27//15 25//15
f 27//16 30//16 29//16
f 30//17 31//17 29//17
f 32//18 33//18 31//18
f 34//19 35//19 33//19
f 36//20 37//20 35//20
f 38//21 39//21 37//21
f 40//22 41//22 39//22
f 42//23 43//23 41//23
f 44//24 45//24 43//24
f 46//25 47//25 45//25
f 48//26 49//26 47//26
f 50//27 51//27 49//27
f 52//28 53//28 51//28
f 54//29 55//29 53//29
f 56//30 57//30 55//30
f 58//31 59//31 57//31
f 60//32 61//32 59//32
f 62//33 63//33 61//33
f 64//34 65//34 63//34
f 66//35 67//35 65//35
f 68//36 69//36 67//36
f 70//37 71//37 69//37
f 72//38 73//38 71//38
f 74//39 75//39 73//39
f 76//40 77//40 75//40
f 78//41 79//41 77//41
f 80//42 81//42 79//42
f 81//43 84//43 83//43
f 83//44 86//44 85//44
f 86//45 87//45 85//45
f 88//46 89//46 87//46
f 90//47 91//47 89//47
f 92//48 93//48 91//48
f 94//49 95//49 93//49
f 96//50 97//50 95//50
f 98//51 99//51 97//51
f 100//52 101//52 99//52
f 78//3 46//3 14//3
f 102//53 103//53 101//53
f 104//54 9//54 103//54
f 39//1 71//1 103//1
f 10//7 12//7 11//7
f 12//8 14//8 13//8
f 14//9 16//9 15//9
f 16//10 18//10 17//10
f 18//11 20//11 19//11
f 20//12 22//12 21//12
f 22//13 24//13 23//13
f 24//14 26//14 25//14
f 26//15 28//15 27//15
f 27//16 28//16 30//16
f 30//17 32//17 31//17
f 32//18 34//18 33//18
f 34//19 36//19 35//19
f 36//20 38//20 37//20
f 38//21 40//21 39//21
f 40//22 42//22 41//22
f 42//23 44//23 43//23
f 44//24 46//24 45//24
f 46//25 48//25 47//25
f 48//26 50//26 49//26
f 50//27 52//27 51//27
f 52//28 54//28 53//28
f 54//29 56//29 55//29
f 56//30 58//30 57//30
f 58//31 60//31 59//31
f 60//32 62//32 61//32
f 62//33 64//33 63//33
f 64//34 66//34 65//34
f 66//35 68//35 67//35
f 68//36 70//36 69//36
f 70//37 72//37 71//37
f 72//38 74//38 73//38
f 74//39 76//39 75//39
f 76//40 78//40 77//40
f 78//41 80//41 79//41
f 80//42 82//42 81//42
f 81//43 82//43 84//43
f 83//44 84//44 86//44
f 86//45 88//45 87//45
f 88//46 90//46 89//46
f 90//47 92//47 91//47
f 92//48 94//48 93//48
f 94//49 96//49 95//49
f 96//50 98//50 97//50
f 98//51 100//51 99//51
f 100//52 102//52 101//52
f 14//3 12//3 10//3
f 10//3 104//3 102//3
f 102//3 100//3 98//3
f 98//3 96//3 94//3
f 94//3 92//3 90//3
f 90//3 88//3 86//3
f 86//3 84//3 82//3
f 82//3 80//3 78//3
f 78//3 76//3 74//3
f 74//3 72//3 70//3
f 70//3 68//3 66//3
f 66//3 64//3 62//3
f 62//3 60//3 58//3
f 58//3 56//3 54//3
f 54//3 52//3 50//3
f 50//3 48//3 46//3
f 46//3 44//3 42//3
f 42//3 40//3 38//3
f 38//3 36//3 34//3
f 34//3 32//3 30//3
f 30//3 28//3 26//3
f 26//3 24//3 22//3
f 22//3 20//3 18//3
f 18//3 16//3 14//3
f 14//3 10//3 102//3
f 102//3 98//3 94//3
f 94//3 90//3 86//3
f 86//3 82//3 78//3
f 78//3 74//3 70//3
f 70//3 66//3 62//3
f 62//3 58//3 54//3
f 54//3 50//3 46//3
f 46//3 42//3 38//3
f 38//3 34//3 30//3
f 30//3 26//3 22//3
f 22//3 18//3 14//3
f 14//3 102//3 94//3
f 94//3 86//3 78//3
f 78//3 70//3 62//3
f 62//3 54//3 46//3
f 46//3 38//3 30//3
f 30//3 22//3 14//3
f 14//3 94//3 78//3
f 78//3 62//3 46//3
f 46//3 30//3 14//3
f 102//53 104//53 103//53
f 104//54 10//54 9//54
f 103//1 9//1 11//1
f 11//1 13//1 15//1
f 15//1 17//1 19//1
f 19//1 21//1 23//1
f 23//1 25//1 27//1
f 27//1 29//1 31//1
f 31//1 33//1 35//1
f 35//1 37//1 39//1
f 39//1 41//1 43//1
f 43//1 45//1 47//1
f 47//1 49//1 51//1
f 51//1 53//1 55//1
f 55//1 57//1 59//1
f 59//1 61//1 63//1
f 63//1 65//1 67//1
f 67//1 69//1 71//1
f 71//1 73//1 75//1
f 75//1 77//1 79//1
f 79//1 81//1 83//1
f 83//1 85//1 87//1
f 87//1 89//1 91//1
f 91//1 93//1 95//1
f 95//1 97//1 99//1
f 99//1 101//1 103//1
f 103//1 11//1 15//1
f 15//1 19//1 23//1
f 23//1 27//1 31//1
f 31//1 35//1 39//1
f 39//1 43//1 47//1
f 47//1 51//1 55//1
f 55//1 59//1 63//1
f 63//1 67//1 71//1
f 71//1 75//1 79//1
f 79//1 83//1 87//1
f 87//1 91//1 95//1
f 95//1 99//1 103//1
f 103//1 15//1 23//1
f 23//1 31//1 39//1
f 39//1 47//1 55//1
f 55//1 63//1 71//1
f 71//1 79//1 87//1
f 87//1 95//1 103//1
f 103//1 23//1 39//1
f 39//1 55//1 71//1
f 71//1 87//1 103//1
usemtl bolt_black
f 106//55 107//55 105//55
f 108//56 109//56 107//56
f 110//57 111//57 109//57
f 111//58 114//58 113//58
f 114//59 115//59 113//59
f 116//60 117//60 115//60
f 118//61 119//61 117//61
f 120//62 121//62 119//62
f 122//63 123//63 121//63
f 124//64 125//64 123//64
f 126//65 127//65 125//65
f 128//66 129//66 127//66
f 130//67 131//67 129//67
f 132//68 133//68 131//68
f 134//69 135//69 133//69
f 136//70 137//70 135//70
f 138//71 139//71 137//71
f 140//72 141//72 139//72
f 142//73 143//73 141//73
f 144//74 145//74 143//74
f 145//75 148//75 147//75
f 148//76 149//76 147//76
f 150//77 151//77 149//77
f 152//78 153//78 151//78
f 154//79 155//79 153//79
f 156//80 157//80 155//80
f 158//81 159//81 157//81
f 160//82 161//82 159//82
f 162//83 163//83 161//83
f 164//84 165//84 163//84
f 166//85 167//85 165//85
f 168//86 169//86 167//86
f 170//87 171//87 169//87
f 172//88 173//88 171//88
f 174//89 175//89 173//89
f 176//90 177//90 175//90
f 178//91 179//91 177//91
f 180//92 181//92 179//92
f 182//93 183//93 181//93
f 184//94 185//94 183//94
f 186//95 187//95 185//95
f 188//96 189//96 187//96
f 190//97 191//97 189//97
f 192//98 193//98 191//98
f 194//99 195//99 193//99
f 196//100 197//100 195//100
f 174//4 142//4 110//4
f 198//101 199//101 197//101
f 200//102 105//102 199//102
f 135//2 167//2 199//2
f 202//55 203//55 201//55
f 204//56 205//56 203//56
f 206//57 207//57 205//57
f 207//58 210//58 209//58
f 210//59 211//59 209//59
f 212//60 213//60 211//60
f 214//61 215//61 213//61
f 216//62 217//62 215//62
f 218//63 219//63 217//63
f 220//64 221//64 219//64
f 222//65 223//65 221//65
f 224//66 225//66 223//66
f 226//67 227//67 225//67
f 228//68 229//68 227//68
f 230//69 231//69 229//69
f 232//70 233//70 231//70
f 234//71 235//71 233//71
f 236//72 237//72 235//72
f 238//73 239//73 237//73
f 240//74 241//74 239//74
f 241//75 244//75 243//75
f 244//76 245//76 243//76
f 246//77 247//77 245//77
f 248//78 249//78 247//78
f 250//79 251//79 249//79
f 252//80 253//80 251//80
f 254//81 255//81 253//81
f 256//82 257//82 255//82
f 258//83 259//83 257//83
f 260//84 261//84 259//84
f 262//85 263//85 261//85
f 264//86 265//86 263//86
f 266//87 267//87 265//87
f 268//88 269//88 267//88
f 270//89 271//89 269//89
f 272//90 273//90 271//90
f 274//91 275//91 273//91
f 276//92 277//92 275//92
f 278//93 279//93 277//93
f 280//94 281//94 279//94
f 282//95 283//95 281//95
f 284//96 285//96 283//96
f 286//97 287//97 285//97
f 288//98 289//98 287//98
f 290//99 291//99 289//99
f 292//100 293//100 291//100
f 270//4 238//4 206//4
f 294//101 295//101 293//101
f 296//102 201//102 295//102
f 231//2 263//2 295//2
f 298//55 299//55 297//55
f 300//56 301//56 299//56
f 302//57 303//57 301//57
f 303//58 306//58 305//58
f 306//59 307//59 305//59
f 308//60 309//60 307//60
f 310//61 311//61 309//61
f 312//62 313//62 311//62
f 314//63 315//63 313//63
f 316//64 317//64 315//64
f 318//65 319//65 317//65
f 320//66 321//66 319//66
f 322//67 323//67 321//67
f 324//68 325//68 323//68
f 326//69 327//69 325//69
f 328//70 329//70 327//70
f 330//71 331//71 329//71
f 332//72 333//72 331//72
f 334//73 335//73 333//73
f 336//74 337//74 335//74
f 337//75 340//75 339//75
f 340//76 341//76 339//76
f 342//77 343//77 341//77
f 344//78 345//78 343//78
f 346//79 347//79 345//79
f 348//80 349//80 347//80
f 350//81 351//81 349//81
f 352//82 353//82 351//82
f 354//83 355//83 353//83
f 356//84 357//84 355//84
f 358//85 359//85 357//85
f 360//86 361//86 359//86
f 362//87 363//87 361//87
f 364//88 365//88 363//88
f 366//89 367//89 365//89
f 368//90 369//90 367//90
f 370//91 371//91 369//91
f 372//92 373//92 371//92
f 374//93 375//93 373//93
f 376//94 377//94 375//94
f 378//95 379//95 377//95
f 380//96 381//96 379//96
f 382//97 383//97 381//97
f 384//98 385//98 383//98
f 386//99 387//99 385//99
f 388//100 389//100 387//100
f 366//4 334//4 302//4
f 390//101 391//101 389//101
f 392//102 297//102 391//102
f 327//2 359//2 391//2
f 394//55 395//55 393//55
f 396//56 397//56 395//56
f 398//57 399//57 397//57
f 399//58 402//58 401//58
f 402//59 403//59 401//59
f 404//60 405//60 403//60
f 406//61 407//61 405//61
f 408//62 409//62 407//62
f 410//63 411//63 409//63
f 412//64 413//64 411//64
f 414//65 415//65 413//65
f 416//66 417//66 415//66
f 418//67 419//67 417//67
f 420//68 421//68 419//68
f 422//69 423//69 421//69
f 424//70 425//70 423//70
f 426//71 427//71 425//71
f 428//72 429//72 427//72
f 430//73 431//73 429//73
f 432//74 433//74 431//74
f 433//75 436//75 435//75
f 436//76 437//76 435//76
f 438//77 439//77 437//77
f 440//78 441//78 439//78
f 442//79 443//79 441//79
f 444//80 445//80 443//80
f 446//81 447//81 445//81
f 448//82 449//82 447//82
f 450//83 451//83 449//83
f 452//84 453//84 451//84
f 454//85 455//85 453//85
f 456//86 457//86 455//86
f 458//87 459//87 457//87
f 460//88 461//88 459//88
f 462//89 463//89 461//89
f 464//90 465//90 463//90
f 466//91 467//91 465//91
f 468//92 469//92 467//92
f 470//93 471//93 469//93
f 472//94 473//94 471//94
f 474//95 475//95 473//95
f 476//96 477//96 475//96
f 478//97 479//97 477//97
f 480//98 481//98 479//98
f 482//99 483//99 481//99
f 484//100 485//100 483//100
f 462//4 430//4 398//4
f 486//101 487//101 485//101
f 488//102 393//102 487//102
f 423//2 455//2 487//2
f 106//55 108//55 107//55
f 108//56 110//56 109//56
f 110//57 112//57 111//57
f 111//58 112//58 114//58
f 114//59 116//59 115//59
f 116//60 118//60 117//60
f 118//61 120//61 119//61
f 120//62 122//62 121//62
f 122//63 124//63 123//63
f 124//64 126//64 125//64
f 126//65 128//65 127//65
f 128//66 130//66 129//66
f 130//67 132//67 131//67
f 132//68 134//68 133//68
f 134//69 136//69 135//69
f 136//70 138//70 137//70
f 138//71 140//71 139//71
f 140//72 142//72 141//72
f 142//73 144//73 143//73
f 144//74 146//74 145//74
f 145//75 146//75 148//75
f 148//76 150//76 149//76
f 150//77 152//77 151//77
f 152//78 154//78 153//78
f 154//79 156//79 155//79
f 156//80 158//80 157//80
f 158//81 160//81 159//81
f 160//82 162//82 161//82
f 162//83 164//83 163//83
f 164//84 166//84 165//84
f 166//85 168//85 167//85
f 168//86 170//86 169//86
f 170//87 172//87 171//87
f 172//88 174//88 173//88
f 174//89 176//89 175//89
f 176//90 178//90 177//90
f 178//91 180//91 179//91
f 180//92 182//92 181//92
f 182//93 184//93 183//93
f 184//94 186//94 185//94
f 186//95 188//95 187//95
f 188//96 190//96 189//96
f 190//97 192//97 191//97
f 192//98 194//98 193//98
f 194//99 196//99 195//99
f 196//100 198//100 197//100
f 110//4 108//4 106//4
f 106//4 200//4 198//4
f 198//4 196//4 194//4
f 194//4 192//4 190//4
f 190//4 188//4 186//4
f 186//4 184//4 182//4
f 182//4 180//4 178//4
f 178//4 176//4 174//4
f 174//4 172//4 170//4
f 170//4 168//4 166//4
f 166//4 164//4 162//4
f 162//4 160//4 158//4
f 158//4 156//4 154//4
f 154//4 152//4 150//4
f 150//4 148//4 146//4
f 146//4 144//4 142//4
f 142//4 140//4 138//4
f 138//4 136//4 134//4
f 134//4 132//4 130//4
f 130//4 128//4 126//4
f 126//4 124//4 122//4
f 122//4 120//4 118//4
f 118//4 116//4 114//4
f 114//4 112//4 110//4
f 110//4 106//4 198//4
f 198//4 194//4 190//4
f 190//4 186//4 182//4
f 182//4 178//4 174//4
f 174//4 170//4 166//4
f 166//4 162//4 158//4
f 158//4 154//4 150//4
f 150//4 146//4 142//4
f 142//4 138//4 134//4
f 134//4 130//4 126//4
f 126//4 122//4 118//4
f 118//4 114//4 110//4
f 110//4 198//4 190//4
f 190//4 182//4 174//4
f 174//4 166//4 158//4
f 158//4 150//4 142//4
f 142//4 134//4 126//4
f 126//4 118//4 110//4
f 110//4 190//4 174//4
f 174//4 158//4 142//4
f 142//4 126//4 110//4
f 198//101 200//101 199//101
f 200//102 106//102 105//102
f 199//2 105//2 107//2
f 107//2 109//2 111//2
f 111//2 113//2 115//2
f 115//2 117//2 119//2
f 119//2 121//2 123//2
f 123//2 125//2 127//2
f 127//2 129//2 131//2
f 131//2 133//2 135//2
f 135//2 137//2 139//2
f 139//2 141//2 143//2
f 143//2 145//2 147//2
f 147//2 149//2 151//2
f 151//2 153//2 155//2
f 155//2 157//2 159//2
f 159//2 161//2 163//2
f 163//2 165//2 167//2
f 167//2 169//2 171//2
f 171//2 173//2 175//2
f 175//2 177//2 179//2
f 179//2 181//2 183//2
f 183//2 185//2 187//2
f 187//2 189//2 191//2
f 191//2 193//2 195//2
f 195//2 197//2 199//2
f 199//2 107//2 111//2
f 111//2 115//2 119//2
f 119//2 123//2 127//2
f 127//2 131//2 135//2
f 135//2 139//2 143//2
f 143//2 147//2 151//2
f 151//2 155//2 159//2
f 159//2 163//2 167//2
f 167//2 171//2 175//2
f 175//2 179//2 183//2
f 183//2 187//2 191//2
f 191//2 195//2 199//2
f 199//2 111//2 119//2
f 119//2 127//2 135//2
f 135//2 143//2 151//2
f 151//2 159//2 167//2
f 167//2 175//2 183//2
f 183//2 191//2 199//2
f 199//2 119//2 135//2
f 135//2 151//2 167//2
f 167//2 183//2 199//2
f 202//55 204//55 203//55
f 204//56 206//56 205//56
f 206//57 208//57 207//57
f 207//58 208//58 210//58
f 210//59 212//59 211//59
f 212//60 214//60 213//60
f 214//61 216//61 215//61
f 216//62 218//62 217//62
f 218//63 220//63 219//63
f 220//64 222//64 221//64
f 222//65 224//65 223//65
f 224//66 226//66 225//66
f 226//67 228//67 227//67
f 228//68 230//68 229//68
f 230//69 232//69 231//69
f 232//70 234//70 233//70
f 234//71 236//71 235//71
f 236//72 238//72 237//72
f 238//73 240//73 239//73
f 240//74 242//74 241//74
f 241//75 242//75 244//75
f 244//76 246//76 245//76
f 246//77 248//77 247//77
f 248//78 250//78 249//78
f 250//79 252//79 251//79
f 252//80 254//80 253//80
f 254//81 256//81 255//81
f 256//82 258//82 257//82
f 258//83 260//83 259//83
f 260//84 262//84 261//84
f 262//85 264//85 263//85
f 264//86 266//86 265//86
f 266//87 268//87 267//87
f 268//88 270//88 269//88
f 270//89 272//89 271//89
f 272//90 274//90 273//90
f 274//91 276//91 275//91
f 276//92 278//92 277//92
f 278//93 280//93 279//93
f 280//94 282//94 281//94
f 282//95 284//95 283//95
f 284//96 286//96 285//96
f 286//97 288//97 287//97
f 288//98 290//98 289//98
f 290//99 292//99 291//99
f 292//100 294//100 293//100
f 206//4 204//4 202//4
f 202//4 296//4 294//4
f 294//4 292//4 290//4
f 290//4 288//4 286//4
f 286//4 284//4 282//4
f 282//4 280//4 278//4
f 278//4 276//4 274//4
f 274//4 272//4 270//4
f 270//4 268//4 266//4
f 266//4 264//4 262//4
f 262//4 260//4 258//4
f 258//4 256//4 254//4
f 254//4 252//4 250//4
f 250//4 248//4 246//4
f 246//4 244//4 242//4
f 242//4 240//4 238//4
f 238//4 236//4 234//4
f 234//4 232//4 230//4
f 230//4 228//4 226//4
f 226//4 224//4 222//4
f 222//4 220//4 218//4
f 218//4 216//4 214//4
f 214//4 212//4 210//4
f 210//4 208//4 206//4
f 206//4 202//4 294//4
f 294//4 290//4 286//4
f 286//4 282//4 278//4
f 278//4 274//4 270//4
f 270//4 266//4 262//4
f 262//4 258//4 254//4
f 254//4 250//4 246//4
f 246//4 242//4 238//4
f 238//4 234//4 230//4
f 230//4 226//4 222//4
f 222//4 218//4 214//4
f 214//4 210//4 206//4
f 206//4 294//4 286//4
f 286//4 278//4 270//4
f 270//4 262//4 254//4
f 254//4 246//4 238//4
f 238//4 230//4 222//4
f 222//4 214//4 206//4
f 206//4 286//4 270//4
f 270//4 254//4 238//4
f 238//4 222//4 206//4
f 294//101 296//101 295//101
f 296//102 202//102 201//102
f 295//2 201//2 203//2
f 203//2 205//2 207//2
f 207//2 209//2 211//2
f 211//2 213//2 215//2
f 215//2 217//2 219//2
f 219//2 221//2 223//2
f 223//2 225//2 227//2
f 227//2 229//2 231//2
f 231//2 233//2 235//2
f 235//2 237//2 239//2
f 239//2 241//2 243//2
f 243//2 245//2 247//2
f 247//2 249//2 251//2
f 251//2 253//2 255//2
f 255//2 257//2 259//2
f 259//2 261//2 263//2
f 263//2 265//2 267//2
f 267//2 269//2 271//2
f 271//2 273//2 275//2
f 275//2 277//2 279//2
f 279//2 281//2 283//2
f 283//2 285//2 287//2
f 287//2 289//2 291//2
f 291//2 293//2 295//2
f 295//2 203//2 207//2
f 207//2 211//2 215//2
f 215//2 219//2 223//2
f 223//2 227//2 231//2
f 231//2 235//2 239//2
f 239//2 243//2 247//2
f 247//2 251//2 255//2
f 255//2 259//2 263//2
f 263//2 267//2 271//2
f 271//2 275//2 279//2
f 279//2 283//2 287//2
f 287//2 291//2 295//2
f 295//2 207//2 215//2
f 215//2 223//2 231//2
f 231//2 239//2 247//2
f 247//2 255//2 263//2
f 263//2 271//2 279//2
f 279//2 287//2 295//2
f 295//2 215//2 231//2
f 231//2 247//2 263//2
f 263//2 279//2 295//2
f 298//55 300//55 299//55
f 300//56 302//56 301//56
f 302//57 304//57 303//57
f 303//58 304//58 306//58
f 306//59 308//59 307//59
f 308//60 310//60 309//60
f 310//61 312//61 311//61
f 312//62 314//62 313//62
f 314//63 316//63 315//63
f 316//64 318//64 317//64
f 318//65 320//65 319//65
f 320//66 322//66 321//66
f 322//67 324//67 323//67
f 324//68 326//68 325//68
f 326//69 328//69 327//69
f 328//70 330//70 329//70
f 330//71 332//71 331//71
f 332//72 334//72 333//72
f 334//73 336//73 335//73
f 336//74 338//74 337//74
f 337//75 338//75 340//75
f 340//76 342//76 341//76
f 342//77 344//77 343//77
f 344//78 346//78 345//78
f 346//79 348//79 347//79
f 348//80 350//80 349//80
f 350//81 352//81 351//81
f 352//82 354//82 353//82
f 354//83 356//83 355//83
f 356//84 358//84 357//84
f 358//85 360//85 359//85
f 360//86 362//86 361//86
f 362//87 364//87 363//87
f 364//88 366//88 365//88
f 366//89 368//89 367//89
f 368//90 370//90 369//90
f 370//91 372//91 371//91
f 372//92 374//92 373//92
f 374//93 376//93 375//93
f 376//94 378//94 377//94
f 378//95 380//95 379//95
f 380//96 382//96 381//96
f 382//97 384//97 383//97
f 384//98 386//98 385//98
f 386//99 388//99 387//99
f 388//100 390//100 389//100
f 302//4 300//4 298//4
f 298//4 392//4 390//4
f 390//4 388//4 386//4
f 386//4 384//4 382//4
f 382//4 380//4 378//4
f 378//4 376//4 374//4
f 374//4 372//4 370//4
f 370//4 368//4 366//4
f 366//4 364//4 362//4
f 362//4 360//4 358//4
f 358//4 356//4 354//4
f 354//4 352//4 350//4
f 350//4 348//4 346//4
f 346//4 344//4 342//4
f 342//4 340//4 338//4
f 338//4 336//4 334//4
f 334//4 332//4 330//4
f 330//4 328//4 326//4
f 326//4 324//4 322//4
f 322//4 320//4 318//4
f 318//4 316//4 314//4
f 314//4 312//4 310//4
f 310//4 308//4 306//4
f 306//4 304//4 302//4
f 302//4 298//4 390//4
f 390//4 386//4 382//4
f 382//4 378//4 374//4
f 374//4 370//4 366//4
f 366//4 362//4 358//4
f 358//4 354//4 350//4
f 350//4 346//4 342//4
f 342//4 338//4 334//4
f 334//4 330//4 326//4
f 326//4 322//4 318//4
f 318//4 314//4 310//4
f 310//4 306//4 302//4
f 302//4 390//4 382//4
f 382//4 374//4 366//4
f 366//4 358//4 350//4
f 350//4 342//4 334//4
f 334//4 326//4 318//4
f 318//4 310//4 302//4
f 302//4 382//4 366//4
f 366//4 350//4 334//4
f 334//4 318//4 302//4
f 390//101 392//101 391//101
f 392//102 298//102 297//102
f 391//2 297//2 299//2
f 299//2 301//2 303//2
f 303//2 305//2 307//2
f 307//2 309//2 311//2
f 311//2 313//2 315//2
f 315//2 317//2 319//2
f 319//2 321//2 323//2
f 323//2 325//2 327//2
f 327//2 329//2 331//2
f 331//2 333//2 335//2
f 335//2 337//2 339//2
f 339//2 341//2 343//2
f 343//2 345//2 347//2
f 347//2 349//2 351//2
f 351//2 353//2 355//2
f 355//2 357//2 359//2
f 359//2 361//2 363//2
f 363//2 365//2 367//2
f 367//2 369//2 371//2
f 371//2 373//2 375//2
f 375//2 377//2 379//2
f 379//2 381//2 383//2
f 383//2 385//2 387//2
f 387//2 389//2 391//2
f 391//2 299//2 303//2
f 303//2 307//2 311//2
f 311//2 315//2 319//2
f 319//2 323//2 327//2
f 327//2 331//2 335//2
f 335//2 339//2 343//2
f 343//2 347//2 351//2
f 351//2 355//2 359//2
f 359//2 363//2 367//2
f 367//2 371//2 375//2
f 375//2 379//2 383//2
f 383//2 387//2 391//2
f 391//2 303//2 311//2
f 311//2 319//2 327//2
f 327//2 335//2 343//2
f 343//2 351//2 359//2
f 359//2 367//2 375//2
f 375//2 383//2 391//2
f 391//2 311//2 327//2
f 327//2 343//2 359//2
f 359//2 375//2 391//2
f 394//55 396//55 395//55
f 396//56 398//56 397//56
f 398//57 400//57 399//57
f 399//58 400//58 402//58
f 402//59 404//59 403//59
f 404//60 406//60 405//60
f 406//61 408//61 407//61
f 408//62 410//62 409//62
f 410//63 412//63 411//63
f 412//64 414//64 413//64
f 414//65 416//65 415//65
f 416//66 418//66 417//66
f 418//67 420//67 419//67
f 420//68 422//68 421//68
f 422//69 424//69 423//69
f 424//70 426//70 425//70
f 426//71 428//71 427//71
f 428//72 430//72 429//72
f 430//73 432//73 431//73
f 432//74 434//74 433//74
f 433//75 434//75 436//75
f 436//76 438//76 437//76
f 438//77 440//77 439//77
f 440//78 442//78 441//78
f 442//79 444//79 443//79
f 444//80 446//80 445//80
f 446//81 448//81 447//81
f 448//82 450//82 449//82
f 450//83 452//83 451//83
f 452//84 454//84 453//84
f 454//85 456//85 455//85
f 456//86 458//86 457//86
f 458//87 460//87 459//87
f 460//88 462//88 461//88
f 462//89 464//89 463//89
f 464//90 466//90 465//90
f 466//91 468//91 467//91
f 468//92 470//92 469//92
f 470//93 472//93 471//93
f 472//94 474//94 473//94
f 474//95 476//95 475//95
f 476//96 478//96 477//96
f 478//97 480//97 479//97
f 480//98 482//98 481//98
f 482//99 484//99 483//99
f 484//100 486//100 485//100
f 398//4 396//4 394//4
f 394//4 488//4 486//4
f 486//4 484//4 482//4
f 482//4 480//4 478//4
f 478//4 476//4 474//4
f 474//4 472//4 470//4
f 470//4 468//4 466//4
f 466//4 464//4 462//4
f 462//4 460//4 458//4
f 458//4 456//4 454//4
f 454//4 452//4 450//4
f 450//4 448//4 446//4
f 446//4 444//4 442//4
f 442//4 440//4 438//4
f 438//4 436//4 434//4
f 434//4 432//4 430//4
f 430//4 428//4 426//4
f 426//4 424//4 422//4
f 422//4 420//4 418//4
f 418//4 416//4 414//4
f 414//4 412//4 410//4
f 410//4 408//4 406//4
f 406//4 404//4 402//4
f 402//4 400//4 398//4
f 398//4 394//4 486//4
f 486//4 482//4 478//4
f 478//4 474//4 470//4
f 470//4 466//4 462//4
f 462//4 458//4 454//4
f 454//4 450//4 446//4
f 446//4 442//4 438//4
f 438//4 434//4 430//4
f 430//4 426//4 422//4
f 422//4 418//4 414//4
f 414//4 410//4 406//4
f 406//4 402//4 398//4
f 398//4 486//4 478//4
f 478//4 470//4 462//4
f 462//4 454//4 446//4
f 446//4 438//4 430//4
f 430//4 422//4 414//4
f 414//4 406//4 398//4
f 398//4 478//4 462//4
f 462//4 446//4 430//4
f 430//4 414//4 398//4
f 486//101 488//101 487//101
f 488//102 394//102 393//102
f 487//2 393//2 395//2
f 395//2 397//2 399//2
f 399//2 401//2 403//2
f 403//2 405//2 407//2
f 407//2 409//2 411//2
f 411//2 413//2 415//2
f 415//2 417//2 419//2
f 419//2 421//2 423//2
f 423//2 425//2 427//2
f 427//2 429//2 431//2
f 431//2 433//2 435//2
f 435//2 437//2 439//2
f 439//2 441//2 443//2
f 443//2 445//2 447//2
f 447//2 449//2 451//2
f 451//2 453//2 455//2
f 455//2 457//2 459//2
f 459//2 461//2 463//2
f 463//2 465//2 467//2
f 467//2 469//2 471//2
f 471//2 473//2 475//2
f 475//2 477//2 479//2
f 479//2 481//2 483//2
f 483//2 485//2 487//2
f 487//2 395//2 399//2
f 399//2 403//2 407//2
f 407//2 411//2 415//2
f 415//2 419//2 423//2
f 423//2 427//2 431//2
f 431//2 435//2 439//2
f 439//2 443//2 447//2
f 447//2 451//2 455//2
f 455//2 459//2 463//2
f 463//2 467//2 471//2
f 471//2 475//2 479//2
f 479//2 483//2 487//2
f 487//2 399//2 407//2
f 407//2 415//2 423//2
f 423//2 431//2 439//2
f 439//2 447//2 455//2
f 455//2 463//2 471//2
f 471//2 479//2 487//2
f 487//2 407//2 423//2
f 423//2 439//2 455//2
f 455//2 471//2 487//2
