# Blender 5.2.2 LTS
# www.blender.org
mtllib crane_rail.mtl
o crane_rail
v -9.500000 -0.010000 3.900000
v -9.500000 -0.010000 4.150000
v -9.500000 0.010000 3.900000
v -9.500000 0.010000 4.150000
v 1.200000 -0.010000 3.900000
v 1.200000 -0.010000 4.150000
v 1.200000 0.010000 3.900000
v 1.200000 0.010000 4.150000
v -9.500000 -0.090000 3.885000
v -9.500000 -0.090000 3.900000
v -9.500000 0.090000 3.885000
v -9.500000 0.090000 3.900000
v 1.200000 -0.090000 3.885000
v 1.200000 -0.090000 3.900000
v 1.200000 0.090000 3.885000
v 1.200000 0.090000 3.900000
v -9.500000 -0.090000 4.150000
v -9.500000 -0.090000 4.165000
v -9.500000 0.090000 4.150000
v -9.500000 0.090000 4.165000
v 1.200000 -0.090000 4.150000
v 1.200000 -0.090000 4.165000
v 1.200000 0.090000 4.150000
v 1.200000 0.090000 4.165000
v -9.240000 -0.040000 4.165000
v -9.240000 -0.040000 4.140000
v -9.240000 0.040000 4.165000
v -9.240000 0.040000 4.140000
v -9.160000 -0.040000 4.165000
v -9.160000 -0.040000 4.140000
v -9.160000 0.040000 4.165000
v -9.160000 0.040000 4.140000
v -4.190000 -0.040000 4.165000
v -4.190000 -0.040000 4.140000
v -4.190000 0.040000 4.165000
v -4.190000 0.040000 4.140000
v -4.110000 -0.040000 4.165000
v -4.110000 -0.040000 4.140000
v -4.110000 0.040000 4.165000
v -4.110000 0.040000 4.140000
v 0.860000 -0.040000 4.165000
v 0.860000 -0.040000 4.140000
v 0.860000 0.040000 4.165000
v 0.860000 0.040000 4.140000
v 0.940000 -0.040000 4.165000
v 0.940000 -0.040000 4.140000
v 0.940000 0.040000 4.165000
v 0.940000 0.040000 4.140000
vn -1.0000 -0.0000 -0.0000
vn -0.0000 1.0000 -0.0000
vn 1.0000 -0.0000 -0.0000
vn -0.0000 -1.0000 -0.0000
vn -0.0000 -0.0000 -1.0000
vn -0.0000 -0.0000 1.0000
s 0
usemtl hatch_yellow
f 2//1 3//1 1//1
f 4//2 7//2 3//2
f 8//3 5//3 7//3
f 6//4 1//4 5//4
f 7//5 1//5 3//5
f 4//6 6//6 8//6
f 10//1 11//1 9//1
f 12//2 15//2 11//2
f 16//3 13//3 15//3
f 14//4 9//4 13//4
f 15//5 9//5 11//5
f 12//6 14//6 16//6
f 18//1 19//1 17//1
f 20//2 23//2 19//2
f 24//3 21//3 23//3
f 22//4 17//4 21//4
f 23//5 17//5 19//5
f 20//6 22//6 24//6
f 2//1 4//1 3//1
f 4//2 8//2 7//2
f 8//3 6//3 5//3
f 6//4 2//4 1//4
f 7//5 5//5 1//5
f 4//6 2//6 6//6
f 10//1 12//1 11//1
f 12//2 16//2 15//2
f 16//3 14//3 13//3
f 14//4 10//4 9//4
f 15//5 13//5 9//5
f 12//6 10//6 14//6
f 18//1 20//1 19//1
f 20//2 24//2 23//2
f 24//3 22//3 21//3
f 22//4 18//4 17//4
f 23//5 21//5 17//5
f 20//6 18//6 22//6
usemtl steel_grey
f 27//1 26//1 25//1
f 31//2 28//2 27//2
f 29//3 32//3 31//3
f 25//4 30//4 29//4
f 25//6 31//6 27//6
f 30//5 28//5 32//5
f 35//1 34//1 33//1
f 39//2 36//2 35//2
f 37//3 40//3 39//3
f 33//4 38//4 37//4
f 33//6 39//6 35//6
f 38//5 36//5 40//5
f 43//1 42//1 41//1
f 47//2 44//2 43//2
f 45//3 48//3 47//3
f 41//4 46//4 45//4
f 41//6 47//6 43//6
f 46//5 44//5 48//5
f 27//1 28//1 26//1
f 31//2 32//2 28//2
f 29//3 30//3 32//3
f 25//4 26//4 30//4
f 25//6 29//6 31//6
f 30//5 26//5 28//5
f 35//1 36//1 34//1
f 39//2 40//2 36//2
f 37//3 38//3 40//3
f 33//4 34//4 38//4
f 33//6 37//6 39//6
f 38//5 34//5 36//5
f 43//1 44//1 42//1
f 47//2 48//2 44//2
f 45//3 46//3 48//3
f 41//4 42//4 46//4
f 41//6 45//6 47//6
f 46//5 42//5 44//5
