# Blender 5.2.2 LTS
# www.blender.org
mtllib earthing_loose.mtl
o earthing_loose
v -1.834641 -3.097691 0.000000
v -1.834641 -3.097691 0.140000
v -1.765359 -3.137691 0.000000
v -1.765359 -3.137691 0.140000
v -1.884641 -3.184294 0.000000
v -1.884641 -3.184294 0.140000
v -1.815359 -3.224294 0.000000
v -1.815359 -3.224294 0.140000
v -1.660000 -2.875204 0.132000
v -1.662000 -2.878669 0.132000
v -1.658644 -2.875988 0.131897
v -1.660644 -2.879452 0.131897
v -1.657310 -2.876757 0.131591
v -1.659310 -2.880221 0.131591
v -1.656023 -2.877501 0.131087
v -1.658023 -2.880965 0.131087
v -1.654804 -2.878204 0.130392
v -1.656804 -2.881669 0.130392
v -1.653674 -2.878857 0.129520
v -1.655674 -2.882321 0.129520
v -1.652652 -2.879447 0.128485
v -1.654652 -2.882911 0.128485
v -1.651755 -2.879965 0.127305
v -1.653755 -2.883429 0.127305
v -1.651000 -2.880400 0.126000
v -1.653000 -2.883865 0.126000
v -1.650399 -2.880748 0.124592
v -1.652399 -2.884212 0.124592
v -1.649962 -2.881000 0.123106
v -1.651962 -2.884464 0.123106
v -1.649697 -2.881153 0.121566
v -1.651697 -2.884617 0.121566
v -1.649608 -2.881204 0.120000
v -1.651608 -2.884669 0.120000
v -1.649697 -2.881153 0.118434
v -1.651697 -2.884617 0.118434
v -1.649962 -2.881000 0.116894
v -1.651962 -2.884464 0.116894
v -1.650399 -2.880748 0.115408
v -1.652399 -2.884212 0.115408
v -1.651000 -2.880400 0.114000
v -1.653000 -2.883865 0.114000
v -1.651755 -2.879965 0.112695
v -1.653755 -2.883429 0.112695
v -1.652652 -2.879447 0.111515
v -1.654652 -2.882911 0.111515
v -1.653674 -2.878857 0.110480
v -1.655674 -2.882321 0.110480
v -1.654804 -2.878204 0.109608
v -1.656804 -2.881669 0.109608
v -1.656023 -2.877501 0.108913
v -1.658023 -2.880965 0.108913
v -1.657310 -2.876757 0.108409
v -1.659310 -2.880221 0.108409
v -1.658644 -2.875988 0.108103
v -1.660644 -2.879452 0.108103
v -1.660000 -2.875204 0.108000
v -1.662000 -2.878669 0.108000
v -1.661356 -2.874421 0.108103
v -1.663356 -2.877885 0.108103
v -1.662690 -2.873652 0.108409
v -1.664690 -2.877115 0.108409
v -1.663977 -2.872908 0.108913
v -1.665977 -2.876372 0.108913
v -1.665196 -2.872204 0.109608
v -1.667196 -2.875669 0.109608
v -1.666326 -2.871552 0.110480
v -1.668326 -2.875016 0.110480
v -1.667349 -2.870962 0.111515
v -1.669348 -2.874426 0.111515
v -1.668245 -2.870444 0.112695
v -1.670245 -2.873908 0.112695
v -1.669000 -2.870008 0.114000
v -1.671000 -2.873472 0.114000
v -1.669601 -2.869661 0.115408
v -1.671601 -2.873125 0.115408
v -1.670038 -2.869409 0.116894
v -1.672038 -2.872873 0.116894
v -1.670303 -2.869256 0.118434
v -1.672303 -2.872720 0.118434
v -1.670392 -2.869204 0.120000
v -1.672392 -2.872669 0.120000
v -1.670303 -2.869256 0.121566
v -1.672303 -2.872720 0.121566
v -1.670038 -2.869409 0.123106
v -1.672038 -2.872873 0.123106
v -1.669601 -2.869661 0.124592
v -1.671601 -2.873125 0.124592
v -1.669000 -2.870008 0.126000
v -1.671000 -2.873472 0.126000
v -1.668245 -2.870444 0.127305
v -1.670245 -2.873908 0.127305
v -1.667349 -2.870962 0.128485
v -1.669348 -2.874426 0.128485
v -1.666326 -2.871552 0.129520
v -1.668326 -2.875016 0.129520
v -1.665196 -2.872204 0.130392
v -1.667196 -2.875669 0.130392
v -1.663977 -2.872908 0.131087
v -1.665977 -2.876372 0.131087
v -1.662690 -2.873652 0.131591
v -1.664690 -2.877115 0.131591
v -1.661356 -2.874421 0.131897
v -1.663356 -2.877885 0.131897
v -1.792073 -3.103961 0.109313
v -1.722073 -2.982718 0.021313
v -1.797228 -3.101891 0.108065
v -1.727228 -2.980647 0.020065
v -1.801787 -3.101733 0.104657
v -1.731787 -2.980490 0.016656
v -1.804526 -3.103531 0.100000
v -1.734526 -2.982288 0.012000
v -1.804713 -3.106803 0.095344
v -1.734714 -2.985559 0.007343
v -1.802298 -3.110672 0.091935
v -1.732298 -2.989428 0.003935
v -1.797927 -3.114101 0.090687
v -1.727927 -2.992857 0.002687
v -1.792772 -3.116172 0.091935
v -1.722772 -2.994928 0.003935
v -1.788213 -3.116329 0.095344
v -1.718213 -2.995086 0.007343
v -1.785474 -3.114531 0.100000
v -1.715474 -2.993288 0.012000
v -1.785286 -3.111259 0.104657
v -1.715286 -2.990016 0.016656
v -1.787702 -3.107391 0.108065
v -1.717702 -2.986147 0.020065
v -1.725000 -2.987788 0.023000
v -1.516154 -2.818027 0.023000
v -1.728469 -2.983520 0.021526
v -1.519623 -2.813759 0.021526
v -1.731009 -2.980396 0.017500
v -1.522163 -2.810635 0.017500
v -1.731938 -2.979252 0.012000
v -1.523093 -2.809491 0.012000
v -1.731009 -2.980396 0.006500
v -1.522163 -2.810635 0.006500
v -1.728469 -2.983520 0.002474
v -1.519623 -2.813759 0.002474
v -1.725000 -2.987788 0.001000
v -1.516154 -2.818027 0.001000
v -1.721531 -2.992056 0.002474
v -1.512685 -2.822295 0.002474
v -1.718991 -2.995180 0.006500
v -1.510145 -2.825419 0.006500
v -1.718062 -2.996324 0.012000
v -1.509216 -2.826563 0.012000
v -1.718991 -2.995180 0.017500
v -1.510145 -2.825419 0.017500
v -1.721531 -2.992056 0.021526
v -1.512685 -2.822295 0.021526
v -1.515660 -2.818961 0.022949
v -1.602886 -2.654078 0.040949
v -1.520588 -2.821408 0.021482
v -1.607814 -2.656525 0.039482
v -1.524328 -2.822949 0.017475
v -1.611554 -2.658066 0.035475
v -1.525877 -2.823171 0.012000
v -1.613103 -2.658288 0.030000
v -1.524822 -2.822015 0.006525
v -1.612048 -2.657131 0.024525
v -1.521444 -2.819790 0.002518
v -1.608669 -2.654907 0.020518
v -1.516648 -2.817093 0.001051
v -1.603874 -2.652210 0.019051
v -1.511720 -2.814646 0.002518
v -1.598946 -2.649763 0.020518
v -1.507980 -2.813105 0.006525
v -1.595206 -2.648222 0.024525
v -1.506431 -2.812883 0.012000
v -1.593657 -2.648000 0.030000
v -1.507486 -2.814039 0.017475
v -1.594712 -2.649156 0.035475
v -1.510865 -2.816264 0.021482
v -1.598090 -2.651381 0.039482
vn 0.5000 0.8660 -0.0000
vn 0.8660 -0.5000 -0.0000
vn -0.5000 -0.8660 -0.0000
vn -0.8660 0.5000 -0.0000
vn -0.0000 -0.0000 -1.0000
vn -0.0000 -0.0000 1.0000
vn 0.0566 -0.0327 0.9979
vn 0.1689 -0.0975 0.9808
vn 0.2784 -0.1608 0.9469
vn 0.3830 -0.2212 0.8969
vn 0.4811 -0.2778 0.8315
vn 0.5709 -0.3297 0.7519
vn 0.6510 -0.3759 0.6594
vn 0.7201 -0.4157 0.5555
vn 0.7768 -0.4484 0.4423
vn 0.8201 -0.4734 0.3216
vn 0.8493 -0.4904 0.1952
vn 0.8641 -0.4990 0.0656
vn 0.8641 -0.4990 -0.0656
vn 0.8494 -0.4905 -0.1949
vn 0.8201 -0.4734 -0.3215
vn 0.7768 -0.4484 -0.4423
vn 0.7201 -0.4157 -0.5555
vn 0.6510 -0.3759 -0.6594
vn 0.5709 -0.3297 -0.7519
vn 0.4811 -0.2778 -0.8315
vn 0.3830 -0.2212 -0.8969
vn 0.2784 -0.1608 -0.9469
vn 0.1689 -0.0975 -0.9808
vn 0.0566 -0.0327 -0.9979
vn -0.0566 0.0327 -0.9979
vn -0.1690 0.0976 -0.9808
vn -0.2784 0.1607 -0.9469
vn -0.3830 0.2211 -0.8969
vn -0.4812 0.2778 -0.8314
vn -0.5710 0.3297 -0.7518
vn -0.6511 0.3759 -0.6593
vn -0.7202 0.4158 -0.5554
vn -0.7767 0.4485 -0.4423
vn -0.8201 0.4735 -0.3213
vn -0.8494 0.4905 -0.1949
vn -0.8642 0.4989 -0.0654
vn -0.8642 0.4989 0.0655
vn -0.8494 0.4905 0.1950
vn -0.8201 0.4735 0.3213
vn -0.7767 0.4484 0.4423
vn -0.7202 0.4158 0.5554
vn -0.6511 0.3759 0.6593
vn -0.5710 0.3297 0.7518
vn -0.4812 0.2778 0.8314
vn -0.3830 0.2211 0.8969
vn -0.2784 0.1607 0.9469
vn -0.1690 0.0976 0.9808
vn -0.0566 0.0327 0.9979
vn 0.0329 0.5746 0.8178
vn -0.4242 0.6794 0.5987
vn -0.7676 0.6022 0.2191
vn -0.9054 0.3637 -0.2192
vn -0.8005 0.0277 -0.5986
vn -0.4812 -0.3157 -0.8178
vn -0.0329 -0.5746 -0.8178
vn 0.4242 -0.6795 -0.5987
vn 0.7677 -0.6022 -0.2191
vn 0.9054 -0.3637 0.2191
vn 0.4233 0.7332 -0.5322
vn 0.8005 -0.0277 0.5987
vn 0.4812 0.3158 0.8178
vn -0.4233 -0.7332 0.5322
vn -0.1633 0.2008 0.9659
vn -0.4460 0.5487 0.7071
vn -0.6093 0.7495 0.2589
vn -0.6093 0.7495 -0.2588
vn -0.4460 0.5487 -0.7071
vn -0.1633 0.2008 -0.9659
vn 0.1633 -0.2009 -0.9659
vn 0.4460 -0.5487 -0.7071
vn 0.6093 -0.7495 -0.2588
vn 0.6093 -0.7495 0.2588
vn 0.7760 0.6308 -0.0000
vn 0.4460 -0.5487 0.7071
vn 0.1632 -0.2008 0.9659
vn -0.7760 -0.6308 -0.0000
vn -0.1854 -0.2030 0.9615
vn -0.5933 -0.3907 0.7038
vn -0.8422 -0.4737 0.2576
vn -0.8654 -0.4297 -0.2576
vn -0.6568 -0.2706 -0.7038
vn -0.2722 -0.0390 -0.9615
vn 0.1854 0.2030 -0.9615
vn 0.5933 0.3907 -0.7038
vn 0.8422 0.4737 -0.2576
vn 0.8654 0.4297 0.2576
vn -0.4655 0.8798 0.0960
vn 0.6568 0.2706 0.7038
vn 0.2722 0.0390 0.9615
vn 0.4654 -0.8798 -0.0961
vn 0.2784 -0.1607 0.9469
vn 0.3830 -0.2211 0.8969
vn 0.4812 -0.2778 0.8314
vn 0.5711 -0.3297 0.7518
vn 0.6511 -0.3759 0.6593
vn 0.7767 -0.4485 0.4423
vn 0.8201 -0.4735 0.3213
vn 0.8494 -0.4904 0.1949
vn 0.8642 -0.4989 0.0654
vn 0.8642 -0.4989 -0.0654
vn 0.8494 -0.4904 -0.1952
vn 0.8200 -0.4734 -0.3216
vn 0.7767 -0.4485 -0.4423
vn 0.7202 -0.4158 -0.5554
vn 0.6511 -0.3759 -0.6593
vn 0.5711 -0.3297 -0.7518
vn 0.4812 -0.2778 -0.8314
vn 0.3830 -0.2211 -0.8969
vn 0.2784 -0.1607 -0.9469
vn 0.1690 -0.0976 -0.9808
vn -0.0567 0.0327 -0.9979
vn -0.1689 0.0975 -0.9808
vn -0.3831 0.2212 -0.8969
vn -0.4811 0.2778 -0.8315
vn -0.5710 0.3296 -0.7519
vn -0.6511 0.3759 -0.6594
vn -0.7200 0.4157 -0.5556
vn -0.7767 0.4484 -0.4424
vn -0.8200 0.4734 -0.3215
vn -0.8493 0.4904 -0.1953
vn -0.8641 0.4990 -0.0654
vn -0.8641 0.4990 0.0654
vn -0.8493 0.4904 0.1953
vn -0.8200 0.4734 0.3216
vn -0.7767 0.4484 0.4424
vn -0.7201 0.4157 0.5555
vn -0.5710 0.3297 0.7519
vn -0.4811 0.2778 0.8315
vn -0.3830 0.2212 0.8969
vn -0.5001 -0.8660 -0.0000
vn -0.4999 -0.8661 0.0014
vn -0.4995 -0.8663 -0.0000
vn -0.4991 -0.8665 -0.0029
vn -0.5010 -0.8654 0.0014
vn -0.4988 -0.8667 -0.0007
vn -0.4995 -0.8663 0.0004
vn -0.4995 -0.8663 -0.0004
vn -0.4982 -0.8671 0.0007
vn -0.5010 -0.8654 -0.0014
vn -0.4991 -0.8666 0.0029
vn -0.4998 -0.8661 -0.0000
vn -0.5000 -0.8660 -0.0014
vn -0.5001 -0.8659 -0.0029
vn -0.5010 -0.8655 -0.0000
vn -0.4990 -0.8666 -0.0014
vn -0.5015 -0.8652 -0.0000
vn -0.4987 -0.8668 -0.0005
vn -0.4987 -0.8668 0.0007
vn -0.5008 -0.8655 -0.0000
vn -0.4987 -0.8668 0.0014
vn -0.5002 -0.8659 0.0029
vn -0.5000 -0.8660 -0.0007
vn -0.4997 -0.8662 -0.0000
vn -0.5000 -0.8660 0.0007
vn -0.4999 -0.8661 -0.0000
vn -0.4996 -0.8663 0.0004
vn -0.5005 -0.8657 -0.0000
vn -0.4998 -0.8662 -0.0004
vn -0.5000 -0.8660 0.0001
vn -0.5000 -0.8660 -0.0002
vn -0.5001 -0.8660 0.0001
vn -0.1689 0.0975 0.9808
vn -0.0567 0.0327 0.9979
vn 0.5001 0.8660 -0.0000
vn 0.4999 0.8661 -0.0000
vn 0.4993 0.8664 -0.0000
vn 0.4992 0.8665 -0.0000
vn 0.4994 0.8664 0.0014
vn 0.5010 0.8655 -0.0007
vn 0.4995 0.8663 -0.0000
vn 0.5010 0.8655 0.0007
vn 0.5000 0.8660 -0.0015
vn 0.5004 0.8658 -0.0000
vn 0.5004 0.8658 -0.0029
vn 0.5008 0.8656 -0.0000
vn 0.5014 0.8652 0.0011
vn 0.5013 0.8653 -0.0000
vn 0.5014 0.8652 -0.0015
vn 0.5002 0.8659 -0.0000
vn 0.5007 0.8656 0.0029
vn 0.5000 0.8660 0.0004
vn 0.4998 0.8661 -0.0007
vn 0.4998 0.8661 -0.0002
vn 0.5000 0.8661 -0.0000
vn 0.5003 0.8659 -0.0000
vn 0.5001 0.8660 0.0004
vn 0.5003 0.8659 0.0011
vn 0.4996 0.8662 -0.0000
vn 0.4999 0.8661 0.0011
vn 0.5000 0.8660 -0.0001
vn 0.4999 0.8661 -0.0001
vn -0.4242 0.6795 0.5986
vn -0.7676 0.6023 0.2191
vn -0.9054 0.3637 -0.2191
vn -0.8005 0.0277 -0.5987
vn -0.4812 -0.3158 -0.8178
vn 0.4242 -0.6794 -0.5987
vn 0.7676 -0.6022 -0.2191
vn 0.4234 0.7332 -0.5321
vn 0.4234 0.7332 -0.5322
vn 0.4234 0.7331 -0.5323
vn 0.8005 -0.0276 0.5987
vn 0.4812 0.3157 0.8178
vn -0.4233 -0.7331 0.5324
vn -0.4233 -0.7332 0.5321
vn -0.1632 0.2008 0.9659
vn -0.6093 0.7495 0.2588
vn -0.6093 0.7495 -0.2589
vn -0.1632 0.2008 -0.9659
vn 0.1632 -0.2008 -0.9659
vn 0.7760 0.6307 -0.0001
vn 0.7760 0.6308 0.0001
vn 0.7760 0.6307 -0.0000
vn 0.7760 0.6308 -0.0001
vn 0.7760 0.6307 0.0002
vn 0.1633 -0.2008 0.9659
vn -0.7760 -0.6308 -0.0001
vn -0.7760 -0.6307 -0.0001
vn -0.7760 -0.6307 0.0001
vn -0.7760 -0.6308 0.0001
vn -0.7760 -0.6307 -0.0000
vn -0.7759 -0.6308 -0.0000
vn -0.5933 -0.3907 0.7039
vn -0.4655 0.8798 0.0961
vn -0.4654 0.8799 0.0961
vn -0.4654 0.8798 0.0961
vn -0.4654 0.8799 0.0960
vn 0.4655 -0.8798 -0.0961
vn 0.4655 -0.8798 -0.0962
vn 0.4654 -0.8799 -0.0959
vn 0.4655 -0.8799 -0.0959
vn 0.4655 -0.8798 -0.0960
vn 0.4654 -0.8799 -0.0958
vn 0.4654 -0.8799 -0.0961
s 0
usemtl steel_grey
f 2//1 3//1 1//1
f 4//2 7//2 3//2
f 8//3 5//3 7//3
f 6//4 1//4 5//4
f 3//5 5//5 1//5
f 4//6 6//6 8//6
f 2//1 4//1 3//1
f 4//2 8//2 7//2
f 8//3 6//3 5//3
f 6//4 2//4 1//4
f 3//5 7//5 5//5
f 4//6 2//6 6//6
usemtl crack
f 10//7 11//7 9//7
f 12//8 13//8 11//8
f 13//9 16//9 15//9
f 16//10 17//10 15//10
f 17//11 20//11 19//11
f 20//12 21//12 19//12
f 21//13 24//13 23//13
f 23//14 26//14 25//14
f 26//15 27//15 25//15
f 28//16 29//16 27//16
f 30//17 31//17 29//17
f 32//18 33//18 31//18
f 33//19 36//19 35//19
f 36//20 37//20 35//20
f 38//21 39//21 37//21
f 40//22 41//22 39//22
f 42//23 43//23 41//23
f 44//24 45//24 43//24
f 45//25 48//25 47//25
f 48//26 49//26 47//26
f 50//27 51//27 49//27
f 52//28 53//28 51//28
f 54//29 55//29 53//29
f 55//30 58//30 57//30
f 57//31 60//31 59//31
f 59//32 62//32 61//32
f 61//33 64//33 63//33
f 63//34 66//34 65//34
f 66//35 67//35 65//35
f 68//36 69//36 67//36
f 69//37 72//37 71//37
f 71//38 74//38 73//38
f 73//39 76//39 75//39
f 75//40 78//40 77//40
f 77//41 80//41 79//41
f 79//42 82//42 81//42
f 82//43 83//43 81//43
f 84//44 85//44 83//44
f 86//45 87//45 85//45
f 87//46 90//46 89//46
f 89//47 92//47 91//47
f 92//48 93//48 91//48
f 93//49 96//49 95//49
f 95//50 98//50 97//50
f 98//51 99//51 97//51
f 100//52 101//52 99//52
f 78//3 46//3 14//3
f 102//53 103//53 101//53
f 103//54 10//54 9//54
f 39//1 71//1 103//1
f 10//7 12//7 11//7
f 12//8 14//8 13//8
f 13//97 14//97 16//97
f 16//98 18//98 17//98
f 17//99 18//99 20//99
f 20//100 22//100 21//100
f 21//101 22//101 24//101
f 23//14 24//14 26//14
f 26//102 28//102 27//102
f 28//103 30//103 29//103
f 30//104 32//104 31//104
f 32//105 34//105 33//105
f 33//106 34//106 36//106
f 36//107 38//107 37//107
f 38//108 40//108 39//108
f 40//109 42//109 41//109
f 42//110 44//110 43//110
f 44//111 46//111 45//111
f 45//112 46//112 48//112
f 48//113 50//113 49//113
f 50//114 52//114 51//114
f 52//115 54//115 53//115
f 54//116 56//116 55//116
f 55//30 56//30 58//30
f 57//117 58//117 60//117
f 59//118 60//118 62//118
f 61//33 62//33 64//33
f 63//119 64//119 66//119
f 66//120 68//120 67//120
f 68//121 70//121 69//121
f 69//122 70//122 72//122
f 71//123 72//123 74//123
f 73//124 74//124 76//124
f 75//125 76//125 78//125
f 77//126 78//126 80//126
f 79//127 80//127 82//127
f 82//128 84//128 83//128
f 84//129 86//129 85//129
f 86//130 88//130 87//130
f 87//131 88//131 90//131
f 89//132 90//132 92//132
f 92//48 94//48 93//48
f 93//133 94//133 96//133
f 95//134 96//134 98//134
f 98//135 100//135 99//135
f 100//52 102//52 101//52
f 14//136 12//136 10//136
f 10//137 104//137 102//137
f 102//138 100//138 98//138
f 98//139 96//139 94//139
f 94//140 92//140 90//140
f 90//141 88//141 86//141
f 86//142 84//142 82//142
f 82//143 80//143 78//143
f 78//144 76//144 74//144
f 74//145 72//145 70//145
f 70//146 68//146 66//146
f 66//147 64//147 62//147
f 62//148 60//148 58//148
f 58//3 56//3 54//3
f 54//149 52//149 50//149
f 50//150 48//150 46//150
f 46//151 44//151 42//151
f 42//152 40//152 38//152
f 38//153 36//153 34//153
f 34//154 32//154 30//154
f 30//155 28//155 26//155
f 26//156 24//156 22//156
f 22//150 20//150 18//150
f 18//157 16//157 14//157
f 14//158 10//158 102//158
f 102//136 98//136 94//136
f 94//136 90//136 86//136
f 86//159 82//159 78//159
f 78//136 74//136 70//136
f 70//3 66//3 62//3
f 62//160 58//160 54//160
f 54//161 50//161 46//161
f 46//162 42//162 38//162
f 38//163 34//163 30//163
f 30//164 26//164 22//164
f 22//147 18//147 14//147
f 14//3 102//3 94//3
f 94//136 86//136 78//136
f 78//165 70//165 62//165
f 62//166 54//166 46//166
f 46//161 38//161 30//161
f 30//167 22//167 14//167
f 14//3 94//3 78//3
f 78//3 62//3 46//3
f 46//3 30//3 14//3
f 102//168 104//168 103//168
f 103//169 104//169 10//169
f 103//170 9//170 11//170
f 11//171 13//171 15//171
f 15//172 17//172 19//172
f 19//173 21//173 23//173
f 23//174 25//174 27//174
f 27//175 29//175 31//175
f 31//176 33//176 35//176
f 35//177 37//177 39//177
f 39//178 41//178 43//178
f 43//173 45//173 47//173
f 47//172 49//172 51//172
f 51//171 53//171 55//171
f 55//170 57//170 59//170
f 59//171 61//171 63//171
f 63//179 65//179 67//179
f 67//180 69//180 71//180
f 71//181 73//181 75//181
f 75//182 77//182 79//182
f 79//183 81//183 83//183
f 83//184 85//184 87//184
f 87//185 89//185 91//185
f 91//186 93//186 95//186
f 95//179 97//179 99//179
f 99//170 101//170 103//170
f 103//187 11//187 15//187
f 15//188 19//188 23//188
f 23//189 27//189 31//189
f 31//190 35//190 39//190
f 39//191 43//191 47//191
f 47//192 51//192 55//192
f 55//1 59//1 63//1
f 63//193 67//193 71//193
f 71//170 75//170 79//170
f 79//170 83//170 87//170
f 87//194 91//194 95//194
f 95//195 99//195 103//195
f 103//196 15//196 23//196
f 23//1 31//1 39//1
f 39//197 47//197 55//197
f 55//1 63//1 71//1
f 71//171 79//171 87//171
f 87//196 95//196 103//196
f 103//1 23//1 39//1
f 39//1 55//1 71//1
f 71//1 87//1 103//1
usemtl copper
f 105//55 108//55 107//55
f 107//56 110//56 109//56
f 110//57 111//57 109//57
f 111//58 114//58 113//58
f 114//59 115//59 113//59
f 115//60 118//60 117//60
f 118//61 119//61 117//61
f 120//62 121//62 119//62
f 121//63 124//63 123//63
f 124//64 125//64 123//64
f 126//65 118//65 110//65
f 125//66 128//66 127//66
f 128//67 105//67 127//67
f 111//68 119//68 127//68
f 130//69 131//69 129//69
f 131//70 134//70 133//70
f 134//71 135//71 133//71
f 136//72 137//72 135//72
f 138//73 139//73 137//73
f 139//74 142//74 141//74
f 142//75 143//75 141//75
f 144//76 145//76 143//76
f 145//77 148//77 147//77
f 148//78 149//78 147//78
f 150//79 142//79 134//79
f 149//80 152//80 151//80
f 152//81 129//81 151//81
f 135//82 143//82 151//82
f 154//83 155//83 153//83
f 156//84 157//84 155//84
f 158//85 159//85 157//85
f 159//86 162//86 161//86
f 161//87 164//87 163//87
f 164//88 165//88 163//88
f 165//89 168//89 167//89
f 167//90 170//90 169//90
f 169//91 172//91 171//91
f 171//92 174//92 173//92
f 174//93 166//93 158//93
f 174//94 175//94 173//94
f 176//95 153//95 175//95
f 159//96 167//96 175//96
f 105//55 106//55 108//55
f 107//198 108//198 110//198
f 110//199 112//199 111//199
f 111//200 112//200 114//200
f 114//201 116//201 115//201
f 115//202 116//202 118//202
f 118//61 120//61 119//61
f 120//203 122//203 121//203
f 121//204 122//204 124//204
f 124//64 126//64 125//64
f 110//65 108//65 106//65
f 106//205 128//205 126//205
f 126//206 124//206 122//206
f 122//65 120//65 118//65
f 118//205 116//205 114//205
f 114//207 112//207 110//207
f 110//65 106//65 126//65
f 126//65 122//65 118//65
f 118//65 114//65 110//65
f 125//208 126//208 128//208
f 128//209 106//209 105//209
f 127//68 105//68 107//68
f 107//68 109//68 111//68
f 111//68 113//68 115//68
f 115//210 117//210 119//210
f 119//68 121//68 123//68
f 123//68 125//68 127//68
f 127//68 107//68 111//68
f 111//211 115//211 119//211
f 119//68 123//68 127//68
f 130//212 132//212 131//212
f 131//70 132//70 134//70
f 134//213 136//213 135//213
f 136//214 138//214 137//214
f 138//73 140//73 139//73
f 139//215 140//215 142//215
f 142//216 144//216 143//216
f 144//76 146//76 145//76
f 145//77 146//77 148//77
f 148//78 150//78 149//78
f 134//217 132//217 130//217
f 130//218 152//218 150//218
f 150//219 148//219 146//219
f 146//220 144//220 142//220
f 142//221 140//221 138//221
f 138//219 136//219 134//219
f 134//79 130//79 150//79
f 150//79 146//79 142//79
f 142//79 138//79 134//79
f 149//80 150//80 152//80
f 152//222 130//222 129//222
f 151//223 129//223 131//223
f 131//224 133//224 135//224
f 135//225 137//225 139//225
f 139//226 141//226 143//226
f 143//227 145//227 147//227
f 147//228 149//228 151//228
f 151//226 131//226 135//226
f 135//82 139//82 143//82
f 143//82 147//82 151//82
f 154//83 156//83 155//83
f 156//229 158//229 157//229
f 158//85 160//85 159//85
f 159//86 160//86 162//86
f 161//87 162//87 164//87
f 164//88 166//88 165//88
f 165//89 166//89 168//89
f 167//90 168//90 170//90
f 169//91 170//91 172//91
f 171//92 172//92 174//92
f 158//230 156//230 154//230
f 154//230 176//230 174//230
f 174//93 172//93 170//93
f 170//230 168//230 166//230
f 166//230 164//230 162//230
f 162//231 160//231 158//231
f 158//232 154//232 174//232
f 174//230 170//230 166//230
f 166//233 162//233 158//233
f 174//94 176//94 175//94
f 176//95 154//95 153//95
f 175//234 153//234 155//234
f 155//235 157//235 159//235
f 159//236 161//236 163//236
f 163//237 165//237 167//237
f 167//238 169//238 171//238
f 171//239 173//239 175//239
f 175//238 155//238 159//238
f 159//234 163//234 167//234
f 167//240 171//240 175//240
