# Blender 5.2.2 LTS
# www.blender.org
mtllib earthing_ok.mtl
o earthing_ok
v -1.834641 -3.097691 0.000000
v -1.834641 -3.097691 0.140000
v -1.765359 -3.137691 0.000000
v -1.765359 -3.137691 0.140000
v -1.884641 -3.184294 0.000000
v -1.884641 -3.184294 0.140000
v -1.815359 -3.224294 0.000000
v -1.815359 -3.224294 0.140000
v -1.665000 -2.883865 0.138000
v -1.675000 -2.901185 0.138000
v -1.651500 -2.891659 0.129000
v -1.661500 -2.908979 0.129000
v -1.651500 -2.891659 0.111000
v -1.661500 -2.908979 0.111000
v -1.665000 -2.883865 0.102000
v -1.675000 -2.901185 0.102000
v -1.678500 -2.876070 0.111000
v -1.688500 -2.893391 0.111000
v -1.678500 -2.876070 0.129000
v -1.688500 -2.893391 0.129000
v -1.671408 -2.894964 0.122003
v -1.681408 -2.912284 0.014003
v -1.665920 -2.896459 0.121735
v -1.675920 -2.913779 0.013735
v -1.660454 -2.895044 0.121001
v -1.670454 -2.912364 0.013001
v -1.656474 -2.891097 0.120000
v -1.666474 -2.908417 0.012000
v -1.655046 -2.885677 0.118999
v -1.665046 -2.902997 0.010999
v -1.656553 -2.880235 0.118265
v -1.666553 -2.897555 0.010265
v -1.660592 -2.876230 0.117997
v -1.670592 -2.893550 0.009997
v -1.666080 -2.874735 0.118265
v -1.676080 -2.892055 0.010265
v -1.671546 -2.876150 0.118999
v -1.681546 -2.893471 0.010999
v -1.675526 -2.880097 0.120000
v -1.685526 -2.897417 0.012000
v -1.676954 -2.885517 0.121001
v -1.686954 -2.902838 0.013001
v -1.675447 -2.890959 0.121735
v -1.685447 -2.908279 0.013735
v -1.676000 -2.902917 0.023000
v -1.795000 -3.109031 0.023000
v -1.671237 -2.905667 0.021526
v -1.790237 -3.111781 0.021526
v -1.667750 -2.907681 0.017500
v -1.786750 -3.113795 0.017500
v -1.666474 -2.908417 0.012000
v -1.785474 -3.114531 0.012000
v -1.667750 -2.907681 0.006500
v -1.786750 -3.113795 0.006500
v -1.671237 -2.905667 0.002474
v -1.790237 -3.111781 0.002474
v -1.676000 -2.902917 0.001000
v -1.795000 -3.109031 0.001000
v -1.680763 -2.900167 0.002474
v -1.799763 -3.106281 0.002474
v -1.684250 -2.898154 0.006500
v -1.803250 -3.104268 0.006500
v -1.685526 -2.897417 0.012000
v -1.804526 -3.103531 0.012000
v -1.684250 -2.898154 0.017500
v -1.803250 -3.104268 0.017500
v -1.680763 -2.900167 0.021526
v -1.799763 -3.106281 0.021526
v -1.795000 -3.120031 0.012000
v -1.795000 -3.120031 0.100000
v -1.800500 -3.118557 0.012000
v -1.800500 -3.118557 0.100000
v -1.804526 -3.114531 0.012000
v -1.804526 -3.114531 0.100000
v -1.806000 -3.109031 0.012000
v -1.806000 -3.109031 0.100000
v -1.804526 -3.103531 0.012000
v -1.804526 -3.103531 0.100000
v -1.800500 -3.099505 0.012000
v -1.800500 -3.099505 0.100000
v -1.795000 -3.098031 0.012000
v -1.795000 -3.098031 0.100000
v -1.789500 -3.099505 0.012000
v -1.789500 -3.099505 0.100000
v -1.785474 -3.103531 0.012000
v -1.785474 -3.103531 0.100000
v -1.784000 -3.109031 0.012000
v -1.784000 -3.109031 0.100000
v -1.785474 -3.114531 0.012000
v -1.785474 -3.114531 0.100000
v -1.789500 -3.118557 0.012000
v -1.789500 -3.118557 0.100000
vn 0.5000 0.8660 -0.0000
vn 0.8660 -0.5000 -0.0000
vn -0.5000 -0.8660 -0.0000
vn -0.8660 0.5000 -0.0000
vn -0.0000 -0.0000 -1.0000
vn -0.0000 -0.0000 1.0000
vn 0.4330 -0.2500 0.8660
vn 0.4330 -0.2500 -0.8660
vn -0.4330 0.2500 -0.8660
vn -0.4330 0.2500 0.8660
vn -0.2507 -0.9520 0.1759
vn 0.2647 -0.9557 0.1288
vn 0.7093 -0.7033 0.0471
vn 0.9637 -0.2626 -0.0471
vn 0.9600 0.2486 -0.1288
vn 0.6990 0.6931 -0.1759
vn 0.2507 0.9519 -0.1759
vn -0.2647 0.9557 -0.1288
vn -0.7093 0.7034 -0.0471
vn -0.9638 0.2626 0.0471
vn -0.0910 -0.1577 -0.9833
vn -0.9600 -0.2486 0.1288
vn -0.6990 -0.6931 0.1759
vn 0.0910 0.1577 0.9833
vn 0.2241 -0.1294 0.9659
vn 0.6124 -0.3536 0.7071
vn 0.8365 -0.4830 0.2588
vn 0.8365 -0.4830 -0.2588
vn 0.6124 -0.3536 -0.7071
vn 0.2242 -0.1294 -0.9659
vn -0.2241 0.1294 -0.9659
vn -0.6124 0.3536 -0.7071
vn -0.8365 0.4830 -0.2588
vn -0.8365 0.4830 0.2588
vn -0.6124 0.3535 0.7071
vn -0.2241 0.1294 0.9659
vn -0.2588 -0.9659 -0.0000
vn -0.7071 -0.7071 -0.0000
vn -0.9659 -0.2588 -0.0000
vn -0.9659 0.2588 -0.0000
vn -0.7071 0.7071 -0.0000
vn -0.2588 0.9659 -0.0000
vn 0.2588 0.9659 -0.0000
vn 0.7071 0.7071 -0.0000
vn 0.9659 0.2588 -0.0000
vn 0.9659 -0.2588 -0.0000
vn 0.7071 -0.7071 -0.0000
vn 0.2588 -0.9659 -0.0000
vn 0.9638 -0.2625 -0.0471
vn 0.6991 0.6931 -0.1759
vn 0.2507 0.9520 -0.1759
vn -0.7093 0.7033 -0.0471
vn -0.0911 -0.1577 -0.9833
vn -0.9600 -0.2486 0.1287
vn -0.6991 -0.6931 0.1759
vn 0.0911 0.1577 0.9833
vn 0.2241 -0.1294 -0.9659
vn -0.2242 0.1294 -0.9659
vn -0.6124 0.3535 -0.7071
vn -0.5000 -0.8660 0.0001
vn -0.4999 -0.8661 -0.0000
vn -0.5000 -0.8660 -0.0001
vn -0.6124 0.3536 0.7071
vn 0.5000 0.8660 -0.0001
vn 0.5000 0.8661 -0.0000
vn 0.5001 0.8660 -0.0000
vn 0.5000 0.8660 0.0001
s 0
usemtl steel_grey
f 2//1 3//1 1//1
f 4//2 7//2 3//2
f 8//3 5//3 7//3
f 6//4 1//4 5//4
f 3//5 5//5 1//5
f 4//6 6//6 8//6
f 2//1 4//1 3//1
f 4//2 8//2 7//2
f 8//3 6//3 5//3
f 6//4 2//4 1//4
f 3//5 7//5 5//5
f 4//6 2//6 6//6
usemtl bolt_black
f 10//7 11//7 9//7
f 12//2 13//2 11//2
f 13//8 16//8 15//8
f 16//9 17//9 15//9
f 10//3 18//3 14//3
f 18//4 19//4 17//4
f 20//10 9//10 19//10
f 11//1 15//1 19//1
f 10//7 12//7 11//7
f 12//2 14//2 13//2
f 13//8 14//8 16//8
f 16//9 18//9 17//9
f 14//3 12//3 10//3
f 10//3 20//3 18//3
f 18//3 16//3 14//3
f 18//4 20//4 19//4
f 20//10 10//10 9//10
f 19//1 9//1 11//1
f 11//1 13//1 15//1
f 15//1 17//1 19//1
usemtl copper
f 21//11 24//11 23//11
f 24//12 25//12 23//12
f 25//13 28//13 27//13
f 27//14 30//14 29//14
f 29//15 32//15 31//15
f 31//16 34//16 33//16
f 34//17 35//17 33//17
f 35//18 38//18 37//18
f 38//19 39//19 37//19
f 39//20 42//20 41//20
f 42//21 34//21 26//21
f 42//22 43//22 41//22
f 43//23 22//23 21//23
f 27//24 35//24 43//24
f 46//25 47//25 45//25
f 47//26 50//26 49//26
f 49//27 52//27 51//27
f 52//28 53//28 51//28
f 54//29 55//29 53//29
f 56//30 57//30 55//30
f 58//31 59//31 57//31
f 59//32 62//32 61//32
f 62//33 63//33 61//33
f 63//34 66//34 65//34
f 66//3 58//3 50//3
f 66//35 67//35 65//35
f 68//36 45//36 67//36
f 51//1 59//1 67//1
f 70//37 71//37 69//37
f 72//38 73//38 71//38
f 74//39 75//39 73//39
f 76//40 77//40 75//40
f 78//41 79//41 77//41
f 80//42 81//42 79//42
f 82//43 83//43 81//43
f 84//44 85//44 83//44
f 86//45 87//45 85//45
f 88//46 89//46 87//46
f 90//6 82//6 74//6
f 90//47 91//47 89//47
f 92//48 69//48 91//48
f 75//5 83//5 91//5
f 21//11 22//11 24//11
f 24//12 26//12 25//12
f 25//13 26//13 28//13
f 27//49 28//49 30//49
f 29//15 30//15 32//15
f 31//50 32//50 34//50
f 34//51 36//51 35//51
f 35//18 36//18 38//18
f 38//52 40//52 39//52
f 39//20 40//20 42//20
f 26//53 24//53 22//53
f 22//21 44//21 42//21
f 42//21 40//21 38//21
f 38//21 36//21 34//21
f 34//21 32//21 30//21
f 30//21 28//21 26//21
f 26//21 22//21 42//21
f 42//21 38//21 34//21
f 34//21 30//21 26//21
f 42//54 44//54 43//54
f 43//55 44//55 22//55
f 43//24 21//24 23//24
f 23//56 25//56 27//56
f 27//56 29//56 31//56
f 31//24 33//24 35//24
f 35//56 37//56 39//56
f 39//56 41//56 43//56
f 43//24 23//24 27//24
f 27//24 31//24 35//24
f 35//24 39//24 43//24
f 46//25 48//25 47//25
f 47//26 48//26 50//26
f 49//27 50//27 52//27
f 52//28 54//28 53//28
f 54//29 56//29 55//29
f 56//57 58//57 57//57
f 58//58 60//58 59//58
f 59//59 60//59 62//59
f 62//33 64//33 63//33
f 63//34 64//34 66//34
f 50//60 48//60 46//60
f 46//3 68//3 66//3
f 66//61 64//61 62//61
f 62//3 60//3 58//3
f 58//62 56//62 54//62
f 54//61 52//61 50//61
f 50//62 46//62 66//62
f 66//3 62//3 58//3
f 58//3 54//3 50//3
f 66//63 68//63 67//63
f 68//36 46//36 45//36
f 67//64 45//64 47//64
f 47//65 49//65 51//65
f 51//66 53//66 55//66
f 55//67 57//67 59//67
f 59//66 61//66 63//66
f 63//1 65//1 67//1
f 67//67 47//67 51//67
f 51//64 55//64 59//64
f 59//1 63//1 67//1
f 70//37 72//37 71//37
f 72//38 74//38 73//38
f 74//39 76//39 75//39
f 76//40 78//40 77//40
f 78//41 80//41 79//41
f 80//42 82//42 81//42
f 82//43 84//43 83//43
f 84//44 86//44 85//44
f 86//45 88//45 87//45
f 88//46 90//46 89//46
f 74//6 72//6 70//6
f 70//6 92//6 90//6
f 90//6 88//6 86//6
f 86//6 84//6 82//6
f 82//6 80//6 78//6
f 78//6 76//6 74//6
f 74//6 70//6 90//6
f 90//6 86//6 82//6
f 82//6 78//6 74//6
f 90//47 92//47 91//47
f 92//48 70//48 69//48
f 91//5 69//5 71//5
f 71//5 73//5 75//5
f 75//5 77//5 79//5
f 79//5 81//5 83//5
f 83//5 85//5 87//5
f 87//5 89//5 91//5
f 91//5 71//5 75//5
f 75//5 79//5 83//5
f 83//5 87//5 91//5
