# Blender 5.2.2 LTS
# www.blender.org
mtllib extinguisher_present.mtl
o extinguisher_present
v -1.700000 -2.040000 0.350000
v -1.700000 -2.040000 0.950000
v -1.700000 -2.010000 0.350000
v -1.700000 -2.010000 0.950000
v -1.500000 -2.040000 0.350000
v -1.500000 -2.040000 0.950000
v -1.500000 -2.010000 0.350000
v -1.500000 -2.010000 0.950000
v -1.700000 -2.010000 0.750000
v -1.700000 -2.010000 0.780000
v -1.700000 -1.840000 0.750000
v -1.700000 -1.840000 0.780000
v -1.500000 -2.010000 0.750000
v -1.500000 -2.010000 0.780000
v -1.500000 -1.840000 0.750000
v -1.500000 -1.840000 0.780000
v -1.600000 -1.840000 0.370000
v -1.600000 -1.840000 0.870000
v -1.589558 -1.840684 0.370000
v -1.589558 -1.840684 0.870000
v -1.579294 -1.842726 0.370000
v -1.579294 -1.842726 0.870000
v -1.569385 -1.846090 0.370000
v -1.569385 -1.846090 0.870000
v -1.560000 -1.850718 0.370000
v -1.560000 -1.850718 0.870000
v -1.551299 -1.856532 0.370000
v -1.551299 -1.856532 0.870000
v -1.543432 -1.863431 0.370000
v -1.543432 -1.863431 0.870000
v -1.536532 -1.871299 0.370000
v -1.536532 -1.871299 0.870000
v -1.530718 -1.880000 0.370000
v -1.530718 -1.880000 0.870000
v -1.526090 -1.889385 0.370000
v -1.526090 -1.889385 0.870000
v -1.522726 -1.899294 0.370000
v -1.522726 -1.899294 0.870000
v -1.520684 -1.909558 0.370000
v -1.520684 -1.909558 0.870000
v -1.520000 -1.920000 0.370000
v -1.520000 -1.920000 0.870000
v -1.520684 -1.930442 0.370000
v -1.520684 -1.930442 0.870000
v -1.522726 -1.940706 0.370000
v -1.522726 -1.940706 0.870000
v -1.526090 -1.950615 0.370000
v -1.526090 -1.950615 0.870000
v -1.530718 -1.960000 0.370000
v -1.530718 -1.960000 0.870000
v -1.536532 -1.968701 0.370000
v -1.536532 -1.968701 0.870000
v -1.543432 -1.976568 0.370000
v -1.543432 -1.976568 0.870000
v -1.551299 -1.983468 0.370000
v -1.551299 -1.983468 0.870000
v -1.560000 -1.989282 0.370000
v -1.560000 -1.989282 0.870000
v -1.569385 -1.993910 0.370000
v -1.569385 -1.993910 0.870000
v -1.579294 -1.997274 0.370000
v -1.579294 -1.997274 0.870000
v -1.589558 -1.999316 0.370000
v -1.589558 -1.999316 0.870000
v -1.600000 -2.000000 0.370000
v -1.600000 -2.000000 0.870000
v -1.610442 -1.999316 0.370000
v -1.610442 -1.999316 0.870000
v -1.620706 -1.997274 0.370000
v -1.620706 -1.997274 0.870000
v -1.630615 -1.993910 0.370000
v -1.630615 -1.993910 0.870000
v -1.640000 -1.989282 0.370000
v -1.640000 -1.989282 0.870000
v -1.648701 -1.983468 0.370000
v -1.648701 -1.983468 0.870000
v -1.656569 -1.976568 0.370000
v -1.656569 -1.976568 0.870000
v -1.663468 -1.968701 0.370000
v -1.663468 -1.968701 0.870000
v -1.669282 -1.960000 0.370000
v -1.669282 -1.960000 0.870000
v -1.673910 -1.950615 0.370000
v -1.673910 -1.950615 0.870000
v -1.677274 -1.940706 0.370000
v -1.677274 -1.940706 0.870000
v -1.679316 -1.930442 0.370000
v -1.679316 -1.930442 0.870000
v -1.680000 -1.920000 0.370000
v -1.680000 -1.920000 0.870000
v -1.679316 -1.909558 0.370000
v -1.679316 -1.909558 0.870000
v -1.677274 -1.899294 0.370000
v -1.677274 -1.899294 0.870000
v -1.673910 -1.889385 0.370000
v -1.673910 -1.889385 0.870000
v -1.669282 -1.880000 0.370000
v -1.669282 -1.880000 0.870000
v -1.663468 -1.871299 0.370000
v -1.663468 -1.871299 0.870000
v -1.656569 -1.863431 0.370000
v -1.656569 -1.863431 0.870000
v -1.648701 -1.856532 0.370000
v -1.648701 -1.856532 0.870000
v -1.640000 -1.850718 0.370000
v -1.640000 -1.850718 0.870000
v -1.630615 -1.846090 0.370000
v -1.630615 -1.846090 0.870000
v -1.620706 -1.842726 0.370000
v -1.620706 -1.842726 0.870000
v -1.610442 -1.840684 0.370000
v -1.610442 -1.840684 0.870000
v -1.600000 -1.890000 0.870000
v -1.600000 -1.890000 0.950000
v -1.596084 -1.890257 0.870000
v -1.596084 -1.890257 0.950000
v -1.592235 -1.891022 0.870000
v -1.592235 -1.891022 0.950000
v -1.588520 -1.892284 0.870000
v -1.588520 -1.892284 0.950000
v -1.585000 -1.894019 0.870000
v -1.585000 -1.894019 0.950000
v -1.581737 -1.896199 0.870000
v -1.581737 -1.896199 0.950000
v -1.578787 -1.898787 0.870000
v -1.578787 -1.898787 0.950000
v -1.576199 -1.901737 0.870000
v -1.576199 -1.901737 0.950000
v -1.574019 -1.905000 0.870000
v -1.574019 -1.905000 0.950000
v -1.572284 -1.908520 0.870000
v -1.572284 -1.908520 0.950000
v -1.571022 -1.912235 0.870000
v -1.571022 -1.912235 0.950000
v -1.570257 -1.916084 0.870000
v -1.570257 -1.916084 0.950000
v -1.570000 -1.920000 0.870000
v -1.570000 -1.920000 0.950000
v -1.570257 -1.923916 0.870000
v -1.570257 -1.923916 0.950000
v -1.571022 -1.927765 0.870000
v -1.571022 -1.927765 0.950000
v -1.572284 -1.931480 0.870000
v -1.572284 -1.931480 0.950000
v -1.574019 -1.935000 0.870000
v -1.574019 -1.935000 0.950000
v -1.576199 -1.938263 0.870000
v -1.576199 -1.938263 0.950000
v -1.578787 -1.941213 0.870000
v -1.578787 -1.941213 0.950000
v -1.581737 -1.943801 0.870000
v -1.581737 -1.943801 0.950000
v -1.585000 -1.945981 0.870000
v -1.585000 -1.945981 0.950000
v -1.588520 -1.947716 0.870000
v -1.588520 -1.947716 0.950000
v -1.592235 -1.948978 0.870000
v -1.592235 -1.948978 0.950000
v -1.596084 -1.949743 0.870000
v -1.596084 -1.949743 0.950000
v -1.600000 -1.950000 0.870000
v -1.600000 -1.950000 0.950000
v -1.603916 -1.949743 0.870000
v -1.603916 -1.949743 0.950000
v -1.607765 -1.948978 0.870000
v -1.607765 -1.948978 0.950000
v -1.611480 -1.947716 0.870000
v -1.611480 -1.947716 0.950000
v -1.615000 -1.945981 0.870000
v -1.615000 -1.945981 0.950000
v -1.618263 -1.943801 0.870000
v -1.618263 -1.943801 0.950000
v -1.621213 -1.941213 0.870000
v -1.621213 -1.941213 0.950000
v -1.623801 -1.938263 0.870000
v -1.623801 -1.938263 0.950000
v -1.625981 -1.935000 0.870000
v -1.625981 -1.935000 0.950000
v -1.627716 -1.931480 0.870000
v -1.627716 -1.931480 0.950000
v -1.628978 -1.927765 0.870000
v -1.628978 -1.927765 0.950000
v -1.629743 -1.923916 0.870000
v -1.629743 -1.923916 0.950000
v -1.630000 -1.920000 0.870000
v -1.630000 -1.920000 0.950000
v -1.629743 -1.916084 0.870000
v -1.629743 -1.916084 0.950000
v -1.628978 -1.912235 0.870000
v -1.628978 -1.912235 0.950000
v -1.627716 -1.908520 0.870000
v -1.627716 -1.908520 0.950000
v -1.625981 -1.905000 0.870000
v -1.625981 -1.905000 0.950000
v -1.623801 -1.901737 0.870000
v -1.623801 -1.901737 0.950000
v -1.621213 -1.898787 0.870000
v -1.621213 -1.898787 0.950000
v -1.618263 -1.896199 0.870000
v -1.618263 -1.896199 0.950000
v -1.615000 -1.894019 0.870000
v -1.615000 -1.894019 0.950000
v -1.611480 -1.892284 0.870000
v -1.611480 -1.892284 0.950000
v -1.607765 -1.891022 0.870000
v -1.607765 -1.891022 0.950000
v -1.603916 -1.890257 0.870000
v -1.603916 -1.890257 0.950000
v -1.565622 -1.911243 0.932036
v -1.525622 -1.831243 0.502037
v -1.570680 -1.910180 0.931764
v -1.530680 -1.830180 0.501764
v -1.575557 -1.911749 0.931018
v -1.535557 -1.831749 0.501018
v -1.578944 -1.915528 0.930000
v -1.538944 -1.835528 0.500000
v -1.579935 -1.920505 0.928982
v -1.539935 -1.840505 0.498982
v -1.578264 -1.925348 0.928236
v -1.538264 -1.845348 0.498236
v -1.574378 -1.928757 0.927964
v -1.534378 -1.848757 0.497964
v -1.569320 -1.929820 0.928236
v -1.529320 -1.849820 0.498236
v -1.564443 -1.928251 0.928982
v -1.524443 -1.848251 0.498982
v -1.561056 -1.924472 0.930000
v -1.521056 -1.844472 0.500000
v -1.560065 -1.919495 0.931018
v -1.520065 -1.839495 0.501018
v -1.561736 -1.914652 0.931764
v -1.521736 -1.834652 0.501764
vn -1.0000 -0.0000 -0.0000
vn -0.0000 1.0000 -0.0000
vn 1.0000 -0.0000 -0.0000
vn -0.0000 -1.0000 -0.0000
vn -0.0000 -0.0000 -1.0000
vn -0.0000 -0.0000 1.0000
vn 0.0654 0.9979 -0.0000
vn 0.1951 0.9808 -0.0000
vn 0.3214 0.9469 -0.0000
vn 0.4423 0.8969 -0.0000
vn 0.5556 0.8315 -0.0000
vn 0.6593 0.7518 -0.0000
vn 0.7518 0.6593 -0.0000
vn 0.8315 0.5556 -0.0000
vn 0.8969 0.4423 -0.0000
vn 0.9469 0.3214 -0.0000
vn 0.9808 0.1951 -0.0000
vn 0.9979 0.0654 -0.0000
vn 0.9979 -0.0654 -0.0000
vn 0.9808 -0.1951 -0.0000
vn 0.9469 -0.3214 -0.0000
vn 0.8969 -0.4423 -0.0000
vn 0.8315 -0.5556 -0.0000
vn 0.7518 -0.6593 -0.0000
vn 0.6593 -0.7518 -0.0000
vn 0.5556 -0.8315 -0.0000
vn 0.4423 -0.8969 -0.0000
vn 0.3214 -0.9469 -0.0000
vn 0.1951 -0.9808 -0.0000
vn 0.0654 -0.9979 -0.0000
vn -0.0654 -0.9979 -0.0000
vn -0.1951 -0.9808 -0.0000
vn -0.3214 -0.9469 -0.0000
vn -0.4423 -0.8969 -0.0000
vn -0.5556 -0.8315 -0.0000
vn -0.6593 -0.7518 -0.0000
vn -0.7518 -0.6593 -0.0000
vn -0.8315 -0.5556 -0.0000
vn -0.8969 -0.4423 -0.0000
vn -0.9469 -0.3214 -0.0000
vn -0.9808 -0.1951 -0.0000
vn -0.9979 -0.0654 -0.0000
vn -0.9979 0.0654 -0.0000
vn -0.9808 0.1951 -0.0000
vn -0.9469 0.3214 -0.0000
vn -0.8969 0.4423 -0.0000
vn -0.8315 0.5556 -0.0000
vn -0.7518 0.6593 -0.0000
vn -0.6593 0.7518 -0.0000
vn -0.5556 0.8315 -0.0000
vn -0.4423 0.8969 -0.0000
vn -0.3214 0.9469 -0.0000
vn -0.1951 0.9808 -0.0000
vn -0.0654 0.9979 -0.0000
vn 0.1914 0.9616 0.1967
vn -0.3229 0.9354 0.1440
vn -0.7506 0.6586 0.0527
vn -0.9773 0.2053 -0.0527
vn -0.9421 -0.3030 -0.1440
vn -0.6544 -0.7301 -0.1967
vn -0.1914 -0.9616 -0.1967
vn 0.3229 -0.9354 -0.1440
vn 0.7506 -0.6586 -0.0527
vn 0.9773 -0.2053 0.0527
vn 0.0911 0.1821 -0.9790
vn 0.9421 0.3030 0.1440
vn 0.6544 0.7301 0.1967
vn -0.0911 -0.1821 0.9790
vn -0.0001 -0.0000 1.0000
vn 0.0001 -0.0000 1.0000
vn 0.0001 -0.0000 -1.0000
vn -0.0001 -0.0000 -1.0000
vn 0.0911 0.1822 -0.9790
s 0
usemtl steel_grey
f 2//1 3//1 1//1
f 4//2 7//2 3//2
f 8//3 5//3 7//3
f 6//4 1//4 5//4
f 7//5 1//5 3//5
f 4//6 6//6 8//6
f 2//1 4//1 3//1
f 4//2 8//2 7//2
f 8//3 6//3 5//3
f 6//4 2//4 1//4
f 7//5 5//5 1//5
f 4//6 2//6 6//6
usemtl bolt_black
f 10//1 11//1 9//1
f 12//2 15//2 11//2
f 16//3 13//3 15//3
f 14//4 9//4 13//4
f 15//5 9//5 11//5
f 12//6 14//6 16//6
f 114//7 115//7 113//7
f 116//8 117//8 115//8
f 118//9 119//9 117//9
f 120//10 121//10 119//10
f 122//11 123//11 121//11
f 124//12 125//12 123//12
f 126//13 127//13 125//13
f 128//14 129//14 127//14
f 130//15 131//15 129//15
f 132//16 133//16 131//16
f 134//17 135//17 133//17
f 136//18 137//18 135//18
f 138//19 139//19 137//19
f 140//20 141//20 139//20
f 142//21 143//21 141//21
f 144//22 145//22 143//22
f 146//23 147//23 145//23
f 148//24 149//24 147//24
f 150//25 151//25 149//25
f 152//26 153//26 151//26
f 154//27 155//27 153//27
f 156//28 157//28 155//28
f 158//29 159//29 157//29
f 160//30 161//30 159//30
f 162//31 163//31 161//31
f 164//32 165//32 163//32
f 166//33 167//33 165//33
f 168//34 169//34 167//34
f 170//35 171//35 169//35
f 172//36 173//36 171//36
f 174//37 175//37 173//37
f 176//38 177//38 175//38
f 178//39 179//39 177//39
f 180//40 181//40 179//40
f 182//41 183//41 181//41
f 184//42 185//42 183//42
f 186//43 187//43 185//43
f 188//44 189//44 187//44
f 190//45 191//45 189//45
f 192//46 193//46 191//46
f 194//47 195//47 193//47
f 196//48 197//48 195//48
f 198//49 199//49 197//49
f 200//50 201//50 199//50
f 202//51 203//51 201//51
f 204//52 205//52 203//52
f 182//6 150//6 118//6
f 206//53 207//53 205//53
f 208//54 113//54 207//54
f 143//5 175//5 207//5
f 10//1 12//1 11//1
f 12//2 16//2 15//2
f 16//3 14//3 13//3
f 14//4 10//4 9//4
f 15//5 13//5 9//5
f 12//6 10//6 14//6
f 114//7 116//7 115//7
f 116//8 118//8 117//8
f 118//9 120//9 119//9
f 120//10 122//10 121//10
f 122//11 124//11 123//11
f 124//12 126//12 125//12
f 126//13 128//13 127//13
f 128//14 130//14 129//14
f 130//15 132//15 131//15
f 132//16 134//16 133//16
f 134//17 136//17 135//17
f 136//18 138//18 137//18
f 138//19 140//19 139//19
f 140//20 142//20 141//20
f 142//21 144//21 143//21
f 144//22 146//22 145//22
f 146//23 148//23 147//23
f 148//24 150//24 149//24
f 150//25 152//25 151//25
f 152//26 154//26 153//26
f 154//27 156//27 155//27
f 156//28 158//28 157//28
f 158//29 160//29 159//29
f 160//30 162//30 161//30
f 162//31 164//31 163//31
f 164//32 166//32 165//32
f 166//33 168//33 167//33
f 168//34 170//34 169//34
f 170//35 172//35 171//35
f 172//36 174//36 173//36
f 174//37 176//37 175//37
f 176//38 178//38 177//38
f 178//39 180//39 179//39
f 180//40 182//40 181//40
f 182//41 184//41 183//41
f 184//42 186//42 185//42
f 186//43 188//43 187//43
f 188//44 190//44 189//44
f 190//45 192//45 191//45
f 192//46 194//46 193//46
f 194//47 196//47 195//47
f 196//48 198//48 197//48
f 198//49 200//49 199//49
f 200//50 202//50 201//50
f 202//51 204//51 203//51
f 204//52 206//52 205//52
f 118//6 116//6 114//6
f 114//6 208//6 206//6
f 206//6 204//6 202//6
f 202//69 200//69 198//69
f 198//6 196//6 194//6
f 194//6 192//6 190//6
f 190//6 188//6 186//6
f 186//6 184//6 182//6
f 182//6 180//6 178//6
f 178//69 176//69 174//69
f 174//69 172//69 170//69
f 170//6 168//6 166//6
f 166//6 164//6 162//6
f 162//6 160//6 158//6
f 158//6 156//6 154//6
f 154//70 152//70 150//70
f 150//6 148//6 146//6
f 146//6 144//6 142//6
f 142//6 140//6 138//6
f 138//6 136//6 134//6
f 134//6 132//6 130//6
f 130//70 128//70 126//70
f 126//70 124//70 122//70
f 122//6 120//6 118//6
f 118//6 114//6 206//6
f 206//6 202//6 198//6
f 198//6 194//6 190//6
f 190//6 186//6 182//6
f 182//6 178//6 174//6
f 174//6 170//6 166//6
f 166//6 162//6 158//6
f 158//6 154//6 150//6
f 150//6 146//6 142//6
f 142//6 138//6 134//6
f 134//6 130//6 126//6
f 126//6 122//6 118//6
f 118//6 206//6 198//6
f 198//6 190//6 182//6
f 182//6 174//6 166//6
f 166//6 158//6 150//6
f 150//6 142//6 134//6
f 134//6 126//6 118//6
f 118//6 198//6 182//6
f 182//6 166//6 150//6
f 150//6 134//6 118//6
f 206//53 208//53 207//53
f 208//54 114//54 113//54
f 207//5 113//5 115//5
f 115//5 117//5 119//5
f 119//5 121//5 123//5
f 123//5 125//5 127//5
f 127//5 129//5 131//5
f 131//71 133//71 135//71
f 135//5 137//5 139//5
f 139//71 141//71 143//71
f 143//5 145//5 147//5
f 147//5 149//5 151//5
f 151//5 153//5 155//5
f 155//5 157//5 159//5
f 159//5 161//5 163//5
f 163//5 165//5 167//5
f 167//5 169//5 171//5
f 171//5 173//5 175//5
f 175//5 177//5 179//5
f 179//72 181//72 183//72
f 183//5 185//5 187//5
f 187//72 189//72 191//72
f 191//5 193//5 195//5
f 195//5 197//5 199//5
f 199//5 201//5 203//5
f 203//5 205//5 207//5
f 207//5 115//5 119//5
f 119//5 123//5 127//5
f 127//5 131//5 135//5
f 135//5 139//5 143//5
f 143//5 147//5 151//5
f 151//5 155//5 159//5
f 159//5 163//5 167//5
f 167//5 171//5 175//5
f 175//5 179//5 183//5
f 183//5 187//5 191//5
f 191//5 195//5 199//5
f 199//5 203//5 207//5
f 207//5 119//5 127//5
f 127//5 135//5 143//5
f 143//5 151//5 159//5
f 159//5 167//5 175//5
f 175//5 183//5 191//5
f 191//5 199//5 207//5
f 207//5 127//5 143//5
f 143//5 159//5 175//5
f 175//5 191//5 207//5
usemtl alarm_red
f 18//7 19//7 17//7
f 20//8 21//8 19//8
f 22//9 23//9 21//9
f 24//10 25//10 23//10
f 26//11 27//11 25//11
f 28//12 29//12 27//12
f 30//13 31//13 29//13
f 32//14 33//14 31//14
f 34//15 35//15 33//15
f 36//16 37//16 35//16
f 38//17 39//17 37//17
f 40//18 41//18 39//18
f 42//19 43//19 41//19
f 44//20 45//20 43//20
f 46//21 47//21 45//21
f 48//22 49//22 47//22
f 50//23 51//23 49//23
f 52//24 53//24 51//24
f 54//25 55//25 53//25
f 56//26 57//26 55//26
f 58//27 59//27 57//27
f 60//28 61//28 59//28
f 62//29 63//29 61//29
f 64//30 65//30 63//30
f 66//31 67//31 65//31
f 68//32 69//32 67//32
f 70//33 71//33 69//33
f 72//34 73//34 71//34
f 74//35 75//35 73//35
f 76//36 77//36 75//36
f 78//37 79//37 77//37
f 80//38 81//38 79//38
f 82//39 83//39 81//39
f 84//40 85//40 83//40
f 86//41 87//41 85//41
f 88//42 89//42 87//42
f 90//43 91//43 89//43
f 92//44 93//44 91//44
f 94//45 95//45 93//45
f 96//46 97//46 95//46
f 98//47 99//47 97//47
f 100//48 101//48 99//48
f 102//49 103//49 101//49
f 104//50 105//50 103//50
f 106//51 107//51 105//51
f 108//52 109//52 107//52
f 86//6 54//6 22//6
f 110//53 111//53 109//53
f 112//54 17//54 111//54
f 47//5 79//5 111//5
f 18//7 20//7 19//7
f 20//8 22//8 21//8
f 22//9 24//9 23//9
f 24//10 26//10 25//10
f 26//11 28//11 27//11
f 28//12 30//12 29//12
f 30//13 32//13 31//13
f 32//14 34//14 33//14
f 34//15 36//15 35//15
f 36//16 38//16 37//16
f 38//17 40//17 39//17
f 40//18 42//18 41//18
f 42//19 44//19 43//19
f 44//20 46//20 45//20
f 46//21 48//21 47//21
f 48//22 50//22 49//22
f 50//23 52//23 51//23
f 52//24 54//24 53//24
f 54//25 56//25 55//25
f 56//26 58//26 57//26
f 58//27 60//27 59//27
f 60//28 62//28 61//28
f 62//29 64//29 63//29
f 64//30 66//30 65//30
f 66//31 68//31 67//31
f 68//32 70//32 69//32
f 70//33 72//33 71//33
f 72//34 74//34 73//34
f 74//35 76//35 75//35
f 76//36 78//36 77//36
f 78//37 80//37 79//37
f 80//38 82//38 81//38
f 82//39 84//39 83//39
f 84//40 86//40 85//40
f 86//41 88//41 87//41
f 88//42 90//42 89//42
f 90//43 92//43 91//43
f 92//44 94//44 93//44
f 94//45 96//45 95//45
f 96//46 98//46 97//46
f 98//47 100//47 99//47
f 100//48 102//48 101//48
f 102//49 104//49 103//49
f 104//50 106//50 105//50
f 106//51 108//51 107//51
f 108//52 110//52 109//52
f 22//6 20//6 18//6
f 18//6 112//6 110//6
f 110//6 108//6 106//6
f 106//6 104//6 102//6
f 102//6 100//6 98//6
f 98//6 96//6 94//6
f 94//6 92//6 90//6
f 90//6 88//6 86//6
f 86//6 84//6 82//6
f 82//6 80//6 78//6
f 78//6 76//6 74//6
f 74//6 72//6 70//6
f 70//6 68//6 66//6
f 66//6 64//6 62//6
f 62//6 60//6 58//6
f 58//6 56//6 54//6
f 54//6 52//6 50//6
f 50//6 48//6 46//6
f 46//6 44//6 42//6
f 42//6 40//6 38//6
f 38//6 36//6 34//6
f 34//6 32//6 30//6
f 30//6 28//6 26//6
f 26//6 24//6 22//6
f 22//6 18//6 110//6
f 110//6 106//6 102//6
f 102//6 98//6 94//6
f 94//6 90//6 86//6
f 86//6 82//6 78//6
f 78//6 74//6 70//6
f 70//6 66//6 62//6
f 62//6 58//6 54//6
f 54//6 50//6 46//6
f 46//6 42//6 38//6
f 38//6 34//6 30//6
f 30//6 26//6 22//6
f 22//6 110//6 102//6
f 102//6 94//6 86//6
f 86//6 78//6 70//6
f 70//6 62//6 54//6
f 54//6 46//6 38//6
f 38//6 30//6 22//6
f 22//6 102//6 86//6
f 86//6 70//6 54//6
f 54//6 38//6 22//6
f 110//53 112//53 111//53
f 112//54 18//54 17//54
f 111//5 17//5 19//5
f 19//5 21//5 23//5
f 23//5 25//5 27//5
f 27//5 29//5 31//5
f 31//5 33//5 35//5
f 35//5 37//5 39//5
f 39//5 41//5 43//5
f 43//5 45//5 47//5
f 47//5 49//5 51//5
f 51//5 53//5 55//5
f 55//5 57//5 59//5
f 59//5 61//5 63//5
f 63//5 65//5 67//5
f 67//5 69//5 71//5
f 71//5 73//5 75//5
f 75//5 77//5 79//5
f 79//5 81//5 83//5
f 83//5 85//5 87//5
f 87//5 89//5 91//5
f 91//5 93//5 95//5
f 95//5 97//5 99//5
f 99//5 101//5 103//5
f 103//5 105//5 107//5
f 107//5 109//5 111//5
f 111//5 19//5 23//5
f 23//5 27//5 31//5
f 31//5 35//5 39//5
f 39//5 43//5 47//5
f 47//5 51//5 55//5
f 55//5 59//5 63//5
f 63//5 67//5 71//5
f 71//5 75//5 79//5
f 79//5 83//5 87//5
f 87//5 91//5 95//5
f 95//5 99//5 103//5
f 103//5 107//5 111//5
f 111//5 23//5 31//5
f 31//5 39//5 47//5
f 47//5 55//5 63//5
f 63//5 71//5 79//5
f 79//5 87//5 95//5
f 95//5 103//5 111//5
f 111//5 31//5 47//5
f 47//5 63//5 79//5
f 79//5 95//5 111//5
usemtl rubber
f 210//55 211//55 209//55
f 212//56 213//56 211//56
f 213//57 216//57 215//57
f 216//58 217//58 215//58
f 218//59 219//59 217//59
f 220//60 221//60 219//60
f 221//61 224//61 223//61
f 223//62 226//62 225//62
f 225//63 228//63 227//63
f 228//64 229//64 227//64
f 230//65 222//65 214//65
f 229//66 232//66 231//66
f 232//67 209//67 231//67
f 215//68 223//68 231//68
f 210//55 212//55 211//55
f 212//56 214//56 213//56
f 213//57 214//57 216//57
f 216//58 218//58 217//58
f 218//59 220//59 219//59
f 220//60 222//60 221//60
f 221//61 222//61 224//61
f 223//62 224//62 226//62
f 225//63 226//63 228//63
f 228//64 230//64 229//64
f 214//73 212//73 210//73
f 210//73 232//73 230//73
f 230//65 228//65 226//65
f 226//73 224//73 222//73
f 222//73 220//73 218//73
f 218//65 216//65 214//65
f 214//65 210//65 230//65
f 230//65 226//65 222//65
f 222//65 218//65 214//65
f 229//66 230//66 232//66
f 232//67 210//67 209//67
f 231//68 209//68 211//68
f 211//68 213//68 215//68
f 215//68 217//68 219//68
f 219//68 221//68 223//68
f 223//68 225//68 227//68
f 227//68 229//68 231//68
f 231//68 211//68 215//68
f 215//68 219//68 223//68
f 223//68 227//68 231//68
