# Blender 5.2.2 LTS
# www.blender.org
mtllib fault_oil_puddle.mtl
o fault_oil_puddle
v 0.000000 0.307590 0.000000
v 0.000000 0.307590 0.003000
v 0.039670 0.309829 0.000000
v 0.039670 0.309829 0.003000
v 0.080910 0.312896 0.000000
v 0.080910 0.312896 0.003000
v 0.124174 0.314881 0.000000
v 0.124174 0.314881 0.003000
v 0.168946 0.313748 0.000000
v 0.168946 0.313748 0.003000
v 0.213941 0.307889 0.000000
v 0.213941 0.307889 0.003000
v 0.257555 0.296506 0.000000
v 0.257555 0.296506 0.003000
v 0.298406 0.279699 0.000000
v 0.298406 0.279699 0.003000
v 0.335748 0.258268 0.000000
v 0.335748 0.258268 0.003000
v 0.369593 0.233321 0.000000
v 0.369593 0.233321 0.003000
v 0.400509 0.205855 0.000000
v 0.400509 0.205855 0.003000
v 0.429150 0.176450 0.000000
v 0.429150 0.176450 0.003000
v 0.455710 0.145201 0.000000
v 0.455710 0.145201 0.003000
v 0.479506 0.111890 0.000000
v 0.479506 0.111890 0.003000
v 0.498872 0.076332 0.000000
v 0.498872 0.076332 0.003000
v 0.511437 0.038748 0.000000
v 0.511437 0.038748 0.003000
v 0.514731 0.000000 0.000000
v 0.514731 0.000000 0.003000
v 0.506941 -0.038407 0.000000
v 0.506941 -0.038407 0.003000
v 0.487572 -0.074603 0.000000
v 0.487572 -0.074603 0.003000
v 0.457792 -0.106823 0.000000
v 0.457792 -0.106823 0.003000
v 0.420330 -0.133928 0.000000
v 0.420330 -0.133928 0.003000
v 0.378923 -0.155799 0.000000
v 0.378923 -0.155799 0.003000
v 0.337462 -0.173450 0.000000
v 0.337462 -0.173450 0.003000
v 0.299083 -0.188809 0.000000
v 0.299083 -0.188809 0.003000
v 0.265461 -0.204201 0.000000
v 0.265461 -0.204201 0.003000
v 0.236517 -0.221690 0.000000
v 0.236517 -0.221690 0.003000
v 0.210608 -0.242459 0.000000
v 0.210608 -0.242459 0.003000
v 0.185133 -0.266430 0.000000
v 0.185133 -0.266430 0.003000
v 0.157359 -0.292230 0.000000
v 0.157359 -0.292230 0.003000
v 0.125217 -0.317527 0.000000
v 0.125217 -0.317527 0.003000
v 0.087822 -0.339623 0.000000
v 0.087822 -0.339623 0.003000
v 0.045598 -0.356130 0.000000
v 0.045598 -0.356130 0.003000
v 0.000000 -0.365529 0.000000
v 0.000000 -0.365529 0.003000
v -0.047048 -0.367453 0.000000
v -0.047048 -0.367453 0.003000
v -0.093768 -0.362617 0.000000
v -0.093768 -0.362617 0.003000
v -0.138992 -0.352458 0.000000
v -0.138992 -0.352458 0.003000
v -0.182325 -0.338593 0.000000
v -0.182325 -0.338593 0.003000
v -0.223963 -0.322311 0.000000
v -0.223963 -0.322311 0.003000
v -0.264267 -0.304234 0.000000
v -0.264267 -0.304234 0.003000
v -0.303275 -0.284263 0.000000
v -0.303275 -0.284263 0.003000
v -0.340345 -0.261804 0.000000
v -0.340345 -0.261804 0.003000
v -0.374098 -0.236165 0.000000
v -0.374098 -0.236165 0.003000
v -0.402692 -0.206977 0.000000
v -0.402692 -0.206977 0.003000
v -0.424355 -0.174479 0.000000
v -0.424355 -0.174479 0.003000
v -0.437993 -0.139556 0.000000
v -0.437993 -0.139556 0.003000
v -0.443645 -0.103522 0.000000
v -0.443645 -0.103522 0.003000
v -0.442626 -0.067726 0.000000
v -0.442626 -0.067726 0.003000
v -0.437249 -0.033127 0.000000
v -0.437249 -0.033127 0.003000
v -0.430215 0.000000 0.000000
v -0.430215 0.000000 0.003000
v -0.423828 0.032110 0.000000
v -0.423828 0.032110 0.003000
v -0.419291 0.064155 0.000000
v -0.419291 0.064155 0.003000
v -0.416299 0.097141 0.000000
v -0.416299 0.097141 0.003000
v -0.413087 0.131620 0.000000
v -0.413087 0.131620 0.003000
v -0.406913 0.167307 0.000000
v -0.406913 0.167307 0.003000
v -0.394851 0.202947 0.000000
v -0.394851 0.202947 0.003000
v -0.374645 0.236510 0.000000
v -0.374645 0.236510 0.003000
v -0.345380 0.265677 0.000000
v -0.345380 0.265677 0.003000
v -0.307747 0.288454 0.000000
v -0.307747 0.288454 0.003000
v -0.263848 0.303751 0.000000
v -0.263848 0.303751 0.003000
v -0.216601 0.311717 0.000000
v -0.216601 0.311717 0.003000
v -0.168941 0.313738 0.000000
v -0.168941 0.313738 0.003000
v -0.123066 0.312073 0.000000
v -0.123066 0.312073 0.003000
v -0.079967 0.309247 0.000000
v -0.079967 0.309247 0.003000
v -0.039355 0.307371 0.000000
v -0.039355 0.307371 0.003000
vn -0.0564 0.9984 -0.0000
vn -0.0741 0.9972 -0.0000
vn -0.0458 0.9989 -0.0000
vn 0.0253 0.9997 -0.0000
vn 0.1291 0.9916 -0.0000
vn 0.2525 0.9676 -0.0000
vn 0.3805 0.9248 -0.0000
vn 0.4978 0.8673 -0.0000
vn 0.5933 0.8050 -0.0000
vn 0.6642 0.7476 -0.0000
vn 0.7163 0.6977 -0.0000
vn 0.7620 0.6476 -0.0000
vn 0.8137 0.5813 -0.0000
vn 0.8782 0.4783 -0.0000
vn 0.9484 0.3171 -0.0000
vn 0.9964 0.0847 -0.0000
vn 0.9800 -0.1988 -0.0000
vn 0.8817 -0.4718 -0.0000
vn 0.7344 -0.6788 -0.0000
vn 0.5862 -0.8102 -0.0000
vn 0.4670 -0.8842 -0.0000
vn 0.3917 -0.9201 -0.0000
vn 0.3715 -0.9284 -0.0000
vn 0.4163 -0.9092 -0.0000
vn 0.5172 -0.8559 -0.0000
vn 0.6255 -0.7803 -0.0000
vn 0.6853 -0.7283 -0.0000
vn 0.6806 -0.7327 -0.0000
vn 0.6185 -0.7858 -0.0000
vn 0.5087 -0.8609 -0.0000
vn 0.3641 -0.9314 -0.0000
vn 0.2019 -0.9794 -0.0000
vn 0.0409 -0.9992 -0.0000
vn -0.1029 -0.9947 -0.0000
vn -0.2192 -0.9757 -0.0000
vn -0.3047 -0.9524 -0.0000
vn -0.3642 -0.9313 -0.0000
vn -0.4092 -0.9124 -0.0000
vn -0.4557 -0.8901 -0.0000
vn -0.5182 -0.8553 -0.0000
vn -0.6049 -0.7963 -0.0000
vn -0.7143 -0.6998 -0.0000
vn -0.8321 -0.5547 -0.0000
vn -0.9315 -0.3637 -0.0000
vn -0.9879 -0.1550 -0.0000
vn -0.9996 0.0285 -0.0000
vn -0.9881 0.1536 -0.0000
vn -0.9782 0.2077 -0.0000
vn -0.9808 0.1951 -0.0000
vn -0.9901 0.1402 -0.0000
vn -0.9959 0.0903 -0.0000
vn -0.9957 0.0927 -0.0000
vn -0.9854 0.1705 -0.0000
vn -0.9472 0.3206 -0.0000
vn -0.8567 0.5158 -0.0000
vn -0.7059 0.7083 -0.0000
vn -0.5178 0.8555 -0.0000
vn -0.3291 0.9443 -0.0000
vn -0.1663 0.9861 -0.0000
vn -0.0424 0.9991 -0.0000
vn 0.0363 0.9993 -0.0000
vn 0.0654 0.9979 -0.0000
vn -0.0000 -0.0000 1.0000
vn 0.0462 0.9989 -0.0000
vn -0.0056 1.0000 -0.0000
vn -0.0000 -0.0000 -1.0000
vn -0.0001 -0.0000 -1.0000
s 0
usemtl oil
f 2//1 3//1 1//1
f 4//2 5//2 3//2
f 6//3 7//3 5//3
f 8//4 9//4 7//4
f 10//5 11//5 9//5
f 12//6 13//6 11//6
f 14//7 15//7 13//7
f 16//8 17//8 15//8
f 18//9 19//9 17//9
f 20//10 21//10 19//10
f 22//11 23//11 21//11
f 24//12 25//12 23//12
f 26//13 27//13 25//13
f 28//14 29//14 27//14
f 30//15 31//15 29//15
f 32//16 33//16 31//16
f 34//17 35//17 33//17
f 36//18 37//18 35//18
f 38//19 39//19 37//19
f 40//20 41//20 39//20
f 42//21 43//21 41//21
f 44//22 45//22 43//22
f 46//23 47//23 45//23
f 48//24 49//24 47//24
f 50//25 51//25 49//25
f 52//26 53//26 51//26
f 54//27 55//27 53//27
f 56//28 57//28 55//28
f 58//29 59//29 57//29
f 60//30 61//30 59//30
f 62//31 63//31 61//31
f 64//32 65//32 63//32
f 66//33 67//33 65//33
f 68//34 69//34 67//34
f 70//35 71//35 69//35
f 72//36 73//36 71//36
f 74//37 75//37 73//37
f 76//38 77//38 75//38
f 78//39 79//39 77//39
f 80//40 81//40 79//40
f 82//41 83//41 81//41
f 84//42 85//42 83//42
f 86//43 87//43 85//43
f 88//44 89//44 87//44
f 90//45 91//45 89//45
f 92//46 93//46 91//46
f 94//47 95//47 93//47
f 96//48 97//48 95//48
f 98//49 99//49 97//49
f 100//50 101//50 99//50
f 102//51 103//51 101//51
f 104//52 105//52 103//52
f 106//53 107//53 105//53
f 108//54 109//54 107//54
f 110//55 111//55 109//55
f 112//56 113//56 111//56
f 114//57 115//57 113//57
f 116//58 117//58 115//58
f 118//59 119//59 117//59
f 120//60 121//60 119//60
f 122//61 123//61 121//61
f 124//62 125//62 123//62
f 78//63 52//63 32//63
f 126//64 127//64 125//64
f 128//65 1//65 127//65
f 31//66 85//66 109//66
f 2//1 4//1 3//1
f 4//2 6//2 5//2
f 6//3 8//3 7//3
f 8//4 10//4 9//4
f 10//5 12//5 11//5
f 12//6 14//6 13//6
f 14//7 16//7 15//7
f 16//8 18//8 17//8
f 18//9 20//9 19//9
f 20//10 22//10 21//10
f 22//11 24//11 23//11
f 24//12 26//12 25//12
f 26//13 28//13 27//13
f 28//14 30//14 29//14
f 30//15 32//15 31//15
f 32//16 34//16 33//16
f 34//17 36//17 35//17
f 36//18 38//18 37//18
f 38//19 40//19 39//19
f 40//20 42//20 41//20
f 42//21 44//21 43//21
f 44//22 46//22 45//22
f 46//23 48//23 47//23
f 48//24 50//24 49//24
f 50//25 52//25 51//25
f 52//26 54//26 53//26
f 54//27 56//27 55//27
f 56//28 58//28 57//28
f 58//29 60//29 59//29
f 60//30 62//30 61//30
f 62//31 64//31 63//31
f 64//32 66//32 65//32
f 66//33 68//33 67//33
f 68//34 70//34 69//34
f 70//35 72//35 71//35
f 72//36 74//36 73//36
f 74//37 76//37 75//37
f 76//38 78//38 77//38
f 78//39 80//39 79//39
f 80//40 82//40 81//40
f 82//41 84//41 83//41
f 84//42 86//42 85//42
f 86//43 88//43 87//43
f 88//44 90//44 89//44
f 90//45 92//45 91//45
f 92//46 94//46 93//46
f 94//47 96//47 95//47
f 96//48 98//48 97//48
f 98//49 100//49 99//49
f 100//50 102//50 101//50
f 102//51 104//51 103//51
f 104//52 106//52 105//52
f 106//53 108//53 107//53
f 108//54 110//54 109//54
f 110//55 112//55 111//55
f 112//56 114//56 113//56
f 114//57 116//57 115//57
f 116//58 118//58 117//58
f 118//59 120//59 119//59
f 120//60 122//60 121//60
f 122//61 124//61 123//61
f 124//62 126//62 125//62
f 126//63 124//63 122//63
f 122//63 120//63 118//63
f 118//63 116//63 114//63
f 114//63 112//63 110//63
f 110//63 108//63 106//63
f 106//63 104//63 102//63
f 110//63 106//63 102//63
f 118//63 114//63 110//63
f 126//63 122//63 118//63
f 128//63 126//63 118//63
f 118//63 110//63 102//63
f 118//63 102//63 100//63
f 2//63 128//63 118//63
f 8//63 6//63 4//63
f 2//63 118//63 100//63
f 10//63 8//63 4//63
f 4//63 2//63 100//63
f 98//63 96//63 94//63
f 4//63 100//63 98//63
f 12//63 10//63 4//63
f 16//63 14//63 12//63
f 20//63 18//63 16//63
f 24//63 22//63 20//63
f 28//63 26//63 24//63
f 32//63 30//63 28//63
f 36//63 34//63 32//63
f 40//63 38//63 36//63
f 44//63 42//63 40//63
f 48//63 46//63 44//63
f 48//63 44//63 40//63
f 40//63 36//63 32//63
f 32//63 28//63 24//63
f 24//63 20//63 16//63
f 16//63 12//63 4//63
f 4//63 98//63 94//63
f 94//63 92//63 90//63
f 90//63 88//63 86//63
f 86//63 84//63 82//63
f 82//63 80//63 78//63
f 78//63 76//63 74//63
f 74//63 72//63 70//63
f 70//63 68//63 66//63
f 66//63 64//63 62//63
f 62//63 60//63 58//63
f 58//63 56//63 54//63
f 62//63 58//63 54//63
f 70//63 66//63 62//63
f 78//63 74//63 70//63
f 86//63 82//63 78//63
f 94//63 90//63 86//63
f 16//63 4//63 94//63
f 32//63 24//63 16//63
f 48//63 40//63 32//63
f 50//63 48//63 32//63
f 32//63 16//63 94//63
f 94//63 86//63 78//63
f 78//63 70//63 62//63
f 62//63 54//63 52//63
f 52//63 50//63 32//63
f 32//63 94//63 78//63
f 78//63 62//63 52//63
f 126//64 128//64 127//64
f 128//65 2//65 1//65
f 3//66 5//66 7//66
f 7//66 9//66 11//66
f 11//66 13//66 15//66
f 15//66 17//66 19//66
f 19//66 21//66 23//66
f 23//66 25//66 27//66
f 27//66 29//66 31//66
f 31//66 33//66 35//66
f 35//66 37//66 39//66
f 39//66 41//66 43//66
f 43//66 45//66 47//66
f 39//66 43//66 47//66
f 31//66 35//66 39//66
f 23//66 27//66 31//66
f 15//66 19//66 23//66
f 7//66 11//66 15//66
f 3//66 7//66 15//66
f 15//66 23//66 31//66
f 31//66 39//66 47//66
f 31//66 47//66 49//66
f 3//66 15//66 31//66
f 1//66 3//66 31//66
f 31//66 49//66 51//66
f 53//66 55//66 57//66
f 31//66 51//66 53//66
f 127//66 1//66 31//66
f 121//66 123//66 125//66
f 125//66 127//66 31//66
f 31//67 53//67 57//67
f 57//66 59//66 61//66
f 61//66 63//66 65//66
f 65//66 67//66 69//66
f 69//66 71//66 73//66
f 73//66 75//66 77//66
f 77//66 79//66 81//66
f 81//66 83//66 85//66
f 85//66 87//66 89//66
f 89//66 91//66 93//66
f 93//66 95//66 97//66
f 93//66 97//66 99//66
f 85//66 89//66 93//66
f 77//66 81//66 85//66
f 69//66 73//66 77//66
f 61//66 65//66 69//66
f 31//66 57//66 61//66
f 121//66 125//66 31//66
f 117//66 119//66 121//66
f 113//66 115//66 117//66
f 109//66 111//66 113//66
f 105//66 107//66 109//66
f 101//66 103//66 105//66
f 85//66 93//66 99//66
f 101//66 105//66 109//66
f 85//66 99//66 101//66
f 69//66 77//66 85//66
f 31//66 61//66 69//66
f 117//66 121//66 31//66
f 109//66 113//66 117//66
f 85//66 101//66 109//66
f 31//66 69//66 85//66
f 109//66 117//66 31//66
