# Blender 5.2.2 LTS
# www.blender.org
mtllib fault_le_erosion.mtl
o fault_le_erosion
v 1.028892 -0.372299 50.400295
v 1.050394 -0.425925 50.400291
v 1.076762 -0.479464 50.400284
v 1.111443 -0.533349 50.400272
v 1.188341 -0.589131 50.400059
v 1.264482 -0.535441 50.399807
v 1.296264 -0.482276 50.399780
v 1.319205 -0.429336 50.399769
v 1.337408 -0.376178 50.399757
v 1.073169 -0.384301 50.907032
v 1.093829 -0.433044 50.907028
v 1.119069 -0.482069 50.907021
v 1.152148 -0.531279 50.907001
v 1.224566 -0.582117 50.906799
v 1.295806 -0.533481 50.906567
v 1.326250 -0.485023 50.906528
v 1.348329 -0.436562 50.906509
v 1.365860 -0.388332 50.906502
v 1.121098 -0.404678 51.413780
v 1.140719 -0.446770 51.413773
v 1.164157 -0.488761 51.413765
v 1.194521 -0.531120 51.413750
v 1.260809 -0.575103 51.413540
v 1.325734 -0.533287 51.413300
v 1.353873 -0.491680 51.413261
v 1.374502 -0.450301 51.413250
v 1.391298 -0.408702 51.413231
v 1.170677 -0.420542 51.920525
v 1.188688 -0.456672 51.920521
v 1.210393 -0.493101 51.920506
v 1.238004 -0.529444 51.920498
v 1.299087 -0.567635 51.920280
v 1.358714 -0.531581 51.920033
v 1.384363 -0.496048 51.920010
v 1.403674 -0.460161 51.919979
v 1.419189 -0.424549 51.919971
v 1.215133 -0.424095 52.427273
v 1.232596 -0.457647 52.427265
v 1.253502 -0.491093 52.427258
v 1.279690 -0.524922 52.427231
v 1.337815 -0.560071 52.427025
v 1.394153 -0.527181 52.426800
v 1.418564 -0.494077 52.426746
v 1.437205 -0.461264 52.426727
v 1.452346 -0.428190 52.426701
v 1.256465 -0.416068 52.934025
v 1.273775 -0.449486 52.934013
v 1.294524 -0.482801 52.934006
v 1.320524 -0.516506 52.933983
v 1.378184 -0.551565 52.933769
v 1.433781 -0.518870 52.933537
v 1.457903 -0.485941 52.933479
v 1.476336 -0.453299 52.933460
v 1.491298 -0.420395 52.933434
v 1.297774 -0.405403 53.440773
v 1.314839 -0.439010 53.440769
v 1.335714 -0.472931 53.440758
v 1.361567 -0.506768 53.440746
v 1.419453 -0.542548 53.440517
v 1.475134 -0.509162 53.440239
v 1.498852 -0.476252 53.440212
v 1.517359 -0.442994 53.440178
v 1.531994 -0.409991 53.440166
v 1.344131 -0.402058 53.947521
v 1.360894 -0.434083 53.947517
v 1.380942 -0.466199 53.947506
v 1.406169 -0.498716 53.947483
v 1.461911 -0.532639 53.947262
v 1.515223 -0.501243 53.947010
v 1.538488 -0.469585 53.946949
v 1.556238 -0.438207 53.946926
v 1.570682 -0.406788 53.946911
v 1.398532 -0.410169 54.454273
v 1.413867 -0.437454 54.454266
v 1.431933 -0.464820 54.454258
v 1.455170 -0.492594 54.454235
v 1.505694 -0.521737 54.454010
v 1.553997 -0.495009 54.453747
v 1.575540 -0.468066 54.453682
v 1.591703 -0.441402 54.453663
v 1.605042 -0.414703 54.453644
v 1.459398 -0.426061 54.961021
v 1.472604 -0.446570 54.961014
v 1.488006 -0.467150 54.961002
v 1.507111 -0.487849 54.960987
v 1.550310 -0.510117 54.960758
v 1.591714 -0.490043 54.960487
v 1.609454 -0.470119 54.960445
v 1.623511 -0.450165 54.960419
v 1.635291 -0.430181 54.960396
v 1.522946 -0.437600 55.467766
v 1.533713 -0.452001 55.467754
v 1.546102 -0.466473 55.467739
v 1.561817 -0.481073 55.467716
v 1.596869 -0.496800 55.467506
v 1.630306 -0.483113 55.467289
v 1.645210 -0.469158 55.467228
v 1.656738 -0.455187 55.467186
v 1.666607 -0.441232 55.467155
v 1.577925 -0.434125 55.974510
v 1.587387 -0.445800 55.974510
v 1.598555 -0.457793 55.974495
v 1.612402 -0.469901 55.974472
v 1.643813 -0.483121 55.974258
v 1.673781 -0.471856 55.974033
v 1.687023 -0.460345 55.973965
v 1.697477 -0.448829 55.973923
v 1.706159 -0.437642 55.973923
v 1.621350 -0.407750 56.481274
v 1.631751 -0.422092 56.481266
v 1.643769 -0.436510 56.481251
v 1.659110 -0.451069 56.481228
v 1.693308 -0.466815 56.481010
v 1.725952 -0.453317 56.480778
v 1.740549 -0.439498 56.480705
v 1.751796 -0.425651 56.480659
v 1.761382 -0.411813 56.480629
v 1.656021 -0.365592 56.988041
v 1.668439 -0.386252 56.988033
v 1.683160 -0.407003 56.988022
v 1.701610 -0.427901 56.988007
v 1.742873 -0.450509 56.987762
v 1.782479 -0.430602 56.987450
v 1.799779 -0.410717 56.987404
v 1.813362 -0.390774 56.987370
v 1.824555 -0.370781 56.987339
v 1.695320 -0.316598 57.494804
v 1.709369 -0.344387 57.494797
v 1.726249 -0.372292 57.494789
v 1.747587 -0.400637 57.494766
v 1.795270 -0.430629 57.494518
v 1.840957 -0.403964 57.494194
v 1.861003 -0.376834 57.494106
v 1.876352 -0.349947 57.494080
v 1.888894 -0.322996 57.494057
v 1.741432 -0.275731 58.001568
v 1.756047 -0.308589 58.001564
v 1.773669 -0.341569 58.001556
v 1.796807 -0.375010 58.001541
v 1.847924 -0.410546 58.001274
v 1.897091 -0.378720 58.000885
v 1.918722 -0.346755 58.000816
v 1.934676 -0.314934 58.000793
v 1.947740 -0.283046 58.000774
v 1.798812 -0.247245 58.508335
v 1.812689 -0.281136 58.508331
v 1.830227 -0.315389 58.508324
v 1.852999 -0.349921 58.508305
v 1.903667 -0.386631 58.508038
v 1.952573 -0.353916 58.507626
v 1.973974 -0.320976 58.507553
v 1.990039 -0.287951 58.507511
v 2.002596 -0.255076 58.507496
v 1.862559 -0.231201 59.015091
v 1.875444 -0.262830 59.015087
v 1.891790 -0.294826 59.015079
v 1.913003 -0.327101 59.015064
v 1.960458 -0.361577 59.014793
v 2.006489 -0.331165 59.014370
v 2.026641 -0.300506 59.014294
v 2.041820 -0.269760 59.014248
v 2.053675 -0.239160 59.014233
v 1.931039 -0.218513 59.521854
v 1.942964 -0.246508 59.521847
v 1.957402 -0.274460 59.521843
v 1.976410 -0.302886 59.521828
v 2.019186 -0.333502 59.521557
v 2.060935 -0.306901 59.521114
v 2.079259 -0.280065 59.521034
v 2.092865 -0.253358 59.521008
v 2.104074 -0.226379 59.520969
v 2.000742 -0.201897 60.028618
v 2.011281 -0.226390 60.028614
v 2.024040 -0.251010 60.028610
v 2.040967 -0.276102 60.028599
v 2.079365 -0.303372 60.028320
v 2.117087 -0.280060 60.027859
v 2.133651 -0.256523 60.027775
v 2.145887 -0.233116 60.027744
v 2.155982 -0.209638 60.027721
v 2.072241 -0.176258 60.535385
v 2.081608 -0.198558 60.535381
v 2.093001 -0.220984 60.535378
v 2.108122 -0.243877 60.535366
v 2.142823 -0.268943 60.535088
v 2.177146 -0.247793 60.534603
v 2.192149 -0.226422 60.534515
v 2.203275 -0.205185 60.534485
v 2.212447 -0.183879 60.534458
v 2.144431 -0.146232 61.042160
v 2.152535 -0.167159 61.042156
v 2.162766 -0.188055 61.042156
v 2.176267 -0.209408 61.042145
v 2.207726 -0.232929 61.041859
v 2.239067 -0.213276 61.041348
v 2.252652 -0.193403 61.041252
v 2.262837 -0.173675 61.041218
v 2.271015 -0.153665 61.041172
v 2.224136 -0.114837 61.548931
v 2.230813 -0.132921 61.548931
v 2.239321 -0.151340 61.548927
v 2.250684 -0.170018 61.548920
v 2.277719 -0.190807 61.548630
v 2.304882 -0.173645 61.548092
v 2.316513 -0.156315 61.547993
v 2.325212 -0.138920 61.547928
v 2.332130 -0.121696 61.547905
v 2.306979 -0.088471 62.055676
v 2.312084 -0.102443 62.055676
v 2.318643 -0.116734 62.055672
v 2.327412 -0.131252 62.055664
v 2.348886 -0.147754 62.055378
v 2.370653 -0.134385 62.054836
v 2.379809 -0.120975 62.054729
v 2.386672 -0.107529 62.054665
v 2.392103 -0.094271 62.054646
vn -0.9258 -0.3712 0.0721
vn -0.8949 -0.4407 0.0705
vn -0.8390 -0.5400 0.0673
vn -0.5863 -0.8085 0.0504
vn 0.5759 -0.8169 -0.0299
vn 0.8572 -0.5125 -0.0510
vn 0.9161 -0.3970 -0.0564
vn 0.9444 -0.3234 -0.0589
vn -0.9184 -0.3892 0.0712
vn -0.8869 -0.4566 0.0697
vn -0.8281 -0.5567 0.0663
vn -0.5738 -0.8176 0.0482
vn 0.5635 -0.8256 -0.0289
vn 0.8457 -0.5313 -0.0497
vn 0.9086 -0.4140 -0.0550
vn 0.9257 -0.3738 -0.0579
vn -0.9038 -0.4213 0.0752
vn -0.8709 -0.4861 0.0729
vn -0.8108 -0.5812 0.0690
vn -0.5521 -0.8323 0.0501
vn 0.5412 -0.8404 -0.0285
vn 0.8272 -0.5595 -0.0520
vn 0.8935 -0.4455 -0.0576
vn 0.9151 -0.3987 -0.0604
vn -0.8924 -0.4449 0.0752
vn -0.8567 -0.5105 0.0733
vn -0.7943 -0.6035 0.0700
vn -0.5293 -0.8469 0.0511
vn 0.5172 -0.8555 -0.0268
vn 0.8097 -0.5845 -0.0516
vn 0.8791 -0.4731 -0.0575
vn 0.9150 -0.3987 -0.0614
vn -0.8842 -0.4602 0.0794
vn -0.8454 -0.5285 0.0772
vn -0.7886 -0.6105 0.0738
vn -0.5165 -0.8545 0.0558
vn 0.5039 -0.8634 -0.0257
vn 0.8037 -0.5927 -0.0531
vn 0.8679 -0.4931 -0.0595
vn 0.9074 -0.4154 -0.0635
vn -0.8850 -0.4584 0.0818
vn -0.8461 -0.5270 0.0795
vn -0.7895 -0.6091 0.0760
vn -0.5185 -0.8531 0.0584
vn 0.5067 -0.8618 -0.0259
vn 0.8055 -0.5901 -0.0544
vn 0.8691 -0.4908 -0.0608
vn 0.9084 -0.4131 -0.0651
vn -0.8885 -0.4511 0.0843
vn -0.8488 -0.5224 0.0822
vn -0.7921 -0.6052 0.0787
vn -0.5247 -0.8492 0.0597
vn 0.5140 -0.8574 -0.0263
vn 0.8100 -0.5838 -0.0550
vn 0.8721 -0.4854 -0.0618
vn 0.9121 -0.4045 -0.0662
vn -0.8826 -0.4620 0.0874
vn -0.8452 -0.5276 0.0848
vn -0.7875 -0.6110 0.0809
vn -0.5187 -0.8528 0.0605
vn 0.5072 -0.8615 -0.0253
vn 0.8046 -0.5914 -0.0543
vn 0.8687 -0.4915 -0.0620
vn 0.9066 -0.4168 -0.0661
vn -0.8683 -0.4880 0.0890
vn -0.8314 -0.5489 0.0865
vn -0.7644 -0.6396 0.0816
vn -0.4986 -0.8648 0.0592
vn 0.4839 -0.8748 -0.0225
vn 0.7799 -0.6237 -0.0519
vn 0.8537 -0.5175 -0.0592
vn 0.8927 -0.4461 -0.0637
vn -0.8372 -0.5391 0.0927
vn -0.7974 -0.5968 0.0898
vn -0.7321 -0.6758 0.0848
vn -0.4571 -0.8873 0.0612
vn 0.4361 -0.8997 -0.0164
vn 0.7460 -0.6643 -0.0477
vn 0.8162 -0.5750 -0.0565
vn 0.8598 -0.5069 -0.0614
vn -0.7976 -0.5964 0.0906
vn -0.7567 -0.6478 0.0881
vn -0.6783 -0.7302 0.0827
vn -0.4083 -0.9108 0.0608
vn 0.3787 -0.9254 -0.0101
vn 0.6828 -0.7294 -0.0424
vn 0.7702 -0.6357 -0.0525
vn 0.8150 -0.5765 -0.0583
vn -0.7731 -0.6265 0.0989
vn -0.7284 -0.6785 0.0955
vn -0.6555 -0.7498 0.0900
vn -0.3866 -0.9196 0.0698
vn 0.3518 -0.9361 -0.0042
vn 0.6554 -0.7542 -0.0399
vn 0.7394 -0.6714 -0.0505
vn 0.7888 -0.6121 -0.0566
vn -0.8527 -0.5126 0.1010
vn -0.8116 -0.5758 0.0995
vn -0.6852 -0.7221 0.0953
vn -0.4166 -0.9059 0.0764
vn 0.3820 -0.9241 -0.0076
vn 0.6867 -0.7256 -0.0441
vn 0.7750 -0.6296 -0.0548
vn 0.8205 -0.5685 -0.0606
vn -0.8868 -0.4484 0.1121
vn -0.8503 -0.5144 0.1112
vn -0.7452 -0.6580 0.1084
vn -0.4781 -0.8736 0.0904
vn 0.4490 -0.8935 -0.0114
vn 0.7534 -0.6555 -0.0525
vn 0.8249 -0.5619 -0.0621
vn 0.8704 -0.4874 -0.0689
vn -0.9076 -0.4037 0.1151
vn -0.8762 -0.4682 0.1138
vn -0.7940 -0.5978 0.1105
vn -0.5297 -0.8429 0.0941
vn 0.5039 -0.8636 -0.0181
vn 0.8028 -0.5933 -0.0594
vn 0.8663 -0.4947 -0.0693
vn 0.9041 -0.4208 -0.0750
vn -0.9182 -0.3760 0.1251
vn -0.8753 -0.4677 0.1232
vn -0.8164 -0.5649 0.1203
vn -0.5674 -0.8169 0.1034
vn 0.5432 -0.8394 -0.0201
vn 0.8265 -0.5594 -0.0631
vn 0.8914 -0.4470 -0.0745
vn 0.9223 -0.3779 -0.0806
vn -0.9179 -0.3758 0.1274
vn -0.8830 -0.4522 0.1257
vn -0.8285 -0.5464 0.1228
vn -0.5831 -0.8055 0.1053
vn 0.5558 -0.8311 -0.0212
vn 0.8367 -0.5438 -0.0646
vn 0.8966 -0.4363 -0.0756
vn 0.9310 -0.3556 -0.0824
vn -0.9178 -0.3739 0.1334
vn -0.8827 -0.4510 0.1321
vn -0.8286 -0.5447 0.1292
vn -0.5837 -0.8043 0.1115
vn 0.5510 -0.8343 -0.0176
vn 0.8339 -0.5483 -0.0633
vn 0.8941 -0.4415 -0.0750
vn 0.9293 -0.3601 -0.0820
vn -0.9112 -0.3882 0.1381
vn -0.8801 -0.4546 0.1367
vn -0.8238 -0.5509 0.1338
vn -0.5776 -0.8080 0.1163
vn 0.5372 -0.8433 -0.0137
vn 0.8242 -0.5630 -0.0615
vn 0.8885 -0.4528 -0.0743
vn 0.9204 -0.3825 -0.0810
vn -0.9085 -0.3909 0.1480
vn -0.8782 -0.4551 0.1469
vn -0.8203 -0.5534 0.1444
vn -0.5737 -0.8091 0.1275
vn 0.5256 -0.8507 -0.0080
vn 0.8162 -0.5746 -0.0601
vn 0.8837 -0.4620 -0.0746
vn 0.9155 -0.3938 -0.0820
vn -0.9216 -0.3569 0.1524
vn -0.8813 -0.4478 0.1511
vn -0.8251 -0.5450 0.1490
vn -0.5797 -0.8040 0.1326
vn 0.5245 -0.8514 -0.0067
vn 0.8168 -0.5737 -0.0607
vn 0.8832 -0.4629 -0.0753
vn 0.9153 -0.3941 -0.0831
vn -0.9250 -0.3415 0.1666
vn -0.8856 -0.4336 0.1661
vn -0.8337 -0.5273 0.1641
vn -0.5913 -0.7927 0.1484
vn 0.5312 -0.8472 -0.0029
vn 0.8238 -0.5634 -0.0629
vn 0.8858 -0.4575 -0.0781
vn 0.9220 -0.3770 -0.0876
vn -0.9246 -0.3414 0.1689
vn -0.8948 -0.4134 0.1684
vn -0.8423 -0.5125 0.1669
vn -0.6016 -0.7844 0.1511
vn 0.5341 -0.8454 -0.0032
vn 0.8285 -0.5563 -0.0644
vn 0.8914 -0.4461 -0.0802
vn 0.9242 -0.3713 -0.0891
vn -0.9182 -0.3892 0.0732
vn -0.8868 -0.4566 0.0717
vn -0.8279 -0.5566 0.0688
vn -0.5737 -0.8174 0.0523
vn 0.5635 -0.8255 -0.0316
vn 0.8455 -0.5313 -0.0529
vn 0.9085 -0.4139 -0.0581
vn 0.9381 -0.3410 -0.0608
vn -0.9040 -0.4214 0.0722
vn -0.8710 -0.4862 0.0711
vn -0.8109 -0.5813 0.0680
vn -0.5520 -0.8323 0.0510
vn 0.5411 -0.8403 -0.0316
vn 0.8272 -0.5595 -0.0524
vn 0.8934 -0.4454 -0.0582
vn -0.8924 -0.4448 0.0758
vn -0.8567 -0.5105 0.0738
vn -0.7943 -0.6035 0.0702
vn -0.5293 -0.8468 0.0525
vn 0.5171 -0.8554 -0.0308
vn 0.8096 -0.5845 -0.0538
vn 0.8790 -0.4730 -0.0598
vn 0.9254 -0.3737 -0.0626
vn -0.8845 -0.4604 0.0758
vn -0.8456 -0.5286 0.0740
vn -0.7888 -0.6107 0.0703
vn -0.5166 -0.8546 0.0522
vn 0.5039 -0.8633 -0.0277
vn 0.8037 -0.5928 -0.0519
vn 0.8680 -0.4931 -0.0585
vn 0.9075 -0.4155 -0.0624
vn -0.8851 -0.4585 0.0793
vn -0.8463 -0.5271 0.0771
vn -0.7896 -0.6092 0.0737
vn -0.5186 -0.8532 0.0556
vn 0.5067 -0.8618 -0.0255
vn 0.8055 -0.5902 -0.0531
vn 0.8692 -0.4909 -0.0594
vn 0.9085 -0.4131 -0.0635
vn -0.8887 -0.4512 0.0813
vn -0.8490 -0.5225 0.0792
vn -0.7923 -0.6054 0.0758
vn -0.5247 -0.8493 0.0578
vn 0.5140 -0.8574 -0.0255
vn 0.8100 -0.5838 -0.0543
vn 0.8722 -0.4854 -0.0607
vn 0.9122 -0.4045 -0.0650
vn -0.8828 -0.4621 0.0847
vn -0.8454 -0.5277 0.0825
vn -0.7876 -0.6111 0.0790
vn -0.5188 -0.8528 0.0601
vn 0.5072 -0.8614 -0.0267
vn 0.8045 -0.5913 -0.0551
vn 0.9066 -0.4168 -0.0666
vn -0.8684 -0.4881 0.0875
vn -0.8315 -0.5489 0.0852
vn -0.4985 -0.8647 0.0617
vn 0.4839 -0.8747 -0.0263
vn 0.7798 -0.6236 -0.0551
vn 0.8535 -0.5173 -0.0630
vn 0.8925 -0.4460 -0.0675
vn -0.8376 -0.5393 0.0874
vn -0.7977 -0.5970 0.0855
vn -0.7324 -0.6760 0.0814
vn -0.4571 -0.8874 0.0606
vn 0.4360 -0.8996 -0.0236
vn 0.7458 -0.6641 -0.0526
vn 0.8160 -0.5749 -0.0612
vn 0.8595 -0.5067 -0.0668
vn -0.7976 -0.5964 0.0898
vn -0.7567 -0.6479 0.0876
vn -0.6782 -0.7301 0.0830
vn -0.4083 -0.9108 0.0614
vn 0.3787 -0.9254 -0.0162
vn 0.6826 -0.7293 -0.0468
vn 0.7700 -0.6355 -0.0568
vn 0.8148 -0.5763 -0.0629
vn -0.7738 -0.6271 0.0896
vn -0.7290 -0.6790 0.0871
vn -0.6560 -0.7503 0.0820
vn -0.3868 -0.9202 0.0607
vn 0.3518 -0.9360 -0.0094
vn 0.6554 -0.7542 -0.0410
vn 0.7394 -0.6713 -0.0510
vn 0.7887 -0.6121 -0.0572
vn -0.8056 -0.5843 0.0979
vn -0.7646 -0.6374 0.0950
vn -0.6855 -0.7225 0.0900
vn -0.4168 -0.9063 0.0699
vn 0.3821 -0.9241 -0.0055
vn 0.6868 -0.7256 -0.0427
vn 0.7750 -0.6296 -0.0543
vn 0.8205 -0.5685 -0.0604
vn -0.8054 -0.5842 0.0996
vn -0.7645 -0.6373 0.0965
vn -0.7464 -0.6590 0.0927
vn -0.4788 -0.8747 0.0750
vn 0.4490 -0.8935 -0.0100
vn 0.7534 -0.6556 -0.0508
vn 0.8249 -0.5619 -0.0615
vn 0.8704 -0.4874 -0.0690
vn -0.8518 -0.5120 0.1111
vn -0.8108 -0.5752 0.1083
vn -0.7945 -0.5982 0.1043
vn -0.5301 -0.8434 0.0879
vn 0.5040 -0.8636 -0.0128
vn 0.8029 -0.5934 -0.0573
vn 0.8664 -0.4947 -0.0678
vn 0.9041 -0.4208 -0.0751
vn -0.8867 -0.4483 0.1133
vn -0.8504 -0.5144 0.1108
vn -0.8175 -0.5657 0.1080
vn -0.5681 -0.8179 0.0914
vn 0.5432 -0.8394 -0.0184
vn 0.8266 -0.5595 -0.0609
vn 0.8916 -0.4471 -0.0717
vn 0.9226 -0.3780 -0.0773
vn -0.9067 -0.4033 0.1232
vn -0.8835 -0.4524 0.1220
vn -0.8289 -0.5467 0.1190
vn -0.5833 -0.8058 0.1022
vn 0.5558 -0.8311 -0.0202
vn 0.8368 -0.5438 -0.0636
vn 0.8967 -0.4363 -0.0747
vn 0.9311 -0.3556 -0.0812
vn -0.9186 -0.3742 0.1273
vn -0.8835 -0.4514 0.1256
vn -0.8293 -0.5451 0.1227
vn -0.5841 -0.8048 0.1052
vn 0.5510 -0.8343 -0.0212
vn 0.8338 -0.5483 -0.0645
vn 0.8941 -0.4415 -0.0755
vn 0.9293 -0.3601 -0.0824
vn -0.9117 -0.3884 0.1340
vn -0.8807 -0.4549 0.1323
vn -0.8242 -0.5512 0.1295
vn -0.5779 -0.8084 0.1118
vn 0.5371 -0.8433 -0.0173
vn 0.8241 -0.5629 -0.0629
vn 0.8885 -0.4527 -0.0748
vn 0.9203 -0.3825 -0.0819
vn -0.9098 -0.3915 0.1382
vn -0.8795 -0.4558 0.1367
vn -0.8215 -0.5543 0.1339
vn -0.5745 -0.8102 0.1164
vn 0.5256 -0.8507 -0.0132
vn 0.8162 -0.5746 -0.0609
vn 0.8838 -0.4620 -0.0740
vn 0.9156 -0.3938 -0.0808
vn -0.9119 -0.3830 0.1476
vn -0.8819 -0.4481 0.1466
vn -0.8257 -0.5454 0.1441
vn -0.5801 -0.8045 0.1273
vn 0.5245 -0.8514 -0.0080
vn 0.8169 -0.5737 -0.0602
vn 0.8833 -0.4629 -0.0745
vn 0.9154 -0.3942 -0.0820
vn -0.9114 -0.3828 0.1513
vn -0.8879 -0.4347 0.1505
vn -0.8358 -0.5286 0.1483
vn -0.5928 -0.7944 0.1324
vn 0.5312 -0.8472 -0.0072
vn 0.8238 -0.5634 -0.0616
vn 0.8860 -0.4575 -0.0757
vn 0.9223 -0.3771 -0.0841
vn -0.9196 -0.3561 0.1661
vn -0.8953 -0.4136 0.1652
vn -0.8428 -0.5128 0.1636
vn -0.6018 -0.7847 0.1483
vn 0.8285 -0.5564 -0.0637
vn 0.8915 -0.4461 -0.0791
vn 0.9243 -0.3714 -0.0881
vn -0.9258 -0.3382 0.1688
vn -0.8959 -0.4112 0.1683
vn -0.8439 -0.5098 0.1668
vn -0.6011 -0.7848 0.1511
vn 0.5233 -0.8522 -0.0019
vn 0.8239 -0.5631 -0.0636
vn 0.8877 -0.4535 -0.0796
vn 0.9217 -0.3777 -0.0886
s 0
usemtl erosion
f 2//1 10//1 1//1
f 3//2 11//2 2//2
f 4//3 12//3 3//3
f 5//4 13//4 4//4
f 6//5 14//5 5//5
f 7//6 15//6 6//6
f 8//7 16//7 7//7
f 9//8 17//8 8//8
f 11//9 19//9 10//9
f 12//10 20//10 11//10
f 13//11 21//11 12//11
f 14//12 22//12 13//12
f 15//13 23//13 14//13
f 16//14 24//14 15//14
f 17//15 25//15 16//15
f 17//16 27//16 26//16
f 20//17 28//17 19//17
f 21//18 29//18 20//18
f 22//19 30//19 21//19
f 23//20 31//20 22//20
f 24//21 32//21 23//21
f 25//22 33//22 24//22
f 26//23 34//23 25//23
f 26//24 36//24 35//24
f 29//25 37//25 28//25
f 30//26 38//26 29//26
f 31//27 39//27 30//27
f 32//28 40//28 31//28
f 33//29 41//29 32//29
f 34//30 42//30 33//30
f 35//31 43//31 34//31
f 36//32 44//32 35//32
f 38//33 46//33 37//33
f 39//34 47//34 38//34
f 40//35 48//35 39//35
f 41//36 49//36 40//36
f 42//37 50//37 41//37
f 43//38 51//38 42//38
f 44//39 52//39 43//39
f 45//40 53//40 44//40
f 47//41 55//41 46//41
f 48//42 56//42 47//42
f 49//43 57//43 48//43
f 50//44 58//44 49//44
f 51//45 59//45 50//45
f 52//46 60//46 51//46
f 53//47 61//47 52//47
f 54//48 62//48 53//48
f 56//49 64//49 55//49
f 57//50 65//50 56//50
f 58//51 66//51 57//51
f 59//52 67//52 58//52
f 60//53 68//53 59//53
f 61//54 69//54 60//54
f 62//55 70//55 61//55
f 63//56 71//56 62//56
f 65//57 73//57 64//57
f 66//58 74//58 65//58
f 67//59 75//59 66//59
f 68//60 76//60 67//60
f 69//61 77//61 68//61
f 70//62 78//62 69//62
f 71//63 79//63 70//63
f 72//64 80//64 71//64
f 74//65 82//65 73//65
f 75//66 83//66 74//66
f 76//67 84//67 75//67
f 77//68 85//68 76//68
f 78//69 86//69 77//69
f 79//70 87//70 78//70
f 80//71 88//71 79//71
f 81//72 89//72 80//72
f 83//73 91//73 82//73
f 84//74 92//74 83//74
f 85//75 93//75 84//75
f 86//76 94//76 85//76
f 87//77 95//77 86//77
f 88//78 96//78 87//78
f 89//79 97//79 88//79
f 90//80 98//80 89//80
f 92//81 100//81 91//81
f 93//82 101//82 92//82
f 94//83 102//83 93//83
f 95//84 103//84 94//84
f 96//85 104//85 95//85
f 97//86 105//86 96//86
f 98//87 106//87 97//87
f 99//88 107//88 98//88
f 101//89 109//89 100//89
f 102//90 110//90 101//90
f 103//91 111//91 102//91
f 104//92 112//92 103//92
f 105//93 113//93 104//93
f 106//94 114//94 105//94
f 107//95 115//95 106//95
f 108//96 116//96 107//96
f 109//97 119//97 118//97
f 110//98 120//98 119//98
f 112//99 120//99 111//99
f 113//100 121//100 112//100
f 114//101 122//101 113//101
f 115//102 123//102 114//102
f 116//103 124//103 115//103
f 117//104 125//104 116//104
f 118//105 128//105 127//105
f 119//106 129//106 128//106
f 121//107 129//107 120//107
f 122//108 130//108 121//108
f 123//109 131//109 122//109
f 124//110 132//110 123//110
f 125//111 133//111 124//111
f 126//112 134//112 125//112
f 127//113 137//113 136//113
f 128//114 138//114 137//114
f 130//115 138//115 129//115
f 131//116 139//116 130//116
f 132//117 140//117 131//117
f 133//118 141//118 132//118
f 134//119 142//119 133//119
f 135//120 143//120 134//120
f 136//121 146//121 145//121
f 138//122 146//122 137//122
f 139//123 147//123 138//123
f 140//124 148//124 139//124
f 141//125 149//125 140//125
f 142//126 150//126 141//126
f 143//127 151//127 142//127
f 144//128 152//128 143//128
f 146//129 154//129 145//129
f 147//130 155//130 146//130
f 148//131 156//131 147//131
f 149//132 157//132 148//132
f 150//133 158//133 149//133
f 151//134 159//134 150//134
f 152//135 160//135 151//135
f 153//136 161//136 152//136
f 155//137 163//137 154//137
f 156//138 164//138 155//138
f 157//139 165//139 156//139
f 158//140 166//140 157//140
f 159//141 167//141 158//141
f 160//142 168//142 159//142
f 161//143 169//143 160//143
f 162//144 170//144 161//144
f 164//145 172//145 163//145
f 165//146 173//146 164//146
f 166//147 174//147 165//147
f 167//148 175//148 166//148
f 168//149 176//149 167//149
f 169//150 177//150 168//150
f 170//151 178//151 169//151
f 171//152 179//152 170//152
f 173//153 181//153 172//153
f 174//154 182//154 173//154
f 175//155 183//155 174//155
f 176//156 184//156 175//156
f 177//157 185//157 176//157
f 178//158 186//158 177//158
f 179//159 187//159 178//159
f 180//160 188//160 179//160
f 181//161 191//161 190//161
f 183//162 191//162 182//162
f 184//163 192//163 183//163
f 185//164 193//164 184//164
f 186//165 194//165 185//165
f 187//166 195//166 186//166
f 188//167 196//167 187//167
f 189//168 197//168 188//168
f 190//169 200//169 199//169
f 192//170 200//170 191//170
f 193//171 201//171 192//171
f 194//172 202//172 193//172
f 195//173 203//173 194//173
f 196//174 204//174 195//174
f 197//175 205//175 196//175
f 198//176 206//176 197//176
f 200//177 208//177 199//177
f 201//178 209//178 200//178
f 202//179 210//179 201//179
f 203//180 211//180 202//180
f 204//181 212//181 203//181
f 205//182 213//182 204//182
f 206//183 214//183 205//183
f 207//184 215//184 206//184
f 2//185 11//185 10//185
f 3//186 12//186 11//186
f 4//187 13//187 12//187
f 5//188 14//188 13//188
f 6//189 15//189 14//189
f 7//190 16//190 15//190
f 8//191 17//191 16//191
f 9//192 18//192 17//192
f 11//193 20//193 19//193
f 12//194 21//194 20//194
f 13//195 22//195 21//195
f 14//196 23//196 22//196
f 15//197 24//197 23//197
f 16//198 25//198 24//198
f 17//199 26//199 25//199
f 17//192 18//192 27//192
f 20//200 29//200 28//200
f 21//201 30//201 29//201
f 22//202 31//202 30//202
f 23//203 32//203 31//203
f 24//204 33//204 32//204
f 25//205 34//205 33//205
f 26//206 35//206 34//206
f 26//207 27//207 36//207
f 29//208 38//208 37//208
f 30//209 39//209 38//209
f 31//210 40//210 39//210
f 32//211 41//211 40//211
f 33//212 42//212 41//212
f 34//213 43//213 42//213
f 35//214 44//214 43//214
f 36//215 45//215 44//215
f 38//216 47//216 46//216
f 39//217 48//217 47//217
f 40//218 49//218 48//218
f 41//219 50//219 49//219
f 42//220 51//220 50//220
f 43//221 52//221 51//221
f 44//222 53//222 52//222
f 45//223 54//223 53//223
f 47//224 56//224 55//224
f 48//225 57//225 56//225
f 49//226 58//226 57//226
f 50//227 59//227 58//227
f 51//228 60//228 59//228
f 52//229 61//229 60//229
f 53//230 62//230 61//230
f 54//231 63//231 62//231
f 56//232 65//232 64//232
f 57//233 66//233 65//233
f 58//234 67//234 66//234
f 59//235 68//235 67//235
f 60//236 69//236 68//236
f 61//237 70//237 69//237
f 62//63 71//63 70//63
f 63//238 72//238 71//238
f 65//239 74//239 73//239
f 66//240 75//240 74//240
f 67//67 76//67 75//67
f 68//241 77//241 76//241
f 69//242 78//242 77//242
f 70//243 79//243 78//243
f 71//244 80//244 79//244
f 72//245 81//245 80//245
f 74//246 83//246 82//246
f 75//247 84//247 83//247
f 76//248 85//248 84//248
f 77//249 86//249 85//249
f 78//250 87//250 86//250
f 79//251 88//251 87//251
f 80//252 89//252 88//252
f 81//253 90//253 89//253
f 83//254 92//254 91//254
f 84//255 93//255 92//255
f 85//256 94//256 93//256
f 86//257 95//257 94//257
f 87//258 96//258 95//258
f 88//259 97//259 96//259
f 89//260 98//260 97//260
f 90//261 99//261 98//261
f 92//262 101//262 100//262
f 93//263 102//263 101//263
f 94//264 103//264 102//264
f 95//265 104//265 103//265
f 96//266 105//266 104//266
f 97//267 106//267 105//267
f 98//268 107//268 106//268
f 99//269 108//269 107//269
f 101//270 110//270 109//270
f 102//271 111//271 110//271
f 103//272 112//272 111//272
f 104//273 113//273 112//273
f 105//274 114//274 113//274
f 106//275 115//275 114//275
f 107//276 116//276 115//276
f 108//277 117//277 116//277
f 109//278 110//278 119//278
f 110//279 111//279 120//279
f 112//280 121//280 120//280
f 113//281 122//281 121//281
f 114//282 123//282 122//282
f 115//283 124//283 123//283
f 116//284 125//284 124//284
f 117//285 126//285 125//285
f 118//286 119//286 128//286
f 119//287 120//287 129//287
f 121//288 130//288 129//288
f 122//289 131//289 130//289
f 123//290 132//290 131//290
f 124//291 133//291 132//291
f 125//292 134//292 133//292
f 126//293 135//293 134//293
f 127//294 128//294 137//294
f 128//295 129//295 138//295
f 130//296 139//296 138//296
f 131//297 140//297 139//297
f 132//298 141//298 140//298
f 133//299 142//299 141//299
f 134//300 143//300 142//300
f 135//301 144//301 143//301
f 136//302 137//302 146//302
f 138//303 147//303 146//303
f 139//304 148//304 147//304
f 140//305 149//305 148//305
f 141//306 150//306 149//306
f 142//307 151//307 150//307
f 143//308 152//308 151//308
f 144//309 153//309 152//309
f 146//310 155//310 154//310
f 147//311 156//311 155//311
f 148//312 157//312 156//312
f 149//313 158//313 157//313
f 150//314 159//314 158//314
f 151//315 160//315 159//315
f 152//316 161//316 160//316
f 153//317 162//317 161//317
f 155//318 164//318 163//318
f 156//319 165//319 164//319
f 157//320 166//320 165//320
f 158//321 167//321 166//321
f 159//322 168//322 167//322
f 160//323 169//323 168//323
f 161//324 170//324 169//324
f 162//325 171//325 170//325
f 164//326 173//326 172//326
f 165//327 174//327 173//327
f 166//328 175//328 174//328
f 167//329 176//329 175//329
f 168//330 177//330 176//330
f 169//331 178//331 177//331
f 170//332 179//332 178//332
f 171//333 180//333 179//333
f 173//334 182//334 181//334
f 174//335 183//335 182//335
f 175//336 184//336 183//336
f 176//337 185//337 184//337
f 177//338 186//338 185//338
f 178//339 187//339 186//339
f 179//340 188//340 187//340
f 180//341 189//341 188//341
f 181//342 182//342 191//342
f 183//343 192//343 191//343
f 184//344 193//344 192//344
f 185//345 194//345 193//345
f 186//346 195//346 194//346
f 187//347 196//347 195//347
f 188//348 197//348 196//348
f 189//349 198//349 197//349
f 190//350 191//350 200//350
f 192//351 201//351 200//351
f 193//352 202//352 201//352
f 194//353 203//353 202//353
f 195//181 204//181 203//181
f 196//354 205//354 204//354
f 197//355 206//355 205//355
f 198//356 207//356 206//356
f 200//357 209//357 208//357
f 201//358 210//358 209//358
f 202//359 211//359 210//359
f 203//360 212//360 211//360
f 204//361 213//361 212//361
f 205//362 214//362 213//362
f 206//363 215//363 214//363
f 207//364 216//364 215//364
