# Blender 5.2.2 LTS
# www.blender.org
mtllib fault_te_crack.mtl
o fault_te_crack
v -0.422833 2.986434 11.969555
v -0.450626 2.977187 11.969555
v -0.479031 2.967774 11.969584
v -0.506823 2.958528 11.969584
v -0.534616 2.949281 11.969584
v -0.562408 2.940034 11.969584
v -0.589671 2.930855 11.969597
v -0.600975 2.925211 11.969597
v -0.612279 2.919567 11.969597
v -0.414012 3.009239 12.243472
v -0.447665 2.998167 12.243472
v -0.481935 2.986930 12.243503
v -0.515588 2.975857 12.243503
v -0.549240 2.964785 12.243503
v -0.581078 2.954045 12.243518
v -0.593447 2.947529 12.243518
v -0.605816 2.941013 12.243518
v -0.618184 2.934497 12.243518
v -0.405064 3.031506 12.517390
v -0.454888 3.015332 12.517422
v -0.504088 2.999321 12.517422
v -0.553288 2.983311 12.517422
v -0.581102 2.971723 12.517439
v -0.597286 2.962638 12.517439
v -0.613470 2.953552 12.517439
v -0.629654 2.944467 12.517439
v -0.643351 2.935543 12.517594
v -0.395954 3.053761 12.791304
v -0.463934 3.031923 12.791335
v -0.531283 3.010249 12.791335
v -0.571931 2.993986 12.791356
v -0.591443 2.982138 12.791356
v -0.610956 2.970290 12.791356
v -0.627158 2.958665 12.791537
v -0.638116 2.948574 12.791537
v -0.649074 2.938483 12.791537
v -0.386682 3.076005 13.065216
v -0.467214 3.050415 13.065248
v -0.547110 3.024987 13.065248
v -0.570205 3.010899 13.065273
v -0.590168 2.997524 13.065273
v -0.608120 2.983961 13.065487
v -0.619541 2.972303 13.065487
v -0.630961 2.960646 13.065487
v -0.642382 2.948989 13.065487
v -0.377250 3.098240 13.339184
v -0.459080 3.072526 13.339205
v -0.540269 3.046975 13.339205
v -0.558127 3.033789 13.339237
v -0.575123 3.020870 13.339237
v -0.590362 3.007509 13.339439
v -0.600337 2.995971 13.339439
v -0.610312 2.984434 13.339439
v -0.621155 2.971752 13.339642
v -0.377960 3.113323 13.613172
v -0.445823 3.091820 13.613181
v -0.513008 3.070489 13.613181
v -0.543317 3.056159 13.613219
v -0.557265 3.045093 13.613219
v -0.571214 3.034027 13.613219
v -0.582131 3.022684 13.613370
v -0.590364 3.012719 13.613370
v -0.598597 3.002755 13.613370
v -0.378307 3.126631 13.887103
v -0.426825 3.111104 13.887115
v -0.474624 3.095758 13.887115
v -0.522423 3.080412 13.887115
v -0.534974 3.071606 13.887156
v -0.544946 3.063408 13.887156
v -0.554918 3.055209 13.887156
v -0.566116 3.045859 13.887304
v -0.572026 3.038428 13.887304
v -0.378618 3.139991 14.161016
v -0.409355 3.129984 14.161016
v -0.440857 3.119783 14.161027
v -0.471594 3.109776 14.161027
v -0.502331 3.099768 14.161027
v -0.520863 3.091886 14.161073
v -0.527311 3.086375 14.161073
v -0.533759 3.080864 14.161073
v -0.540207 3.075353 14.161073
v -0.378894 3.153402 14.434927
v -0.400822 3.146138 14.434927
v -0.423565 3.138667 14.434940
v -0.445492 3.131403 14.434940
v -0.467420 3.124139 14.434940
v -0.489347 3.116875 14.434940
v -0.509860 3.109716 14.434990
v -0.514489 3.105588 14.434990
v -0.519118 3.101460 14.434990
v -0.379135 3.166867 14.708879
v -0.402114 3.159091 14.708879
v -0.425968 3.151091 14.708896
v -0.448948 3.143315 14.708896
v -0.471927 3.135539 14.708896
v -0.494907 3.127762 14.708896
v -0.504795 3.122137 14.708949
v -0.509681 3.117571 14.708949
v -0.514566 3.113005 14.708949
v -0.377151 3.177077 14.982864
v -0.409246 3.166062 14.982886
v -0.440407 3.155287 14.982886
v -0.471567 3.144512 14.982886
v -0.493973 3.135062 14.982942
v -0.500648 3.128536 14.982942
v -0.507323 3.122009 14.982942
v -0.513998 3.115483 14.982942
v -0.520673 3.108956 14.982942
v -0.373258 3.184492 15.256810
v -0.415300 3.169726 15.256836
v -0.456346 3.155218 15.256836
v -0.484287 3.142714 15.256894
v -0.493151 3.133661 15.256894
v -0.502015 3.124607 15.256894
v -0.511978 3.114097 15.257048
v -0.517381 3.105630 15.257048
v -0.522784 3.097164 15.257048
v -0.369331 3.191942 15.530723
v -0.417369 3.174617 15.530750
v -0.464340 3.157572 15.530750
v -0.478788 3.145665 15.530813
v -0.489026 3.134699 15.530813
v -0.499970 3.122275 15.530970
v -0.506255 3.111963 15.530970
v -0.512540 3.101651 15.530970
v -0.518826 3.091340 15.530970
v -0.365368 3.199426 15.804634
v -0.412340 3.181961 15.804666
v -0.458603 3.164453 15.804733
v -0.468697 3.153063 15.804733
v -0.478791 3.141673 15.804733
v -0.488710 3.128898 15.804893
v -0.494957 3.118129 15.804893
v -0.501205 3.107361 15.804893
v -0.507806 3.095556 15.804980
v -0.361369 3.206945 16.078569
v -0.400641 3.191823 16.078604
v -0.438672 3.177036 16.078604
v -0.454159 3.165485 16.078674
v -0.462639 3.155352 16.078674
v -0.472833 3.143465 16.078831
v -0.478131 3.133833 16.078831
v -0.483429 3.124202 16.078831
v -0.488727 3.114571 16.078831
v -0.356585 3.212557 16.352545
v -0.384989 3.201219 16.352583
v -0.412049 3.190251 16.352583
v -0.436902 3.179265 16.352655
v -0.443020 3.171514 16.352655
v -0.449137 3.163764 16.352655
v -0.455255 3.156013 16.352655
v -0.461831 3.146639 16.352793
v -0.465691 3.139235 16.352793
v -0.350354 3.214505 16.626499
v -0.367552 3.207236 16.626499
v -0.386198 3.199560 16.626543
v -0.403397 3.192291 16.626543
v -0.420595 3.185022 16.626543
v -0.427272 3.178927 16.626616
v -0.431216 3.173644 16.626616
v -0.435160 3.168360 16.626616
v -0.439104 3.163077 16.626616
v -0.344105 3.216474 16.900412
v -0.355497 3.211416 16.900412
v -0.368457 3.205906 16.900459
v -0.379849 3.200848 16.900459
v -0.391241 3.195791 16.900459
v -0.402633 3.190733 16.900459
v -0.412491 3.185445 16.900536
v -0.415148 3.181663 16.900536
v -0.417804 3.177882 16.900536
v -0.337839 3.218462 17.174324
v -0.348480 3.213456 17.174324
v -0.360831 3.207940 17.174376
v -0.371472 3.202934 17.174376
v -0.382113 3.197928 17.174376
v -0.392754 3.192922 17.174376
v -0.400739 3.187779 17.174458
v -0.403270 3.183927 17.174458
v -0.405801 3.180075 17.174458
v -0.331555 3.220470 17.448246
v -0.346945 3.213077 17.448303
v -0.360459 3.206269 17.448303
v -0.373972 3.199461 17.448303
v -0.387722 3.192033 17.448389
v -0.391013 3.186640 17.448389
v -0.394304 3.181247 17.448389
v -0.397596 3.175855 17.448389
v -0.400887 3.170462 17.448389
v -0.325019 3.221633 17.722221
v -0.344305 3.211559 17.722282
v -0.361519 3.202165 17.722282
v -0.376363 3.192422 17.722366
v -0.380677 3.184767 17.722366
v -0.384990 3.177111 17.722366
v -0.389304 3.169455 17.722366
v -0.393801 3.160044 17.722454
v -0.396717 3.152577 17.722454
v -0.317166 3.217972 17.996189
v -0.338797 3.205710 17.996254
v -0.358150 3.194237 17.996254
v -0.366527 3.183456 17.996332
v -0.371529 3.173866 17.996332
v -0.377560 3.162429 17.996395
v -0.381005 3.153044 17.996395
v -0.384450 3.143658 17.996395
v -0.387896 3.134273 17.996395
v -0.309317 3.214322 18.270102
v -0.330227 3.201359 18.270172
v -0.349530 3.188377 18.270252
v -0.354469 3.178064 18.270252
v -0.359408 3.167750 18.270252
v -0.364680 3.155728 18.270311
v -0.368157 3.145602 18.270311
v -0.371633 3.135475 18.270311
v -0.375195 3.124771 18.270334
vn -0.3118 0.9477 -0.0689
vn -0.3109 0.9479 -0.0692
vn -0.3118 0.9476 -0.0696
vn -0.3149 0.9465 -0.0700
vn -0.3149 0.9465 -0.0704
vn -0.3183 0.9454 -0.0701
vn -0.4652 0.8831 -0.0602
vn -0.4653 0.8832 -0.0592
vn -0.3081 0.9490 -0.0671
vn -0.3109 0.9480 -0.0676
vn -0.3118 0.9477 -0.0681
vn -0.3118 0.9477 -0.0687
vn -0.3190 0.9458 -0.0611
vn -0.4654 0.8834 -0.0552
vn -0.4654 0.8835 -0.0534
vn -0.4655 0.8836 -0.0516
vn -0.3052 0.9499 -0.0670
vn -0.3087 0.9487 -0.0677
vn -0.3087 0.9487 -0.0685
vn -0.3839 0.9213 -0.0620
vn -0.4889 0.8708 -0.0516
vn -0.4889 0.8710 -0.0487
vn -0.4891 0.8713 -0.0407
vn -0.5459 0.8374 -0.0294
vn -0.3022 0.9509 -0.0670
vn -0.3056 0.9497 -0.0678
vn -0.5193 0.8512 -0.0758
vn -0.5560 0.8298 -0.0477
vn -0.6026 0.7969 -0.0420
vn -0.7140 0.6996 -0.0275
vn -0.7142 0.6997 -0.0150
vn -0.7143 0.6998 -0.0122
vn -0.2991 0.9519 -0.0670
vn -0.2995 0.9517 -0.0679
vn -0.5933 0.8035 -0.0497
vn -0.6047 0.7955 -0.0398
vn -0.6592 0.7514 -0.0278
vn -0.7565 0.6540 -0.0072
vn -0.7565 0.6540 -0.0035
vn -0.7600 0.6499 0.0009
vn -0.3016 0.9519 -0.0532
vn -0.3022 0.9518 -0.0524
vn -0.4272 0.9035 -0.0350
vn -0.6212 0.7830 -0.0304
vn -0.6213 0.7831 -0.0287
vn -0.7205 0.6933 -0.0168
vn -0.7709 0.6369 -0.0109
vn -0.7709 0.6369 -0.0096
vn -0.3045 0.9514 -0.0466
vn -0.3054 0.9511 -0.0458
vn -0.3054 0.9512 -0.0450
vn -0.5742 0.8182 -0.0286
vn -0.6349 0.7723 -0.0231
vn -0.6349 0.7723 -0.0219
vn -0.6409 0.7671 -0.0274
vn -0.7826 0.6225 -0.0060
vn -0.3092 0.9498 -0.0467
vn -0.3078 0.9504 -0.0459
vn -0.3093 0.9499 -0.0452
vn -0.3093 0.9499 -0.0444
vn -0.3911 0.9191 -0.0479
vn -0.6496 0.7600 -0.0219
vn -0.6496 0.7600 -0.0210
vn -0.6496 0.7600 -0.0204
vn -0.3141 0.9482 -0.0467
vn -0.3118 0.9490 -0.0463
vn -0.3141 0.9483 -0.0455
vn -0.3141 0.9483 -0.0449
vn -0.3142 0.9483 -0.0443
vn -0.3292 0.9430 -0.0482
vn -0.6655 0.7461 -0.0212
vn -0.6655 0.7461 -0.0205
vn -0.3202 0.9462 -0.0468
vn -0.3176 0.9471 -0.0463
vn -0.3202 0.9462 -0.0457
vn -0.3141 0.9483 -0.0452
vn -0.3142 0.9483 -0.0446
vn -0.4942 0.8682 -0.0445
vn -0.6826 0.7305 -0.0205
vn -0.6827 0.7304 -0.0200
vn -0.3245 0.9453 -0.0329
vn -0.3178 0.9476 -0.0324
vn -0.3204 0.9468 -0.0314
vn -0.3204 0.9468 -0.0306
vn -0.3204 0.9470 -0.0241
vn -0.4945 0.8691 -0.0128
vn -0.6828 0.7306 -0.0060
vn -0.6828 0.7306 -0.0052
vn -0.3313 0.9433 -0.0208
vn -0.3267 0.9449 -0.0199
vn -0.3267 0.9449 -0.0188
vn -0.3886 0.9213 -0.0120
vn -0.6991 0.7150 0.0058
vn -0.6991 0.7150 0.0068
vn -0.6991 0.7150 0.0088
vn -0.6990 0.7149 0.0171
vn -0.3392 0.9405 -0.0207
vn -0.3332 0.9427 -0.0193
vn -0.4084 0.9126 -0.0198
vn -0.7310 0.6824 0.0073
vn -0.7503 0.6611 0.0088
vn -0.7256 0.6880 0.0113
vn -0.8537 0.5203 0.0219
vn -0.8428 0.5378 0.0227
vn -0.3484 0.9371 -0.0206
vn -0.3539 0.9351 -0.0186
vn -0.7484 0.6632 -0.0010
vn -0.7484 0.6632 0.0097
vn -0.7897 0.6133 0.0139
vn -0.8647 0.5017 0.0234
vn -0.8647 0.5017 0.0244
vn -0.8724 0.4880 0.0259
vn -0.3593 0.9330 -0.0204
vn -0.3623 0.9319 -0.0181
vn -0.5978 0.8016 0.0067
vn -0.7668 0.6418 0.0116
vn -0.7590 0.6510 0.0122
vn -0.8759 0.4818 0.0251
vn -0.8759 0.4818 0.0262
vn -0.8759 0.4818 0.0272
vn -0.3707 0.9287 -0.0125
vn -0.3756 0.9267 -0.0103
vn -0.4043 0.9146 -0.0048
vn -0.7848 0.6194 0.0183
vn -0.7848 0.6194 0.0197
vn -0.7848 0.6194 0.0220
vn -0.8183 0.5744 0.0218
vn -0.8863 0.4621 0.0320
vn -0.3893 0.9211 0.0023
vn -0.3807 0.9247 0.0039
vn -0.3893 0.9211 0.0054
vn -0.3893 0.9211 0.0038
vn -0.6740 0.7385 0.0188
vn -0.8009 0.5979 0.0308
vn -0.8009 0.5979 0.0318
vn -0.8010 0.5979 0.0306
vn -0.4058 0.9140 0.0027
vn -0.3913 0.9203 0.0032
vn -0.4058 0.9140 0.0051
vn -0.4058 0.9140 0.0063
vn -0.4058 0.9140 0.0076
vn -0.4727 0.8812 0.0045
vn -0.8179 0.5745 0.0312
vn -0.8179 0.5745 0.0319
vn -0.4257 0.9049 0.0032
vn -0.4078 0.9130 0.0036
vn -0.4257 0.9049 0.0051
vn -0.4257 0.9049 0.0061
vn -0.4257 0.9049 0.0071
vn -0.5414 0.8407 0.0128
vn -0.8353 0.5488 0.0312
vn -0.8353 0.5489 0.0317
vn -0.4330 0.9014 0.0033
vn -0.4257 0.9049 0.0076
vn -0.4256 0.9048 0.0108
vn -0.5412 0.8406 0.0227
vn -0.8353 0.5488 0.0327
vn -0.8353 0.5488 0.0335
vn -0.4630 0.8863 0.0073
vn -0.4499 0.8930 0.0093
vn -0.4499 0.8930 0.0116
vn -0.4751 0.8797 0.0184
vn -0.8530 0.5206 0.0357
vn -0.8530 0.5206 0.0369
vn -0.8530 0.5206 0.0380
vn -0.8528 0.5205 0.0418
vn -0.4929 0.8697 0.0257
vn -0.5098 0.8598 0.0286
vn -0.5483 0.8357 0.0309
vn -0.8702 0.4904 0.0473
vn -0.8702 0.4903 0.0486
vn -0.8701 0.4903 0.0499
vn -0.9008 0.4310 0.0531
vn -0.9302 0.3632 0.0535
vn -0.5267 0.8497 0.0264
vn -0.5577 0.8295 0.0306
vn -0.7889 0.6133 0.0379
vn -0.9009 0.4314 0.0481
vn -0.8834 0.4661 0.0495
vn -0.9375 0.3441 0.0525
vn -0.9374 0.3441 0.0533
vn -0.9374 0.3441 0.0541
vn -0.3149 0.9466 -0.0691
vn -0.3139 0.9469 -0.0695
vn -0.3118 0.9476 -0.0703
vn -0.3189 0.9452 -0.0701
vn -0.4653 0.8831 -0.0602
vn -0.4459 0.8931 -0.0594
vn -0.4460 0.8932 -0.0583
vn -0.3118 0.9477 -0.0676
vn -0.3087 0.9487 -0.0679
vn -0.3087 0.9487 -0.0683
vn -0.3837 0.9209 -0.0680
vn -0.4887 0.8706 -0.0562
vn -0.4888 0.8707 -0.0549
vn -0.4888 0.8707 -0.0535
vn -0.5455 0.8364 -0.0533
vn -0.3081 0.9489 -0.0677
vn -0.3056 0.9497 -0.0682
vn -0.3708 0.9267 -0.0613
vn -0.5183 0.8536 -0.0520
vn -0.5184 0.8537 -0.0497
vn -0.5827 0.8114 -0.0442
vn -0.6770 0.7352 -0.0319
vn -0.6772 0.7354 -0.0220
vn -0.3052 0.9499 -0.0678
vn -0.3026 0.9507 -0.0686
vn -0.3709 0.9270 -0.0549
vn -0.5185 0.8539 -0.0455
vn -0.5186 0.8542 -0.0372
vn -0.5830 0.8121 -0.0242
vn -0.6773 0.7355 -0.0147
vn -0.6774 0.7356 -0.0117
vn -0.3022 0.9508 -0.0678
vn -0.3026 0.9506 -0.0687
vn -0.5202 0.8527 -0.0483
vn -0.5562 0.8301 -0.0402
vn -0.6028 0.7974 -0.0295
vn -0.7143 0.6998 -0.0104
vn -0.7143 0.6998 -0.0069
vn -0.7143 0.6998 -0.0028
vn -0.2994 0.9527 -0.0526
vn -0.2998 0.9526 -0.0519
vn -0.5937 0.8040 -0.0336
vn -0.6049 0.7957 -0.0309
vn -0.6592 0.7515 -0.0267
vn -0.7564 0.6540 -0.0135
vn -0.7564 0.6540 -0.0124
vn -0.7601 0.6497 -0.0109
vn -0.3017 0.9523 -0.0461
vn -0.3023 0.9521 -0.0455
vn -0.4270 0.9030 -0.0474
vn -0.6213 0.7832 -0.0252
vn -0.6213 0.7832 -0.0244
vn -0.7205 0.6934 -0.0108
vn -0.7709 0.6369 -0.0088
vn -0.7709 0.6369 -0.0082
vn -0.3045 0.9514 -0.0462
vn -0.3054 0.9512 -0.0453
vn -0.5743 0.8185 -0.0157
vn -0.6348 0.7723 -0.0245
vn -0.6349 0.7722 -0.0239
vn -0.6410 0.7672 -0.0223
vn -0.7826 0.6225 0.0070
vn -0.3093 0.9498 -0.0464
vn -0.3077 0.9504 -0.0461
vn -0.3093 0.9499 -0.0455
vn -0.3093 0.9499 -0.0451
vn -0.3912 0.9195 -0.0389
vn -0.6495 0.7600 -0.0234
vn -0.6496 0.7600 -0.0229
vn -0.6495 0.7600 -0.0224
vn -0.3141 0.9483 -0.0463
vn -0.3118 0.9490 -0.0458
vn -0.3202 0.9463 -0.0446
vn -0.3202 0.9463 -0.0441
vn -0.3294 0.9435 -0.0367
vn -0.6655 0.7461 -0.0210
vn -0.6655 0.7462 -0.0204
vn -0.3204 0.9467 -0.0324
vn -0.3266 0.9446 -0.0317
vn -0.3266 0.9446 -0.0311
vn -0.3885 0.9210 -0.0297
vn -0.6990 0.7149 -0.0167
vn -0.6991 0.7150 -0.0061
vn -0.6991 0.7150 -0.0056
vn -0.6991 0.7150 -0.0050
vn -0.3246 0.9457 -0.0198
vn -0.3332 0.9427 -0.0191
vn -0.4085 0.9127 -0.0130
vn -0.7145 0.6996 0.0057
vn -0.7145 0.6996 0.0065
vn -0.7257 0.6880 0.0075
vn -0.8430 0.5379 0.0089
vn -0.8429 0.5379 0.0166
vn -0.3313 0.9433 -0.0193
vn -0.3411 0.9399 -0.0180
vn -0.6359 0.7717 0.0045
vn -0.7145 0.6996 0.0081
vn -0.7145 0.6995 0.0113
vn -0.8537 0.5203 0.0234
vn -0.3392 0.9405 -0.0190
vn -0.3411 0.9399 -0.0165
vn -0.6360 0.7717 0.0026
vn -0.7309 0.6824 0.0099
vn -0.7502 0.6610 0.0149
vn -0.8537 0.5203 0.0235
vn -0.8536 0.5203 0.0245
vn -0.8536 0.5203 0.0263
vn -0.3485 0.9371 -0.0189
vn -0.3539 0.9351 -0.0172
vn -0.7484 0.6632 0.0096
vn -0.7484 0.6632 0.0110
vn -0.7897 0.6133 0.0132
vn -0.8647 0.5017 0.0253
vn -0.8724 0.4880 0.0269
vn -0.3593 0.9331 -0.0115
vn -0.3624 0.9320 -0.0097
vn -0.5979 0.8016 -0.0027
vn -0.7667 0.6417 0.0170
vn -0.7589 0.6510 0.0174
vn -0.8757 0.4817 0.0341
vn -0.8758 0.4818 0.0296
vn -0.8758 0.4817 0.0303
vn -0.3707 0.9287 0.0032
vn -0.3756 0.9268 0.0040
vn -0.4043 0.9146 0.0060
vn -0.7845 0.6192 0.0337
vn -0.7846 0.6193 0.0283
vn -0.7846 0.6193 0.0290
vn -0.8179 0.5743 0.0341
vn -0.8858 0.4618 0.0458
vn -0.3893 0.9211 0.0031
vn -0.3807 0.9247 0.0032
vn -0.3893 0.9211 0.0047
vn -0.3893 0.9211 0.0055
vn -0.6737 0.7384 0.0288
vn -0.8010 0.5980 0.0290
vn -0.8010 0.5980 0.0295
vn -0.8010 0.5980 0.0300
vn -0.4058 0.9140 0.0036
vn -0.3913 0.9203 0.0041
vn -0.4058 0.9140 0.0054
vn -0.4058 0.9140 0.0064
vn -0.4058 0.9140 0.0073
vn -0.4726 0.8812 0.0128
vn -0.8179 0.5745 0.0307
vn -0.4257 0.9049 0.0036
vn -0.4499 0.8930 0.0061
vn -0.4499 0.8930 0.0072
vn -0.4752 0.8798 0.0092
vn -0.8534 0.5209 0.0174
vn -0.8531 0.5207 0.0325
vn -0.8531 0.5207 0.0330
vn -0.8531 0.5207 0.0336
vn -0.4330 0.9014 0.0092
vn -0.4790 0.8777 0.0113
vn -0.5486 0.8359 0.0167
vn -0.8707 0.4906 0.0354
vn -0.8707 0.4906 0.0362
vn -0.8706 0.4906 0.0370
vn -0.9015 0.4312 0.0374
vn -0.9308 0.3635 0.0379
vn -0.4627 0.8860 0.0282
vn -0.4788 0.8774 0.0313
vn -0.7885 0.6131 0.0484
vn -0.8856 0.4620 0.0479
vn -0.8834 0.4661 0.0489
vn -0.9376 0.3442 0.0490
vn -0.9375 0.3441 0.0526
vn -0.9374 0.3441 0.0532
vn -0.4929 0.8696 0.0292
vn -0.5097 0.8597 0.0344
vn -0.8855 0.4619 0.0495
vn -0.9144 0.4013 0.0528
vn -0.9445 0.3242 0.0531
vn -0.9444 0.3242 0.0539
vn -0.9474 0.3154 0.0549
s 0
usemtl crack
f 1//1 11//1 10//1
f 2//2 12//2 11//2
f 3//3 13//3 12//3
f 5//4 13//4 4//4
f 6//5 14//5 5//5
f 7//6 15//6 6//6
f 7//7 17//7 16//7
f 8//8 18//8 17//8
f 10//9 20//9 19//9
f 12//10 20//10 11//10
f 13//11 21//11 12//11
f 14//12 22//12 13//12
f 15//13 23//13 14//13
f 16//14 24//14 15//14
f 17//15 25//15 16//15
f 18//16 26//16 17//16
f 19//17 29//17 28//17
f 21//18 29//18 20//18
f 22//19 30//19 21//19
f 23//20 31//20 22//20
f 24//21 32//21 23//21
f 25//22 33//22 24//22
f 26//23 34//23 25//23
f 27//24 35//24 26//24
f 28//25 38//25 37//25
f 30//26 38//26 29//26
f 30//27 40//27 39//27
f 31//28 41//28 40//28
f 32//29 42//29 41//29
f 33//30 43//30 42//30
f 34//31 44//31 43//31
f 35//32 45//32 44//32
f 37//33 47//33 46//33
f 38//34 48//34 47//34
f 39//35 49//35 48//35
f 40//36 50//36 49//36
f 41//37 51//37 50//37
f 42//38 52//38 51//38
f 43//39 53//39 52//39
f 44//40 54//40 53//40
f 46//41 56//41 55//41
f 47//42 57//42 56//42
f 48//43 58//43 57//43
f 49//44 59//44 58//44
f 50//45 60//45 59//45
f 51//46 61//46 60//46
f 52//47 62//47 61//47
f 53//48 63//48 62//48
f 55//49 65//49 64//49
f 56//50 66//50 65//50
f 57//51 67//51 66//51
f 58//52 68//52 67//52
f 59//53 69//53 68//53
f 60//54 70//54 69//54
f 61//55 71//55 70//55
f 62//56 72//56 71//56
f 64//57 74//57 73//57
f 65//58 75//58 74//58
f 66//59 76//59 75//59
f 67//60 77//60 76//60
f 68//61 78//61 77//61
f 69//62 79//62 78//62
f 70//63 80//63 79//63
f 71//64 81//64 80//64
f 73//65 83//65 82//65
f 74//66 84//66 83//66
f 75//67 85//67 84//67
f 76//68 86//68 85//68
f 77//69 87//69 86//69
f 78//70 88//70 87//70
f 79//71 89//71 88//71
f 80//72 90//72 89//72
f 82//73 92//73 91//73
f 83//74 93//74 92//74
f 84//75 94//75 93//75
f 86//76 94//76 85//76
f 87//77 95//77 86//77
f 87//78 97//78 96//78
f 88//79 98//79 97//79
f 89//80 99//80 98//80
f 91//81 101//81 100//81
f 93//82 101//82 92//82
f 94//83 102//83 93//83
f 95//84 103//84 94//84
f 96//85 104//85 95//85
f 97//86 105//86 96//86
f 98//87 106//87 97//87
f 99//88 107//88 98//88
f 100//89 110//89 109//89
f 102//90 110//90 101//90
f 103//91 111//91 102//91
f 104//92 112//92 103//92
f 105//93 113//93 104//93
f 106//94 114//94 105//94
f 107//95 115//95 106//95
f 108//96 116//96 107//96
f 109//97 119//97 118//97
f 111//98 119//98 110//98
f 112//99 120//99 111//99
f 112//100 122//100 121//100
f 113//101 123//101 122//101
f 115//102 123//102 114//102
f 115//103 125//103 124//103
f 117//104 125//104 116//104
f 118//105 128//105 127//105
f 119//106 129//106 128//106
f 120//107 130//107 129//107
f 121//108 131//108 130//108
f 122//109 132//109 131//109
f 123//110 133//110 132//110
f 124//111 134//111 133//111
f 125//112 135//112 134//112
f 127//113 137//113 136//113
f 128//114 138//114 137//114
f 129//115 139//115 138//115
f 130//116 140//116 139//116
f 131//117 141//117 140//117
f 132//118 142//118 141//118
f 133//119 143//119 142//119
f 134//120 144//120 143//120
f 136//121 146//121 145//121
f 137//122 147//122 146//122
f 138//123 148//123 147//123
f 139//124 149//124 148//124
f 140//125 150//125 149//125
f 141//126 151//126 150//126
f 142//127 152//127 151//127
f 143//128 153//128 152//128
f 145//129 155//129 154//129
f 146//130 156//130 155//130
f 147//131 157//131 156//131
f 148//132 158//132 157//132
f 149//133 159//133 158//133
f 150//134 160//134 159//134
f 151//135 161//135 160//135
f 152//136 162//136 161//136
f 154//137 164//137 163//137
f 155//138 165//138 164//138
f 156//139 166//139 165//139
f 157//140 167//140 166//140
f 158//141 168//141 167//141
f 159//142 169//142 168//142
f 160//143 170//143 169//143
f 161//144 171//144 170//144
f 163//145 173//145 172//145
f 164//146 174//146 173//146
f 165//147 175//147 174//147
f 166//148 176//148 175//148
f 167//149 177//149 176//149
f 168//150 178//150 177//150
f 169//151 179//151 178//151
f 170//152 180//152 179//152
f 172//153 182//153 181//153
f 174//146 182//146 173//146
f 175//148 183//148 174//148
f 176//154 184//154 175//154
f 177//155 185//155 176//155
f 178//156 186//156 177//156
f 179//157 187//157 178//157
f 180//158 188//158 179//158
f 181//159 191//159 190//159
f 183//160 191//160 182//160
f 184//161 192//161 183//161
f 185//162 193//162 184//162
f 186//163 194//163 185//163
f 187//164 195//164 186//164
f 188//165 196//165 187//165
f 189//166 197//166 188//166
f 190//167 200//167 199//167
f 191//168 201//168 200//168
f 193//169 201//169 192//169
f 194//170 202//170 193//170
f 195//171 203//171 194//171
f 196//172 204//172 195//172
f 197//173 205//173 196//173
f 198//174 206//174 197//174
f 199//175 209//175 208//175
f 200//176 210//176 209//176
f 202//177 210//177 201//177
f 202//178 212//178 211//178
f 204//179 212//179 203//179
f 205//180 213//180 204//180
f 206//181 214//181 205//181
f 207//182 215//182 206//182
f 1//183 2//183 11//183
f 2//184 3//184 12//184
f 3//4 4//4 13//4
f 5//185 14//185 13//185
f 6//186 15//186 14//186
f 7//187 16//187 15//187
f 7//188 8//188 17//188
f 8//189 9//189 18//189
f 10//190 11//190 20//190
f 12//191 21//191 20//191
f 13//192 22//192 21//192
f 14//193 23//193 22//193
f 15//194 24//194 23//194
f 16//195 25//195 24//195
f 17//196 26//196 25//196
f 18//197 27//197 26//197
f 19//198 20//198 29//198
f 21//199 30//199 29//199
f 22//200 31//200 30//200
f 23//201 32//201 31//201
f 24//202 33//202 32//202
f 25//203 34//203 33//203
f 26//204 35//204 34//204
f 27//205 36//205 35//205
f 28//206 29//206 38//206
f 30//207 39//207 38//207
f 30//208 31//208 40//208
f 31//209 32//209 41//209
f 32//210 33//210 42//210
f 33//211 34//211 43//211
f 34//212 35//212 44//212
f 35//213 36//213 45//213
f 37//214 38//214 47//214
f 38//215 39//215 48//215
f 39//216 40//216 49//216
f 40//217 41//217 50//217
f 41//218 42//218 51//218
f 42//219 43//219 52//219
f 43//220 44//220 53//220
f 44//221 45//221 54//221
f 46//222 47//222 56//222
f 47//223 48//223 57//223
f 48//224 49//224 58//224
f 49//225 50//225 59//225
f 50//226 51//226 60//226
f 51//227 52//227 61//227
f 52//228 53//228 62//228
f 53//229 54//229 63//229
f 55//230 56//230 65//230
f 56//231 57//231 66//231
f 57//232 58//232 67//232
f 58//233 59//233 68//233
f 59//234 60//234 69//234
f 60//235 61//235 70//235
f 61//236 62//236 71//236
f 62//237 63//237 72//237
f 64//238 65//238 74//238
f 65//50 66//50 75//50
f 66//239 67//239 76//239
f 67//240 68//240 77//240
f 68//241 69//241 78//241
f 69//242 70//242 79//242
f 70//243 71//243 80//243
f 71//244 72//244 81//244
f 73//245 74//245 83//245
f 74//246 75//246 84//246
f 75//247 76//247 85//247
f 76//248 77//248 86//248
f 77//249 78//249 87//249
f 78//250 79//250 88//250
f 79//251 80//251 89//251
f 80//252 81//252 90//252
f 82//253 83//253 92//253
f 83//254 84//254 93//254
f 84//76 85//76 94//76
f 86//255 95//255 94//255
f 87//256 96//256 95//256
f 87//257 88//257 97//257
f 88//258 89//258 98//258
f 89//259 90//259 99//259
f 91//260 92//260 101//260
f 93//261 102//261 101//261
f 94//262 103//262 102//262
f 95//263 104//263 103//263
f 96//264 105//264 104//264
f 97//265 106//265 105//265
f 98//266 107//266 106//266
f 99//267 108//267 107//267
f 100//268 101//268 110//268
f 102//269 111//269 110//269
f 103//270 112//270 111//270
f 104//271 113//271 112//271
f 105//272 114//272 113//272
f 106//273 115//273 114//273
f 107//274 116//274 115//274
f 108//275 117//275 116//275
f 109//276 110//276 119//276
f 111//277 120//277 119//277
f 112//278 121//278 120//278
f 112//279 113//279 122//279
f 113//280 114//280 123//280
f 115//103 124//103 123//103
f 115//104 116//104 125//104
f 117//281 126//281 125//281
f 118//282 119//282 128//282
f 119//283 120//283 129//283
f 120//284 121//284 130//284
f 121//285 122//285 131//285
f 122//286 123//286 132//286
f 123//287 124//287 133//287
f 124//288 125//288 134//288
f 125//289 126//289 135//289
f 127//290 128//290 137//290
f 128//291 129//291 138//291
f 129//292 130//292 139//292
f 130//293 131//293 140//293
f 131//294 132//294 141//294
f 132//111 133//111 142//111
f 133//295 134//295 143//295
f 134//296 135//296 144//296
f 136//297 137//297 146//297
f 137//298 138//298 147//298
f 138//299 139//299 148//299
f 139//300 140//300 149//300
f 140//301 141//301 150//301
f 141//302 142//302 151//302
f 142//303 143//303 152//303
f 143//304 144//304 153//304
f 145//305 146//305 155//305
f 146//306 147//306 156//306
f 147//307 148//307 157//307
f 148//308 149//308 158//308
f 149//309 150//309 159//309
f 150//310 151//310 160//310
f 151//311 152//311 161//311
f 152//312 153//312 162//312
f 154//313 155//313 164//313
f 155//314 156//314 165//314
f 156//315 157//315 166//315
f 157//316 158//316 167//316
f 158//317 159//317 168//317
f 159//318 160//318 169//318
f 160//319 161//319 170//319
f 161//320 162//320 171//320
f 163//321 164//321 173//321
f 164//322 165//322 174//322
f 165//323 166//323 175//323
f 166//324 167//324 176//324
f 167//325 168//325 177//325
f 168//326 169//326 178//326
f 169//327 170//327 179//327
f 170//143 171//143 180//143
f 172//328 173//328 182//328
f 174//329 183//329 182//329
f 175//330 184//330 183//330
f 176//331 185//331 184//331
f 177//332 186//332 185//332
f 178//333 187//333 186//333
f 179//334 188//334 187//334
f 180//335 189//335 188//335
f 181//336 182//336 191//336
f 183//337 192//337 191//337
f 184//338 193//338 192//338
f 185//339 194//339 193//339
f 186//340 195//340 194//340
f 187//341 196//341 195//341
f 188//342 197//342 196//342
f 189//343 198//343 197//343
f 190//344 191//344 200//344
f 191//345 192//345 201//345
f 193//346 202//346 201//346
f 194//347 203//347 202//347
f 195//348 204//348 203//348
f 196//349 205//349 204//349
f 197//350 206//350 205//350
f 198//351 207//351 206//351
f 199//352 200//352 209//352
f 200//353 201//353 210//353
f 202//178 211//178 210//178
f 202//354 203//354 212//354
f 204//355 213//355 212//355
f 205//356 214//356 213//356
f 206//357 215//357 214//357
f 207//358 216//358 215//358
