# Blender 5.2.2 LTS
# www.blender.org
mtllib fault_fretting.mtl
o fault_fretting
v -5.500000 0.290000 0.000000
v -5.450000 0.290000 -0.000000
v -5.500000 0.288604 -0.028425
v -5.450000 0.288604 -0.028425
v -5.500000 0.284428 -0.056576
v -5.450000 0.284428 -0.056576
v -5.500000 0.277513 -0.084183
v -5.450000 0.277513 -0.084183
v -5.500000 0.267925 -0.110978
v -5.450000 0.267925 -0.110978
v -5.500000 0.255757 -0.136705
v -5.450000 0.255757 -0.136705
v -5.500000 0.241126 -0.161115
v -5.450000 0.241126 -0.161115
v -5.500000 0.224173 -0.183974
v -5.450000 0.224173 -0.183974
v -5.500000 0.205061 -0.205061
v -5.450000 0.205061 -0.205061
v -5.500000 0.183974 -0.224173
v -5.450000 0.183974 -0.224173
v -5.500000 0.161115 -0.241126
v -5.450000 0.161115 -0.241126
v -5.500000 0.136705 -0.255757
v -5.450000 0.136705 -0.255757
v -5.500000 0.110978 -0.267925
v -5.450000 0.110978 -0.267925
v -5.500000 0.084183 -0.277513
v -5.450000 0.084183 -0.277513
v -5.500000 0.056576 -0.284428
v -5.450000 0.056576 -0.284428
v -5.500000 0.028425 -0.288604
v -5.450000 0.028425 -0.288604
v -5.500000 0.000000 -0.290000
v -5.450000 0.000000 -0.290000
v -5.500000 -0.028425 -0.288604
v -5.450000 -0.028425 -0.288604
v -5.500000 -0.056576 -0.284428
v -5.450000 -0.056576 -0.284428
v -5.500000 -0.084183 -0.277513
v -5.450000 -0.084183 -0.277513
v -5.500000 -0.110978 -0.267925
v -5.450000 -0.110978 -0.267925
v -5.500000 -0.136705 -0.255757
v -5.450000 -0.136705 -0.255757
v -5.500000 -0.161115 -0.241126
v -5.450000 -0.161115 -0.241126
v -5.500000 -0.183974 -0.224173
v -5.450000 -0.183974 -0.224173
v -5.500000 -0.205061 -0.205061
v -5.450000 -0.205061 -0.205061
v -5.500000 -0.224173 -0.183974
v -5.450000 -0.224173 -0.183974
v -5.500000 -0.241126 -0.161115
v -5.450000 -0.241126 -0.161115
v -5.500000 -0.255757 -0.136705
v -5.450000 -0.255757 -0.136705
v -5.500000 -0.267925 -0.110978
v -5.450000 -0.267925 -0.110978
v -5.500000 -0.277513 -0.084183
v -5.450000 -0.277513 -0.084183
v -5.500000 -0.284428 -0.056576
v -5.450000 -0.284428 -0.056576
v -5.500000 -0.288604 -0.028425
v -5.450000 -0.288604 -0.028425
v -5.500000 -0.290000 0.000000
v -5.450000 -0.290000 -0.000000
v -5.500000 -0.288604 0.028425
v -5.450000 -0.288604 0.028425
v -5.500000 -0.284428 0.056576
v -5.450000 -0.284428 0.056576
v -5.500000 -0.277513 0.084183
v -5.450000 -0.277513 0.084183
v -5.500000 -0.267925 0.110978
v -5.450000 -0.267925 0.110978
v -5.500000 -0.255757 0.136705
v -5.450000 -0.255757 0.136705
v -5.500000 -0.241126 0.161115
v -5.450000 -0.241126 0.161115
v -5.500000 -0.224173 0.183974
v -5.450000 -0.224173 0.183974
v -5.500000 -0.205061 0.205061
v -5.450000 -0.205061 0.205061
v -5.500000 -0.183974 0.224173
v -5.450000 -0.183974 0.224173
v -5.500000 -0.161115 0.241126
v -5.450000 -0.161115 0.241126
v -5.500000 -0.136705 0.255757
v -5.450000 -0.136705 0.255757
v -5.500000 -0.110978 0.267925
v -5.450000 -0.110978 0.267925
v -5.500000 -0.084183 0.277513
v -5.450000 -0.084183 0.277513
v -5.500000 -0.056576 0.284428
v -5.450000 -0.056576 0.284428
v -5.500000 -0.028425 0.288604
v -5.450000 -0.028425 0.288604
v -5.500000 0.000000 0.290000
v -5.450000 0.000000 0.290000
v -5.500000 0.028425 0.288604
v -5.450000 0.028425 0.288604
v -5.500000 0.056576 0.284428
v -5.450000 0.056576 0.284428
v -5.500000 0.084183 0.277513
v -5.450000 0.084183 0.277513
v -5.500000 0.110978 0.267925
v -5.450000 0.110978 0.267925
v -5.500000 0.136705 0.255757
v -5.450000 0.136705 0.255757
v -5.500000 0.161115 0.241126
v -5.450000 0.161115 0.241126
v -5.500000 0.183974 0.224173
v -5.450000 0.183974 0.224173
v -5.500000 0.205061 0.205061
v -5.450000 0.205061 0.205061
v -5.500000 0.224173 0.183974
v -5.450000 0.224173 0.183974
v -5.500000 0.241126 0.161115
v -5.450000 0.241126 0.161115
v -5.500000 0.255757 0.136705
v -5.450000 0.255757 0.136705
v -5.500000 0.267925 0.110978
v -5.450000 0.267925 0.110978
v -5.500000 0.277513 0.084183
v -5.450000 0.277513 0.084183
v -5.500000 0.284428 0.056576
v -5.450000 0.284428 0.056576
v -5.500000 0.288604 0.028425
v -5.450000 0.288604 0.028425
v -5.450000 0.095671 0.230970
v -5.450000 0.117849 0.220480
v -5.450000 0.138893 0.207867
v -5.450000 0.158598 0.193253
v -5.450000 0.193253 0.158598
v -5.450000 0.176777 0.176777
v -5.450000 0.230970 0.095671
v -5.450000 0.220480 0.117849
v -5.450000 0.245196 0.048773
v -5.450000 0.250000 -0.000000
v -5.450000 0.248796 0.024504
v -5.450000 0.239235 0.072571
v -5.450000 0.207867 0.138893
v -5.450000 0.000000 0.250000
v -5.450000 -0.024504 0.248796
v -5.450000 -0.048773 0.245196
v -5.450000 -0.072571 0.239235
v -5.450000 -0.117849 0.220480
v -5.450000 -0.095671 0.230970
v -5.450000 -0.176777 0.176777
v -5.450000 -0.158598 0.193253
v -5.450000 -0.207867 0.138893
v -5.450000 -0.230970 0.095671
v -5.450000 -0.220480 0.117849
v -5.450000 -0.193253 0.158598
v -5.450000 -0.138893 0.207867
v -5.450000 -0.250000 -0.000000
v -5.450000 -0.248796 -0.024504
v -5.450000 -0.245196 -0.048773
v -5.450000 -0.239235 -0.072571
v -5.450000 -0.220480 -0.117849
v -5.450000 -0.230970 -0.095671
v -5.450000 -0.193253 -0.158598
v -5.450000 -0.176777 -0.176777
v -5.450000 -0.158598 -0.193253
v -5.450000 -0.138893 -0.207867
v -5.450000 -0.095671 -0.230970
v -5.450000 -0.117849 -0.220480
v -5.450000 -0.207867 -0.138893
v -5.450000 0.230970 -0.095671
v -5.450000 0.220480 -0.117849
v -5.450000 0.207867 -0.138893
v -5.450000 0.193253 -0.158598
v -5.450000 0.158598 -0.193253
v -5.450000 0.176777 -0.176777
v -5.450000 0.117849 -0.220480
v -5.450000 0.072571 -0.239235
v -5.450000 0.095671 -0.230970
v -5.450000 0.048773 -0.245196
v -5.450000 0.000000 -0.250000
v -5.450000 0.024504 -0.248796
v -5.450000 0.138893 -0.207867
v -5.450000 0.024504 0.248796
v -5.450000 0.072571 0.239235
v -5.450000 0.048773 0.245196
v -5.450000 -0.239235 0.072571
v -5.450000 0.248796 -0.024504
v -5.450000 0.245196 -0.048773
v -5.450000 -0.248796 0.024504
v -5.450000 -0.245196 0.048773
v -5.450000 0.239235 -0.072571
v -5.450000 -0.072571 -0.239235
v -5.450000 -0.048773 -0.245196
v -5.450000 -0.024504 -0.248796
v -5.500000 0.248796 -0.024504
v -5.500000 0.245196 -0.048773
v -5.500000 0.239235 -0.072571
v -5.500000 0.230970 -0.095671
v -5.500000 0.207867 -0.138893
v -5.500000 0.220480 -0.117849
v -5.500000 0.176777 -0.176777
v -5.500000 0.158598 -0.193253
v -5.500000 0.138893 -0.207867
v -5.500000 0.117849 -0.220480
v -5.500000 0.072571 -0.239235
v -5.500000 0.095671 -0.230970
v -5.500000 0.193253 -0.158598
v -5.500000 -0.239235 -0.072571
v -5.500000 -0.230970 -0.095671
v -5.500000 -0.220480 -0.117849
v -5.500000 -0.207867 -0.138893
v -5.500000 -0.176777 -0.176777
v -5.500000 -0.193253 -0.158598
v -5.500000 -0.138893 -0.207867
v -5.500000 -0.095671 -0.230970
v -5.500000 -0.117849 -0.220480
v -5.500000 -0.072571 -0.239235
v -5.500000 -0.024504 -0.248796
v -5.500000 -0.048773 -0.245196
v -5.500000 -0.158598 -0.193253
v -5.500000 -0.072571 0.239235
v -5.500000 -0.095671 0.230970
v -5.500000 -0.117849 0.220480
v -5.500000 -0.138893 0.207867
v -5.500000 -0.176777 0.176777
v -5.500000 -0.158598 0.193253
v -5.500000 -0.220480 0.117849
v -5.500000 -0.207867 0.138893
v -5.500000 -0.239235 0.072571
v -5.500000 -0.248796 0.024504
v -5.500000 -0.245196 0.048773
v -5.500000 -0.230970 0.095671
v -5.500000 -0.193253 0.158598
v -5.500000 0.024504 0.248796
v -5.500000 0.048773 0.245196
v -5.500000 0.072571 0.239235
v -5.500000 0.095671 0.230970
v -5.500000 0.138893 0.207867
v -5.500000 0.117849 0.220480
v -5.500000 0.193253 0.158598
v -5.500000 0.176777 0.176777
v -5.500000 0.220480 0.117849
v -5.500000 0.239235 0.072571
v -5.500000 0.230970 0.095671
v -5.500000 0.207867 0.138893
v -5.500000 0.158598 0.193253
v -5.500000 0.250000 0.000000
v -5.500000 -0.245196 -0.048773
v -5.500000 -0.248796 -0.024504
v -5.500000 0.048773 -0.245196
v -5.500000 0.000000 -0.250000
v -5.500000 0.024504 -0.248796
v -5.500000 0.000000 0.250000
v -5.500000 -0.048773 0.245196
v -5.500000 -0.024504 0.248796
v -5.500000 0.245196 0.048773
v -5.500000 0.248796 0.024504
v -5.500000 -0.250000 0.000000
v -5.500000 -0.020919 -0.259928
v -5.500000 -0.056899 -0.487096
v -5.500000 -0.060427 -0.253670
v -5.500000 -0.096407 -0.480839
v -5.497000 -0.020919 -0.259928
v -5.497000 -0.056899 -0.487096
v -5.497000 -0.060427 -0.253670
v -5.497000 -0.096407 -0.480839
vn -0.0000 0.9988 -0.0491
vn -0.0000 0.9892 -0.1467
vn -0.0000 0.9700 -0.2430
vn -0.0000 0.9415 -0.3369
vn -0.0000 0.9040 -0.4276
vn -0.0000 0.8577 -0.5141
vn -0.0000 0.8032 -0.5957
vn -0.0000 0.7410 -0.6716
vn -0.0000 0.6716 -0.7410
vn -0.0000 0.5957 -0.8032
vn -0.0000 0.5141 -0.8577
vn -0.0000 0.4276 -0.9040
vn -0.0000 0.3369 -0.9415
vn -0.0000 0.2430 -0.9700
vn -0.0000 0.1467 -0.9892
vn -0.0000 0.0491 -0.9988
vn -0.0000 -0.0491 -0.9988
vn -0.0000 -0.1467 -0.9892
vn -0.0000 -0.2430 -0.9700
vn -0.0000 -0.3369 -0.9415
vn -0.0000 -0.4276 -0.9040
vn -0.0000 -0.5141 -0.8577
vn -0.0000 -0.5957 -0.8032
vn -0.0000 -0.6716 -0.7410
vn -0.0000 -0.7410 -0.6716
vn -0.0000 -0.8032 -0.5957
vn -0.0000 -0.8577 -0.5141
vn -0.0000 -0.9040 -0.4276
vn -0.0000 -0.9415 -0.3369
vn -0.0000 -0.9700 -0.2430
vn -0.0000 -0.9892 -0.1467
vn -0.0000 -0.9988 -0.0491
vn -0.0000 -0.9988 0.0491
vn -0.0000 -0.9892 0.1467
vn -0.0000 -0.9700 0.2430
vn -0.0000 -0.9415 0.3369
vn -0.0000 -0.9040 0.4276
vn -0.0000 -0.8577 0.5141
vn -0.0000 -0.8032 0.5957
vn -0.0000 -0.7410 0.6716
vn -0.0000 -0.6716 0.7410
vn -0.0000 -0.5957 0.8032
vn -0.0000 -0.5141 0.8577
vn -0.0000 -0.4276 0.9040
vn -0.0000 -0.3369 0.9415
vn -0.0000 -0.2430 0.9700
vn -0.0000 -0.1467 0.9892
vn -0.0000 -0.0491 0.9988
vn -0.0000 0.0491 0.9988
vn -0.0000 0.1467 0.9892
vn -0.0000 0.2430 0.9700
vn -0.0000 0.3369 0.9415
vn -0.0000 0.4276 0.9040
vn -0.0000 0.5141 0.8577
vn -0.0000 0.5957 0.8032
vn -0.0000 0.6716 0.7410
vn -0.0000 0.7410 0.6716
vn -0.0000 0.8032 0.5957
vn -0.0000 0.8577 0.5141
vn -0.0000 0.9040 0.4276
vn -0.0000 0.9415 0.3369
vn -0.0000 0.9700 0.2430
vn 1.0000 -0.0000 -0.0000
vn -0.0000 0.9892 0.1467
vn -0.0000 0.9988 0.0491
vn -1.0000 -0.0000 -0.0000
vn -0.0000 -0.9877 0.1564
vn -0.0000 0.9877 -0.1564
vn -0.0000 0.1564 0.9877
vn -0.0000 -0.1564 -0.9877
s 0
usemtl rust
f 2//1 3//1 1//1
f 4//2 5//2 3//2
f 6//3 7//3 5//3
f 8//4 9//4 7//4
f 10//5 11//5 9//5
f 12//6 13//6 11//6
f 14//7 15//7 13//7
f 16//8 17//8 15//8
f 18//9 19//9 17//9
f 20//10 21//10 19//10
f 22//11 23//11 21//11
f 24//12 25//12 23//12
f 26//13 27//13 25//13
f 28//14 29//14 27//14
f 30//15 31//15 29//15
f 32//16 33//16 31//16
f 34//17 35//17 33//17
f 36//18 37//18 35//18
f 38//19 39//19 37//19
f 40//20 41//20 39//20
f 42//21 43//21 41//21
f 44//22 45//22 43//22
f 46//23 47//23 45//23
f 48//24 49//24 47//24
f 50//25 51//25 49//25
f 52//26 53//26 51//26
f 54//27 55//27 53//27
f 56//28 57//28 55//28
f 58//29 59//29 57//29
f 60//30 61//30 59//30
f 62//31 63//31 61//31
f 64//32 65//32 63//32
f 66//33 67//33 65//33
f 68//34 69//34 67//34
f 70//35 71//35 69//35
f 72//36 73//36 71//36
f 74//37 75//37 73//37
f 76//38 77//38 75//38
f 78//39 79//39 77//39
f 80//40 81//40 79//40
f 82//41 83//41 81//41
f 84//42 85//42 83//42
f 86//43 87//43 85//43
f 88//44 89//44 87//44
f 90//45 91//45 89//45
f 92//46 93//46 91//46
f 94//47 95//47 93//47
f 96//48 97//48 95//48
f 98//49 99//49 97//49
f 100//50 101//50 99//50
f 102//51 103//51 101//51
f 104//52 105//52 103//52
f 106//53 107//53 105//53
f 108//54 109//54 107//54
f 110//55 111//55 109//55
f 112//56 113//56 111//56
f 114//57 115//57 113//57
f 116//58 117//58 115//58
f 118//59 119//59 117//59
f 120//60 121//60 119//60
f 122//61 123//61 121//61
f 124//62 125//62 123//62
f 64//63 48//63 167//63
f 118//63 141//63 136//63
f 126//64 127//64 125//64
f 128//65 1//65 127//65
f 79//66 223//66 231//66
f 15//66 199//66 205//66
f 185//33 245//33 193//33
f 186//34 193//34 194//34
f 189//35 194//35 195//35
f 168//36 195//36 196//36
f 169//37 196//37 198//37
f 170//38 198//38 197//38
f 171//39 197//39 205//39
f 173//40 205//40 199//40
f 173//41 200//41 172//41
f 172//42 201//42 180//42
f 180//43 202//43 174//43
f 174//44 204//44 176//44
f 176//45 203//45 175//45
f 175//46 248//46 177//46
f 177//47 250//47 179//47
f 179//48 249//48 178//48
f 178//49 216//49 192//49
f 192//50 217//50 191//50
f 191//51 215//51 190//51
f 190//52 213//52 165//52
f 165//53 214//53 166//53
f 166//54 212//54 164//54
f 164//55 218//55 163//55
f 163//56 210//56 162//56
f 162//57 211//57 161//57
f 161//58 209//58 167//58
f 167//59 208//59 159//59
f 159//60 207//60 160//60
f 160//61 206//61 158//61
f 158//62 246//62 157//62
f 157//64 247//64 156//64
f 156//65 256//65 155//65
f 155//1 228//1 187//1
f 187//2 229//2 188//2
f 188//3 227//3 184//3
f 184//4 230//4 151//4
f 151//5 225//5 152//5
f 152//6 226//6 150//6
f 150//7 231//7 153//7
f 153//8 223//8 148//8
f 149//9 223//9 224//9
f 154//10 224//10 222//10
f 146//11 222//11 221//11
f 147//12 221//12 220//12
f 145//13 220//13 219//13
f 144//14 219//14 252//14
f 143//15 252//15 253//15
f 142//16 253//16 251//16
f 181//17 251//17 232//17
f 183//18 232//18 233//18
f 182//19 233//19 234//19
f 129//20 234//20 235//20
f 130//21 235//21 237//21
f 131//22 237//22 236//22
f 132//23 236//23 244//23
f 134//24 244//24 239//24
f 133//25 239//25 238//25
f 141//26 238//26 243//26
f 136//27 243//27 240//27
f 135//28 240//28 242//28
f 140//29 242//29 241//29
f 137//30 241//30 254//30
f 139//31 254//31 255//31
f 138//32 255//32 245//32
f 258//66 259//66 257//66
f 260//67 263//67 259//67
f 264//63 261//63 263//63
f 262//68 257//68 261//68
f 263//69 257//69 259//69
f 260//70 262//70 264//70
f 2//1 4//1 3//1
f 4//2 6//2 5//2
f 6//3 8//3 7//3
f 8//4 10//4 9//4
f 10//5 12//5 11//5
f 12//6 14//6 13//6
f 14//7 16//7 15//7
f 16//8 18//8 17//8
f 18//9 20//9 19//9
f 20//10 22//10 21//10
f 22//11 24//11 23//11
f 24//12 26//12 25//12
f 26//13 28//13 27//13
f 28//14 30//14 29//14
f 30//15 32//15 31//15
f 32//16 34//16 33//16
f 34//17 36//17 35//17
f 36//18 38//18 37//18
f 38//19 40//19 39//19
f 40//20 42//20 41//20
f 42//21 44//21 43//21
f 44//22 46//22 45//22
f 46//23 48//23 47//23
f 48//24 50//24 49//24
f 50//25 52//25 51//25
f 52//26 54//26 53//26
f 54//27 56//27 55//27
f 56//28 58//28 57//28
f 58//29 60//29 59//29
f 60//30 62//30 61//30
f 62//31 64//31 63//31
f 64//32 66//32 65//32
f 66//33 68//33 67//33
f 68//34 70//34 69//34
f 70//35 72//35 71//35
f 72//36 74//36 73//36
f 74//37 76//37 75//37
f 76//38 78//38 77//38
f 78//39 80//39 79//39
f 80//40 82//40 81//40
f 82//41 84//41 83//41
f 84//42 86//42 85//42
f 86//43 88//43 87//43
f 88//44 90//44 89//44
f 90//45 92//45 91//45
f 92//46 94//46 93//46
f 94//47 96//47 95//47
f 96//48 98//48 97//48
f 98//49 100//49 99//49
f 100//50 102//50 101//50
f 102//51 104//51 103//51
f 104//52 106//52 105//52
f 106//53 108//53 107//53
f 108//54 110//54 109//54
f 110//55 112//55 111//55
f 112//56 114//56 113//56
f 114//57 116//57 115//57
f 116//58 118//58 117//58
f 118//59 120//59 119//59
f 120//60 122//60 121//60
f 122//61 124//61 123//61
f 124//62 126//62 125//62
f 183//63 102//63 100//63
f 100//63 98//63 96//63
f 96//63 94//63 92//63
f 92//63 90//63 88//63
f 88//63 86//63 84//63
f 84//63 82//63 80//63
f 80//63 78//63 76//63
f 76//63 74//63 72//63
f 72//63 70//63 68//63
f 68//63 66//63 64//63
f 64//63 62//63 60//63
f 60//63 58//63 56//63
f 56//63 54//63 52//63
f 52//63 50//63 48//63
f 48//63 46//63 44//63
f 44//63 42//63 40//63
f 40//63 38//63 36//63
f 36//63 34//63 32//63
f 32//63 30//63 28//63
f 28//63 26//63 24//63
f 24//63 22//63 20//63
f 20//63 18//63 16//63
f 16//63 14//63 12//63
f 12//63 10//63 8//63
f 8//63 6//63 186//63
f 8//63 186//63 189//63
f 16//63 12//63 8//63
f 24//63 20//63 16//63
f 32//63 28//63 24//63
f 40//63 36//63 32//63
f 48//63 44//63 40//63
f 56//63 52//63 48//63
f 64//63 60//63 56//63
f 72//63 68//63 64//63
f 80//63 76//63 72//63
f 88//63 84//63 80//63
f 96//63 92//63 88//63
f 183//63 100//63 96//63
f 181//63 183//63 96//63
f 96//63 88//63 80//63
f 80//63 72//63 64//63
f 64//63 56//63 48//63
f 48//63 40//63 32//63
f 32//63 24//63 16//63
f 16//63 8//63 189//63
f 16//63 189//63 168//63
f 142//63 181//63 96//63
f 143//63 142//63 96//63
f 16//63 168//63 169//63
f 16//63 169//63 170//63
f 144//63 143//63 96//63
f 145//63 144//63 96//63
f 16//63 170//63 171//63
f 16//63 171//63 173//63
f 147//63 145//63 96//63
f 146//63 147//63 96//63
f 16//63 173//63 172//63
f 16//63 172//63 180//63
f 146//63 96//63 80//63
f 154//63 146//63 80//63
f 32//63 16//63 180//63
f 32//63 180//63 174//63
f 149//63 154//63 80//63
f 148//63 149//63 80//63
f 32//63 174//63 176//63
f 32//63 176//63 175//63
f 153//63 148//63 80//63
f 150//63 153//63 80//63
f 32//63 175//63 177//63
f 32//63 177//63 179//63
f 152//63 150//63 80//63
f 151//63 152//63 80//63
f 32//63 179//63 178//63
f 32//63 178//63 192//63
f 151//63 80//63 64//63
f 184//63 151//63 64//63
f 32//63 192//63 191//63
f 32//63 191//63 190//63
f 188//63 184//63 64//63
f 187//63 188//63 64//63
f 48//63 32//63 190//63
f 48//63 190//63 165//63
f 155//63 187//63 64//63
f 156//63 155//63 64//63
f 48//63 165//63 166//63
f 48//63 166//63 164//63
f 157//63 156//63 64//63
f 158//63 157//63 64//63
f 48//63 164//63 163//63
f 48//63 163//63 162//63
f 160//63 158//63 64//63
f 159//63 160//63 64//63
f 48//63 162//63 161//63
f 167//63 159//63 64//63
f 48//63 161//63 167//63
f 185//63 186//63 6//63
f 6//63 4//63 2//63
f 2//63 128//63 126//63
f 126//63 124//63 122//63
f 122//63 120//63 118//63
f 118//63 116//63 114//63
f 114//63 112//63 110//63
f 110//63 108//63 106//63
f 106//63 104//63 102//63
f 102//63 183//63 182//63
f 102//63 182//63 129//63
f 110//63 106//63 102//63
f 118//63 114//63 110//63
f 126//63 122//63 118//63
f 6//63 2//63 126//63
f 138//63 185//63 6//63
f 139//63 138//63 6//63
f 6//63 126//63 118//63
f 118//63 110//63 102//63
f 102//63 129//63 130//63
f 102//63 130//63 131//63
f 139//63 6//63 118//63
f 137//63 139//63 118//63
f 118//63 102//63 131//63
f 118//63 131//63 132//63
f 140//63 137//63 118//63
f 135//63 140//63 118//63
f 118//63 132//63 134//63
f 118//63 134//63 133//63
f 136//63 135//63 118//63
f 118//63 133//63 141//63
f 126//64 128//64 127//64
f 128//65 2//65 1//65
f 210//66 218//66 47//66
f 47//66 49//66 51//66
f 51//66 53//66 55//66
f 55//66 57//66 59//66
f 59//66 61//66 63//66
f 63//66 65//66 67//66
f 67//66 69//66 71//66
f 71//66 73//66 75//66
f 75//66 77//66 79//66
f 79//66 81//66 83//66
f 83//66 85//66 87//66
f 87//66 89//66 91//66
f 91//66 93//66 95//66
f 95//66 97//66 99//66
f 99//66 101//66 103//66
f 103//66 105//66 107//66
f 107//66 109//66 111//66
f 111//66 244//66 236//66
f 111//66 236//66 237//66
f 103//66 107//66 111//66
f 95//66 99//66 103//66
f 87//66 91//66 95//66
f 79//66 83//66 87//66
f 71//66 75//66 79//66
f 63//66 67//66 71//66
f 55//66 59//66 63//66
f 47//66 51//66 55//66
f 211//66 210//66 47//66
f 209//66 211//66 47//66
f 47//66 55//66 63//66
f 63//66 71//66 79//66
f 79//66 87//66 95//66
f 95//66 103//66 111//66
f 111//66 237//66 235//66
f 111//66 235//66 234//66
f 209//66 47//66 63//66
f 208//66 209//66 63//66
f 95//66 111//66 234//66
f 95//66 234//66 233//66
f 207//66 208//66 63//66
f 206//66 207//66 63//66
f 95//66 233//66 232//66
f 95//66 232//66 251//66
f 246//66 206//66 63//66
f 247//66 246//66 63//66
f 95//66 251//66 253//66
f 95//66 253//66 252//66
f 256//66 247//66 63//66
f 228//66 256//66 63//66
f 95//66 252//66 219//66
f 95//66 219//66 220//66
f 229//66 228//66 63//66
f 227//66 229//66 63//66
f 79//66 95//66 220//66
f 79//66 220//66 221//66
f 227//66 63//66 79//66
f 230//66 227//66 79//66
f 79//66 221//66 222//66
f 79//66 222//66 224//66
f 225//66 230//66 79//66
f 226//66 225//66 79//66
f 79//66 224//66 223//66
f 231//66 226//66 79//66
f 239//66 244//66 111//66
f 111//66 113//66 115//66
f 115//66 117//66 119//66
f 119//66 121//66 123//66
f 123//66 125//66 127//66
f 127//66 1//66 3//66
f 3//66 5//66 7//66
f 7//66 9//66 11//66
f 11//66 13//66 15//66
f 15//66 17//66 19//66
f 19//66 21//66 23//66
f 23//66 25//66 27//66
f 27//66 29//66 31//66
f 31//66 33//66 35//66
f 35//66 37//66 39//66
f 39//66 41//66 43//66
f 43//66 45//66 47//66
f 47//66 218//66 212//66
f 47//66 212//66 214//66
f 39//66 43//66 47//66
f 31//66 35//66 39//66
f 23//66 27//66 31//66
f 15//66 19//66 23//66
f 7//66 11//66 15//66
f 127//66 3//66 7//66
f 119//66 123//66 127//66
f 111//66 115//66 119//66
f 238//66 239//66 111//66
f 243//66 238//66 111//66
f 111//66 119//66 127//66
f 127//66 7//66 15//66
f 15//66 23//66 31//66
f 31//66 39//66 47//66
f 47//66 214//66 213//66
f 47//66 213//66 215//66
f 243//66 111//66 127//66
f 240//66 243//66 127//66
f 31//66 47//66 215//66
f 31//66 215//66 217//66
f 242//66 240//66 127//66
f 241//66 242//66 127//66
f 31//66 217//66 216//66
f 31//66 216//66 249//66
f 254//66 241//66 127//66
f 255//66 254//66 127//66
f 31//66 249//66 250//66
f 31//66 250//66 248//66
f 245//66 255//66 127//66
f 193//66 245//66 127//66
f 31//66 248//66 203//66
f 31//66 203//66 204//66
f 194//66 193//66 127//66
f 195//66 194//66 127//66
f 15//66 31//66 204//66
f 15//66 204//66 202//66
f 195//66 127//66 15//66
f 196//66 195//66 15//66
f 15//66 202//66 201//66
f 15//66 201//66 200//66
f 198//66 196//66 15//66
f 197//66 198//66 15//66
f 15//66 200//66 199//66
f 205//66 197//66 15//66
f 185//33 138//33 245//33
f 186//34 185//34 193//34
f 189//35 186//35 194//35
f 168//36 189//36 195//36
f 169//37 168//37 196//37
f 170//38 169//38 198//38
f 171//39 170//39 197//39
f 173//40 171//40 205//40
f 173//41 199//41 200//41
f 172//42 200//42 201//42
f 180//43 201//43 202//43
f 174//44 202//44 204//44
f 176//45 204//45 203//45
f 175//46 203//46 248//46
f 177//47 248//47 250//47
f 179//48 250//48 249//48
f 178//49 249//49 216//49
f 192//50 216//50 217//50
f 191//51 217//51 215//51
f 190//52 215//52 213//52
f 165//53 213//53 214//53
f 166//54 214//54 212//54
f 164//55 212//55 218//55
f 163//56 218//56 210//56
f 162//57 210//57 211//57
f 161//58 211//58 209//58
f 167//59 209//59 208//59
f 159//60 208//60 207//60
f 160//61 207//61 206//61
f 158//62 206//62 246//62
f 157//64 246//64 247//64
f 156//65 247//65 256//65
f 155//1 256//1 228//1
f 187//2 228//2 229//2
f 188//3 229//3 227//3
f 184//4 227//4 230//4
f 151//5 230//5 225//5
f 152//6 225//6 226//6
f 150//7 226//7 231//7
f 153//8 231//8 223//8
f 149//9 148//9 223//9
f 154//10 149//10 224//10
f 146//11 154//11 222//11
f 147//12 146//12 221//12
f 145//13 147//13 220//13
f 144//14 145//14 219//14
f 143//15 144//15 252//15
f 142//16 143//16 253//16
f 181//17 142//17 251//17
f 183//18 181//18 232//18
f 182//19 183//19 233//19
f 129//20 182//20 234//20
f 130//21 129//21 235//21
f 131//22 130//22 237//22
f 132//23 131//23 236//23
f 134//24 132//24 244//24
f 133//25 134//25 239//25
f 141//26 133//26 238//26
f 136//27 141//27 243//27
f 135//28 136//28 240//28
f 140//29 135//29 242//29
f 137//30 140//30 241//30
f 139//31 137//31 254//31
f 138//32 139//32 255//32
f 258//66 260//66 259//66
f 260//67 264//67 263//67
f 264//63 262//63 261//63
f 262//68 258//68 257//68
f 263//69 261//69 257//69
f 260//70 258//70 262//70
