# Blender 5.2.2 LTS
# www.blender.org
mtllib fault_plinth_crack.mtl
o fault_plinth_crack
v 2.719767 -2.724952 0.011000
v 2.676057 -2.669666 0.011000
v 2.712707 -2.730534 0.002000
v 2.668997 -2.675248 0.002000
v 2.719767 -2.724953 -0.007000
v 2.676057 -2.669667 -0.007000
v 2.726827 -2.719371 0.002000
v 2.683117 -2.664085 0.002000
v 2.695444 -2.650090 0.011000
v 2.621563 -2.625168 0.011000
v 2.692568 -2.658618 0.002000
v 2.618686 -2.633696 0.002000
v 2.695444 -2.650090 -0.007000
v 2.621563 -2.625168 -0.007000
v 2.698321 -2.641562 0.002000
v 2.624440 -2.616640 0.002000
v 2.623778 -2.622954 0.011000
v 2.578363 -2.569366 0.011000
v 2.616912 -2.628773 0.002000
v 2.571497 -2.575185 0.002000
v 2.623778 -2.622954 -0.007000
v 2.578363 -2.569366 -0.007000
v 2.630644 -2.617136 0.002000
v 2.585229 -2.563548 0.002000
v 2.557585 -2.590050 0.011000
v 2.524972 -2.523770 0.011000
v 2.549509 -2.594024 0.002000
v 2.516897 -2.527743 0.002000
v 2.557585 -2.590050 -0.007000
v 2.524972 -2.523770 -0.007000
v 2.565660 -2.586077 0.002000
v 2.533048 -2.519796 0.002000
v 2.530920 -2.517805 0.011000
v 2.489333 -2.460330 0.011000
v 2.523628 -2.523081 0.002000
v 2.482041 -2.465606 0.002000
v 2.530920 -2.517805 -0.007000
v 2.489333 -2.460330 -0.007000
v 2.538212 -2.512529 0.002000
v 2.496624 -2.455054 0.002000
v 2.454702 -2.494882 0.011000
v 2.415821 -2.434894 0.011000
v 2.447150 -2.499777 0.002000
v 2.408269 -2.439789 0.002000
v 2.454702 -2.494882 -0.007000
v 2.415821 -2.434894 -0.007000
v 2.462255 -2.489987 0.002000
v 2.423373 -2.429999 0.002000
vn -0.5547 -0.4385 0.7071
vn -0.5547 -0.4385 -0.7071
vn -0.6202 0.7844 -0.0000
vn 0.5547 0.4385 -0.7071
vn 0.5547 0.4385 0.7071
vn 0.6202 -0.7844 -0.0000
vn -0.2260 -0.6700 0.7071
vn -0.2260 -0.6700 -0.7071
vn -0.9475 0.3196 -0.0000
vn 0.2260 0.6700 -0.7071
vn 0.2260 0.6700 0.7071
vn 0.9475 -0.3196 -0.0000
vn -0.5394 -0.4572 0.7071
vn -0.5394 -0.4572 -0.7071
vn -0.6465 0.7629 -0.0000
vn 0.5394 0.4572 -0.7071
vn 0.5394 0.4572 0.7071
vn 0.6465 -0.7629 -0.0000
vn -0.6345 -0.3122 0.7071
vn -0.6345 -0.3122 -0.7071
vn -0.4415 0.8973 -0.0000
vn 0.6345 0.3122 -0.7071
vn 0.6345 0.3122 0.7071
vn 0.4415 -0.8973 -0.0000
vn -0.5729 -0.4145 0.7071
vn -0.5729 -0.4145 -0.7071
vn -0.5862 0.8102 -0.0000
vn 0.5729 0.4145 -0.7071
vn 0.5729 0.4145 0.7071
vn 0.5862 -0.8102 -0.0000
vn -0.5934 -0.3846 0.7071
vn -0.5934 -0.3846 -0.7071
vn -0.5439 0.8391 -0.0000
vn 0.5934 0.3846 -0.7071
vn 0.5934 0.3846 0.7071
vn 0.5439 -0.8391 -0.0000
vn 0.6202 -0.7845 -0.0000
vn -0.9475 0.3197 -0.0000
vn 0.9475 -0.3197 -0.0000
vn -0.5439 0.8392 -0.0000
vn 0.5439 -0.8392 -0.0000
s 0
usemtl crack
f 1//1 4//1 3//1
f 4//2 5//2 3//2
f 4//3 8//3 6//3
f 6//4 7//4 5//4
f 8//5 1//5 7//5
f 1//6 5//6 7//6
f 10//7 11//7 9//7
f 12//8 13//8 11//8
f 10//9 14//9 12//9
f 14//10 15//10 13//10
f 16//11 9//11 15//11
f 11//12 15//12 9//12
f 18//13 19//13 17//13
f 20//14 21//14 19//14
f 20//15 24//15 22//15
f 21//16 24//16 23//16
f 24//17 17//17 23//17
f 19//18 23//18 17//18
f 26//19 27//19 25//19
f 28//20 29//20 27//20
f 26//21 30//21 28//21
f 30//22 31//22 29//22
f 31//23 26//23 25//23
f 25//24 29//24 31//24
f 33//25 36//25 35//25
f 36//26 37//26 35//26
f 34//27 38//27 36//27
f 38//28 39//28 37//28
f 40//29 33//29 39//29
f 33//30 37//30 39//30
f 41//31 44//31 43//31
f 44//32 45//32 43//32
f 42//33 46//33 44//33
f 45//34 48//34 47//34
f 48//35 41//35 47//35
f 41//36 45//36 47//36
f 1//1 2//1 4//1
f 4//2 6//2 5//2
f 4//3 2//3 8//3
f 6//4 8//4 7//4
f 8//5 2//5 1//5
f 1//37 3//37 5//37
f 10//7 12//7 11//7
f 12//8 14//8 13//8
f 10//38 16//38 14//38
f 14//10 16//10 15//10
f 16//11 10//11 9//11
f 11//39 13//39 15//39
f 18//13 20//13 19//13
f 20//14 22//14 21//14
f 20//15 18//15 24//15
f 21//16 22//16 24//16
f 24//17 18//17 17//17
f 19//18 21//18 23//18
f 26//19 28//19 27//19
f 28//20 30//20 29//20
f 26//21 32//21 30//21
f 30//22 32//22 31//22
f 31//23 32//23 26//23
f 25//24 27//24 29//24
f 33//25 34//25 36//25
f 36//26 38//26 37//26
f 34//27 40//27 38//27
f 38//28 40//28 39//28
f 40//29 34//29 33//29
f 33//30 35//30 37//30
f 41//31 42//31 44//31
f 44//32 46//32 45//32
f 42//40 48//40 46//40
f 45//34 46//34 48//34
f 48//35 42//35 41//35
f 41//41 43//41 45//41
