# Blender 5.2.2 LTS
# www.blender.org
mtllib fault_tower_coating.mtl
o fault_tower_coating
v 1.587903 -2.541176 0.900000
v 1.723875 -2.450973 0.900000
v 1.721930 -2.452253 0.925478
v 1.719419 -2.453927 0.951285
v 1.708984 -2.461128 0.973962
v 1.691171 -2.473350 0.989767
v 1.673950 -2.484993 1.002764
v 1.661810 -2.493066 1.021375
v 1.650146 -2.500721 1.045685
v 1.632523 -2.512201 1.063723
v 1.609760 -2.526844 1.064988
v 1.587675 -2.540811 1.055186
v 1.567274 -2.553457 1.051544
v 1.542790 -2.568290 1.061977
v 1.511977 -2.586513 1.073546
v 1.484367 -2.602482 1.065611
v 1.473687 -2.608649 1.032660
v 1.481597 -2.604302 0.989829
v 1.493782 -2.597441 0.955874
v 1.494804 -2.596919 0.935259
v 1.483676 -2.603343 0.919223
v 1.471917 -2.610072 0.900000
v 1.468106 -2.612288 0.877933
v 1.469081 -2.611812 0.855081
v 1.467958 -2.612527 0.828881
v 1.466168 -2.613633 0.797059
v 1.472583 -2.610125 0.765621
v 1.491650 -2.599341 0.745189
v 1.517555 -2.584325 0.738017
v 1.542138 -2.569745 0.733948
v 1.564410 -2.556280 0.723672
v 1.588178 -2.541616 0.713295
v 1.612325 -2.526346 0.719611
v 1.629412 -2.515261 0.749388
v 1.636155 -2.510751 0.788040
v 1.641230 -2.507354 0.813080
v 1.657582 -2.496560 0.817255
v 1.686797 -2.476924 0.814308
v 1.715575 -2.457053 0.822085
v 1.729836 -2.446957 0.844638
v 1.729020 -2.447437 0.873164
v 1.843804 -2.359961 1.500000
v 1.915947 -2.301776 1.500000
v 1.917941 -2.300060 1.515097
v 1.920373 -2.297969 1.532011
v 1.924997 -2.294020 1.553296
v 1.927023 -2.292229 1.577959
v 1.919535 -2.298432 1.597576
v 1.901921 -2.313009 1.602831
v 1.881489 -2.329689 1.594864
v 1.865771 -2.342324 1.586696
v 1.854907 -2.350924 1.590372
v 1.843626 -2.359734 1.603624
v 1.829599 -2.370597 1.612020
v 1.816736 -2.380495 1.604557
v 1.809462 -2.386098 1.584695
v 1.806281 -2.388576 1.564948
v 1.801606 -2.392145 1.553070
v 1.793051 -2.398587 1.546338
v 1.783958 -2.405386 1.538283
v 1.778041 -2.409803 1.526812
v 1.774143 -2.412719 1.513841
v 1.768775 -2.416704 1.500000
v 1.762669 -2.421217 1.483897
v 1.761406 -2.422196 1.466447
v 1.768327 -2.417198 1.451732
v 1.779291 -2.409177 1.441043
v 1.787164 -2.403385 1.428626
v 1.790697 -2.400826 1.407764
v 1.796123 -2.396860 1.381666
v 1.809153 -2.387100 1.364535
v 1.827574 -2.373013 1.368515
v 1.843991 -2.360201 1.390384
v 1.854674 -2.351732 1.413928
v 1.862837 -2.345228 1.425922
v 1.872847 -2.337237 1.427623
v 1.883851 -2.328368 1.429790
v 1.891453 -2.322163 1.439177
v 1.894481 -2.319645 1.452949
v 1.897022 -2.317522 1.465316
v 1.902936 -2.312633 1.475390
v 1.910697 -2.306185 1.486405
v 1.358869 -2.666931 2.100000
v 1.416163 -2.636955 2.100000
v 1.417191 -2.636369 2.110429
v 1.414796 -2.637624 2.120516
v 1.407765 -2.641359 2.128115
v 1.398954 -2.646021 2.132847
v 1.392484 -2.649416 2.137903
v 1.389387 -2.651012 2.147374
v 1.386646 -2.652402 2.161519
v 1.380573 -2.655525 2.175454
v 1.370480 -2.660723 2.183114
v 1.358765 -2.666727 2.182353
v 1.348047 -2.672181 2.175930
v 1.339040 -2.676731 2.168070
v 1.331042 -2.680739 2.160966
v 1.323395 -2.684542 2.154511
v 1.315800 -2.688293 2.148075
v 1.307925 -2.692154 2.141301
v 1.299926 -2.696049 2.133498
v 1.293531 -2.699154 2.123671
v 1.291463 -2.700180 2.111904
v 1.294748 -2.698643 2.100000
v 1.300837 -2.695745 2.089738
v 1.305494 -2.693521 2.080624
v 1.307007 -2.692818 2.070465
v 1.308026 -2.692360 2.058697
v 1.312696 -2.690118 2.048331
v 1.322182 -2.685484 2.043414
v 1.333634 -2.679812 2.044393
v 1.343521 -2.674861 2.046830
v 1.351218 -2.670986 2.045334
v 1.358947 -2.667083 2.038552
v 1.368824 -2.662054 2.030016
v 1.380762 -2.655899 2.024549
v 1.393069 -2.649464 2.024629
v 1.404045 -2.643647 2.030046
v 1.412431 -2.639146 2.039658
v 1.417153 -2.636573 2.052252
v 1.417922 -2.636116 2.066059
v 1.416327 -2.636933 2.078939
v 1.415249 -2.637477 2.089925
v 1.966519 -2.262221 0.550000
v 2.014413 -2.219680 0.550000
v 2.017684 -2.216666 0.560851
v 2.019212 -2.215230 0.572940
v 2.015069 -2.218961 0.583133
v 2.006212 -2.226951 0.588578
v 1.997390 -2.234857 0.591252
v 1.991511 -2.240080 0.595956
v 1.986919 -2.244126 0.603516
v 1.980740 -2.249563 0.608593
v 1.973121 -2.256258 0.606159
v 1.966430 -2.262119 0.598780
v 1.961083 -2.266770 0.594743
v 1.954511 -2.272426 0.598497
v 1.945143 -2.280426 0.605103
v 1.935696 -2.288448 0.605703
v 1.930532 -2.292837 0.597248
v 1.930067 -2.293273 0.584791
v 1.929881 -2.293467 0.574535
v 1.926208 -2.296579 0.567210
v 1.920751 -2.301173 0.559519
v 1.918472 -2.303108 0.550000
v 1.921159 -2.300901 0.540558
v 1.925248 -2.297510 0.532356
v 1.926689 -2.296335 0.523279
v 1.926257 -2.296740 0.511468
v 1.928391 -2.294991 0.499724
v 1.935401 -2.289106 0.493398
v 1.944818 -2.281110 0.493534
v 1.953021 -2.274086 0.494690
v 1.959620 -2.268414 0.491471
v 1.966635 -2.262355 0.485930
v 1.974296 -2.255673 0.485819
v 1.980034 -2.250604 0.495149
v 1.982415 -2.248457 0.508732
v 1.984244 -2.246810 0.517672
v 1.989813 -2.241874 0.519071
v 1.999363 -2.233365 0.518235
v 2.008271 -2.225344 0.521616
v 2.012466 -2.221520 0.530055
v 2.013096 -2.220912 0.540139
v 1.588565 -2.542236 0.450000
v 1.604391 -2.532279 0.450000
v 1.606652 -2.530665 0.504410
v 1.608779 -2.529080 0.575361
v 1.609618 -2.528282 0.655834
v 1.608265 -2.528910 0.726295
v 1.604937 -2.530886 0.768376
v 1.600924 -2.533374 0.784236
v 1.597442 -2.535526 0.798037
v 1.594574 -2.537219 0.831831
v 1.591538 -2.538968 0.879568
v 1.587889 -2.541153 0.909820
v 1.584154 -2.543525 0.896935
v 1.581137 -2.545565 0.847065
v 1.578850 -2.547168 0.790795
v 1.576471 -2.548767 0.752093
v 1.573382 -2.550753 0.728241
v 1.569978 -2.552944 0.699204
v 1.567333 -2.554727 0.650761
v 1.566237 -2.555612 0.585289
v 1.566766 -2.555518 0.514685
v 1.568583 -2.554614 0.450000
v 1.571248 -2.553145 0.398132
v 1.574072 -2.551528 0.360503
v 1.576065 -2.550402 0.328296
v 1.576562 -2.550245 0.282326
v 1.576036 -2.550815 0.207247
v 1.575981 -2.551164 0.110794
v 1.577686 -2.550392 0.024546
v 1.581133 -2.548406 -0.021392
v 1.585270 -2.545850 -0.025793
v 1.589250 -2.543331 -0.014923
v 1.593126 -2.540897 -0.012359
v 1.597220 -2.538329 -0.013362
v 1.601135 -2.535791 0.008015
v 1.603782 -2.533918 0.068736
v 1.604443 -2.533206 0.157999
v 1.603570 -2.533463 0.248032
v 1.602416 -2.533961 0.318489
v 1.602026 -2.534045 0.368091
v 1.602730 -2.533469 0.407785
vn 0.5528 -0.8333 0.0003
vn 0.5529 -0.8333 -0.0003
vn 0.5551 -0.8317 -0.0087
vn 0.5573 -0.8302 -0.0138
vn 0.5549 -0.8318 -0.0099
vn 0.5498 -0.8353 -0.0037
vn 0.5469 -0.8372 -0.0012
vn 0.5456 -0.8381 -0.0004
vn 0.5410 -0.8410 0.0014
vn 0.5336 -0.8457 0.0028
vn 0.5265 -0.8502 0.0028
vn 0.5186 -0.8550 0.0013
vn 0.5083 -0.8612 -0.0026
vn 0.5020 -0.8648 -0.0063
vn 0.5063 -0.8624 -0.0027
vn 0.5157 -0.8567 0.0083
vn 0.5190 -0.8547 0.0135
vn 0.5148 -0.8573 0.0038
vn 0.5109 -0.8596 -0.0101
vn 0.5107 -0.8597 -0.0115
vn 0.5107 -0.8598 -0.0019
vn 0.5099 -0.8602 0.0039
vn 0.5106 -0.8598 0.0016
vn 0.5107 -0.8597 0.0012
vn 0.5069 -0.8620 0.0072
vn 0.5024 -0.8646 0.0125
vn 0.5038 -0.8638 0.0113
vn 0.5110 -0.8596 0.0071
vn 0.5187 -0.8549 0.0041
vn 0.5260 -0.8505 0.0028
vn 0.5339 -0.8455 0.0028
vn 0.5396 -0.8419 0.0038
vn 0.5400 -0.8417 0.0040
vn 0.5408 -0.8411 0.0045
vn 0.5488 -0.8359 0.0115
vn 0.5593 -0.8286 0.0242
vn 0.5625 -0.8263 0.0297
vn 0.5580 -0.8296 0.0186
vn 0.5536 -0.8328 0.0018
vn 0.5528 -0.8333 -0.0038
vn 0.6278 -0.7784 0.0056
vn 0.6277 -0.7784 0.0060
vn 0.6271 -0.7789 0.0083
vn 0.6285 -0.7778 0.0048
vn 0.6330 -0.7741 -0.0032
vn 0.6363 -0.7714 -0.0074
vn 0.6335 -0.7738 -0.0047
vn 0.6266 -0.7793 -0.0002
vn 0.6211 -0.7837 0.0021
vn 0.6175 -0.7865 0.0028
vn 0.6133 -0.7898 0.0028
vn 0.6091 -0.7931 0.0019
vn 0.6078 -0.7941 0.0014
vn 0.6082 -0.7938 0.0016
vn 0.6066 -0.7950 0.0002
vn 0.6034 -0.7974 -0.0038
vn 0.6022 -0.7984 -0.0059
vn 0.6030 -0.7977 -0.0039
vn 0.6035 -0.7974 -0.0021
vn 0.6032 -0.7976 -0.0043
vn 0.6032 -0.7976 -0.0052
vn 0.6024 -0.7982 0.0012
vn 0.5999 -0.8000 0.0105
vn 0.5988 -0.8008 0.0132
vn 0.6015 -0.7989 0.0088
vn 0.6047 -0.7965 0.0047
vn 0.6047 -0.7964 0.0047
vn 0.6039 -0.7971 0.0052
vn 0.6069 -0.7948 0.0040
vn 0.6129 -0.7901 0.0028
vn 0.6175 -0.7866 0.0028
vn 0.6201 -0.7845 0.0033
vn 0.6234 -0.7819 0.0047
vn 0.6267 -0.7793 0.0068
vn 0.6270 -0.7790 0.0071
vn 0.6255 -0.7802 0.0052
vn 0.6256 -0.7801 0.0053
vn 0.6273 -0.7787 0.0097
vn 0.6281 -0.7780 0.0129
vn 0.6278 -0.7783 0.0100
vn 0.4636 -0.8860 0.0040
vn 0.4641 -0.8858 0.0001
vn 0.4655 -0.8851 -0.0044
vn 0.4656 -0.8850 -0.0049
vn 0.4636 -0.8861 -0.0017
vn 0.4610 -0.8874 0.0012
vn 0.4602 -0.8878 0.0019
vn 0.4604 -0.8877 0.0018
vn 0.4592 -0.8883 0.0022
vn 0.4560 -0.8900 0.0028
vn 0.4522 -0.8919 0.0028
vn 0.4493 -0.8934 0.0022
vn 0.4470 -0.8945 0.0014
vn 0.4451 -0.8955 0.0003
vn 0.4435 -0.8963 -0.0010
vn 0.4420 -0.8970 -0.0026
vn 0.4410 -0.8975 -0.0041
vn 0.4412 -0.8974 -0.0036
vn 0.4424 -0.8968 0.0004
vn 0.4433 -0.8963 0.0066
vn 0.4433 -0.8963 0.0099
vn 0.4436 -0.8962 0.0080
vn 0.4447 -0.8957 0.0043
vn 0.4449 -0.8956 0.0036
vn 0.4434 -0.8963 0.0060
vn 0.4421 -0.8969 0.0075
vn 0.4434 -0.8963 0.0064
vn 0.4469 -0.8946 0.0044
vn 0.4502 -0.8929 0.0032
vn 0.4527 -0.8917 0.0028
vn 0.4556 -0.8902 0.0028
vn 0.4595 -0.8882 0.0035
vn 0.4633 -0.8862 0.0048
vn 0.4658 -0.8848 0.0063
vn 0.4667 -0.8844 0.0070
vn 0.4658 -0.8848 0.0061
vn 0.4642 -0.8857 0.0035
vn 0.4631 -0.8863 0.0012
vn 0.4633 -0.8862 0.0016
vn 0.4636 -0.8861 0.0039
vn 0.6641 -0.7476 0.0074
vn 0.6644 -0.7474 0.0049
vn 0.6661 -0.7458 -0.0023
vn 0.6677 -0.7444 -0.0064
vn 0.6666 -0.7454 -0.0045
vn 0.6638 -0.7479 -0.0007
vn 0.6620 -0.7495 0.0010
vn 0.6613 -0.7501 0.0016
vn 0.6597 -0.7516 0.0022
vn 0.6572 -0.7537 0.0028
vn 0.6552 -0.7555 0.0028
vn 0.6530 -0.7573 0.0023
vn 0.6498 -0.7601 0.0009
vn 0.6473 -0.7623 -0.0008
vn 0.6478 -0.7618 -0.0002
vn 0.6498 -0.7601 0.0024
vn 0.6499 -0.7600 0.0026
vn 0.6483 -0.7614 -0.0015
vn 0.6476 -0.7620 -0.0044
vn 0.6481 -0.7616 -0.0004
vn 0.6481 -0.7616 0.0065
vn 0.6479 -0.7617 0.0081
vn 0.6488 -0.7610 0.0045
vn 0.6496 -0.7603 0.0023
vn 0.6484 -0.7613 0.0045
vn 0.6466 -0.7628 0.0068
vn 0.6472 -0.7623 0.0063
vn 0.6500 -0.7599 0.0044
vn 0.6528 -0.7576 0.0032
vn 0.6549 -0.7557 0.0028
vn 0.6573 -0.7536 0.0028
vn 0.6592 -0.7519 0.0032
vn 0.6594 -0.7518 0.0033
vn 0.6597 -0.7515 0.0035
vn 0.6624 -0.7491 0.0061
vn 0.6657 -0.7461 0.0105
vn 0.6665 -0.7454 0.0120
vn 0.6650 -0.7468 0.0079
vn 0.6640 -0.7478 0.0036
vn 0.6641 -0.7476 0.0047
vn 0.5326 -0.8464 0.0030
vn 0.5326 -0.8464 0.0029
vn 0.5330 -0.8461 0.0028
vn 0.5340 -0.8455 0.0027
vn 0.5347 -0.8450 0.0026
vn 0.5345 -0.8452 0.0026
vn 0.5334 -0.8459 0.0027
vn 0.5323 -0.8465 0.0027
vn 0.5315 -0.8471 0.0028
vn 0.5305 -0.8477 0.0028
vn 0.5293 -0.8484 0.0028
vn 0.5283 -0.8490 0.0028
vn 0.5277 -0.8494 0.0028
vn 0.5270 -0.8499 0.0027
vn 0.5261 -0.8504 0.0027
vn 0.5254 -0.8509 0.0026
vn 0.5259 -0.8506 0.0027
vn 0.5264 -0.8502 0.0028
vn 0.5266 -0.8501 0.0029
vn 0.5266 -0.8501 0.0030
vn 0.5269 -0.8499 0.0029
vn 0.5276 -0.8495 0.0028
vn 0.5282 -0.8491 0.0027
vn 0.5278 -0.8493 0.0028
vn 0.5271 -0.8498 0.0028
vn 0.5270 -0.8499 0.0028
vn 0.5279 -0.8493 0.0028
vn 0.5306 -0.8476 0.0028
vn 0.5319 -0.8468 0.0028
vn 0.5331 -0.8461 0.0028
vn 0.5334 -0.8458 0.0028
vn 0.5328 -0.8462 0.0028
vn 0.5320 -0.8467 0.0027
vn 0.5318 -0.8469 0.0027
vn 0.5321 -0.8467 0.0028
vn 0.5324 -0.8465 0.0028
s 0
usemtl rust
f 1//1 2//1 3//1
f 1//2 3//2 4//2
f 1//3 4//3 5//3
f 1//4 5//4 6//4
f 1//5 6//5 7//5
f 1//6 7//6 8//6
f 1//7 8//7 9//7
f 1//8 9//8 10//8
f 1//9 10//9 11//9
f 1//10 11//10 12//10
f 1//11 12//11 13//11
f 1//12 13//12 14//12
f 1//13 14//13 15//13
f 1//14 15//14 16//14
f 1//15 16//15 17//15
f 1//16 17//16 18//16
f 1//17 18//17 19//17
f 1//18 19//18 20//18
f 1//19 20//19 21//19
f 1//20 21//20 22//20
f 1//21 22//21 23//21
f 1//22 23//22 24//22
f 1//23 24//23 25//23
f 1//24 25//24 26//24
f 1//25 26//25 27//25
f 1//26 27//26 28//26
f 1//27 28//27 29//27
f 1//28 29//28 30//28
f 1//29 30//29 31//29
f 1//30 31//30 32//30
f 1//31 32//31 33//31
f 1//32 33//32 34//32
f 1//33 34//33 35//33
f 1//34 35//34 36//34
f 1//35 36//35 37//35
f 1//36 37//36 38//36
f 1//37 38//37 39//37
f 1//38 39//38 40//38
f 1//39 40//39 41//39
f 1//40 41//40 2//40
f 42//41 43//41 44//41
f 42//42 44//42 45//42
f 42//43 45//43 46//43
f 42//44 46//44 47//44
f 42//45 47//45 48//45
f 42//46 48//46 49//46
f 42//47 49//47 50//47
f 42//48 50//48 51//48
f 42//49 51//49 52//49
f 42//50 52//50 53//50
f 42//51 53//51 54//51
f 42//52 54//52 55//52
f 42//53 55//53 56//53
f 42//54 56//54 57//54
f 42//55 57//55 58//55
f 42//56 58//56 59//56
f 42//57 59//57 60//57
f 42//58 60//58 61//58
f 42//59 61//59 62//59
f 42//60 62//60 63//60
f 42//61 63//61 64//61
f 42//62 64//62 65//62
f 42//63 65//63 66//63
f 42//64 66//64 67//64
f 42//65 67//65 68//65
f 42//66 68//66 69//66
f 42//67 69//67 70//67
f 42//68 70//68 71//68
f 42//69 71//69 72//69
f 42//70 72//70 73//70
f 42//71 73//71 74//71
f 42//72 74//72 75//72
f 42//73 75//73 76//73
f 42//74 76//74 77//74
f 42//75 77//75 78//75
f 42//76 78//76 79//76
f 42//77 79//77 80//77
f 42//78 80//78 81//78
f 42//79 81//79 82//79
f 42//80 82//80 43//80
f 83//81 84//81 85//81
f 83//82 85//82 86//82
f 83//83 86//83 87//83
f 83//84 87//84 88//84
f 83//85 88//85 89//85
f 83//86 89//86 90//86
f 83//87 90//87 91//87
f 83//88 91//88 92//88
f 83//89 92//89 93//89
f 83//90 93//90 94//90
f 83//91 94//91 95//91
f 83//92 95//92 96//92
f 83//93 96//93 97//93
f 83//94 97//94 98//94
f 83//95 98//95 99//95
f 83//96 99//96 100//96
f 83//97 100//97 101//97
f 83//98 101//98 102//98
f 83//99 102//99 103//99
f 83//100 103//100 104//100
f 83//101 104//101 105//101
f 83//102 105//102 106//102
f 83//103 106//103 107//103
f 83//104 107//104 108//104
f 83//105 108//105 109//105
f 83//106 109//106 110//106
f 83//107 110//107 111//107
f 83//108 111//108 112//108
f 83//109 112//109 113//109
f 83//110 113//110 114//110
f 83//111 114//111 115//111
f 83//112 115//112 116//112
f 83//113 116//113 117//113
f 83//114 117//114 118//114
f 83//115 118//115 119//115
f 83//116 119//116 120//116
f 83//117 120//117 121//117
f 83//118 121//118 122//118
f 83//119 122//119 123//119
f 83//120 123//120 84//120
f 124//121 125//121 126//121
f 124//122 126//122 127//122
f 124//123 127//123 128//123
f 124//124 128//124 129//124
f 124//125 129//125 130//125
f 124//126 130//126 131//126
f 124//127 131//127 132//127
f 124//128 132//128 133//128
f 124//129 133//129 134//129
f 124//130 134//130 135//130
f 124//131 135//131 136//131
f 124//132 136//132 137//132
f 124//133 137//133 138//133
f 124//134 138//134 139//134
f 124//135 139//135 140//135
f 124//136 140//136 141//136
f 124//137 141//137 142//137
f 124//138 142//138 143//138
f 124//139 143//139 144//139
f 124//140 144//140 145//140
f 124//141 145//141 146//141
f 124//142 146//142 147//142
f 124//143 147//143 148//143
f 124//144 148//144 149//144
f 124//145 149//145 150//145
f 124//146 150//146 151//146
f 124//147 151//147 152//147
f 124//148 152//148 153//148
f 124//149 153//149 154//149
f 124//150 154//150 155//150
f 124//151 155//151 156//151
f 124//152 156//152 157//152
f 124//153 157//153 158//153
f 124//154 158//154 159//154
f 124//155 159//155 160//155
f 124//156 160//156 161//156
f 124//157 161//157 162//157
f 124//158 162//158 163//158
f 124//159 163//159 164//159
f 124//160 164//160 125//160
f 165//161 166//161 167//161
f 165//162 167//162 168//162
f 165//163 168//163 169//163
f 165//164 169//164 170//164
f 165//165 170//165 171//165
f 165//166 171//166 172//166
f 165//167 172//167 173//167
f 165//168 173//168 174//168
f 165//169 174//169 175//169
f 165//170 175//170 176//170
f 165//171 176//171 177//171
f 165//172 177//172 178//172
f 165//173 178//173 179//173
f 165//174 179//174 180//174
f 165//175 180//175 181//175
f 165//176 181//176 182//176
f 165//176 182//176 183//176
f 165//177 183//177 184//177
f 165//178 184//178 185//178
f 165//179 185//179 186//179
f 165//180 186//180 187//180
f 165//180 187//180 188//180
f 165//181 188//181 189//181
f 165//182 189//182 190//182
f 165//183 190//183 191//183
f 165//184 191//184 192//184
f 165//185 192//185 193//185
f 165//186 193//186 194//186
f 165//187 194//187 195//187
f 165//171 195//171 196//171
f 165//188 196//188 197//188
f 165//189 197//189 198//189
f 165//190 198//190 199//190
f 165//191 199//191 200//191
f 165//192 200//192 201//192
f 165//193 201//193 202//193
f 165//194 202//194 203//194
f 165//195 203//195 204//195
f 165//196 204//196 205//196
f 165//162 205//162 166//162
