# Blender 5.2.2 LTS
# www.blender.org
mtllib fault_carbon_dust.mtl
o fault_carbon_dust
v -12.475000 0.151423 -0.788259
v -12.475000 0.151423 -0.785259
v -12.431879 0.136785 -0.788259
v -12.431879 0.136785 -0.785259
v -12.392983 0.117176 -0.788259
v -12.392983 0.117176 -0.785259
v -12.358489 0.095451 -0.788259
v -12.358489 0.095451 -0.785259
v -12.327547 0.073834 -0.788259
v -12.327547 0.073834 -0.785259
v -12.298861 0.053488 -0.788259
v -12.298861 0.053488 -0.785259
v -12.271347 0.034453 -0.788259
v -12.271347 0.034453 -0.785259
v -12.244637 0.015922 -0.788259
v -12.244637 0.015922 -0.785259
v -12.219233 -0.003255 -0.788259
v -12.219233 -0.003255 -0.785259
v -12.196282 -0.024048 -0.788259
v -12.196282 -0.024048 -0.785259
v -12.177062 -0.046865 -0.788259
v -12.177062 -0.046865 -0.785259
v -12.162366 -0.071456 -0.788259
v -12.162366 -0.071456 -0.785259
v -12.152051 -0.097100 -0.788259
v -12.152051 -0.097100 -0.785259
v -12.144923 -0.122978 -0.788259
v -12.144923 -0.122978 -0.785259
v -12.139035 -0.148594 -0.788259
v -12.139035 -0.148594 -0.785259
v -12.132320 -0.174038 -0.788259
v -12.132320 -0.174038 -0.785259
v -12.123357 -0.200000 -0.788259
v -12.123357 -0.200000 -0.785259
v -12.112004 -0.227502 -0.788259
v -12.112004 -0.227502 -0.785259
v -12.099685 -0.257427 -0.788259
v -12.099685 -0.257427 -0.785259
v -12.089174 -0.290030 -0.788259
v -12.089174 -0.290030 -0.785259
v -12.083955 -0.324597 -0.788259
v -12.083955 -0.324597 -0.785259
v -12.087297 -0.359409 -0.788259
v -12.087297 -0.359409 -0.785259
v -12.101350 -0.392050 -0.788259
v -12.101350 -0.392050 -0.785259
v -12.126522 -0.419991 -0.788259
v -12.126522 -0.419991 -0.785259
v -12.161343 -0.441275 -0.788259
v -12.161343 -0.441275 -0.785259
v -12.202850 -0.455089 -0.788259
v -12.202850 -0.455089 -0.785259
v -12.247385 -0.462039 -0.788259
v -12.247385 -0.462039 -0.785259
v -12.291542 -0.464020 -0.788259
v -12.291542 -0.464020 -0.785259
v -12.332999 -0.463708 -0.788259
v -12.332999 -0.463708 -0.785259
v -12.370964 -0.463817 -0.788259
v -12.370964 -0.463817 -0.785259
v -12.406129 -0.466340 -0.788259
v -12.406129 -0.466340 -0.785259
v -12.440174 -0.472000 -0.788259
v -12.440174 -0.472000 -0.785259
v -12.475000 -0.480075 -0.788259
v -12.475000 -0.480075 -0.785259
v -12.511957 -0.488638 -0.788259
v -12.511957 -0.488638 -0.785259
v -12.551318 -0.495136 -0.788259
v -12.551318 -0.495136 -0.785259
v -12.592169 -0.497117 -0.788259
v -12.592169 -0.497117 -0.785259
v -12.632714 -0.492889 -0.788259
v -12.632714 -0.492889 -0.785259
v -12.670892 -0.481914 -0.788259
v -12.670892 -0.481914 -0.785259
v -12.705040 -0.464830 -0.788259
v -12.705040 -0.464830 -0.785259
v -12.734401 -0.443139 -0.788259
v -12.734401 -0.443139 -0.785259
v -12.759262 -0.418663 -0.788259
v -12.759262 -0.418663 -0.785259
v -12.780711 -0.392993 -0.788259
v -12.780711 -0.392993 -0.785259
v -12.800072 -0.367081 -0.788259
v -12.800072 -0.367081 -0.785259
v -12.818262 -0.341136 -0.788259
v -12.818262 -0.341136 -0.785259
v -12.835290 -0.314797 -0.788259
v -12.835290 -0.314797 -0.785259
v -12.850100 -0.287527 -0.788259
v -12.850100 -0.287527 -0.785259
v -12.860833 -0.259036 -0.788259
v -12.860833 -0.259036 -0.785259
v -12.865436 -0.229580 -0.788259
v -12.865436 -0.229580 -0.785259
v -12.862409 -0.200000 -0.788259
v -12.862409 -0.200000 -0.785259
v -12.851442 -0.171480 -0.788259
v -12.851442 -0.171480 -0.785259
v -12.833704 -0.145115 -0.788259
v -12.833704 -0.145115 -0.785259
v -12.811663 -0.121442 -0.788259
v -12.811663 -0.121442 -0.785259
v -12.788467 -0.100121 -0.788259
v -12.788467 -0.100121 -0.785259
v -12.767072 -0.079911 -0.788259
v -12.767072 -0.079911 -0.785259
v -12.749374 -0.058976 -0.788259
v -12.749374 -0.058976 -0.785259
v -12.735639 -0.035461 -0.788259
v -12.735639 -0.035461 -0.785259
v -12.724400 -0.008155 -0.788259
v -12.724400 -0.008155 -0.785259
v -12.712876 0.022963 -0.788259
v -12.712876 0.022963 -0.785259
v -12.697793 0.056487 -0.788259
v -12.697793 0.056487 -0.785259
v -12.676337 0.089750 -0.788259
v -12.676337 0.089750 -0.785259
v -12.646979 0.119379 -0.788259
v -12.646979 0.119379 -0.785259
v -12.609895 0.142068 -0.788259
v -12.609895 0.142068 -0.785259
v -12.566895 0.155374 -0.788259
v -12.566895 0.155374 -0.785259
v -12.520875 0.158287 -0.788259
v -12.520875 0.158287 -0.785259
v -12.617383 -0.475000 -0.439050
v -12.617383 -0.475000 -0.319050
v -12.617383 -0.473000 -0.439050
v -12.617383 -0.473000 -0.319050
v -12.517383 -0.475000 -0.439050
v -12.517383 -0.475000 -0.319050
v -12.517383 -0.473000 -0.439050
v -12.517383 -0.473000 -0.319050
v -12.561379 -0.475000 -0.423508
v -12.561379 -0.475000 -0.303508
v -12.561379 -0.473000 -0.423508
v -12.561379 -0.473000 -0.303508
v -12.461379 -0.475000 -0.423508
v -12.461379 -0.475000 -0.303508
v -12.461379 -0.473000 -0.423508
v -12.461379 -0.473000 -0.303508
v -12.676720 -0.475000 -0.349523
v -12.676720 -0.475000 -0.229523
v -12.676720 -0.473000 -0.349523
v -12.676720 -0.473000 -0.229523
v -12.576719 -0.475000 -0.349523
v -12.576719 -0.475000 -0.229523
v -12.576719 -0.473000 -0.349523
v -12.576719 -0.473000 -0.229523
v -12.378716 -0.475000 -0.229864
v -12.378716 -0.475000 -0.109864
v -12.378716 -0.473000 -0.229864
v -12.378716 -0.473000 -0.109864
v -12.278715 -0.475000 -0.229864
v -12.278715 -0.475000 -0.109864
v -12.278715 -0.473000 -0.229864
v -12.278715 -0.473000 -0.109864
v -12.432194 -0.475000 -0.403422
v -12.432194 -0.475000 -0.283422
v -12.432194 -0.473000 -0.403422
v -12.432194 -0.473000 -0.283422
v -12.332193 -0.475000 -0.403422
v -12.332193 -0.475000 -0.283422
v -12.332193 -0.473000 -0.403422
v -12.332193 -0.473000 -0.283422
v -12.512162 -0.475000 -0.386995
v -12.512162 -0.475000 -0.266995
v -12.512162 -0.473000 -0.386995
v -12.512162 -0.473000 -0.266995
v -12.412162 -0.475000 -0.386995
v -12.412162 -0.475000 -0.266995
v -12.412162 -0.473000 -0.386995
v -12.412162 -0.473000 -0.266995
vn 0.3214 0.9469 -0.0000
vn 0.4502 0.8929 -0.0000
vn 0.5329 0.8462 -0.0000
vn 0.5727 0.8198 -0.0000
vn 0.5785 0.8157 -0.0000
vn 0.5690 0.8224 -0.0000
vn 0.5700 0.8216 -0.0000
vn 0.6025 0.7981 -0.0000
vn 0.6714 0.7411 -0.0000
vn 0.7648 0.6443 -0.0000
vn 0.8584 0.5130 -0.0000
vn 0.9278 0.3732 -0.0000
vn 0.9641 0.2655 -0.0000
vn 0.9746 0.2240 -0.0000
vn 0.9669 0.2552 -0.0000
vn 0.9452 0.3264 -0.0000
vn 0.9243 0.3816 -0.0000
vn 0.9247 0.3807 -0.0000
vn 0.9518 0.3068 -0.0000
vn 0.9888 0.1493 -0.0000
vn 0.9954 -0.0956 -0.0000
vn 0.9185 -0.3954 -0.0000
vn 0.7430 -0.6693 -0.0000
vn 0.5215 -0.8532 -0.0000
vn 0.3158 -0.9488 -0.0000
vn 0.1542 -0.9880 -0.0000
vn 0.0448 -0.9990 -0.0000
vn -0.0075 -1.0000 -0.0000
vn 0.0029 -1.0000 -0.0000
vn 0.0716 -0.9974 -0.0000
vn 0.1640 -0.9865 -0.0000
vn 0.2259 -0.9742 -0.0000
vn 0.2257 -0.9742 -0.0000
vn 0.1629 -0.9866 -0.0000
vn 0.0484 -0.9988 -0.0000
vn -0.1037 -0.9946 -0.0000
vn -0.2763 -0.9611 -0.0000
vn -0.4474 -0.8943 -0.0000
vn -0.5942 -0.8043 -0.0000
vn -0.7015 -0.7126 -0.0000
vn -0.7674 -0.6412 -0.0000
vn -0.8011 -0.5986 -0.0000
vn -0.8188 -0.5741 -0.0000
vn -0.8398 -0.5429 -0.0000
vn -0.8788 -0.4772 -0.0000
vn -0.9358 -0.3525 -0.0000
vn -0.9880 -0.1544 -0.0000
vn -0.9948 0.1018 -0.0000
vn -0.9334 0.3589 -0.0000
vn -0.8297 0.5582 -0.0000
vn -0.7319 0.6814 -0.0000
vn -0.6767 0.7362 -0.0000
vn -0.6867 0.7270 -0.0000
vn -0.7637 0.6456 -0.0000
vn -0.8635 0.5044 -0.0000
vn -0.9247 0.3806 -0.0000
vn -0.9378 0.3473 -0.0000
vn -0.9119 0.4103 -0.0000
vn -0.8404 0.5420 -0.0000
vn -0.7103 0.7039 -0.0000
vn -0.5219 0.8530 -0.0000
vn -0.2956 0.9553 -0.0000
vn -0.0000 -0.0000 1.0000
vn -0.0632 0.9980 -0.0000
vn 0.1480 0.9890 -0.0000
vn -0.0000 -0.0000 -1.0000
vn -1.0000 -0.0000 -0.0000
vn -0.0000 1.0000 -0.0000
vn 1.0000 -0.0000 -0.0000
vn -0.0000 -1.0000 -0.0000
s 0
usemtl carbon
f 2//1 3//1 1//1
f 4//2 5//2 3//2
f 6//3 7//3 5//3
f 8//4 9//4 7//4
f 10//5 11//5 9//5
f 12//6 13//6 11//6
f 14//7 15//7 13//7
f 16//8 17//8 15//8
f 18//9 19//9 17//9
f 20//10 21//10 19//10
f 22//11 23//11 21//11
f 24//12 25//12 23//12
f 26//13 27//13 25//13
f 28//14 29//14 27//14
f 30//15 31//15 29//15
f 32//16 33//16 31//16
f 34//17 35//17 33//17
f 36//18 37//18 35//18
f 38//19 39//19 37//19
f 40//20 41//20 39//20
f 42//21 43//21 41//21
f 44//22 45//22 43//22
f 46//23 47//23 45//23
f 48//24 49//24 47//24
f 50//25 51//25 49//25
f 52//26 53//26 51//26
f 54//27 55//27 53//27
f 56//28 57//28 55//28
f 58//29 59//29 57//29
f 60//30 61//30 59//30
f 62//31 63//31 61//31
f 64//32 65//32 63//32
f 66//33 67//33 65//33
f 68//34 69//34 67//34
f 70//35 71//35 69//35
f 72//36 73//36 71//36
f 74//37 75//37 73//37
f 76//38 77//38 75//38
f 78//39 79//39 77//39
f 80//40 81//40 79//40
f 82//41 83//41 81//41
f 84//42 85//42 83//42
f 86//43 87//43 85//43
f 88//44 89//44 87//44
f 90//45 91//45 89//45
f 92//46 93//46 91//46
f 94//47 95//47 93//47
f 96//48 97//48 95//48
f 98//49 99//49 97//49
f 100//50 101//50 99//50
f 102//51 103//51 101//51
f 104//52 105//52 103//52
f 106//53 107//53 105//53
f 108//54 109//54 107//54
f 110//55 111//55 109//55
f 112//56 113//56 111//56
f 114//57 115//57 113//57
f 116//58 117//58 115//58
f 118//59 119//59 117//59
f 120//60 121//60 119//60
f 122//61 123//61 121//61
f 124//62 125//62 123//62
f 94//63 78//63 12//63
f 126//64 127//64 125//64
f 128//65 1//65 127//65
f 63//66 81//66 97//66
f 130//67 131//67 129//67
f 132//68 135//68 131//68
f 136//69 133//69 135//69
f 134//70 129//70 133//70
f 135//66 129//66 131//66
f 132//63 134//63 136//63
f 138//67 139//67 137//67
f 140//68 143//68 139//68
f 144//69 141//69 143//69
f 142//70 137//70 141//70
f 143//66 137//66 139//66
f 140//63 142//63 144//63
f 146//67 147//67 145//67
f 148//68 151//68 147//68
f 152//69 149//69 151//69
f 150//70 145//70 149//70
f 151//66 145//66 147//66
f 148//63 150//63 152//63
f 154//67 155//67 153//67
f 156//68 159//68 155//68
f 160//69 157//69 159//69
f 158//70 153//70 157//70
f 159//66 153//66 155//66
f 156//63 158//63 160//63
f 162//67 163//67 161//67
f 164//68 167//68 163//68
f 168//69 165//69 167//69
f 166//70 161//70 165//70
f 167//66 161//66 163//66
f 164//63 166//63 168//63
f 170//67 171//67 169//67
f 172//68 175//68 171//68
f 176//69 173//69 175//69
f 174//70 169//70 173//70
f 175//66 169//66 171//66
f 172//63 174//63 176//63
f 2//1 4//1 3//1
f 4//2 6//2 5//2
f 6//3 8//3 7//3
f 8//4 10//4 9//4
f 10//5 12//5 11//5
f 12//6 14//6 13//6
f 14//7 16//7 15//7
f 16//8 18//8 17//8
f 18//9 20//9 19//9
f 20//10 22//10 21//10
f 22//11 24//11 23//11
f 24//12 26//12 25//12
f 26//13 28//13 27//13
f 28//14 30//14 29//14
f 30//15 32//15 31//15
f 32//16 34//16 33//16
f 34//17 36//17 35//17
f 36//18 38//18 37//18
f 38//19 40//19 39//19
f 40//20 42//20 41//20
f 42//21 44//21 43//21
f 44//22 46//22 45//22
f 46//23 48//23 47//23
f 48//24 50//24 49//24
f 50//25 52//25 51//25
f 52//26 54//26 53//26
f 54//27 56//27 55//27
f 56//28 58//28 57//28
f 58//29 60//29 59//29
f 60//30 62//30 61//30
f 62//31 64//31 63//31
f 64//32 66//32 65//32
f 66//33 68//33 67//33
f 68//34 70//34 69//34
f 70//35 72//35 71//35
f 72//36 74//36 73//36
f 74//37 76//37 75//37
f 76//38 78//38 77//38
f 78//39 80//39 79//39
f 80//40 82//40 81//40
f 82//41 84//41 83//41
f 84//42 86//42 85//42
f 86//43 88//43 87//43
f 88//44 90//44 89//44
f 90//45 92//45 91//45
f 92//46 94//46 93//46
f 94//47 96//47 95//47
f 96//48 98//48 97//48
f 98//49 100//49 99//49
f 100//50 102//50 101//50
f 102//51 104//51 103//51
f 104//52 106//52 105//52
f 106//53 108//53 107//53
f 108//54 110//54 109//54
f 110//55 112//55 111//55
f 112//56 114//56 113//56
f 114//57 116//57 115//57
f 116//58 118//58 117//58
f 118//59 120//59 119//59
f 120//60 122//60 121//60
f 122//61 124//61 123//61
f 124//62 126//62 125//62
f 6//63 4//63 2//63
f 2//63 128//63 126//63
f 126//63 124//63 122//63
f 122//63 120//63 118//63
f 118//63 116//63 114//63
f 122//63 118//63 114//63
f 2//63 126//63 122//63
f 8//63 6//63 2//63
f 12//63 10//63 8//63
f 16//63 14//63 12//63
f 20//63 18//63 16//63
f 24//63 22//63 20//63
f 28//63 26//63 24//63
f 30//63 28//63 24//63
f 24//63 20//63 16//63
f 12//63 8//63 2//63
f 24//63 16//63 12//63
f 32//63 30//63 24//63
f 38//63 36//63 34//63
f 32//63 24//63 12//63
f 40//63 38//63 34//63
f 34//63 32//63 12//63
f 12//63 2//63 122//63
f 122//63 114//63 112//63
f 12//63 122//63 112//63
f 40//63 34//63 12//63
f 44//63 42//63 40//63
f 48//63 46//63 44//63
f 52//63 50//63 48//63
f 56//63 54//63 52//63
f 58//63 56//63 52//63
f 52//63 48//63 44//63
f 44//63 40//63 12//63
f 12//63 112//63 110//63
f 12//63 110//63 108//63
f 52//63 44//63 12//63
f 60//63 58//63 52//63
f 60//63 52//63 12//63
f 12//63 108//63 106//63
f 106//63 104//63 102//63
f 102//63 100//63 98//63
f 98//63 96//63 94//63
f 94//63 92//63 90//63
f 90//63 88//63 86//63
f 86//63 84//63 82//63
f 82//63 80//63 78//63
f 78//63 76//63 74//63
f 74//63 72//63 70//63
f 70//63 68//63 66//63
f 70//63 66//63 64//63
f 78//63 74//63 70//63
f 86//63 82//63 78//63
f 94//63 90//63 86//63
f 102//63 98//63 94//63
f 12//63 106//63 102//63
f 62//63 60//63 12//63
f 78//63 70//63 64//63
f 64//63 62//63 12//63
f 12//63 102//63 94//63
f 94//63 86//63 78//63
f 78//63 64//63 12//63
f 126//64 128//64 127//64
f 128//65 2//65 1//65
f 127//66 1//66 3//66
f 3//66 5//66 7//66
f 7//66 9//66 11//66
f 11//66 13//66 15//66
f 15//66 17//66 19//66
f 19//66 21//66 23//66
f 23//66 25//66 27//66
f 23//66 27//66 29//66
f 15//66 19//66 23//66
f 3//66 7//66 11//66
f 11//66 15//66 23//66
f 23//66 29//66 31//66
f 33//66 35//66 37//66
f 11//66 23//66 31//66
f 33//66 37//66 39//66
f 11//66 31//66 33//66
f 127//66 3//66 11//66
f 123//66 125//66 127//66
f 119//66 121//66 123//66
f 115//66 117//66 119//66
f 113//66 115//66 119//66
f 119//66 123//66 127//66
f 127//66 11//66 33//66
f 33//66 39//66 41//66
f 41//66 43//66 45//66
f 45//66 47//66 49//66
f 49//66 51//66 53//66
f 53//66 55//66 57//66
f 53//66 57//66 59//66
f 45//66 49//66 53//66
f 33//66 41//66 45//66
f 119//66 127//66 33//66
f 111//66 113//66 119//66
f 111//66 119//66 33//66
f 33//66 45//66 53//66
f 33//66 53//66 59//66
f 109//66 111//66 33//66
f 107//66 109//66 33//66
f 33//66 59//66 61//66
f 63//66 65//66 67//66
f 33//66 61//66 63//66
f 105//66 107//66 33//66
f 101//66 103//66 105//66
f 97//66 99//66 101//66
f 93//66 95//66 97//66
f 89//66 91//66 93//66
f 85//66 87//66 89//66
f 81//66 83//66 85//66
f 77//66 79//66 81//66
f 73//66 75//66 77//66
f 69//66 71//66 73//66
f 63//66 67//66 69//66
f 105//66 33//66 63//66
f 97//66 101//66 105//66
f 89//66 93//66 97//66
f 81//66 85//66 89//66
f 73//66 77//66 81//66
f 63//66 69//66 73//66
f 97//66 105//66 63//66
f 81//66 89//66 97//66
f 63//66 73//66 81//66
f 130//67 132//67 131//67
f 132//68 136//68 135//68
f 136//69 134//69 133//69
f 134//70 130//70 129//70
f 135//66 133//66 129//66
f 132//63 130//63 134//63
f 138//67 140//67 139//67
f 140//68 144//68 143//68
f 144//69 142//69 141//69
f 142//70 138//70 137//70
f 143//66 141//66 137//66
f 140//63 138//63 142//63
f 146//67 148//67 147//67
f 148//68 152//68 151//68
f 152//69 150//69 149//69
f 150//70 146//70 145//70
f 151//66 149//66 145//66
f 148//63 146//63 150//63
f 154//67 156//67 155//67
f 156//68 160//68 159//68
f 160//69 158//69 157//69
f 158//70 154//70 153//70
f 159//66 157//66 153//66
f 156//63 154//63 158//63
f 162//67 164//67 163//67
f 164//68 168//68 167//68
f 168//69 166//69 165//69
f 166//70 162//70 161//70
f 167//66 165//66 161//66
f 164//63 162//63 166//63
f 170//67 172//67 171//67
f 172//68 176//68 175//68
f 176//69 174//69 173//69
f 174//70 170//70 169//70
f 175//66 173//66 169//66
f 172//63 170//63 174//63
