# Blender 5.2.2 LTS
# www.blender.org
mtllib fault_cover_crack.mtl
o fault_cover_crack
v -5.793237 -2.104000 2.605937
v -5.714376 -2.104000 2.516107
v -5.800000 -2.095000 2.600000
v -5.721140 -2.095000 2.510170
v -5.806764 -2.104000 2.594062
v -5.727903 -2.104000 2.504232
v -5.800000 -2.113000 2.600000
v -5.721140 -2.113000 2.510170
v -5.715144 -2.104000 2.516882
v -5.597032 -2.104000 2.411369
v -5.721139 -2.095000 2.510170
v -5.603028 -2.095000 2.404657
v -5.727136 -2.104000 2.503458
v -5.609024 -2.104000 2.397945
v -5.721139 -2.113000 2.510170
v -5.603028 -2.113000 2.404657
v -5.599339 -2.104000 2.412867
v -5.495033 -2.104000 2.366004
v -5.603027 -2.095000 2.404657
v -5.498722 -2.095000 2.357795
v -5.606716 -2.104000 2.396448
v -5.502410 -2.104000 2.349585
v -5.603027 -2.113000 2.404657
v -5.498722 -2.113000 2.357795
v -5.495421 -2.104000 2.366168
v -5.448462 -2.104000 2.347655
v -5.498722 -2.095000 2.357795
v -5.451762 -2.095000 2.339282
v -5.502023 -2.104000 2.349422
v -5.455063 -2.104000 2.330909
v -5.498722 -2.113000 2.357795
v -5.451762 -2.113000 2.339282
v -5.446373 -2.104000 2.346490
v -5.401874 -2.104000 2.313219
v -5.451762 -2.095000 2.339282
v -5.407263 -2.095000 2.306011
v -5.457151 -2.104000 2.332074
v -5.412652 -2.104000 2.298803
v -5.451762 -2.113000 2.339282
v -5.407263 -2.113000 2.306011
v -5.399133 -2.104000 2.309873
v -5.350750 -2.104000 2.208015
v -5.407263 -2.095000 2.306011
v -5.358880 -2.095000 2.204154
v -5.415392 -2.104000 2.302150
v -5.367010 -2.104000 2.200292
v -5.407263 -2.113000 2.306011
v -5.358880 -2.113000 2.204154
v -5.362898 -2.104000 2.212207
v -5.271955 -2.104000 2.257578
v -5.358880 -2.095000 2.204154
v -5.267938 -2.095000 2.249524
v -5.354862 -2.104000 2.196100
v -5.263920 -2.104000 2.241471
v -5.358880 -2.113000 2.204154
v -5.267938 -2.113000 2.249524
v -5.260662 -2.104000 2.254821
v -5.205805 -2.104000 2.179469
v -5.267938 -2.095000 2.249524
v -5.213081 -2.095000 2.174172
v -5.275214 -2.104000 2.244227
v -5.220357 -2.104000 2.168875
v -5.267938 -2.113000 2.249524
v -5.213081 -2.113000 2.174172
v -5.217730 -2.104000 2.181879
v -5.102438 -2.104000 2.251420
v -5.213081 -2.095000 2.174172
v -5.097790 -2.095000 2.243714
v -5.208433 -2.104000 2.166465
v -5.093141 -2.104000 2.236007
v -5.213081 -2.113000 2.174172
v -5.097790 -2.113000 2.243714
v -5.457007 -2.104000 2.342196
v -5.357007 -2.104000 2.522196
v -5.451762 -2.098000 2.339282
v -5.351762 -2.098000 2.519282
v -5.446517 -2.104000 2.336368
v -5.346517 -2.104000 2.516368
v -5.451762 -2.110000 2.339282
v -5.351762 -2.110000 2.519282
vn 0.5314 0.7071 0.4665
vn -0.5314 0.7071 -0.4665
vn 0.6597 -0.0000 -0.7515
vn -0.5314 -0.7071 -0.4665
vn 0.5314 -0.7071 0.4665
vn -0.6597 -0.0000 0.7515
vn 0.4711 0.7071 0.5273
vn -0.4711 0.7071 -0.5273
vn 0.7458 -0.0000 -0.6662
vn -0.4711 -0.7071 -0.5273
vn 0.4711 -0.7071 0.5274
vn -0.7458 -0.0000 0.6662
vn 0.2898 0.7071 0.6450
vn -0.2898 0.7071 -0.6450
vn 0.9122 -0.0000 -0.4098
vn -0.2898 -0.7071 -0.6450
vn 0.2898 -0.7071 0.6450
vn -0.9122 -0.0000 0.4098
vn 0.2593 0.7071 0.6578
vn -0.2593 0.7071 -0.6578
vn 0.9303 -0.0000 -0.3667
vn -0.2593 -0.7071 -0.6578
vn 0.2593 -0.7071 0.6579
vn -0.9303 -0.0000 0.3667
vn 0.4234 0.7071 0.5663
vn -0.4234 0.7071 -0.5663
vn 0.8009 -0.0000 -0.5988
vn -0.4234 -0.7071 -0.5663
vn 0.4234 -0.7071 0.5663
vn -0.8009 -0.0000 0.5988
vn 0.6387 0.7071 0.3034
vn -0.6387 0.7071 -0.3034
vn 0.4291 -0.0000 -0.9033
vn -0.6387 -0.7071 -0.3034
vn 0.6387 -0.7071 0.3034
vn -0.4291 -0.0000 0.9033
vn -0.3157 0.7071 0.6327
vn 0.3157 0.7071 -0.6328
vn 0.8948 -0.0000 0.4464
vn 0.3157 -0.7071 -0.6327
vn -0.3157 -0.7071 0.6327
vn -0.8948 -0.0000 -0.4464
vn 0.5717 0.7071 0.4162
vn -0.5717 0.7071 -0.4162
vn 0.5885 -0.0000 -0.8085
vn -0.5717 -0.7071 -0.4162
vn 0.5716 -0.7071 0.4161
vn -0.5885 -0.0000 0.8085
vn -0.3652 0.7071 0.6055
vn 0.3652 0.7071 -0.6055
vn 0.8563 -0.0000 0.5165
vn 0.3652 -0.7071 -0.6055
vn -0.3652 -0.7071 0.6055
vn -0.8563 -0.0000 -0.5165
vn -0.6181 0.7071 0.3434
vn 0.6181 0.7071 -0.3434
vn 0.4856 -0.0000 0.8742
vn 0.6181 -0.7071 -0.3434
vn -0.6181 -0.7071 0.3434
vn -0.4857 -0.0000 -0.8741
vn -0.4711 0.7071 -0.5274
vn 0.4711 -0.7071 0.5273
vn 0.2593 0.7071 0.6579
vn -0.2593 -0.7071 -0.6579
vn 0.2593 -0.7071 0.6578
vn 0.3157 0.7071 -0.6327
vn 0.5717 0.7071 0.4161
vn 0.5717 -0.7071 0.4162
vn -0.5886 -0.0000 0.8085
vn -0.4856 -0.0000 -0.8742
s 0
usemtl crack
f 2//1 3//1 1//1
f 4//2 5//2 3//2
f 4//3 8//3 6//3
f 5//4 8//4 7//4
f 7//5 2//5 1//5
f 3//6 7//6 1//6
f 9//7 12//7 11//7
f 12//8 13//8 11//8
f 12//9 16//9 14//9
f 14//10 15//10 13//10
f 15//11 10//11 9//11
f 11//12 15//12 9//12
f 17//13 20//13 19//13
f 20//14 21//14 19//14
f 20//15 24//15 22//15
f 22//16 23//16 21//16
f 24//17 17//17 23//17
f 19//18 23//18 17//18
f 26//19 27//19 25//19
f 28//20 29//20 27//20
f 26//21 30//21 28//21
f 30//22 31//22 29//22
f 32//23 25//23 31//23
f 25//24 29//24 31//24
f 34//25 35//25 33//25
f 36//26 37//26 35//26
f 34//27 38//27 36//27
f 37//28 40//28 39//28
f 40//29 33//29 39//29
f 35//30 39//30 33//30
f 41//31 44//31 43//31
f 44//32 45//32 43//32
f 42//33 46//33 44//33
f 46//34 47//34 45//34
f 48//35 41//35 47//35
f 43//36 47//36 41//36
f 50//37 51//37 49//37
f 52//38 53//38 51//38
f 52//39 56//39 54//39
f 53//40 56//40 55//40
f 56//41 49//41 55//41
f 51//42 55//42 49//42
f 57//43 60//43 59//43
f 59//44 62//44 61//44
f 58//45 62//45 60//45
f 62//46 63//46 61//46
f 63//47 58//47 57//47
f 59//48 63//48 57//48
f 66//49 67//49 65//49
f 68//50 69//50 67//50
f 68//51 72//51 70//51
f 69//52 72//52 71//52
f 71//53 66//53 65//53
f 67//54 71//54 65//54
f 73//55 76//55 75//55
f 75//56 78//56 77//56
f 74//57 78//57 76//57
f 77//58 80//58 79//58
f 80//59 73//59 79//59
f 75//60 79//60 73//60
f 2//1 4//1 3//1
f 4//2 6//2 5//2
f 4//3 2//3 8//3
f 5//4 6//4 8//4
f 7//5 8//5 2//5
f 3//6 5//6 7//6
f 9//7 10//7 12//7
f 12//61 14//61 13//61
f 12//9 10//9 16//9
f 14//10 16//10 15//10
f 15//62 16//62 10//62
f 11//12 13//12 15//12
f 17//13 18//13 20//13
f 20//14 22//14 21//14
f 20//15 18//15 24//15
f 22//16 24//16 23//16
f 24//17 18//17 17//17
f 19//18 21//18 23//18
f 26//63 28//63 27//63
f 28//20 30//20 29//20
f 26//21 32//21 30//21
f 30//64 32//64 31//64
f 32//65 26//65 25//65
f 25//24 27//24 29//24
f 34//25 36//25 35//25
f 36//26 38//26 37//26
f 34//27 40//27 38//27
f 37//28 38//28 40//28
f 40//29 34//29 33//29
f 35//30 37//30 39//30
f 41//31 42//31 44//31
f 44//32 46//32 45//32
f 42//33 48//33 46//33
f 46//34 48//34 47//34
f 48//35 42//35 41//35
f 43//36 45//36 47//36
f 50//37 52//37 51//37
f 52//66 54//66 53//66
f 52//39 50//39 56//39
f 53//40 54//40 56//40
f 56//41 50//41 49//41
f 51//42 53//42 55//42
f 57//67 58//67 60//67
f 59//44 60//44 62//44
f 58//45 64//45 62//45
f 62//46 64//46 63//46
f 63//68 64//68 58//68
f 59//69 61//69 63//69
f 66//49 68//49 67//49
f 68//50 70//50 69//50
f 68//51 66//51 72//51
f 69//52 70//52 72//52
f 71//53 72//53 66//53
f 67//54 69//54 71//54
f 73//55 74//55 76//55
f 75//56 76//56 78//56
f 74//57 80//57 78//57
f 77//58 78//58 80//58
f 80//59 74//59 73//59
f 75//70 77//70 79//70
