# Blender 5.2.2 LTS
# www.blender.org
mtllib fault_oil_streak.mtl
o fault_oil_streak
v 0.000000 -0.580000 -0.060000
v 0.000000 -0.580000 0.000000
v 0.000000 -0.280000 -0.060000
v 0.000000 -0.280000 0.000000
v 0.004000 -0.580000 -0.060000
v 0.004000 -0.580000 0.000000
v 0.004000 -0.280000 -0.060000
v 0.004000 -0.280000 0.000000
v 0.000000 -0.600000 -0.700000
v 0.000000 -0.600000 0.000000
v 0.000000 -0.540000 -0.700000
v 0.000000 -0.540000 0.000000
v 0.004000 -0.600000 -0.700000
v 0.004000 -0.600000 0.000000
v 0.004000 -0.540000 -0.700000
v 0.004000 -0.540000 0.000000
v -0.600000 -0.030000 -1.004000
v -0.600000 -0.030000 -0.980000
v -0.600000 0.030000 -1.004000
v -0.600000 0.030000 -0.980000
v -0.000000 -0.030000 -1.004000
v -0.000000 -0.030000 -0.980000
v -0.000000 0.030000 -1.004000
v -0.000000 0.030000 -0.980000
v -0.300000 0.000000 -1.008000
v -0.300000 0.002341 -1.008231
v -0.300000 0.006667 -1.010022
v -0.300000 0.008485 -1.011515
v -0.300000 0.011087 -1.015408
v -0.300000 0.012000 -1.020000
v -0.300000 0.011769 -1.022341
v -0.300000 0.008485 -1.028485
v -0.300000 0.006667 -1.029978
v -0.300000 0.000000 -1.032000
v -0.299543 0.002296 -1.008231
v -0.299104 0.004504 -1.008913
v -0.298699 0.006539 -1.010022
v -0.298345 0.008322 -1.011515
v -0.298053 0.009786 -1.013333
v -0.297837 0.010874 -1.015408
v -0.297704 0.011543 -1.017659
v -0.297659 0.011769 -1.020000
v -0.297704 0.011543 -1.022341
v -0.297837 0.010874 -1.024592
v -0.298053 0.009786 -1.026667
v -0.298345 0.008322 -1.028485
v -0.298699 0.006539 -1.029978
v -0.299104 0.004504 -1.031087
v -0.299543 0.002296 -1.031769
v -0.299104 0.002163 -1.008231
v -0.298243 0.004243 -1.008913
v -0.297449 0.006159 -1.010022
v -0.296753 0.007839 -1.011515
v -0.296182 0.009218 -1.013333
v -0.295757 0.010243 -1.015408
v -0.295496 0.010874 -1.017659
v -0.295408 0.011087 -1.020000
v -0.295496 0.010874 -1.022341
v -0.295757 0.010243 -1.024592
v -0.296182 0.009218 -1.026667
v -0.296753 0.007839 -1.028485
v -0.297449 0.006159 -1.029978
v -0.298243 0.004243 -1.031087
v -0.299104 0.002163 -1.031769
v -0.298699 0.001947 -1.008231
v -0.297449 0.003818 -1.008913
v -0.296296 0.005543 -1.010022
v -0.295286 0.007055 -1.011515
v -0.294457 0.008296 -1.013333
v -0.293841 0.009218 -1.015408
v -0.293461 0.009786 -1.017659
v -0.293333 0.009978 -1.020000
v -0.293461 0.009786 -1.022341
v -0.293841 0.009218 -1.024592
v -0.294457 0.008296 -1.026667
v -0.295286 0.007055 -1.028485
v -0.296296 0.005543 -1.029978
v -0.297449 0.003818 -1.031087
v -0.298699 0.001947 -1.031769
v -0.298345 0.001655 -1.008231
v -0.296753 0.003247 -1.008913
v -0.295286 0.004714 -1.010022
v -0.294000 0.006000 -1.011515
v -0.292945 0.007055 -1.013333
v -0.292161 0.007839 -1.015408
v -0.291678 0.008322 -1.017659
v -0.291515 0.008485 -1.020000
v -0.291678 0.008322 -1.022341
v -0.292161 0.007839 -1.024592
v -0.292945 0.007055 -1.026667
v -0.294000 0.006000 -1.028485
v -0.295286 0.004714 -1.029978
v -0.296753 0.003247 -1.031087
v -0.298345 0.001655 -1.031769
v -0.298053 0.001301 -1.008231
v -0.296182 0.002551 -1.008913
v -0.294457 0.003704 -1.010022
v -0.292945 0.004714 -1.011515
v -0.291704 0.005543 -1.013333
v -0.290782 0.006159 -1.015408
v -0.290214 0.006539 -1.017659
v -0.290022 0.006667 -1.020000
v -0.290214 0.006539 -1.022341
v -0.290782 0.006159 -1.024592
v -0.291704 0.005543 -1.026667
v -0.292945 0.004714 -1.028485
v -0.294457 0.003704 -1.029978
v -0.296182 0.002551 -1.031087
v -0.298053 0.001301 -1.031769
v -0.297837 0.000896 -1.008231
v -0.295757 0.001757 -1.008913
v -0.293841 0.002551 -1.010022
v -0.292161 0.003247 -1.011515
v -0.290782 0.003818 -1.013333
v -0.289757 0.004243 -1.015408
v -0.289126 0.004504 -1.017659
v -0.288913 0.004592 -1.020000
v -0.289126 0.004504 -1.022341
v -0.289757 0.004243 -1.024592
v -0.290782 0.003818 -1.026667
v -0.292161 0.003247 -1.028485
v -0.293841 0.002551 -1.029978
v -0.295757 0.001757 -1.031087
v -0.297837 0.000896 -1.031769
v -0.297704 0.000457 -1.008231
v -0.295496 0.000896 -1.008913
v -0.293461 0.001301 -1.010022
v -0.291678 0.001655 -1.011515
v -0.290214 0.001947 -1.013333
v -0.289126 0.002163 -1.015408
v -0.288457 0.002296 -1.017659
v -0.288231 0.002341 -1.020000
v -0.288457 0.002296 -1.022341
v -0.289126 0.002163 -1.024592
v -0.290214 0.001947 -1.026667
v -0.291678 0.001655 -1.028485
v -0.293461 0.001301 -1.029978
v -0.295496 0.000896 -1.031087
v -0.297704 0.000457 -1.031769
v -0.297659 0.000000 -1.008231
v -0.295408 0.000000 -1.008913
v -0.293333 0.000000 -1.010022
v -0.291515 0.000000 -1.011515
v -0.290022 0.000000 -1.013333
v -0.288913 0.000000 -1.015408
v -0.288231 0.000000 -1.017659
v -0.288000 0.000000 -1.020000
v -0.288231 0.000000 -1.022341
v -0.288913 0.000000 -1.024592
v -0.290022 0.000000 -1.026667
v -0.291515 0.000000 -1.028485
v -0.293333 0.000000 -1.029978
v -0.295408 0.000000 -1.031087
v -0.297659 0.000000 -1.031769
v -0.297704 -0.000457 -1.008231
v -0.295496 -0.000896 -1.008913
v -0.293461 -0.001301 -1.010022
v -0.291678 -0.001655 -1.011515
v -0.290214 -0.001947 -1.013333
v -0.289126 -0.002163 -1.015408
v -0.288457 -0.002296 -1.017659
v -0.288231 -0.002341 -1.020000
v -0.288457 -0.002296 -1.022341
v -0.289126 -0.002163 -1.024592
v -0.290214 -0.001947 -1.026667
v -0.291678 -0.001655 -1.028485
v -0.293461 -0.001301 -1.029978
v -0.295496 -0.000896 -1.031087
v -0.297704 -0.000457 -1.031769
v -0.297837 -0.000896 -1.008231
v -0.295757 -0.001757 -1.008913
v -0.293841 -0.002551 -1.010022
v -0.292161 -0.003247 -1.011515
v -0.290782 -0.003818 -1.013333
v -0.289757 -0.004243 -1.015408
v -0.289126 -0.004504 -1.017659
v -0.288913 -0.004592 -1.020000
v -0.289126 -0.004504 -1.022341
v -0.289757 -0.004243 -1.024592
v -0.290782 -0.003818 -1.026667
v -0.292161 -0.003247 -1.028485
v -0.293841 -0.002551 -1.029978
v -0.295757 -0.001757 -1.031087
v -0.297837 -0.000896 -1.031769
v -0.298053 -0.001301 -1.008231
v -0.296182 -0.002551 -1.008913
v -0.294457 -0.003704 -1.010022
v -0.292945 -0.004714 -1.011515
v -0.291704 -0.005543 -1.013333
v -0.290782 -0.006159 -1.015408
v -0.290214 -0.006539 -1.017659
v -0.290022 -0.006667 -1.020000
v -0.290214 -0.006539 -1.022341
v -0.290782 -0.006159 -1.024592
v -0.291704 -0.005543 -1.026667
v -0.292945 -0.004714 -1.028485
v -0.294457 -0.003704 -1.029978
v -0.296182 -0.002551 -1.031087
v -0.298053 -0.001301 -1.031769
v -0.298345 -0.001655 -1.008231
v -0.296753 -0.003247 -1.008913
v -0.295286 -0.004714 -1.010022
v -0.294000 -0.006000 -1.011515
v -0.292945 -0.007055 -1.013333
v -0.292161 -0.007839 -1.015408
v -0.291678 -0.008322 -1.017659
v -0.291515 -0.008485 -1.020000
v -0.291678 -0.008322 -1.022341
v -0.292161 -0.007839 -1.024592
v -0.292945 -0.007055 -1.026667
v -0.294000 -0.006000 -1.028485
v -0.295286 -0.004714 -1.029978
v -0.296753 -0.003247 -1.031087
v -0.298345 -0.001655 -1.031769
v -0.298699 -0.001947 -1.008231
v -0.297449 -0.003818 -1.008913
v -0.296296 -0.005543 -1.010022
v -0.295286 -0.007055 -1.011515
v -0.294457 -0.008296 -1.013333
v -0.293841 -0.009218 -1.015408
v -0.293461 -0.009786 -1.017659
v -0.293333 -0.009978 -1.020000
v -0.293461 -0.009786 -1.022341
v -0.293841 -0.009218 -1.024592
v -0.294457 -0.008296 -1.026667
v -0.295286 -0.007055 -1.028485
v -0.296296 -0.005543 -1.029978
v -0.297449 -0.003818 -1.031087
v -0.298699 -0.001947 -1.031769
v -0.299104 -0.002163 -1.008231
v -0.298243 -0.004243 -1.008913
v -0.297449 -0.006159 -1.010022
v -0.296753 -0.007839 -1.011515
v -0.296182 -0.009218 -1.013333
v -0.295757 -0.010243 -1.015408
v -0.295496 -0.010874 -1.017659
v -0.295408 -0.011087 -1.020000
v -0.295496 -0.010874 -1.022341
v -0.295757 -0.010243 -1.024592
v -0.296182 -0.009218 -1.026667
v -0.296753 -0.007839 -1.028485
v -0.297449 -0.006159 -1.029978
v -0.298243 -0.004243 -1.031087
v -0.299104 -0.002163 -1.031769
v -0.299543 -0.002296 -1.008231
v -0.299104 -0.004504 -1.008913
v -0.298699 -0.006539 -1.010022
v -0.298345 -0.008322 -1.011515
v -0.298053 -0.009786 -1.013333
v -0.297837 -0.010874 -1.015408
v -0.297704 -0.011543 -1.017659
v -0.297659 -0.011769 -1.020000
v -0.297704 -0.011543 -1.022341
v -0.297837 -0.010874 -1.024592
v -0.298053 -0.009786 -1.026667
v -0.298345 -0.008322 -1.028485
v -0.298699 -0.006539 -1.029978
v -0.299104 -0.004504 -1.031087
v -0.299543 -0.002296 -1.031769
v -0.300000 -0.002341 -1.008231
v -0.300000 -0.004592 -1.008913
v -0.300000 -0.006667 -1.010022
v -0.300000 -0.008485 -1.011515
v -0.300000 -0.009978 -1.013333
v -0.300000 -0.011087 -1.015408
v -0.300000 -0.011769 -1.017659
v -0.300000 -0.012000 -1.020000
v -0.300000 -0.011769 -1.022341
v -0.300000 -0.011087 -1.024592
v -0.300000 -0.009978 -1.026667
v -0.300000 -0.008485 -1.028485
v -0.300000 -0.006667 -1.029978
v -0.300000 -0.004592 -1.031087
v -0.300000 -0.002341 -1.031769
v -0.300457 -0.002296 -1.008231
v -0.300896 -0.004504 -1.008913
v -0.301301 -0.006539 -1.010022
v -0.301655 -0.008322 -1.011515
v -0.301947 -0.009786 -1.013333
v -0.302163 -0.010874 -1.015408
v -0.302296 -0.011543 -1.017659
v -0.302341 -0.011769 -1.020000
v -0.302296 -0.011543 -1.022341
v -0.302163 -0.010874 -1.024592
v -0.301947 -0.009786 -1.026667
v -0.301655 -0.008322 -1.028485
v -0.301301 -0.006539 -1.029978
v -0.300896 -0.004504 -1.031087
v -0.300457 -0.002296 -1.031769
v -0.300896 -0.002163 -1.008231
v -0.301757 -0.004243 -1.008913
v -0.302551 -0.006159 -1.010022
v -0.303247 -0.007839 -1.011515
v -0.303818 -0.009218 -1.013333
v -0.304243 -0.010243 -1.015408
v -0.304504 -0.010874 -1.017659
v -0.304592 -0.011087 -1.020000
v -0.304504 -0.010874 -1.022341
v -0.304243 -0.010243 -1.024592
v -0.303818 -0.009218 -1.026667
v -0.303247 -0.007839 -1.028485
v -0.302551 -0.006159 -1.029978
v -0.301757 -0.004243 -1.031087
v -0.300896 -0.002163 -1.031769
v -0.301301 -0.001947 -1.008231
v -0.302551 -0.003818 -1.008913
v -0.303704 -0.005543 -1.010022
v -0.304714 -0.007055 -1.011515
v -0.305543 -0.008296 -1.013333
v -0.306159 -0.009218 -1.015408
v -0.306539 -0.009786 -1.017659
v -0.306667 -0.009978 -1.020000
v -0.306539 -0.009786 -1.022341
v -0.306159 -0.009218 -1.024592
v -0.305543 -0.008296 -1.026667
v -0.304714 -0.007055 -1.028485
v -0.303704 -0.005543 -1.029978
v -0.302551 -0.003818 -1.031087
v -0.301301 -0.001947 -1.031769
v -0.301655 -0.001655 -1.008231
v -0.303247 -0.003247 -1.008913
v -0.304714 -0.004714 -1.010022
v -0.306000 -0.006000 -1.011515
v -0.307055 -0.007055 -1.013333
v -0.307839 -0.007839 -1.015408
v -0.308322 -0.008322 -1.017659
v -0.308485 -0.008485 -1.020000
v -0.308322 -0.008322 -1.022341
v -0.307839 -0.007839 -1.024592
v -0.307055 -0.007055 -1.026667
v -0.306000 -0.006000 -1.028485
v -0.304714 -0.004714 -1.029978
v -0.303247 -0.003247 -1.031087
v -0.301655 -0.001655 -1.031769
v -0.301947 -0.001301 -1.008231
v -0.303818 -0.002551 -1.008913
v -0.305543 -0.003704 -1.010022
v -0.307055 -0.004714 -1.011515
v -0.308296 -0.005543 -1.013333
v -0.309218 -0.006159 -1.015408
v -0.309786 -0.006539 -1.017659
v -0.309978 -0.006667 -1.020000
v -0.309786 -0.006539 -1.022341
v -0.309218 -0.006159 -1.024592
v -0.308296 -0.005543 -1.026667
v -0.307055 -0.004714 -1.028485
v -0.305543 -0.003704 -1.029978
v -0.303818 -0.002551 -1.031087
v -0.301947 -0.001301 -1.031769
v -0.302163 -0.000896 -1.008231
v -0.304243 -0.001757 -1.008913
v -0.306159 -0.002551 -1.010022
v -0.307839 -0.003247 -1.011515
v -0.309218 -0.003818 -1.013333
v -0.310243 -0.004243 -1.015408
v -0.310874 -0.004504 -1.017659
v -0.311087 -0.004592 -1.020000
v -0.310874 -0.004504 -1.022341
v -0.310243 -0.004243 -1.024592
v -0.309218 -0.003818 -1.026667
v -0.307839 -0.003247 -1.028485
v -0.306159 -0.002551 -1.029978
v -0.304243 -0.001757 -1.031087
v -0.302163 -0.000896 -1.031769
v -0.302296 -0.000457 -1.008231
v -0.304504 -0.000896 -1.008913
v -0.306539 -0.001301 -1.010022
v -0.308322 -0.001655 -1.011515
v -0.309786 -0.001947 -1.013333
v -0.310874 -0.002163 -1.015408
v -0.311543 -0.002296 -1.017659
v -0.311769 -0.002341 -1.020000
v -0.311543 -0.002296 -1.022341
v -0.310874 -0.002163 -1.024592
v -0.309786 -0.001947 -1.026667
v -0.308322 -0.001655 -1.028485
v -0.306539 -0.001301 -1.029978
v -0.304504 -0.000896 -1.031087
v -0.302296 -0.000457 -1.031769
v -0.302341 0.000000 -1.008231
v -0.304592 0.000000 -1.008913
v -0.306667 0.000000 -1.010022
v -0.308485 0.000000 -1.011515
v -0.309978 0.000000 -1.013333
v -0.311087 0.000000 -1.015408
v -0.311769 0.000000 -1.017659
v -0.312000 0.000000 -1.020000
v -0.311769 0.000000 -1.022341
v -0.311087 0.000000 -1.024592
v -0.309978 0.000000 -1.026667
v -0.308485 0.000000 -1.028485
v -0.306667 0.000000 -1.029978
v -0.304592 0.000000 -1.031087
v -0.302341 0.000000 -1.031769
v -0.302296 0.000457 -1.008231
v -0.304504 0.000896 -1.008913
v -0.306539 0.001301 -1.010022
v -0.308322 0.001655 -1.011515
v -0.309786 0.001947 -1.013333
v -0.310874 0.002163 -1.015408
v -0.311543 0.002296 -1.017659
v -0.311769 0.002341 -1.020000
v -0.311543 0.002296 -1.022341
v -0.310874 0.002163 -1.024592
v -0.309786 0.001947 -1.026667
v -0.308322 0.001655 -1.028485
v -0.306539 0.001301 -1.029978
v -0.304504 0.000896 -1.031087
v -0.302296 0.000457 -1.031769
v -0.302163 0.000896 -1.008231
v -0.304243 0.001757 -1.008913
v -0.306159 0.002551 -1.010022
v -0.307839 0.003247 -1.011515
v -0.309218 0.003818 -1.013333
v -0.310243 0.004243 -1.015408
v -0.310874 0.004504 -1.017659
v -0.311087 0.004592 -1.020000
v -0.310874 0.004504 -1.022341
v -0.310243 0.004243 -1.024592
v -0.309218 0.003818 -1.026667
v -0.307839 0.003247 -1.028485
v -0.306159 0.002551 -1.029978
v -0.304243 0.001757 -1.031087
v -0.302163 0.000896 -1.031769
v -0.301947 0.001301 -1.008231
v -0.303818 0.002551 -1.008913
v -0.305543 0.003704 -1.010022
v -0.307055 0.004714 -1.011515
v -0.308296 0.005543 -1.013333
v -0.309218 0.006159 -1.015408
v -0.309786 0.006539 -1.017659
v -0.309978 0.006667 -1.020000
v -0.309786 0.006539 -1.022341
v -0.309218 0.006159 -1.024592
v -0.308296 0.005543 -1.026667
v -0.307055 0.004714 -1.028485
v -0.305543 0.003704 -1.029978
v -0.303818 0.002551 -1.031087
v -0.301947 0.001301 -1.031769
v -0.301655 0.001655 -1.008231
v -0.303247 0.003247 -1.008913
v -0.304714 0.004714 -1.010022
v -0.306000 0.006000 -1.011515
v -0.307055 0.007055 -1.013333
v -0.307839 0.007839 -1.015408
v -0.308322 0.008322 -1.017659
v -0.308485 0.008485 -1.020000
v -0.308322 0.008322 -1.022341
v -0.307839 0.007839 -1.024592
v -0.307055 0.007055 -1.026667
v -0.306000 0.006000 -1.028485
v -0.304714 0.004714 -1.029978
v -0.303247 0.003247 -1.031087
v -0.301655 0.001655 -1.031769
v -0.301301 0.001947 -1.008231
v -0.302551 0.003818 -1.008913
v -0.303704 0.005543 -1.010022
v -0.304714 0.007055 -1.011515
v -0.305543 0.008296 -1.013333
v -0.306159 0.009218 -1.015408
v -0.306539 0.009786 -1.017659
v -0.306667 0.009978 -1.020000
v -0.306539 0.009786 -1.022341
v -0.306159 0.009218 -1.024592
v -0.305543 0.008296 -1.026667
v -0.304714 0.007055 -1.028485
v -0.303704 0.005543 -1.029978
v -0.302551 0.003818 -1.031087
v -0.301301 0.001947 -1.031769
v -0.300896 0.002163 -1.008231
v -0.301757 0.004243 -1.008913
v -0.302551 0.006159 -1.010022
v -0.303247 0.007839 -1.011515
v -0.303818 0.009218 -1.013333
v -0.304243 0.010243 -1.015408
v -0.304504 0.010874 -1.017659
v -0.304592 0.011087 -1.020000
v -0.304504 0.010874 -1.022341
v -0.304243 0.010243 -1.024592
v -0.303818 0.009218 -1.026667
v -0.303247 0.007839 -1.028485
v -0.302551 0.006159 -1.029978
v -0.301757 0.004243 -1.031087
v -0.300896 0.002163 -1.031769
v -0.300457 0.002296 -1.008231
v -0.300896 0.004504 -1.008913
v -0.301301 0.006539 -1.010022
v -0.301655 0.008322 -1.011515
v -0.301947 0.009786 -1.013333
v -0.302163 0.010874 -1.015408
v -0.302296 0.011543 -1.017659
v -0.302341 0.011769 -1.020000
v -0.302296 0.011543 -1.022341
v -0.302163 0.010874 -1.024592
v -0.301947 0.009786 -1.026667
v -0.301655 0.008322 -1.028485
v -0.301301 0.006539 -1.029978
v -0.300896 0.004504 -1.031087
v -0.300457 0.002296 -1.031769
v -0.300000 0.004592 -1.008913
v -0.300000 0.009978 -1.013333
v -0.300000 0.011769 -1.017659
v -0.300000 0.011087 -1.024592
v -0.300000 0.009978 -1.026667
v -0.300000 0.004592 -1.031087
v -0.300000 0.002341 -1.031769
vn -1.0000 -0.0000 -0.0000
vn -0.0000 1.0000 -0.0000
vn 1.0000 -0.0000 -0.0000
vn -0.0000 -1.0000 -0.0000
vn -0.0000 -0.0000 -1.0000
vn -0.0000 -0.0000 1.0000
vn 0.0759 0.7708 0.6326
vn 0.0624 0.6332 -0.7715
vn 0.0865 0.8786 0.4696
vn 0.0465 0.4709 -0.8809
vn 0.0938 0.9527 0.2890
vn 0.0286 0.2901 -0.9566
vn 0.0976 0.9904 0.0975
vn 0.0095 0.0980 0.9951
vn 0.0095 0.0980 -0.9951
vn 0.0976 0.9904 -0.0975
vn 0.0285 0.2902 0.9566
vn 0.0938 0.9527 -0.2890
vn 0.0464 0.4709 0.8810
vn 0.0865 0.8786 -0.4696
vn 0.0624 0.6332 0.7715
vn 0.0759 0.7708 -0.6326
vn 0.2563 0.8449 -0.4696
vn 0.1847 0.6088 0.7715
vn 0.2248 0.7411 -0.6326
vn 0.2249 0.7412 0.6326
vn 0.1847 0.6088 -0.7715
vn 0.2563 0.8449 0.4696
vn 0.1373 0.4528 -0.8810
vn 0.2779 0.9161 0.2890
vn 0.0845 0.2790 -0.9566
vn 0.2889 0.9524 0.0976
vn 0.0286 0.0943 0.9951
vn 0.0284 0.0942 -0.9951
vn 0.2889 0.9524 -0.0976
vn 0.0845 0.2790 0.9566
vn 0.2779 0.9161 -0.2890
vn 0.1374 0.4528 0.8810
vn 0.1373 0.2571 -0.9566
vn 0.4692 0.8777 0.0976
vn 0.0464 0.0869 0.9951
vn 0.0466 0.0868 -0.9951
vn 0.4691 0.8777 -0.0975
vn 0.1375 0.2571 0.9565
vn 0.4513 0.8443 -0.2890
vn 0.2231 0.4173 0.8810
vn 0.4162 0.7786 -0.4696
vn 0.2999 0.5611 0.7715
vn 0.3651 0.6830 -0.6326
vn 0.3651 0.6830 0.6326
vn 0.2999 0.5611 -0.7715
vn 0.4162 0.7786 0.4696
vn 0.2230 0.4173 -0.8810
vn 0.4513 0.8443 0.2890
vn 0.4913 0.5987 -0.6325
vn 0.4913 0.5987 0.6326
vn 0.4037 0.4918 -0.7715
vn 0.5601 0.6825 0.4696
vn 0.3001 0.3657 -0.8810
vn 0.6073 0.7400 0.2890
vn 0.1852 0.2254 -0.9565
vn 0.6314 0.7693 0.0975
vn 0.0626 0.0761 0.9951
vn 0.0624 0.0761 -0.9951
vn 0.6314 0.7693 -0.0976
vn 0.1850 0.2254 0.9566
vn 0.6073 0.7400 -0.2890
vn 0.3002 0.3657 0.8810
vn 0.5601 0.6825 -0.4696
vn 0.4036 0.4918 0.7715
vn 0.0761 0.0625 0.9951
vn 0.0760 0.0625 -0.9951
vn 0.7693 0.6314 -0.0976
vn 0.2254 0.1850 0.9565
vn 0.7400 0.6073 -0.2890
vn 0.3658 0.3002 0.8810
vn 0.6824 0.5601 -0.4696
vn 0.4918 0.4036 0.7715
vn 0.5987 0.4914 -0.6326
vn 0.5987 0.4913 0.6326
vn 0.4918 0.4036 -0.7715
vn 0.6825 0.5600 0.4696
vn 0.3658 0.3002 -0.8809
vn 0.7400 0.6073 0.2890
vn 0.2255 0.1849 -0.9565
vn 0.7693 0.6314 0.0976
vn 0.6830 0.3651 0.6326
vn 0.5611 0.2999 -0.7715
vn 0.7786 0.4162 0.4696
vn 0.4173 0.2231 -0.8809
vn 0.8443 0.4513 0.2890
vn 0.2571 0.1375 -0.9565
vn 0.8777 0.4692 0.0976
vn 0.0868 0.0464 0.9951
vn 0.0869 0.0464 -0.9951
vn 0.8777 0.4692 -0.0976
vn 0.2572 0.1374 0.9565
vn 0.8443 0.4513 -0.2890
vn 0.4173 0.2230 0.8810
vn 0.7786 0.4162 -0.4697
vn 0.5611 0.2999 0.7715
vn 0.6830 0.3651 -0.6326
vn 0.9524 0.2889 -0.0975
vn 0.2790 0.0847 0.9566
vn 0.9161 0.2779 -0.2890
vn 0.4528 0.1374 0.8810
vn 0.8448 0.2563 -0.4696
vn 0.6088 0.1847 0.7715
vn 0.7412 0.2248 -0.6325
vn 0.7411 0.2248 0.6326
vn 0.6089 0.1847 -0.7715
vn 0.8448 0.2563 0.4696
vn 0.4528 0.1373 -0.8810
vn 0.9161 0.2779 0.2890
vn 0.2790 0.0846 -0.9566
vn 0.9524 0.2889 0.0975
vn 0.0942 0.0286 0.9951
vn 0.0943 0.0286 -0.9951
vn 0.6331 0.0624 -0.7715
vn 0.8786 0.0866 0.4696
vn 0.4709 0.0464 -0.8810
vn 0.9527 0.0938 0.2890
vn 0.2902 0.0286 -0.9566
vn 0.9904 0.0976 0.0976
vn 0.0980 0.0097 0.9951
vn 0.0980 0.0097 -0.9951
vn 0.9904 0.0976 -0.0975
vn 0.2902 0.0286 0.9566
vn 0.9527 0.0938 -0.2890
vn 0.4709 0.0463 0.8810
vn 0.8786 0.0865 -0.4696
vn 0.6331 0.0624 0.7715
vn 0.7708 0.0759 -0.6325
vn 0.7708 0.0759 0.6326
vn 0.2902 -0.0286 0.9565
vn 0.9527 -0.0939 -0.2890
vn 0.4709 -0.0464 0.8810
vn 0.8786 -0.0865 -0.4696
vn 0.6332 -0.0624 0.7715
vn 0.7708 -0.0759 -0.6325
vn 0.7708 -0.0759 0.6326
vn 0.6331 -0.0624 -0.7715
vn 0.8786 -0.0866 0.4696
vn 0.4709 -0.0464 -0.8810
vn 0.9527 -0.0938 0.2890
vn 0.2901 -0.0286 -0.9566
vn 0.9904 -0.0976 0.0976
vn 0.0980 -0.0097 0.9951
vn 0.0980 -0.0097 -0.9951
vn 0.9904 -0.0976 -0.0975
vn 0.8449 -0.2563 0.4696
vn 0.4527 -0.1373 -0.8810
vn 0.9161 -0.2779 0.2890
vn 0.2790 -0.0846 -0.9566
vn 0.9524 -0.2889 0.0976
vn 0.0943 -0.0286 0.9951
vn 0.0943 -0.0286 -0.9951
vn 0.9524 -0.2889 -0.0975
vn 0.2790 -0.0846 0.9566
vn 0.9161 -0.2779 -0.2890
vn 0.4528 -0.1374 0.8810
vn 0.8448 -0.2563 -0.4696
vn 0.6088 -0.1847 0.7715
vn 0.7412 -0.2248 -0.6325
vn 0.7411 -0.2248 0.6326
vn 0.6089 -0.1847 -0.7715
vn 0.8443 -0.4513 -0.2890
vn 0.4173 -0.2230 0.8810
vn 0.7786 -0.4162 -0.4696
vn 0.5611 -0.2999 0.7715
vn 0.6830 -0.3651 -0.6326
vn 0.6831 -0.3651 0.6326
vn 0.5610 -0.2999 -0.7716
vn 0.7786 -0.4162 0.4696
vn 0.4173 -0.2231 -0.8809
vn 0.8443 -0.4513 0.2890
vn 0.2571 -0.1375 -0.9565
vn 0.8777 -0.4692 0.0976
vn 0.0869 -0.0464 0.9951
vn 0.0869 -0.0464 -0.9951
vn 0.8777 -0.4692 -0.0976
vn 0.2572 -0.1374 0.9565
vn 0.3657 -0.3002 -0.8810
vn 0.7400 -0.6073 0.2890
vn 0.2253 -0.1850 -0.9566
vn 0.7693 -0.6314 0.0976
vn 0.0761 -0.0625 0.9951
vn 0.0760 -0.0625 -0.9951
vn 0.7693 -0.6314 -0.0976
vn 0.2255 -0.1850 0.9565
vn 0.7401 -0.6073 -0.2890
vn 0.3657 -0.3002 0.8810
vn 0.6824 -0.5601 -0.4696
vn 0.4918 -0.4036 0.7715
vn 0.5987 -0.4913 -0.6326
vn 0.5987 -0.4913 0.6325
vn 0.4919 -0.4036 -0.7715
vn 0.6825 -0.5601 0.4696
vn 0.5601 -0.6825 -0.4696
vn 0.4036 -0.4918 0.7715
vn 0.4914 -0.5987 -0.6325
vn 0.4913 -0.5987 0.6326
vn 0.4037 -0.4918 -0.7715
vn 0.5601 -0.6824 0.4697
vn 0.3001 -0.3657 -0.8810
vn 0.6073 -0.7401 0.2890
vn 0.1850 -0.2254 -0.9566
vn 0.6314 -0.7693 0.0975
vn 0.0626 -0.0761 0.9951
vn 0.0624 -0.0761 -0.9951
vn 0.6314 -0.7693 -0.0976
vn 0.1850 -0.2254 0.9566
vn 0.6073 -0.7400 -0.2890
vn 0.3002 -0.3657 0.8810
vn 0.1378 -0.2571 -0.9565
vn 0.4692 -0.8777 0.0976
vn 0.0464 -0.0869 0.9951
vn 0.0466 -0.0868 -0.9951
vn 0.4692 -0.8777 -0.0975
vn 0.1374 -0.2571 0.9566
vn 0.4513 -0.8443 -0.2890
vn 0.2231 -0.4173 0.8810
vn 0.4162 -0.7786 -0.4696
vn 0.2999 -0.5611 0.7715
vn 0.3651 -0.6830 -0.6326
vn 0.3651 -0.6830 0.6326
vn 0.2999 -0.5611 -0.7715
vn 0.4162 -0.7786 0.4697
vn 0.2231 -0.4173 -0.8809
vn 0.4513 -0.8443 0.2890
vn 0.1847 -0.6088 0.7715
vn 0.2248 -0.7411 -0.6326
vn 0.2248 -0.7411 0.6326
vn 0.1846 -0.6089 -0.7715
vn 0.2563 -0.8449 0.4696
vn 0.1373 -0.4528 -0.8810
vn 0.2779 -0.9161 0.2890
vn 0.0844 -0.2790 -0.9566
vn 0.2889 -0.9524 0.0976
vn 0.0286 -0.0943 0.9951
vn 0.0284 -0.0942 -0.9951
vn 0.2889 -0.9524 -0.0975
vn 0.0846 -0.2790 0.9566
vn 0.2779 -0.9161 -0.2890
vn 0.1374 -0.4528 0.8810
vn 0.2563 -0.8449 -0.4696
vn 0.0976 -0.9904 0.0976
vn 0.0095 -0.0980 0.9951
vn 0.0095 -0.0980 -0.9951
vn 0.0975 -0.9904 -0.0975
vn 0.0285 -0.2902 0.9566
vn 0.0939 -0.9527 -0.2890
vn 0.0464 -0.4709 0.8810
vn 0.0865 -0.8786 -0.4696
vn 0.0624 -0.6332 0.7715
vn 0.0759 -0.7708 -0.6325
vn 0.0759 -0.7708 0.6326
vn 0.0624 -0.6332 -0.7715
vn 0.0865 -0.8786 0.4696
vn 0.0463 -0.4709 -0.8810
vn 0.0938 -0.9527 0.2890
vn 0.0286 -0.2901 -0.9566
vn -0.0759 -0.7708 -0.6326
vn -0.0759 -0.7708 0.6326
vn -0.0624 -0.6332 -0.7715
vn -0.0866 -0.8786 0.4696
vn -0.0465 -0.4709 -0.8810
vn -0.0938 -0.9527 0.2890
vn -0.0286 -0.2901 -0.9566
vn -0.0975 -0.9904 0.0976
vn -0.0095 -0.0980 0.9951
vn -0.0095 -0.0980 -0.9951
vn -0.0976 -0.9904 -0.0975
vn -0.0285 -0.2902 0.9566
vn -0.0938 -0.9527 -0.2890
vn -0.0464 -0.4709 0.8810
vn -0.0865 -0.8786 -0.4696
vn -0.0624 -0.6332 0.7715
vn -0.0286 -0.0943 0.9951
vn -0.0284 -0.0942 -0.9951
vn -0.2889 -0.9524 -0.0975
vn -0.0845 -0.2790 0.9566
vn -0.2779 -0.9161 -0.2890
vn -0.1374 -0.4528 0.8810
vn -0.2563 -0.8448 -0.4696
vn -0.1847 -0.6088 0.7715
vn -0.2248 -0.7411 -0.6326
vn -0.2248 -0.7411 0.6326
vn -0.1847 -0.6088 -0.7715
vn -0.2563 -0.8449 0.4696
vn -0.1373 -0.4528 -0.8810
vn -0.2779 -0.9161 0.2890
vn -0.0845 -0.2790 -0.9566
vn -0.2889 -0.9524 0.0976
vn -0.3651 -0.6831 0.6326
vn -0.2999 -0.5611 -0.7715
vn -0.4162 -0.7786 0.4696
vn -0.2230 -0.4173 -0.8810
vn -0.4513 -0.8443 0.2890
vn -0.1378 -0.2571 -0.9565
vn -0.4692 -0.8777 0.0976
vn -0.0464 -0.0869 0.9951
vn -0.0466 -0.0868 -0.9951
vn -0.4691 -0.8777 -0.0975
vn -0.1375 -0.2571 0.9565
vn -0.4513 -0.8443 -0.2890
vn -0.2230 -0.4173 0.8810
vn -0.4162 -0.7786 -0.4696
vn -0.2999 -0.5611 0.7715
vn -0.3651 -0.6830 -0.6326
vn -0.6314 -0.7693 -0.0976
vn -0.1850 -0.2253 0.9566
vn -0.6073 -0.7400 -0.2890
vn -0.3002 -0.3658 0.8810
vn -0.5601 -0.6825 -0.4696
vn -0.4036 -0.4918 0.7715
vn -0.4913 -0.5987 -0.6326
vn -0.4913 -0.5987 0.6326
vn -0.4037 -0.4918 -0.7715
vn -0.5601 -0.6825 0.4696
vn -0.3001 -0.3657 -0.8810
vn -0.6073 -0.7400 0.2890
vn -0.1852 -0.2254 -0.9565
vn -0.6314 -0.7693 0.0975
vn -0.0626 -0.0761 0.9951
vn -0.0624 -0.0761 -0.9951
vn -0.4918 -0.4036 -0.7715
vn -0.6825 -0.5601 0.4696
vn -0.3658 -0.3002 -0.8809
vn -0.7400 -0.6073 0.2890
vn -0.2255 -0.1849 -0.9565
vn -0.7693 -0.6314 0.0975
vn -0.0761 -0.0625 0.9951
vn -0.0760 -0.0625 -0.9951
vn -0.7693 -0.6314 -0.0976
vn -0.2254 -0.1850 0.9565
vn -0.7401 -0.6073 -0.2890
vn -0.3657 -0.3002 0.8810
vn -0.6824 -0.5601 -0.4697
vn -0.4918 -0.4036 0.7715
vn -0.5988 -0.4913 -0.6325
vn -0.5987 -0.4913 0.6325
vn -0.8443 -0.4513 -0.2890
vn -0.4173 -0.2230 0.8810
vn -0.7786 -0.4162 -0.4697
vn -0.5611 -0.2999 0.7715
vn -0.6830 -0.3651 -0.6326
vn -0.6831 -0.3651 0.6326
vn -0.5610 -0.2999 -0.7715
vn -0.7786 -0.4162 0.4696
vn -0.4173 -0.2231 -0.8809
vn -0.8443 -0.4513 0.2890
vn -0.2571 -0.1374 -0.9566
vn -0.8777 -0.4692 0.0976
vn -0.0868 -0.0464 0.9951
vn -0.0869 -0.0464 -0.9951
vn -0.8777 -0.4692 -0.0976
vn -0.2572 -0.1374 0.9565
vn -0.4527 -0.1373 -0.8810
vn -0.9161 -0.2779 0.2890
vn -0.2790 -0.0846 -0.9566
vn -0.9524 -0.2889 0.0976
vn -0.0942 -0.0286 0.9951
vn -0.0943 -0.0286 -0.9951
vn -0.9524 -0.2889 -0.0975
vn -0.2790 -0.0846 0.9566
vn -0.9161 -0.2779 -0.2890
vn -0.4528 -0.1374 0.8809
vn -0.8448 -0.2563 -0.4696
vn -0.6088 -0.1847 0.7715
vn -0.7412 -0.2248 -0.6325
vn -0.7411 -0.2248 0.6326
vn -0.6089 -0.1847 -0.7715
vn -0.8449 -0.2563 0.4696
vn -0.4709 -0.0464 0.8810
vn -0.8786 -0.0865 -0.4696
vn -0.6332 -0.0624 0.7715
vn -0.7708 -0.0759 -0.6325
vn -0.7708 -0.0759 0.6326
vn -0.6331 -0.0624 -0.7715
vn -0.8786 -0.0865 0.4696
vn -0.4709 -0.0464 -0.8810
vn -0.9527 -0.0938 0.2890
vn -0.2901 -0.0286 -0.9566
vn -0.9904 -0.0976 0.0976
vn -0.0980 -0.0097 0.9951
vn -0.0980 -0.0097 -0.9951
vn -0.9904 -0.0976 -0.0975
vn -0.2902 -0.0286 0.9565
vn -0.9527 -0.0939 -0.2890
vn -0.9527 0.0938 0.2890
vn -0.2902 0.0286 -0.9566
vn -0.9904 0.0976 0.0976
vn -0.0980 0.0097 0.9951
vn -0.0980 0.0097 -0.9951
vn -0.9904 0.0976 -0.0975
vn -0.2902 0.0286 0.9565
vn -0.9527 0.0939 -0.2890
vn -0.4709 0.0463 0.8810
vn -0.8786 0.0865 -0.4696
vn -0.6332 0.0624 0.7715
vn -0.7708 0.0759 -0.6325
vn -0.7708 0.0759 0.6326
vn -0.6331 0.0624 -0.7715
vn -0.8786 0.0865 0.4696
vn -0.4709 0.0464 -0.8810
vn -0.8448 0.2563 -0.4696
vn -0.6088 0.1847 0.7715
vn -0.7412 0.2248 -0.6325
vn -0.7411 0.2248 0.6326
vn -0.6088 0.1847 -0.7715
vn -0.8449 0.2563 0.4696
vn -0.4527 0.1373 -0.8810
vn -0.9161 0.2779 0.2890
vn -0.2790 0.0846 -0.9566
vn -0.9524 0.2889 0.0976
vn -0.0943 0.0286 0.9951
vn -0.0943 0.0286 -0.9951
vn -0.9524 0.2889 -0.0975
vn -0.2790 0.0846 0.9565
vn -0.9161 0.2779 -0.2890
vn -0.4528 0.1374 0.8810
vn -0.2572 0.1375 -0.9565
vn -0.8777 0.4692 0.0976
vn -0.0869 0.0464 0.9951
vn -0.0869 0.0464 -0.9951
vn -0.8777 0.4692 -0.0976
vn -0.2572 0.1374 0.9565
vn -0.8443 0.4513 -0.2890
vn -0.4173 0.2231 0.8810
vn -0.7786 0.4162 -0.4696
vn -0.5611 0.2999 0.7715
vn -0.6830 0.3651 -0.6326
vn -0.6830 0.3651 0.6326
vn -0.5610 0.2999 -0.7715
vn -0.7786 0.4162 0.4696
vn -0.4173 0.2231 -0.8810
vn -0.8443 0.4513 0.2890
vn -0.4918 0.4036 0.7715
vn -0.5988 0.4913 -0.6325
vn -0.5987 0.4913 0.6325
vn -0.4919 0.4036 -0.7715
vn -0.6825 0.5601 0.4696
vn -0.3658 0.3002 -0.8809
vn -0.7400 0.6073 0.2890
vn -0.2253 0.1850 -0.9566
vn -0.7693 0.6314 0.0975
vn -0.0761 0.0625 0.9951
vn -0.0760 0.0625 -0.9951
vn -0.7693 0.6313 -0.0976
vn -0.2254 0.1849 0.9566
vn -0.7400 0.6073 -0.2890
vn -0.3658 0.3002 0.8810
vn -0.6825 0.5601 -0.4696
vn -0.6314 0.7693 0.0975
vn -0.0626 0.0761 0.9951
vn -0.0624 0.0761 -0.9951
vn -0.6314 0.7693 -0.0976
vn -0.1850 0.2254 0.9566
vn -0.6073 0.7400 -0.2890
vn -0.3002 0.3658 0.8810
vn -0.5601 0.6825 -0.4696
vn -0.4036 0.4918 0.7715
vn -0.4913 0.5987 -0.6326
vn -0.4913 0.5987 0.6326
vn -0.4037 0.4918 -0.7715
vn -0.5601 0.6825 0.4696
vn -0.3001 0.3658 -0.8810
vn -0.6073 0.7400 0.2890
vn -0.1852 0.2254 -0.9565
vn -0.3651 0.6830 -0.6326
vn -0.3651 0.6830 0.6326
vn -0.2999 0.5611 -0.7715
vn -0.4162 0.7786 0.4697
vn -0.2230 0.4173 -0.8810
vn -0.4513 0.8443 0.2890
vn -0.1378 0.2572 -0.9565
vn -0.4692 0.8777 0.0975
vn -0.0464 0.0869 0.9951
vn -0.0466 0.0868 -0.9951
vn -0.4692 0.8777 -0.0975
vn -0.1374 0.2571 0.9566
vn -0.4513 0.8443 -0.2890
vn -0.2230 0.4173 0.8810
vn -0.4162 0.7786 -0.4696
vn -0.2999 0.5611 0.7715
vn -0.0284 0.0942 -0.9951
vn -0.2889 0.9524 -0.0976
vn -0.0846 0.2790 0.9566
vn -0.2779 0.9161 -0.2890
vn -0.1374 0.4528 0.8809
vn -0.2563 0.8448 -0.4696
vn -0.1847 0.6088 0.7715
vn -0.2249 0.7412 -0.6325
vn -0.2248 0.7412 0.6326
vn -0.1847 0.6088 -0.7715
vn -0.2563 0.8449 0.4696
vn -0.1373 0.4528 -0.8810
vn -0.2779 0.9161 0.2890
vn -0.0844 0.2790 -0.9566
vn -0.2889 0.9524 0.0976
vn -0.0286 0.0943 0.9951
vn -0.0624 0.6332 -0.7715
vn -0.0865 0.8786 0.4696
vn -0.0466 0.4709 -0.8810
vn -0.0938 0.9527 0.2890
vn -0.0286 0.2901 -0.9566
vn -0.0976 0.9904 0.0975
vn -0.0095 0.0980 0.9951
vn -0.0095 0.0980 -0.9951
vn -0.0976 0.9904 -0.0975
vn -0.0285 0.2902 0.9566
vn -0.0938 0.9527 -0.2890
vn -0.0464 0.4709 0.8810
vn -0.0865 0.8786 -0.4696
vn -0.0624 0.6332 0.7715
vn -0.0759 0.7708 -0.6326
vn -0.0759 0.7708 0.6326
vn 0.0759 0.7708 0.6325
vn 0.0623 0.6332 -0.7715
vn 0.0866 0.8786 0.4696
vn 0.0462 0.4709 -0.8810
vn 0.0288 0.2902 -0.9565
vn 0.0975 0.9904 0.0975
vn 0.0290 0.2901 0.9565
vn 0.0463 0.4709 0.8810
vn 0.1847 0.6089 0.7715
vn 0.2249 0.7412 -0.6326
vn 0.2248 0.7412 0.6326
vn 0.1374 0.4528 -0.8810
vn 0.0846 0.2790 -0.9566
vn 0.0849 0.2790 0.9565
vn 0.1373 0.4528 0.8810
vn 0.1375 0.2571 -0.9565
vn 0.4692 0.8777 0.0975
vn 0.4692 0.8777 -0.0976
vn 0.1374 0.2572 0.9566
vn 0.2230 0.4173 0.8810
vn 0.3651 0.6831 -0.6326
vn 0.2231 0.4173 -0.8810
vn 0.4913 0.5987 -0.6326
vn 0.4914 0.5987 0.6325
vn 0.4036 0.4918 -0.7715
vn 0.3002 0.3658 -0.8810
vn 0.1850 0.2254 -0.9566
vn 0.6314 0.7693 0.0976
vn 0.6314 0.7693 -0.0975
vn 0.1848 0.2254 0.9566
vn 0.3002 0.3658 0.8809
vn 0.4037 0.4918 0.7715
vn 0.2253 0.1850 0.9566
vn 0.3656 0.3002 0.8810
vn 0.6825 0.5601 -0.4696
vn 0.4918 0.4037 0.7715
vn 0.5987 0.4913 -0.6326
vn 0.5987 0.4913 0.6325
vn 0.4919 0.4036 -0.7715
vn 0.6824 0.5601 0.4696
vn 0.3657 0.3002 -0.8810
vn 0.2253 0.1850 -0.9566
vn 0.6831 0.3651 0.6325
vn 0.7786 0.4162 0.4697
vn 0.4173 0.2230 -0.8810
vn 0.8443 0.4512 0.2890
vn 0.2571 0.1374 -0.9566
vn 0.8777 0.4691 0.0975
vn 0.8777 0.4691 -0.0975
vn 0.2572 0.1375 0.9565
vn 0.4173 0.2231 0.8810
vn 0.7787 0.4162 -0.4696
vn 0.6831 0.3651 -0.6326
vn 0.2789 0.0846 0.9566
vn 0.4528 0.1373 0.8810
vn 0.7412 0.2248 0.6325
vn 0.6088 0.1847 -0.7715
vn 0.8449 0.2563 0.4696
vn 0.4528 0.1374 -0.8810
vn 0.2790 0.0846 -0.9565
vn 0.9524 0.2889 0.0976
vn 0.6332 0.0624 -0.7715
vn 0.8786 0.0865 0.4696
vn 0.4709 0.0463 -0.8810
vn 0.9527 0.0939 0.2890
vn 0.2901 0.0286 -0.9566
vn 0.9904 0.0976 0.0975
vn 0.9904 0.0976 -0.0976
vn 0.4709 0.0464 0.8810
vn 0.6332 0.0624 0.7715
vn 0.7708 0.0759 -0.6326
vn 0.7708 0.0760 0.6326
vn 0.2902 -0.0286 0.9566
vn 0.9527 -0.0938 -0.2890
vn 0.7708 -0.0759 -0.6326
vn 0.6332 -0.0624 -0.7715
vn 0.8786 -0.0865 0.4696
vn 0.2902 -0.0286 -0.9565
vn 0.9904 -0.0976 0.0975
vn 0.8448 -0.2563 0.4696
vn 0.4528 -0.1374 -0.8810
vn 0.9524 -0.2889 0.0975
vn 0.9524 -0.2889 -0.0976
vn 0.2789 -0.0846 0.9566
vn 0.4528 -0.1373 0.8810
vn 0.7412 -0.2248 -0.6326
vn 0.7412 -0.2248 0.6325
vn 0.6088 -0.1847 -0.7715
vn 0.4173 -0.2231 0.8810
vn 0.6831 -0.3651 -0.6326
vn 0.6830 -0.3651 0.6326
vn 0.5611 -0.2999 -0.7715
vn 0.7786 -0.4162 0.4697
vn 0.4173 -0.2230 -0.8810
vn 0.8443 -0.4512 0.2890
vn 0.2571 -0.1374 -0.9566
vn 0.8777 -0.4691 0.0975
vn 0.8777 -0.4691 -0.0976
vn 0.2572 -0.1375 0.9565
vn 0.3658 -0.3002 -0.8810
vn 0.2254 -0.1850 -0.9566
vn 0.2253 -0.1849 0.9566
vn 0.7400 -0.6073 -0.2890
vn 0.6825 -0.5601 -0.4696
vn 0.4919 -0.4036 0.7715
vn 0.5987 -0.4913 0.6326
vn 0.4918 -0.4036 -0.7715
vn 0.6824 -0.5601 0.4696
vn 0.5601 -0.6824 -0.4696
vn 0.4037 -0.4918 0.7715
vn 0.4913 -0.5987 -0.6326
vn 0.4914 -0.5987 0.6325
vn 0.4036 -0.4918 -0.7715
vn 0.5601 -0.6825 0.4696
vn 0.3002 -0.3658 -0.8810
vn 0.6073 -0.7400 0.2890
vn 0.1851 -0.2254 -0.9565
vn 0.6314 -0.7693 0.0976
vn 0.6314 -0.7693 -0.0975
vn 0.1848 -0.2254 0.9566
vn 0.3002 -0.3658 0.8810
vn 0.1373 -0.2571 -0.9566
vn 0.4691 -0.8777 0.0975
vn 0.4692 -0.8777 -0.0976
vn 0.1374 -0.2572 0.9566
vn 0.2229 -0.4173 0.8810
vn 0.3000 -0.5611 0.7715
vn 0.3651 -0.6831 -0.6326
vn 0.3651 -0.6831 0.6326
vn 0.4162 -0.7786 0.4696
vn 0.2230 -0.4173 -0.8810
vn 0.1847 -0.6089 0.7715
vn 0.2249 -0.7412 -0.6325
vn 0.2248 -0.7412 0.6326
vn 0.1847 -0.6088 -0.7715
vn 0.2563 -0.8448 0.4696
vn 0.1374 -0.4528 -0.8810
vn 0.0846 -0.2790 -0.9566
vn 0.2889 -0.9524 0.0975
vn 0.2889 -0.9524 -0.0976
vn 0.0847 -0.2790 0.9565
vn 0.1373 -0.4528 0.8810
vn 0.0975 -0.9904 0.0975
vn 0.0976 -0.9904 -0.0976
vn 0.0289 -0.2901 0.9566
vn 0.0938 -0.9527 -0.2890
vn 0.0463 -0.4709 0.8810
vn 0.0759 -0.7708 -0.6326
vn 0.0760 -0.7708 0.6326
vn 0.0623 -0.6332 -0.7715
vn 0.0866 -0.8786 0.4696
vn 0.0464 -0.4709 -0.8810
vn 0.0287 -0.2902 -0.9565
vn -0.0759 -0.7708 0.6325
vn -0.0623 -0.6332 -0.7715
vn -0.0865 -0.8786 0.4696
vn -0.0462 -0.4709 -0.8810
vn -0.0288 -0.2902 -0.9565
vn -0.0976 -0.9904 0.0975
vn -0.0976 -0.9904 -0.0976
vn -0.0290 -0.2901 0.9565
vn -0.0463 -0.4709 0.8810
vn -0.0866 -0.8786 -0.4696
vn -0.2889 -0.9524 -0.0976
vn -0.0849 -0.2790 0.9565
vn -0.1373 -0.4528 0.8810
vn -0.2563 -0.8449 -0.4696
vn -0.2249 -0.7412 -0.6325
vn -0.2248 -0.7412 0.6326
vn -0.1374 -0.4528 -0.8809
vn -0.0846 -0.2790 -0.9566
vn -0.2889 -0.9524 0.0975
vn -0.3651 -0.6830 0.6326
vn -0.2231 -0.4173 -0.8810
vn -0.1373 -0.2571 -0.9566
vn -0.4692 -0.8777 0.0975
vn -0.4692 -0.8777 -0.0976
vn -0.1374 -0.2572 0.9566
vn -0.6314 -0.7693 -0.0975
vn -0.1848 -0.2254 0.9566
vn -0.3003 -0.3657 0.8810
vn -0.4036 -0.4918 -0.7715
vn -0.3002 -0.3658 -0.8810
vn -0.6074 -0.7400 0.2890
vn -0.1850 -0.2253 -0.9566
vn -0.6314 -0.7693 0.0976
vn -0.6824 -0.5601 0.4697
vn -0.3657 -0.3002 -0.8810
vn -0.2253 -0.1850 -0.9566
vn -0.7693 -0.6314 0.0976
vn -0.7693 -0.6314 -0.0975
vn -0.2253 -0.1849 0.9566
vn -0.7400 -0.6073 -0.2890
vn -0.6825 -0.5601 -0.4696
vn -0.4919 -0.4036 0.7715
vn -0.5987 -0.4913 -0.6326
vn -0.5987 -0.4913 0.6326
vn -0.4173 -0.2231 0.8810
vn -0.7786 -0.4162 -0.4696
vn -0.6831 -0.3651 -0.6326
vn -0.5612 -0.2999 -0.7715
vn -0.7786 -0.4162 0.4697
vn -0.4173 -0.2230 -0.8810
vn -0.2571 -0.1374 -0.9565
vn -0.8777 -0.4691 0.0975
vn -0.8777 -0.4691 -0.0976
vn -0.4528 -0.1374 -0.8810
vn -0.9524 -0.2889 0.0975
vn -0.4528 -0.1373 0.8810
vn -0.7412 -0.2248 -0.6326
vn -0.7412 -0.2248 0.6325
vn -0.6088 -0.1847 -0.7715
vn -0.8448 -0.2563 0.4697
vn -0.6331 -0.0624 0.7715
vn -0.7708 -0.0759 -0.6326
vn -0.7708 -0.0760 0.6326
vn -0.6332 -0.0624 -0.7715
vn -0.9527 -0.0939 0.2890
vn -0.2902 -0.0286 -0.9565
vn -0.9904 -0.0976 0.0975
vn -0.9904 -0.0976 -0.0976
vn -0.2901 -0.0286 0.9566
vn -0.9527 -0.0938 -0.2890
vn -0.2901 0.0286 -0.9566
vn -0.9904 0.0976 0.0975
vn -0.9904 0.0976 -0.0976
vn -0.2901 0.0286 0.9566
vn -0.9527 0.0938 -0.2890
vn -0.4709 0.0464 0.8810
vn -0.6331 0.0624 0.7715
vn -0.7708 0.0759 -0.6326
vn -0.6332 0.0624 -0.7715
vn -0.4709 0.0463 -0.8810
vn -0.7412 0.2248 -0.6326
vn -0.7412 0.2248 0.6325
vn -0.8448 0.2563 0.4696
vn -0.4528 0.1374 -0.8810
vn -0.2790 0.0846 -0.9565
vn -0.9524 0.2889 0.0975
vn -0.2789 0.0846 0.9566
vn -0.4528 0.1373 0.8810
vn -0.2571 0.1374 -0.9566
vn -0.8777 0.4691 0.0976
vn -0.8777 0.4692 -0.0975
vn -0.2572 0.1375 0.9565
vn -0.4174 0.2230 0.8809
vn -0.6831 0.3651 0.6325
vn -0.5611 0.2999 -0.7715
vn -0.7786 0.4162 0.4697
vn -0.4173 0.2230 -0.8810
vn -0.4919 0.4036 0.7715
vn -0.5987 0.4913 -0.6326
vn -0.5987 0.4913 0.6326
vn -0.4918 0.4036 -0.7715
vn -0.3657 0.3002 -0.8810
vn -0.2254 0.1849 -0.9566
vn -0.7693 0.6313 0.0976
vn -0.7693 0.6314 -0.0975
vn -0.2253 0.1850 0.9566
vn -0.3656 0.3002 0.8810
vn -0.6314 0.7693 0.0976
vn -0.6314 0.7693 -0.0975
vn -0.1848 0.2254 0.9566
vn -0.3003 0.3657 0.8810
vn -0.4036 0.4918 -0.7715
vn -0.3002 0.3658 -0.8810
vn -0.1849 0.2254 -0.9566
vn -0.3651 0.6831 -0.6326
vn -0.4162 0.7786 0.4696
vn -0.2232 0.4173 -0.8809
vn -0.1373 0.2571 -0.9566
vn -0.4691 0.8777 0.0976
vn -0.4692 0.8777 -0.0976
vn -0.1373 0.2572 0.9566
vn -0.4162 0.7786 -0.4697
vn -0.3000 0.5611 0.7715
vn -0.0847 0.2790 0.9565
vn -0.1373 0.4528 0.8810
vn -0.2248 0.7411 -0.6326
vn -0.2563 0.8448 0.4696
vn -0.1374 0.4528 -0.8809
vn -0.0846 0.2790 -0.9566
vn -0.0866 0.8786 0.4696
vn -0.0463 0.4709 -0.8810
vn -0.0287 0.2902 -0.9565
vn -0.0975 0.9904 0.0975
vn -0.0289 0.2901 0.9566
vn -0.0624 0.6331 0.7715
vn -0.0759 0.7708 0.6325
s 0
usemtl oil
f 2//1 3//1 1//1
f 4//2 7//2 3//2
f 8//3 5//3 7//3
f 6//4 1//4 5//4
f 7//5 1//5 3//5
f 4//6 6//6 8//6
f 10//1 11//1 9//1
f 12//2 15//2 11//2
f 16//3 13//3 15//3
f 14//4 9//4 13//4
f 15//5 9//5 11//5
f 12//6 14//6 16//6
f 18//1 19//1 17//1
f 20//2 23//2 19//2
f 24//3 21//3 23//3
f 22//4 17//4 21//4
f 23//5 17//5 19//5
f 20//6 22//6 24//6
f 28//7 39//7 501//7
f 32//8 47//8 33//8
f 501//9 40//9 29//9
f 33//10 48//10 505//10
f 502//11 40//11 41//11
f 506//12 48//12 49//12
f 30//13 41//13 42//13
f 26//14 25//14 35//14
f 34//15 506//15 49//15
f 30//16 43//16 31//16
f 26//17 36//17 500//17
f 31//18 44//18 503//18
f 500//19 37//19 27//19
f 504//20 44//20 45//20
f 28//21 37//21 38//21
f 504//22 46//22 32//22
f 45//23 59//23 60//23
f 37//24 53//24 38//24
f 45//25 61//25 46//25
f 39//26 53//26 54//26
f 46//27 62//27 47//27
f 39//28 55//28 40//28
f 48//29 62//29 63//29
f 41//30 55//30 56//30
f 49//31 63//31 64//31
f 42//32 56//32 57//32
f 35//33 25//33 50//33
f 34//34 49//34 64//34
f 42//35 58//35 43//35
f 35//36 51//36 36//36
f 43//37 59//37 44//37
f 36//38 52//38 37//38
f 64//39 78//39 79//39
f 56//40 72//40 57//40
f 50//41 25//41 65//41
f 34//42 64//42 79//42
f 58//43 72//43 73//43
f 51//44 65//44 66//44
f 59//45 73//45 74//45
f 52//46 66//46 67//46
f 60//47 74//47 75//47
f 52//48 68//48 53//48
f 61//49 75//49 76//49
f 53//50 69//50 54//50
f 62//51 76//51 77//51
f 54//52 70//52 55//52
f 62//53 78//53 63//53
f 56//54 70//54 71//54
f 75//55 91//55 76//55
f 69//56 83//56 84//56
f 77//57 91//57 92//57
f 70//58 84//58 85//58
f 77//59 93//59 78//59
f 70//60 86//60 71//60
f 78//61 94//61 79//61
f 71//62 87//62 72//62
f 65//63 25//63 80//63
f 34//64 79//64 94//64
f 72//65 88//65 73//65
f 66//66 80//66 81//66
f 74//67 88//67 89//67
f 66//68 82//68 67//68
f 74//69 90//69 75//69
f 67//70 83//70 68//70
f 80//71 25//71 95//71
f 34//72 94//72 109//72
f 88//73 102//73 103//73
f 80//74 96//74 81//74
f 89//75 103//75 104//75
f 82//76 96//76 97//76
f 90//77 104//77 105//77
f 82//78 98//78 83//78
f 91//79 105//79 106//79
f 83//80 99//80 84//80
f 91//81 107//81 92//81
f 84//82 100//82 85//82
f 92//83 108//83 93//83
f 85//84 101//84 86//84
f 94//85 108//85 109//85
f 86//86 102//86 87//86
f 99//87 113//87 114//87
f 107//88 121//88 122//88
f 100//89 114//89 115//89
f 108//90 122//90 123//90
f 101//91 115//91 116//91
f 109//92 123//92 124//92
f 101//93 117//93 102//93
f 95//94 25//94 110//94
f 34//95 109//95 124//95
f 103//96 117//96 118//96
f 95//97 111//97 96//97
f 103//98 119//98 104//98
f 96//99 112//99 97//99
f 104//100 120//100 105//100
f 98//101 112//101 113//101
f 105//102 121//102 106//102
f 118//103 132//103 133//103
f 111//104 125//104 126//104
f 119//105 133//105 134//105
f 112//106 126//106 127//106
f 119//107 135//107 120//107
f 112//108 128//108 113//108
f 120//109 136//109 121//109
f 114//110 128//110 129//110
f 121//111 137//111 122//111
f 114//112 130//112 115//112
f 122//113 138//113 123//113
f 115//114 131//114 116//114
f 123//115 139//115 124//115
f 116//116 132//116 117//116
f 110//117 25//117 125//117
f 34//118 124//118 139//118
f 136//119 152//119 137//119
f 130//120 144//120 145//120
f 137//121 153//121 138//121
f 130//122 146//122 131//122
f 139//123 153//123 154//123
f 131//124 147//124 132//124
f 125//125 25//125 140//125
f 34//126 139//126 154//126
f 133//127 147//127 148//127
f 125//128 141//128 126//128
f 133//129 149//129 134//129
f 127//130 141//130 142//130
f 134//131 150//131 135//131
f 127//132 143//132 128//132
f 135//133 151//133 136//133
f 128//134 144//134 129//134
f 140//135 156//135 141//135
f 148//136 164//136 149//136
f 141//137 157//137 142//137
f 150//138 164//138 165//138
f 143//139 157//139 158//139
f 151//140 165//140 166//140
f 143//141 159//141 144//141
f 152//142 166//142 167//142
f 144//143 160//143 145//143
f 152//144 168//144 153//144
f 145//145 161//145 146//145
f 154//146 168//146 169//146
f 147//147 161//147 162//147
f 140//148 25//148 155//148
f 34//149 154//149 169//149
f 147//150 163//150 148//150
f 159//151 175//151 160//151
f 168//152 182//152 183//152
f 160//153 176//153 161//153
f 169//154 183//154 184//154
f 162//155 176//155 177//155
f 155//156 25//156 170//156
f 34//157 169//157 184//157
f 162//158 178//158 163//158
f 155//159 171//159 156//159
f 163//160 179//160 164//160
f 156//161 172//161 157//161
f 164//162 180//162 165//162
f 158//163 172//163 173//163
f 166//164 180//164 181//164
f 158//165 174//165 159//165
f 167//166 181//166 182//166
f 178//167 194//167 179//167
f 172//168 186//168 187//168
f 179//169 195//169 180//169
f 172//170 188//170 173//170
f 180//171 196//171 181//171
f 174//172 188//172 189//172
f 182//173 196//173 197//173
f 175//174 189//174 190//174
f 182//175 198//175 183//175
f 175//176 191//176 176//176
f 183//177 199//177 184//177
f 176//178 192//178 177//178
f 170//179 25//179 185//179
f 34//180 184//180 199//180
f 178//181 192//181 193//181
f 171//182 185//182 186//182
f 197//183 213//183 198//183
f 191//184 205//184 206//184
f 199//185 213//185 214//185
f 191//186 207//186 192//186
f 185//187 25//187 200//187
f 34//188 199//188 214//188
f 193//189 207//189 208//189
f 186//190 200//190 201//190
f 194//191 208//191 209//191
f 187//192 201//192 202//192
f 194//193 210//193 195//193
f 188//194 202//194 203//194
f 196//195 210//195 211//195
f 188//196 204//196 189//196
f 196//197 212//197 197//197
f 190//198 204//198 205//198
f 210//199 224//199 225//199
f 202//200 218//200 203//200
f 211//201 225//201 226//201
f 203//202 219//202 204//202
f 211//203 227//203 212//203
f 205//204 219//204 220//204
f 213//205 227//205 228//205
f 205//206 221//206 206//206
f 213//207 229//207 214//207
f 206//208 222//208 207//208
f 200//209 25//209 215//209
f 34//210 214//210 229//210
f 207//211 223//211 208//211
f 201//212 215//212 216//212
f 209//213 223//213 224//213
f 202//214 216//214 217//214
f 229//215 243//215 244//215
f 221//216 237//216 222//216
f 215//217 25//217 230//217
f 34//218 229//218 244//218
f 223//219 237//219 238//219
f 216//220 230//220 231//220
f 223//221 239//221 224//221
f 216//222 232//222 217//222
f 224//223 240//223 225//223
f 218//224 232//224 233//224
f 225//225 241//225 226//225
f 219//226 233//226 234//226
f 226//227 242//227 227//227
f 219//228 235//228 220//228
f 227//229 243//229 228//229
f 221//230 235//230 236//230
f 233//231 247//231 248//231
f 241//232 255//232 256//232
f 234//233 248//233 249//233
f 242//234 256//234 257//234
f 235//235 249//235 250//235
f 242//236 258//236 243//236
f 235//237 251//237 236//237
f 243//238 259//238 244//238
f 236//239 252//239 237//239
f 230//240 25//240 245//240
f 34//241 244//241 259//241
f 238//242 252//242 253//242
f 231//243 245//243 246//243
f 239//244 253//244 254//244
f 232//245 246//245 247//245
f 240//246 254//246 255//246
f 251//247 267//247 252//247
f 245//248 25//248 260//248
f 34//249 259//249 274//249
f 253//250 267//250 268//250
f 246//251 260//251 261//251
f 254//252 268//252 269//252
f 247//253 261//253 262//253
f 254//254 270//254 255//254
f 247//255 263//255 248//255
f 255//256 271//256 256//256
f 248//257 264//257 249//257
f 257//258 271//258 272//258
f 250//259 264//259 265//259
f 257//260 273//260 258//260
f 250//261 266//261 251//261
f 258//262 274//262 259//262
f 270//263 286//263 271//263
f 263//264 279//264 264//264
f 271//265 287//265 272//265
f 265//266 279//266 280//266
f 272//267 288//267 273//267
f 265//268 281//268 266//268
f 274//269 288//269 289//269
f 266//270 282//270 267//270
f 260//271 25//271 275//271
f 34//272 274//272 289//272
f 268//273 282//273 283//273
f 260//274 276//274 261//274
f 268//275 284//275 269//275
f 262//276 276//276 277//276
f 269//277 285//277 270//277
f 263//278 277//278 278//278
f 275//279 25//279 290//279
f 34//280 289//280 304//280
f 283//281 297//281 298//281
f 275//282 291//282 276//282
f 283//283 299//283 284//283
f 276//284 292//284 277//284
f 285//285 299//285 300//285
f 277//286 293//286 278//286
f 285//287 301//287 286//287
f 278//288 294//288 279//288
f 286//289 302//289 287//289
f 280//290 294//290 295//290
f 288//291 302//291 303//291
f 280//292 296//292 281//292
f 289//293 303//293 304//293
f 281//294 297//294 282//294
f 294//295 308//295 309//295
f 302//296 316//296 317//296
f 295//297 309//297 310//297
f 303//298 317//298 318//298
f 296//299 310//299 311//299
f 303//300 319//300 304//300
f 296//301 312//301 297//301
f 290//302 25//302 305//302
f 34//303 304//303 319//303
f 298//304 312//304 313//304
f 291//305 305//305 306//305
f 298//306 314//306 299//306
f 292//307 306//307 307//307
f 299//308 315//308 300//308
f 293//309 307//309 308//309
f 300//310 316//310 301//310
f 312//311 328//311 313//311
f 306//312 320//312 321//312
f 313//313 329//313 314//313
f 307//314 321//314 322//314
f 314//315 330//315 315//315
f 307//316 323//316 308//316
f 315//317 331//317 316//317
f 308//318 324//318 309//318
f 316//319 332//319 317//319
f 310//320 324//320 325//320
f 317//321 333//321 318//321
f 311//322 325//322 326//322
f 318//323 334//323 319//323
f 311//324 327//324 312//324
f 305//325 25//325 320//325
f 34//326 319//326 334//326
f 331//327 347//327 332//327
f 325//328 339//328 340//328
f 332//329 348//329 333//329
f 325//330 341//330 326//330
f 334//331 348//331 349//331
f 327//332 341//332 342//332
f 320//333 25//333 335//333
f 34//334 334//334 349//334
f 327//335 343//335 328//335
f 320//336 336//336 321//336
f 328//337 344//337 329//337
f 321//338 337//338 322//338
f 329//339 345//339 330//339
f 322//340 338//340 323//340
f 330//341 346//341 331//341
f 324//342 338//342 339//342
f 343//343 359//343 344//343
f 336//344 352//344 337//344
f 345//345 359//345 360//345
f 338//346 352//346 353//346
f 345//347 361//347 346//347
f 338//348 354//348 339//348
f 346//349 362//349 347//349
f 339//350 355//350 340//350
f 348//351 362//351 363//351
f 340//352 356//352 341//352
f 349//353 363//353 364//353
f 341//354 357//354 342//354
f 335//355 25//355 350//355
f 34//356 349//356 364//356
f 342//357 358//357 343//357
f 335//358 351//358 336//358
f 362//359 378//359 363//359
f 356//360 370//360 371//360
f 363//361 379//361 364//361
f 356//362 372//362 357//362
f 350//363 25//363 365//363
f 34//364 364//364 379//364
f 358//365 372//365 373//365
f 351//366 365//366 366//366
f 358//367 374//367 359//367
f 352//368 366//368 367//368
f 359//369 375//369 360//369
f 352//370 368//370 353//370
f 360//371 376//371 361//371
f 354//372 368//372 369//372
f 361//373 377//373 362//373
f 355//374 369//374 370//374
f 366//375 382//375 367//375
f 374//376 390//376 375//376
f 368//377 382//377 383//377
f 375//378 391//378 376//378
f 368//379 384//379 369//379
f 377//380 391//380 392//380
f 370//381 384//381 385//381
f 377//382 393//382 378//382
f 371//383 385//383 386//383
f 378//384 394//384 379//384
f 371//385 387//385 372//385
f 365//386 25//386 380//386
f 34//387 379//387 394//387
f 373//388 387//388 388//388
f 366//389 380//389 381//389
f 373//390 389//390 374//390
f 385//391 401//391 386//391
f 393//392 409//392 394//392
f 387//393 401//393 402//393
f 380//394 25//394 395//394
f 34//395 394//395 409//395
f 387//396 403//396 388//396
f 380//397 396//397 381//397
f 389//398 403//398 404//398
f 381//399 397//399 382//399
f 389//400 405//400 390//400
f 382//401 398//401 383//401
f 391//402 405//402 406//402
f 383//403 399//403 384//403
f 392//404 406//404 407//404
f 384//405 400//405 385//405
f 393//406 407//406 408//406
f 404//407 420//407 405//407
f 397//408 413//408 398//408
f 406//409 420//409 421//409
f 398//410 414//410 399//410
f 406//411 422//411 407//411
f 399//412 415//412 400//412
f 408//413 422//413 423//413
f 401//414 415//414 416//414
f 409//415 423//415 424//415
f 401//416 417//416 402//416
f 395//417 25//417 410//417
f 34//418 409//418 424//418
f 402//419 418//419 403//419
f 395//420 411//420 396//420
f 403//421 419//421 404//421
f 396//422 412//422 397//422
f 423//423 439//423 424//423
f 417//424 431//424 432//424
f 410//425 25//425 425//425
f 34//426 424//426 439//426
f 417//427 433//427 418//427
f 411//428 425//428 426//428
f 418//429 434//429 419//429
f 411//430 427//430 412//430
f 419//431 435//431 420//431
f 412//432 428//432 413//432
f 420//433 436//433 421//433
f 413//434 429//434 414//434
f 422//435 436//435 437//435
f 415//436 429//436 430//436
f 422//437 438//437 423//437
f 416//438 430//438 431//438
f 428//439 442//439 443//439
f 436//440 450//440 451//440
f 428//441 444//441 429//441
f 436//442 452//442 437//442
f 430//443 444//443 445//443
f 438//444 452//444 453//444
f 431//445 445//445 446//445
f 439//446 453//446 454//446
f 432//447 446//447 447//447
f 425//448 25//448 440//448
f 34//449 439//449 454//449
f 432//450 448//450 433//450
f 425//451 441//451 426//451
f 433//452 449//452 434//452
f 426//453 442//453 427//453
f 434//454 450//454 435//454
f 447//455 461//455 462//455
f 440//456 25//456 455//456
f 34//457 454//457 469//457
f 447//458 463//458 448//458
f 440//459 456//459 441//459
f 448//460 464//460 449//460
f 441//461 457//461 442//461
f 450//462 464//462 465//462
f 443//463 457//463 458//463
f 451//464 465//464 466//464
f 444//465 458//465 459//465
f 451//466 467//466 452//466
f 444//467 460//467 445//467
f 452//468 468//468 453//468
f 446//469 460//469 461//469
f 454//470 468//470 469//470
f 465//471 481//471 466//471
f 459//472 473//472 474//472
f 466//473 482//473 467//473
f 459//474 475//474 460//474
f 467//475 483//475 468//475
f 460//476 476//476 461//476
f 469//477 483//477 484//477
f 461//478 477//478 462//478
f 455//479 25//479 470//479
f 34//480 469//480 484//480
f 462//481 478//481 463//481
f 455//482 471//482 456//482
f 464//483 478//483 479//483
f 457//484 471//484 472//484
f 465//485 479//485 480//485
f 458//486 472//486 473//486
f 34//487 484//487 499//487
f 477//488 493//488 478//488
f 471//489 485//489 486//489
f 478//490 494//490 479//490
f 472//491 486//491 487//491
f 479//492 495//492 480//492
f 472//493 488//493 473//493
f 480//494 496//494 481//494
f 473//495 489//495 474//495
f 481//496 497//496 482//496
f 475//497 489//497 490//497
f 482//498 498//498 483//498
f 476//499 490//499 491//499
f 483//500 499//500 484//500
f 476//501 492//501 477//501
f 470//502 25//502 485//502
f 496//503 33//503 497//503
f 490//504 501//504 29//504
f 498//505 33//505 505//505
f 490//506 502//506 491//506
f 498//507 506//507 499//507
f 491//508 30//508 492//508
f 485//509 25//509 26//509
f 34//510 499//510 506//510
f 492//511 31//511 493//511
f 486//512 26//512 500//512
f 493//513 503//513 494//513
f 486//514 27//514 487//514
f 494//515 504//515 495//515
f 487//516 28//516 488//516
f 496//517 504//517 32//517
f 489//518 28//518 501//518
f 2//1 4//1 3//1
f 4//2 8//2 7//2
f 8//3 6//3 5//3
f 6//4 2//4 1//4
f 7//5 5//5 1//5
f 4//6 2//6 6//6
f 10//1 12//1 11//1
f 12//2 16//2 15//2
f 16//3 14//3 13//3
f 14//4 10//4 9//4
f 15//5 13//5 9//5
f 12//6 10//6 14//6
f 18//1 20//1 19//1
f 20//2 24//2 23//2
f 24//3 22//3 21//3
f 22//4 18//4 17//4
f 23//5 21//5 17//5
f 20//6 18//6 22//6
f 28//519 38//519 39//519
f 32//520 46//520 47//520
f 501//521 39//521 40//521
f 33//522 47//522 48//522
f 502//11 29//11 40//11
f 506//523 505//523 48//523
f 30//524 502//524 41//524
f 30//16 42//16 43//16
f 26//525 35//525 36//525
f 31//18 43//18 44//18
f 500//526 36//526 37//526
f 504//20 503//20 44//20
f 28//21 27//21 37//21
f 504//22 45//22 46//22
f 45//23 44//23 59//23
f 37//527 52//527 53//527
f 45//528 60//528 61//528
f 39//529 38//529 53//529
f 46//27 61//27 62//27
f 39//28 54//28 55//28
f 48//530 47//530 62//530
f 41//30 40//30 55//30
f 49//531 48//531 63//531
f 42//32 41//32 56//32
f 42//35 57//35 58//35
f 35//532 50//532 51//532
f 43//37 58//37 59//37
f 36//533 51//533 52//533
f 64//534 63//534 78//534
f 56//535 71//535 72//535
f 58//536 57//536 72//536
f 51//537 50//537 65//537
f 59//45 58//45 73//45
f 52//538 51//538 66//538
f 60//47 59//47 74//47
f 52//48 67//48 68//48
f 61//539 60//539 75//539
f 53//50 68//50 69//50
f 62//51 61//51 76//51
f 54//52 69//52 70//52
f 62//540 77//540 78//540
f 56//54 55//54 70//54
f 75//541 90//541 91//541
f 69//542 68//542 83//542
f 77//543 76//543 91//543
f 70//58 69//58 84//58
f 77//544 92//544 93//544
f 70//60 85//60 86//60
f 78//545 93//545 94//545
f 71//546 86//546 87//546
f 72//547 87//547 88//547
f 66//548 65//548 80//548
f 74//67 73//67 88//67
f 66//549 81//549 82//549
f 74//69 89//69 90//69
f 67//550 82//550 83//550
f 88//73 87//73 102//73
f 80//551 95//551 96//551
f 89//75 88//75 103//75
f 82//552 81//552 96//552
f 90//553 89//553 104//553
f 82//554 97//554 98//554
f 91//555 90//555 105//555
f 83//556 98//556 99//556
f 91//557 106//557 107//557
f 84//558 99//558 100//558
f 92//559 107//559 108//559
f 85//84 100//84 101//84
f 94//560 93//560 108//560
f 86//86 101//86 102//86
f 99//561 98//561 113//561
f 107//88 106//88 121//88
f 100//562 99//562 114//562
f 108//563 107//563 122//563
f 101//564 100//564 115//564
f 109//565 108//565 123//565
f 101//566 116//566 117//566
f 103//567 102//567 117//567
f 95//568 110//568 111//568
f 103//98 118//98 119//98
f 96//569 111//569 112//569
f 104//570 119//570 120//570
f 98//101 97//101 112//101
f 105//571 120//571 121//571
f 118//103 117//103 132//103
f 111//572 110//572 125//572
f 119//105 118//105 133//105
f 112//573 111//573 126//573
f 119//107 134//107 135//107
f 112//108 127//108 128//108
f 120//109 135//109 136//109
f 114//574 113//574 128//574
f 121//575 136//575 137//575
f 114//576 129//576 130//576
f 122//577 137//577 138//577
f 115//114 130//114 131//114
f 123//578 138//578 139//578
f 116//579 131//579 132//579
f 136//580 151//580 152//580
f 130//581 129//581 144//581
f 137//582 152//582 153//582
f 130//583 145//583 146//583
f 139//584 138//584 153//584
f 131//585 146//585 147//585
f 133//586 132//586 147//586
f 125//128 140//128 141//128
f 133//129 148//129 149//129
f 127//587 126//587 141//587
f 134//131 149//131 150//131
f 127//588 142//588 143//588
f 135//589 150//589 151//589
f 128//590 143//590 144//590
f 140//591 155//591 156//591
f 148//592 163//592 164//592
f 141//137 156//137 157//137
f 150//138 149//138 164//138
f 143//139 142//139 157//139
f 151//593 150//593 165//593
f 143//141 158//141 159//141
f 152//594 151//594 166//594
f 144//595 159//595 160//595
f 152//144 167//144 168//144
f 145//145 160//145 161//145
f 154//596 153//596 168//596
f 147//597 146//597 161//597
f 147//150 162//150 163//150
f 159//598 174//598 175//598
f 168//599 167//599 182//599
f 160//153 175//153 176//153
f 169//154 168//154 183//154
f 162//600 161//600 176//600
f 162//601 177//601 178//601
f 155//602 170//602 171//602
f 163//160 178//160 179//160
f 156//603 171//603 172//603
f 164//162 179//162 180//162
f 158//163 157//163 172//163
f 166//604 165//604 180//604
f 158//605 173//605 174//605
f 167//606 166//606 181//606
f 178//167 193//167 194//167
f 172//607 171//607 186//607
f 179//169 194//169 195//169
f 172//170 187//170 188//170
f 180//608 195//608 196//608
f 174//609 173//609 188//609
f 182//610 181//610 196//610
f 175//611 174//611 189//611
f 182//612 197//612 198//612
f 175//613 190//613 191//613
f 183//614 198//614 199//614
f 176//615 191//615 192//615
f 178//616 177//616 192//616
f 171//617 170//617 185//617
f 197//618 212//618 213//618
f 191//184 190//184 205//184
f 199//619 198//619 213//619
f 191//186 206//186 207//186
f 193//189 192//189 207//189
f 186//620 185//620 200//620
f 194//621 193//621 208//621
f 187//192 186//192 201//192
f 194//622 209//622 210//622
f 188//623 187//623 202//623
f 196//195 195//195 210//195
f 188//624 203//624 204//624
f 196//625 211//625 212//625
f 190//626 189//626 204//626
f 210//627 209//627 224//627
f 202//628 217//628 218//628
f 211//629 210//629 225//629
f 203//630 218//630 219//630
f 211//631 226//631 227//631
f 205//632 204//632 219//632
f 213//633 212//633 227//633
f 205//634 220//634 221//634
f 213//635 228//635 229//635
f 206//636 221//636 222//636
f 207//637 222//637 223//637
f 201//638 200//638 215//638
f 209//213 208//213 223//213
f 202//639 201//639 216//639
f 229//640 228//640 243//640
f 221//641 236//641 237//641
f 223//642 222//642 237//642
f 216//643 215//643 230//643
f 223//221 238//221 239//221
f 216//644 231//644 232//644
f 224//223 239//223 240//223
f 218//645 217//645 232//645
f 225//646 240//646 241//646
f 219//647 218//647 233//647
f 226//227 241//227 242//227
f 219//648 234//648 235//648
f 227//649 242//649 243//649
f 221//230 220//230 235//230
f 233//650 232//650 247//650
f 241//651 240//651 255//651
f 234//652 233//652 248//652
f 242//653 241//653 256//653
f 235//654 234//654 249//654
f 242//655 257//655 258//655
f 235//237 250//237 251//237
f 243//656 258//656 259//656
f 236//657 251//657 252//657
f 238//658 237//658 252//658
f 231//659 230//659 245//659
f 239//244 238//244 253//244
f 232//660 231//660 246//660
f 240//246 239//246 254//246
f 251//661 266//661 267//661
f 253//662 252//662 267//662
f 246//663 245//663 260//663
f 254//664 253//664 268//664
f 247//665 246//665 261//665
f 254//254 269//254 270//254
f 247//255 262//255 263//255
f 255//666 270//666 271//666
f 248//667 263//667 264//667
f 257//668 256//668 271//668
f 250//669 249//669 264//669
f 257//670 272//670 273//670
f 250//261 265//261 266//261
f 258//671 273//671 274//671
f 270//263 285//263 286//263
f 263//672 278//672 279//672
f 271//673 286//673 287//673
f 265//674 264//674 279//674
f 272//675 287//675 288//675
f 265//268 280//268 281//268
f 274//676 273//676 288//676
f 266//677 281//677 282//677
f 268//678 267//678 282//678
f 260//679 275//679 276//679
f 268//275 283//275 284//275
f 262//680 261//680 276//680
f 269//681 284//681 285//681
f 263//278 262//278 277//278
f 283//682 282//682 297//682
f 275//683 290//683 291//683
f 283//283 298//283 299//283
f 276//684 291//684 292//684
f 285//685 284//685 299//685
f 277//286 292//286 293//286
f 285//686 300//686 301//686
f 278//687 293//687 294//687
f 286//289 301//289 302//289
f 280//290 279//290 294//290
f 288//688 287//688 302//688
f 280//292 295//292 296//292
f 289//689 288//689 303//689
f 281//690 296//690 297//690
f 294//691 293//691 308//691
f 302//296 301//296 316//296
f 295//297 294//297 309//297
f 303//692 302//692 317//692
f 296//299 295//299 310//299
f 303//693 318//693 319//693
f 296//694 311//694 312//694
f 298//695 297//695 312//695
f 291//696 290//696 305//696
f 298//306 313//306 314//306
f 292//307 291//307 306//307
f 299//308 314//308 315//308
f 293//309 292//309 307//309
f 300//310 315//310 316//310
f 312//697 327//697 328//697
f 306//698 305//698 320//698
f 313//313 328//313 329//313
f 307//699 306//699 321//699
f 314//315 329//315 330//315
f 307//316 322//316 323//316
f 315//317 330//317 331//317
f 308//318 323//318 324//318
f 316//700 331//700 332//700
f 310//320 309//320 324//320
f 317//701 332//701 333//701
f 311//702 310//702 325//702
f 318//703 333//703 334//703
f 311//704 326//704 327//704
f 331//327 346//327 347//327
f 325//705 324//705 339//705
f 332//706 347//706 348//706
f 325//330 340//330 341//330
f 334//707 333//707 348//707
f 327//708 326//708 341//708
f 327//709 342//709 343//709
f 320//710 335//710 336//710
f 328//711 343//711 344//711
f 321//338 336//338 337//338
f 329//712 344//712 345//712
f 322//713 337//713 338//713
f 330//714 345//714 346//714
f 324//715 323//715 338//715
f 343//343 358//343 359//343
f 336//716 351//716 352//716
f 345//717 344//717 359//717
f 338//346 337//346 352//346
f 345//718 360//718 361//718
f 338//348 353//348 354//348
f 346//719 361//719 362//719
f 339//720 354//720 355//720
f 348//721 347//721 362//721
f 340//352 355//352 356//352
f 349//722 348//722 363//722
f 341//723 356//723 357//723
f 342//724 357//724 358//724
f 335//358 350//358 351//358
f 362//725 377//725 378//725
f 356//360 355//360 370//360
f 363//361 378//361 379//361
f 356//726 371//726 372//726
f 358//365 357//365 372//365
f 351//366 350//366 365//366
f 358//367 373//367 374//367
f 352//727 351//727 366//727
f 359//369 374//369 375//369
f 352//370 367//370 368//370
f 360//728 375//728 376//728
f 354//729 353//729 368//729
f 361//730 376//730 377//730
f 355//731 354//731 369//731
f 366//375 381//375 382//375
f 374//376 389//376 390//376
f 368//732 367//732 382//732
f 375//733 390//733 391//733
f 368//734 383//734 384//734
f 377//735 376//735 391//735
f 370//381 369//381 384//381
f 377//382 392//382 393//382
f 371//736 370//736 385//736
f 378//737 393//737 394//737
f 371//738 386//738 387//738
f 373//739 372//739 387//739
f 366//740 365//740 380//740
f 373//741 388//741 389//741
f 385//391 400//391 401//391
f 393//742 408//742 409//742
f 387//743 386//743 401//743
f 387//744 402//744 403//744
f 380//745 395//745 396//745
f 389//746 388//746 403//746
f 381//747 396//747 397//747
f 389//400 404//400 405//400
f 382//748 397//748 398//748
f 391//749 390//749 405//749
f 383//403 398//403 399//403
f 392//750 391//750 406//750
f 384//405 399//405 400//405
f 393//751 392//751 407//751
f 404//407 419//407 420//407
f 397//408 412//408 413//408
f 406//752 405//752 420//752
f 398//753 413//753 414//753
f 406//411 421//411 422//411
f 399//754 414//754 415//754
f 408//755 407//755 422//755
f 401//414 400//414 415//414
f 409//756 408//756 423//756
f 401//757 416//757 417//757
f 402//419 417//419 418//419
f 395//758 410//758 411//758
f 403//421 418//421 419//421
f 396//759 411//759 412//759
f 423//760 438//760 439//760
f 417//761 416//761 431//761
f 417//762 432//762 433//762
f 411//763 410//763 425//763
f 418//429 433//429 434//429
f 411//764 426//764 427//764
f 419//431 434//431 435//431
f 412//432 427//432 428//432
f 420//433 435//433 436//433
f 413//765 428//765 429//765
f 422//766 421//766 436//766
f 415//767 414//767 429//767
f 422//768 437//768 438//768
f 416//438 415//438 430//438
f 428//769 427//769 442//769
f 436//770 435//770 450//770
f 428//771 443//771 444//771
f 436//772 451//772 452//772
f 430//443 429//443 444//443
f 438//773 437//773 452//773
f 431//445 430//445 445//445
f 439//774 438//774 453//774
f 432//775 431//775 446//775
f 432//776 447//776 448//776
f 425//777 440//777 441//777
f 433//452 448//452 449//452
f 426//778 441//778 442//778
f 434//454 449//454 450//454
f 447//779 446//779 461//779
f 447//780 462//780 463//780
f 440//781 455//781 456//781
f 448//460 463//460 464//460
f 441//782 456//782 457//782
f 450//462 449//462 464//462
f 443//463 442//463 457//463
f 451//464 450//464 465//464
f 444//465 443//465 458//465
f 451//783 466//783 467//783
f 444//467 459//467 460//467
f 452//784 467//784 468//784
f 446//469 445//469 460//469
f 454//785 453//785 468//785
f 465//786 480//786 481//786
f 459//472 458//472 473//472
f 466//473 481//473 482//473
f 459//787 474//787 475//787
f 467//788 482//788 483//788
f 460//476 475//476 476//476
f 469//789 468//789 483//789
f 461//790 476//790 477//790
f 462//791 477//791 478//791
f 455//792 470//792 471//792
f 464//483 463//483 478//483
f 457//484 456//484 471//484
f 465//793 464//793 479//793
f 458//794 457//794 472//794
f 477//488 492//488 493//488
f 471//795 470//795 485//795
f 478//490 493//490 494//490
f 472//796 471//796 486//796
f 479//492 494//492 495//492
f 472//493 487//493 488//493
f 480//797 495//797 496//797
f 473//495 488//495 489//495
f 481//496 496//496 497//496
f 475//798 474//798 489//798
f 482//799 497//799 498//799
f 476//499 475//499 490//499
f 483//800 498//800 499//800
f 476//501 491//501 492//501
f 496//503 32//503 33//503
f 490//801 489//801 501//801
f 498//802 497//802 33//802
f 490//506 29//506 502//506
f 498//803 505//803 506//803
f 491//804 502//804 30//804
f 492//511 30//511 31//511
f 486//805 485//805 26//805
f 493//513 31//513 503//513
f 486//514 500//514 27//514
f 494//515 503//515 504//515
f 487//806 27//806 28//806
f 496//517 495//517 504//517
f 489//807 488//807 28//807
