# Blender 5.2.2 LTS
# www.blender.org
mtllib fault_cable_chafe.mtl
o fault_cable_chafe
v 0.069455 0.162455 19.200001
v 0.069455 0.162455 19.340000
v 0.093525 0.159286 19.200001
v 0.093525 0.159286 19.340000
v 0.115955 0.149995 19.200001
v 0.115955 0.149995 19.340000
v 0.135216 0.135216 19.200001
v 0.135216 0.135216 19.340000
v 0.149995 0.115955 19.200001
v 0.149995 0.115955 19.340000
v 0.159286 0.093525 19.200001
v 0.159286 0.093525 19.340000
v 0.162455 0.069455 19.200001
v 0.162455 0.069455 19.340000
v 0.159286 0.045385 19.200001
v 0.159286 0.045385 19.340000
v 0.149995 0.022955 19.200001
v 0.149995 0.022955 19.340000
v 0.135216 0.003694 19.200001
v 0.135216 0.003694 19.340000
v 0.115955 -0.011086 19.200001
v 0.115955 -0.011086 19.340000
v 0.093525 -0.020376 19.200001
v 0.093525 -0.020376 19.340000
v 0.069455 -0.023545 19.200001
v 0.069455 -0.023545 19.340000
v 0.045385 -0.020376 19.200001
v 0.045385 -0.020376 19.340000
v 0.022955 -0.011086 19.200001
v 0.022955 -0.011086 19.340000
v 0.003694 0.003694 19.200001
v 0.003694 0.003694 19.340000
v -0.011086 0.022955 19.200001
v -0.011086 0.022955 19.340000
v -0.020376 0.045385 19.200001
v -0.020376 0.045385 19.340000
v -0.023545 0.069455 19.200001
v -0.023545 0.069455 19.340000
v -0.020376 0.093525 19.200001
v -0.020376 0.093525 19.340000
v -0.011086 0.115955 19.200001
v -0.011086 0.115955 19.340000
v 0.003694 0.135216 19.200001
v 0.003694 0.135216 19.340000
v 0.022955 0.149995 19.200001
v 0.022955 0.149995 19.340000
v 0.045385 0.159286 19.200001
v 0.045385 0.159286 19.340000
v 0.003623 0.010921 19.263523
v 0.003623 0.010921 19.363522
v 0.009205 0.005190 19.263523
v 0.009205 0.005190 19.363522
v -0.013569 -0.005825 19.263523
v -0.013569 -0.005825 19.363522
v -0.007988 -0.011556 19.263523
v -0.007988 -0.011556 19.363522
v 0.090269 -0.016142 19.299643
v 0.090269 -0.016142 19.399641
v 0.097948 -0.013901 19.299643
v 0.097948 -0.013901 19.399641
v 0.096993 -0.039181 19.299643
v 0.096993 -0.039181 19.399641
v 0.104672 -0.036939 19.299643
v 0.104672 -0.036939 19.399641
v 0.059881 -0.018114 19.296019
v 0.059881 -0.018114 19.396017
v 0.067865 -0.018622 19.296019
v 0.067865 -0.018622 19.396017
v 0.058359 -0.042066 19.296019
v 0.058359 -0.042066 19.396017
v 0.066343 -0.042574 19.296019
v 0.066343 -0.042574 19.396017
v 0.156722 0.081470 19.213814
v 0.156722 0.081470 19.313812
v 0.155272 0.089337 19.213814
v 0.155272 0.089337 19.313812
v 0.180325 0.085820 19.213814
v 0.180325 0.085820 19.313812
v 0.178875 0.093687 19.213814
v 0.178875 0.093687 19.313812
v 0.150546 0.035043 19.246817
v 0.150546 0.035043 19.346815
v 0.153334 0.042542 19.246817
v 0.153334 0.042542 19.346815
v 0.173042 0.026681 19.246817
v 0.173042 0.026681 19.346815
v 0.175830 0.034179 19.246817
v 0.175830 0.034179 19.346815
v 0.138607 0.014884 19.150377
v 0.138607 0.014884 19.250376
v 0.143273 0.021383 19.150377
v 0.143273 0.021383 19.250376
v 0.158103 0.000887 19.150377
v 0.158103 0.000887 19.250376
v 0.162768 0.007386 19.150377
v 0.162768 0.007386 19.250376
v -0.016116 0.090374 19.174383
v -0.016116 0.090374 19.274382
v -0.017661 0.082525 19.174383
v -0.017661 0.082525 19.274382
v -0.039664 0.095009 19.174383
v -0.039664 0.095009 19.274382
v -0.041209 0.087160 19.174383
v -0.041209 0.087160 19.274382
v 0.369455 -0.042920 18.970501
v 0.369455 -0.042920 18.973499
v 0.393503 -0.042726 18.970501
v 0.393503 -0.042726 18.973499
v 0.416359 -0.049157 18.970501
v 0.416359 -0.049157 18.973499
v 0.436203 -0.061283 18.970501
v 0.436203 -0.061283 18.973499
v 0.452043 -0.077171 18.970501
v 0.452043 -0.077171 18.973499
v 0.464038 -0.094428 18.970501
v 0.464038 -0.094428 18.973499
v 0.473432 -0.110843 18.970501
v 0.473432 -0.110843 18.973499
v 0.482117 -0.124946 18.970501
v 0.482117 -0.124946 18.973499
v 0.491969 -0.136303 18.970501
v 0.491969 -0.136303 18.973499
v 0.504187 -0.145490 18.970501
v 0.504187 -0.145490 18.973499
v 0.518853 -0.153757 18.970501
v 0.518853 -0.153757 18.973499
v 0.534866 -0.162534 18.970501
v 0.534866 -0.162534 18.973499
v 0.550279 -0.172930 18.970501
v 0.550279 -0.172930 18.973499
v 0.562922 -0.185401 18.970501
v 0.562922 -0.185401 18.973499
v 0.571101 -0.199692 18.970501
v 0.571101 -0.199692 18.973499
v 0.574148 -0.215037 18.970501
v 0.574148 -0.215037 18.973499
v 0.572623 -0.230545 18.970501
v 0.572623 -0.230545 18.973499
v 0.568108 -0.245596 18.970501
v 0.568108 -0.245596 18.973499
v 0.562654 -0.260107 18.970501
v 0.562654 -0.260107 18.973499
v 0.558070 -0.274557 18.970501
v 0.558070 -0.274557 18.973499
v 0.555290 -0.289757 18.970501
v 0.555290 -0.289757 18.973499
v 0.554032 -0.306436 18.970501
v 0.554032 -0.306436 18.973499
v 0.552862 -0.324814 18.970501
v 0.552862 -0.324814 18.973499
v 0.549655 -0.344305 18.970501
v 0.549655 -0.344305 18.973499
v 0.542288 -0.363494 18.970501
v 0.542288 -0.363494 18.973499
v 0.529344 -0.380411 18.970501
v 0.529344 -0.380411 18.973499
v 0.510597 -0.393033 18.970501
v 0.510597 -0.393033 18.973499
v 0.487115 -0.399873 18.970501
v 0.487115 -0.399873 18.973499
v 0.460950 -0.400460 18.970501
v 0.460950 -0.400460 18.973499
v 0.434521 -0.395543 18.970501
v 0.434521 -0.395543 18.973499
v 0.409899 -0.386952 18.970501
v 0.409899 -0.386952 18.973499
v 0.388224 -0.377138 18.970501
v 0.388224 -0.377138 18.973499
v 0.369455 -0.368520 18.970501
v 0.369455 -0.368520 18.973499
v 0.352516 -0.362840 18.970501
v 0.352516 -0.362840 18.973499
v 0.335795 -0.360715 18.970501
v 0.335795 -0.360715 18.973499
v 0.317804 -0.361523 18.970501
v 0.317804 -0.361523 18.973499
v 0.297783 -0.363647 18.970501
v 0.297783 -0.363647 18.973499
v 0.276033 -0.364991 18.970501
v 0.276033 -0.364991 18.973499
v 0.253866 -0.363615 18.970501
v 0.253866 -0.363615 18.973499
v 0.233188 -0.358270 18.970501
v 0.233188 -0.358270 18.973499
v 0.215859 -0.348696 18.970501
v 0.215859 -0.348696 18.973499
v 0.203062 -0.335588 18.970501
v 0.203062 -0.335588 18.973499
v 0.194883 -0.320272 18.970501
v 0.194883 -0.320272 18.973499
v 0.190269 -0.304220 18.970501
v 0.190269 -0.304220 18.973499
v 0.187374 -0.288561 18.970501
v 0.187374 -0.288561 18.973499
v 0.184196 -0.273774 18.970501
v 0.184196 -0.273774 18.973499
v 0.179270 -0.259645 18.970501
v 0.179270 -0.259645 18.973499
v 0.172212 -0.245489 18.970501
v 0.172212 -0.245489 18.973499
v 0.163904 -0.230545 18.970501
v 0.163904 -0.230545 18.973499
v 0.156262 -0.214393 18.970501
v 0.156262 -0.214393 18.973499
v 0.151665 -0.197222 18.970501
v 0.151665 -0.197222 18.973499
v 0.152208 -0.179852 18.970501
v 0.152208 -0.179852 18.973499
v 0.159040 -0.163502 18.970501
v 0.159040 -0.163502 18.973499
v 0.172005 -0.149362 18.970501
v 0.172005 -0.149362 18.973499
v 0.189682 -0.138145 18.970501
v 0.189682 -0.138145 18.973499
v 0.209832 -0.129777 18.970501
v 0.209832 -0.129777 18.973499
v 0.230086 -0.123338 18.970501
v 0.230086 -0.123338 18.973499
v 0.248656 -0.117319 18.970501
v 0.248656 -0.117319 18.973499
v 0.264832 -0.110100 18.970501
v 0.264832 -0.110100 18.973499
v 0.279104 -0.100519 18.970501
v 0.279104 -0.100519 18.973499
v 0.292878 -0.088335 18.970501
v 0.292878 -0.088335 18.973499
v 0.307890 -0.074428 18.970501
v 0.307890 -0.074428 18.973499
v 0.325524 -0.060657 18.970501
v 0.325524 -0.060657 18.973499
v 0.346261 -0.049401 18.970501
v 0.346261 -0.049401 18.973499
vn 0.1305 0.9914 -0.0000
vn 0.3827 0.9239 -0.0000
vn 0.6088 0.7934 -0.0000
vn 0.7934 0.6088 -0.0000
vn 0.9239 0.3827 -0.0000
vn 0.9914 0.1305 -0.0000
vn 0.9914 -0.1305 -0.0000
vn 0.9239 -0.3827 -0.0000
vn 0.7934 -0.6088 -0.0000
vn 0.6088 -0.7934 -0.0000
vn 0.3827 -0.9239 -0.0000
vn 0.1305 -0.9914 -0.0000
vn -0.1305 -0.9914 -0.0000
vn -0.3827 -0.9239 -0.0000
vn -0.6088 -0.7934 -0.0000
vn -0.7934 -0.6088 -0.0000
vn -0.9239 -0.3827 -0.0000
vn -0.9914 -0.1305 -0.0000
vn -0.9914 0.1305 -0.0000
vn -0.9239 0.3827 -0.0000
vn -0.7934 0.6088 -0.0000
vn -0.6088 0.7934 -0.0000
vn -0.0000 -0.0000 1.0000
vn -0.3827 0.9239 -0.0000
vn -0.1305 0.9914 -0.0000
vn -0.0000 -0.0000 -1.0000
vn 0.7164 0.6977 -0.0000
vn 0.6977 -0.7164 -0.0000
vn -0.7164 -0.6977 -0.0000
vn -0.6977 0.7164 -0.0000
vn -0.2802 0.9600 -0.0000
vn 0.9600 0.2802 -0.0000
vn 0.2802 -0.9600 -0.0000
vn -0.9600 -0.2802 -0.0000
vn 0.0634 0.9980 -0.0000
vn 0.9980 -0.0634 -0.0000
vn -0.0634 -0.9980 -0.0000
vn -0.9980 0.0634 -0.0000
vn -0.9834 -0.1812 -0.0000
vn -0.1812 0.9834 -0.0000
vn 0.9834 0.1812 -0.0000
vn 0.1812 -0.9834 -0.0000
vn -0.9373 0.3484 -0.0000
vn 0.3484 0.9373 -0.0000
vn 0.9373 -0.3484 -0.0000
vn -0.3484 -0.9373 -0.0000
vn -0.8123 0.5832 -0.0000
vn 0.5832 0.8123 -0.0000
vn 0.8123 -0.5832 -0.0000
vn -0.5832 -0.8123 -0.0000
vn 0.9812 -0.1931 -0.0000
vn -0.1931 -0.9812 -0.0000
vn -0.9812 0.1931 -0.0000
vn 0.1931 0.9812 -0.0000
vn -0.0081 1.0000 -0.0000
vn 0.2709 0.9626 -0.0000
vn 0.5214 0.8533 -0.0000
vn 0.7082 0.7060 -0.0000
vn 0.8211 0.5708 -0.0000
vn 0.8679 0.4967 -0.0000
vn 0.8515 0.5244 -0.0000
vn 0.7554 0.6553 -0.0000
vn 0.6010 0.7993 -0.0000
vn 0.4911 0.8711 -0.0000
vn 0.4807 0.8769 -0.0000
vn 0.5592 0.8291 -0.0000
vn 0.7023 0.7119 -0.0000
vn 0.9809 0.1947 -0.0000
vn 0.9952 -0.0979 -0.0000
vn 0.9578 -0.2874 -0.0000
vn 0.9361 -0.3518 -0.0000
vn 0.9532 -0.3024 -0.0000
vn 0.9837 -0.1799 -0.0000
vn 0.9972 -0.0752 -0.0000
vn 0.9980 -0.0635 -0.0000
vn 0.9867 -0.1623 -0.0000
vn 0.9336 -0.3584 -0.0000
vn 0.7942 -0.6077 -0.0000
vn 0.5585 -0.8295 -0.0000
vn 0.2797 -0.9601 -0.0000
vn 0.0224 -0.9997 -0.0000
vn -0.1829 -0.9831 -0.0000
vn -0.3294 -0.9442 -0.0000
vn -0.4125 -0.9110 -0.0000
vn -0.4173 -0.9088 -0.0000
vn -0.3179 -0.9481 -0.0000
vn -0.1261 -0.9920 -0.0000
vn 0.0449 -0.9990 -0.0000
vn 0.1055 -0.9944 -0.0000
vn 0.0617 -0.9981 -0.0000
vn -0.0620 -0.9981 -0.0000
vn -0.2502 -0.9682 -0.0000
vn -0.4836 -0.8753 -0.0000
vn -0.7156 -0.6986 -0.0000
vn -0.8821 -0.4711 -0.0000
vn -0.9611 -0.2763 -0.0000
vn -0.9833 -0.1817 -0.0000
vn -0.9777 -0.2101 -0.0000
vn -0.9443 -0.3292 -0.0000
vn -0.8949 -0.4462 -0.0000
vn -0.8740 -0.4859 -0.0000
vn -0.9039 -0.4276 -0.0000
vn -0.9660 -0.2586 -0.0000
vn -0.9995 0.0312 -0.0000
vn -0.9227 0.3856 -0.0000
vn -0.7371 0.6758 -0.0000
vn -0.5358 0.8444 -0.0000
vn -0.3836 0.9235 -0.0000
vn -0.3030 0.9530 -0.0000
vn -0.3083 0.9513 -0.0000
vn -0.4075 0.9132 -0.0000
vn -0.5574 0.8303 -0.0000
vn -0.6626 0.7490 -0.0000
vn -0.6796 0.7336 -0.0000
vn -0.6155 0.7881 -0.0000
vn -0.4771 0.8789 -0.0000
vn -0.2691 0.9631 -0.0000
vn 0.6009 0.7993 -0.0000
vn 0.9578 -0.2873 -0.0000
vn -0.9040 -0.4276 -0.0000
vn -0.6155 0.7882 -0.0000
s 0
usemtl copper
f 2//1 3//1 1//1
f 4//2 5//2 3//2
f 6//3 7//3 5//3
f 8//4 9//4 7//4
f 10//5 11//5 9//5
f 12//6 13//6 11//6
f 14//7 15//7 13//7
f 16//8 17//8 15//8
f 18//9 19//9 17//9
f 20//10 21//10 19//10
f 22//11 23//11 21//11
f 24//12 25//12 23//12
f 26//13 27//13 25//13
f 28//14 29//14 27//14
f 30//15 31//15 29//15
f 32//16 33//16 31//16
f 34//17 35//17 33//17
f 36//18 37//18 35//18
f 38//19 39//19 37//19
f 40//20 41//20 39//20
f 42//21 43//21 41//21
f 44//22 45//22 43//22
f 38//23 22//23 6//23
f 46//24 47//24 45//24
f 48//25 1//25 47//25
f 15//26 31//26 47//26
f 2//1 4//1 3//1
f 4//2 6//2 5//2
f 6//3 8//3 7//3
f 8//4 10//4 9//4
f 10//5 12//5 11//5
f 12//6 14//6 13//6
f 14//7 16//7 15//7
f 16//8 18//8 17//8
f 18//9 20//9 19//9
f 20//10 22//10 21//10
f 22//11 24//11 23//11
f 24//12 26//12 25//12
f 26//13 28//13 27//13
f 28//14 30//14 29//14
f 30//15 32//15 31//15
f 32//16 34//16 33//16
f 34//17 36//17 35//17
f 36//18 38//18 37//18
f 38//19 40//19 39//19
f 40//20 42//20 41//20
f 42//21 44//21 43//21
f 44//22 46//22 45//22
f 6//23 4//23 2//23
f 2//23 48//23 46//23
f 46//23 44//23 42//23
f 42//23 40//23 38//23
f 38//23 36//23 34//23
f 34//23 32//23 30//23
f 30//23 28//23 26//23
f 26//23 24//23 22//23
f 22//23 20//23 18//23
f 18//23 16//23 14//23
f 14//23 12//23 10//23
f 10//23 8//23 6//23
f 6//23 2//23 46//23
f 46//23 42//23 38//23
f 38//23 34//23 30//23
f 30//23 26//23 22//23
f 22//23 18//23 14//23
f 14//23 10//23 6//23
f 6//23 46//23 38//23
f 38//23 30//23 22//23
f 22//23 14//23 6//23
f 46//24 48//24 47//24
f 48//25 2//25 1//25
f 47//26 1//26 3//26
f 3//26 5//26 7//26
f 7//26 9//26 11//26
f 11//26 13//26 15//26
f 15//26 17//26 19//26
f 19//26 21//26 23//26
f 23//26 25//26 27//26
f 27//26 29//26 31//26
f 31//26 33//26 35//26
f 35//26 37//26 39//26
f 39//26 41//26 43//26
f 43//26 45//26 47//26
f 47//26 3//26 7//26
f 7//26 11//26 15//26
f 15//26 19//26 23//26
f 23//26 27//26 31//26
f 31//26 35//26 39//26
f 39//26 43//26 47//26
f 47//26 7//26 15//26
f 15//26 23//26 31//26
f 31//26 39//26 47//26
usemtl cable_black
f 50//27 51//27 49//27
f 52//28 55//28 51//28
f 56//29 53//29 55//29
f 54//30 49//30 53//30
f 51//26 53//26 49//26
f 52//23 54//23 56//23
f 58//31 59//31 57//31
f 60//32 63//32 59//32
f 64//33 61//33 63//33
f 62//34 57//34 61//34
f 59//26 61//26 57//26
f 60//23 62//23 64//23
f 66//35 67//35 65//35
f 68//36 71//36 67//36
f 72//37 69//37 71//37
f 70//38 65//38 69//38
f 71//26 65//26 67//26
f 68//23 70//23 72//23
f 74//39 75//39 73//39
f 76//40 79//40 75//40
f 80//41 77//41 79//41
f 78//42 73//42 77//42
f 79//26 73//26 75//26
f 80//23 74//23 78//23
f 82//43 83//43 81//43
f 84//44 87//44 83//44
f 88//45 85//45 87//45
f 86//46 81//46 85//46
f 87//26 81//26 83//26
f 88//23 82//23 86//23
f 90//47 91//47 89//47
f 92//48 95//48 91//48
f 96//49 93//49 95//49
f 94//50 89//50 93//50
f 91//26 93//26 89//26
f 92//23 94//23 96//23
f 98//51 99//51 97//51
f 100//52 103//52 99//52
f 104//53 101//53 103//53
f 102//54 97//54 101//54
f 103//26 97//26 99//26
f 104//23 98//23 102//23
f 50//27 52//27 51//27
f 52//28 56//28 55//28
f 56//29 54//29 53//29
f 54//30 50//30 49//30
f 51//26 55//26 53//26
f 52//23 50//23 54//23
f 58//31 60//31 59//31
f 60//32 64//32 63//32
f 64//33 62//33 61//33
f 62//34 58//34 57//34
f 59//26 63//26 61//26
f 60//23 58//23 62//23
f 66//35 68//35 67//35
f 68//36 72//36 71//36
f 72//37 70//37 69//37
f 70//38 66//38 65//38
f 71//26 69//26 65//26
f 68//23 66//23 70//23
f 74//39 76//39 75//39
f 76//40 80//40 79//40
f 80//41 78//41 77//41
f 78//42 74//42 73//42
f 79//26 77//26 73//26
f 80//23 76//23 74//23
f 82//43 84//43 83//43
f 84//44 88//44 87//44
f 88//45 86//45 85//45
f 86//46 82//46 81//46
f 87//26 85//26 81//26
f 88//23 84//23 82//23
f 90//47 92//47 91//47
f 92//48 96//48 95//48
f 96//49 94//49 93//49
f 94//50 90//50 89//50
f 91//26 95//26 93//26
f 92//23 90//23 94//23
f 98//51 100//51 99//51
f 100//52 104//52 103//52
f 104//53 102//53 101//53
f 102//54 98//54 97//54
f 103//26 101//26 97//26
f 104//23 100//23 98//23
usemtl bolt_black
f 106//55 107//55 105//55
f 108//56 109//56 107//56
f 110//57 111//57 109//57
f 112//58 113//58 111//58
f 114//59 115//59 113//59
f 116//60 117//60 115//60
f 118//61 119//61 117//61
f 120//62 121//62 119//62
f 122//63 123//63 121//63
f 124//64 125//64 123//64
f 126//65 127//65 125//65
f 128//66 129//66 127//66
f 130//67 131//67 129//67
f 132//60 133//60 131//60
f 134//68 135//68 133//68
f 136//69 137//69 135//69
f 138//70 139//70 137//70
f 140//71 141//71 139//71
f 142//72 143//72 141//72
f 144//73 145//73 143//73
f 146//74 147//74 145//74
f 148//75 149//75 147//75
f 150//76 151//76 149//76
f 152//77 153//77 151//77
f 154//78 155//78 153//78
f 156//79 157//79 155//79
f 158//80 159//80 157//80
f 160//81 161//81 159//81
f 162//82 163//82 161//82
f 164//83 165//83 163//83
f 166//84 167//84 165//84
f 168//85 169//85 167//85
f 170//86 171//86 169//86
f 172//87 173//87 171//87
f 174//88 175//88 173//88
f 176//89 177//89 175//89
f 178//90 179//90 177//90
f 180//91 181//91 179//91
f 182//92 183//92 181//92
f 184//93 185//93 183//93
f 186//94 187//94 185//94
f 188//95 189//95 187//95
f 190//96 191//96 189//96
f 192//97 193//97 191//97
f 194//98 195//98 193//98
f 196//99 197//99 195//99
f 198//100 199//100 197//100
f 200//101 201//101 199//101
f 202//102 203//102 201//102
f 204//103 205//103 203//103
f 206//104 207//104 205//104
f 208//105 209//105 207//105
f 210//106 211//106 209//106
f 212//107 213//107 211//107
f 214//108 215//108 213//108
f 216//109 217//109 215//109
f 218//110 219//110 217//110
f 220//111 221//111 219//111
f 222//112 223//112 221//112
f 224//113 225//113 223//113
f 226//114 227//114 225//114
f 228//115 229//115 227//115
f 190//23 172//23 154//23
f 230//116 231//116 229//116
f 232//117 105//117 231//117
f 155//26 173//26 189//26
f 106//55 108//55 107//55
f 108//56 110//56 109//56
f 110//57 112//57 111//57
f 112//58 114//58 113//58
f 114//59 116//59 115//59
f 116//60 118//60 117//60
f 118//61 120//61 119//61
f 120//62 122//62 121//62
f 122//118 124//118 123//118
f 124//64 126//64 125//64
f 126//65 128//65 127//65
f 128//66 130//66 129//66
f 130//67 132//67 131//67
f 132//60 134//60 133//60
f 134//68 136//68 135//68
f 136//69 138//69 137//69
f 138//119 140//119 139//119
f 140//71 142//71 141//71
f 142//72 144//72 143//72
f 144//73 146//73 145//73
f 146//74 148//74 147//74
f 148//75 150//75 149//75
f 150//76 152//76 151//76
f 152//77 154//77 153//77
f 154//78 156//78 155//78
f 156//79 158//79 157//79
f 158//80 160//80 159//80
f 160//81 162//81 161//81
f 162//82 164//82 163//82
f 164//83 166//83 165//83
f 166//84 168//84 167//84
f 168//85 170//85 169//85
f 170//86 172//86 171//86
f 172//87 174//87 173//87
f 174//88 176//88 175//88
f 176//89 178//89 177//89
f 178//90 180//90 179//90
f 180//91 182//91 181//91
f 182//92 184//92 183//92
f 184//93 186//93 185//93
f 186//94 188//94 187//94
f 188//95 190//95 189//95
f 190//96 192//96 191//96
f 192//97 194//97 193//97
f 194//98 196//98 195//98
f 196//99 198//99 197//99
f 198//100 200//100 199//100
f 200//101 202//101 201//101
f 202//120 204//120 203//120
f 204//103 206//103 205//103
f 206//104 208//104 207//104
f 208//105 210//105 209//105
f 210//106 212//106 211//106
f 212//107 214//107 213//107
f 214//108 216//108 215//108
f 216//109 218//109 217//109
f 218//110 220//110 219//110
f 220//111 222//111 221//111
f 222//112 224//112 223//112
f 224//113 226//113 225//113
f 226//114 228//114 227//114
f 228//121 230//121 229//121
f 110//23 108//23 106//23
f 106//23 232//23 230//23
f 230//23 228//23 226//23
f 230//23 226//23 224//23
f 110//23 106//23 230//23
f 114//23 112//23 110//23
f 118//23 116//23 114//23
f 120//23 118//23 114//23
f 114//23 110//23 230//23
f 114//23 230//23 224//23
f 120//23 114//23 224//23
f 120//23 224//23 222//23
f 122//23 120//23 222//23
f 122//23 222//23 220//23
f 124//23 122//23 220//23
f 218//23 216//23 214//23
f 124//23 220//23 218//23
f 130//23 128//23 126//23
f 126//23 124//23 218//23
f 218//23 214//23 212//23
f 212//23 210//23 208//23
f 208//23 206//23 204//23
f 204//23 202//23 200//23
f 208//23 204//23 200//23
f 218//23 212//23 208//23
f 130//23 126//23 218//23
f 134//23 132//23 130//23
f 138//23 136//23 134//23
f 142//23 140//23 138//23
f 142//23 138//23 134//23
f 134//23 130//23 218//23
f 218//23 208//23 200//23
f 218//23 200//23 198//23
f 142//23 134//23 218//23
f 144//23 142//23 218//23
f 218//23 198//23 196//23
f 194//23 192//23 190//23
f 218//23 196//23 194//23
f 146//23 144//23 218//23
f 152//23 150//23 148//23
f 148//23 146//23 218//23
f 218//23 194//23 190//23
f 190//23 188//23 186//23
f 186//23 184//23 182//23
f 182//23 180//23 178//23
f 182//23 178//23 176//23
f 190//23 186//23 182//23
f 148//23 218//23 190//23
f 154//23 152//23 148//23
f 158//23 156//23 154//23
f 162//23 160//23 158//23
f 166//23 164//23 162//23
f 170//23 168//23 166//23
f 170//23 166//23 162//23
f 162//23 158//23 154//23
f 154//23 148//23 190//23
f 190//23 182//23 176//23
f 190//23 176//23 174//23
f 170//23 162//23 154//23
f 190//23 174//23 172//23
f 172//23 170//23 154//23
f 230//116 232//116 231//116
f 232//117 106//117 105//117
f 231//26 105//26 107//26
f 107//26 109//26 111//26
f 111//26 113//26 115//26
f 111//26 115//26 117//26
f 231//26 107//26 111//26
f 227//26 229//26 231//26
f 225//26 227//26 231//26
f 231//26 111//26 117//26
f 231//26 117//26 119//26
f 223//26 225//26 231//26
f 223//26 231//26 119//26
f 223//26 119//26 121//26
f 221//26 223//26 121//26
f 221//26 121//26 123//26
f 219//26 221//26 123//26
f 125//26 127//26 129//26
f 219//26 123//26 125//26
f 213//26 215//26 217//26
f 217//26 219//26 125//26
f 125//26 129//26 131//26
f 131//26 133//26 135//26
f 135//26 137//26 139//26
f 135//26 139//26 141//26
f 125//26 131//26 135//26
f 213//26 217//26 125//26
f 209//26 211//26 213//26
f 205//26 207//26 209//26
f 201//26 203//26 205//26
f 199//26 201//26 205//26
f 205//26 209//26 213//26
f 213//26 125//26 135//26
f 135//26 141//26 143//26
f 213//26 135//26 143//26
f 199//26 205//26 213//26
f 197//26 199//26 213//26
f 213//26 143//26 145//26
f 147//26 149//26 151//26
f 213//26 145//26 147//26
f 195//26 197//26 213//26
f 189//26 191//26 193//26
f 193//26 195//26 213//26
f 213//26 147//26 151//26
f 151//26 153//26 155//26
f 155//26 157//26 159//26
f 159//26 161//26 163//26
f 163//26 165//26 167//26
f 163//26 167//26 169//26
f 155//26 159//26 163//26
f 213//26 151//26 155//26
f 189//26 193//26 213//26
f 185//26 187//26 189//26
f 181//26 183//26 185//26
f 177//26 179//26 181//26
f 175//26 177//26 181//26
f 181//26 185//26 189//26
f 189//26 213//26 155//26
f 155//26 163//26 169//26
f 155//26 169//26 171//26
f 175//26 181//26 189//26
f 155//26 171//26 173//26
f 173//26 175//26 189//26
