# Blender 5.2.2 LTS
# www.blender.org
mtllib fault_anchor_corrosion.mtl
o fault_anchor_corrosion
v -2.937937 -1.179933 0.119000
v -2.937937 -1.179933 0.169000
v -2.909009 -1.193864 0.119000
v -2.909009 -1.193864 0.169000
v -2.901865 -1.225167 0.119000
v -2.901865 -1.225167 0.169000
v -2.921883 -1.250269 0.119000
v -2.921883 -1.250269 0.169000
v -2.953991 -1.250269 0.119000
v -2.953991 -1.250269 0.169000
v -2.974009 -1.225167 0.119000
v -2.974009 -1.225167 0.169000
v -2.966865 -1.193864 0.119000
v -2.966865 -1.193864 0.169000
v -2.852055 -1.369478 0.119000
v -2.852055 -1.369478 0.169000
v -2.823128 -1.383409 0.119000
v -2.823128 -1.383409 0.169000
v -2.815983 -1.414711 0.119000
v -2.815983 -1.414711 0.169000
v -2.836002 -1.439814 0.119000
v -2.836002 -1.439814 0.169000
v -2.868109 -1.439814 0.119000
v -2.868109 -1.439814 0.169000
v -2.888128 -1.414711 0.119000
v -2.888128 -1.414711 0.169000
v -2.880983 -1.383409 0.119000
v -2.880983 -1.383409 0.169000
v -2.753961 -1.553000 0.119000
v -2.753961 -1.553000 0.169000
v -2.725033 -1.566931 0.119000
v -2.725033 -1.566931 0.169000
v -2.717889 -1.598233 0.119000
v -2.717889 -1.598233 0.169000
v -2.737907 -1.623336 0.119000
v -2.737907 -1.623336 0.169000
v -2.770015 -1.623336 0.119000
v -2.770015 -1.623336 0.169000
v -2.790033 -1.598233 0.119000
v -2.790033 -1.598233 0.169000
v -2.782889 -1.566931 0.119000
v -2.782889 -1.566931 0.169000
v -2.644073 -1.729713 0.119000
v -2.644073 -1.729713 0.169000
v -2.615146 -1.743644 0.119000
v -2.615146 -1.743644 0.169000
v -2.608001 -1.774947 0.119000
v -2.608001 -1.774947 0.169000
v -2.628020 -1.800049 0.119000
v -2.628020 -1.800049 0.169000
v -2.660127 -1.800049 0.119000
v -2.660127 -1.800049 0.169000
v -2.680146 -1.774947 0.119000
v -2.680146 -1.774947 0.169000
v -2.673001 -1.743644 0.119000
v -2.673001 -1.743644 0.169000
v -2.522864 -1.898861 0.119000
v -2.522864 -1.898861 0.169000
v -2.493936 -1.912792 0.119000
v -2.493936 -1.912792 0.169000
v -2.486791 -1.944095 0.119000
v -2.486791 -1.944095 0.169000
v -2.506810 -1.969197 0.119000
v -2.506810 -1.969197 0.169000
v -2.538917 -1.969197 0.119000
v -2.538917 -1.969197 0.169000
v -2.558936 -1.944095 0.119000
v -2.558936 -1.944095 0.169000
v -2.551791 -1.912792 0.119000
v -2.551791 -1.912792 0.169000
v -2.390851 -2.059720 0.119000
v -2.390851 -2.059720 0.169000
v -2.361923 -2.073651 0.119000
v -2.361923 -2.073651 0.169000
v -2.354778 -2.104953 0.119000
v -2.354778 -2.104953 0.169000
v -2.374797 -2.130056 0.119000
v -2.374797 -2.130056 0.169000
v -2.406904 -2.130056 0.119000
v -2.406904 -2.130056 0.169000
v -2.426923 -2.104953 0.119000
v -2.426923 -2.104953 0.169000
v -2.419778 -2.073651 0.119000
v -2.419778 -2.073651 0.169000
v -2.763805 -1.826715 0.100000
v -2.763805 -1.826715 0.000000
v -2.773805 -1.829395 0.100000
v -2.773805 -1.829395 0.000000
v -2.781125 -1.836715 0.100000
v -2.781125 -1.836715 0.000000
v -2.783805 -1.846715 0.100000
v -2.783805 -1.846715 0.000000
v -2.781125 -1.856715 0.100000
v -2.781125 -1.856715 0.000000
v -2.773805 -1.864036 0.100000
v -2.773805 -1.864036 0.000000
v -2.763805 -1.866715 0.100000
v -2.763805 -1.866715 0.000000
v -2.753805 -1.864036 0.100000
v -2.753805 -1.864036 0.000000
v -2.746485 -1.856715 0.100000
v -2.746485 -1.856715 0.000000
v -2.743805 -1.846715 0.100000
v -2.743805 -1.846715 0.000000
v -2.746485 -1.836715 0.100000
v -2.746485 -1.836715 0.000000
v -2.753805 -1.829395 0.100000
v -2.753805 -1.829395 0.000000
v -2.777109 -1.855605 -0.030000
v -3.159585 -2.111167 -0.030000
v -2.770164 -1.865998 -0.033349
v -3.152640 -2.121560 -0.033349
v -2.765080 -1.873606 -0.042500
v -3.147556 -2.129169 -0.042500
v -2.763219 -1.876391 -0.055000
v -3.145695 -2.131954 -0.055000
v -2.765080 -1.873606 -0.067500
v -3.147556 -2.129169 -0.067500
v -2.770164 -1.865998 -0.076651
v -3.152640 -2.121560 -0.076651
v -2.777109 -1.855605 -0.080000
v -3.159585 -2.111167 -0.080000
v -2.784053 -1.845211 -0.076651
v -3.166529 -2.100774 -0.076651
v -2.789137 -1.837603 -0.067500
v -3.171613 -2.093165 -0.067500
v -2.790998 -1.834818 -0.055000
v -3.173474 -2.090380 -0.055000
v -2.789137 -1.837603 -0.042500
v -3.171613 -2.093165 -0.042500
v -2.784053 -1.845211 -0.033349
v -3.166529 -2.100774 -0.033349
vn 0.4339 0.9010 -0.0000
vn 0.9749 0.2225 -0.0000
vn 0.7818 -0.6235 -0.0000
vn -0.0000 -1.0000 -0.0000
vn -0.7818 -0.6235 -0.0000
vn -0.0000 -0.0000 1.0000
vn -0.9749 0.2225 -0.0000
vn -0.4339 0.9010 -0.0000
vn -0.0000 -0.0000 -1.0000
vn -0.2588 0.9659 -0.0000
vn -0.7071 0.7071 -0.0000
vn -0.9659 0.2588 -0.0000
vn -0.9659 -0.2588 -0.0000
vn -0.7071 -0.7071 -0.0000
vn -0.2588 -0.9659 -0.0000
vn 0.2588 -0.9659 -0.0000
vn 0.7071 -0.7071 -0.0000
vn 0.9659 -0.2588 -0.0000
vn 0.9659 0.2588 -0.0000
vn 0.7071 0.7071 -0.0000
vn 0.2588 0.9659 -0.0000
vn 0.1438 -0.2152 0.9659
vn 0.3928 -0.5879 0.7071
vn 0.5366 -0.8031 0.2588
vn 0.5366 -0.8031 -0.2588
vn 0.3928 -0.5879 -0.7071
vn 0.1438 -0.2152 -0.9659
vn -0.1438 0.2152 -0.9659
vn -0.3928 0.5879 -0.7071
vn -0.5366 0.8031 -0.2588
vn -0.5366 0.8031 0.2588
vn -0.8315 -0.5556 -0.0000
vn -0.3928 0.5879 0.7071
vn -0.1438 0.2152 0.9659
vn 0.8315 0.5556 -0.0000
vn -0.8315 -0.5555 -0.0000
vn 0.8314 0.5556 -0.0000
s 0
usemtl rust
f 2//1 3//1 1//1
f 4//2 5//2 3//2
f 6//3 7//3 5//3
f 8//4 9//4 7//4
f 10//5 11//5 9//5
f 2//6 12//6 8//6
f 12//7 13//7 11//7
f 14//8 1//8 13//8
f 3//9 7//9 11//9
f 16//1 17//1 15//1
f 18//2 19//2 17//2
f 20//3 21//3 19//3
f 22//4 23//4 21//4
f 24//5 25//5 23//5
f 16//6 26//6 22//6
f 26//7 27//7 25//7
f 28//8 15//8 27//8
f 17//9 21//9 25//9
f 30//1 31//1 29//1
f 32//2 33//2 31//2
f 34//3 35//3 33//3
f 36//4 37//4 35//4
f 38//5 39//5 37//5
f 30//6 40//6 36//6
f 40//7 41//7 39//7
f 42//8 29//8 41//8
f 31//9 35//9 39//9
f 44//1 45//1 43//1
f 46//2 47//2 45//2
f 48//3 49//3 47//3
f 50//4 51//4 49//4
f 52//5 53//5 51//5
f 44//6 54//6 50//6
f 54//7 55//7 53//7
f 56//8 43//8 55//8
f 45//9 49//9 53//9
f 58//1 59//1 57//1
f 60//2 61//2 59//2
f 62//3 63//3 61//3
f 64//4 65//4 63//4
f 66//5 67//5 65//5
f 58//6 68//6 64//6
f 68//7 69//7 67//7
f 70//8 57//8 69//8
f 59//9 63//9 67//9
f 72//1 73//1 71//1
f 74//2 75//2 73//2
f 76//3 77//3 75//3
f 78//4 79//4 77//4
f 80//5 81//5 79//5
f 72//6 82//6 78//6
f 82//7 83//7 81//7
f 84//8 71//8 83//8
f 73//9 77//9 81//9
f 86//10 87//10 85//10
f 88//11 89//11 87//11
f 90//12 91//12 89//12
f 92//13 93//13 91//13
f 94//14 95//14 93//14
f 96//15 97//15 95//15
f 98//16 99//16 97//16
f 100//17 101//17 99//17
f 102//18 103//18 101//18
f 104//19 105//19 103//19
f 106//9 98//9 90//9
f 106//20 107//20 105//20
f 108//21 85//21 107//21
f 91//6 99//6 107//6
f 110//22 111//22 109//22
f 111//23 114//23 113//23
f 114//24 115//24 113//24
f 115//25 118//25 117//25
f 118//26 119//26 117//26
f 119//27 122//27 121//27
f 121//28 124//28 123//28
f 124//29 125//29 123//29
f 125//30 128//30 127//30
f 128//31 129//31 127//31
f 130//32 122//32 114//32
f 129//33 132//33 131//33
f 132//34 109//34 131//34
f 115//35 123//35 131//35
f 2//1 4//1 3//1
f 4//2 6//2 5//2
f 6//3 8//3 7//3
f 8//4 10//4 9//4
f 10//5 12//5 11//5
f 6//6 4//6 2//6
f 2//6 14//6 12//6
f 12//6 10//6 8//6
f 8//6 6//6 2//6
f 12//7 14//7 13//7
f 14//8 2//8 1//8
f 13//9 1//9 3//9
f 3//9 5//9 7//9
f 7//9 9//9 11//9
f 11//9 13//9 3//9
f 16//1 18//1 17//1
f 18//2 20//2 19//2
f 20//3 22//3 21//3
f 22//4 24//4 23//4
f 24//5 26//5 25//5
f 20//6 18//6 16//6
f 16//6 28//6 26//6
f 26//6 24//6 22//6
f 22//6 20//6 16//6
f 26//7 28//7 27//7
f 28//8 16//8 15//8
f 27//9 15//9 17//9
f 17//9 19//9 21//9
f 21//9 23//9 25//9
f 25//9 27//9 17//9
f 30//1 32//1 31//1
f 32//2 34//2 33//2
f 34//3 36//3 35//3
f 36//4 38//4 37//4
f 38//5 40//5 39//5
f 34//6 32//6 30//6
f 30//6 42//6 40//6
f 40//6 38//6 36//6
f 36//6 34//6 30//6
f 40//7 42//7 41//7
f 42//8 30//8 29//8
f 41//9 29//9 31//9
f 31//9 33//9 35//9
f 35//9 37//9 39//9
f 39//9 41//9 31//9
f 44//1 46//1 45//1
f 46//2 48//2 47//2
f 48//3 50//3 49//3
f 50//4 52//4 51//4
f 52//5 54//5 53//5
f 48//6 46//6 44//6
f 44//6 56//6 54//6
f 54//6 52//6 50//6
f 50//6 48//6 44//6
f 54//7 56//7 55//7
f 56//8 44//8 43//8
f 55//9 43//9 45//9
f 45//9 47//9 49//9
f 49//9 51//9 53//9
f 53//9 55//9 45//9
f 58//1 60//1 59//1
f 60//2 62//2 61//2
f 62//3 64//3 63//3
f 64//4 66//4 65//4
f 66//5 68//5 67//5
f 62//6 60//6 58//6
f 58//6 70//6 68//6
f 68//6 66//6 64//6
f 64//6 62//6 58//6
f 68//7 70//7 69//7
f 70//8 58//8 57//8
f 69//9 57//9 59//9
f 59//9 61//9 63//9
f 63//9 65//9 67//9
f 67//9 69//9 59//9
f 72//1 74//1 73//1
f 74//2 76//2 75//2
f 76//3 78//3 77//3
f 78//4 80//4 79//4
f 80//5 82//5 81//5
f 76//6 74//6 72//6
f 72//6 84//6 82//6
f 82//6 80//6 78//6
f 78//6 76//6 72//6
f 82//7 84//7 83//7
f 84//8 72//8 71//8
f 83//9 71//9 73//9
f 73//9 75//9 77//9
f 77//9 79//9 81//9
f 81//9 83//9 73//9
f 86//10 88//10 87//10
f 88//11 90//11 89//11
f 90//12 92//12 91//12
f 92//13 94//13 93//13
f 94//14 96//14 95//14
f 96//15 98//15 97//15
f 98//16 100//16 99//16
f 100//17 102//17 101//17
f 102//18 104//18 103//18
f 104//19 106//19 105//19
f 90//9 88//9 86//9
f 86//9 108//9 106//9
f 106//9 104//9 102//9
f 102//9 100//9 98//9
f 98//9 96//9 94//9
f 94//9 92//9 90//9
f 90//9 86//9 106//9
f 106//9 102//9 98//9
f 98//9 94//9 90//9
f 106//20 108//20 107//20
f 108//21 86//21 85//21
f 107//6 85//6 87//6
f 87//6 89//6 91//6
f 91//6 93//6 95//6
f 95//6 97//6 99//6
f 99//6 101//6 103//6
f 103//6 105//6 107//6
f 107//6 87//6 91//6
f 91//6 95//6 99//6
f 99//6 103//6 107//6
f 110//22 112//22 111//22
f 111//23 112//23 114//23
f 114//24 116//24 115//24
f 115//25 116//25 118//25
f 118//26 120//26 119//26
f 119//27 120//27 122//27
f 121//28 122//28 124//28
f 124//29 126//29 125//29
f 125//30 126//30 128//30
f 128//31 130//31 129//31
f 114//32 112//32 110//32
f 110//32 132//32 130//32
f 130//36 128//36 126//36
f 126//32 124//32 122//32
f 122//32 120//32 118//32
f 118//32 116//32 114//32
f 114//32 110//32 130//32
f 130//32 126//32 122//32
f 122//32 118//32 114//32
f 129//33 130//33 132//33
f 132//34 110//34 109//34
f 131//35 109//35 111//35
f 111//37 113//37 115//37
f 115//37 117//37 119//37
f 119//35 121//35 123//35
f 123//35 125//35 127//35
f 127//35 129//35 131//35
f 131//35 111//35 115//35
f 115//35 119//35 123//35
f 123//35 127//35 131//35
