# Blender 5.2.2 LTS
# www.blender.org
mtllib fault_hydraulic_leak.mtl
o fault_hydraulic_leak
v -4.750000 1.300000 0.050000
v -4.750000 1.300000 0.800000
v -4.750000 1.304000 0.050000
v -4.750000 1.304000 0.800000
v -4.660000 1.300000 0.050000
v -4.660000 1.300000 0.800000
v -4.660000 1.304000 0.050000
v -4.660000 1.304000 0.800000
v -4.800000 1.671076 0.000500
v -4.800000 1.671076 0.003500
v -4.766460 1.681953 0.000500
v -4.766460 1.681953 0.003500
v -4.730608 1.688352 0.000500
v -4.730608 1.688352 0.003500
v -4.694129 1.688470 0.000500
v -4.694129 1.688470 0.003500
v -4.659165 1.681543 0.000500
v -4.659165 1.681543 0.003500
v -4.627700 1.667962 0.000500
v -4.627700 1.667962 0.003500
v -4.601013 1.649081 0.000500
v -4.601013 1.649081 0.003500
v -4.579395 1.626776 0.000500
v -4.579395 1.626776 0.003500
v -4.562200 1.602924 0.000500
v -4.562200 1.602924 0.003500
v -4.548205 1.578956 0.000500
v -4.548205 1.578956 0.003500
v -4.536144 1.555618 0.000500
v -4.536144 1.555618 0.003500
v -4.525210 1.532983 0.000500
v -4.525210 1.532983 0.003500
v -4.515359 1.510694 0.000500
v -4.515359 1.510694 0.003500
v -4.507295 1.488301 0.000500
v -4.507295 1.488301 0.003500
v -4.502158 1.465573 0.000500
v -4.502158 1.465573 0.003500
v -4.501018 1.442652 0.000500
v -4.501018 1.442652 0.003500
v -4.504366 1.420000 0.000500
v -4.504366 1.420000 0.003500
v -4.511800 1.398165 0.000500
v -4.511800 1.398165 0.003500
v -4.522018 1.377466 0.000500
v -4.522018 1.377466 0.003500
v -4.533164 1.357736 0.000500
v -4.533164 1.357736 0.003500
v -4.543396 1.338239 0.000500
v -4.543396 1.338239 0.003500
v -4.551521 1.317835 0.000500
v -4.551521 1.317835 0.003500
v -4.557459 1.295338 0.000500
v -4.557459 1.295338 0.003500
v -4.562388 1.269998 0.000500
v -4.562388 1.269998 0.003500
v -4.568486 1.241912 0.000500
v -4.568486 1.241912 0.003500
v -4.578349 1.212244 0.000500
v -4.578349 1.212244 0.003500
v -4.594250 1.183133 0.000500
v -4.594250 1.183133 0.003500
v -4.617464 1.157307 0.000500
v -4.617464 1.157307 0.003500
v -4.647869 1.137479 0.000500
v -4.647869 1.137479 0.003500
v -4.683944 1.125703 0.000500
v -4.683944 1.125703 0.003500
v -4.723166 1.122867 0.000500
v -4.723166 1.122867 0.003500
v -4.762674 1.128480 0.000500
v -4.762674 1.128480 0.003500
v -4.800000 1.140815 0.000500
v -4.800000 1.140815 0.003500
v -4.833629 1.157355 0.000500
v -4.833629 1.157355 0.003500
v -4.863242 1.175432 0.000500
v -4.863242 1.175432 0.003500
v -4.889576 1.192853 0.000500
v -4.889576 1.192853 0.003500
v -4.913969 1.208350 0.000500
v -4.913969 1.208350 0.003500
v -4.937768 1.221734 0.000500
v -4.937768 1.221734 0.003500
v -4.961799 1.233732 0.000500
v -4.961799 1.233732 0.003500
v -4.986074 1.245591 0.000500
v -4.986074 1.245591 0.003500
v -5.009835 1.258589 0.000500
v -5.009835 1.258589 0.003500
v -5.031879 1.273617 0.000500
v -5.031879 1.273617 0.003500
v -5.051063 1.290958 0.000500
v -5.051063 1.290958 0.003500
v -5.066756 1.310320 0.000500
v -5.066756 1.310320 0.003500
v -5.079108 1.331069 0.000500
v -5.079108 1.331069 0.003500
v -5.088994 1.352565 0.000500
v -5.088994 1.352565 0.003500
v -5.097660 1.374455 0.000500
v -5.097660 1.374455 0.003500
v -5.106199 1.396802 0.000500
v -5.106199 1.396802 0.003500
v -5.115026 1.420000 0.000500
v -5.115026 1.420000 0.003500
v -5.123562 1.444514 0.000500
v -5.123562 1.444514 0.003500
v -5.130243 1.470530 0.000500
v -5.130243 1.470530 0.003500
v -5.132885 1.497676 0.000500
v -5.132885 1.497676 0.003500
v -5.129290 1.524920 0.000500
v -5.129290 1.524920 0.003500
v -5.117922 1.550718 0.000500
v -5.117922 1.550718 0.003500
v -5.098416 1.573381 0.000500
v -5.098416 1.573381 0.003500
v -5.071762 1.591561 0.000500
v -5.071762 1.591561 0.003500
v -5.040090 1.604684 0.000500
v -5.040090 1.604684 0.003500
v -5.006118 1.613197 0.000500
v -5.006118 1.613197 0.003500
v -4.972434 1.618511 0.000500
v -4.972434 1.618511 0.003500
v -4.940818 1.622655 0.000500
v -4.940818 1.622655 0.003500
v -4.911845 1.627705 0.000500
v -4.911845 1.627705 0.003500
v -4.884858 1.635182 0.000500
v -4.884858 1.635182 0.003500
v -4.858330 1.645573 0.000500
v -4.858330 1.645573 0.003500
v -4.830492 1.658141 0.000500
v -4.830492 1.658141 0.003500
vn -1.0000 -0.0000 -0.0000
vn -0.0000 1.0000 -0.0000
vn 1.0000 -0.0000 -0.0000
vn -0.0000 -1.0000 -0.0000
vn -0.0000 -0.0000 -1.0000
vn -0.0000 -0.0000 1.0000
vn -0.3085 0.9512 -0.0000
vn -0.1757 0.9844 -0.0000
vn -0.0032 1.0000 -0.0000
vn 0.1944 0.9809 -0.0000
vn 0.3963 0.9181 -0.0000
vn 0.5776 0.8163 -0.0000
vn 0.7181 0.6960 -0.0000
vn 0.8112 0.5848 -0.0000
vn 0.8636 0.5042 -0.0000
vn 0.8884 0.4591 -0.0000
vn 0.9004 0.4350 -0.0000
vn 0.9146 0.4043 -0.0000
vn 0.9409 0.3388 -0.0000
vn 0.9754 0.2205 -0.0000
vn 0.9988 0.0497 -0.0000
vn 0.9892 -0.1462 -0.0000
vn 0.9466 -0.3223 -0.0000
vn 0.8967 -0.4427 -0.0000
vn 0.8707 -0.4919 -0.0000
vn 0.8855 -0.4647 -0.0000
vn 0.9291 -0.3699 -0.0000
vn 0.9669 -0.2552 -0.0000
vn 0.9816 -0.1909 -0.0000
vn 0.9772 -0.2122 -0.0000
vn 0.9489 -0.3155 -0.0000
vn 0.8776 -0.4794 -0.0000
vn 0.7437 -0.6685 -0.0000
vn 0.5462 -0.8376 -0.0000
vn 0.3103 -0.9506 -0.0000
vn 0.0721 -0.9974 -0.0000
vn -0.1407 -0.9901 -0.0000
vn -0.3138 -0.9495 -0.0000
vn -0.4413 -0.8973 -0.0000
vn -0.5210 -0.8535 -0.0000
vn -0.5517 -0.8340 -0.0000
vn -0.5362 -0.8441 -0.0000
vn -0.4902 -0.8716 -0.0000
vn -0.4467 -0.8947 -0.0000
vn -0.4389 -0.8985 -0.0000
vn -0.4799 -0.8773 -0.0000
vn -0.5633 -0.8263 -0.0000
vn -0.6706 -0.7418 -0.0000
vn -0.7769 -0.6297 -0.0000
vn -0.8593 -0.5115 -0.0000
vn -0.9085 -0.4178 -0.0000
vn -0.9298 -0.3681 -0.0000
vn -0.9341 -0.3569 -0.0000
vn -0.9346 -0.3556 -0.0000
vn -0.9444 -0.3288 -0.0000
vn -0.9686 -0.2487 -0.0000
vn -0.9953 -0.0968 -0.0000
vn -0.9914 0.1308 -0.0000
vn -0.9151 0.4032 -0.0000
vn -0.7579 0.6523 -0.0000
vn -0.5635 0.8261 -0.0000
vn -0.3828 0.9238 -0.0000
vn -0.2431 0.9700 -0.0000
vn -0.1558 0.9878 -0.0000
vn -0.1299 0.9915 -0.0000
vn -0.1717 0.9851 -0.0000
vn -0.2670 0.9637 -0.0000
vn -0.3647 0.9311 -0.0000
vn -0.4115 0.9114 -0.0000
vn -0.3905 0.9206 -0.0000
vn 0.9005 0.4350 -0.0000
vn 0.8707 -0.4918 -0.0000
vn -0.8593 -0.5116 -0.0000
vn -0.0001 -0.0000 1.0000
vn -0.0003 -0.0000 1.0000
vn 0.0001 -0.0000 -1.0000
vn -0.0001 -0.0000 -1.0000
s 0
usemtl hydraulic_oil
f 2//1 3//1 1//1
f 4//2 7//2 3//2
f 8//3 5//3 7//3
f 6//4 1//4 5//4
f 7//5 1//5 3//5
f 4//6 6//6 8//6
f 10//7 11//7 9//7
f 12//8 13//8 11//8
f 14//9 15//9 13//9
f 16//10 17//10 15//10
f 18//11 19//11 17//11
f 20//12 21//12 19//12
f 22//13 23//13 21//13
f 24//14 25//14 23//14
f 26//15 27//15 25//15
f 28//16 29//16 27//16
f 30//17 31//17 29//17
f 32//18 33//18 31//18
f 34//19 35//19 33//19
f 36//20 37//20 35//20
f 38//21 39//21 37//21
f 40//22 41//22 39//22
f 42//23 43//23 41//23
f 44//24 45//24 43//24
f 46//25 47//25 45//25
f 48//26 49//26 47//26
f 50//27 51//27 49//27
f 52//28 53//28 51//28
f 54//29 55//29 53//29
f 56//30 57//30 55//30
f 58//31 59//31 57//31
f 60//32 61//32 59//32
f 62//33 63//33 61//33
f 64//34 65//34 63//34
f 66//35 67//35 65//35
f 68//36 69//36 67//36
f 70//37 71//37 69//37
f 72//38 73//38 71//38
f 74//39 75//39 73//39
f 76//40 77//40 75//40
f 78//41 79//41 77//41
f 80//42 81//42 79//42
f 82//43 83//43 81//43
f 84//44 85//44 83//44
f 86//45 87//45 85//45
f 88//46 89//46 87//46
f 90//47 91//47 89//47
f 92//48 93//48 91//48
f 94//49 95//49 93//49
f 96//50 97//50 95//50
f 98//51 99//51 97//51
f 100//52 101//52 99//52
f 102//53 103//53 101//53
f 104//54 105//54 103//54
f 106//55 107//55 105//55
f 108//56 109//56 107//56
f 110//57 111//57 109//57
f 112//58 113//58 111//58
f 114//59 115//59 113//59
f 116//60 117//60 115//60
f 118//61 119//61 117//61
f 120//62 121//62 119//62
f 122//63 123//63 121//63
f 124//64 125//64 123//64
f 126//65 127//65 125//65
f 128//66 129//66 127//66
f 130//67 131//67 129//67
f 132//68 133//68 131//68
f 108//6 82//6 58//6
f 134//69 135//69 133//69
f 136//70 9//70 135//70
f 57//5 97//5 113//5
f 2//1 4//1 3//1
f 4//2 8//2 7//2
f 8//3 6//3 5//3
f 6//4 2//4 1//4
f 7//5 5//5 1//5
f 4//6 2//6 6//6
f 10//7 12//7 11//7
f 12//8 14//8 13//8
f 14//9 16//9 15//9
f 16//10 18//10 17//10
f 18//11 20//11 19//11
f 20//12 22//12 21//12
f 22//13 24//13 23//13
f 24//14 26//14 25//14
f 26//15 28//15 27//15
f 28//16 30//16 29//16
f 30//71 32//71 31//71
f 32//18 34//18 33//18
f 34//19 36//19 35//19
f 36//20 38//20 37//20
f 38//21 40//21 39//21
f 40//22 42//22 41//22
f 42//23 44//23 43//23
f 44//24 46//24 45//24
f 46//72 48//72 47//72
f 48//26 50//26 49//26
f 50//27 52//27 51//27
f 52//28 54//28 53//28
f 54//29 56//29 55//29
f 56//30 58//30 57//30
f 58//31 60//31 59//31
f 60//32 62//32 61//32
f 62//33 64//33 63//33
f 64//34 66//34 65//34
f 66//35 68//35 67//35
f 68//36 70//36 69//36
f 70//37 72//37 71//37
f 72//38 74//38 73//38
f 74//39 76//39 75//39
f 76//40 78//40 77//40
f 78//41 80//41 79//41
f 80//42 82//42 81//42
f 82//43 84//43 83//43
f 84//44 86//44 85//44
f 86//45 88//45 87//45
f 88//46 90//46 89//46
f 90//47 92//47 91//47
f 92//48 94//48 93//48
f 94//49 96//49 95//49
f 96//73 98//73 97//73
f 98//51 100//51 99//51
f 100//52 102//52 101//52
f 102//53 104//53 103//53
f 104//54 106//54 105//54
f 106//55 108//55 107//55
f 108//56 110//56 109//56
f 110//57 112//57 111//57
f 112//58 114//58 113//58
f 114//59 116//59 115//59
f 116//60 118//60 117//60
f 118//61 120//61 119//61
f 120//62 122//62 121//62
f 122//63 124//63 123//63
f 124//64 126//64 125//64
f 126//65 128//65 127//65
f 128//66 130//66 129//66
f 130//67 132//67 131//67
f 132//68 134//68 133//68
f 14//6 12//6 10//6
f 10//6 136//6 134//6
f 14//6 10//6 134//6
f 18//6 16//6 14//6
f 22//6 20//6 18//6
f 26//6 24//6 22//6
f 30//6 28//6 26//6
f 34//6 32//6 30//6
f 38//6 36//6 34//6
f 42//6 40//6 38//6
f 46//6 44//6 42//6
f 48//6 46//6 42//6
f 42//6 38//6 34//6
f 34//6 30//6 26//6
f 26//6 22//6 18//6
f 18//6 14//6 134//6
f 18//6 134//6 132//6
f 34//6 26//6 18//6
f 48//6 42//6 34//6
f 50//6 48//6 34//6
f 34//6 18//6 132//6
f 34//6 132//6 130//6
f 52//6 50//6 34//6
f 58//6 56//6 54//6
f 54//6 52//6 34//6
f 34//6 130//6 128//6
f 128//6 126//6 124//6
f 124//6 122//6 120//6
f 120//6 118//6 116//6
f 116//6 114//6 112//6
f 112//6 110//6 108//6
f 108//74 106//74 104//74
f 104//75 102//75 100//75
f 100//6 98//6 96//6
f 96//6 94//6 92//6
f 92//6 90//6 88//6
f 92//6 88//6 86//6
f 100//6 96//6 92//6
f 108//6 104//6 100//6
f 116//6 112//6 108//6
f 124//6 120//6 116//6
f 34//6 128//6 124//6
f 58//74 54//74 34//74
f 62//6 60//6 58//6
f 66//6 64//6 62//6
f 70//6 68//6 66//6
f 74//6 72//6 70//6
f 78//6 76//6 74//6
f 80//6 78//6 74//6
f 74//6 70//6 66//6
f 66//6 62//6 58//6
f 58//6 34//6 124//6
f 124//6 116//6 108//6
f 108//6 100//6 92//6
f 92//6 86//6 84//6
f 82//6 80//6 74//6
f 108//6 92//6 84//6
f 82//6 74//6 66//6
f 108//6 84//6 82//6
f 58//6 124//6 108//6
f 82//6 66//6 58//6
f 134//69 136//69 135//69
f 136//70 10//70 9//70
f 135//5 9//5 11//5
f 11//5 13//5 15//5
f 15//5 17//5 19//5
f 19//5 21//5 23//5
f 23//5 25//5 27//5
f 27//76 29//76 31//76
f 31//5 33//5 35//5
f 35//5 37//5 39//5
f 39//5 41//5 43//5
f 43//5 45//5 47//5
f 39//5 43//5 47//5
f 31//5 35//5 39//5
f 23//5 27//5 31//5
f 15//5 19//5 23//5
f 135//5 11//5 15//5
f 133//5 135//5 15//5
f 15//5 23//5 31//5
f 31//5 39//5 47//5
f 31//5 47//5 49//5
f 133//5 15//5 31//5
f 131//5 133//5 31//5
f 31//5 49//5 51//5
f 53//77 55//77 57//77
f 31//5 51//5 53//5
f 129//5 131//5 31//5
f 123//5 125//5 127//5
f 127//5 129//5 31//5
f 31//5 53//5 57//5
f 57//5 59//5 61//5
f 61//5 63//5 65//5
f 65//5 67//5 69//5
f 69//5 71//5 73//5
f 73//5 75//5 77//5
f 73//5 77//5 79//5
f 65//5 69//5 73//5
f 57//5 61//5 65//5
f 127//5 31//5 57//5
f 121//5 123//5 127//5
f 117//5 119//5 121//5
f 113//5 115//5 117//5
f 109//5 111//5 113//5
f 105//5 107//5 109//5
f 101//5 103//5 105//5
f 97//5 99//5 101//5
f 93//5 95//5 97//5
f 89//5 91//5 93//5
f 85//5 87//5 89//5
f 83//5 85//5 89//5
f 89//5 93//5 97//5
f 97//5 101//5 105//5
f 105//5 109//5 113//5
f 113//5 117//5 121//5
f 121//5 127//5 57//5
f 57//5 65//5 73//5
f 73//5 79//5 81//5
f 83//5 89//5 97//5
f 57//5 73//5 81//5
f 81//5 83//5 97//5
f 97//5 105//5 113//5
f 113//5 121//5 57//5
f 57//5 81//5 97//5
