# Blender 5.2.2 LTS
# www.blender.org
mtllib fault_lightning.mtl
o fault_lightning
v 1.976875 0.042169 60.165627
v 1.976852 0.055809 60.165627
v 1.977087 0.069618 60.165627
v 1.977728 0.083223 60.165627
v 1.978368 0.096828 60.165627
v 1.979531 0.110559 60.165630
v 1.980770 0.124133 60.165630
v 1.982149 0.137820 60.165634
v 1.983847 0.151370 60.165634
v 1.990180 0.023151 60.247795
v 1.989844 0.041278 60.247799
v 1.989828 0.059202 60.247799
v 1.990494 0.077274 60.247803
v 1.991349 0.095152 60.247803
v 1.992917 0.113145 60.247807
v 1.994558 0.130982 60.247807
v 1.996798 0.148907 60.247807
v 1.999065 0.166817 60.247810
v 2.003928 0.005350 60.329971
v 2.002925 0.027347 60.329971
v 2.002811 0.049483 60.329971
v 2.003264 0.071585 60.329975
v 2.004327 0.093471 60.329975
v 2.006281 0.115463 60.329979
v 2.008597 0.137403 60.329983
v 2.011362 0.159198 60.329983
v 2.014634 0.181072 60.329983
v 2.018013 -0.011289 60.412144
v 2.016437 0.014593 60.412144
v 2.015780 0.040439 60.412148
v 2.016042 0.066232 60.412151
v 2.017303 0.091787 60.412151
v 2.019618 0.117438 60.412151
v 2.022565 0.143022 60.412155
v 2.026058 0.168562 60.412159
v 2.030015 0.193970 60.412159
v 2.032217 -0.026147 60.494316
v 2.029875 0.003054 60.494320
v 2.028736 0.032202 60.494320
v 2.028832 0.061279 60.494324
v 2.030276 0.090099 60.494324
v 2.032919 0.119005 60.494328
v 2.036438 0.147831 60.494328
v 2.040679 0.176602 60.494331
v 2.045580 0.205319 60.494335
v 2.046655 -0.039348 60.576488
v 2.043511 -0.007295 60.576488
v 2.041859 0.024685 60.576492
v 2.041749 0.056592 60.576496
v 2.043246 0.088407 60.576496
v 2.046180 0.120111 60.576500
v 2.050201 0.151722 60.576504
v 2.055098 0.183269 60.576508
v 2.060815 0.214752 60.576508
v 2.060975 -0.050377 60.658661
v 2.057170 -0.015971 60.658665
v 2.055066 0.018350 60.658665
v 2.054717 0.052584 60.658669
v 2.056214 0.086711 60.658672
v 2.059450 0.120829 60.658676
v 2.063959 0.154708 60.658680
v 2.069461 0.188512 60.658684
v 2.075855 0.222245 60.658684
v 2.075247 -0.059430 60.740833
v 2.070681 -0.023041 60.740837
v 2.068218 0.013081 60.740841
v 2.067680 0.049106 60.740841
v 2.069179 0.085011 60.740845
v 2.072698 0.120890 60.740849
v 2.077601 0.156522 60.740852
v 2.083607 0.192073 60.740856
v 2.090542 0.227550 60.740860
v 2.089328 -0.066111 60.823009
v 2.084119 -0.028616 60.823009
v 2.081316 0.008917 60.823013
v 2.080641 0.046177 60.823017
v 2.082142 0.083307 60.823017
v 2.085874 0.120398 60.823025
v 2.091071 0.157236 60.823029
v 2.097452 0.193987 60.823029
v 2.104787 0.230662 60.823032
v 2.103026 -0.070537 60.905182
v 2.097520 -0.032353 60.905182
v 2.094363 0.005870 60.905190
v 2.093600 0.043803 60.905190
v 2.095101 0.081599 60.905193
v 2.098976 0.119347 60.905197
v 2.104365 0.156837 60.905201
v 2.110989 0.194236 60.905205
v 2.118608 0.231618 60.905209
v 2.116351 -0.072731 60.987354
v 2.110710 -0.034421 60.987358
v 2.107362 0.003929 60.987362
v 2.106559 0.041979 60.987366
v 2.108059 0.079888 60.987366
v 2.112002 0.117742 60.987373
v 2.117481 0.155336 60.987373
v 2.124217 0.192837 60.987377
v 2.132012 0.230316 60.987385
v 2.129414 -0.072918 61.069546
v 2.123701 -0.034869 61.069546
v 2.120318 0.003062 61.069550
v 2.119521 0.040688 61.069553
v 2.121016 0.078173 61.069557
v 2.124958 0.115600 61.069561
v 2.130424 0.152766 61.069565
v 2.137143 0.189840 61.069569
v 2.144940 0.226889 61.069572
v 2.142692 -0.070698 61.151749
v 2.137165 -0.033682 61.151752
v 2.133904 0.003217 61.151756
v 2.133157 0.039814 61.151760
v 2.134640 0.076272 61.151760
v 2.138504 0.112674 61.151768
v 2.143849 0.148817 61.151772
v 2.150412 0.184868 61.151775
v 2.158024 0.220896 61.151779
v 2.156219 -0.066237 61.233940
v 2.151114 -0.030986 61.233940
v 2.148118 0.004312 61.233944
v 2.147463 0.039315 61.233948
v 2.148926 0.074185 61.233952
v 2.152637 0.109005 61.233959
v 2.157758 0.143570 61.233959
v 2.164036 0.178045 61.233963
v 2.171288 0.212501 61.233971
v 2.169572 -0.060262 61.316113
v 2.164916 -0.027038 61.316116
v 2.162301 0.006234 61.316120
v 2.161769 0.039227 61.316124
v 2.163205 0.072093 61.316124
v 2.166706 0.104920 61.316132
v 2.171521 0.137496 61.316135
v 2.177409 0.169987 61.316139
v 2.184163 0.202465 61.316147
v 2.182704 -0.052854 61.398289
v 2.178596 -0.022020 61.398289
v 2.176463 0.008864 61.398293
v 2.176078 0.039489 61.398296
v 2.177481 0.069997 61.398300
v 2.180719 0.100478 61.398304
v 2.185157 0.130715 61.398308
v 2.190566 0.160873 61.398312
v 2.196756 0.190959 61.398315
v 2.195663 -0.044276 61.480461
v 2.192318 -0.015977 61.480465
v 2.190608 0.012071 61.480469
v 2.190391 0.040035 61.480469
v 2.191753 0.067895 61.480473
v 2.194686 0.095744 61.480480
v 2.198687 0.123356 61.480480
v 2.203542 0.150895 61.480484
v 2.209116 0.178367 61.480488
v 2.208631 -0.034660 61.562637
v 2.206065 -0.009437 61.562637
v 2.204743 0.015716 61.562641
v 2.204707 0.040798 61.562645
v 2.206022 0.065789 61.562645
v 2.208614 0.090786 61.562653
v 2.212131 0.115556 61.562656
v 2.216374 0.140260 61.562660
v 2.221268 0.164900 61.562660
v 2.221731 -0.024609 61.644810
v 2.219788 -0.002446 61.644814
v 2.218875 0.019658 61.644814
v 2.219026 0.041706 61.644817
v 2.220287 0.063677 61.644821
v 2.222539 0.085553 61.644825
v 2.225539 0.107346 61.644825
v 2.229143 0.129085 61.644829
v 2.233312 0.150769 61.644833
v 2.234910 -0.014084 61.726986
v 2.233613 0.004945 61.726990
v 2.233100 0.023935 61.726990
v 2.233390 0.042868 61.726994
v 2.234549 0.061561 61.726994
v 2.236493 0.080353 61.726997
v 2.239005 0.099075 61.727001
v 2.241985 0.117750 61.727001
v 2.245393 0.136379 61.727005
v 2.248390 -0.003700 61.809162
v 2.247639 0.012180 61.809162
v 2.247451 0.028035 61.809166
v 2.247827 0.043849 61.809170
v 2.248807 0.059439 61.809170
v 2.250437 0.075138 61.809170
v 2.252454 0.090778 61.809174
v 2.254802 0.106381 61.809177
v 2.257427 0.121859 61.809177
v 2.262067 0.006621 61.891338
v 2.261681 0.019245 61.891338
v 2.261808 0.032020 61.891338
v 2.262263 0.044770 61.891342
v 2.263062 0.057313 61.891342
v 2.264379 0.069973 61.891346
v 2.265904 0.082586 61.891346
v 2.267678 0.095062 61.891346
v 2.269750 0.107623 61.891350
v 2.276033 0.016283 61.973511
v 2.276016 0.026124 61.973515
v 2.276167 0.035768 61.973515
v 2.276693 0.045569 61.973515
v 2.277313 0.055181 61.973515
v 2.278325 0.064918 61.973518
v 2.279367 0.074501 61.973518
v 2.280741 0.084180 61.973522
v 2.282129 0.093844 61.973522
v 2.290300 0.025422 62.055687
v 2.290414 0.032296 62.055687
v 2.290665 0.039343 62.055691
v 2.291113 0.046194 62.055691
v 2.291560 0.053045 62.055691
v 2.292281 0.060029 62.055691
v 2.293030 0.066858 62.055691
v 2.293859 0.073803 62.055695
v 2.294839 0.080616 62.055695
vn 0.9876 0.0183 -0.1557
vn 0.9878 0.0009 -0.1560
vn 0.9868 -0.0363 -0.1576
vn 0.9865 -0.0472 -0.1567
vn 0.9841 -0.0833 -0.1571
vn 0.9835 -0.0898 -0.1574
vn 0.9827 -0.0990 -0.1566
vn 0.9798 -0.1228 -0.1581
vn 0.9868 0.0450 -0.1554
vn 0.9877 0.0051 -0.1564
vn 0.9872 -0.0202 -0.1584
vn 0.9865 -0.0479 -0.1566
vn 0.9839 -0.0857 -0.1571
vn 0.9834 -0.0905 -0.1574
vn 0.9798 -0.1224 -0.1578
vn 0.9796 -0.1240 -0.1581
vn 0.9858 0.0600 -0.1568
vn 0.9871 0.0251 -0.1584
vn 0.9876 -0.0100 -0.1570
vn 0.9865 -0.0487 -0.1566
vn 0.9837 -0.0874 -0.1571
vn 0.9822 -0.1036 -0.1569
vn 0.9796 -0.1243 -0.1580
vn 0.9766 -0.1461 -0.1580
vn 0.9846 0.0790 -0.1559
vn 0.9870 0.0386 -0.1560
vn 0.9877 -0.0032 -0.1560
vn 0.9864 -0.0494 -0.1565
vn 0.9836 -0.0888 -0.1571
vn 0.9812 -0.1130 -0.1567
vn 0.9784 -0.1338 -0.1574
vn 0.9756 -0.1519 -0.1587
vn 0.9829 0.0964 -0.1572
vn 0.9862 0.0510 -0.1572
vn 0.9875 0.0034 -0.1574
vn 0.9864 -0.0464 -0.1577
vn 0.9835 -0.0899 -0.1571
vn 0.9804 -0.1197 -0.1566
vn 0.9771 -0.1440 -0.1568
vn 0.9735 -0.1661 -0.1573
vn 0.9817 0.1085 -0.1565
vn 0.9857 0.0604 -0.1575
vn 0.9874 0.0101 -0.1579
vn 0.9865 -0.0433 -0.1578
vn 0.9834 -0.0910 -0.1571
vn 0.9797 -0.1246 -0.1571
vn 0.9758 -0.1515 -0.1579
vn 0.9715 -0.1764 -0.1585
vn 0.9800 0.1230 -0.1567
vn 0.9854 0.0672 -0.1562
vn 0.9875 0.0147 -0.1571
vn 0.9867 -0.0412 -0.1574
vn 0.9832 -0.0932 -0.1571
vn 0.9789 -0.1303 -0.1577
vn 0.9746 -0.1586 -0.1583
vn 0.9700 -0.1839 -0.1590
vn 0.9783 0.1359 -0.1566
vn 0.9850 0.0736 -0.1561
vn 0.9875 0.0179 -0.1565
vn 0.9868 -0.0399 -0.1571
vn 0.9829 -0.0964 -0.1570
vn 0.9783 -0.1346 -0.1577
vn 0.9736 -0.1645 -0.1581
vn 0.9690 -0.1894 -0.1589
vn 0.9777 0.1410 -0.1554
vn 0.9843 0.0813 -0.1568
vn 0.9876 0.0199 -0.1560
vn 0.9869 -0.0392 -0.1568
vn 0.9824 -0.1008 -0.1570
vn 0.9778 -0.1380 -0.1577
vn 0.9728 -0.1689 -0.1582
vn 0.9681 -0.1936 -0.1589
vn 0.9774 0.1439 -0.1547
vn 0.9840 0.0859 -0.1558
vn 0.9876 0.0209 -0.1557
vn 0.9869 -0.0391 -0.1565
vn 0.9823 -0.1023 -0.1570
vn 0.9774 -0.1405 -0.1577
vn 0.9723 -0.1722 -0.1583
vn 0.9674 -0.1971 -0.1591
vn 0.9770 0.1467 -0.1549
vn 0.9840 0.0878 -0.1550
vn 0.9876 0.0209 -0.1555
vn 0.9869 -0.0393 -0.1563
vn 0.9822 -0.1034 -0.1570
vn 0.9770 -0.1437 -0.1577
vn 0.9715 -0.1761 -0.1585
vn 0.9661 -0.2033 -0.1593
vn 0.9760 0.1458 -0.1616
vn 0.9829 0.0869 -0.1622
vn 0.9864 0.0201 -0.1631
vn 0.9857 -0.0401 -0.1639
vn 0.9808 -0.1041 -0.1650
vn 0.9755 -0.1442 -0.1659
vn 0.9700 -0.1766 -0.1669
vn 0.9645 -0.2037 -0.1680
vn 0.9749 0.1456 -0.1683
vn 0.9817 0.0868 -0.1695
vn 0.9851 0.0201 -0.1706
vn 0.9843 -0.0413 -0.1716
vn 0.9794 -0.1044 -0.1729
vn 0.9741 -0.1443 -0.1739
vn 0.9686 -0.1763 -0.1752
vn 0.9632 -0.2027 -0.1765
vn 0.9755 0.1413 -0.1688
vn 0.9821 0.0834 -0.1689
vn 0.9852 0.0184 -0.1705
vn 0.9843 -0.0430 -0.1714
vn 0.9742 -0.1440 -0.1740
vn 0.9688 -0.1755 -0.1752
vn 0.9637 -0.2004 -0.1765
vn 0.9762 0.1368 -0.1684
vn 0.9827 0.0772 -0.1683
vn 0.9853 0.0159 -0.1703
vn 0.9842 -0.0452 -0.1712
vn 0.9794 -0.1041 -0.1728
vn 0.9743 -0.1430 -0.1739
vn 0.9691 -0.1738 -0.1752
vn 0.9641 -0.1983 -0.1764
vn 0.9772 0.1302 -0.1677
vn 0.9832 0.0680 -0.1692
vn 0.9854 0.0124 -0.1701
vn 0.9841 -0.0481 -0.1711
vn 0.9795 -0.1031 -0.1728
vn 0.9746 -0.1412 -0.1738
vn 0.9696 -0.1709 -0.1749
vn 0.9647 -0.1957 -0.1761
vn 0.9790 0.1157 -0.1680
vn 0.9837 0.0600 -0.1694
vn 0.9854 0.0077 -0.1699
vn 0.9841 -0.0481 -0.1710
vn 0.9797 -0.1016 -0.1727
vn 0.9750 -0.1384 -0.1736
vn 0.9704 -0.1666 -0.1746
vn 0.9656 -0.1918 -0.1756
vn 0.9806 0.0998 -0.1686
vn 0.9843 0.0517 -0.1688
vn 0.9855 0.0015 -0.1696
vn 0.9839 -0.0518 -0.1709
vn 0.9798 -0.1008 -0.1727
vn 0.9756 -0.1343 -0.1739
vn 0.9714 -0.1610 -0.1746
vn 0.9668 -0.1858 -0.1755
vn 0.9819 0.0861 -0.1685
vn 0.9847 0.0407 -0.1693
vn 0.9854 -0.0067 -0.1702
vn 0.9836 -0.0564 -0.1712
vn 0.9798 -0.1013 -0.1727
vn 0.9760 -0.1309 -0.1740
vn 0.9723 -0.1552 -0.1749
vn 0.9684 -0.1771 -0.1758
vn 0.9832 0.0670 -0.1697
vn 0.9850 0.0266 -0.1705
vn 0.9851 -0.0151 -0.1713
vn 0.9832 -0.0609 -0.1720
vn 0.9797 -0.1018 -0.1726
vn 0.9767 -0.1258 -0.1737
vn 0.9738 -0.1465 -0.1742
vn 0.9709 -0.1646 -0.1742
vn 0.9844 0.0466 -0.1697
vn 0.9855 0.0117 -0.1694
vn 0.9850 -0.0234 -0.1710
vn 0.9832 -0.0618 -0.1720
vn 0.9797 -0.1019 -0.1726
vn 0.9777 -0.1182 -0.1733
vn 0.9751 -0.1386 -0.1734
vn 0.9716 -0.1603 -0.1743
vn 0.9848 0.0301 -0.1709
vn 0.9852 -0.0098 -0.1710
vn 0.9847 -0.0351 -0.1705
vn 0.9831 -0.0626 -0.1720
vn 0.9792 -0.1066 -0.1727
vn 0.9751 -0.1383 -0.1734
vn 0.9748 -0.1401 -0.1735
vn 0.9852 0.0017 -0.1712
vn 0.9851 -0.0154 -0.1714
vn 0.9838 -0.0528 -0.1713
vn 0.9831 -0.0634 -0.1720
vn 0.9798 -0.1011 -0.1725
vn 0.9791 -0.1074 -0.1727
vn 0.9779 -0.1166 -0.1734
vn 0.9748 -0.1403 -0.1733
vn 0.9878 0.0017 -0.1559
vn 0.9877 -0.0169 -0.1553
vn 0.9866 -0.0464 -0.1566
vn 0.9865 -0.0464 -0.1568
vn 0.9838 -0.0857 -0.1576
vn 0.9834 -0.0905 -0.1575
vn 0.9798 -0.1224 -0.1581
vn 0.9879 0.0183 -0.1541
vn 0.9871 -0.0363 -0.1559
vn 0.9865 -0.0471 -0.1568
vn 0.9836 -0.0874 -0.1575
vn 0.9817 -0.1036 -0.1596
vn 0.9796 -0.1243 -0.1581
vn 0.9763 -0.1460 -0.1596
vn 0.9868 0.0450 -0.1553
vn 0.9878 0.0051 -0.1553
vn 0.9877 -0.0202 -0.1549
vn 0.9865 -0.0479 -0.1567
vn 0.9835 -0.0888 -0.1575
vn 0.9808 -0.1130 -0.1590
vn 0.9781 -0.1337 -0.1597
vn 0.9864 0.0600 -0.1529
vn 0.9879 0.0251 -0.1532
vn 0.9880 -0.0100 -0.1544
vn 0.9864 -0.0487 -0.1567
vn 0.9834 -0.0899 -0.1575
vn 0.9801 -0.1197 -0.1585
vn 0.9766 -0.1439 -0.1597
vn 0.9728 -0.1660 -0.1614
vn 0.9850 0.0790 -0.1535
vn 0.9873 0.0386 -0.1541
vn 0.9878 -0.0032 -0.1555
vn 0.9864 -0.0494 -0.1567
vn 0.9833 -0.0910 -0.1575
vn 0.9795 -0.1246 -0.1582
vn 0.9756 -0.1514 -0.1589
vn 0.9713 -0.1764 -0.1598
vn 0.9835 0.0965 -0.1533
vn 0.9866 0.0510 -0.1547
vn 0.9878 0.0034 -0.1557
vn 0.9830 -0.0932 -0.1579
vn 0.9786 -0.1302 -0.1591
vn 0.9743 -0.1586 -0.1602
vn 0.9697 -0.1838 -0.1607
vn 0.9824 0.1087 -0.1522
vn 0.9862 0.0605 -0.1540
vn 0.9878 0.0101 -0.1554
vn 0.9867 -0.0433 -0.1566
vn 0.9827 -0.0964 -0.1584
vn 0.9780 -0.1346 -0.1594
vn 0.9733 -0.1644 -0.1604
vn 0.9686 -0.1893 -0.1609
vn 0.9807 0.1231 -0.1520
vn 0.9858 0.0672 -0.1537
vn 0.9878 0.0147 -0.1553
vn 0.9868 -0.0412 -0.1565
vn 0.9825 -0.0988 -0.1581
vn 0.9776 -0.1379 -0.1590
vn 0.9726 -0.1689 -0.1599
vn 0.9679 -0.1935 -0.1605
vn 0.9788 0.1359 -0.1534
vn 0.9854 0.0736 -0.1537
vn 0.9877 0.0179 -0.1552
vn 0.9869 -0.0399 -0.1565
vn 0.9825 -0.0988 -0.1579
vn 0.9773 -0.1405 -0.1588
vn 0.9721 -0.1722 -0.1596
vn 0.9672 -0.1972 -0.1604
vn 0.9780 0.1410 -0.1534
vn 0.9847 0.0813 -0.1538
vn 0.9877 0.0199 -0.1553
vn 0.9869 -0.0392 -0.1564
vn 0.9823 -0.1008 -0.1577
vn 0.9770 -0.1424 -0.1585
vn 0.9717 -0.1745 -0.1594
vn 0.9663 -0.2010 -0.1608
vn 0.9776 0.1440 -0.1537
vn 0.9843 0.0859 -0.1542
vn 0.9876 0.0209 -0.1554
vn 0.9869 -0.0390 -0.1564
vn 0.9822 -0.1023 -0.1575
vn 0.9771 -0.1424 -0.1583
vn 0.9717 -0.1745 -0.1592
vn 0.9664 -0.2010 -0.1604
vn 0.9759 0.1465 -0.1620
vn 0.9828 0.0877 -0.1626
vn 0.9863 0.0209 -0.1634
vn 0.9856 -0.0393 -0.1643
vn 0.9808 -0.1033 -0.1653
vn 0.9756 -0.1435 -0.1662
vn 0.9701 -0.1758 -0.1672
vn 0.9646 -0.2030 -0.1683
vn 0.9752 0.1412 -0.1702
vn 0.9818 0.0834 -0.1709
vn 0.9850 0.0185 -0.1714
vn 0.9843 -0.0400 -0.1721
vn 0.9794 -0.1039 -0.1731
vn 0.9741 -0.1440 -0.1741
vn 0.9631 -0.2035 -0.1762
vn 0.9758 0.1368 -0.1704
vn 0.9822 0.0772 -0.1713
vn 0.9851 0.0159 -0.1715
vn 0.9842 -0.0413 -0.1721
vn 0.9741 -0.1443 -0.1738
vn 0.9687 -0.1764 -0.1749
vn 0.9633 -0.2027 -0.1757
vn 0.9767 0.1301 -0.1706
vn 0.9828 0.0679 -0.1716
vn 0.9851 0.0124 -0.1716
vn 0.9841 -0.0430 -0.1721
vn 0.9794 -0.1044 -0.1727
vn 0.9742 -0.1440 -0.1735
vn 0.9689 -0.1756 -0.1746
vn 0.9638 -0.2004 -0.1758
vn 0.9783 0.1156 -0.1719
vn 0.9833 0.0600 -0.1716
vn 0.9851 0.0076 -0.1716
vn 0.9840 -0.0452 -0.1721
vn 0.9795 -0.1041 -0.1725
vn 0.9744 -0.1430 -0.1732
vn 0.9693 -0.1738 -0.1742
vn 0.9643 -0.1984 -0.1754
vn 0.9801 0.0997 -0.1719
vn 0.9838 0.0517 -0.1715
vn 0.9852 0.0014 -0.1716
vn 0.9837 -0.0517 -0.1721
vn 0.9796 -0.1031 -0.1723
vn 0.9748 -0.1412 -0.1729
vn 0.9699 -0.1710 -0.1736
vn 0.9650 -0.1957 -0.1748
vn 0.9815 0.0861 -0.1712
vn 0.9844 0.0407 -0.1712
vn 0.9851 -0.0067 -0.1716
vn 0.9835 -0.0564 -0.1721
vn 0.9798 -0.1015 -0.1725
vn 0.9752 -0.1384 -0.1729
vn 0.9706 -0.1667 -0.1735
vn 0.9658 -0.1918 -0.1745
vn 0.9829 0.0670 -0.1714
vn 0.9848 0.0266 -0.1718
vn 0.9850 -0.0151 -0.1720
vn 0.9832 -0.0609 -0.1722
vn 0.9798 -0.1008 -0.1728
vn 0.9757 -0.1343 -0.1734
vn 0.9715 -0.1610 -0.1740
vn 0.9669 -0.1859 -0.1747
vn 0.9840 0.0466 -0.1721
vn 0.9849 0.0117 -0.1726
vn 0.9847 -0.0234 -0.1727
vn 0.9831 -0.0618 -0.1722
vn 0.9797 -0.1013 -0.1727
vn 0.9762 -0.1309 -0.1730
vn 0.9726 -0.1552 -0.1732
vn 0.9688 -0.1772 -0.1732
vn 0.9851 -0.0098 -0.1716
vn 0.9844 -0.0351 -0.1725
vn 0.9831 -0.0626 -0.1722
vn 0.9797 -0.1017 -0.1726
vn 0.9769 -0.1259 -0.1725
vn 0.9740 -0.1466 -0.1728
vn 0.9709 -0.1646 -0.1741
vn 0.9851 0.0018 -0.1720
vn 0.9851 -0.0155 -0.1714
vn 0.9837 -0.0527 -0.1722
vn 0.9830 -0.0634 -0.1721
vn 0.9797 -0.1019 -0.1725
vn 0.9780 -0.1182 -0.1719
vn 0.9717 -0.1603 -0.1733
vn 0.9851 -0.0163 -0.1714
vn 0.9844 -0.0350 -0.1722
vn 0.9830 -0.0642 -0.1720
vn 0.9830 -0.0642 -0.1721
vn 0.9797 -0.1017 -0.1725
vn 0.9752 -0.1383 -0.1731
vn 0.9749 -0.1401 -0.1733
s 0
usemtl burn
f 1//1 11//1 10//1
f 2//2 12//2 11//2
f 3//3 13//3 12//3
f 4//4 14//4 13//4
f 6//5 14//5 5//5
f 7//6 15//6 6//6
f 8//7 16//7 7//7
f 9//8 17//8 8//8
f 10//9 20//9 19//9
f 11//10 21//10 20//10
f 12//11 22//11 21//11
f 13//12 23//12 22//12
f 15//13 23//13 14//13
f 16//14 24//14 15//14
f 17//15 25//15 16//15
f 18//16 26//16 17//16
f 19//17 29//17 28//17
f 20//18 30//18 29//18
f 21//19 31//19 30//19
f 22//20 32//20 31//20
f 24//21 32//21 23//21
f 25//22 33//22 24//22
f 26//23 34//23 25//23
f 27//24 35//24 26//24
f 28//25 38//25 37//25
f 29//26 39//26 38//26
f 30//27 40//27 39//27
f 31//28 41//28 40//28
f 33//29 41//29 32//29
f 34//30 42//30 33//30
f 35//31 43//31 34//31
f 36//32 44//32 35//32
f 37//33 47//33 46//33
f 38//34 48//34 47//34
f 39//35 49//35 48//35
f 40//36 50//36 49//36
f 42//37 50//37 41//37
f 43//38 51//38 42//38
f 44//39 52//39 43//39
f 45//40 53//40 44//40
f 46//41 56//41 55//41
f 47//42 57//42 56//42
f 48//43 58//43 57//43
f 49//44 59//44 58//44
f 51//45 59//45 50//45
f 52//46 60//46 51//46
f 53//47 61//47 52//47
f 54//48 62//48 53//48
f 55//49 65//49 64//49
f 56//50 66//50 65//50
f 57//51 67//51 66//51
f 58//52 68//52 67//52
f 60//53 68//53 59//53
f 61//54 69//54 60//54
f 62//55 70//55 61//55
f 63//56 71//56 62//56
f 64//57 74//57 73//57
f 65//58 75//58 74//58
f 66//59 76//59 75//59
f 67//60 77//60 76//60
f 69//61 77//61 68//61
f 70//62 78//62 69//62
f 71//63 79//63 70//63
f 72//64 80//64 71//64
f 73//65 83//65 82//65
f 74//66 84//66 83//66
f 75//67 85//67 84//67
f 76//68 86//68 85//68
f 77//69 87//69 86//69
f 79//70 87//70 78//70
f 80//71 88//71 79//71
f 81//72 89//72 80//72
f 82//73 92//73 91//73
f 83//74 93//74 92//74
f 84//75 94//75 93//75
f 85//76 95//76 94//76
f 86//77 96//77 95//77
f 88//78 96//78 87//78
f 89//79 97//79 88//79
f 90//80 98//80 89//80
f 91//81 101//81 100//81
f 92//82 102//82 101//82
f 93//83 103//83 102//83
f 94//84 104//84 103//84
f 95//85 105//85 104//85
f 96//86 106//86 105//86
f 97//87 107//87 106//87
f 98//88 108//88 107//88
f 100//89 110//89 109//89
f 101//90 111//90 110//90
f 102//91 112//91 111//91
f 103//92 113//92 112//92
f 104//93 114//93 113//93
f 105//94 115//94 114//94
f 106//95 116//95 115//95
f 107//96 117//96 116//96
f 110//97 118//97 109//97
f 111//98 119//98 110//98
f 112//99 120//99 111//99
f 112//100 122//100 121//100
f 113//101 123//101 122//101
f 114//102 124//102 123//102
f 115//103 125//103 124//103
f 116//104 126//104 125//104
f 119//105 127//105 118//105
f 120//106 128//106 119//106
f 121//107 129//107 120//107
f 121//108 131//108 130//108
f 122//101 132//101 131//101
f 123//109 133//109 132//109
f 124//110 134//110 133//110
f 125//111 135//111 134//111
f 128//112 136//112 127//112
f 129//113 137//113 128//113
f 130//114 138//114 129//114
f 130//115 140//115 139//115
f 131//116 141//116 140//116
f 132//117 142//117 141//117
f 133//118 143//118 142//118
f 134//119 144//119 143//119
f 137//120 145//120 136//120
f 138//121 146//121 137//121
f 139//122 147//122 138//122
f 139//123 149//123 148//123
f 140//124 150//124 149//124
f 141//125 151//125 150//125
f 142//126 152//126 151//126
f 143//127 153//127 152//127
f 146//128 154//128 145//128
f 147//129 155//129 146//129
f 148//130 156//130 147//130
f 149//131 157//131 148//131
f 149//132 159//132 158//132
f 150//133 160//133 159//133
f 151//134 161//134 160//134
f 152//135 162//135 161//135
f 155//136 163//136 154//136
f 156//137 164//137 155//137
f 157//138 165//138 156//138
f 158//139 166//139 157//139
f 158//140 168//140 167//140
f 159//141 169//141 168//141
f 160//142 170//142 169//142
f 161//143 171//143 170//143
f 164//144 172//144 163//144
f 165//145 173//145 164//145
f 166//146 174//146 165//146
f 167//147 175//147 166//147
f 167//148 177//148 176//148
f 168//149 178//149 177//149
f 169//150 179//150 178//150
f 170//151 180//151 179//151
f 173//152 181//152 172//152
f 174//153 182//153 173//153
f 175//154 183//154 174//154
f 176//155 184//155 175//155
f 176//156 186//156 185//156
f 177//157 187//157 186//157
f 178//158 188//158 187//158
f 179//159 189//159 188//159
f 182//160 190//160 181//160
f 183//161 191//161 182//161
f 184//162 192//162 183//162
f 185//163 193//163 184//163
f 185//164 195//164 194//164
f 186//165 196//165 195//165
f 187//166 197//166 196//166
f 188//167 198//167 197//167
f 191//168 199//168 190//168
f 192//169 200//169 191//169
f 193//170 201//170 192//170
f 194//171 202//171 193//171
f 194//156 204//156 203//156
f 195//172 205//172 204//172
f 196//173 206//173 205//173
f 197//174 207//174 206//174
f 200//175 208//175 199//175
f 201//176 209//176 200//176
f 202//177 210//177 201//177
f 203//178 211//178 202//178
f 203//179 213//179 212//179
f 204//180 214//180 213//180
f 205//181 215//181 214//181
f 206//182 216//182 215//182
f 1//183 2//183 11//183
f 2//184 3//184 12//184
f 3//185 4//185 13//185
f 4//186 5//186 14//186
f 6//187 15//187 14//187
f 7//188 16//188 15//188
f 8//189 17//189 16//189
f 9//16 18//16 17//16
f 10//190 11//190 20//190
f 11//2 12//2 21//2
f 12//191 13//191 22//191
f 13//192 14//192 23//192
f 15//193 24//193 23//193
f 16//194 25//194 24//194
f 17//195 26//195 25//195
f 18//196 27//196 26//196
f 19//197 20//197 29//197
f 20//198 21//198 30//198
f 21//199 22//199 31//199
f 22//200 23//200 32//200
f 24//201 33//201 32//201
f 25//202 34//202 33//202
f 26//203 35//203 34//203
f 27//32 36//32 35//32
f 28//204 29//204 38//204
f 29//205 30//205 39//205
f 30//206 31//206 40//206
f 31//207 32//207 41//207
f 33//208 42//208 41//208
f 34//209 43//209 42//209
f 35//210 44//210 43//210
f 36//211 45//211 44//211
f 37//212 38//212 47//212
f 38//213 39//213 48//213
f 39//214 40//214 49//214
f 40//215 41//215 50//215
f 42//216 51//216 50//216
f 43//217 52//217 51//217
f 44//218 53//218 52//218
f 45//219 54//219 53//219
f 46//220 47//220 56//220
f 47//221 48//221 57//221
f 48//222 49//222 58//222
f 49//185 50//185 59//185
f 51//223 60//223 59//223
f 52//224 61//224 60//224
f 53//225 62//225 61//225
f 54//226 63//226 62//226
f 55//227 56//227 65//227
f 56//228 57//228 66//228
f 57//229 58//229 67//229
f 58//230 59//230 68//230
f 60//231 69//231 68//231
f 61//232 70//232 69//232
f 62//233 71//233 70//233
f 63//234 72//234 71//234
f 64//235 65//235 74//235
f 65//236 66//236 75//236
f 66//237 67//237 76//237
f 67//238 68//238 77//238
f 69//239 78//239 77//239
f 70//240 79//240 78//240
f 71//241 80//241 79//241
f 72//242 81//242 80//242
f 73//243 74//243 83//243
f 74//244 75//244 84//244
f 75//245 76//245 85//245
f 76//246 77//246 86//246
f 77//247 78//247 87//247
f 79//248 88//248 87//248
f 80//249 89//249 88//249
f 81//250 90//250 89//250
f 82//251 83//251 92//251
f 83//252 84//252 93//252
f 84//253 85//253 94//253
f 85//254 86//254 95//254
f 86//255 87//255 96//255
f 88//256 97//256 96//256
f 89//257 98//257 97//257
f 90//258 99//258 98//258
f 91//259 92//259 101//259
f 92//260 93//260 102//260
f 93//261 94//261 103//261
f 94//262 95//262 104//262
f 95//263 96//263 105//263
f 96//264 97//264 106//264
f 97//265 98//265 107//265
f 98//266 99//266 108//266
f 100//267 101//267 110//267
f 101//268 102//268 111//268
f 102//269 103//269 112//269
f 103//270 104//270 113//270
f 104//271 105//271 114//271
f 105//272 106//272 115//272
f 106//273 107//273 116//273
f 107//274 108//274 117//274
f 110//275 119//275 118//275
f 111//276 120//276 119//276
f 112//277 121//277 120//277
f 112//278 113//278 122//278
f 113//279 114//279 123//279
f 114//280 115//280 124//280
f 115//103 116//103 125//103
f 116//281 117//281 126//281
f 119//282 128//282 127//282
f 120//283 129//283 128//283
f 121//284 130//284 129//284
f 121//285 122//285 131//285
f 122//101 123//101 132//101
f 123//286 124//286 133//286
f 124//287 125//287 134//287
f 125//288 126//288 135//288
f 128//289 137//289 136//289
f 129//290 138//290 137//290
f 130//291 139//291 138//291
f 130//292 131//292 140//292
f 131//293 132//293 141//293
f 132//294 133//294 142//294
f 133//295 134//295 143//295
f 134//296 135//296 144//296
f 137//297 146//297 145//297
f 138//298 147//298 146//298
f 139//299 148//299 147//299
f 139//300 140//300 149//300
f 140//301 141//301 150//301
f 141//302 142//302 151//302
f 142//303 143//303 152//303
f 143//304 144//304 153//304
f 146//305 155//305 154//305
f 147//306 156//306 155//306
f 148//307 157//307 156//307
f 149//308 158//308 157//308
f 149//309 150//309 159//309
f 150//310 151//310 160//310
f 151//311 152//311 161//311
f 152//312 153//312 162//312
f 155//313 164//313 163//313
f 156//314 165//314 164//314
f 157//315 166//315 165//315
f 158//316 167//316 166//316
f 158//317 159//317 168//317
f 159//318 160//318 169//318
f 160//319 161//319 170//319
f 161//320 162//320 171//320
f 164//321 173//321 172//321
f 165//322 174//322 173//322
f 166//323 175//323 174//323
f 167//324 176//324 175//324
f 167//325 168//325 177//325
f 168//326 169//326 178//326
f 169//327 170//327 179//327
f 170//328 171//328 180//328
f 173//329 182//329 181//329
f 174//330 183//330 182//330
f 175//331 184//331 183//331
f 176//332 185//332 184//332
f 176//333 177//333 186//333
f 177//334 178//334 187//334
f 178//335 179//335 188//335
f 179//336 180//336 189//336
f 182//168 191//168 190//168
f 183//337 192//337 191//337
f 184//338 193//338 192//338
f 185//339 194//339 193//339
f 185//340 186//340 195//340
f 186//341 187//341 196//341
f 187//342 188//342 197//342
f 188//343 189//343 198//343
f 191//344 200//344 199//344
f 192//345 201//345 200//345
f 193//346 202//346 201//346
f 194//347 203//347 202//347
f 194//348 195//348 204//348
f 195//349 196//349 205//349
f 196//166 197//166 206//166
f 197//350 198//350 207//350
f 200//351 209//351 208//351
f 201//352 210//352 209//352
f 202//353 211//353 210//353
f 203//354 212//354 211//354
f 203//355 204//355 213//355
f 204//172 205//172 214//172
f 205//356 206//356 215//356
f 206//357 207//357 216//357
