# Blender 5.2.2 LTS
# www.blender.org
mtllib floor.mtl
o nacelle_floor
v -9.740000 -2.040000 -0.080000
v -9.740000 -2.040000 0.000000
v -9.740000 2.040000 -0.080000
v -9.740000 2.040000 0.000000
v 2.740000 -2.040000 -0.080000
v 2.740000 -2.040000 0.000000
v 2.740000 2.040000 -0.080000
v 2.740000 2.040000 0.000000
v -0.950000 -0.500000 -0.080000
v -0.520000 -0.880000 -0.080000
v -0.520000 -0.500000 -0.080000
v -0.950000 -0.880000 -0.080000
v -0.950000 -0.880000 0.000000
v -0.950000 -0.500000 0.000000
v -0.520000 -0.500000 0.000000
v -0.520000 -0.880000 0.000000
v -9.550000 -0.550000 -0.080000
v -9.550000 0.450000 -0.080000
v -8.450000 0.450000 -0.080000
v -8.450000 -0.550000 -0.080000
v -9.550000 -0.550000 0.000000
v -9.550000 0.450000 0.000000
v -8.450000 0.450000 0.000000
v -8.450000 -0.550000 0.000000
vn -1.0000 -0.0000 -0.0000
vn -0.0000 1.0000 -0.0000
vn 1.0000 -0.0000 -0.0000
vn -0.0000 -1.0000 -0.0000
vn -0.0000 -0.0000 -1.0000
vn -0.0000 -0.0000 1.0000
s 0
usemtl grating
f 2//1 3//1 1//1
f 4//2 7//2 3//2
f 8//3 5//3 7//3
f 6//4 1//4 5//4
f 11//5 5//5 10//5
f 1//5 18//5 17//5
f 7//5 9//5 20//5
f 6//6 15//6 16//6
f 22//6 2//6 21//6
f 14//6 4//6 23//6
f 12//3 14//3 13//3
f 9//4 15//4 14//4
f 10//1 15//1 11//1
f 12//2 16//2 10//2
f 17//3 22//3 21//3
f 18//4 23//4 22//4
f 20//1 23//1 19//1
f 17//2 24//2 20//2
f 2//1 4//1 3//1
f 4//2 8//2 7//2
f 8//3 6//3 5//3
f 6//4 2//4 1//4
f 11//5 7//5 5//5
f 1//5 3//5 18//5
f 18//5 3//5 7//5
f 7//5 11//5 9//5
f 12//5 10//5 5//5
f 12//5 5//5 1//5
f 1//5 17//5 20//5
f 19//5 18//5 7//5
f 12//5 1//5 20//5
f 20//5 19//5 7//5
f 9//5 12//5 20//5
f 6//6 8//6 15//6
f 22//6 4//6 2//6
f 24//6 21//6 2//6
f 2//6 6//6 16//6
f 2//6 16//6 13//6
f 24//6 2//6 13//6
f 14//6 15//6 8//6
f 24//6 13//6 14//6
f 4//6 22//6 23//6
f 23//6 24//6 14//6
f 14//6 8//6 4//6
f 12//3 9//3 14//3
f 9//4 11//4 15//4
f 10//1 16//1 15//1
f 12//2 13//2 16//2
f 17//3 18//3 22//3
f 18//4 19//4 23//4
f 20//1 24//1 23//1
f 17//2 21//2 24//2
