# Blender 5.2.2 LTS
# www.blender.org
mtllib foundation.mtl
o plinth
v 3.900000 0.000000 -0.800000
v 3.891650 0.255072 -0.800000
v 3.866635 0.509052 -0.800000
v 3.825063 0.760852 -0.800000
v 3.767111 1.009394 -0.800000
v 3.693027 1.253614 -0.800000
v 3.603130 1.492465 -0.800000
v 3.497804 1.724926 -0.800000
v 3.377499 1.950000 -0.800000
v 3.242732 2.166724 -0.800000
v 3.094078 2.374170 -0.800000
v 2.932175 2.571449 -0.800000
v 2.757716 2.757716 -0.800000
v 2.571449 2.932175 -0.800000
v 2.374170 3.094078 -0.800000
v 2.166724 3.242732 -0.800000
v 1.950000 3.377499 -0.800000
v 1.724926 3.497804 -0.800000
v 1.492465 3.603130 -0.800000
v 1.253614 3.693027 -0.800000
v 1.009394 3.767111 -0.800000
v 0.760852 3.825063 -0.800000
v 0.509052 3.866635 -0.800000
v 0.255072 3.891650 -0.800000
v 0.000000 3.900000 -0.800000
v -0.255072 3.891650 -0.800000
v -0.509052 3.866635 -0.800000
v -0.760852 3.825063 -0.800000
v -1.009394 3.767111 -0.800000
v -1.253614 3.693027 -0.800000
v -1.492465 3.603130 -0.800000
v -1.724926 3.497804 -0.800000
v -1.950000 3.377499 -0.800000
v -2.166724 3.242732 -0.800000
v -2.374170 3.094078 -0.800000
v -2.571449 2.932175 -0.800000
v -2.757716 2.757716 -0.800000
v -2.932175 2.571449 -0.800000
v -3.094078 2.374170 -0.800000
v -3.242732 2.166724 -0.800000
v -3.377499 1.950000 -0.800000
v -3.497804 1.724926 -0.800000
v -3.603130 1.492465 -0.800000
v -3.693027 1.253614 -0.800000
v -3.767111 1.009394 -0.800000
v -3.825063 0.760852 -0.800000
v -3.866635 0.509052 -0.800000
v -3.891650 0.255072 -0.800000
v -3.900000 0.000000 -0.800000
v -3.891650 -0.255072 -0.800000
v -3.866635 -0.509052 -0.800000
v -3.825063 -0.760852 -0.800000
v -3.767111 -1.009394 -0.800000
v -3.693027 -1.253614 -0.800000
v -3.603130 -1.492465 -0.800000
v -3.497804 -1.724926 -0.800000
v -3.377499 -1.950000 -0.800000
v -3.242732 -2.166724 -0.800000
v -3.094078 -2.374170 -0.800000
v -2.932175 -2.571449 -0.800000
v -2.757716 -2.757716 -0.800000
v -2.571449 -2.932175 -0.800000
v -2.374170 -3.094078 -0.800000
v -2.166724 -3.242732 -0.800000
v -1.950000 -3.377499 -0.800000
v -1.724926 -3.497804 -0.800000
v -1.492465 -3.603130 -0.800000
v -1.253614 -3.693027 -0.800000
v -1.009394 -3.767111 -0.800000
v -0.760852 -3.825063 -0.800000
v -0.509052 -3.866635 -0.800000
v -0.255072 -3.891650 -0.800000
v -0.000000 -3.900000 -0.800000
v 0.255072 -3.891650 -0.800000
v 0.509052 -3.866635 -0.800000
v 0.760852 -3.825063 -0.800000
v 1.009394 -3.767111 -0.800000
v 1.253614 -3.693027 -0.800000
v 1.492465 -3.603130 -0.800000
v 1.724926 -3.497804 -0.800000
v 1.950000 -3.377499 -0.800000
v 2.166724 -3.242732 -0.800000
v 2.374170 -3.094078 -0.800000
v 2.571449 -2.932175 -0.800000
v 2.757716 -2.757716 -0.800000
v 2.932175 -2.571449 -0.800000
v 3.094078 -2.374170 -0.800000
v 3.242732 -2.166724 -0.800000
v 3.377499 -1.950000 -0.800000
v 3.497804 -1.724926 -0.800000
v 3.603130 -1.492465 -0.800000
v 3.693027 -1.253614 -0.800000
v 3.767111 -1.009394 -0.800000
v 3.825063 -0.760852 -0.800000
v 3.866635 -0.509052 -0.800000
v 3.891650 -0.255072 -0.800000
v 3.900000 0.000000 -0.050000
v 3.891650 0.255072 -0.050000
v 3.866635 0.509052 -0.050000
v 3.825063 0.760852 -0.050000
v 3.767111 1.009394 -0.050000
v 3.693027 1.253614 -0.050000
v 3.603130 1.492465 -0.050000
v 3.497804 1.724926 -0.050000
v 3.377499 1.950000 -0.050000
v 3.242732 2.166724 -0.050000
v 3.094078 2.374170 -0.050000
v 2.932175 2.571449 -0.050000
v 2.757716 2.757716 -0.050000
v 2.571449 2.932175 -0.050000
v 2.374170 3.094078 -0.050000
v 2.166724 3.242732 -0.050000
v 1.950000 3.377499 -0.050000
v 1.724926 3.497804 -0.050000
v 1.492465 3.603130 -0.050000
v 1.253614 3.693027 -0.050000
v 1.009394 3.767111 -0.050000
v 0.760852 3.825063 -0.050000
v 0.509052 3.866635 -0.050000
v 0.255072 3.891650 -0.050000
v 0.000000 3.900000 -0.050000
v -0.255072 3.891650 -0.050000
v -0.509052 3.866635 -0.050000
v -0.760852 3.825063 -0.050000
v -1.009394 3.767111 -0.050000
v -1.253614 3.693027 -0.050000
v -1.492465 3.603130 -0.050000
v -1.724926 3.497804 -0.050000
v -1.950000 3.377499 -0.050000
v -2.166724 3.242732 -0.050000
v -2.374170 3.094078 -0.050000
v -2.571449 2.932175 -0.050000
v -2.757716 2.757716 -0.050000
v -2.932175 2.571449 -0.050000
v -3.094078 2.374170 -0.050000
v -3.242732 2.166724 -0.050000
v -3.377499 1.950000 -0.050000
v -3.497804 1.724926 -0.050000
v -3.603130 1.492465 -0.050000
v -3.693027 1.253614 -0.050000
v -3.767111 1.009394 -0.050000
v -3.825063 0.760852 -0.050000
v -3.866635 0.509052 -0.050000
v -3.891650 0.255072 -0.050000
v -3.900000 0.000000 -0.050000
v -3.891650 -0.255072 -0.050000
v -3.866635 -0.509052 -0.050000
v -3.825063 -0.760852 -0.050000
v -3.767111 -1.009394 -0.050000
v -3.693027 -1.253614 -0.050000
v -3.603130 -1.492465 -0.050000
v -3.497804 -1.724926 -0.050000
v -3.377499 -1.950000 -0.050000
v -3.242732 -2.166724 -0.050000
v -3.094078 -2.374170 -0.050000
v -2.932175 -2.571449 -0.050000
v -2.757716 -2.757716 -0.050000
v -2.571449 -2.932175 -0.050000
v -2.374170 -3.094078 -0.050000
v -2.166724 -3.242732 -0.050000
v -1.950000 -3.377499 -0.050000
v -1.724926 -3.497804 -0.050000
v -1.492465 -3.603130 -0.050000
v -1.253614 -3.693027 -0.050000
v -1.009394 -3.767111 -0.050000
v -0.760852 -3.825063 -0.050000
v -0.509052 -3.866635 -0.050000
v -0.255072 -3.891650 -0.050000
v -0.000000 -3.900000 -0.050000
v 0.255072 -3.891650 -0.050000
v 0.509052 -3.866635 -0.050000
v 0.760852 -3.825063 -0.050000
v 1.009394 -3.767111 -0.050000
v 1.253614 -3.693027 -0.050000
v 1.492465 -3.603130 -0.050000
v 1.724926 -3.497804 -0.050000
v 1.950000 -3.377499 -0.050000
v 2.166724 -3.242732 -0.050000
v 2.374170 -3.094078 -0.050000
v 2.571449 -2.932175 -0.050000
v 2.757716 -2.757716 -0.050000
v 2.932175 -2.571449 -0.050000
v 3.094078 -2.374170 -0.050000
v 3.242732 -2.166724 -0.050000
v 3.377499 -1.950000 -0.050000
v 3.497804 -1.724926 -0.050000
v 3.603130 -1.492465 -0.050000
v 3.693027 -1.253614 -0.050000
v 3.767111 -1.009394 -0.050000
v 3.825063 -0.760852 -0.050000
v 3.866635 -0.509052 -0.050000
v 3.891650 -0.255072 -0.050000
v 3.850000 0.000000 0.000000
v 3.841757 0.251802 0.000000
v 3.817063 0.502526 0.000000
v 3.776023 0.751098 0.000000
v 3.718814 0.996453 0.000000
v 3.645681 1.237542 0.000000
v 3.556936 1.473331 0.000000
v 3.452960 1.702811 0.000000
v 3.334198 1.925000 0.000000
v 3.201158 2.138945 0.000000
v 3.054410 2.343731 0.000000
v 2.894583 2.538481 0.000000
v 2.722361 2.722361 0.000000
v 2.538481 2.894583 0.000000
v 2.343731 3.054410 0.000000
v 2.138945 3.201158 0.000000
v 1.925000 3.334198 0.000000
v 1.702811 3.452960 0.000000
v 1.473331 3.556936 0.000000
v 1.237542 3.645681 0.000000
v 0.996453 3.718814 0.000000
v 0.751098 3.776023 0.000000
v 0.502526 3.817063 0.000000
v 0.251802 3.841757 0.000000
v 0.000000 3.850000 0.000000
v -0.251802 3.841757 0.000000
v -0.502526 3.817063 0.000000
v -0.751098 3.776023 0.000000
v -0.996453 3.718814 0.000000
v -1.237542 3.645681 0.000000
v -1.473331 3.556936 0.000000
v -1.702811 3.452960 0.000000
v -1.925000 3.334198 0.000000
v -2.138945 3.201158 0.000000
v -2.343731 3.054410 0.000000
v -2.538481 2.894583 0.000000
v -2.722361 2.722361 0.000000
v -2.894583 2.538481 0.000000
v -3.054410 2.343731 0.000000
v -3.201158 2.138945 0.000000
v -3.334198 1.925000 0.000000
v -3.452960 1.702811 0.000000
v -3.556936 1.473331 0.000000
v -3.645681 1.237542 0.000000
v -3.718814 0.996453 0.000000
v -3.776023 0.751098 0.000000
v -3.817063 0.502526 0.000000
v -3.841757 0.251802 0.000000
v -3.850000 0.000000 0.000000
v -3.841757 -0.251802 0.000000
v -3.817063 -0.502526 0.000000
v -3.776023 -0.751098 0.000000
v -3.718814 -0.996453 0.000000
v -3.645681 -1.237542 0.000000
v -3.556936 -1.473331 0.000000
v -3.452960 -1.702811 0.000000
v -3.334198 -1.925000 0.000000
v -3.201158 -2.138945 0.000000
v -3.054410 -2.343731 0.000000
v -2.894583 -2.538481 0.000000
v -2.722361 -2.722361 0.000000
v -2.538481 -2.894583 0.000000
v -2.343731 -3.054410 0.000000
v -2.138945 -3.201158 0.000000
v -1.925000 -3.334198 0.000000
v -1.702811 -3.452960 0.000000
v -1.473331 -3.556936 0.000000
v -1.237542 -3.645681 0.000000
v -0.996453 -3.718814 0.000000
v -0.751098 -3.776023 0.000000
v -0.502526 -3.817063 0.000000
v -0.251802 -3.841757 0.000000
v -0.000000 -3.850000 0.000000
v 0.251802 -3.841757 0.000000
v 0.502526 -3.817063 0.000000
v 0.751098 -3.776023 0.000000
v 0.996453 -3.718814 0.000000
v 1.237542 -3.645681 0.000000
v 1.473331 -3.556936 0.000000
v 1.702811 -3.452960 0.000000
v 1.925000 -3.334198 0.000000
v 2.138945 -3.201158 0.000000
v 2.343731 -3.054410 0.000000
v 2.538481 -2.894583 0.000000
v 2.722361 -2.722361 0.000000
v 2.894583 -2.538481 0.000000
v 3.054410 -2.343731 0.000000
v 3.201158 -2.138945 0.000000
v 3.334198 -1.925000 0.000000
v 3.452960 -1.702811 0.000000
v 3.556936 -1.473331 0.000000
v 3.645681 -1.237542 0.000000
v 3.718814 -0.996453 0.000000
v 3.776023 -0.751098 0.000000
v 3.817063 -0.502526 0.000000
v 3.841757 -0.251802 0.000000
vn 0.9995 0.0327 -0.0000
vn 0.9952 0.0980 -0.0000
vn 0.9866 0.1629 -0.0000
vn 0.9739 0.2271 -0.0000
vn 0.9569 0.2903 -0.0000
vn 0.9359 0.3522 -0.0000
vn 0.9109 0.4127 -0.0000
vn 0.8819 0.4714 -0.0000
vn 0.8492 0.5281 -0.0000
vn 0.8128 0.5825 -0.0000
vn 0.7730 0.6344 -0.0000
vn 0.7299 0.6836 -0.0000
vn 0.6836 0.7299 -0.0000
vn 0.6344 0.7730 -0.0000
vn 0.5825 0.8128 -0.0000
vn 0.5281 0.8492 -0.0000
vn 0.4714 0.8819 -0.0000
vn 0.4127 0.9109 -0.0000
vn 0.3523 0.9359 -0.0000
vn 0.2903 0.9569 -0.0000
vn 0.2271 0.9739 -0.0000
vn 0.1629 0.9866 -0.0000
vn 0.0980 0.9952 -0.0000
vn 0.0327 0.9995 -0.0000
vn -0.0327 0.9995 -0.0000
vn -0.0980 0.9952 -0.0000
vn -0.1629 0.9866 -0.0000
vn -0.2271 0.9739 -0.0000
vn -0.2903 0.9569 -0.0000
vn -0.3523 0.9359 -0.0000
vn -0.4127 0.9109 -0.0000
vn -0.4714 0.8819 -0.0000
vn -0.5281 0.8492 -0.0000
vn -0.5825 0.8128 -0.0000
vn -0.6344 0.7730 -0.0000
vn -0.6836 0.7299 -0.0000
vn -0.7299 0.6836 -0.0000
vn -0.7730 0.6344 -0.0000
vn -0.8128 0.5825 -0.0000
vn -0.8492 0.5281 -0.0000
vn -0.8819 0.4714 -0.0000
vn -0.9109 0.4127 -0.0000
vn -0.9359 0.3523 -0.0000
vn -0.9569 0.2903 -0.0000
vn -0.9739 0.2271 -0.0000
vn -0.9866 0.1629 -0.0000
vn -0.9952 0.0980 -0.0000
vn -0.9995 0.0327 -0.0000
vn -0.9995 -0.0327 -0.0000
vn -0.9952 -0.0980 -0.0000
vn -0.9866 -0.1629 -0.0000
vn -0.9739 -0.2271 -0.0000
vn -0.9569 -0.2903 -0.0000
vn -0.9359 -0.3522 -0.0000
vn -0.9109 -0.4127 -0.0000
vn -0.8819 -0.4714 -0.0000
vn -0.8492 -0.5281 -0.0000
vn -0.8128 -0.5825 -0.0000
vn -0.7730 -0.6344 -0.0000
vn -0.7299 -0.6836 -0.0000
vn -0.6836 -0.7299 -0.0000
vn -0.6344 -0.7730 -0.0000
vn -0.5825 -0.8128 -0.0000
vn -0.5281 -0.8492 -0.0000
vn -0.4714 -0.8819 -0.0000
vn -0.4127 -0.9109 -0.0000
vn -0.3523 -0.9359 -0.0000
vn -0.2903 -0.9569 -0.0000
vn -0.2271 -0.9739 -0.0000
vn -0.1629 -0.9866 -0.0000
vn -0.0980 -0.9952 -0.0000
vn -0.0327 -0.9995 -0.0000
vn 0.0327 -0.9995 -0.0000
vn 0.0980 -0.9952 -0.0000
vn 0.1629 -0.9866 -0.0000
vn 0.2271 -0.9739 -0.0000
vn 0.2903 -0.9569 -0.0000
vn 0.3523 -0.9359 -0.0000
vn 0.4127 -0.9109 -0.0000
vn 0.4714 -0.8819 -0.0000
vn 0.5281 -0.8492 -0.0000
vn 0.5825 -0.8128 -0.0000
vn 0.6344 -0.7730 -0.0000
vn 0.6836 -0.7299 -0.0000
vn 0.7299 -0.6836 -0.0000
vn 0.7730 -0.6344 -0.0000
vn 0.8128 -0.5825 -0.0000
vn 0.8492 -0.5281 -0.0000
vn 0.8819 -0.4714 -0.0000
vn 0.9109 -0.4127 -0.0000
vn 0.9359 -0.3523 -0.0000
vn 0.9569 -0.2903 -0.0000
vn 0.9739 -0.2271 -0.0000
vn 0.9866 -0.1629 -0.0000
vn 0.9952 -0.0980 -0.0000
vn 0.9995 -0.0327 -0.0000
vn 0.7069 0.0231 0.7069
vn 0.7039 0.0693 0.7069
vn 0.6978 0.1152 0.7069
vn 0.6888 0.1606 0.7069
vn 0.6768 0.2053 0.7069
vn 0.6620 0.2491 0.7069
vn 0.6443 0.2919 0.7069
vn 0.6238 0.3334 0.7069
vn 0.6006 0.3735 0.7069
vn 0.5749 0.4120 0.7069
vn 0.5467 0.4487 0.7069
vn 0.5162 0.4835 0.7069
vn 0.4835 0.5162 0.7069
vn 0.4487 0.5467 0.7069
vn 0.4120 0.5749 0.7069
vn 0.3735 0.6006 0.7069
vn 0.3334 0.6238 0.7069
vn 0.2919 0.6443 0.7069
vn 0.2491 0.6620 0.7069
vn 0.2053 0.6768 0.7069
vn 0.1606 0.6888 0.7069
vn 0.1152 0.6979 0.7069
vn 0.0693 0.7039 0.7069
vn 0.0231 0.7069 0.7069
vn -0.0231 0.7069 0.7069
vn -0.0693 0.7039 0.7069
vn -0.1152 0.6979 0.7069
vn -0.1606 0.6888 0.7069
vn -0.2053 0.6768 0.7069
vn -0.2491 0.6620 0.7069
vn -0.2919 0.6443 0.7069
vn -0.3334 0.6238 0.7069
vn -0.3735 0.6006 0.7069
vn -0.4120 0.5749 0.7069
vn -0.4487 0.5467 0.7069
vn -0.4835 0.5162 0.7069
vn -0.5162 0.4835 0.7069
vn -0.5467 0.4487 0.7069
vn -0.5749 0.4120 0.7069
vn -0.6006 0.3735 0.7069
vn -0.6238 0.3334 0.7069
vn -0.6442 0.2919 0.7069
vn -0.6620 0.2491 0.7069
vn -0.6768 0.2053 0.7069
vn -0.6888 0.1606 0.7069
vn -0.6979 0.1152 0.7069
vn -0.7039 0.0693 0.7069
vn -0.7069 0.0231 0.7069
vn -0.7069 -0.0231 0.7069
vn -0.7039 -0.0693 0.7069
vn -0.6978 -0.1152 0.7069
vn -0.6888 -0.1606 0.7069
vn -0.6768 -0.2053 0.7069
vn -0.6620 -0.2491 0.7069
vn -0.6443 -0.2919 0.7069
vn -0.6238 -0.3334 0.7069
vn -0.6006 -0.3735 0.7069
vn -0.5749 -0.4120 0.7069
vn -0.5467 -0.4487 0.7069
vn -0.5162 -0.4835 0.7069
vn -0.4835 -0.5162 0.7069
vn -0.4487 -0.5467 0.7069
vn -0.4120 -0.5749 0.7069
vn -0.3735 -0.6006 0.7069
vn -0.3334 -0.6238 0.7069
vn -0.2919 -0.6443 0.7069
vn -0.2491 -0.6620 0.7069
vn -0.2053 -0.6768 0.7069
vn -0.1606 -0.6888 0.7069
vn -0.1152 -0.6979 0.7069
vn -0.0693 -0.7039 0.7069
vn -0.0231 -0.7069 0.7069
vn 0.0231 -0.7069 0.7069
vn 0.0693 -0.7039 0.7069
vn 0.1152 -0.6979 0.7069
vn 0.1606 -0.6888 0.7069
vn 0.2053 -0.6768 0.7069
vn 0.2491 -0.6620 0.7069
vn 0.2919 -0.6443 0.7069
vn 0.3334 -0.6238 0.7069
vn 0.3735 -0.6006 0.7069
vn 0.4120 -0.5749 0.7069
vn 0.4487 -0.5467 0.7069
vn 0.4835 -0.5162 0.7069
vn 0.5162 -0.4835 0.7069
vn 0.5467 -0.4487 0.7069
vn 0.5749 -0.4120 0.7069
vn 0.6006 -0.3735 0.7069
vn 0.6238 -0.3334 0.7069
vn 0.6442 -0.2919 0.7069
vn 0.6620 -0.2491 0.7069
vn 0.6768 -0.2053 0.7069
vn 0.6888 -0.1606 0.7069
vn 0.6979 -0.1152 0.7069
vn 0.7039 -0.0693 0.7069
vn 0.7069 -0.0231 0.7069
vn -0.0000 -0.0000 -1.0000
vn -0.0000 -0.0000 1.0000
vn 0.9359 0.3523 -0.0000
vn -0.9359 0.3522 -0.0000
vn -0.9359 -0.3523 -0.0000
vn 0.9359 -0.3522 -0.0000
vn 0.6442 0.2919 0.7069
vn -0.6443 0.2919 0.7069
vn -0.6978 0.1152 0.7069
vn -0.6442 -0.2919 0.7069
vn 0.6443 -0.2919 0.7069
vn 0.6978 -0.1152 0.7069
s 0
usemtl concrete
f 2//1 97//1 1//1
f 3//2 98//2 2//2
f 4//3 99//3 3//3
f 5//4 100//4 4//4
f 6//5 101//5 5//5
f 7//6 102//6 6//6
f 8//7 103//7 7//7
f 9//8 104//8 8//8
f 10//9 105//9 9//9
f 11//10 106//10 10//10
f 12//11 107//11 11//11
f 13//12 108//12 12//12
f 14//13 109//13 13//13
f 15//14 110//14 14//14
f 16//15 111//15 15//15
f 17//16 112//16 16//16
f 18//17 113//17 17//17
f 19//18 114//18 18//18
f 20//19 115//19 19//19
f 21//20 116//20 20//20
f 22//21 117//21 21//21
f 23//22 118//22 22//22
f 24//23 119//23 23//23
f 25//24 120//24 24//24
f 26//25 121//25 25//25
f 27//26 122//26 26//26
f 28//27 123//27 27//27
f 29//28 124//28 28//28
f 30//29 125//29 29//29
f 31//30 126//30 30//30
f 32//31 127//31 31//31
f 33//32 128//32 32//32
f 34//33 129//33 33//33
f 35//34 130//34 34//34
f 36//35 131//35 35//35
f 37//36 132//36 36//36
f 38//37 133//37 37//37
f 39//38 134//38 38//38
f 40//39 135//39 39//39
f 41//40 136//40 40//40
f 42//41 137//41 41//41
f 43//42 138//42 42//42
f 44//43 139//43 43//43
f 45//44 140//44 44//44
f 46//45 141//45 45//45
f 47//46 142//46 46//46
f 48//47 143//47 47//47
f 49//48 144//48 48//48
f 50//49 145//49 49//49
f 51//50 146//50 50//50
f 52//51 147//51 51//51
f 53//52 148//52 52//52
f 54//53 149//53 53//53
f 55//54 150//54 54//54
f 56//55 151//55 55//55
f 57//56 152//56 56//56
f 58//57 153//57 57//57
f 59//58 154//58 58//58
f 60//59 155//59 59//59
f 61//60 156//60 60//60
f 62//61 157//61 61//61
f 63//62 158//62 62//62
f 64//63 159//63 63//63
f 65//64 160//64 64//64
f 66//65 161//65 65//65
f 67//66 162//66 66//66
f 68//67 163//67 67//67
f 69//68 164//68 68//68
f 70//69 165//69 69//69
f 71//70 166//70 70//70
f 72//71 167//71 71//71
f 73//72 168//72 72//72
f 74//73 169//73 73//73
f 75//74 170//74 74//74
f 76//75 171//75 75//75
f 77//76 172//76 76//76
f 78//77 173//77 77//77
f 79//78 174//78 78//78
f 80//79 175//79 79//79
f 81//80 176//80 80//80
f 82//81 177//81 81//81
f 83//82 178//82 82//82
f 84//83 179//83 83//83
f 85//84 180//84 84//84
f 86//85 181//85 85//85
f 87//86 182//86 86//86
f 88//87 183//87 87//87
f 89//88 184//88 88//88
f 90//89 185//89 89//89
f 91//90 186//90 90//90
f 92//91 187//91 91//91
f 93//92 188//92 92//92
f 94//93 189//93 93//93
f 95//94 190//94 94//94
f 96//95 191//95 95//95
f 1//96 192//96 96//96
f 98//97 193//97 97//97
f 99//98 194//98 98//98
f 100//99 195//99 99//99
f 100//100 197//100 196//100
f 102//101 197//101 101//101
f 103//102 198//102 102//102
f 103//103 200//103 199//103
f 105//104 200//104 104//104
f 106//105 201//105 105//105
f 106//106 203//106 202//106
f 108//107 203//107 107//107
f 109//108 204//108 108//108
f 109//109 206//109 205//109
f 110//110 207//110 206//110
f 112//111 207//111 111//111
f 113//112 208//112 112//112
f 114//113 209//113 113//113
f 115//114 210//114 114//114
f 116//115 211//115 115//115
f 116//116 213//116 212//116
f 118//117 213//117 117//117
f 119//118 214//118 118//118
f 120//119 215//119 119//119
f 120//120 217//120 216//120
f 122//121 217//121 121//121
f 123//122 218//122 122//122
f 124//123 219//123 123//123
f 124//124 221//124 220//124
f 126//125 221//125 125//125
f 127//126 222//126 126//126
f 127//127 224//127 223//127
f 129//128 224//128 128//128
f 130//129 225//129 129//129
f 130//130 227//130 226//130
f 132//131 227//131 131//131
f 133//132 228//132 132//132
f 133//133 230//133 229//133
f 134//134 231//134 230//134
f 136//135 231//135 135//135
f 137//136 232//136 136//136
f 138//137 233//137 137//137
f 139//138 234//138 138//138
f 140//139 235//139 139//139
f 140//140 237//140 236//140
f 142//141 237//141 141//141
f 143//142 238//142 142//142
f 144//143 239//143 143//143
f 144//144 241//144 240//144
f 146//145 241//145 145//145
f 147//146 242//146 146//146
f 148//147 243//147 147//147
f 148//148 245//148 244//148
f 150//149 245//149 149//149
f 151//150 246//150 150//150
f 151//151 248//151 247//151
f 153//152 248//152 152//152
f 154//153 249//153 153//153
f 154//154 251//154 250//154
f 156//155 251//155 155//155
f 157//156 252//156 156//156
f 157//157 254//157 253//157
f 158//158 255//158 254//158
f 160//159 255//159 159//159
f 161//160 256//160 160//160
f 162//161 257//161 161//161
f 163//162 258//162 162//162
f 164//163 259//163 163//163
f 164//164 261//164 260//164
f 166//165 261//165 165//165
f 167//166 262//166 166//166
f 168//167 263//167 167//167
f 168//168 265//168 264//168
f 170//169 265//169 169//169
f 171//170 266//170 170//170
f 172//171 267//171 171//171
f 172//172 269//172 268//172
f 174//173 269//173 173//173
f 175//174 270//174 174//174
f 175//175 272//175 271//175
f 177//176 272//176 176//176
f 178//177 273//177 177//177
f 178//178 275//178 274//178
f 180//179 275//179 179//179
f 181//180 276//180 180//180
f 181//181 278//181 277//181
f 182//182 279//182 278//182
f 184//183 279//183 183//183
f 185//184 280//184 184//184
f 186//185 281//185 185//185
f 187//186 282//186 186//186
f 188//187 283//187 187//187
f 188//188 285//188 284//188
f 190//189 285//189 189//189
f 191//190 286//190 190//190
f 192//191 287//191 191//191
f 192//192 193//192 288//192
f 65//193 33//193 1//193
f 224//194 256//194 288//194
f 2//1 98//1 97//1
f 3//2 99//2 98//2
f 4//3 100//3 99//3
f 5//4 101//4 100//4
f 6//5 102//5 101//5
f 7//195 103//195 102//195
f 8//7 104//7 103//7
f 9//8 105//8 104//8
f 10//9 106//9 105//9
f 11//10 107//10 106//10
f 12//11 108//11 107//11
f 13//12 109//12 108//12
f 14//13 110//13 109//13
f 15//14 111//14 110//14
f 16//15 112//15 111//15
f 17//16 113//16 112//16
f 18//17 114//17 113//17
f 19//18 115//18 114//18
f 20//19 116//19 115//19
f 21//20 117//20 116//20
f 22//21 118//21 117//21
f 23//22 119//22 118//22
f 24//23 120//23 119//23
f 25//24 121//24 120//24
f 26//25 122//25 121//25
f 27//26 123//26 122//26
f 28//27 124//27 123//27
f 29//28 125//28 124//28
f 30//29 126//29 125//29
f 31//30 127//30 126//30
f 32//31 128//31 127//31
f 33//32 129//32 128//32
f 34//33 130//33 129//33
f 35//34 131//34 130//34
f 36//35 132//35 131//35
f 37//36 133//36 132//36
f 38//37 134//37 133//37
f 39//38 135//38 134//38
f 40//39 136//39 135//39
f 41//40 137//40 136//40
f 42//41 138//41 137//41
f 43//42 139//42 138//42
f 44//196 140//196 139//196
f 45//44 141//44 140//44
f 46//45 142//45 141//45
f 47//46 143//46 142//46
f 48//47 144//47 143//47
f 49//48 145//48 144//48
f 50//49 146//49 145//49
f 51//50 147//50 146//50
f 52//51 148//51 147//51
f 53//52 149//52 148//52
f 54//53 150//53 149//53
f 55//197 151//197 150//197
f 56//55 152//55 151//55
f 57//56 153//56 152//56
f 58//57 154//57 153//57
f 59//58 155//58 154//58
f 60//59 156//59 155//59
f 61//60 157//60 156//60
f 62//61 158//61 157//61
f 63//62 159//62 158//62
f 64//63 160//63 159//63
f 65//64 161//64 160//64
f 66//65 162//65 161//65
f 67//66 163//66 162//66
f 68//67 164//67 163//67
f 69//68 165//68 164//68
f 70//69 166//69 165//69
f 71//70 167//70 166//70
f 72//71 168//71 167//71
f 73//72 169//72 168//72
f 74//73 170//73 169//73
f 75//74 171//74 170//74
f 76//75 172//75 171//75
f 77//76 173//76 172//76
f 78//77 174//77 173//77
f 79//78 175//78 174//78
f 80//79 176//79 175//79
f 81//80 177//80 176//80
f 82//81 178//81 177//81
f 83//82 179//82 178//82
f 84//83 180//83 179//83
f 85//84 181//84 180//84
f 86//85 182//85 181//85
f 87//86 183//86 182//86
f 88//87 184//87 183//87
f 89//88 185//88 184//88
f 90//89 186//89 185//89
f 91//90 187//90 186//90
f 92//198 188//198 187//198
f 93//92 189//92 188//92
f 94//93 190//93 189//93
f 95//94 191//94 190//94
f 96//95 192//95 191//95
f 1//96 97//96 192//96
f 98//97 194//97 193//97
f 99//98 195//98 194//98
f 100//99 196//99 195//99
f 100//100 101//100 197//100
f 102//101 198//101 197//101
f 103//102 199//102 198//102
f 103//199 104//199 200//199
f 105//104 201//104 200//104
f 106//105 202//105 201//105
f 106//106 107//106 203//106
f 108//107 204//107 203//107
f 109//108 205//108 204//108
f 109//109 110//109 206//109
f 110//110 111//110 207//110
f 112//111 208//111 207//111
f 113//112 209//112 208//112
f 114//113 210//113 209//113
f 115//114 211//114 210//114
f 116//115 212//115 211//115
f 116//116 117//116 213//116
f 118//117 214//117 213//117
f 119//118 215//118 214//118
f 120//119 216//119 215//119
f 120//120 121//120 217//120
f 122//121 218//121 217//121
f 123//122 219//122 218//122
f 124//123 220//123 219//123
f 124//124 125//124 221//124
f 126//125 222//125 221//125
f 127//126 223//126 222//126
f 127//127 128//127 224//127
f 129//128 225//128 224//128
f 130//129 226//129 225//129
f 130//130 131//130 227//130
f 132//131 228//131 227//131
f 133//132 229//132 228//132
f 133//133 134//133 230//133
f 134//134 135//134 231//134
f 136//135 232//135 231//135
f 137//136 233//136 232//136
f 138//137 234//137 233//137
f 139//200 235//200 234//200
f 140//139 236//139 235//139
f 140//140 141//140 237//140
f 142//141 238//141 237//141
f 143//201 239//201 238//201
f 144//143 240//143 239//143
f 144//144 145//144 241//144
f 146//145 242//145 241//145
f 147//146 243//146 242//146
f 148//147 244//147 243//147
f 148//148 149//148 245//148
f 150//149 246//149 245//149
f 151//150 247//150 246//150
f 151//202 152//202 248//202
f 153//152 249//152 248//152
f 154//153 250//153 249//153
f 154//154 155//154 251//154
f 156//155 252//155 251//155
f 157//156 253//156 252//156
f 157//157 158//157 254//157
f 158//158 159//158 255//158
f 160//159 256//159 255//159
f 161//160 257//160 256//160
f 162//161 258//161 257//161
f 163//162 259//162 258//162
f 164//163 260//163 259//163
f 164//164 165//164 261//164
f 166//165 262//165 261//165
f 167//166 263//166 262//166
f 168//167 264//167 263//167
f 168//168 169//168 265//168
f 170//169 266//169 265//169
f 171//170 267//170 266//170
f 172//171 268//171 267//171
f 172//172 173//172 269//172
f 174//173 270//173 269//173
f 175//174 271//174 270//174
f 175//175 176//175 272//175
f 177//176 273//176 272//176
f 178//177 274//177 273//177
f 178//178 179//178 275//178
f 180//179 276//179 275//179
f 181//180 277//180 276//180
f 181//181 182//181 278//181
f 182//182 183//182 279//182
f 184//183 280//183 279//183
f 185//184 281//184 280//184
f 186//185 282//185 281//185
f 187//203 283//203 282//203
f 188//187 284//187 283//187
f 188//188 189//188 285//188
f 190//189 286//189 285//189
f 191//204 287//204 286//204
f 192//191 288//191 287//191
f 192//192 97//192 193//192
f 1//193 96//193 95//193
f 95//193 94//193 93//193
f 93//193 92//193 91//193
f 91//193 90//193 89//193
f 89//193 88//193 87//193
f 87//193 86//193 85//193
f 85//193 84//193 83//193
f 83//193 82//193 81//193
f 81//193 80//193 79//193
f 79//193 78//193 77//193
f 77//193 76//193 75//193
f 75//193 74//193 73//193
f 73//193 72//193 71//193
f 71//193 70//193 69//193
f 69//193 68//193 67//193
f 67//193 66//193 65//193
f 65//193 64//193 63//193
f 63//193 62//193 61//193
f 61//193 60//193 59//193
f 59//193 58//193 57//193
f 57//193 56//193 55//193
f 55//193 54//193 53//193
f 53//193 52//193 51//193
f 51//193 50//193 49//193
f 49//193 48//193 47//193
f 47//193 46//193 45//193
f 45//193 44//193 43//193
f 43//193 42//193 41//193
f 41//193 40//193 39//193
f 39//193 38//193 37//193
f 37//193 36//193 35//193
f 35//193 34//193 33//193
f 33//193 32//193 31//193
f 31//193 30//193 29//193
f 29//193 28//193 27//193
f 27//193 26//193 25//193
f 25//193 24//193 23//193
f 23//193 22//193 21//193
f 21//193 20//193 19//193
f 19//193 18//193 17//193
f 17//193 16//193 15//193
f 15//193 14//193 13//193
f 13//193 12//193 11//193
f 11//193 10//193 9//193
f 9//193 8//193 7//193
f 7//193 6//193 5//193
f 5//193 4//193 3//193
f 3//193 2//193 1//193
f 1//193 95//193 93//193
f 93//193 91//193 89//193
f 89//193 87//193 85//193
f 85//193 83//193 81//193
f 81//193 79//193 77//193
f 77//193 75//193 73//193
f 73//193 71//193 69//193
f 69//193 67//193 65//193
f 65//193 63//193 61//193
f 61//193 59//193 57//193
f 57//193 55//193 53//193
f 53//193 51//193 49//193
f 49//193 47//193 45//193
f 45//193 43//193 41//193
f 41//193 39//193 37//193
f 37//193 35//193 33//193
f 33//193 31//193 29//193
f 29//193 27//193 25//193
f 25//193 23//193 21//193
f 21//193 19//193 17//193
f 17//193 15//193 13//193
f 13//193 11//193 9//193
f 9//193 7//193 5//193
f 5//193 3//193 1//193
f 1//193 93//193 89//193
f 89//193 85//193 81//193
f 81//193 77//193 73//193
f 73//193 69//193 65//193
f 65//193 61//193 57//193
f 57//193 53//193 49//193
f 49//193 45//193 41//193
f 41//193 37//193 33//193
f 33//193 29//193 25//193
f 25//193 21//193 17//193
f 17//193 13//193 9//193
f 9//193 5//193 1//193
f 1//193 89//193 81//193
f 81//193 73//193 65//193
f 65//193 57//193 49//193
f 49//193 41//193 33//193
f 33//193 25//193 17//193
f 17//193 9//193 1//193
f 1//193 81//193 65//193
f 65//193 49//193 33//193
f 33//193 17//193 1//193
f 288//194 193//194 194//194
f 194//194 195//194 196//194
f 196//194 197//194 198//194
f 198//194 199//194 200//194
f 200//194 201//194 202//194
f 202//194 203//194 204//194
f 204//194 205//194 206//194
f 206//194 207//194 208//194
f 208//194 209//194 210//194
f 210//194 211//194 212//194
f 212//194 213//194 214//194
f 214//194 215//194 216//194
f 216//194 217//194 218//194
f 218//194 219//194 220//194
f 220//194 221//194 222//194
f 222//194 223//194 224//194
f 224//194 225//194 226//194
f 226//194 227//194 228//194
f 228//194 229//194 230//194
f 230//194 231//194 232//194
f 232//194 233//194 234//194
f 234//194 235//194 236//194
f 236//194 237//194 238//194
f 238//194 239//194 240//194
f 240//194 241//194 242//194
f 242//194 243//194 244//194
f 244//194 245//194 246//194
f 246//194 247//194 248//194
f 248//194 249//194 250//194
f 250//194 251//194 252//194
f 252//194 253//194 254//194
f 254//194 255//194 256//194
f 256//194 257//194 258//194
f 258//194 259//194 260//194
f 260//194 261//194 262//194
f 262//194 263//194 264//194
f 264//194 265//194 266//194
f 266//194 267//194 268//194
f 268//194 269//194 270//194
f 270//194 271//194 272//194
f 272//194 273//194 274//194
f 274//194 275//194 276//194
f 276//194 277//194 278//194
f 278//194 279//194 280//194
f 280//194 281//194 282//194
f 282//194 283//194 284//194
f 284//194 285//194 286//194
f 286//194 287//194 288//194
f 288//194 194//194 196//194
f 196//194 198//194 200//194
f 200//194 202//194 204//194
f 204//194 206//194 208//194
f 208//194 210//194 212//194
f 212//194 214//194 216//194
f 216//194 218//194 220//194
f 220//194 222//194 224//194
f 224//194 226//194 228//194
f 228//194 230//194 232//194
f 232//194 234//194 236//194
f 236//194 238//194 240//194
f 240//194 242//194 244//194
f 244//194 246//194 248//194
f 248//194 250//194 252//194
f 252//194 254//194 256//194
f 256//194 258//194 260//194
f 260//194 262//194 264//194
f 264//194 266//194 268//194
f 268//194 270//194 272//194
f 272//194 274//194 276//194
f 276//194 278//194 280//194
f 280//194 282//194 284//194
f 284//194 286//194 288//194
f 288//194 196//194 200//194
f 200//194 204//194 208//194
f 208//194 212//194 216//194
f 216//194 220//194 224//194
f 224//194 228//194 232//194
f 232//194 236//194 240//194
f 240//194 244//194 248//194
f 248//194 252//194 256//194
f 256//194 260//194 264//194
f 264//194 268//194 272//194
f 272//194 276//194 280//194
f 280//194 284//194 288//194
f 288//194 200//194 208//194
f 208//194 216//194 224//194
f 224//194 232//194 240//194
f 240//194 248//194 256//194
f 256//194 264//194 272//194
f 272//194 280//194 288//194
f 288//194 208//194 224//194
f 224//194 240//194 256//194
f 256//194 272//194 288//194
