# Blender 5.2.2 LTS
# www.blender.org
mtllib grease_collector_ok.mtl
o grease_collector_ok
v -2.850000 -0.890000 -0.646511
v -2.850000 -0.890000 -0.466511
v -2.842168 -0.890513 -0.646511
v -2.842168 -0.890513 -0.466511
v -2.834471 -0.892044 -0.646511
v -2.834471 -0.892044 -0.466511
v -2.827039 -0.894567 -0.646511
v -2.827039 -0.894567 -0.466511
v -2.820000 -0.898038 -0.646511
v -2.820000 -0.898038 -0.466511
v -2.813474 -0.902399 -0.646511
v -2.813474 -0.902399 -0.466511
v -2.807574 -0.907574 -0.646511
v -2.807574 -0.907574 -0.466511
v -2.802399 -0.913474 -0.646511
v -2.802399 -0.913474 -0.466511
v -2.798038 -0.920000 -0.646511
v -2.798038 -0.920000 -0.466511
v -2.794567 -0.927039 -0.646511
v -2.794567 -0.927039 -0.466511
v -2.792044 -0.934471 -0.646511
v -2.792044 -0.934471 -0.466511
v -2.790513 -0.942168 -0.646511
v -2.790513 -0.942168 -0.466511
v -2.790000 -0.950000 -0.646511
v -2.790000 -0.950000 -0.466511
v -2.790513 -0.957832 -0.646511
v -2.790513 -0.957832 -0.466511
v -2.792044 -0.965529 -0.646511
v -2.792044 -0.965529 -0.466511
v -2.794567 -0.972961 -0.646511
v -2.794567 -0.972961 -0.466511
v -2.798038 -0.980000 -0.646511
v -2.798038 -0.980000 -0.466511
v -2.802399 -0.986526 -0.646511
v -2.802399 -0.986526 -0.466511
v -2.807574 -0.992426 -0.646511
v -2.807574 -0.992426 -0.466511
v -2.813474 -0.997601 -0.646511
v -2.813474 -0.997601 -0.466511
v -2.820000 -1.001961 -0.646511
v -2.820000 -1.001961 -0.466511
v -2.827039 -1.005433 -0.646511
v -2.827039 -1.005433 -0.466511
v -2.834471 -1.007956 -0.646511
v -2.834471 -1.007956 -0.466511
v -2.842168 -1.009487 -0.646511
v -2.842168 -1.009487 -0.466511
v -2.850000 -1.010000 -0.646511
v -2.850000 -1.010000 -0.466511
v -2.857831 -1.009487 -0.646511
v -2.857831 -1.009487 -0.466511
v -2.865529 -1.007956 -0.646511
v -2.865529 -1.007956 -0.466511
v -2.872961 -1.005433 -0.646511
v -2.872961 -1.005433 -0.466511
v -2.880000 -1.001961 -0.646511
v -2.880000 -1.001961 -0.466511
v -2.886526 -0.997601 -0.646511
v -2.886526 -0.997601 -0.466511
v -2.892426 -0.992426 -0.646511
v -2.892426 -0.992426 -0.466511
v -2.897601 -0.986526 -0.646511
v -2.897601 -0.986526 -0.466511
v -2.901961 -0.980000 -0.646511
v -2.901961 -0.980000 -0.466511
v -2.905433 -0.972961 -0.646511
v -2.905433 -0.972961 -0.466511
v -2.907955 -0.965529 -0.646511
v -2.907955 -0.965529 -0.466511
v -2.909487 -0.957832 -0.646511
v -2.909487 -0.957832 -0.466511
v -2.910000 -0.950000 -0.646511
v -2.910000 -0.950000 -0.466511
v -2.909487 -0.942168 -0.646511
v -2.909487 -0.942168 -0.466511
v -2.907955 -0.934471 -0.646511
v -2.907955 -0.934471 -0.466511
v -2.905433 -0.927039 -0.646511
v -2.905433 -0.927039 -0.466511
v -2.901961 -0.920000 -0.646511
v -2.901961 -0.920000 -0.466511
v -2.897601 -0.913474 -0.646511
v -2.897601 -0.913474 -0.466511
v -2.892426 -0.907574 -0.646511
v -2.892426 -0.907574 -0.466511
v -2.886526 -0.902399 -0.646511
v -2.886526 -0.902399 -0.466511
v -2.880000 -0.898038 -0.646511
v -2.880000 -0.898038 -0.466511
v -2.872961 -0.894567 -0.646511
v -2.872961 -0.894567 -0.466511
v -2.865529 -0.892044 -0.646511
v -2.865529 -0.892044 -0.466511
v -2.857831 -0.890513 -0.646511
v -2.857831 -0.890513 -0.466511
v -2.850000 -0.888000 -0.644511
v -2.850000 -0.888000 -0.599511
v -2.841907 -0.888530 -0.644511
v -2.841907 -0.888530 -0.599511
v -2.833953 -0.890113 -0.644511
v -2.833953 -0.890113 -0.599511
v -2.826273 -0.892719 -0.644511
v -2.826273 -0.892719 -0.599511
v -2.819000 -0.896306 -0.644511
v -2.819000 -0.896306 -0.599511
v -2.812257 -0.900812 -0.644511
v -2.812257 -0.900812 -0.599511
v -2.806159 -0.906159 -0.644511
v -2.806159 -0.906159 -0.599511
v -2.800812 -0.912257 -0.644511
v -2.800812 -0.912257 -0.599511
v -2.796306 -0.919000 -0.644511
v -2.796306 -0.919000 -0.599511
v -2.792719 -0.926274 -0.644511
v -2.792719 -0.926274 -0.599511
v -2.790112 -0.933953 -0.644511
v -2.790112 -0.933953 -0.599511
v -2.788530 -0.941907 -0.644511
v -2.788530 -0.941907 -0.599511
v -2.788000 -0.950000 -0.644511
v -2.788000 -0.950000 -0.599511
v -2.788530 -0.958093 -0.644511
v -2.788530 -0.958093 -0.599511
v -2.790112 -0.966047 -0.644511
v -2.790112 -0.966047 -0.599511
v -2.792719 -0.973726 -0.644511
v -2.792719 -0.973726 -0.599511
v -2.796306 -0.981000 -0.644511
v -2.796306 -0.981000 -0.599511
v -2.800812 -0.987743 -0.644511
v -2.800812 -0.987743 -0.599511
v -2.806159 -0.993841 -0.644511
v -2.806159 -0.993841 -0.599511
v -2.812257 -0.999188 -0.644511
v -2.812257 -0.999188 -0.599511
v -2.819000 -1.003694 -0.644511
v -2.819000 -1.003694 -0.599511
v -2.826273 -1.007280 -0.644511
v -2.826273 -1.007280 -0.599511
v -2.833953 -1.009887 -0.644511
v -2.833953 -1.009887 -0.599511
v -2.841907 -1.011470 -0.644511
v -2.841907 -1.011470 -0.599511
v -2.850000 -1.012000 -0.644511
v -2.850000 -1.012000 -0.599511
v -2.858093 -1.011470 -0.644511
v -2.858093 -1.011470 -0.599511
v -2.866047 -1.009887 -0.644511
v -2.866047 -1.009887 -0.599511
v -2.873726 -1.007280 -0.644511
v -2.873726 -1.007280 -0.599511
v -2.881000 -1.003694 -0.644511
v -2.881000 -1.003694 -0.599511
v -2.887743 -0.999188 -0.644511
v -2.887743 -0.999188 -0.599511
v -2.893841 -0.993841 -0.644511
v -2.893841 -0.993841 -0.599511
v -2.899188 -0.987743 -0.644511
v -2.899188 -0.987743 -0.599511
v -2.903693 -0.981000 -0.644511
v -2.903693 -0.981000 -0.599511
v -2.907280 -0.973726 -0.644511
v -2.907280 -0.973726 -0.599511
v -2.909887 -0.966047 -0.644511
v -2.909887 -0.966047 -0.599511
v -2.911469 -0.958093 -0.644511
v -2.911469 -0.958093 -0.599511
v -2.912000 -0.950000 -0.644511
v -2.912000 -0.950000 -0.599511
v -2.911469 -0.941907 -0.644511
v -2.911469 -0.941907 -0.599511
v -2.909887 -0.933953 -0.644511
v -2.909887 -0.933953 -0.599511
v -2.907280 -0.926274 -0.644511
v -2.907280 -0.926274 -0.599511
v -2.903693 -0.919000 -0.644511
v -2.903693 -0.919000 -0.599511
v -2.899188 -0.912257 -0.644511
v -2.899188 -0.912257 -0.599511
v -2.893841 -0.906159 -0.644511
v -2.893841 -0.906159 -0.599511
v -2.887743 -0.900812 -0.644511
v -2.887743 -0.900812 -0.599511
v -2.881000 -0.896306 -0.644511
v -2.881000 -0.896306 -0.599511
v -2.873726 -0.892719 -0.644511
v -2.873726 -0.892719 -0.599511
v -2.866047 -0.890113 -0.644511
v -2.866047 -0.890113 -0.599511
v -2.858093 -0.888530 -0.644511
v -2.858093 -0.888530 -0.599511
v -2.850000 -0.914000 -0.466511
v -2.850000 -0.914000 -0.436511
v -2.845301 -0.914308 -0.466511
v -2.845301 -0.914308 -0.436511
v -2.840683 -0.915227 -0.466511
v -2.840683 -0.915227 -0.436511
v -2.836223 -0.916740 -0.466511
v -2.836223 -0.916740 -0.436511
v -2.832000 -0.918823 -0.466511
v -2.832000 -0.918823 -0.436511
v -2.828084 -0.921439 -0.466511
v -2.828084 -0.921439 -0.436511
v -2.824544 -0.924544 -0.466511
v -2.824544 -0.924544 -0.436511
v -2.821439 -0.928085 -0.466511
v -2.821439 -0.928085 -0.436511
v -2.818823 -0.932000 -0.466511
v -2.818823 -0.932000 -0.436511
v -2.816740 -0.936223 -0.466511
v -2.816740 -0.936223 -0.436511
v -2.815227 -0.940683 -0.466511
v -2.815227 -0.940683 -0.436511
v -2.814308 -0.945301 -0.466511
v -2.814308 -0.945301 -0.436511
v -2.814000 -0.950000 -0.466511
v -2.814000 -0.950000 -0.436511
v -2.814308 -0.954699 -0.466511
v -2.814308 -0.954699 -0.436511
v -2.815227 -0.959317 -0.466511
v -2.815227 -0.959317 -0.436511
v -2.816740 -0.963777 -0.466511
v -2.816740 -0.963777 -0.436511
v -2.818823 -0.968000 -0.466511
v -2.818823 -0.968000 -0.436511
v -2.821439 -0.971915 -0.466511
v -2.821439 -0.971915 -0.436511
v -2.824544 -0.975456 -0.466511
v -2.824544 -0.975456 -0.436511
v -2.828084 -0.978561 -0.466511
v -2.828084 -0.978561 -0.436511
v -2.832000 -0.981177 -0.466511
v -2.832000 -0.981177 -0.436511
v -2.836223 -0.983260 -0.466511
v -2.836223 -0.983260 -0.436511
v -2.840683 -0.984773 -0.466511
v -2.840683 -0.984773 -0.436511
v -2.845301 -0.985692 -0.466511
v -2.845301 -0.985692 -0.436511
v -2.850000 -0.986000 -0.466511
v -2.850000 -0.986000 -0.436511
v -2.854699 -0.985692 -0.466511
v -2.854699 -0.985692 -0.436511
v -2.859317 -0.984773 -0.466511
v -2.859317 -0.984773 -0.436511
v -2.863776 -0.983260 -0.466511
v -2.863776 -0.983260 -0.436511
v -2.868000 -0.981177 -0.466511
v -2.868000 -0.981177 -0.436511
v -2.871915 -0.978561 -0.466511
v -2.871915 -0.978561 -0.436511
v -2.875456 -0.975456 -0.466511
v -2.875456 -0.975456 -0.436511
v -2.878561 -0.971915 -0.466511
v -2.878561 -0.971915 -0.436511
v -2.881177 -0.968000 -0.466511
v -2.881177 -0.968000 -0.436511
v -2.883260 -0.963777 -0.466511
v -2.883260 -0.963777 -0.436511
v -2.884773 -0.959317 -0.466511
v -2.884773 -0.959317 -0.436511
v -2.885692 -0.954699 -0.466511
v -2.885692 -0.954699 -0.436511
v -2.886000 -0.950000 -0.466511
v -2.886000 -0.950000 -0.436511
v -2.885692 -0.945301 -0.466511
v -2.885692 -0.945301 -0.436511
v -2.884773 -0.940683 -0.466511
v -2.884773 -0.940683 -0.436511
v -2.883260 -0.936223 -0.466511
v -2.883260 -0.936223 -0.436511
v -2.881177 -0.932000 -0.466511
v -2.881177 -0.932000 -0.436511
v -2.878561 -0.928085 -0.466511
v -2.878561 -0.928085 -0.436511
v -2.875456 -0.924544 -0.466511
v -2.875456 -0.924544 -0.436511
v -2.871915 -0.921439 -0.466511
v -2.871915 -0.921439 -0.436511
v -2.868000 -0.918823 -0.466511
v -2.868000 -0.918823 -0.436511
v -2.863776 -0.916740 -0.466511
v -2.863776 -0.916740 -0.436511
v -2.859317 -0.915227 -0.466511
v -2.859317 -0.915227 -0.436511
v -2.854699 -0.914308 -0.466511
v -2.854699 -0.914308 -0.436511
vn 0.0654 0.9979 -0.0000
vn 0.1951 0.9808 -0.0000
vn 0.3214 0.9469 -0.0000
vn 0.4423 0.8969 -0.0000
vn 0.5556 0.8315 -0.0000
vn 0.6593 0.7518 -0.0000
vn 0.7518 0.6593 -0.0000
vn 0.8315 0.5556 -0.0000
vn 0.8969 0.4423 -0.0000
vn 0.9469 0.3214 -0.0000
vn 0.9808 0.1951 -0.0000
vn 0.9979 0.0654 -0.0000
vn 0.9979 -0.0654 -0.0000
vn 0.9808 -0.1951 -0.0000
vn 0.9469 -0.3214 -0.0000
vn 0.8969 -0.4423 -0.0000
vn 0.8315 -0.5556 -0.0000
vn 0.7518 -0.6593 -0.0000
vn 0.6593 -0.7518 -0.0000
vn 0.5556 -0.8315 -0.0000
vn 0.4423 -0.8969 -0.0000
vn 0.3214 -0.9469 -0.0000
vn 0.1951 -0.9808 -0.0000
vn 0.0654 -0.9979 -0.0000
vn -0.0654 -0.9979 -0.0000
vn -0.1951 -0.9808 -0.0000
vn -0.3214 -0.9469 -0.0000
vn -0.4423 -0.8969 -0.0000
vn -0.5556 -0.8315 -0.0000
vn -0.6593 -0.7518 -0.0000
vn -0.7518 -0.6593 -0.0000
vn -0.8315 -0.5556 -0.0000
vn -0.8969 -0.4423 -0.0000
vn -0.9469 -0.3214 -0.0000
vn -0.9808 -0.1951 -0.0000
vn -0.9979 -0.0654 -0.0000
vn -0.9979 0.0654 -0.0000
vn -0.9808 0.1951 -0.0000
vn -0.9469 0.3214 -0.0000
vn -0.8969 0.4423 -0.0000
vn -0.8315 0.5556 -0.0000
vn -0.7518 0.6593 -0.0000
vn -0.6593 0.7518 -0.0000
vn -0.5556 0.8315 -0.0000
vn -0.4423 0.8969 -0.0000
vn -0.3214 0.9469 -0.0000
vn -0.0000 -0.0000 1.0000
vn -0.1951 0.9808 -0.0000
vn -0.0654 0.9979 -0.0000
vn -0.0000 -0.0000 -1.0000
s 0
usemtl bottle_white
f 2//1 3//1 1//1
f 4//2 5//2 3//2
f 6//3 7//3 5//3
f 8//4 9//4 7//4
f 10//5 11//5 9//5
f 12//6 13//6 11//6
f 14//7 15//7 13//7
f 16//8 17//8 15//8
f 18//9 19//9 17//9
f 20//10 21//10 19//10
f 22//11 23//11 21//11
f 24//12 25//12 23//12
f 26//13 27//13 25//13
f 28//14 29//14 27//14
f 30//15 31//15 29//15
f 32//16 33//16 31//16
f 34//17 35//17 33//17
f 36//18 37//18 35//18
f 38//19 39//19 37//19
f 40//20 41//20 39//20
f 42//21 43//21 41//21
f 44//22 45//22 43//22
f 46//23 47//23 45//23
f 48//24 49//24 47//24
f 50//25 51//25 49//25
f 52//26 53//26 51//26
f 54//27 55//27 53//27
f 56//28 57//28 55//28
f 58//29 59//29 57//29
f 60//30 61//30 59//30
f 62//31 63//31 61//31
f 64//32 65//32 63//32
f 66//33 67//33 65//33
f 68//34 69//34 67//34
f 70//35 71//35 69//35
f 72//36 73//36 71//36
f 74//37 75//37 73//37
f 76//38 77//38 75//38
f 78//39 79//39 77//39
f 80//40 81//40 79//40
f 82//41 83//41 81//41
f 84//42 85//42 83//42
f 86//43 87//43 85//43
f 88//44 89//44 87//44
f 90//45 91//45 89//45
f 92//46 93//46 91//46
f 70//47 38//47 6//47
f 94//48 95//48 93//48
f 96//49 1//49 95//49
f 31//50 63//50 95//50
f 2//1 4//1 3//1
f 4//2 6//2 5//2
f 6//3 8//3 7//3
f 8//4 10//4 9//4
f 10//5 12//5 11//5
f 12//6 14//6 13//6
f 14//7 16//7 15//7
f 16//8 18//8 17//8
f 18//9 20//9 19//9
f 20//10 22//10 21//10
f 22//11 24//11 23//11
f 24//12 26//12 25//12
f 26//13 28//13 27//13
f 28//14 30//14 29//14
f 30//15 32//15 31//15
f 32//16 34//16 33//16
f 34//17 36//17 35//17
f 36//18 38//18 37//18
f 38//19 40//19 39//19
f 40//20 42//20 41//20
f 42//21 44//21 43//21
f 44//22 46//22 45//22
f 46//23 48//23 47//23
f 48//24 50//24 49//24
f 50//25 52//25 51//25
f 52//26 54//26 53//26
f 54//27 56//27 55//27
f 56//28 58//28 57//28
f 58//29 60//29 59//29
f 60//30 62//30 61//30
f 62//31 64//31 63//31
f 64//32 66//32 65//32
f 66//33 68//33 67//33
f 68//34 70//34 69//34
f 70//35 72//35 71//35
f 72//36 74//36 73//36
f 74//37 76//37 75//37
f 76//38 78//38 77//38
f 78//39 80//39 79//39
f 80//40 82//40 81//40
f 82//41 84//41 83//41
f 84//42 86//42 85//42
f 86//43 88//43 87//43
f 88//44 90//44 89//44
f 90//45 92//45 91//45
f 92//46 94//46 93//46
f 6//47 4//47 2//47
f 2//47 96//47 94//47
f 94//47 92//47 90//47
f 90//47 88//47 86//47
f 86//47 84//47 82//47
f 82//47 80//47 78//47
f 78//47 76//47 74//47
f 74//47 72//47 70//47
f 70//47 68//47 66//47
f 66//47 64//47 62//47
f 62//47 60//47 58//47
f 58//47 56//47 54//47
f 54//47 52//47 50//47
f 50//47 48//47 46//47
f 46//47 44//47 42//47
f 42//47 40//47 38//47
f 38//47 36//47 34//47
f 34//47 32//47 30//47
f 30//47 28//47 26//47
f 26//47 24//47 22//47
f 22//47 20//47 18//47
f 18//47 16//47 14//47
f 14//47 12//47 10//47
f 10//47 8//47 6//47
f 6//47 2//47 94//47
f 94//47 90//47 86//47
f 86//47 82//47 78//47
f 78//47 74//47 70//47
f 70//47 66//47 62//47
f 62//47 58//47 54//47
f 54//47 50//47 46//47
f 46//47 42//47 38//47
f 38//47 34//47 30//47
f 30//47 26//47 22//47
f 22//47 18//47 14//47
f 14//47 10//47 6//47
f 6//47 94//47 86//47
f 86//47 78//47 70//47
f 70//47 62//47 54//47
f 54//47 46//47 38//47
f 38//47 30//47 22//47
f 22//47 14//47 6//47
f 6//47 86//47 70//47
f 70//47 54//47 38//47
f 38//47 22//47 6//47
f 94//48 96//48 95//48
f 96//49 2//49 1//49
f 95//50 1//50 3//50
f 3//50 5//50 7//50
f 7//50 9//50 11//50
f 11//50 13//50 15//50
f 15//50 17//50 19//50
f 19//50 21//50 23//50
f 23//50 25//50 27//50
f 27//50 29//50 31//50
f 31//50 33//50 35//50
f 35//50 37//50 39//50
f 39//50 41//50 43//50
f 43//50 45//50 47//50
f 47//50 49//50 51//50
f 51//50 53//50 55//50
f 55//50 57//50 59//50
f 59//50 61//50 63//50
f 63//50 65//50 67//50
f 67//50 69//50 71//50
f 71//50 73//50 75//50
f 75//50 77//50 79//50
f 79//50 81//50 83//50
f 83//50 85//50 87//50
f 87//50 89//50 91//50
f 91//50 93//50 95//50
f 95//50 3//50 7//50
f 7//50 11//50 15//50
f 15//50 19//50 23//50
f 23//50 27//50 31//50
f 31//50 35//50 39//50
f 39//50 43//50 47//50
f 47//50 51//50 55//50
f 55//50 59//50 63//50
f 63//50 67//50 71//50
f 71//50 75//50 79//50
f 79//50 83//50 87//50
f 87//50 91//50 95//50
f 95//50 7//50 15//50
f 15//50 23//50 31//50
f 31//50 39//50 47//50
f 47//50 55//50 63//50
f 63//50 71//50 79//50
f 79//50 87//50 95//50
f 95//50 15//50 31//50
f 31//50 47//50 63//50
f 63//50 79//50 95//50
usemtl grease
f 98//1 99//1 97//1
f 100//2 101//2 99//2
f 102//3 103//3 101//3
f 104//4 105//4 103//4
f 106//5 107//5 105//5
f 108//6 109//6 107//6
f 110//7 111//7 109//7
f 112//8 113//8 111//8
f 114//9 115//9 113//9
f 116//10 117//10 115//10
f 118//11 119//11 117//11
f 120//12 121//12 119//12
f 122//13 123//13 121//13
f 124//14 125//14 123//14
f 126//15 127//15 125//15
f 128//16 129//16 127//16
f 130//17 131//17 129//17
f 132//18 133//18 131//18
f 134//19 135//19 133//19
f 136//20 137//20 135//20
f 138//21 139//21 137//21
f 140//22 141//22 139//22
f 142//23 143//23 141//23
f 144//24 145//24 143//24
f 146//25 147//25 145//25
f 148//26 149//26 147//26
f 150//27 151//27 149//27
f 152//28 153//28 151//28
f 154//29 155//29 153//29
f 156//30 157//30 155//30
f 158//31 159//31 157//31
f 160//32 161//32 159//32
f 162//33 163//33 161//33
f 164//34 165//34 163//34
f 166//35 167//35 165//35
f 168//36 169//36 167//36
f 170//37 171//37 169//37
f 172//38 173//38 171//38
f 174//39 175//39 173//39
f 176//40 177//40 175//40
f 178//41 179//41 177//41
f 180//42 181//42 179//42
f 182//43 183//43 181//43
f 184//44 185//44 183//44
f 186//45 187//45 185//45
f 188//46 189//46 187//46
f 166//47 134//47 102//47
f 190//48 191//48 189//48
f 192//49 97//49 191//49
f 127//50 159//50 191//50
f 98//1 100//1 99//1
f 100//2 102//2 101//2
f 102//3 104//3 103//3
f 104//4 106//4 105//4
f 106//5 108//5 107//5
f 108//6 110//6 109//6
f 110//7 112//7 111//7
f 112//8 114//8 113//8
f 114//9 116//9 115//9
f 116//10 118//10 117//10
f 118//11 120//11 119//11
f 120//12 122//12 121//12
f 122//13 124//13 123//13
f 124//14 126//14 125//14
f 126//15 128//15 127//15
f 128//16 130//16 129//16
f 130//17 132//17 131//17
f 132//18 134//18 133//18
f 134//19 136//19 135//19
f 136//20 138//20 137//20
f 138//21 140//21 139//21
f 140//22 142//22 141//22
f 142//23 144//23 143//23
f 144//24 146//24 145//24
f 146//25 148//25 147//25
f 148//26 150//26 149//26
f 150//27 152//27 151//27
f 152//28 154//28 153//28
f 154//29 156//29 155//29
f 156//30 158//30 157//30
f 158//31 160//31 159//31
f 160//32 162//32 161//32
f 162//33 164//33 163//33
f 164//34 166//34 165//34
f 166//35 168//35 167//35
f 168//36 170//36 169//36
f 170//37 172//37 171//37
f 172//38 174//38 173//38
f 174//39 176//39 175//39
f 176//40 178//40 177//40
f 178//41 180//41 179//41
f 180//42 182//42 181//42
f 182//43 184//43 183//43
f 184//44 186//44 185//44
f 186//45 188//45 187//45
f 188//46 190//46 189//46
f 102//47 100//47 98//47
f 98//47 192//47 190//47
f 190//47 188//47 186//47
f 186//47 184//47 182//47
f 182//47 180//47 178//47
f 178//47 176//47 174//47
f 174//47 172//47 170//47
f 170//47 168//47 166//47
f 166//47 164//47 162//47
f 162//47 160//47 158//47
f 158//47 156//47 154//47
f 154//47 152//47 150//47
f 150//47 148//47 146//47
f 146//47 144//47 142//47
f 142//47 140//47 138//47
f 138//47 136//47 134//47
f 134//47 132//47 130//47
f 130//47 128//47 126//47
f 126//47 124//47 122//47
f 122//47 120//47 118//47
f 118//47 116//47 114//47
f 114//47 112//47 110//47
f 110//47 108//47 106//47
f 106//47 104//47 102//47
f 102//47 98//47 190//47
f 190//47 186//47 182//47
f 182//47 178//47 174//47
f 174//47 170//47 166//47
f 166//47 162//47 158//47
f 158//47 154//47 150//47
f 150//47 146//47 142//47
f 142//47 138//47 134//47
f 134//47 130//47 126//47
f 126//47 122//47 118//47
f 118//47 114//47 110//47
f 110//47 106//47 102//47
f 102//47 190//47 182//47
f 182//47 174//47 166//47
f 166//47 158//47 150//47
f 150//47 142//47 134//47
f 134//47 126//47 118//47
f 118//47 110//47 102//47
f 102//47 182//47 166//47
f 166//47 150//47 134//47
f 134//47 118//47 102//47
f 190//48 192//48 191//48
f 192//49 98//49 97//49
f 191//50 97//50 99//50
f 99//50 101//50 103//50
f 103//50 105//50 107//50
f 107//50 109//50 111//50
f 111//50 113//50 115//50
f 115//50 117//50 119//50
f 119//50 121//50 123//50
f 123//50 125//50 127//50
f 127//50 129//50 131//50
f 131//50 133//50 135//50
f 135//50 137//50 139//50
f 139//50 141//50 143//50
f 143//50 145//50 147//50
f 147//50 149//50 151//50
f 151//50 153//50 155//50
f 155//50 157//50 159//50
f 159//50 161//50 163//50
f 163//50 165//50 167//50
f 167//50 169//50 171//50
f 171//50 173//50 175//50
f 175//50 177//50 179//50
f 179//50 181//50 183//50
f 183//50 185//50 187//50
f 187//50 189//50 191//50
f 191//50 99//50 103//50
f 103//50 107//50 111//50
f 111//50 115//50 119//50
f 119//50 123//50 127//50
f 127//50 131//50 135//50
f 135//50 139//50 143//50
f 143//50 147//50 151//50
f 151//50 155//50 159//50
f 159//50 163//50 167//50
f 167//50 171//50 175//50
f 175//50 179//50 183//50
f 183//50 187//50 191//50
f 191//50 103//50 111//50
f 111//50 119//50 127//50
f 127//50 135//50 143//50
f 143//50 151//50 159//50
f 159//50 167//50 175//50
f 175//50 183//50 191//50
f 191//50 111//50 127//50
f 127//50 143//50 159//50
f 159//50 175//50 191//50
usemtl bolt_black
f 194//1 195//1 193//1
f 196//2 197//2 195//2
f 198//3 199//3 197//3
f 200//4 201//4 199//4
f 202//5 203//5 201//5
f 204//6 205//6 203//6
f 206//7 207//7 205//7
f 208//8 209//8 207//8
f 210//9 211//9 209//9
f 212//10 213//10 211//10
f 214//11 215//11 213//11
f 216//12 217//12 215//12
f 218//13 219//13 217//13
f 220//14 221//14 219//14
f 222//15 223//15 221//15
f 224//16 225//16 223//16
f 226//17 227//17 225//17
f 228//18 229//18 227//18
f 230//19 231//19 229//19
f 232//20 233//20 231//20
f 234//21 235//21 233//21
f 236//22 237//22 235//22
f 238//23 239//23 237//23
f 240//24 241//24 239//24
f 242//25 243//25 241//25
f 244//26 245//26 243//26
f 246//27 247//27 245//27
f 248//28 249//28 247//28
f 250//29 251//29 249//29
f 252//30 253//30 251//30
f 254//31 255//31 253//31
f 256//32 257//32 255//32
f 258//33 259//33 257//33
f 260//34 261//34 259//34
f 262//35 263//35 261//35
f 264//36 265//36 263//36
f 266//37 267//37 265//37
f 268//38 269//38 267//38
f 270//39 271//39 269//39
f 272//40 273//40 271//40
f 274//41 275//41 273//41
f 276//42 277//42 275//42
f 278//43 279//43 277//43
f 280//44 281//44 279//44
f 282//45 283//45 281//45
f 284//46 285//46 283//46
f 262//47 230//47 198//47
f 286//48 287//48 285//48
f 288//49 193//49 287//49
f 223//50 255//50 287//50
f 194//1 196//1 195//1
f 196//2 198//2 197//2
f 198//3 200//3 199//3
f 200//4 202//4 201//4
f 202//5 204//5 203//5
f 204//6 206//6 205//6
f 206//7 208//7 207//7
f 208//8 210//8 209//8
f 210//9 212//9 211//9
f 212//10 214//10 213//10
f 214//11 216//11 215//11
f 216//12 218//12 217//12
f 218//13 220//13 219//13
f 220//14 222//14 221//14
f 222//15 224//15 223//15
f 224//16 226//16 225//16
f 226//17 228//17 227//17
f 228//18 230//18 229//18
f 230//19 232//19 231//19
f 232//20 234//20 233//20
f 234//21 236//21 235//21
f 236//22 238//22 237//22
f 238//23 240//23 239//23
f 240//24 242//24 241//24
f 242//25 244//25 243//25
f 244//26 246//26 245//26
f 246//27 248//27 247//27
f 248//28 250//28 249//28
f 250//29 252//29 251//29
f 252//30 254//30 253//30
f 254//31 256//31 255//31
f 256//32 258//32 257//32
f 258//33 260//33 259//33
f 260//34 262//34 261//34
f 262//35 264//35 263//35
f 264//36 266//36 265//36
f 266//37 268//37 267//37
f 268//38 270//38 269//38
f 270//39 272//39 271//39
f 272//40 274//40 273//40
f 274//41 276//41 275//41
f 276//42 278//42 277//42
f 278//43 280//43 279//43
f 280//44 282//44 281//44
f 282//45 284//45 283//45
f 284//46 286//46 285//46
f 198//47 196//47 194//47
f 194//47 288//47 286//47
f 286//47 284//47 282//47
f 282//47 280//47 278//47
f 278//47 276//47 274//47
f 274//47 272//47 270//47
f 270//47 268//47 266//47
f 266//47 264//47 262//47
f 262//47 260//47 258//47
f 258//47 256//47 254//47
f 254//47 252//47 250//47
f 250//47 248//47 246//47
f 246//47 244//47 242//47
f 242//47 240//47 238//47
f 238//47 236//47 234//47
f 234//47 232//47 230//47
f 230//47 228//47 226//47
f 226//47 224//47 222//47
f 222//47 220//47 218//47
f 218//47 216//47 214//47
f 214//47 212//47 210//47
f 210//47 208//47 206//47
f 206//47 204//47 202//47
f 202//47 200//47 198//47
f 198//47 194//47 286//47
f 286//47 282//47 278//47
f 278//47 274//47 270//47
f 270//47 266//47 262//47
f 262//47 258//47 254//47
f 254//47 250//47 246//47
f 246//47 242//47 238//47
f 238//47 234//47 230//47
f 230//47 226//47 222//47
f 222//47 218//47 214//47
f 214//47 210//47 206//47
f 206//47 202//47 198//47
f 198//47 286//47 278//47
f 278//47 270//47 262//47
f 262//47 254//47 246//47
f 246//47 238//47 230//47
f 230//47 222//47 214//47
f 214//47 206//47 198//47
f 198//47 278//47 262//47
f 262//47 246//47 230//47
f 230//47 214//47 198//47
f 286//48 288//48 287//48
f 288//49 194//49 193//49
f 287//50 193//50 195//50
f 195//50 197//50 199//50
f 199//50 201//50 203//50
f 203//50 205//50 207//50
f 207//50 209//50 211//50
f 211//50 213//50 215//50
f 215//50 217//50 219//50
f 219//50 221//50 223//50
f 223//50 225//50 227//50
f 227//50 229//50 231//50
f 231//50 233//50 235//50
f 235//50 237//50 239//50
f 239//50 241//50 243//50
f 243//50 245//50 247//50
f 247//50 249//50 251//50
f 251//50 253//50 255//50
f 255//50 257//50 259//50
f 259//50 261//50 263//50
f 263//50 265//50 267//50
f 267//50 269//50 271//50
f 271//50 273//50 275//50
f 275//50 277//50 279//50
f 279//50 281//50 283//50
f 283//50 285//50 287//50
f 287//50 195//50 199//50
f 199//50 203//50 207//50
f 207//50 211//50 215//50
f 215//50 219//50 223//50
f 223//50 227//50 231//50
f 231//50 235//50 239//50
f 239//50 243//50 247//50
f 247//50 251//50 255//50
f 255//50 259//50 263//50
f 263//50 267//50 271//50
f 271//50 275//50 279//50
f 279//50 283//50 287//50
f 287//50 199//50 207//50
f 207//50 215//50 223//50
f 223//50 231//50 239//50
f 239//50 247//50 255//50
f 255//50 263//50 271//50
f 271//50 279//50 287//50
f 287//50 207//50 223//50
f 223//50 239//50 255//50
f 255//50 271//50 287//50
