# Blender 5.2.2 LTS
# www.blender.org
mtllib grout_broken.mtl
o grout_broken
v 2.720000 0.000000 0.000000
v 2.714176 0.177897 0.000000
v 2.696730 0.355031 0.000000
v 2.667736 0.530646 0.000000
v 2.627318 0.703988 0.000000
v 2.575650 0.874315 0.000000
v 2.512952 1.040899 0.000000
v 2.439494 1.203025 0.000000
v 2.355589 1.360000 0.000000
v 2.261597 1.511151 0.000000
v 2.157921 1.655831 0.000000
v 2.045004 1.793421 0.000000
v 1.923330 1.923330 0.000000
v 1.793421 2.045004 0.000000
v 1.655831 2.157921 0.000000
v 1.511151 2.261597 0.000000
v 1.360000 2.355589 0.000000
v 1.203025 2.439494 0.000000
v 1.040899 2.512952 0.000000
v 0.874315 2.575650 0.000000
v 0.703988 2.627318 0.000000
v 0.530646 2.667736 0.000000
v 0.355031 2.696730 0.000000
v 0.177897 2.714176 0.000000
v 0.000000 2.720000 0.000000
v -0.177897 2.714176 0.000000
v -0.355031 2.696730 0.000000
v -0.530646 2.667736 0.000000
v -0.703988 2.627318 0.000000
v -0.874315 2.575650 0.000000
v -1.040899 2.512952 0.000000
v -1.203025 2.439494 0.000000
v -1.360000 2.355589 0.000000
v -1.511151 2.261597 0.000000
v -1.655831 2.157921 0.000000
v -1.793421 2.045004 0.000000
v -1.923330 1.923330 0.000000
v -2.045004 1.793421 0.000000
v -2.157921 1.655831 0.000000
v -2.261597 1.511151 0.000000
v -2.355589 1.360000 0.000000
v -2.439494 1.203025 0.000000
v -2.512952 1.040899 0.000000
v -2.575650 0.874315 0.000000
v -2.627318 0.703988 0.000000
v -2.667736 0.530646 0.000000
v -2.696730 0.355031 0.000000
v -2.714176 0.177897 0.000000
v -2.720000 0.000000 0.000000
v -2.714176 -0.177897 0.000000
v -2.696730 -0.355031 0.000000
v -2.667736 -0.530646 0.000000
v -2.627318 -0.703988 0.000000
v -2.575650 -0.874315 0.000000
v -2.512952 -1.040899 0.000000
v -2.439494 -1.203025 0.000000
v -2.355589 -1.360000 0.000000
v -2.261597 -1.511151 0.000000
v -2.157921 -1.655831 0.000000
v -2.045004 -1.793421 0.000000
v -1.923330 -1.923330 0.000000
v -1.793421 -2.045004 0.000000
v -1.655831 -2.157921 0.000000
v -1.511151 -2.261597 0.000000
v -1.360000 -2.355589 0.000000
v -1.203025 -2.439494 0.000000
v -1.040899 -2.512952 0.000000
v -0.874315 -2.575650 0.000000
v -0.703988 -2.627318 0.000000
v -0.530646 -2.667736 0.000000
v -0.355031 -2.696730 0.000000
v -0.177897 -2.714176 0.000000
v -0.000000 -2.720000 0.000000
v 0.177897 -2.714176 0.000000
v 0.355031 -2.696730 0.000000
v 0.530646 -2.667736 0.000000
v 0.703988 -2.627318 0.000000
v 0.874315 -2.575650 0.000000
v 1.040899 -2.512952 0.000000
v 1.203025 -2.439494 0.000000
v 1.360000 -2.355589 0.000000
v 1.511151 -2.261597 0.000000
v 1.655831 -2.157921 0.000000
v 1.793421 -2.045004 0.000000
v 1.923330 -1.923330 0.000000
v 2.045004 -1.793421 0.000000
v 2.157921 -1.655831 0.000000
v 2.261597 -1.511151 0.000000
v 2.355589 -1.360000 0.000000
v 2.439494 -1.203025 0.000000
v 2.512952 -1.040899 0.000000
v 2.575650 -0.874315 0.000000
v 2.627318 -0.703988 0.000000
v 2.667736 -0.530646 0.000000
v 2.696730 -0.355031 0.000000
v 2.714176 -0.177897 0.000000
v 3.220000 0.000000 0.000000
v 3.213106 0.210598 0.000000
v 3.192452 0.420294 0.000000
v 3.158128 0.628191 0.000000
v 3.110281 0.833397 0.000000
v 3.049115 1.035035 0.000000
v 2.974892 1.232241 0.000000
v 2.887930 1.424170 0.000000
v 2.788602 1.610000 0.000000
v 2.677332 1.788936 0.000000
v 2.554598 1.960212 0.000000
v 2.420924 2.123094 0.000000
v 2.276884 2.276884 0.000000
v 2.123094 2.420924 0.000000
v 1.960212 2.554598 0.000000
v 1.788936 2.677332 0.000000
v 1.610000 2.788602 0.000000
v 1.424170 2.887930 0.000000
v 1.232241 2.974892 0.000000
v 1.035035 3.049115 0.000000
v 0.833397 3.110281 0.000000
v 0.628191 3.158128 0.000000
v 0.420294 3.192452 0.000000
v 0.210598 3.213106 0.000000
v 0.000000 3.220000 0.000000
v -0.210598 3.213106 0.000000
v -0.420294 3.192452 0.000000
v -0.628191 3.158128 0.000000
v -0.833397 3.110281 0.000000
v -1.035035 3.049115 0.000000
v -1.232241 2.974892 0.000000
v -1.424170 2.887930 0.000000
v -1.610000 2.788602 0.000000
v -1.788936 2.677332 0.000000
v -1.960212 2.554598 0.000000
v -2.123094 2.420924 0.000000
v -2.276884 2.276884 0.000000
v -2.420924 2.123094 0.000000
v -2.554598 1.960212 0.000000
v -2.677332 1.788936 0.000000
v -2.788602 1.610000 0.000000
v -2.887930 1.424170 0.000000
v -2.974892 1.232241 0.000000
v -3.049115 1.035035 0.000000
v -3.110281 0.833397 0.000000
v -3.158128 0.628191 0.000000
v -3.192452 0.420294 0.000000
v -3.213106 0.210598 0.000000
v -3.220000 0.000000 0.000000
v -3.213106 -0.210598 0.000000
v -3.192452 -0.420294 0.000000
v -3.158128 -0.628191 0.000000
v -3.110281 -0.833397 0.000000
v -3.049115 -1.035035 0.000000
v -2.974892 -1.232241 0.000000
v -2.887930 -1.424170 0.000000
v -2.788602 -1.610000 0.000000
v -2.677332 -1.788936 0.000000
v -2.554598 -1.960212 0.000000
v -2.420924 -2.123094 0.000000
v -2.276884 -2.276884 0.000000
v -2.123094 -2.420924 0.000000
v -1.960212 -2.554598 0.000000
v -1.788936 -2.677332 0.000000
v -1.610000 -2.788602 0.000000
v -1.424170 -2.887930 0.000000
v -1.232241 -2.974892 0.000000
v -1.035035 -3.049115 0.000000
v -0.833397 -3.110281 0.000000
v -0.628191 -3.158128 0.000000
v -0.420294 -3.192452 0.000000
v -0.210598 -3.213106 0.000000
v -0.000000 -3.220000 0.000000
v 0.210598 -3.213106 0.000000
v 0.420294 -3.192452 0.000000
v 0.628191 -3.158128 0.000000
v 0.833397 -3.110281 0.000000
v 1.035035 -3.049115 0.000000
v 1.232241 -2.974892 0.000000
v 1.424170 -2.887930 0.000000
v 1.610000 -2.788602 0.000000
v 1.788936 -2.677332 0.000000
v 1.960212 -2.554598 0.000000
v 2.123094 -2.420924 0.000000
v 2.276884 -2.276884 0.000000
v 2.420924 -2.123094 0.000000
v 2.554598 -1.960212 0.000000
v 2.677332 -1.788936 0.000000
v 2.887930 -1.424170 0.000000
v 2.974892 -1.232241 0.000000
v 3.049115 -1.035035 0.000000
v 3.110281 -0.833397 0.000000
v 3.158128 -0.628191 0.000000
v 3.192452 -0.420294 0.000000
v 3.213106 -0.210598 0.000000
v 3.220000 0.000000 0.060000
v 3.213106 0.210598 0.060000
v 3.192452 0.420294 0.060000
v 3.158128 0.628191 0.060000
v 3.110281 0.833397 0.060000
v 3.049115 1.035035 0.060000
v 2.974892 1.232241 0.060000
v 2.887930 1.424170 0.060000
v 2.788602 1.610000 0.060000
v 2.677332 1.788936 0.060000
v 2.554598 1.960212 0.060000
v 2.420924 2.123094 0.060000
v 2.276884 2.276884 0.060000
v 2.123094 2.420924 0.060000
v 1.960212 2.554598 0.060000
v 1.788936 2.677332 0.060000
v 1.610000 2.788602 0.060000
v 1.424170 2.887930 0.060000
v 1.232241 2.974892 0.060000
v 1.035035 3.049115 0.060000
v 0.833397 3.110281 0.060000
v 0.628191 3.158128 0.060000
v 0.420294 3.192452 0.060000
v 0.210598 3.213106 0.060000
v 0.000000 3.220000 0.060000
v -0.210598 3.213106 0.060000
v -0.420294 3.192452 0.060000
v -0.628191 3.158128 0.060000
v -0.833397 3.110281 0.060000
v -1.035035 3.049115 0.060000
v -1.232241 2.974892 0.060000
v -1.424170 2.887930 0.060000
v -1.610000 2.788602 0.060000
v -1.788936 2.677332 0.060000
v -1.960212 2.554598 0.060000
v -2.123094 2.420924 0.060000
v -2.276884 2.276884 0.060000
v -2.420924 2.123094 0.060000
v -2.554598 1.960212 0.060000
v -2.677332 1.788936 0.060000
v -2.788602 1.610000 0.060000
v -2.887930 1.424170 0.060000
v -2.974892 1.232241 0.060000
v -3.049115 1.035035 0.060000
v -3.110281 0.833397 0.060000
v -3.158128 0.628191 0.060000
v -3.192452 0.420294 0.060000
v -3.213106 0.210598 0.060000
v -3.220000 0.000000 0.060000
v -3.213106 -0.210598 0.060000
v -3.192452 -0.420294 0.060000
v -3.158128 -0.628191 0.060000
v -3.110281 -0.833397 0.060000
v -3.049115 -1.035035 0.060000
v -2.974892 -1.232241 0.060000
v -2.887930 -1.424170 0.060000
v -2.788602 -1.610000 0.060000
v -2.677332 -1.788936 0.060000
v -2.554598 -1.960212 0.060000
v -2.420924 -2.123094 0.060000
v -2.276884 -2.276884 0.060000
v -2.123094 -2.420924 0.060000
v -1.960212 -2.554598 0.060000
v -1.788936 -2.677332 0.060000
v -1.610000 -2.788602 0.060000
v -1.424170 -2.887930 0.060000
v -1.232241 -2.974892 0.060000
v -1.035035 -3.049115 0.060000
v -0.833397 -3.110281 0.060000
v -0.628191 -3.158128 0.060000
v -0.420294 -3.192452 0.060000
v -0.210598 -3.213106 0.060000
v -0.000000 -3.220000 0.060000
v 0.210598 -3.213106 0.060000
v 0.420294 -3.192452 0.060000
v 0.628191 -3.158128 0.060000
v 0.833397 -3.110281 0.060000
v 1.035035 -3.049115 0.060000
v 1.232241 -2.974892 0.060000
v 1.424170 -2.887930 0.060000
v 1.610000 -2.788602 0.060000
v 1.788936 -2.677332 0.060000
v 1.960212 -2.554598 0.060000
v 2.123094 -2.420924 0.060000
v 2.276884 -2.276884 0.060000
v 2.420924 -2.123094 0.060000
v 2.554598 -1.960212 0.060000
v 2.677332 -1.788936 0.060000
v 2.887930 -1.424170 0.060000
v 2.974892 -1.232241 0.060000
v 3.049115 -1.035035 0.060000
v 3.110281 -0.833397 0.060000
v 3.158128 -0.628191 0.060000
v 3.192452 -0.420294 0.060000
v 3.213106 -0.210598 0.060000
v 2.720000 0.000000 0.060000
v 2.714176 0.177897 0.060000
v 2.696730 0.355031 0.060000
v 2.667736 0.530646 0.060000
v 2.627318 0.703988 0.060000
v 2.575650 0.874315 0.060000
v 2.512952 1.040899 0.060000
v 2.439494 1.203025 0.060000
v 2.355589 1.360000 0.060000
v 2.261597 1.511151 0.060000
v 2.157921 1.655831 0.060000
v 2.045004 1.793421 0.060000
v 1.923330 1.923330 0.060000
v 1.793421 2.045004 0.060000
v 1.655831 2.157921 0.060000
v 1.511151 2.261597 0.060000
v 1.360000 2.355589 0.060000
v 1.203025 2.439494 0.060000
v 1.040899 2.512952 0.060000
v 0.874315 2.575650 0.060000
v 0.703988 2.627318 0.060000
v 0.530646 2.667736 0.060000
v 0.355031 2.696730 0.060000
v 0.177897 2.714176 0.060000
v 0.000000 2.720000 0.060000
v -0.177897 2.714176 0.060000
v -0.355031 2.696730 0.060000
v -0.530646 2.667736 0.060000
v -0.703988 2.627318 0.060000
v -0.874315 2.575650 0.060000
v -1.040899 2.512952 0.060000
v -1.203025 2.439494 0.060000
v -1.360000 2.355589 0.060000
v -1.511151 2.261597 0.060000
v -1.655831 2.157921 0.060000
v -1.793421 2.045004 0.060000
v -1.923330 1.923330 0.060000
v -2.045004 1.793421 0.060000
v -2.157921 1.655831 0.060000
v -2.261597 1.511151 0.060000
v -2.355589 1.360000 0.060000
v -2.439494 1.203025 0.060000
v -2.512952 1.040899 0.060000
v -2.575650 0.874315 0.060000
v -2.627318 0.703988 0.060000
v -2.667736 0.530646 0.060000
v -2.696730 0.355031 0.060000
v -2.714176 0.177897 0.060000
v -2.720000 0.000000 0.060000
v -2.714176 -0.177897 0.060000
v -2.696730 -0.355031 0.060000
v -2.667736 -0.530646 0.060000
v -2.627318 -0.703988 0.060000
v -2.575650 -0.874315 0.060000
v -2.512952 -1.040899 0.060000
v -2.439494 -1.203025 0.060000
v -2.355589 -1.360000 0.060000
v -2.261597 -1.511151 0.060000
v -2.157921 -1.655831 0.060000
v -2.045004 -1.793421 0.060000
v -1.923330 -1.923330 0.060000
v -1.793421 -2.045004 0.060000
v -1.655831 -2.157921 0.060000
v -1.511151 -2.261597 0.060000
v -1.360000 -2.355589 0.060000
v -1.203025 -2.439494 0.060000
v -1.040899 -2.512952 0.060000
v -0.874315 -2.575650 0.060000
v -0.703988 -2.627318 0.060000
v -0.530646 -2.667736 0.060000
v -0.355031 -2.696730 0.060000
v -0.177897 -2.714176 0.060000
v -0.000000 -2.720000 0.060000
v 0.177897 -2.714176 0.060000
v 0.355031 -2.696730 0.060000
v 0.530646 -2.667736 0.060000
v 0.703988 -2.627318 0.060000
v 0.874315 -2.575650 0.060000
v 1.040899 -2.512952 0.060000
v 1.203025 -2.439494 0.060000
v 1.360000 -2.355589 0.060000
v 1.511151 -2.261597 0.060000
v 1.655831 -2.157921 0.060000
v 1.793421 -2.045004 0.060000
v 1.923330 -1.923330 0.060000
v 2.045004 -1.793421 0.060000
v 2.157921 -1.655831 0.060000
v 2.261597 -1.511151 0.060000
v 2.355589 -1.360000 0.060000
v 2.439494 -1.203025 0.060000
v 2.512952 -1.040899 0.060000
v 2.575650 -0.874315 0.060000
v 2.627318 -0.703988 0.060000
v 2.667736 -0.530646 0.060000
v 2.696730 -0.355031 0.060000
v 2.714176 -0.177897 0.060000
v 2.615397 -1.510000 0.000000
v 2.525397 -1.665885 0.000000
v 2.693499 -1.762938 0.000000
v 2.705397 -1.354115 0.000000
v 2.873499 -1.451169 0.000000
v 2.693499 -1.762938 0.060000
v 2.873499 -1.451169 0.060000
v 2.615397 -1.510000 0.060000
v 2.525397 -1.665885 0.060000
v 2.705397 -1.354115 0.060000
v 2.959414 -1.865186 0.001000
v 2.959414 -1.865186 0.026000
v 2.919110 -1.845170 0.001000
v 2.919110 -1.845170 0.026000
v 2.986101 -1.811447 0.001000
v 2.986101 -1.811447 0.026000
v 2.945797 -1.791432 0.001000
v 2.945797 -1.791432 0.026000
v 3.027849 -1.737605 0.001000
v 3.027849 -1.737605 0.026000
v 3.019060 -1.693472 0.001000
v 3.019060 -1.693472 0.026000
v 3.086694 -1.725886 0.001000
v 3.086694 -1.725886 0.026000
v 3.077904 -1.681752 0.001000
v 3.077904 -1.681752 0.026000
v 2.974962 -1.995948 0.001000
v 2.974962 -1.995948 0.026000
v 2.943376 -1.963895 0.001000
v 2.943376 -1.963895 0.026000
v 3.017698 -1.953834 0.001000
v 3.017698 -1.953834 0.026000
v 2.986113 -1.921781 0.001000
v 2.986113 -1.921781 0.026000
v 3.091974 -1.938975 0.001000
v 3.091974 -1.938975 0.026000
v 3.047549 -1.931805 0.001000
v 3.047549 -1.931805 0.026000
v 3.101534 -1.879741 0.001000
v 3.101534 -1.879741 0.026000
v 3.057108 -1.872572 0.001000
v 3.057108 -1.872572 0.026000
v 3.088485 -1.622203 0.001000
v 3.088485 -1.622203 0.026000
v 3.046158 -1.637482 0.001000
v 3.046158 -1.637482 0.026000
v 3.068114 -1.565767 0.001000
v 3.068114 -1.565767 0.026000
v 3.025787 -1.581046 0.001000
v 3.025787 -1.581046 0.026000
vn -0.0000 -0.0000 -1.0000
vn 0.9995 0.0327 -0.0000
vn 0.9952 0.0980 -0.0000
vn 0.9866 0.1629 -0.0000
vn 0.9739 0.2271 -0.0000
vn 0.9569 0.2903 -0.0000
vn 0.9359 0.3523 -0.0000
vn 0.9109 0.4127 -0.0000
vn 0.8819 0.4714 -0.0000
vn 0.8492 0.5281 -0.0000
vn 0.8128 0.5825 -0.0000
vn 0.7730 0.6344 -0.0000
vn 0.7299 0.6836 -0.0000
vn 0.6836 0.7299 -0.0000
vn 0.6344 0.7730 -0.0000
vn 0.5825 0.8128 -0.0000
vn 0.5281 0.8492 -0.0000
vn 0.4714 0.8819 -0.0000
vn 0.4127 0.9109 -0.0000
vn 0.3522 0.9359 -0.0000
vn 0.2903 0.9569 -0.0000
vn 0.2271 0.9739 -0.0000
vn 0.1629 0.9866 -0.0000
vn 0.0980 0.9952 -0.0000
vn 0.0327 0.9995 -0.0000
vn -0.0327 0.9995 -0.0000
vn -0.0980 0.9952 -0.0000
vn -0.1629 0.9866 -0.0000
vn -0.2271 0.9739 -0.0000
vn -0.2903 0.9569 -0.0000
vn -0.3522 0.9359 -0.0000
vn -0.4127 0.9109 -0.0000
vn -0.4714 0.8819 -0.0000
vn -0.5281 0.8492 -0.0000
vn -0.5825 0.8128 -0.0000
vn -0.6344 0.7730 -0.0000
vn -0.6836 0.7299 -0.0000
vn -0.7299 0.6836 -0.0000
vn -0.7730 0.6344 -0.0000
vn -0.8128 0.5825 -0.0000
vn -0.8492 0.5281 -0.0000
vn -0.8819 0.4714 -0.0000
vn -0.9109 0.4127 -0.0000
vn -0.9359 0.3522 -0.0000
vn -0.9569 0.2903 -0.0000
vn -0.9739 0.2271 -0.0000
vn -0.9866 0.1629 -0.0000
vn -0.9952 0.0980 -0.0000
vn -0.9995 0.0327 -0.0000
vn -0.9995 -0.0327 -0.0000
vn -0.9952 -0.0980 -0.0000
vn -0.9866 -0.1629 -0.0000
vn -0.9739 -0.2271 -0.0000
vn -0.9569 -0.2903 -0.0000
vn -0.9359 -0.3523 -0.0000
vn -0.9109 -0.4127 -0.0000
vn -0.8819 -0.4714 -0.0000
vn -0.8492 -0.5281 -0.0000
vn -0.8128 -0.5825 -0.0000
vn -0.7730 -0.6344 -0.0000
vn -0.7299 -0.6836 -0.0000
vn -0.6836 -0.7299 -0.0000
vn -0.6344 -0.7730 -0.0000
vn -0.5825 -0.8128 -0.0000
vn -0.5281 -0.8492 -0.0000
vn -0.4714 -0.8819 -0.0000
vn -0.4127 -0.9109 -0.0000
vn -0.3522 -0.9359 -0.0000
vn -0.2903 -0.9569 -0.0000
vn -0.2271 -0.9739 -0.0000
vn -0.1629 -0.9866 -0.0000
vn -0.0980 -0.9952 -0.0000
vn -0.0327 -0.9995 -0.0000
vn 0.0327 -0.9995 -0.0000
vn 0.0980 -0.9952 -0.0000
vn 0.1629 -0.9866 -0.0000
vn 0.2271 -0.9739 -0.0000
vn 0.2903 -0.9569 -0.0000
vn 0.3522 -0.9359 -0.0000
vn 0.4127 -0.9109 -0.0000
vn 0.4714 -0.8819 -0.0000
vn 0.5281 -0.8492 -0.0000
vn 0.5825 -0.8128 -0.0000
vn 0.6344 -0.7730 -0.0000
vn 0.6836 -0.7299 -0.0000
vn 0.7299 -0.6836 -0.0000
vn 0.7730 -0.6344 -0.0000
vn 0.8128 -0.5825 -0.0000
vn 0.8492 -0.5281 -0.0000
vn 0.8819 -0.4714 -0.0000
vn 0.9109 -0.4127 -0.0000
vn 0.9359 -0.3522 -0.0000
vn 0.9569 -0.2903 -0.0000
vn 0.9739 -0.2271 -0.0000
vn 0.9866 -0.1629 -0.0000
vn 0.9952 -0.0980 -0.0000
vn 0.9995 -0.0327 -0.0000
vn -0.0000 -0.0000 1.0000
vn -0.3523 -0.9359 -0.0000
vn 0.3523 -0.9359 -0.0000
vn 0.9359 -0.3523 -0.0000
vn 0.3523 0.9359 -0.0000
vn -0.3523 0.9359 -0.0000
vn -0.9359 0.3523 -0.0000
vn 0.8660 -0.5000 -0.0000
vn -0.5000 -0.8660 -0.0000
vn 0.5000 0.8660 -0.0000
vn -0.4448 -0.8956 -0.0000
vn -0.8956 0.4448 -0.0000
vn 0.4448 0.8956 -0.0000
vn 0.8956 -0.4448 -0.0000
vn -0.9807 -0.1953 -0.0000
vn -0.1953 0.9807 -0.0000
vn 0.9807 0.1953 -0.0000
vn 0.1953 -0.9807 -0.0000
vn -0.7123 -0.7019 -0.0000
vn -0.7019 0.7123 -0.0000
vn 0.7123 0.7019 -0.0000
vn 0.7019 -0.7123 -0.0000
vn -0.1593 -0.9872 -0.0000
vn -0.9872 0.1593 -0.0000
vn 0.1593 0.9872 -0.0000
vn 0.9872 -0.1593 -0.0000
vn 0.3395 -0.9406 -0.0000
vn -0.9406 -0.3395 -0.0000
vn -0.3395 0.9406 -0.0000
vn 0.9406 0.3395 -0.0000
vn 0.9359 0.3522 -0.0000
vn -0.9359 -0.3522 -0.0000
s 0
usemtl grout
f 1//1 98//1 97//1
f 3//1 98//1 2//1
f 4//1 99//1 3//1
f 4//1 101//1 100//1
f 6//1 101//1 5//1
f 7//1 102//1 6//1
f 8//1 103//1 7//1
f 9//1 104//1 8//1
f 9//1 106//1 105//1
f 11//1 106//1 10//1
f 12//1 107//1 11//1
f 12//1 109//1 108//1
f 14//1 109//1 13//1
f 15//1 110//1 14//1
f 16//1 111//1 15//1
f 17//1 112//1 16//1
f 17//1 114//1 113//1
f 19//1 114//1 18//1
f 20//1 115//1 19//1
f 21//1 116//1 20//1
f 22//1 117//1 21//1
f 23//1 118//1 22//1
f 23//1 120//1 119//1
f 25//1 120//1 24//1
f 25//1 122//1 121//1
f 27//1 122//1 26//1
f 28//1 123//1 27//1
f 28//1 125//1 124//1
f 30//1 125//1 29//1
f 31//1 126//1 30//1
f 32//1 127//1 31//1
f 33//1 128//1 32//1
f 33//1 130//1 129//1
f 35//1 130//1 34//1
f 36//1 131//1 35//1
f 36//1 133//1 132//1
f 38//1 133//1 37//1
f 39//1 134//1 38//1
f 40//1 135//1 39//1
f 41//1 136//1 40//1
f 41//1 138//1 137//1
f 43//1 138//1 42//1
f 44//1 139//1 43//1
f 45//1 140//1 44//1
f 46//1 141//1 45//1
f 47//1 142//1 46//1
f 47//1 144//1 143//1
f 49//1 144//1 48//1
f 49//1 146//1 145//1
f 51//1 146//1 50//1
f 52//1 147//1 51//1
f 52//1 149//1 148//1
f 54//1 149//1 53//1
f 55//1 150//1 54//1
f 56//1 151//1 55//1
f 57//1 152//1 56//1
f 57//1 154//1 153//1
f 59//1 154//1 58//1
f 60//1 155//1 59//1
f 60//1 157//1 156//1
f 62//1 157//1 61//1
f 63//1 158//1 62//1
f 64//1 159//1 63//1
f 65//1 160//1 64//1
f 65//1 162//1 161//1
f 67//1 162//1 66//1
f 68//1 163//1 67//1
f 69//1 164//1 68//1
f 70//1 165//1 69//1
f 71//1 166//1 70//1
f 71//1 168//1 167//1
f 73//1 168//1 72//1
f 73//1 170//1 169//1
f 75//1 170//1 74//1
f 76//1 171//1 75//1
f 76//1 173//1 172//1
f 78//1 173//1 77//1
f 79//1 174//1 78//1
f 80//1 175//1 79//1
f 81//1 176//1 80//1
f 81//1 178//1 177//1
f 83//1 178//1 82//1
f 84//1 179//1 83//1
f 84//1 181//1 180//1
f 86//1 181//1 85//1
f 87//1 182//1 86//1
f 88//1 183//1 87//1
f 184//1 88//1 384//1
f 90//1 185//1 386//1
f 91//1 185//1 90//1
f 92//1 186//1 91//1
f 93//1 187//1 92//1
f 94//1 188//1 93//1
f 95//1 189//1 94//1
f 95//1 191//1 190//1
f 1//1 191//1 96//1
f 98//2 192//2 97//2
f 99//3 193//3 98//3
f 100//4 194//4 99//4
f 101//5 195//5 100//5
f 102//6 196//6 101//6
f 103//7 197//7 102//7
f 104//8 198//8 103//8
f 105//9 199//9 104//9
f 106//10 200//10 105//10
f 107//11 201//11 106//11
f 108//12 202//12 107//12
f 109//13 203//13 108//13
f 110//14 204//14 109//14
f 111//15 205//15 110//15
f 112//16 206//16 111//16
f 113//17 207//17 112//17
f 114//18 208//18 113//18
f 115//19 209//19 114//19
f 116//20 210//20 115//20
f 117//21 211//21 116//21
f 118//22 212//22 117//22
f 119//23 213//23 118//23
f 120//24 214//24 119//24
f 121//25 215//25 120//25
f 122//26 216//26 121//26
f 123//27 217//27 122//27
f 124//28 218//28 123//28
f 125//29 219//29 124//29
f 126//30 220//30 125//30
f 127//31 221//31 126//31
f 128//32 222//32 127//32
f 129//33 223//33 128//33
f 130//34 224//34 129//34
f 131//35 225//35 130//35
f 132//36 226//36 131//36
f 133//37 227//37 132//37
f 134//38 228//38 133//38
f 135//39 229//39 134//39
f 136//40 230//40 135//40
f 137//41 231//41 136//41
f 138//42 232//42 137//42
f 139//43 233//43 138//43
f 140//44 234//44 139//44
f 141//45 235//45 140//45
f 142//46 236//46 141//46
f 143//47 237//47 142//47
f 144//48 238//48 143//48
f 145//49 239//49 144//49
f 146//50 240//50 145//50
f 147//51 241//51 146//51
f 148//52 242//52 147//52
f 149//53 243//53 148//53
f 150//54 244//54 149//54
f 151//55 245//55 150//55
f 152//56 246//56 151//56
f 153//57 247//57 152//57
f 154//58 248//58 153//58
f 155//59 249//59 154//59
f 156//60 250//60 155//60
f 157//61 251//61 156//61
f 158//62 252//62 157//62
f 159//63 253//63 158//63
f 160//64 254//64 159//64
f 161//65 255//65 160//65
f 162//66 256//66 161//66
f 163//67 257//67 162//67
f 164//68 258//68 163//68
f 165//69 259//69 164//69
f 166//70 260//70 165//70
f 167//71 261//71 166//71
f 168//72 262//72 167//72
f 169//73 263//73 168//73
f 170//74 264//74 169//74
f 171//75 265//75 170//75
f 172//76 266//76 171//76
f 173//77 267//77 172//77
f 174//78 268//78 173//78
f 175//79 269//79 174//79
f 176//80 270//80 175//80
f 177//81 271//81 176//81
f 178//82 272//82 177//82
f 179//83 273//83 178//83
f 180//84 274//84 179//84
f 181//85 275//85 180//85
f 182//86 276//86 181//86
f 183//87 277//87 182//87
f 184//88 278//88 183//88
f 279//89 385//89 388//89
f 185//90 389//90 387//90
f 186//91 280//91 185//91
f 187//92 281//92 186//92
f 188//93 282//93 187//93
f 189//94 283//94 188//94
f 190//95 284//95 189//95
f 191//96 285//96 190//96
f 97//97 286//97 191//97
f 193//98 287//98 192//98
f 193//98 289//98 288//98
f 195//98 289//98 194//98
f 196//98 290//98 195//98
f 197//98 291//98 196//98
f 197//98 293//98 292//98
f 199//98 293//98 198//98
f 199//98 295//98 294//98
f 201//98 295//98 200//98
f 202//98 296//98 201//98
f 203//98 297//98 202//98
f 204//98 298//98 203//98
f 204//98 300//98 299//98
f 205//98 301//98 300//98
f 207//98 301//98 206//98
f 207//98 303//98 302//98
f 209//98 303//98 208//98
f 210//98 304//98 209//98
f 211//98 305//98 210//98
f 212//98 306//98 211//98
f 212//98 308//98 307//98
f 214//98 308//98 213//98
f 215//98 309//98 214//98
f 215//98 311//98 310//98
f 217//98 311//98 216//98
f 217//98 313//98 312//98
f 219//98 313//98 218//98
f 220//98 314//98 219//98
f 221//98 315//98 220//98
f 221//98 317//98 316//98
f 223//98 317//98 222//98
f 223//98 319//98 318//98
f 225//98 319//98 224//98
f 226//98 320//98 225//98
f 227//98 321//98 226//98
f 228//98 322//98 227//98
f 228//98 324//98 323//98
f 229//98 325//98 324//98
f 231//98 325//98 230//98
f 231//98 327//98 326//98
f 233//98 327//98 232//98
f 234//98 328//98 233//98
f 235//98 329//98 234//98
f 236//98 330//98 235//98
f 236//98 332//98 331//98
f 238//98 332//98 237//98
f 239//98 333//98 238//98
f 239//98 335//98 334//98
f 241//98 335//98 240//98
f 241//98 337//98 336//98
f 243//98 337//98 242//98
f 244//98 338//98 243//98
f 245//98 339//98 244//98
f 245//98 341//98 340//98
f 247//98 341//98 246//98
f 247//98 343//98 342//98
f 249//98 343//98 248//98
f 250//98 344//98 249//98
f 251//98 345//98 250//98
f 252//98 346//98 251//98
f 252//98 348//98 347//98
f 253//98 349//98 348//98
f 255//98 349//98 254//98
f 255//98 351//98 350//98
f 257//98 351//98 256//98
f 258//98 352//98 257//98
f 259//98 353//98 258//98
f 260//98 354//98 259//98
f 260//98 356//98 355//98
f 262//98 356//98 261//98
f 263//98 357//98 262//98
f 263//98 359//98 358//98
f 265//98 359//98 264//98
f 265//98 361//98 360//98
f 267//98 361//98 266//98
f 268//98 362//98 267//98
f 269//98 363//98 268//98
f 269//98 365//98 364//98
f 271//98 365//98 270//98
f 271//98 367//98 366//98
f 273//98 367//98 272//98
f 274//98 368//98 273//98
f 275//98 369//98 274//98
f 276//98 370//98 275//98
f 276//98 372//98 371//98
f 277//98 373//98 372//98
f 279//98 373//98 278//98
f 374//98 279//98 391//98
f 376//98 390//98 392//98
f 281//98 376//98 280//98
f 282//98 377//98 281//98
f 283//98 378//98 282//98
f 283//98 380//98 379//98
f 285//98 380//98 284//98
f 286//98 381//98 285//98
f 286//98 287//98 382//98
f 288//50 1//50 287//50
f 289//51 2//51 288//51
f 290//52 3//52 289//52
f 291//53 4//53 290//53
f 292//54 5//54 291//54
f 293//55 6//55 292//55
f 294//56 7//56 293//56
f 295//57 8//57 294//57
f 296//58 9//58 295//58
f 297//59 10//59 296//59
f 298//60 11//60 297//60
f 299//61 12//61 298//61
f 300//62 13//62 299//62
f 301//63 14//63 300//63
f 302//64 15//64 301//64
f 303//65 16//65 302//65
f 304//66 17//66 303//66
f 305//67 18//67 304//67
f 306//99 19//99 305//99
f 307//69 20//69 306//69
f 308//70 21//70 307//70
f 309//71 22//71 308//71
f 310//72 23//72 309//72
f 311//73 24//73 310//73
f 312//74 25//74 311//74
f 313//75 26//75 312//75
f 314//76 27//76 313//76
f 315//77 28//77 314//77
f 316//78 29//78 315//78
f 317//100 30//100 316//100
f 318//80 31//80 317//80
f 319//81 32//81 318//81
f 320//82 33//82 319//82
f 321//83 34//83 320//83
f 322//84 35//84 321//84
f 323//85 36//85 322//85
f 324//86 37//86 323//86
f 325//87 38//87 324//87
f 326//88 39//88 325//88
f 327//89 40//89 326//89
f 328//90 41//90 327//90
f 329//91 42//91 328//91
f 330//101 43//101 329//101
f 331//93 44//93 330//93
f 332//94 45//94 331//94
f 333//95 46//95 332//95
f 334//96 47//96 333//96
f 335//97 48//97 334//97
f 336//2 49//2 335//2
f 337//3 50//3 336//3
f 338//4 51//4 337//4
f 339//5 52//5 338//5
f 340//6 53//6 339//6
f 341//7 54//7 340//7
f 342//8 55//8 341//8
f 343//9 56//9 342//9
f 344//10 57//10 343//10
f 345//11 58//11 344//11
f 346//12 59//12 345//12
f 347//13 60//13 346//13
f 348//14 61//14 347//14
f 349//15 62//15 348//15
f 350//16 63//16 349//16
f 351//17 64//17 350//17
f 352//18 65//18 351//18
f 353//19 66//19 352//19
f 354//102 67//102 353//102
f 355//21 68//21 354//21
f 356//22 69//22 355//22
f 357//23 70//23 356//23
f 358//24 71//24 357//24
f 359//25 72//25 358//25
f 360//26 73//26 359//26
f 361//27 74//27 360//27
f 362//28 75//28 361//28
f 363//29 76//29 362//29
f 364//30 77//30 363//30
f 365//103 78//103 364//103
f 366//32 79//32 365//32
f 367//33 80//33 366//33
f 368//34 81//34 367//34
f 369//35 82//35 368//35
f 370//36 83//36 369//36
f 371//37 84//37 370//37
f 372//38 85//38 371//38
f 373//39 86//39 372//39
f 374//40 87//40 373//40
f 375//41 88//41 374//41
f 376//42 89//42 375//42
f 377//43 90//43 376//43
f 378//104 91//104 377//104
f 379//45 92//45 378//45
f 380//46 93//46 379//46
f 381//47 94//47 380//47
f 382//48 95//48 381//48
f 287//49 96//49 382//49
f 386//105 390//105 384//105
f 386//106 389//106 392//106
f 384//107 388//107 385//107
f 394//108 395//108 393//108
f 396//109 399//109 395//109
f 400//110 397//110 399//110
f 398//111 393//111 397//111
f 399//1 393//1 395//1
f 400//98 394//98 398//98
f 402//112 403//112 401//112
f 404//113 407//113 403//113
f 408//114 405//114 407//114
f 406//115 401//115 405//115
f 403//1 405//1 401//1
f 404//98 406//98 408//98
f 410//116 411//116 409//116
f 412//117 415//117 411//117
f 416//118 413//118 415//118
f 414//119 409//119 413//119
f 415//1 409//1 411//1
f 416//98 410//98 414//98
f 418//120 419//120 417//120
f 420//121 423//121 419//121
f 424//122 421//122 423//122
f 422//123 417//123 421//123
f 419//1 421//1 417//1
f 420//98 422//98 424//98
f 426//124 427//124 425//124
f 428//125 431//125 427//125
f 432//126 429//126 431//126
f 430//127 425//127 429//127
f 427//1 429//1 425//1
f 428//98 430//98 432//98
f 1//1 2//1 98//1
f 3//1 99//1 98//1
f 4//1 100//1 99//1
f 4//1 5//1 101//1
f 6//1 102//1 101//1
f 7//1 103//1 102//1
f 8//1 104//1 103//1
f 9//1 105//1 104//1
f 9//1 10//1 106//1
f 11//1 107//1 106//1
f 12//1 108//1 107//1
f 12//1 13//1 109//1
f 14//1 110//1 109//1
f 15//1 111//1 110//1
f 16//1 112//1 111//1
f 17//1 113//1 112//1
f 17//1 18//1 114//1
f 19//1 115//1 114//1
f 20//1 116//1 115//1
f 21//1 117//1 116//1
f 22//1 118//1 117//1
f 23//1 119//1 118//1
f 23//1 24//1 120//1
f 25//1 121//1 120//1
f 25//1 26//1 122//1
f 27//1 123//1 122//1
f 28//1 124//1 123//1
f 28//1 29//1 125//1
f 30//1 126//1 125//1
f 31//1 127//1 126//1
f 32//1 128//1 127//1
f 33//1 129//1 128//1
f 33//1 34//1 130//1
f 35//1 131//1 130//1
f 36//1 132//1 131//1
f 36//1 37//1 133//1
f 38//1 134//1 133//1
f 39//1 135//1 134//1
f 40//1 136//1 135//1
f 41//1 137//1 136//1
f 41//1 42//1 138//1
f 43//1 139//1 138//1
f 44//1 140//1 139//1
f 45//1 141//1 140//1
f 46//1 142//1 141//1
f 47//1 143//1 142//1
f 47//1 48//1 144//1
f 49//1 145//1 144//1
f 49//1 50//1 146//1
f 51//1 147//1 146//1
f 52//1 148//1 147//1
f 52//1 53//1 149//1
f 54//1 150//1 149//1
f 55//1 151//1 150//1
f 56//1 152//1 151//1
f 57//1 153//1 152//1
f 57//1 58//1 154//1
f 59//1 155//1 154//1
f 60//1 156//1 155//1
f 60//1 61//1 157//1
f 62//1 158//1 157//1
f 63//1 159//1 158//1
f 64//1 160//1 159//1
f 65//1 161//1 160//1
f 65//1 66//1 162//1
f 67//1 163//1 162//1
f 68//1 164//1 163//1
f 69//1 165//1 164//1
f 70//1 166//1 165//1
f 71//1 167//1 166//1
f 71//1 72//1 168//1
f 73//1 169//1 168//1
f 73//1 74//1 170//1
f 75//1 171//1 170//1
f 76//1 172//1 171//1
f 76//1 77//1 173//1
f 78//1 174//1 173//1
f 79//1 175//1 174//1
f 80//1 176//1 175//1
f 81//1 177//1 176//1
f 81//1 82//1 178//1
f 83//1 179//1 178//1
f 84//1 180//1 179//1
f 84//1 85//1 181//1
f 86//1 182//1 181//1
f 87//1 183//1 182//1
f 88//1 184//1 183//1
f 88//1 89//1 383//1
f 384//1 385//1 184//1
f 88//1 383//1 384//1
f 383//1 89//1 90//1
f 185//1 387//1 386//1
f 386//1 383//1 90//1
f 91//1 186//1 185//1
f 92//1 187//1 186//1
f 93//1 188//1 187//1
f 94//1 189//1 188//1
f 95//1 190//1 189//1
f 95//1 96//1 191//1
f 1//1 97//1 191//1
f 98//2 193//2 192//2
f 99//3 194//3 193//3
f 100//4 195//4 194//4
f 101//5 196//5 195//5
f 102//6 197//6 196//6
f 103//128 198//128 197//128
f 104//8 199//8 198//8
f 105//9 200//9 199//9
f 106//10 201//10 200//10
f 107//11 202//11 201//11
f 108//12 203//12 202//12
f 109//13 204//13 203//13
f 110//14 205//14 204//14
f 111//15 206//15 205//15
f 112//16 207//16 206//16
f 113//17 208//17 207//17
f 114//18 209//18 208//18
f 115//19 210//19 209//19
f 116//20 211//20 210//20
f 117//21 212//21 211//21
f 118//22 213//22 212//22
f 119//23 214//23 213//23
f 120//24 215//24 214//24
f 121//25 216//25 215//25
f 122//26 217//26 216//26
f 123//27 218//27 217//27
f 124//28 219//28 218//28
f 125//29 220//29 219//29
f 126//30 221//30 220//30
f 127//31 222//31 221//31
f 128//32 223//32 222//32
f 129//33 224//33 223//33
f 130//34 225//34 224//34
f 131//35 226//35 225//35
f 132//36 227//36 226//36
f 133//37 228//37 227//37
f 134//38 229//38 228//38
f 135//39 230//39 229//39
f 136//40 231//40 230//40
f 137//41 232//41 231//41
f 138//42 233//42 232//42
f 139//43 234//43 233//43
f 140//104 235//104 234//104
f 141//45 236//45 235//45
f 142//46 237//46 236//46
f 143//47 238//47 237//47
f 144//48 239//48 238//48
f 145//49 240//49 239//49
f 146//50 241//50 240//50
f 147//51 242//51 241//51
f 148//52 243//52 242//52
f 149//53 244//53 243//53
f 150//54 245//54 244//54
f 151//129 246//129 245//129
f 152//56 247//56 246//56
f 153//57 248//57 247//57
f 154//58 249//58 248//58
f 155//59 250//59 249//59
f 156//60 251//60 250//60
f 157//61 252//61 251//61
f 158//62 253//62 252//62
f 159//63 254//63 253//63
f 160//64 255//64 254//64
f 161//65 256//65 255//65
f 162//66 257//66 256//66
f 163//67 258//67 257//67
f 164//68 259//68 258//68
f 165//69 260//69 259//69
f 166//70 261//70 260//70
f 167//71 262//71 261//71
f 168//72 263//72 262//72
f 169//73 264//73 263//73
f 170//74 265//74 264//74
f 171//75 266//75 265//75
f 172//76 267//76 266//76
f 173//77 268//77 267//77
f 174//78 269//78 268//78
f 175//79 270//79 269//79
f 176//80 271//80 270//80
f 177//81 272//81 271//81
f 178//82 273//82 272//82
f 179//83 274//83 273//83
f 180//84 275//84 274//84
f 181//85 276//85 275//85
f 182//86 277//86 276//86
f 183//87 278//87 277//87
f 184//88 279//88 278//88
f 279//89 184//89 385//89
f 185//90 280//90 389//90
f 186//91 281//91 280//91
f 187//101 282//101 281//101
f 188//93 283//93 282//93
f 189//94 284//94 283//94
f 190//95 285//95 284//95
f 191//96 286//96 285//96
f 97//97 192//97 286//97
f 193//98 288//98 287//98
f 193//98 194//98 289//98
f 195//98 290//98 289//98
f 196//98 291//98 290//98
f 197//98 292//98 291//98
f 197//98 198//98 293//98
f 199//98 294//98 293//98
f 199//98 200//98 295//98
f 201//98 296//98 295//98
f 202//98 297//98 296//98
f 203//98 298//98 297//98
f 204//98 299//98 298//98
f 204//98 205//98 300//98
f 205//98 206//98 301//98
f 207//98 302//98 301//98
f 207//98 208//98 303//98
f 209//98 304//98 303//98
f 210//98 305//98 304//98
f 211//98 306//98 305//98
f 212//98 307//98 306//98
f 212//98 213//98 308//98
f 214//98 309//98 308//98
f 215//98 310//98 309//98
f 215//98 216//98 311//98
f 217//98 312//98 311//98
f 217//98 218//98 313//98
f 219//98 314//98 313//98
f 220//98 315//98 314//98
f 221//98 316//98 315//98
f 221//98 222//98 317//98
f 223//98 318//98 317//98
f 223//98 224//98 319//98
f 225//98 320//98 319//98
f 226//98 321//98 320//98
f 227//98 322//98 321//98
f 228//98 323//98 322//98
f 228//98 229//98 324//98
f 229//98 230//98 325//98
f 231//98 326//98 325//98
f 231//98 232//98 327//98
f 233//98 328//98 327//98
f 234//98 329//98 328//98
f 235//98 330//98 329//98
f 236//98 331//98 330//98
f 236//98 237//98 332//98
f 238//98 333//98 332//98
f 239//98 334//98 333//98
f 239//98 240//98 335//98
f 241//98 336//98 335//98
f 241//98 242//98 337//98
f 243//98 338//98 337//98
f 244//98 339//98 338//98
f 245//98 340//98 339//98
f 245//98 246//98 341//98
f 247//98 342//98 341//98
f 247//98 248//98 343//98
f 249//98 344//98 343//98
f 250//98 345//98 344//98
f 251//98 346//98 345//98
f 252//98 347//98 346//98
f 252//98 253//98 348//98
f 253//98 254//98 349//98
f 255//98 350//98 349//98
f 255//98 256//98 351//98
f 257//98 352//98 351//98
f 258//98 353//98 352//98
f 259//98 354//98 353//98
f 260//98 355//98 354//98
f 260//98 261//98 356//98
f 262//98 357//98 356//98
f 263//98 358//98 357//98
f 263//98 264//98 359//98
f 265//98 360//98 359//98
f 265//98 266//98 361//98
f 267//98 362//98 361//98
f 268//98 363//98 362//98
f 269//98 364//98 363//98
f 269//98 270//98 365//98
f 271//98 366//98 365//98
f 271//98 272//98 367//98
f 273//98 368//98 367//98
f 274//98 369//98 368//98
f 275//98 370//98 369//98
f 276//98 371//98 370//98
f 276//98 277//98 372//98
f 277//98 278//98 373//98
f 279//98 374//98 373//98
f 390//98 375//98 374//98
f 279//98 388//98 391//98
f 391//98 390//98 374//98
f 392//98 389//98 280//98
f 376//98 375//98 390//98
f 392//98 280//98 376//98
f 281//98 377//98 376//98
f 282//98 378//98 377//98
f 283//98 379//98 378//98
f 283//98 284//98 380//98
f 285//98 381//98 380//98
f 286//98 382//98 381//98
f 286//98 192//98 287//98
f 288//50 2//50 1//50
f 289//51 3//51 2//51
f 290//52 4//52 3//52
f 291//53 5//53 4//53
f 292//54 6//54 5//54
f 293//55 7//55 6//55
f 294//56 8//56 7//56
f 295//57 9//57 8//57
f 296//58 10//58 9//58
f 297//59 11//59 10//59
f 298//60 12//60 11//60
f 299//61 13//61 12//61
f 300//62 14//62 13//62
f 301//63 15//63 14//63
f 302//64 16//64 15//64
f 303//65 17//65 16//65
f 304//66 18//66 17//66
f 305//67 19//67 18//67
f 306//99 20//99 19//99
f 307//69 21//69 20//69
f 308//70 22//70 21//70
f 309//71 23//71 22//71
f 310//72 24//72 23//72
f 311//73 25//73 24//73
f 312//74 26//74 25//74
f 313//75 27//75 26//75
f 314//76 28//76 27//76
f 315//77 29//77 28//77
f 316//78 30//78 29//78
f 317//100 31//100 30//100
f 318//80 32//80 31//80
f 319//81 33//81 32//81
f 320//82 34//82 33//82
f 321//83 35//83 34//83
f 322//84 36//84 35//84
f 323//85 37//85 36//85
f 324//86 38//86 37//86
f 325//87 39//87 38//87
f 326//88 40//88 39//88
f 327//89 41//89 40//89
f 328//90 42//90 41//90
f 329//91 43//91 42//91
f 330//101 44//101 43//101
f 331//93 45//93 44//93
f 332//94 46//94 45//94
f 333//95 47//95 46//95
f 334//96 48//96 47//96
f 335//97 49//97 48//97
f 336//2 50//2 49//2
f 337//3 51//3 50//3
f 338//4 52//4 51//4
f 339//5 53//5 52//5
f 340//6 54//6 53//6
f 341//7 55//7 54//7
f 342//8 56//8 55//8
f 343//9 57//9 56//9
f 344//10 58//10 57//10
f 345//11 59//11 58//11
f 346//12 60//12 59//12
f 347//13 61//13 60//13
f 348//14 62//14 61//14
f 349//15 63//15 62//15
f 350//16 64//16 63//16
f 351//17 65//17 64//17
f 352//18 66//18 65//18
f 353//19 67//19 66//19
f 354//102 68//102 67//102
f 355//21 69//21 68//21
f 356//22 70//22 69//22
f 357//23 71//23 70//23
f 358//24 72//24 71//24
f 359//25 73//25 72//25
f 360//26 74//26 73//26
f 361//27 75//27 74//27
f 362//28 76//28 75//28
f 363//29 77//29 76//29
f 364//30 78//30 77//30
f 365//103 79//103 78//103
f 366//32 80//32 79//32
f 367//33 81//33 80//33
f 368//34 82//34 81//34
f 369//35 83//35 82//35
f 370//36 84//36 83//36
f 371//37 85//37 84//37
f 372//38 86//38 85//38
f 373//39 87//39 86//39
f 374//40 88//40 87//40
f 375//41 89//41 88//41
f 376//42 90//42 89//42
f 377//43 91//43 90//43
f 378//104 92//104 91//104
f 379//45 93//45 92//45
f 380//46 94//46 93//46
f 381//47 95//47 94//47
f 382//48 96//48 95//48
f 287//49 1//49 96//49
f 384//98 383//98 386//98
f 386//105 392//105 390//105
f 390//105 391//105 384//105
f 386//106 387//106 389//106
f 384//107 391//107 388//107
f 394//108 396//108 395//108
f 396//109 400//109 399//109
f 400//110 398//110 397//110
f 398//111 394//111 393//111
f 399//1 397//1 393//1
f 400//98 396//98 394//98
f 402//112 404//112 403//112
f 404//113 408//113 407//113
f 408//114 406//114 405//114
f 406//115 402//115 401//115
f 403//1 407//1 405//1
f 404//98 402//98 406//98
f 410//116 412//116 411//116
f 412//117 416//117 415//117
f 416//118 414//118 413//118
f 414//119 410//119 409//119
f 415//1 413//1 409//1
f 416//98 412//98 410//98
f 418//120 420//120 419//120
f 420//121 424//121 423//121
f 424//122 422//122 421//122
f 422//123 418//123 417//123
f 419//1 423//1 421//1
f 420//98 418//98 422//98
f 426//124 428//124 427//124
f 428//125 432//125 431//125
f 432//126 430//126 429//126
f 430//127 426//127 425//127
f 427//1 431//1 429//1
f 428//98 426//98 430//98
