# Blender 5.2.2 LTS
# www.blender.org
mtllib ground_controller.mtl
o ground_controller
v -0.450000 2.336641 -0.060000
v -0.450000 2.336641 1.940000
v -0.450000 2.886641 -0.060000
v -0.450000 2.886641 1.940000
v 0.450000 2.336641 -0.060000
v 0.450000 2.336641 1.940000
v 0.450000 2.886641 -0.060000
v 0.450000 2.886641 1.940000
v -0.004000 2.330641 0.040000
v -0.004000 2.330641 1.890000
v -0.004000 2.336641 0.040000
v -0.004000 2.336641 1.890000
v 0.004000 2.330641 0.040000
v 0.004000 2.330641 1.890000
v 0.004000 2.336641 0.040000
v 0.004000 2.336641 1.890000
v 0.150000 2.326641 1.340000
v 0.150000 2.326641 1.540000
v 0.150000 2.336641 1.340000
v 0.150000 2.336641 1.540000
v 0.350000 2.326641 1.340000
v 0.350000 2.326641 1.540000
v 0.350000 2.336641 1.340000
v 0.350000 2.336641 1.540000
v -0.250000 2.336641 1.275000
v -0.250000 2.296641 1.275000
v -0.245432 2.336641 1.274701
v -0.245432 2.296641 1.274701
v -0.240941 2.336641 1.273807
v -0.240941 2.296641 1.273807
v -0.236606 2.336641 1.272336
v -0.236606 2.296641 1.272336
v -0.232500 2.336641 1.270311
v -0.232500 2.296641 1.270311
v -0.228693 2.336641 1.267767
v -0.228693 2.296641 1.267767
v -0.225251 2.336641 1.264749
v -0.225251 2.296641 1.264749
v -0.222233 2.336641 1.261307
v -0.222233 2.296641 1.261307
v -0.219689 2.336641 1.257500
v -0.219689 2.296641 1.257500
v -0.217664 2.336641 1.253394
v -0.217664 2.296641 1.253394
v -0.216193 2.336641 1.249059
v -0.216193 2.296641 1.249059
v -0.215299 2.336641 1.244568
v -0.215299 2.296641 1.244568
v -0.215000 2.336641 1.240000
v -0.215000 2.296641 1.240000
v -0.215299 2.336641 1.235432
v -0.215299 2.296641 1.235432
v -0.216193 2.336641 1.230941
v -0.216193 2.296641 1.230941
v -0.217664 2.336641 1.226606
v -0.217664 2.296641 1.226606
v -0.219689 2.336641 1.222500
v -0.219689 2.296641 1.222500
v -0.222233 2.336641 1.218693
v -0.222233 2.296641 1.218693
v -0.225251 2.336641 1.215251
v -0.225251 2.296641 1.215251
v -0.228693 2.336641 1.212233
v -0.228693 2.296641 1.212233
v -0.232500 2.336641 1.209689
v -0.232500 2.296641 1.209689
v -0.236606 2.336641 1.207664
v -0.236606 2.296641 1.207664
v -0.240941 2.336641 1.206193
v -0.240941 2.296641 1.206193
v -0.245432 2.336641 1.205299
v -0.245432 2.296641 1.205299
v -0.250000 2.336641 1.205000
v -0.250000 2.296641 1.205000
v -0.254568 2.336641 1.205299
v -0.254568 2.296641 1.205299
v -0.259059 2.336641 1.206193
v -0.259059 2.296641 1.206193
v -0.263394 2.336641 1.207664
v -0.263394 2.296641 1.207664
v -0.267500 2.336641 1.209689
v -0.267500 2.296641 1.209689
v -0.271307 2.336641 1.212233
v -0.271307 2.296641 1.212233
v -0.274749 2.336641 1.215251
v -0.274749 2.296641 1.215251
v -0.277767 2.336641 1.218693
v -0.277767 2.296641 1.218693
v -0.280311 2.336641 1.222500
v -0.280311 2.296641 1.222500
v -0.282336 2.336641 1.226606
v -0.282336 2.296641 1.226606
v -0.283807 2.336641 1.230941
v -0.283807 2.296641 1.230941
v -0.284701 2.336641 1.235432
v -0.284701 2.296641 1.235432
v -0.285000 2.336641 1.240000
v -0.285000 2.296641 1.240000
v -0.284701 2.336641 1.244568
v -0.284701 2.296641 1.244568
v -0.283807 2.336641 1.249059
v -0.283807 2.296641 1.249059
v -0.282336 2.336641 1.253394
v -0.282336 2.296641 1.253394
v -0.280311 2.336641 1.257500
v -0.280311 2.296641 1.257500
v -0.277767 2.336641 1.261307
v -0.277767 2.296641 1.261307
v -0.274749 2.336641 1.264749
v -0.274749 2.296641 1.264749
v -0.271307 2.336641 1.267767
v -0.271307 2.296641 1.267767
v -0.267500 2.336641 1.270311
v -0.267500 2.296641 1.270311
v -0.263394 2.336641 1.272336
v -0.263394 2.296641 1.272336
v -0.259059 2.336641 1.273807
v -0.259059 2.296641 1.273807
v -0.254568 2.336641 1.274701
v -0.254568 2.296641 1.274701
vn -1.0000 -0.0000 -0.0000
vn -0.0000 1.0000 -0.0000
vn 1.0000 -0.0000 -0.0000
vn -0.0000 -1.0000 -0.0000
vn -0.0000 -0.0000 -1.0000
vn -0.0000 -0.0000 1.0000
vn 0.0654 -0.0000 0.9979
vn 0.1951 -0.0000 0.9808
vn 0.3214 -0.0000 0.9469
vn 0.4423 -0.0000 0.8969
vn 0.5556 -0.0000 0.8315
vn 0.6593 -0.0000 0.7518
vn 0.7518 -0.0000 0.6594
vn 0.8315 -0.0000 0.5556
vn 0.8969 -0.0000 0.4423
vn 0.9469 -0.0000 0.3214
vn 0.9808 -0.0000 0.1951
vn 0.9979 -0.0000 0.0654
vn 0.9979 -0.0000 -0.0654
vn 0.9808 -0.0000 -0.1951
vn 0.9469 -0.0000 -0.3214
vn 0.8969 -0.0000 -0.4423
vn 0.8315 -0.0000 -0.5556
vn 0.7518 -0.0000 -0.6593
vn 0.6593 -0.0000 -0.7518
vn 0.5556 -0.0000 -0.8315
vn 0.4423 -0.0000 -0.8969
vn 0.3214 -0.0000 -0.9469
vn 0.1951 -0.0000 -0.9808
vn 0.0654 -0.0000 -0.9979
vn -0.0654 -0.0000 -0.9979
vn -0.1951 -0.0000 -0.9808
vn -0.3214 -0.0000 -0.9469
vn -0.4423 -0.0000 -0.8969
vn -0.5556 -0.0000 -0.8315
vn -0.6593 -0.0000 -0.7518
vn -0.7518 -0.0000 -0.6593
vn -0.8315 -0.0000 -0.5556
vn -0.8969 -0.0000 -0.4423
vn -0.9469 -0.0000 -0.3214
vn -0.9808 -0.0000 -0.1951
vn -0.9979 -0.0000 -0.0654
vn -0.9979 -0.0000 0.0654
vn -0.9808 -0.0000 0.1951
vn -0.9469 -0.0000 0.3214
vn -0.8969 -0.0000 0.4423
vn -0.8315 -0.0000 0.5556
vn -0.7518 -0.0000 0.6593
vn -0.6593 -0.0000 0.7518
vn -0.5556 -0.0000 0.8315
vn -0.4423 -0.0000 0.8969
vn -0.3214 -0.0000 0.9469
vn -0.1951 -0.0000 0.9808
vn -0.0654 -0.0000 0.9979
vn 0.7518 -0.0000 0.6593
vn -0.7518 -0.0000 0.6594
vn -0.0000 -1.0000 0.0001
vn -0.0000 -1.0000 -0.0001
vn -0.0000 1.0000 0.0001
vn -0.0000 1.0000 -0.0001
s 0
usemtl cabinet_grey
f 2//1 3//1 1//1
f 4//2 7//2 3//2
f 8//3 5//3 7//3
f 6//4 1//4 5//4
f 7//5 1//5 3//5
f 4//6 6//6 8//6
f 2//1 4//1 3//1
f 4//2 8//2 7//2
f 8//3 6//3 5//3
f 6//4 2//4 1//4
f 7//5 5//5 1//5
f 4//6 2//6 6//6
usemtl bolt_black
f 10//1 11//1 9//1
f 12//2 15//2 11//2
f 16//3 13//3 15//3
f 14//4 9//4 13//4
f 15//5 9//5 11//5
f 12//6 14//6 16//6
f 18//1 19//1 17//1
f 20//2 23//2 19//2
f 24//3 21//3 23//3
f 22//4 17//4 21//4
f 23//5 17//5 19//5
f 20//6 22//6 24//6
f 10//1 12//1 11//1
f 12//2 16//2 15//2
f 16//3 14//3 13//3
f 14//4 10//4 9//4
f 15//5 13//5 9//5
f 12//6 10//6 14//6
f 18//1 20//1 19//1
f 20//2 24//2 23//2
f 24//3 22//3 21//3
f 22//4 18//4 17//4
f 23//5 21//5 17//5
f 20//6 18//6 22//6
usemtl alarm_red
f 26//7 27//7 25//7
f 28//8 29//8 27//8
f 30//9 31//9 29//9
f 32//10 33//10 31//10
f 34//11 35//11 33//11
f 36//12 37//12 35//12
f 38//13 39//13 37//13
f 40//14 41//14 39//14
f 42//15 43//15 41//15
f 44//16 45//16 43//16
f 46//17 47//17 45//17
f 48//18 49//18 47//18
f 50//19 51//19 49//19
f 52//20 53//20 51//20
f 54//21 55//21 53//21
f 56//22 57//22 55//22
f 58//23 59//23 57//23
f 60//24 61//24 59//24
f 62//25 63//25 61//25
f 64//26 65//26 63//26
f 66//27 67//27 65//27
f 68//28 69//28 67//28
f 70//29 71//29 69//29
f 72//30 73//30 71//30
f 74//31 75//31 73//31
f 76//32 77//32 75//32
f 78//33 79//33 77//33
f 80//34 81//34 79//34
f 82//35 83//35 81//35
f 84//36 85//36 83//36
f 86//37 87//37 85//37
f 88//38 89//38 87//38
f 90//39 91//39 89//39
f 92//40 93//40 91//40
f 94//41 95//41 93//41
f 96//42 97//42 95//42
f 98//43 99//43 97//43
f 100//44 101//44 99//44
f 102//45 103//45 101//45
f 104//46 105//46 103//46
f 106//47 107//47 105//47
f 108//48 109//48 107//48
f 110//49 111//49 109//49
f 112//50 113//50 111//50
f 114//51 115//51 113//51
f 116//52 117//52 115//52
f 94//4 62//4 30//4
f 118//53 119//53 117//53
f 120//54 25//54 119//54
f 55//2 87//2 119//2
f 26//7 28//7 27//7
f 28//8 30//8 29//8
f 30//9 32//9 31//9
f 32//10 34//10 33//10
f 34//11 36//11 35//11
f 36//12 38//12 37//12
f 38//55 40//55 39//55
f 40//14 42//14 41//14
f 42//15 44//15 43//15
f 44//16 46//16 45//16
f 46//17 48//17 47//17
f 48//18 50//18 49//18
f 50//19 52//19 51//19
f 52//20 54//20 53//20
f 54//21 56//21 55//21
f 56//22 58//22 57//22
f 58//23 60//23 59//23
f 60//24 62//24 61//24
f 62//25 64//25 63//25
f 64//26 66//26 65//26
f 66//27 68//27 67//27
f 68//28 70//28 69//28
f 70//29 72//29 71//29
f 72//30 74//30 73//30
f 74//31 76//31 75//31
f 76//32 78//32 77//32
f 78//33 80//33 79//33
f 80//34 82//34 81//34
f 82//35 84//35 83//35
f 84//36 86//36 85//36
f 86//37 88//37 87//37
f 88//38 90//38 89//38
f 90//39 92//39 91//39
f 92//40 94//40 93//40
f 94//41 96//41 95//41
f 96//42 98//42 97//42
f 98//43 100//43 99//43
f 100//44 102//44 101//44
f 102//45 104//45 103//45
f 104//46 106//46 105//46
f 106//47 108//47 107//47
f 108//56 110//56 109//56
f 110//49 112//49 111//49
f 112//50 114//50 113//50
f 114//51 116//51 115//51
f 116//52 118//52 117//52
f 30//4 28//4 26//4
f 26//4 120//4 118//4
f 118//57 116//57 114//57
f 114//58 112//58 110//58
f 110//4 108//4 106//4
f 106//4 104//4 102//4
f 102//4 100//4 98//4
f 98//4 96//4 94//4
f 94//4 92//4 90//4
f 90//4 88//4 86//4
f 86//57 84//57 82//57
f 82//58 80//58 78//58
f 78//4 76//4 74//4
f 74//4 72//4 70//4
f 70//4 68//4 66//4
f 66//58 64//58 62//58
f 62//4 60//4 58//4
f 58//4 56//4 54//4
f 54//4 52//4 50//4
f 50//4 48//4 46//4
f 46//4 44//4 42//4
f 42//4 40//4 38//4
f 38//57 36//57 34//57
f 34//4 32//4 30//4
f 30//4 26//4 118//4
f 118//4 114//4 110//4
f 110//4 106//4 102//4
f 102//4 98//4 94//4
f 94//4 90//4 86//4
f 86//4 82//4 78//4
f 78//4 74//4 70//4
f 70//4 66//4 62//4
f 62//4 58//4 54//4
f 54//4 50//4 46//4
f 46//4 42//4 38//4
f 38//4 34//4 30//4
f 30//4 118//4 110//4
f 110//4 102//4 94//4
f 94//4 86//4 78//4
f 78//4 70//4 62//4
f 62//4 54//4 46//4
f 46//4 38//4 30//4
f 30//4 110//4 94//4
f 94//4 78//4 62//4
f 62//4 46//4 30//4
f 118//53 120//53 119//53
f 120//54 26//54 25//54
f 119//59 25//59 27//59
f 27//59 29//59 31//59
f 31//60 33//60 35//60
f 35//2 37//2 39//2
f 39//2 41//2 43//2
f 43//2 45//2 47//2
f 47//2 49//2 51//2
f 51//2 53//2 55//2
f 55//2 57//2 59//2
f 59//2 61//2 63//2
f 63//59 65//59 67//59
f 67//60 69//60 71//60
f 71//60 73//60 75//60
f 75//2 77//2 79//2
f 79//2 81//2 83//2
f 83//2 85//2 87//2
f 87//2 89//2 91//2
f 91//2 93//2 95//2
f 95//2 97//2 99//2
f 99//2 101//2 103//2
f 103//2 105//2 107//2
f 107//2 109//2 111//2
f 111//2 113//2 115//2
f 115//2 117//2 119//2
f 119//2 27//2 31//2
f 31//2 35//2 39//2
f 39//2 43//2 47//2
f 47//2 51//2 55//2
f 55//2 59//2 63//2
f 63//2 67//2 71//2
f 71//2 75//2 79//2
f 79//2 83//2 87//2
f 87//2 91//2 95//2
f 95//2 99//2 103//2
f 103//2 107//2 111//2
f 111//2 115//2 119//2
f 119//2 31//2 39//2
f 39//2 47//2 55//2
f 55//2 63//2 71//2
f 71//2 79//2 87//2
f 87//2 95//2 103//2
f 103//2 111//2 119//2
f 119//2 39//2 55//2
f 55//2 71//2 87//2
f 87//2 103//2 119//2
