# Blender 5.2.2 LTS
# www.blender.org
mtllib grout_ok.mtl
o grout
v 2.720000 0.000000 0.000000
v 2.714176 0.177897 0.000000
v 2.696730 0.355031 0.000000
v 2.667736 0.530646 0.000000
v 2.627318 0.703988 0.000000
v 2.575650 0.874315 0.000000
v 2.512952 1.040899 0.000000
v 2.439494 1.203025 0.000000
v 2.355589 1.360000 0.000000
v 2.261597 1.511151 0.000000
v 2.157921 1.655831 0.000000
v 2.045004 1.793421 0.000000
v 1.923330 1.923330 0.000000
v 1.793421 2.045004 0.000000
v 1.655831 2.157921 0.000000
v 1.511151 2.261597 0.000000
v 1.360000 2.355589 0.000000
v 1.203025 2.439494 0.000000
v 1.040899 2.512952 0.000000
v 0.874315 2.575650 0.000000
v 0.703988 2.627318 0.000000
v 0.530646 2.667736 0.000000
v 0.355031 2.696730 0.000000
v 0.177897 2.714176 0.000000
v 0.000000 2.720000 0.000000
v -0.177897 2.714176 0.000000
v -0.355031 2.696730 0.000000
v -0.530646 2.667736 0.000000
v -0.703988 2.627318 0.000000
v -0.874315 2.575650 0.000000
v -1.040899 2.512952 0.000000
v -1.203025 2.439494 0.000000
v -1.360000 2.355589 0.000000
v -1.511151 2.261597 0.000000
v -1.655831 2.157921 0.000000
v -1.793421 2.045004 0.000000
v -1.923330 1.923330 0.000000
v -2.045004 1.793421 0.000000
v -2.157921 1.655831 0.000000
v -2.261597 1.511151 0.000000
v -2.355589 1.360000 0.000000
v -2.439494 1.203025 0.000000
v -2.512952 1.040899 0.000000
v -2.575650 0.874315 0.000000
v -2.627318 0.703988 0.000000
v -2.667736 0.530646 0.000000
v -2.696730 0.355031 0.000000
v -2.714176 0.177897 0.000000
v -2.720000 0.000000 0.000000
v -2.714176 -0.177897 0.000000
v -2.696730 -0.355031 0.000000
v -2.667736 -0.530646 0.000000
v -2.627318 -0.703988 0.000000
v -2.575650 -0.874315 0.000000
v -2.512952 -1.040899 0.000000
v -2.439494 -1.203025 0.000000
v -2.355589 -1.360000 0.000000
v -2.261597 -1.511151 0.000000
v -2.157921 -1.655831 0.000000
v -2.045004 -1.793421 0.000000
v -1.923330 -1.923330 0.000000
v -1.793421 -2.045004 0.000000
v -1.655831 -2.157921 0.000000
v -1.511151 -2.261597 0.000000
v -1.360000 -2.355589 0.000000
v -1.203025 -2.439494 0.000000
v -1.040899 -2.512952 0.000000
v -0.874315 -2.575650 0.000000
v -0.703988 -2.627318 0.000000
v -0.530646 -2.667736 0.000000
v -0.355031 -2.696730 0.000000
v -0.177897 -2.714176 0.000000
v -0.000000 -2.720000 0.000000
v 0.177897 -2.714176 0.000000
v 0.355031 -2.696730 0.000000
v 0.530646 -2.667736 0.000000
v 0.703988 -2.627318 0.000000
v 0.874315 -2.575650 0.000000
v 1.040899 -2.512952 0.000000
v 1.203025 -2.439494 0.000000
v 1.360000 -2.355589 0.000000
v 1.511151 -2.261597 0.000000
v 1.655831 -2.157921 0.000000
v 1.793421 -2.045004 0.000000
v 1.923330 -1.923330 0.000000
v 2.045004 -1.793421 0.000000
v 2.157921 -1.655831 0.000000
v 2.261597 -1.511151 0.000000
v 2.355589 -1.360000 0.000000
v 2.439494 -1.203025 0.000000
v 2.512952 -1.040899 0.000000
v 2.575650 -0.874315 0.000000
v 2.627318 -0.703988 0.000000
v 2.667736 -0.530646 0.000000
v 2.696730 -0.355031 0.000000
v 2.714176 -0.177897 0.000000
v 3.220000 0.000000 0.000000
v 3.213106 0.210598 0.000000
v 3.192452 0.420294 0.000000
v 3.158128 0.628191 0.000000
v 3.110281 0.833397 0.000000
v 3.049115 1.035035 0.000000
v 2.974892 1.232241 0.000000
v 2.887930 1.424170 0.000000
v 2.788602 1.610000 0.000000
v 2.677332 1.788936 0.000000
v 2.554598 1.960212 0.000000
v 2.420924 2.123094 0.000000
v 2.276884 2.276884 0.000000
v 2.123094 2.420924 0.000000
v 1.960212 2.554598 0.000000
v 1.788936 2.677332 0.000000
v 1.610000 2.788602 0.000000
v 1.424170 2.887930 0.000000
v 1.232241 2.974892 0.000000
v 1.035035 3.049115 0.000000
v 0.833397 3.110281 0.000000
v 0.628191 3.158128 0.000000
v 0.420294 3.192452 0.000000
v 0.210598 3.213106 0.000000
v 0.000000 3.220000 0.000000
v -0.210598 3.213106 0.000000
v -0.420294 3.192452 0.000000
v -0.628191 3.158128 0.000000
v -0.833397 3.110281 0.000000
v -1.035035 3.049115 0.000000
v -1.232241 2.974892 0.000000
v -1.424170 2.887930 0.000000
v -1.610000 2.788602 0.000000
v -1.788936 2.677332 0.000000
v -1.960212 2.554598 0.000000
v -2.123094 2.420924 0.000000
v -2.276884 2.276884 0.000000
v -2.420924 2.123094 0.000000
v -2.554598 1.960212 0.000000
v -2.677332 1.788936 0.000000
v -2.788602 1.610000 0.000000
v -2.887930 1.424170 0.000000
v -2.974892 1.232241 0.000000
v -3.049115 1.035035 0.000000
v -3.110281 0.833397 0.000000
v -3.158128 0.628191 0.000000
v -3.192452 0.420294 0.000000
v -3.213106 0.210598 0.000000
v -3.220000 0.000000 0.000000
v -3.213106 -0.210598 0.000000
v -3.192452 -0.420294 0.000000
v -3.158128 -0.628191 0.000000
v -3.110281 -0.833397 0.000000
v -3.049115 -1.035035 0.000000
v -2.974892 -1.232241 0.000000
v -2.887930 -1.424170 0.000000
v -2.788602 -1.610000 0.000000
v -2.677332 -1.788936 0.000000
v -2.554598 -1.960212 0.000000
v -2.420924 -2.123094 0.000000
v -2.276884 -2.276884 0.000000
v -2.123094 -2.420924 0.000000
v -1.960212 -2.554598 0.000000
v -1.788936 -2.677332 0.000000
v -1.610000 -2.788602 0.000000
v -1.424170 -2.887930 0.000000
v -1.232241 -2.974892 0.000000
v -1.035035 -3.049115 0.000000
v -0.833397 -3.110281 0.000000
v -0.628191 -3.158128 0.000000
v -0.420294 -3.192452 0.000000
v -0.210598 -3.213106 0.000000
v -0.000000 -3.220000 0.000000
v 0.210598 -3.213106 0.000000
v 0.420294 -3.192452 0.000000
v 0.628191 -3.158128 0.000000
v 0.833397 -3.110281 0.000000
v 1.035035 -3.049115 0.000000
v 1.232241 -2.974892 0.000000
v 1.424170 -2.887930 0.000000
v 1.610000 -2.788602 0.000000
v 1.788936 -2.677332 0.000000
v 1.960212 -2.554598 0.000000
v 2.123094 -2.420924 0.000000
v 2.276884 -2.276884 0.000000
v 2.420924 -2.123094 0.000000
v 2.554598 -1.960212 0.000000
v 2.677332 -1.788936 0.000000
v 2.788602 -1.610000 0.000000
v 2.887930 -1.424170 0.000000
v 2.974892 -1.232241 0.000000
v 3.049115 -1.035035 0.000000
v 3.110281 -0.833397 0.000000
v 3.158128 -0.628191 0.000000
v 3.192452 -0.420294 0.000000
v 3.213106 -0.210598 0.000000
v 3.220000 0.000000 0.060000
v 3.213106 0.210598 0.060000
v 3.192452 0.420294 0.060000
v 3.158128 0.628191 0.060000
v 3.110281 0.833397 0.060000
v 3.049115 1.035035 0.060000
v 2.974892 1.232241 0.060000
v 2.887930 1.424170 0.060000
v 2.788602 1.610000 0.060000
v 2.677332 1.788936 0.060000
v 2.554598 1.960212 0.060000
v 2.420924 2.123094 0.060000
v 2.276884 2.276884 0.060000
v 2.123094 2.420924 0.060000
v 1.960212 2.554598 0.060000
v 1.788936 2.677332 0.060000
v 1.610000 2.788602 0.060000
v 1.424170 2.887930 0.060000
v 1.232241 2.974892 0.060000
v 1.035035 3.049115 0.060000
v 0.833397 3.110281 0.060000
v 0.628191 3.158128 0.060000
v 0.420294 3.192452 0.060000
v 0.210598 3.213106 0.060000
v 0.000000 3.220000 0.060000
v -0.210598 3.213106 0.060000
v -0.420294 3.192452 0.060000
v -0.628191 3.158128 0.060000
v -0.833397 3.110281 0.060000
v -1.035035 3.049115 0.060000
v -1.232241 2.974892 0.060000
v -1.424170 2.887930 0.060000
v -1.610000 2.788602 0.060000
v -1.788936 2.677332 0.060000
v -1.960212 2.554598 0.060000
v -2.123094 2.420924 0.060000
v -2.276884 2.276884 0.060000
v -2.420924 2.123094 0.060000
v -2.554598 1.960212 0.060000
v -2.677332 1.788936 0.060000
v -2.788602 1.610000 0.060000
v -2.887930 1.424170 0.060000
v -2.974892 1.232241 0.060000
v -3.049115 1.035035 0.060000
v -3.110281 0.833397 0.060000
v -3.158128 0.628191 0.060000
v -3.192452 0.420294 0.060000
v -3.213106 0.210598 0.060000
v -3.220000 0.000000 0.060000
v -3.213106 -0.210598 0.060000
v -3.192452 -0.420294 0.060000
v -3.158128 -0.628191 0.060000
v -3.110281 -0.833397 0.060000
v -3.049115 -1.035035 0.060000
v -2.974892 -1.232241 0.060000
v -2.887930 -1.424170 0.060000
v -2.788602 -1.610000 0.060000
v -2.677332 -1.788936 0.060000
v -2.554598 -1.960212 0.060000
v -2.420924 -2.123094 0.060000
v -2.276884 -2.276884 0.060000
v -2.123094 -2.420924 0.060000
v -1.960212 -2.554598 0.060000
v -1.788936 -2.677332 0.060000
v -1.610000 -2.788602 0.060000
v -1.424170 -2.887930 0.060000
v -1.232241 -2.974892 0.060000
v -1.035035 -3.049115 0.060000
v -0.833397 -3.110281 0.060000
v -0.628191 -3.158128 0.060000
v -0.420294 -3.192452 0.060000
v -0.210598 -3.213106 0.060000
v -0.000000 -3.220000 0.060000
v 0.210598 -3.213106 0.060000
v 0.420294 -3.192452 0.060000
v 0.628191 -3.158128 0.060000
v 0.833397 -3.110281 0.060000
v 1.035035 -3.049115 0.060000
v 1.232241 -2.974892 0.060000
v 1.424170 -2.887930 0.060000
v 1.610000 -2.788602 0.060000
v 1.788936 -2.677332 0.060000
v 1.960212 -2.554598 0.060000
v 2.123094 -2.420924 0.060000
v 2.276884 -2.276884 0.060000
v 2.420924 -2.123094 0.060000
v 2.554598 -1.960212 0.060000
v 2.677332 -1.788936 0.060000
v 2.788602 -1.610000 0.060000
v 2.887930 -1.424170 0.060000
v 2.974892 -1.232241 0.060000
v 3.049115 -1.035035 0.060000
v 3.110281 -0.833397 0.060000
v 3.158128 -0.628191 0.060000
v 3.192452 -0.420294 0.060000
v 3.213106 -0.210598 0.060000
v 2.720000 0.000000 0.060000
v 2.714176 0.177897 0.060000
v 2.696730 0.355031 0.060000
v 2.667736 0.530646 0.060000
v 2.627318 0.703988 0.060000
v 2.575650 0.874315 0.060000
v 2.512952 1.040899 0.060000
v 2.439494 1.203025 0.060000
v 2.355589 1.360000 0.060000
v 2.261597 1.511151 0.060000
v 2.157921 1.655831 0.060000
v 2.045004 1.793421 0.060000
v 1.923330 1.923330 0.060000
v 1.793421 2.045004 0.060000
v 1.655831 2.157921 0.060000
v 1.511151 2.261597 0.060000
v 1.360000 2.355589 0.060000
v 1.203025 2.439494 0.060000
v 1.040899 2.512952 0.060000
v 0.874315 2.575650 0.060000
v 0.703988 2.627318 0.060000
v 0.530646 2.667736 0.060000
v 0.355031 2.696730 0.060000
v 0.177897 2.714176 0.060000
v 0.000000 2.720000 0.060000
v -0.177897 2.714176 0.060000
v -0.355031 2.696730 0.060000
v -0.530646 2.667736 0.060000
v -0.703988 2.627318 0.060000
v -0.874315 2.575650 0.060000
v -1.040899 2.512952 0.060000
v -1.203025 2.439494 0.060000
v -1.360000 2.355589 0.060000
v -1.511151 2.261597 0.060000
v -1.655831 2.157921 0.060000
v -1.793421 2.045004 0.060000
v -1.923330 1.923330 0.060000
v -2.045004 1.793421 0.060000
v -2.157921 1.655831 0.060000
v -2.261597 1.511151 0.060000
v -2.355589 1.360000 0.060000
v -2.439494 1.203025 0.060000
v -2.512952 1.040899 0.060000
v -2.575650 0.874315 0.060000
v -2.627318 0.703988 0.060000
v -2.667736 0.530646 0.060000
v -2.696730 0.355031 0.060000
v -2.714176 0.177897 0.060000
v -2.720000 0.000000 0.060000
v -2.714176 -0.177897 0.060000
v -2.696730 -0.355031 0.060000
v -2.667736 -0.530646 0.060000
v -2.627318 -0.703988 0.060000
v -2.575650 -0.874315 0.060000
v -2.512952 -1.040899 0.060000
v -2.439494 -1.203025 0.060000
v -2.355589 -1.360000 0.060000
v -2.261597 -1.511151 0.060000
v -2.157921 -1.655831 0.060000
v -2.045004 -1.793421 0.060000
v -1.923330 -1.923330 0.060000
v -1.793421 -2.045004 0.060000
v -1.655831 -2.157921 0.060000
v -1.511151 -2.261597 0.060000
v -1.360000 -2.355589 0.060000
v -1.203025 -2.439494 0.060000
v -1.040899 -2.512952 0.060000
v -0.874315 -2.575650 0.060000
v -0.703988 -2.627318 0.060000
v -0.530646 -2.667736 0.060000
v -0.355031 -2.696730 0.060000
v -0.177897 -2.714176 0.060000
v -0.000000 -2.720000 0.060000
v 0.177897 -2.714176 0.060000
v 0.355031 -2.696730 0.060000
v 0.530646 -2.667736 0.060000
v 0.703988 -2.627318 0.060000
v 0.874315 -2.575650 0.060000
v 1.040899 -2.512952 0.060000
v 1.203025 -2.439494 0.060000
v 1.360000 -2.355589 0.060000
v 1.511151 -2.261597 0.060000
v 1.655831 -2.157921 0.060000
v 1.793421 -2.045004 0.060000
v 1.923330 -1.923330 0.060000
v 2.045004 -1.793421 0.060000
v 2.157921 -1.655831 0.060000
v 2.261597 -1.511151 0.060000
v 2.355589 -1.360000 0.060000
v 2.439494 -1.203025 0.060000
v 2.512952 -1.040899 0.060000
v 2.575650 -0.874315 0.060000
v 2.627318 -0.703988 0.060000
v 2.667736 -0.530646 0.060000
v 2.696730 -0.355031 0.060000
v 2.714176 -0.177897 0.060000
v 2.720000 0.000000 0.000000
v 2.714176 0.177897 0.000000
v 2.696730 0.355031 0.000000
v 2.667736 0.530646 0.000000
v 2.627318 0.703988 0.000000
v 2.575650 0.874315 0.000000
v 2.512952 1.040899 0.000000
v 2.439494 1.203025 0.000000
v 2.355589 1.360000 0.000000
v 2.261597 1.511151 0.000000
v 2.157921 1.655831 0.000000
v 2.045004 1.793421 0.000000
v 1.923330 1.923330 0.000000
v 1.793421 2.045004 0.000000
v 1.655831 2.157921 0.000000
v 1.511151 2.261597 0.000000
v 1.360000 2.355589 0.000000
v 1.203025 2.439494 0.000000
v 1.040899 2.512952 0.000000
v 0.874315 2.575650 0.000000
v 0.703988 2.627318 0.000000
v 0.530646 2.667736 0.000000
v 0.355031 2.696730 0.000000
v 0.177897 2.714176 0.000000
v 0.000000 2.720000 0.000000
v -0.177897 2.714176 0.000000
v -0.355031 2.696730 0.000000
v -0.530646 2.667736 0.000000
v -0.703988 2.627318 0.000000
v -0.874315 2.575650 0.000000
v -1.040899 2.512952 0.000000
v -1.203025 2.439494 0.000000
v -1.360000 2.355589 0.000000
v -1.511151 2.261597 0.000000
v -1.655831 2.157921 0.000000
v -1.793421 2.045004 0.000000
v -1.923330 1.923330 0.000000
v -2.045004 1.793421 0.000000
v -2.157921 1.655831 0.000000
v -2.261597 1.511151 0.000000
v -2.355589 1.360000 0.000000
v -2.439494 1.203025 0.000000
v -2.512952 1.040899 0.000000
v -2.575650 0.874315 0.000000
v -2.627318 0.703988 0.000000
v -2.667736 0.530646 0.000000
v -2.696730 0.355031 0.000000
v -2.714176 0.177897 0.000000
v -2.720000 0.000000 0.000000
v -2.714176 -0.177897 0.000000
v -2.696730 -0.355031 0.000000
v -2.667736 -0.530646 0.000000
v -2.627318 -0.703988 0.000000
v -2.575650 -0.874315 0.000000
v -2.512952 -1.040899 0.000000
v -2.439494 -1.203025 0.000000
v -2.355589 -1.360000 0.000000
v -2.261597 -1.511151 0.000000
v -2.157921 -1.655831 0.000000
v -2.045004 -1.793421 0.000000
v -1.923330 -1.923330 0.000000
v -1.793421 -2.045004 0.000000
v -1.655831 -2.157921 0.000000
v -1.511151 -2.261597 0.000000
v -1.360000 -2.355589 0.000000
v -1.203025 -2.439494 0.000000
v -1.040899 -2.512952 0.000000
v -0.874315 -2.575650 0.000000
v -0.703988 -2.627318 0.000000
v -0.530646 -2.667736 0.000000
v -0.355031 -2.696730 0.000000
v -0.177897 -2.714176 0.000000
v -0.000000 -2.720000 0.000000
v 0.177897 -2.714176 0.000000
v 0.355031 -2.696730 0.000000
v 0.530646 -2.667736 0.000000
v 0.703988 -2.627318 0.000000
v 0.874315 -2.575650 0.000000
v 1.040899 -2.512952 0.000000
v 1.203025 -2.439494 0.000000
v 1.360000 -2.355589 0.000000
v 1.511151 -2.261597 0.000000
v 1.655831 -2.157921 0.000000
v 1.793421 -2.045004 0.000000
v 1.923330 -1.923330 0.000000
v 2.045004 -1.793421 0.000000
v 2.157921 -1.655831 0.000000
v 2.261597 -1.511151 0.000000
v 2.355589 -1.360000 0.000000
v 2.439494 -1.203025 0.000000
v 2.512952 -1.040899 0.000000
v 2.575650 -0.874315 0.000000
v 2.627318 -0.703988 0.000000
v 2.667736 -0.530646 0.000000
v 2.696730 -0.355031 0.000000
v 2.714176 -0.177897 0.000000
vn -0.0000 -0.0000 -1.0000
vn 0.9995 0.0327 -0.0000
vn 0.9952 0.0980 -0.0000
vn 0.9866 0.1629 -0.0000
vn 0.9739 0.2271 -0.0000
vn 0.9569 0.2903 -0.0000
vn 0.9359 0.3523 -0.0000
vn 0.9109 0.4127 -0.0000
vn 0.8819 0.4714 -0.0000
vn 0.8492 0.5281 -0.0000
vn 0.8128 0.5825 -0.0000
vn 0.7730 0.6344 -0.0000
vn 0.7299 0.6836 -0.0000
vn 0.6836 0.7299 -0.0000
vn 0.6344 0.7730 -0.0000
vn 0.5825 0.8128 -0.0000
vn 0.5281 0.8492 -0.0000
vn 0.4714 0.8819 -0.0000
vn 0.4127 0.9109 -0.0000
vn 0.3522 0.9359 -0.0000
vn 0.2903 0.9569 -0.0000
vn 0.2271 0.9739 -0.0000
vn 0.1629 0.9866 -0.0000
vn 0.0980 0.9952 -0.0000
vn 0.0327 0.9995 -0.0000
vn -0.0327 0.9995 -0.0000
vn -0.0980 0.9952 -0.0000
vn -0.1629 0.9866 -0.0000
vn -0.2271 0.9739 -0.0000
vn -0.2903 0.9569 -0.0000
vn -0.3522 0.9359 -0.0000
vn -0.4127 0.9109 -0.0000
vn -0.4714 0.8819 -0.0000
vn -0.5281 0.8492 -0.0000
vn -0.5825 0.8128 -0.0000
vn -0.6344 0.7730 -0.0000
vn -0.6836 0.7299 -0.0000
vn -0.7299 0.6836 -0.0000
vn -0.7730 0.6344 -0.0000
vn -0.8128 0.5825 -0.0000
vn -0.8492 0.5281 -0.0000
vn -0.8819 0.4714 -0.0000
vn -0.9109 0.4127 -0.0000
vn -0.9359 0.3522 -0.0000
vn -0.9569 0.2903 -0.0000
vn -0.9739 0.2271 -0.0000
vn -0.9866 0.1629 -0.0000
vn -0.9952 0.0980 -0.0000
vn -0.9995 0.0327 -0.0000
vn -0.9995 -0.0327 -0.0000
vn -0.9952 -0.0980 -0.0000
vn -0.9866 -0.1629 -0.0000
vn -0.9739 -0.2271 -0.0000
vn -0.9569 -0.2903 -0.0000
vn -0.9359 -0.3523 -0.0000
vn -0.9109 -0.4127 -0.0000
vn -0.8819 -0.4714 -0.0000
vn -0.8492 -0.5281 -0.0000
vn -0.8128 -0.5825 -0.0000
vn -0.7730 -0.6344 -0.0000
vn -0.7299 -0.6836 -0.0000
vn -0.6836 -0.7299 -0.0000
vn -0.6344 -0.7730 -0.0000
vn -0.5825 -0.8128 -0.0000
vn -0.5281 -0.8492 -0.0000
vn -0.4714 -0.8819 -0.0000
vn -0.4127 -0.9109 -0.0000
vn -0.3522 -0.9359 -0.0000
vn -0.2903 -0.9569 -0.0000
vn -0.2271 -0.9739 -0.0000
vn -0.1629 -0.9866 -0.0000
vn -0.0980 -0.9952 -0.0000
vn -0.0327 -0.9995 -0.0000
vn 0.0327 -0.9995 -0.0000
vn 0.0980 -0.9952 -0.0000
vn 0.1629 -0.9866 -0.0000
vn 0.2271 -0.9739 -0.0000
vn 0.2903 -0.9569 -0.0000
vn 0.3522 -0.9359 -0.0000
vn 0.4127 -0.9109 -0.0000
vn 0.4714 -0.8819 -0.0000
vn 0.5281 -0.8492 -0.0000
vn 0.5825 -0.8128 -0.0000
vn 0.6344 -0.7730 -0.0000
vn 0.6836 -0.7299 -0.0000
vn 0.7299 -0.6836 -0.0000
vn 0.7730 -0.6344 -0.0000
vn 0.8128 -0.5825 -0.0000
vn 0.8492 -0.5281 -0.0000
vn 0.8819 -0.4714 -0.0000
vn 0.9109 -0.4127 -0.0000
vn 0.9359 -0.3522 -0.0000
vn 0.9569 -0.2903 -0.0000
vn 0.9739 -0.2271 -0.0000
vn 0.9866 -0.1629 -0.0000
vn 0.9952 -0.0980 -0.0000
vn 0.9995 -0.0327 -0.0000
vn -0.0000 -0.0000 1.0000
vn -0.3523 -0.9359 -0.0000
vn 0.3523 -0.9359 -0.0000
vn 0.9359 -0.3523 -0.0000
vn 0.3523 0.9359 -0.0000
vn -0.3523 0.9359 -0.0000
vn -0.9359 0.3523 -0.0000
vn 0.9359 0.3522 -0.0000
vn -0.9359 -0.3522 -0.0000
s 0
usemtl grout
f 1//1 98//1 97//1
f 3//1 98//1 2//1
f 4//1 99//1 3//1
f 4//1 101//1 100//1
f 6//1 101//1 5//1
f 7//1 102//1 6//1
f 8//1 103//1 7//1
f 9//1 104//1 8//1
f 9//1 106//1 105//1
f 11//1 106//1 10//1
f 12//1 107//1 11//1
f 12//1 109//1 108//1
f 14//1 109//1 13//1
f 15//1 110//1 14//1
f 16//1 111//1 15//1
f 17//1 112//1 16//1
f 17//1 114//1 113//1
f 19//1 114//1 18//1
f 20//1 115//1 19//1
f 21//1 116//1 20//1
f 22//1 117//1 21//1
f 23//1 118//1 22//1
f 23//1 120//1 119//1
f 25//1 120//1 24//1
f 25//1 122//1 121//1
f 27//1 122//1 26//1
f 28//1 123//1 27//1
f 28//1 125//1 124//1
f 30//1 125//1 29//1
f 31//1 126//1 30//1
f 32//1 127//1 31//1
f 33//1 128//1 32//1
f 33//1 130//1 129//1
f 35//1 130//1 34//1
f 36//1 131//1 35//1
f 36//1 133//1 132//1
f 38//1 133//1 37//1
f 39//1 134//1 38//1
f 40//1 135//1 39//1
f 41//1 136//1 40//1
f 41//1 138//1 137//1
f 43//1 138//1 42//1
f 44//1 139//1 43//1
f 45//1 140//1 44//1
f 46//1 141//1 45//1
f 47//1 142//1 46//1
f 47//1 144//1 143//1
f 49//1 144//1 48//1
f 49//1 146//1 145//1
f 51//1 146//1 50//1
f 52//1 147//1 51//1
f 52//1 149//1 148//1
f 54//1 149//1 53//1
f 55//1 150//1 54//1
f 56//1 151//1 55//1
f 57//1 152//1 56//1
f 57//1 154//1 153//1
f 59//1 154//1 58//1
f 60//1 155//1 59//1
f 60//1 157//1 156//1
f 62//1 157//1 61//1
f 63//1 158//1 62//1
f 64//1 159//1 63//1
f 65//1 160//1 64//1
f 65//1 162//1 161//1
f 67//1 162//1 66//1
f 68//1 163//1 67//1
f 69//1 164//1 68//1
f 70//1 165//1 69//1
f 71//1 166//1 70//1
f 71//1 168//1 167//1
f 73//1 168//1 72//1
f 73//1 170//1 169//1
f 75//1 170//1 74//1
f 76//1 171//1 75//1
f 76//1 173//1 172//1
f 78//1 173//1 77//1
f 79//1 174//1 78//1
f 80//1 175//1 79//1
f 81//1 176//1 80//1
f 81//1 178//1 177//1
f 83//1 178//1 82//1
f 84//1 179//1 83//1
f 84//1 181//1 180//1
f 86//1 181//1 85//1
f 87//1 182//1 86//1
f 88//1 183//1 87//1
f 89//1 184//1 88//1
f 89//1 186//1 185//1
f 91//1 186//1 90//1
f 92//1 187//1 91//1
f 93//1 188//1 92//1
f 94//1 189//1 93//1
f 95//1 190//1 94//1
f 95//1 192//1 191//1
f 1//1 192//1 96//1
f 98//2 193//2 97//2
f 99//3 194//3 98//3
f 100//4 195//4 99//4
f 101//5 196//5 100//5
f 102//6 197//6 101//6
f 103//7 198//7 102//7
f 104//8 199//8 103//8
f 105//9 200//9 104//9
f 106//10 201//10 105//10
f 107//11 202//11 106//11
f 108//12 203//12 107//12
f 109//13 204//13 108//13
f 110//14 205//14 109//14
f 111//15 206//15 110//15
f 112//16 207//16 111//16
f 113//17 208//17 112//17
f 114//18 209//18 113//18
f 115//19 210//19 114//19
f 116//20 211//20 115//20
f 117//21 212//21 116//21
f 118//22 213//22 117//22
f 119//23 214//23 118//23
f 120//24 215//24 119//24
f 121//25 216//25 120//25
f 122//26 217//26 121//26
f 123//27 218//27 122//27
f 124//28 219//28 123//28
f 125//29 220//29 124//29
f 126//30 221//30 125//30
f 127//31 222//31 126//31
f 128//32 223//32 127//32
f 129//33 224//33 128//33
f 130//34 225//34 129//34
f 131//35 226//35 130//35
f 132//36 227//36 131//36
f 133//37 228//37 132//37
f 134//38 229//38 133//38
f 135//39 230//39 134//39
f 136//40 231//40 135//40
f 137//41 232//41 136//41
f 138//42 233//42 137//42
f 139//43 234//43 138//43
f 140//44 235//44 139//44
f 141//45 236//45 140//45
f 142//46 237//46 141//46
f 143//47 238//47 142//47
f 144//48 239//48 143//48
f 145//49 240//49 144//49
f 146//50 241//50 145//50
f 147//51 242//51 146//51
f 148//52 243//52 147//52
f 149//53 244//53 148//53
f 150//54 245//54 149//54
f 151//55 246//55 150//55
f 152//56 247//56 151//56
f 153//57 248//57 152//57
f 154//58 249//58 153//58
f 155//59 250//59 154//59
f 156//60 251//60 155//60
f 157//61 252//61 156//61
f 158//62 253//62 157//62
f 159//63 254//63 158//63
f 160//64 255//64 159//64
f 161//65 256//65 160//65
f 162//66 257//66 161//66
f 163//67 258//67 162//67
f 164//68 259//68 163//68
f 165//69 260//69 164//69
f 166//70 261//70 165//70
f 167//71 262//71 166//71
f 168//72 263//72 167//72
f 169//73 264//73 168//73
f 170//74 265//74 169//74
f 171//75 266//75 170//75
f 172//76 267//76 171//76
f 173//77 268//77 172//77
f 174//78 269//78 173//78
f 175//79 270//79 174//79
f 176//80 271//80 175//80
f 177//81 272//81 176//81
f 178//82 273//82 177//82
f 179//83 274//83 178//83
f 180//84 275//84 179//84
f 181//85 276//85 180//85
f 182//86 277//86 181//86
f 183//87 278//87 182//87
f 184//88 279//88 183//88
f 185//89 280//89 184//89
f 186//90 281//90 185//90
f 187//91 282//91 186//91
f 188//92 283//92 187//92
f 189//93 284//93 188//93
f 190//94 285//94 189//94
f 191//95 286//95 190//95
f 192//96 287//96 191//96
f 97//97 288//97 192//97
f 194//98 289//98 193//98
f 194//98 291//98 290//98
f 196//98 291//98 195//98
f 197//98 292//98 196//98
f 198//98 293//98 197//98
f 198//98 295//98 294//98
f 200//98 295//98 199//98
f 200//98 297//98 296//98
f 202//98 297//98 201//98
f 203//98 298//98 202//98
f 204//98 299//98 203//98
f 205//98 300//98 204//98
f 205//98 302//98 301//98
f 206//98 303//98 302//98
f 208//98 303//98 207//98
f 208//98 305//98 304//98
f 210//98 305//98 209//98
f 211//98 306//98 210//98
f 212//98 307//98 211//98
f 213//98 308//98 212//98
f 213//98 310//98 309//98
f 215//98 310//98 214//98
f 216//98 311//98 215//98
f 216//98 313//98 312//98
f 218//98 313//98 217//98
f 218//98 315//98 314//98
f 220//98 315//98 219//98
f 221//98 316//98 220//98
f 222//98 317//98 221//98
f 222//98 319//98 318//98
f 224//98 319//98 223//98
f 224//98 321//98 320//98
f 226//98 321//98 225//98
f 227//98 322//98 226//98
f 228//98 323//98 227//98
f 229//98 324//98 228//98
f 229//98 326//98 325//98
f 230//98 327//98 326//98
f 232//98 327//98 231//98
f 232//98 329//98 328//98
f 234//98 329//98 233//98
f 235//98 330//98 234//98
f 236//98 331//98 235//98
f 237//98 332//98 236//98
f 237//98 334//98 333//98
f 239//98 334//98 238//98
f 240//98 335//98 239//98
f 240//98 337//98 336//98
f 242//98 337//98 241//98
f 242//98 339//98 338//98
f 244//98 339//98 243//98
f 245//98 340//98 244//98
f 246//98 341//98 245//98
f 246//98 343//98 342//98
f 248//98 343//98 247//98
f 248//98 345//98 344//98
f 250//98 345//98 249//98
f 251//98 346//98 250//98
f 252//98 347//98 251//98
f 253//98 348//98 252//98
f 253//98 350//98 349//98
f 254//98 351//98 350//98
f 256//98 351//98 255//98
f 256//98 353//98 352//98
f 258//98 353//98 257//98
f 259//98 354//98 258//98
f 260//98 355//98 259//98
f 261//98 356//98 260//98
f 261//98 358//98 357//98
f 263//98 358//98 262//98
f 264//98 359//98 263//98
f 264//98 361//98 360//98
f 266//98 361//98 265//98
f 266//98 363//98 362//98
f 268//98 363//98 267//98
f 269//98 364//98 268//98
f 270//98 365//98 269//98
f 270//98 367//98 366//98
f 272//98 367//98 271//98
f 272//98 369//98 368//98
f 274//98 369//98 273//98
f 275//98 370//98 274//98
f 276//98 371//98 275//98
f 277//98 372//98 276//98
f 277//98 374//98 373//98
f 278//98 375//98 374//98
f 280//98 375//98 279//98
f 280//98 377//98 376//98
f 282//98 377//98 281//98
f 283//98 378//98 282//98
f 284//98 379//98 283//98
f 285//98 380//98 284//98
f 285//98 382//98 381//98
f 287//98 382//98 286//98
f 288//98 383//98 287//98
f 288//98 289//98 384//98
f 290//50 385//50 289//50
f 291//51 386//51 290//51
f 292//52 387//52 291//52
f 293//53 388//53 292//53
f 294//54 389//54 293//54
f 295//55 390//55 294//55
f 296//56 391//56 295//56
f 297//57 392//57 296//57
f 298//58 393//58 297//58
f 299//59 394//59 298//59
f 300//60 395//60 299//60
f 301//61 396//61 300//61
f 302//62 397//62 301//62
f 303//63 398//63 302//63
f 304//64 399//64 303//64
f 305//65 400//65 304//65
f 306//66 401//66 305//66
f 307//67 402//67 306//67
f 308//99 403//99 307//99
f 309//69 404//69 308//69
f 310//70 405//70 309//70
f 311//71 406//71 310//71
f 312//72 407//72 311//72
f 313//73 408//73 312//73
f 314//74 409//74 313//74
f 315//75 410//75 314//75
f 316//76 411//76 315//76
f 317//77 412//77 316//77
f 318//78 413//78 317//78
f 319//100 414//100 318//100
f 320//80 415//80 319//80
f 321//81 416//81 320//81
f 322//82 417//82 321//82
f 323//83 418//83 322//83
f 324//84 419//84 323//84
f 325//85 420//85 324//85
f 326//86 421//86 325//86
f 327//87 422//87 326//87
f 328//88 423//88 327//88
f 329//89 424//89 328//89
f 330//90 425//90 329//90
f 331//91 426//91 330//91
f 332//101 427//101 331//101
f 333//93 428//93 332//93
f 334//94 429//94 333//94
f 335//95 430//95 334//95
f 336//96 431//96 335//96
f 337//97 432//97 336//97
f 338//2 433//2 337//2
f 339//3 434//3 338//3
f 340//4 435//4 339//4
f 341//5 436//5 340//5
f 342//6 437//6 341//6
f 343//7 438//7 342//7
f 344//8 439//8 343//8
f 345//9 440//9 344//9
f 346//10 441//10 345//10
f 347//11 442//11 346//11
f 348//12 443//12 347//12
f 349//13 444//13 348//13
f 350//14 445//14 349//14
f 351//15 446//15 350//15
f 352//16 447//16 351//16
f 353//17 448//17 352//17
f 354//18 449//18 353//18
f 355//19 450//19 354//19
f 356//102 451//102 355//102
f 357//21 452//21 356//21
f 358//22 453//22 357//22
f 359//23 454//23 358//23
f 360//24 455//24 359//24
f 361//25 456//25 360//25
f 362//26 457//26 361//26
f 363//27 458//27 362//27
f 364//28 459//28 363//28
f 365//29 460//29 364//29
f 366//30 461//30 365//30
f 367//103 462//103 366//103
f 368//32 463//32 367//32
f 369//33 464//33 368//33
f 370//34 465//34 369//34
f 371//35 466//35 370//35
f 372//36 467//36 371//36
f 373//37 468//37 372//37
f 374//38 469//38 373//38
f 375//39 470//39 374//39
f 376//40 471//40 375//40
f 377//41 472//41 376//41
f 378//42 473//42 377//42
f 379//43 474//43 378//43
f 380//104 475//104 379//104
f 381//45 476//45 380//45
f 382//46 477//46 381//46
f 383//47 478//47 382//47
f 384//48 479//48 383//48
f 289//49 480//49 384//49
f 1//1 2//1 98//1
f 3//1 99//1 98//1
f 4//1 100//1 99//1
f 4//1 5//1 101//1
f 6//1 102//1 101//1
f 7//1 103//1 102//1
f 8//1 104//1 103//1
f 9//1 105//1 104//1
f 9//1 10//1 106//1
f 11//1 107//1 106//1
f 12//1 108//1 107//1
f 12//1 13//1 109//1
f 14//1 110//1 109//1
f 15//1 111//1 110//1
f 16//1 112//1 111//1
f 17//1 113//1 112//1
f 17//1 18//1 114//1
f 19//1 115//1 114//1
f 20//1 116//1 115//1
f 21//1 117//1 116//1
f 22//1 118//1 117//1
f 23//1 119//1 118//1
f 23//1 24//1 120//1
f 25//1 121//1 120//1
f 25//1 26//1 122//1
f 27//1 123//1 122//1
f 28//1 124//1 123//1
f 28//1 29//1 125//1
f 30//1 126//1 125//1
f 31//1 127//1 126//1
f 32//1 128//1 127//1
f 33//1 129//1 128//1
f 33//1 34//1 130//1
f 35//1 131//1 130//1
f 36//1 132//1 131//1
f 36//1 37//1 133//1
f 38//1 134//1 133//1
f 39//1 135//1 134//1
f 40//1 136//1 135//1
f 41//1 137//1 136//1
f 41//1 42//1 138//1
f 43//1 139//1 138//1
f 44//1 140//1 139//1
f 45//1 141//1 140//1
f 46//1 142//1 141//1
f 47//1 143//1 142//1
f 47//1 48//1 144//1
f 49//1 145//1 144//1
f 49//1 50//1 146//1
f 51//1 147//1 146//1
f 52//1 148//1 147//1
f 52//1 53//1 149//1
f 54//1 150//1 149//1
f 55//1 151//1 150//1
f 56//1 152//1 151//1
f 57//1 153//1 152//1
f 57//1 58//1 154//1
f 59//1 155//1 154//1
f 60//1 156//1 155//1
f 60//1 61//1 157//1
f 62//1 158//1 157//1
f 63//1 159//1 158//1
f 64//1 160//1 159//1
f 65//1 161//1 160//1
f 65//1 66//1 162//1
f 67//1 163//1 162//1
f 68//1 164//1 163//1
f 69//1 165//1 164//1
f 70//1 166//1 165//1
f 71//1 167//1 166//1
f 71//1 72//1 168//1
f 73//1 169//1 168//1
f 73//1 74//1 170//1
f 75//1 171//1 170//1
f 76//1 172//1 171//1
f 76//1 77//1 173//1
f 78//1 174//1 173//1
f 79//1 175//1 174//1
f 80//1 176//1 175//1
f 81//1 177//1 176//1
f 81//1 82//1 178//1
f 83//1 179//1 178//1
f 84//1 180//1 179//1
f 84//1 85//1 181//1
f 86//1 182//1 181//1
f 87//1 183//1 182//1
f 88//1 184//1 183//1
f 89//1 185//1 184//1
f 89//1 90//1 186//1
f 91//1 187//1 186//1
f 92//1 188//1 187//1
f 93//1 189//1 188//1
f 94//1 190//1 189//1
f 95//1 191//1 190//1
f 95//1 96//1 192//1
f 1//1 97//1 192//1
f 98//2 194//2 193//2
f 99//3 195//3 194//3
f 100//4 196//4 195//4
f 101//5 197//5 196//5
f 102//6 198//6 197//6
f 103//105 199//105 198//105
f 104//8 200//8 199//8
f 105//9 201//9 200//9
f 106//10 202//10 201//10
f 107//11 203//11 202//11
f 108//12 204//12 203//12
f 109//13 205//13 204//13
f 110//14 206//14 205//14
f 111//15 207//15 206//15
f 112//16 208//16 207//16
f 113//17 209//17 208//17
f 114//18 210//18 209//18
f 115//19 211//19 210//19
f 116//20 212//20 211//20
f 117//21 213//21 212//21
f 118//22 214//22 213//22
f 119//23 215//23 214//23
f 120//24 216//24 215//24
f 121//25 217//25 216//25
f 122//26 218//26 217//26
f 123//27 219//27 218//27
f 124//28 220//28 219//28
f 125//29 221//29 220//29
f 126//30 222//30 221//30
f 127//31 223//31 222//31
f 128//32 224//32 223//32
f 129//33 225//33 224//33
f 130//34 226//34 225//34
f 131//35 227//35 226//35
f 132//36 228//36 227//36
f 133//37 229//37 228//37
f 134//38 230//38 229//38
f 135//39 231//39 230//39
f 136//40 232//40 231//40
f 137//41 233//41 232//41
f 138//42 234//42 233//42
f 139//43 235//43 234//43
f 140//104 236//104 235//104
f 141//45 237//45 236//45
f 142//46 238//46 237//46
f 143//47 239//47 238//47
f 144//48 240//48 239//48
f 145//49 241//49 240//49
f 146//50 242//50 241//50
f 147//51 243//51 242//51
f 148//52 244//52 243//52
f 149//53 245//53 244//53
f 150//54 246//54 245//54
f 151//106 247//106 246//106
f 152//56 248//56 247//56
f 153//57 249//57 248//57
f 154//58 250//58 249//58
f 155//59 251//59 250//59
f 156//60 252//60 251//60
f 157//61 253//61 252//61
f 158//62 254//62 253//62
f 159//63 255//63 254//63
f 160//64 256//64 255//64
f 161//65 257//65 256//65
f 162//66 258//66 257//66
f 163//67 259//67 258//67
f 164//68 260//68 259//68
f 165//69 261//69 260//69
f 166//70 262//70 261//70
f 167//71 263//71 262//71
f 168//72 264//72 263//72
f 169//73 265//73 264//73
f 170//74 266//74 265//74
f 171//75 267//75 266//75
f 172//76 268//76 267//76
f 173//77 269//77 268//77
f 174//78 270//78 269//78
f 175//79 271//79 270//79
f 176//80 272//80 271//80
f 177//81 273//81 272//81
f 178//82 274//82 273//82
f 179//83 275//83 274//83
f 180//84 276//84 275//84
f 181//85 277//85 276//85
f 182//86 278//86 277//86
f 183//87 279//87 278//87
f 184//88 280//88 279//88
f 185//89 281//89 280//89
f 186//90 282//90 281//90
f 187//91 283//91 282//91
f 188//101 284//101 283//101
f 189//93 285//93 284//93
f 190//94 286//94 285//94
f 191//95 287//95 286//95
f 192//96 288//96 287//96
f 97//97 193//97 288//97
f 194//98 290//98 289//98
f 194//98 195//98 291//98
f 196//98 292//98 291//98
f 197//98 293//98 292//98
f 198//98 294//98 293//98
f 198//98 199//98 295//98
f 200//98 296//98 295//98
f 200//98 201//98 297//98
f 202//98 298//98 297//98
f 203//98 299//98 298//98
f 204//98 300//98 299//98
f 205//98 301//98 300//98
f 205//98 206//98 302//98
f 206//98 207//98 303//98
f 208//98 304//98 303//98
f 208//98 209//98 305//98
f 210//98 306//98 305//98
f 211//98 307//98 306//98
f 212//98 308//98 307//98
f 213//98 309//98 308//98
f 213//98 214//98 310//98
f 215//98 311//98 310//98
f 216//98 312//98 311//98
f 216//98 217//98 313//98
f 218//98 314//98 313//98
f 218//98 219//98 315//98
f 220//98 316//98 315//98
f 221//98 317//98 316//98
f 222//98 318//98 317//98
f 222//98 223//98 319//98
f 224//98 320//98 319//98
f 224//98 225//98 321//98
f 226//98 322//98 321//98
f 227//98 323//98 322//98
f 228//98 324//98 323//98
f 229//98 325//98 324//98
f 229//98 230//98 326//98
f 230//98 231//98 327//98
f 232//98 328//98 327//98
f 232//98 233//98 329//98
f 234//98 330//98 329//98
f 235//98 331//98 330//98
f 236//98 332//98 331//98
f 237//98 333//98 332//98
f 237//98 238//98 334//98
f 239//98 335//98 334//98
f 240//98 336//98 335//98
f 240//98 241//98 337//98
f 242//98 338//98 337//98
f 242//98 243//98 339//98
f 244//98 340//98 339//98
f 245//98 341//98 340//98
f 246//98 342//98 341//98
f 246//98 247//98 343//98
f 248//98 344//98 343//98
f 248//98 249//98 345//98
f 250//98 346//98 345//98
f 251//98 347//98 346//98
f 252//98 348//98 347//98
f 253//98 349//98 348//98
f 253//98 254//98 350//98
f 254//98 255//98 351//98
f 256//98 352//98 351//98
f 256//98 257//98 353//98
f 258//98 354//98 353//98
f 259//98 355//98 354//98
f 260//98 356//98 355//98
f 261//98 357//98 356//98
f 261//98 262//98 358//98
f 263//98 359//98 358//98
f 264//98 360//98 359//98
f 264//98 265//98 361//98
f 266//98 362//98 361//98
f 266//98 267//98 363//98
f 268//98 364//98 363//98
f 269//98 365//98 364//98
f 270//98 366//98 365//98
f 270//98 271//98 367//98
f 272//98 368//98 367//98
f 272//98 273//98 369//98
f 274//98 370//98 369//98
f 275//98 371//98 370//98
f 276//98 372//98 371//98
f 277//98 373//98 372//98
f 277//98 278//98 374//98
f 278//98 279//98 375//98
f 280//98 376//98 375//98
f 280//98 281//98 377//98
f 282//98 378//98 377//98
f 283//98 379//98 378//98
f 284//98 380//98 379//98
f 285//98 381//98 380//98
f 285//98 286//98 382//98
f 287//98 383//98 382//98
f 288//98 384//98 383//98
f 288//98 193//98 289//98
f 290//50 386//50 385//50
f 291//51 387//51 386//51
f 292//52 388//52 387//52
f 293//53 389//53 388//53
f 294//54 390//54 389//54
f 295//55 391//55 390//55
f 296//56 392//56 391//56
f 297//57 393//57 392//57
f 298//58 394//58 393//58
f 299//59 395//59 394//59
f 300//60 396//60 395//60
f 301//61 397//61 396//61
f 302//62 398//62 397//62
f 303//63 399//63 398//63
f 304//64 400//64 399//64
f 305//65 401//65 400//65
f 306//66 402//66 401//66
f 307//67 403//67 402//67
f 308//99 404//99 403//99
f 309//69 405//69 404//69
f 310//70 406//70 405//70
f 311//71 407//71 406//71
f 312//72 408//72 407//72
f 313//73 409//73 408//73
f 314//74 410//74 409//74
f 315//75 411//75 410//75
f 316//76 412//76 411//76
f 317//77 413//77 412//77
f 318//78 414//78 413//78
f 319//100 415//100 414//100
f 320//80 416//80 415//80
f 321//81 417//81 416//81
f 322//82 418//82 417//82
f 323//83 419//83 418//83
f 324//84 420//84 419//84
f 325//85 421//85 420//85
f 326//86 422//86 421//86
f 327//87 423//87 422//87
f 328//88 424//88 423//88
f 329//89 425//89 424//89
f 330//90 426//90 425//90
f 331//91 427//91 426//91
f 332//101 428//101 427//101
f 333//93 429//93 428//93
f 334//94 430//94 429//94
f 335//95 431//95 430//95
f 336//96 432//96 431//96
f 337//97 433//97 432//97
f 338//2 434//2 433//2
f 339//3 435//3 434//3
f 340//4 436//4 435//4
f 341//5 437//5 436//5
f 342//6 438//6 437//6
f 343//7 439//7 438//7
f 344//8 440//8 439//8
f 345//9 441//9 440//9
f 346//10 442//10 441//10
f 347//11 443//11 442//11
f 348//12 444//12 443//12
f 349//13 445//13 444//13
f 350//14 446//14 445//14
f 351//15 447//15 446//15
f 352//16 448//16 447//16
f 353//17 449//17 448//17
f 354//18 450//18 449//18
f 355//19 451//19 450//19
f 356//102 452//102 451//102
f 357//21 453//21 452//21
f 358//22 454//22 453//22
f 359//23 455//23 454//23
f 360//24 456//24 455//24
f 361//25 457//25 456//25
f 362//26 458//26 457//26
f 363//27 459//27 458//27
f 364//28 460//28 459//28
f 365//29 461//29 460//29
f 366//30 462//30 461//30
f 367//103 463//103 462//103
f 368//32 464//32 463//32
f 369//33 465//33 464//33
f 370//34 466//34 465//34
f 371//35 467//35 466//35
f 372//36 468//36 467//36
f 373//37 469//37 468//37
f 374//38 470//38 469//38
f 375//39 471//39 470//39
f 376//40 472//40 471//40
f 377//41 473//41 472//41
f 378//42 474//42 473//42
f 379//43 475//43 474//43
f 380//104 476//104 475//104
f 381//45 477//45 476//45
f 382//46 478//46 477//46
f 383//47 479//47 478//47
f 384//48 480//48 479//48
f 289//49 385//49 480//49
