# Blender 5.2.2 LTS
# www.blender.org
mtllib hydraulic_unit.mtl
o hydraulic_unit
v -5.400000 0.850000 0.300000
v -5.400000 0.850000 0.700000
v -5.400000 1.300000 0.300000
v -5.400000 1.300000 0.700000
v -4.500000 0.850000 0.300000
v -4.500000 0.850000 0.700000
v -4.500000 1.300000 0.300000
v -4.500000 1.300000 0.700000
v -5.150000 1.185000 0.705000
v -5.150000 1.185000 1.055000
v -5.135642 1.184059 0.705000
v -5.135642 1.184059 1.055000
v -5.121530 1.181252 0.705000
v -5.121530 1.181252 1.055000
v -5.107905 1.176627 0.705000
v -5.107905 1.176627 1.055000
v -5.095000 1.170263 0.705000
v -5.095000 1.170263 1.055000
v -5.083036 1.162269 0.705000
v -5.083036 1.162269 1.055000
v -5.072218 1.152782 0.705000
v -5.072218 1.152782 1.055000
v -5.062731 1.141964 0.705000
v -5.062731 1.141964 1.055000
v -5.054737 1.130000 0.705000
v -5.054737 1.130000 1.055000
v -5.048373 1.117095 0.705000
v -5.048373 1.117095 1.055000
v -5.043748 1.103470 0.705000
v -5.043748 1.103470 1.055000
v -5.040941 1.089358 0.705000
v -5.040941 1.089358 1.055000
v -5.040000 1.075000 0.705000
v -5.040000 1.075000 1.055000
v -5.040941 1.060642 0.705000
v -5.040941 1.060642 1.055000
v -5.043748 1.046530 0.705000
v -5.043748 1.046530 1.055000
v -5.048373 1.032905 0.705000
v -5.048373 1.032905 1.055000
v -5.054737 1.020000 0.705000
v -5.054737 1.020000 1.055000
v -5.062731 1.008036 0.705000
v -5.062731 1.008036 1.055000
v -5.072218 0.997218 0.705000
v -5.072218 0.997218 1.055000
v -5.083036 0.987731 0.705000
v -5.083036 0.987731 1.055000
v -5.095000 0.979737 0.705000
v -5.095000 0.979737 1.055000
v -5.107905 0.973373 0.705000
v -5.107905 0.973373 1.055000
v -5.121530 0.968748 0.705000
v -5.121530 0.968748 1.055000
v -5.135642 0.965941 0.705000
v -5.135642 0.965941 1.055000
v -5.150000 0.965000 0.705000
v -5.150000 0.965000 1.055000
v -5.164358 0.965941 0.705000
v -5.164358 0.965941 1.055000
v -5.178470 0.968748 0.705000
v -5.178470 0.968748 1.055000
v -5.192095 0.973373 0.705000
v -5.192095 0.973373 1.055000
v -5.205000 0.979737 0.705000
v -5.205000 0.979737 1.055000
v -5.216964 0.987731 0.705000
v -5.216964 0.987731 1.055000
v -5.227782 0.997218 0.705000
v -5.227782 0.997218 1.055000
v -5.237269 1.008036 0.705000
v -5.237269 1.008036 1.055000
v -5.245263 1.020000 0.705000
v -5.245263 1.020000 1.055000
v -5.251627 1.032905 0.705000
v -5.251627 1.032905 1.055000
v -5.256252 1.046530 0.705000
v -5.256252 1.046530 1.055000
v -5.259059 1.060642 0.705000
v -5.259059 1.060642 1.055000
v -5.260000 1.075000 0.705000
v -5.260000 1.075000 1.055000
v -5.259059 1.089358 0.705000
v -5.259059 1.089358 1.055000
v -5.256252 1.103470 0.705000
v -5.256252 1.103470 1.055000
v -5.251627 1.117095 0.705000
v -5.251627 1.117095 1.055000
v -5.245263 1.130000 0.705000
v -5.245263 1.130000 1.055000
v -5.237269 1.141964 0.705000
v -5.237269 1.141964 1.055000
v -5.227782 1.152782 0.705000
v -5.227782 1.152782 1.055000
v -5.216964 1.162269 0.705000
v -5.216964 1.162269 1.055000
v -5.205000 1.170263 0.705000
v -5.205000 1.170263 1.055000
v -5.192095 1.176627 0.705000
v -5.192095 1.176627 1.055000
v -5.178470 1.181252 0.705000
v -5.178470 1.181252 1.055000
v -5.164358 1.184059 0.705000
v -5.164358 1.184059 1.055000
v -4.850000 0.900000 0.700000
v -4.850000 0.900000 0.900000
v -4.850000 1.250000 0.700000
v -4.850000 1.250000 0.900000
v -4.600000 0.900000 0.700000
v -4.600000 0.900000 0.900000
v -4.600000 1.250000 0.700000
v -4.600000 1.250000 0.900000
v -5.400000 0.950000 0.000000
v -5.400000 0.950000 0.300000
v -5.400000 1.200000 0.000000
v -5.400000 1.200000 0.300000
v -4.500000 0.950000 0.000000
v -4.500000 0.950000 0.300000
v -4.500000 1.200000 0.000000
v -4.500000 1.200000 0.300000
v -4.750000 1.250000 0.905000
v -4.750000 1.250000 1.355000
v -4.740863 1.249401 0.905000
v -4.740863 1.249401 1.355000
v -4.731883 1.247615 0.905000
v -4.731883 1.247615 1.355000
v -4.723212 1.244672 0.905000
v -4.723212 1.244672 1.355000
v -4.715000 1.240622 0.905000
v -4.715000 1.240622 1.355000
v -4.707386 1.235535 0.905000
v -4.707386 1.235535 1.355000
v -4.700502 1.229497 0.905000
v -4.700502 1.229497 1.355000
v -4.694465 1.222613 0.905000
v -4.694465 1.222613 1.355000
v -4.689378 1.215000 0.905000
v -4.689378 1.215000 1.355000
v -4.685328 1.206788 0.905000
v -4.685328 1.206788 1.355000
v -4.682385 1.198117 0.905000
v -4.682385 1.198117 1.355000
v -4.680599 1.189137 0.905000
v -4.680599 1.189137 1.355000
v -4.680000 1.180000 0.905000
v -4.680000 1.180000 1.355000
v -4.680599 1.170863 0.905000
v -4.680599 1.170863 1.355000
v -4.682385 1.161883 0.905000
v -4.682385 1.161883 1.355000
v -4.685328 1.153212 0.905000
v -4.685328 1.153212 1.355000
v -4.689378 1.145000 0.905000
v -4.689378 1.145000 1.355000
v -4.694465 1.137387 0.905000
v -4.694465 1.137387 1.355000
v -4.700502 1.130502 0.905000
v -4.700502 1.130502 1.355000
v -4.707386 1.124465 0.905000
v -4.707386 1.124465 1.355000
v -4.715000 1.119378 0.905000
v -4.715000 1.119378 1.355000
v -4.723212 1.115328 0.905000
v -4.723212 1.115328 1.355000
v -4.731883 1.112385 0.905000
v -4.731883 1.112385 1.355000
v -4.740863 1.110599 0.905000
v -4.740863 1.110599 1.355000
v -4.750000 1.110000 0.905000
v -4.750000 1.110000 1.355000
v -4.759137 1.110599 0.905000
v -4.759137 1.110599 1.355000
v -4.768117 1.112385 0.905000
v -4.768117 1.112385 1.355000
v -4.776788 1.115328 0.905000
v -4.776788 1.115328 1.355000
v -4.785000 1.119378 0.905000
v -4.785000 1.119378 1.355000
v -4.792614 1.124465 0.905000
v -4.792614 1.124465 1.355000
v -4.799498 1.130502 0.905000
v -4.799498 1.130502 1.355000
v -4.805535 1.137387 0.905000
v -4.805535 1.137387 1.355000
v -4.810622 1.145000 0.905000
v -4.810622 1.145000 1.355000
v -4.814672 1.153212 0.905000
v -4.814672 1.153212 1.355000
v -4.817615 1.161883 0.905000
v -4.817615 1.161883 1.355000
v -4.819401 1.170863 0.905000
v -4.819401 1.170863 1.355000
v -4.820000 1.180000 0.905000
v -4.820000 1.180000 1.355000
v -4.819401 1.189137 0.905000
v -4.819401 1.189137 1.355000
v -4.817615 1.198117 0.905000
v -4.817615 1.198117 1.355000
v -4.814672 1.206788 0.905000
v -4.814672 1.206788 1.355000
v -4.810622 1.215000 0.905000
v -4.810622 1.215000 1.355000
v -4.805535 1.222613 0.905000
v -4.805535 1.222613 1.355000
v -4.799498 1.229497 0.905000
v -4.799498 1.229497 1.355000
v -4.792614 1.235535 0.905000
v -4.792614 1.235535 1.355000
v -4.785000 1.240622 0.905000
v -4.785000 1.240622 1.355000
v -4.776788 1.244672 0.905000
v -4.776788 1.244672 1.355000
v -4.768117 1.247615 0.905000
v -4.768117 1.247615 1.355000
v -4.759137 1.249401 0.905000
v -4.759137 1.249401 1.355000
v -4.620000 1.250000 0.905000
v -4.620000 1.250000 1.355000
v -4.610863 1.249401 0.905000
v -4.610863 1.249401 1.355000
v -4.601882 1.247615 0.905000
v -4.601882 1.247615 1.355000
v -4.593212 1.244672 0.905000
v -4.593212 1.244672 1.355000
v -4.585000 1.240622 0.905000
v -4.585000 1.240622 1.355000
v -4.577386 1.235535 0.905000
v -4.577386 1.235535 1.355000
v -4.570502 1.229497 0.905000
v -4.570502 1.229497 1.355000
v -4.564465 1.222613 0.905000
v -4.564465 1.222613 1.355000
v -4.559378 1.215000 0.905000
v -4.559378 1.215000 1.355000
v -4.555328 1.206788 0.905000
v -4.555328 1.206788 1.355000
v -4.552385 1.198117 0.905000
v -4.552385 1.198117 1.355000
v -4.550599 1.189137 0.905000
v -4.550599 1.189137 1.355000
v -4.550000 1.180000 0.905000
v -4.550000 1.180000 1.355000
v -4.550599 1.170863 0.905000
v -4.550599 1.170863 1.355000
v -4.552385 1.161883 0.905000
v -4.552385 1.161883 1.355000
v -4.555328 1.153212 0.905000
v -4.555328 1.153212 1.355000
v -4.559378 1.145000 0.905000
v -4.559378 1.145000 1.355000
v -4.564465 1.137387 0.905000
v -4.564465 1.137387 1.355000
v -4.570502 1.130502 0.905000
v -4.570502 1.130502 1.355000
v -4.577386 1.124465 0.905000
v -4.577386 1.124465 1.355000
v -4.585000 1.119378 0.905000
v -4.585000 1.119378 1.355000
v -4.593212 1.115328 0.905000
v -4.593212 1.115328 1.355000
v -4.601882 1.112385 0.905000
v -4.601882 1.112385 1.355000
v -4.610863 1.110599 0.905000
v -4.610863 1.110599 1.355000
v -4.620000 1.110000 0.905000
v -4.620000 1.110000 1.355000
v -4.629137 1.110599 0.905000
v -4.629137 1.110599 1.355000
v -4.638117 1.112385 0.905000
v -4.638117 1.112385 1.355000
v -4.646788 1.115328 0.905000
v -4.646788 1.115328 1.355000
v -4.655000 1.119378 0.905000
v -4.655000 1.119378 1.355000
v -4.662613 1.124465 0.905000
v -4.662613 1.124465 1.355000
v -4.669497 1.130502 0.905000
v -4.669497 1.130502 1.355000
v -4.675535 1.137387 0.905000
v -4.675535 1.137387 1.355000
v -4.680622 1.145000 0.905000
v -4.680622 1.145000 1.355000
v -4.684671 1.153212 0.905000
v -4.684671 1.153212 1.355000
v -4.687614 1.161883 0.905000
v -4.687614 1.161883 1.355000
v -4.689401 1.170863 0.905000
v -4.689401 1.170863 1.355000
v -4.690000 1.180000 0.905000
v -4.690000 1.180000 1.355000
v -4.689401 1.189137 0.905000
v -4.689401 1.189137 1.355000
v -4.687614 1.198117 0.905000
v -4.687614 1.198117 1.355000
v -4.684671 1.206788 0.905000
v -4.684671 1.206788 1.355000
v -4.680622 1.215000 0.905000
v -4.680622 1.215000 1.355000
v -4.675535 1.222613 0.905000
v -4.675535 1.222613 1.355000
v -4.669497 1.229497 0.905000
v -4.669497 1.229497 1.355000
v -4.662613 1.235535 0.905000
v -4.662613 1.235535 1.355000
v -4.655000 1.240622 0.905000
v -4.655000 1.240622 1.355000
v -4.646788 1.244672 0.905000
v -4.646788 1.244672 1.355000
v -4.638117 1.247615 0.905000
v -4.638117 1.247615 1.355000
v -4.629137 1.249401 0.905000
v -4.629137 1.249401 1.355000
v -4.695201 1.262347 0.854529
v -4.701587 1.261487 0.857844
v -4.707548 1.257548 0.859058
v -4.711486 1.251587 0.857844
v -4.712347 1.245201 0.854529
v -4.709899 1.240101 0.850000
v -4.704799 1.237653 0.845471
v -4.698412 1.238513 0.842156
v -4.692451 1.242452 0.840942
v -4.688513 1.248413 0.842156
v -4.687653 1.254799 0.845471
v -4.690100 1.259899 0.850000
v -4.616405 1.176352 0.991575
v -4.622891 1.175599 0.994718
v -4.628997 1.171817 0.995682
v -4.633087 1.166019 0.994207
v -4.634065 1.159759 0.990689
v -4.631669 1.154714 0.986071
v -4.626541 1.152236 0.981590
v -4.620054 1.152989 0.978447
v -4.613948 1.156771 0.977484
v -4.609859 1.162569 0.978958
v -4.608881 1.168829 0.982476
v -4.611277 1.173874 0.987094
v -4.531713 1.072017 1.146974
v -4.538251 1.071327 1.150024
v -4.544445 1.067651 1.150828
v -4.548634 1.061975 1.149172
v -4.549698 1.055819 1.145499
v -4.547350 1.050833 1.140793
v -4.542220 1.048353 1.136315
v -4.535683 1.049044 1.133265
v -4.529489 1.052719 1.132460
v -4.525300 1.058396 1.134117
v -4.524236 1.064552 1.137790
v -4.526584 1.069537 1.142496
v -4.442704 0.953839 1.313741
v -4.449258 0.953170 1.316760
v -4.455500 0.949558 1.317474
v -4.459758 0.943972 1.315691
v -4.460890 0.937907 1.311889
v -4.458594 0.932989 1.307087
v -4.453485 0.930536 1.302571
v -4.446931 0.931205 1.299552
v -4.440689 0.934817 1.298838
v -4.436431 0.940403 1.300621
v -4.435298 0.946468 1.304423
v -4.437594 0.951386 1.309225
v -4.350962 0.826306 1.484888
v -4.357507 0.825625 1.487924
v -4.363774 0.822047 1.488593
v -4.368083 0.816531 1.486714
v -4.369280 0.810556 1.482793
v -4.367044 0.805722 1.477879
v -4.361975 0.803324 1.473289
v -4.355430 0.804005 1.470253
v -4.349163 0.807583 1.469584
v -4.344853 0.813098 1.471462
v -4.343657 0.819074 1.475384
v -4.345892 0.823908 1.480298
v -4.258082 0.693914 1.653413
v -4.264594 0.693185 1.656510
v -4.270866 0.689615 1.657168
v -4.275218 0.684160 1.655213
v -4.276484 0.678282 1.651167
v -4.274324 0.673556 1.646116
v -4.269318 0.671248 1.641412
v -4.262806 0.671977 1.638315
v -4.256534 0.675547 1.637657
v -4.252182 0.681002 1.639612
v -4.250916 0.686880 1.643658
v -4.253076 0.691606 1.648709
v -4.165663 0.561158 1.812308
v -4.172111 0.560338 1.815514
v -4.178368 0.556747 1.816197
v -4.182760 0.551349 1.814174
v -4.184108 0.545589 1.809988
v -4.182052 0.541011 1.804760
v -4.177143 0.538842 1.799890
v -4.170695 0.539662 1.796685
v -4.164438 0.543253 1.796001
v -4.160046 0.548651 1.798024
v -4.158698 0.554411 1.802210
v -4.160754 0.558989 1.807438
v -4.075296 0.432527 1.954565
v -4.081632 0.431548 1.957946
v -4.087848 0.427898 1.958693
v -4.092280 0.422558 1.956607
v -4.093740 0.416957 1.952247
v -4.091838 0.412596 1.946780
v -4.087082 0.410644 1.941673
v -4.080747 0.411624 1.938292
v -4.074531 0.415273 1.937545
v -4.070098 0.420613 1.939631
v -4.068638 0.426215 1.943991
v -4.070540 0.430575 1.949457
v -3.988555 0.312487 2.073188
v -3.994687 0.311229 2.076839
v -4.000815 0.307458 2.077705
v -4.005297 0.302185 2.075553
v -4.006931 0.296823 2.070960
v -4.005280 0.292808 2.065157
v -4.000787 0.291217 2.059698
v -3.994655 0.292475 2.056047
v -3.988527 0.296246 2.055181
v -3.984046 0.301519 2.057333
v -3.982411 0.306881 2.061926
v -3.984062 0.310895 2.067729
v -3.906953 0.205439 2.161190
v -3.912679 0.203655 2.165258
v -3.918614 0.199635 2.166320
v -3.923169 0.194458 2.164093
v -3.925123 0.189509 2.159173
v -3.923952 0.186115 2.152878
v -3.919970 0.185186 2.146894
v -3.914244 0.186970 2.142826
v -3.908309 0.190989 2.141764
v -3.903754 0.196167 2.143991
v -3.901800 0.201116 2.148911
v -3.902971 0.204510 2.155206
v -3.831815 0.115618 2.211528
v -3.836592 0.112728 2.216148
v -3.842061 0.108164 2.217482
v -3.846756 0.103149 2.215174
v -3.849418 0.099027 2.209841
v -3.849336 0.096902 2.202913
v -3.846530 0.097345 2.196246
v -3.841753 0.100235 2.191626
v -3.836284 0.104799 2.190292
v -3.831589 0.109814 2.192600
v -3.828926 0.113936 2.197933
v -3.829009 0.116060 2.204861
v -3.764222 0.047215 2.216534
v -3.766856 0.042232 2.221089
v -3.771248 0.036616 2.222391
v -3.776221 0.031873 2.220091
v -3.780442 0.029274 2.214805
v -3.782782 0.029514 2.207950
v -3.782611 0.032530 2.201363
v -3.779977 0.037513 2.196808
v -3.775585 0.043129 2.195506
v -3.770612 0.047872 2.197806
v -3.766391 0.050471 2.203092
v -3.764051 0.050231 2.209947
v -3.706386 0.005757 2.167892
v -3.706369 -0.001114 2.170194
v -3.709417 -0.007687 2.170354
v -3.714712 -0.012200 2.168328
v -3.720837 -0.013445 2.164659
v -3.726150 -0.011086 2.160331
v -3.729227 -0.005757 2.156504
v -3.729244 0.001114 2.154202
v -3.726197 0.007687 2.154042
v -3.720901 0.012200 2.156068
v -3.714776 0.013445 2.159737
v -3.709463 0.011086 2.164065
vn -1.0000 -0.0000 -0.0000
vn -0.0000 1.0000 -0.0000
vn 1.0000 -0.0000 -0.0000
vn -0.0000 -1.0000 -0.0000
vn -0.0000 -0.0000 -1.0000
vn -0.0000 -0.0000 1.0000
vn 0.0654 0.9979 -0.0000
vn 0.1951 0.9808 -0.0000
vn 0.3214 0.9469 -0.0000
vn 0.4423 0.8969 -0.0000
vn 0.5556 0.8315 -0.0000
vn 0.6593 0.7518 -0.0000
vn 0.7518 0.6593 -0.0000
vn 0.8315 0.5556 -0.0000
vn 0.8969 0.4423 -0.0000
vn 0.9469 0.3214 -0.0000
vn 0.9808 0.1951 -0.0000
vn 0.9979 0.0654 -0.0000
vn 0.9979 -0.0654 -0.0000
vn 0.9808 -0.1951 -0.0000
vn 0.9469 -0.3214 -0.0000
vn 0.8969 -0.4423 -0.0000
vn 0.8315 -0.5556 -0.0000
vn 0.7518 -0.6593 -0.0000
vn 0.6593 -0.7518 -0.0000
vn 0.5556 -0.8315 -0.0000
vn 0.4423 -0.8969 -0.0000
vn 0.3214 -0.9469 -0.0000
vn 0.1951 -0.9808 -0.0000
vn 0.0654 -0.9979 -0.0000
vn -0.0654 -0.9979 -0.0000
vn -0.1951 -0.9808 -0.0000
vn -0.3214 -0.9469 -0.0000
vn -0.4423 -0.8969 -0.0000
vn -0.5556 -0.8315 -0.0000
vn -0.6593 -0.7518 -0.0000
vn -0.7518 -0.6593 -0.0000
vn -0.8315 -0.5556 -0.0000
vn -0.8969 -0.4423 -0.0000
vn -0.9469 -0.3214 -0.0000
vn -0.9808 -0.1951 -0.0000
vn -0.9979 -0.0654 -0.0000
vn -0.9979 0.0654 -0.0000
vn -0.9808 0.1951 -0.0000
vn -0.9469 0.3214 -0.0000
vn -0.8969 0.4423 -0.0000
vn -0.8315 0.5556 -0.0000
vn -0.7518 0.6593 -0.0000
vn -0.6593 0.7518 -0.0000
vn -0.5556 0.8315 -0.0000
vn -0.4423 0.8969 -0.0000
vn -0.3214 0.9469 -0.0000
vn -0.1951 0.9808 -0.0000
vn -0.0654 0.9979 -0.0000
vn 0.3559 0.8700 0.3413
vn 0.7280 0.6845 0.0368
vn 0.7197 0.6940 0.0217
vn -0.1030 0.8148 0.5705
vn 0.3630 0.8611 0.3559
vn -0.5354 0.5419 0.6479
vn -0.0990 0.8083 0.5804
vn -0.8250 0.1230 0.5515
vn -0.5351 0.5395 0.6500
vn -0.8930 -0.3297 0.3065
vn -0.8285 0.1258 0.5457
vn -0.7199 -0.6938 -0.0215
vn -0.8997 -0.3223 0.2945
vn -0.3610 -0.8614 -0.3573
vn -0.3523 -0.8705 -0.3437
vn 0.1036 -0.8067 -0.5819
vn 0.1100 -0.8122 -0.5729
vn 0.5398 -0.5351 -0.6498
vn 0.5421 -0.5355 -0.6477
vn 0.8307 -0.1206 -0.5435
vn 0.8279 -0.1159 -0.5487
vn 0.8992 0.3256 -0.2922
vn 0.8924 0.3337 -0.3037
vn 0.7412 0.6685 0.0614
vn 0.3755 0.8451 0.3805
vn -0.0905 0.7962 0.5982
vn -0.5326 0.5346 0.6561
vn -0.8326 0.1297 0.5385
vn -0.7421 -0.6676 -0.0603
vn -0.7285 -0.6840 -0.0362
vn -0.3750 -0.8452 -0.3808
vn 0.0930 -0.7954 -0.5989
vn 0.5357 -0.5319 -0.6559
vn 0.8342 -0.1259 -0.5369
vn 0.9092 0.3133 -0.2743
vn 0.7493 0.6577 0.0772
vn 0.3847 0.8323 0.3991
vn -0.0826 0.7846 0.6144
vn -0.5280 0.5274 0.6657
vn -0.9095 -0.3105 0.2764
vn -0.8324 0.1289 0.5389
vn -0.7507 -0.6564 -0.0755
vn -0.3854 -0.8322 -0.3987
vn 0.0836 -0.7843 -0.6147
vn 0.5300 -0.5256 -0.6655
vn 0.8338 -0.1259 -0.5375
vn 0.9139 0.3071 -0.2656
vn 0.7545 0.6504 0.0876
vn 0.3924 0.8209 0.4148
vn -0.0743 0.7721 0.6311
vn -0.5211 0.5172 0.6790
vn -0.9153 -0.3027 0.2658
vn -0.9141 -0.3044 0.2678
vn -0.7563 -0.6486 -0.0852
vn -0.3942 -0.8207 -0.4137
vn 0.0741 -0.7721 -0.6311
vn 0.5225 -0.5160 -0.6788
vn 0.8303 -0.1213 -0.5440
vn 0.9150 0.3057 -0.2634
vn 0.7576 0.6458 0.0943
vn 0.3998 0.8097 0.4296
vn -0.0645 0.7572 0.6500
vn -0.8290 0.1239 0.5454
vn -0.5114 0.5028 0.6969
vn -0.9133 -0.3053 0.2697
vn -0.7601 -0.6434 -0.0910
vn -0.4028 -0.8093 -0.4276
vn 0.0632 -0.7577 -0.6496
vn 0.5122 -0.5021 -0.6968
vn 0.8234 -0.1115 -0.5564
vn 0.9130 0.3088 -0.2667
vn 0.7590 0.6437 0.0981
vn 0.4077 0.7973 0.4451
vn -0.0519 0.7379 0.6729
vn -0.8220 0.1141 0.5579
vn -0.4974 0.4820 0.7213
vn -0.9076 -0.3129 0.2798
vn -0.7623 -0.6404 -0.0932
vn -0.4123 -0.7967 -0.4418
vn 0.0492 -0.7389 -0.6720
vn 0.4977 -0.4818 -0.7212
vn 0.8120 -0.0948 -0.5760
vn 0.9073 0.3173 -0.2757
vn 0.7582 0.6444 0.0994
vn 0.4174 0.7819 0.4631
vn -0.0340 0.7107 0.7027
vn -0.7912 0.0713 0.6074
vn -0.8104 0.0978 0.5776
vn -0.8966 -0.3276 0.2978
vn -0.7630 -0.6398 -0.0918
vn -0.4244 -0.7812 -0.4577
vn 0.0292 -0.7125 -0.7011
vn 0.4755 -0.4511 -0.7553
vn 0.7932 -0.0676 -0.6052
vn 0.8964 0.3336 -0.2919
vn 0.7543 0.6492 0.0984
vn 0.4313 0.7598 0.4865
vn -0.4758 0.4508 0.7553
vn -0.0052 0.6680 0.7441
vn -0.7575 0.0263 0.6524
vn -0.8757 -0.3549 0.3275
vn -0.7613 -0.6427 -0.0854
vn -0.4424 -0.7595 -0.4769
vn -0.0030 -0.6715 -0.7410
vn 0.4383 -0.4010 -0.8044
vn 0.7605 -0.0213 -0.6490
vn 0.8757 0.3636 -0.3177
vn 0.7440 0.6613 0.0959
vn 0.4556 0.7224 0.5202
vn -0.4394 0.3998 0.8044
vn 0.0488 0.5919 0.8045
vn -0.6905 -0.0575 0.7210
vn -0.8321 -0.4079 0.3758
vn -0.7545 -0.6525 -0.0705
vn -0.4741 -0.7242 -0.5007
vn -0.0630 -0.5999 -0.7976
vn 0.3671 -0.3106 -0.8768
vn 0.6964 0.0646 -0.7147
vn 0.8338 0.4212 -0.3570
vn 0.7198 0.6872 0.0981
vn 0.5109 0.6455 0.5678
vn -0.3691 0.3071 0.8772
vn 0.1722 0.4350 0.8838
vn -0.5342 -0.2330 0.8126
vn -0.7266 -0.5231 0.4455
vn -0.7315 -0.6806 -0.0412
vn -0.5399 -0.6595 -0.5231
vn -0.1964 -0.4579 -0.8670
vn 0.2055 -0.1260 -0.9705
vn 0.5498 0.2428 -0.7993
vn 0.7371 0.5415 -0.4042
vn 0.6766 0.7258 0.1242
vn 0.6467 0.4948 0.5805
vn -0.2076 0.1150 0.9714
vn 0.4538 0.1426 0.8796
vn -0.1865 -0.5636 0.8047
vn -0.4813 -0.7509 0.4523
vn -0.6592 -0.7517 -0.0199
vn -0.6663 -0.5543 -0.4987
vn -0.4858 -0.1977 -0.8514
vn -0.1590 0.2234 -0.9617
vn 0.2164 0.5807 -0.7849
vn 0.5233 0.7633 -0.3789
vn 0.6498 0.7480 0.1350
vn 0.7408 0.4000 0.5397
vn 0.1516 -0.2403 0.9588
vn 0.6293 -0.0335 0.7764
vn 0.3785 -0.4328 0.8182
vn -0.3031 -0.8726 0.3829
vn -0.6023 -0.7974 -0.0366
vn -0.7398 -0.4851 -0.4663
vn -0.6552 -0.0294 -0.7549
vn -0.3888 0.4186 -0.8207
vn -0.0209 0.7477 -0.6637
vn 0.3626 0.8765 -0.3167
vn 0.0001 -0.0000 1.0000
vn -0.0001 -0.0000 1.0000
vn 0.0499 -0.7304 0.6812
s 0
usemtl steel_grey
f 2//1 3//1 1//1
f 4//2 7//2 3//2
f 8//3 5//3 7//3
f 6//4 1//4 5//4
f 7//5 1//5 3//5
f 4//6 6//6 8//6
f 2//1 4//1 3//1
f 4//2 8//2 7//2
f 8//3 6//3 5//3
f 6//4 2//4 1//4
f 7//5 5//5 1//5
f 4//6 2//6 6//6
usemtl generator_paint
f 10//7 11//7 9//7
f 12//8 13//8 11//8
f 14//9 15//9 13//9
f 16//10 17//10 15//10
f 18//11 19//11 17//11
f 20//12 21//12 19//12
f 22//13 23//13 21//13
f 24//14 25//14 23//14
f 26//15 27//15 25//15
f 28//16 29//16 27//16
f 30//17 31//17 29//17
f 32//18 33//18 31//18
f 34//19 35//19 33//19
f 36//20 37//20 35//20
f 38//21 39//21 37//21
f 40//22 41//22 39//22
f 42//23 43//23 41//23
f 44//24 45//24 43//24
f 46//25 47//25 45//25
f 48//26 49//26 47//26
f 50//27 51//27 49//27
f 52//28 53//28 51//28
f 54//29 55//29 53//29
f 56//30 57//30 55//30
f 58//31 59//31 57//31
f 60//32 61//32 59//32
f 62//33 63//33 61//33
f 64//34 65//34 63//34
f 66//35 67//35 65//35
f 68//36 69//36 67//36
f 70//37 71//37 69//37
f 72//38 73//38 71//38
f 74//39 75//39 73//39
f 76//40 77//40 75//40
f 78//41 79//41 77//41
f 80//42 81//42 79//42
f 82//43 83//43 81//43
f 84//44 85//44 83//44
f 86//45 87//45 85//45
f 88//46 89//46 87//46
f 90//47 91//47 89//47
f 92//48 93//48 91//48
f 94//49 95//49 93//49
f 96//50 97//50 95//50
f 98//51 99//51 97//51
f 100//52 101//52 99//52
f 78//6 46//6 14//6
f 102//53 103//53 101//53
f 104//54 9//54 103//54
f 39//5 71//5 103//5
f 10//7 12//7 11//7
f 12//8 14//8 13//8
f 14//9 16//9 15//9
f 16//10 18//10 17//10
f 18//11 20//11 19//11
f 20//12 22//12 21//12
f 22//13 24//13 23//13
f 24//14 26//14 25//14
f 26//15 28//15 27//15
f 28//16 30//16 29//16
f 30//17 32//17 31//17
f 32//18 34//18 33//18
f 34//19 36//19 35//19
f 36//20 38//20 37//20
f 38//21 40//21 39//21
f 40//22 42//22 41//22
f 42//23 44//23 43//23
f 44//24 46//24 45//24
f 46//25 48//25 47//25
f 48//26 50//26 49//26
f 50//27 52//27 51//27
f 52//28 54//28 53//28
f 54//29 56//29 55//29
f 56//30 58//30 57//30
f 58//31 60//31 59//31
f 60//32 62//32 61//32
f 62//33 64//33 63//33
f 64//34 66//34 65//34
f 66//35 68//35 67//35
f 68//36 70//36 69//36
f 70//37 72//37 71//37
f 72//38 74//38 73//38
f 74//39 76//39 75//39
f 76//40 78//40 77//40
f 78//41 80//41 79//41
f 80//42 82//42 81//42
f 82//43 84//43 83//43
f 84//44 86//44 85//44
f 86//45 88//45 87//45
f 88//46 90//46 89//46
f 90//47 92//47 91//47
f 92//48 94//48 93//48
f 94//49 96//49 95//49
f 96//50 98//50 97//50
f 98//51 100//51 99//51
f 100//52 102//52 101//52
f 14//6 12//6 10//6
f 10//6 104//6 102//6
f 102//6 100//6 98//6
f 98//6 96//6 94//6
f 94//6 92//6 90//6
f 90//6 88//6 86//6
f 86//6 84//6 82//6
f 82//6 80//6 78//6
f 78//6 76//6 74//6
f 74//6 72//6 70//6
f 70//6 68//6 66//6
f 66//6 64//6 62//6
f 62//6 60//6 58//6
f 58//6 56//6 54//6
f 54//6 52//6 50//6
f 50//6 48//6 46//6
f 46//6 44//6 42//6
f 42//6 40//6 38//6
f 38//6 36//6 34//6
f 34//6 32//6 30//6
f 30//6 28//6 26//6
f 26//6 24//6 22//6
f 22//6 20//6 18//6
f 18//6 16//6 14//6
f 14//6 10//6 102//6
f 102//6 98//6 94//6
f 94//6 90//6 86//6
f 86//6 82//6 78//6
f 78//6 74//6 70//6
f 70//6 66//6 62//6
f 62//6 58//6 54//6
f 54//6 50//6 46//6
f 46//6 42//6 38//6
f 38//6 34//6 30//6
f 30//6 26//6 22//6
f 22//6 18//6 14//6
f 14//6 102//6 94//6
f 94//6 86//6 78//6
f 78//6 70//6 62//6
f 62//6 54//6 46//6
f 46//6 38//6 30//6
f 30//6 22//6 14//6
f 14//6 94//6 78//6
f 78//6 62//6 46//6
f 46//6 30//6 14//6
f 102//53 104//53 103//53
f 104//54 10//54 9//54
f 103//5 9//5 11//5
f 11//5 13//5 15//5
f 15//5 17//5 19//5
f 19//5 21//5 23//5
f 23//5 25//5 27//5
f 27//5 29//5 31//5
f 31//5 33//5 35//5
f 35//5 37//5 39//5
f 39//5 41//5 43//5
f 43//5 45//5 47//5
f 47//5 49//5 51//5
f 51//5 53//5 55//5
f 55//5 57//5 59//5
f 59//5 61//5 63//5
f 63//5 65//5 67//5
f 67//5 69//5 71//5
f 71//5 73//5 75//5
f 75//5 77//5 79//5
f 79//5 81//5 83//5
f 83//5 85//5 87//5
f 87//5 89//5 91//5
f 91//5 93//5 95//5
f 95//5 97//5 99//5
f 99//5 101//5 103//5
f 103//5 11//5 15//5
f 15//5 19//5 23//5
f 23//5 27//5 31//5
f 31//5 35//5 39//5
f 39//5 43//5 47//5
f 47//5 51//5 55//5
f 55//5 59//5 63//5
f 63//5 67//5 71//5
f 71//5 75//5 79//5
f 79//5 83//5 87//5
f 87//5 91//5 95//5
f 95//5 99//5 103//5
f 103//5 15//5 23//5
f 23//5 31//5 39//5
f 39//5 47//5 55//5
f 55//5 63//5 71//5
f 71//5 79//5 87//5
f 87//5 95//5 103//5
f 103//5 23//5 39//5
f 39//5 55//5 71//5
f 71//5 87//5 103//5
usemtl pipe_steel
f 106//1 107//1 105//1
f 108//2 111//2 107//2
f 112//3 109//3 111//3
f 110//4 105//4 109//4
f 111//5 105//5 107//5
f 108//6 110//6 112//6
f 106//1 108//1 107//1
f 108//2 112//2 111//2
f 112//3 110//3 109//3
f 110//4 106//4 105//4
f 111//5 109//5 105//5
f 108//6 106//6 110//6
usemtl gear_paint
f 114//1 115//1 113//1
f 116//2 119//2 115//2
f 120//3 117//3 119//3
f 118//4 113//4 117//4
f 119//5 113//5 115//5
f 116//6 118//6 120//6
f 114//1 116//1 115//1
f 116//2 120//2 119//2
f 120//3 118//3 117//3
f 118//4 114//4 113//4
f 119//5 117//5 113//5
f 116//6 114//6 118//6
usemtl alarm_red
f 122//7 123//7 121//7
f 124//8 125//8 123//8
f 126//9 127//9 125//9
f 128//10 129//10 127//10
f 130//11 131//11 129//11
f 132//12 133//12 131//12
f 134//13 135//13 133//13
f 136//14 137//14 135//14
f 138//15 139//15 137//15
f 140//16 141//16 139//16
f 142//17 143//17 141//17
f 144//18 145//18 143//18
f 146//19 147//19 145//19
f 148//20 149//20 147//20
f 150//21 151//21 149//21
f 152//22 153//22 151//22
f 154//23 155//23 153//23
f 156//24 157//24 155//24
f 158//25 159//25 157//25
f 160//26 161//26 159//26
f 162//27 163//27 161//27
f 164//28 165//28 163//28
f 166//29 167//29 165//29
f 168//30 169//30 167//30
f 170//31 171//31 169//31
f 172//32 173//32 171//32
f 174//33 175//33 173//33
f 176//34 177//34 175//34
f 178//35 179//35 177//35
f 180//36 181//36 179//36
f 182//37 183//37 181//37
f 184//38 185//38 183//38
f 186//39 187//39 185//39
f 188//40 189//40 187//40
f 190//41 191//41 189//41
f 192//42 193//42 191//42
f 194//43 195//43 193//43
f 196//44 197//44 195//44
f 198//45 199//45 197//45
f 200//46 201//46 199//46
f 202//47 203//47 201//47
f 204//48 205//48 203//48
f 206//49 207//49 205//49
f 208//50 209//50 207//50
f 210//51 211//51 209//51
f 212//52 213//52 211//52
f 190//6 158//6 126//6
f 214//53 215//53 213//53
f 216//54 121//54 215//54
f 151//5 183//5 215//5
f 218//7 219//7 217//7
f 220//8 221//8 219//8
f 222//9 223//9 221//9
f 224//10 225//10 223//10
f 226//11 227//11 225//11
f 228//12 229//12 227//12
f 230//13 231//13 229//13
f 232//14 233//14 231//14
f 234//15 235//15 233//15
f 236//16 237//16 235//16
f 238//17 239//17 237//17
f 240//18 241//18 239//18
f 242//19 243//19 241//19
f 244//20 245//20 243//20
f 246//21 247//21 245//21
f 248//22 249//22 247//22
f 250//23 251//23 249//23
f 252//24 253//24 251//24
f 254//25 255//25 253//25
f 256//26 257//26 255//26
f 258//27 259//27 257//27
f 260//28 261//28 259//28
f 262//29 263//29 261//29
f 264//30 265//30 263//30
f 266//31 267//31 265//31
f 268//32 269//32 267//32
f 270//33 271//33 269//33
f 272//34 273//34 271//34
f 274//35 275//35 273//35
f 276//36 277//36 275//36
f 278//37 279//37 277//37
f 280//38 281//38 279//38
f 282//39 283//39 281//39
f 284//40 285//40 283//40
f 286//41 287//41 285//41
f 288//42 289//42 287//42
f 290//43 291//43 289//43
f 292//44 293//44 291//44
f 294//45 295//45 293//45
f 296//46 297//46 295//46
f 298//47 299//47 297//47
f 300//48 301//48 299//48
f 302//49 303//49 301//49
f 304//50 305//50 303//50
f 306//51 307//51 305//51
f 308//52 309//52 307//52
f 286//6 254//6 222//6
f 310//53 311//53 309//53
f 312//54 217//54 311//54
f 247//5 279//5 311//5
f 122//7 124//7 123//7
f 124//8 126//8 125//8
f 126//9 128//9 127//9
f 128//10 130//10 129//10
f 130//11 132//11 131//11
f 132//12 134//12 133//12
f 134//13 136//13 135//13
f 136//14 138//14 137//14
f 138//15 140//15 139//15
f 140//16 142//16 141//16
f 142//17 144//17 143//17
f 144//18 146//18 145//18
f 146//19 148//19 147//19
f 148//20 150//20 149//20
f 150//21 152//21 151//21
f 152//22 154//22 153//22
f 154//23 156//23 155//23
f 156//24 158//24 157//24
f 158//25 160//25 159//25
f 160//26 162//26 161//26
f 162//27 164//27 163//27
f 164//28 166//28 165//28
f 166//29 168//29 167//29
f 168//30 170//30 169//30
f 170//31 172//31 171//31
f 172//32 174//32 173//32
f 174//33 176//33 175//33
f 176//34 178//34 177//34
f 178//35 180//35 179//35
f 180//36 182//36 181//36
f 182//37 184//37 183//37
f 184//38 186//38 185//38
f 186//39 188//39 187//39
f 188//40 190//40 189//40
f 190//41 192//41 191//41
f 192//42 194//42 193//42
f 194//43 196//43 195//43
f 196//44 198//44 197//44
f 198//45 200//45 199//45
f 200//46 202//46 201//46
f 202//47 204//47 203//47
f 204//48 206//48 205//48
f 206//49 208//49 207//49
f 208//50 210//50 209//50
f 210//51 212//51 211//51
f 212//52 214//52 213//52
f 126//6 124//6 122//6
f 122//6 216//6 214//6
f 214//6 212//6 210//6
f 210//6 208//6 206//6
f 206//210 204//210 202//210
f 202//6 200//6 198//6
f 198//211 196//211 194//211
f 194//211 192//211 190//211
f 190//6 188//6 186//6
f 186//211 184//211 182//211
f 182//6 180//6 178//6
f 178//6 176//6 174//6
f 174//6 172//6 170//6
f 170//6 168//6 166//6
f 166//6 164//6 162//6
f 162//6 160//6 158//6
f 158//210 156//210 154//210
f 154//6 152//6 150//6
f 150//210 148//210 146//210
f 146//210 144//210 142//210
f 142//6 140//6 138//6
f 138//211 136//211 134//211
f 134//6 132//6 130//6
f 130//6 128//6 126//6
f 126//6 122//6 214//6
f 214//6 210//6 206//6
f 206//6 202//6 198//6
f 198//6 194//6 190//6
f 190//6 186//6 182//6
f 182//6 178//6 174//6
f 174//6 170//6 166//6
f 166//6 162//6 158//6
f 158//6 154//6 150//6
f 150//6 146//6 142//6
f 142//6 138//6 134//6
f 134//6 130//6 126//6
f 126//6 214//6 206//6
f 206//6 198//6 190//6
f 190//6 182//6 174//6
f 174//6 166//6 158//6
f 158//6 150//6 142//6
f 142//6 134//6 126//6
f 126//6 206//6 190//6
f 190//6 174//6 158//6
f 158//6 142//6 126//6
f 214//53 216//53 215//53
f 216//54 122//54 121//54
f 215//5 121//5 123//5
f 123//5 125//5 127//5
f 127//5 129//5 131//5
f 131//5 133//5 135//5
f 135//5 137//5 139//5
f 139//5 141//5 143//5
f 143//5 145//5 147//5
f 147//5 149//5 151//5
f 151//5 153//5 155//5
f 155//5 157//5 159//5
f 159//5 161//5 163//5
f 163//5 165//5 167//5
f 167//5 169//5 171//5
f 171//5 173//5 175//5
f 175//5 177//5 179//5
f 179//5 181//5 183//5
f 183//5 185//5 187//5
f 187//5 189//5 191//5
f 191//5 193//5 195//5
f 195//5 197//5 199//5
f 199//5 201//5 203//5
f 203//5 205//5 207//5
f 207//5 209//5 211//5
f 211//5 213//5 215//5
f 215//5 123//5 127//5
f 127//5 131//5 135//5
f 135//5 139//5 143//5
f 143//5 147//5 151//5
f 151//5 155//5 159//5
f 159//5 163//5 167//5
f 167//5 171//5 175//5
f 175//5 179//5 183//5
f 183//5 187//5 191//5
f 191//5 195//5 199//5
f 199//5 203//5 207//5
f 207//5 211//5 215//5
f 215//5 127//5 135//5
f 135//5 143//5 151//5
f 151//5 159//5 167//5
f 167//5 175//5 183//5
f 183//5 191//5 199//5
f 199//5 207//5 215//5
f 215//5 135//5 151//5
f 151//5 167//5 183//5
f 183//5 199//5 215//5
f 218//7 220//7 219//7
f 220//8 222//8 221//8
f 222//9 224//9 223//9
f 224//10 226//10 225//10
f 226//11 228//11 227//11
f 228//12 230//12 229//12
f 230//13 232//13 231//13
f 232//14 234//14 233//14
f 234//15 236//15 235//15
f 236//16 238//16 237//16
f 238//17 240//17 239//17
f 240//18 242//18 241//18
f 242//19 244//19 243//19
f 244//20 246//20 245//20
f 246//21 248//21 247//21
f 248//22 250//22 249//22
f 250//23 252//23 251//23
f 252//24 254//24 253//24
f 254//25 256//25 255//25
f 256//26 258//26 257//26
f 258//27 260//27 259//27
f 260//28 262//28 261//28
f 262//29 264//29 263//29
f 264//30 266//30 265//30
f 266//31 268//31 267//31
f 268//32 270//32 269//32
f 270//33 272//33 271//33
f 272//34 274//34 273//34
f 274//35 276//35 275//35
f 276//36 278//36 277//36
f 278//37 280//37 279//37
f 280//38 282//38 281//38
f 282//39 284//39 283//39
f 284//40 286//40 285//40
f 286//41 288//41 287//41
f 288//42 290//42 289//42
f 290//43 292//43 291//43
f 292//44 294//44 293//44
f 294//45 296//45 295//45
f 296//46 298//46 297//46
f 298//47 300//47 299//47
f 300//48 302//48 301//48
f 302//49 304//49 303//49
f 304//50 306//50 305//50
f 306//51 308//51 307//51
f 308//52 310//52 309//52
f 222//6 220//6 218//6
f 218//6 312//6 310//6
f 310//6 308//6 306//6
f 306//6 304//6 302//6
f 302//210 300//210 298//210
f 298//6 296//6 294//6
f 294//211 292//211 290//211
f 290//211 288//211 286//211
f 286//6 284//6 282//6
f 282//211 280//211 278//211
f 278//6 276//6 274//6
f 274//6 272//6 270//6
f 270//6 268//6 266//6
f 266//6 264//6 262//6
f 262//6 260//6 258//6
f 258//6 256//6 254//6
f 254//210 252//210 250//210
f 250//6 248//6 246//6
f 246//210 244//210 242//210
f 242//210 240//210 238//210
f 238//6 236//6 234//6
f 234//211 232//211 230//211
f 230//6 228//6 226//6
f 226//6 224//6 222//6
f 222//6 218//6 310//6
f 310//6 306//6 302//6
f 302//6 298//6 294//6
f 294//6 290//6 286//6
f 286//6 282//6 278//6
f 278//6 274//6 270//6
f 270//6 266//6 262//6
f 262//6 258//6 254//6
f 254//6 250//6 246//6
f 246//6 242//6 238//6
f 238//6 234//6 230//6
f 230//6 226//6 222//6
f 222//6 310//6 302//6
f 302//6 294//6 286//6
f 286//6 278//6 270//6
f 270//6 262//6 254//6
f 254//6 246//6 238//6
f 238//6 230//6 222//6
f 222//6 302//6 286//6
f 286//6 270//6 254//6
f 254//6 238//6 222//6
f 310//53 312//53 311//53
f 312//54 218//54 217//54
f 311//5 217//5 219//5
f 219//5 221//5 223//5
f 223//5 225//5 227//5
f 227//5 229//5 231//5
f 231//5 233//5 235//5
f 235//5 237//5 239//5
f 239//5 241//5 243//5
f 243//5 245//5 247//5
f 247//5 249//5 251//5
f 251//5 253//5 255//5
f 255//5 257//5 259//5
f 259//5 261//5 263//5
f 263//5 265//5 267//5
f 267//5 269//5 271//5
f 271//5 273//5 275//5
f 275//5 277//5 279//5
f 279//5 281//5 283//5
f 283//5 285//5 287//5
f 287//5 289//5 291//5
f 291//5 293//5 295//5
f 295//5 297//5 299//5
f 299//5 301//5 303//5
f 303//5 305//5 307//5
f 307//5 309//5 311//5
f 311//5 219//5 223//5
f 223//5 227//5 231//5
f 231//5 235//5 239//5
f 239//5 243//5 247//5
f 247//5 251//5 255//5
f 255//5 259//5 263//5
f 263//5 267//5 271//5
f 271//5 275//5 279//5
f 279//5 283//5 287//5
f 287//5 291//5 295//5
f 295//5 299//5 303//5
f 303//5 307//5 311//5
f 311//5 223//5 231//5
f 231//5 239//5 247//5
f 247//5 255//5 263//5
f 263//5 271//5 279//5
f 279//5 287//5 295//5
f 295//5 303//5 311//5
f 311//5 231//5 247//5
f 247//5 263//5 279//5
f 279//5 295//5 311//5
s 1
usemtl rubber
f 313//55 336//56 324//57
f 314//58 325//59 313//55
f 315//60 326//61 314//58
f 316//62 327//63 315//60
f 317//64 328//65 316//62
f 318//66 329//67 317//64
f 331//68 318//66 319//69
f 332//70 319//69 320//71
f 333//72 320//71 321//73
f 334//74 321//73 322//75
f 335//76 322//75 323//77
f 336//56 323//77 324//57
f 325//59 348//78 336//56
f 326//61 337//79 325//59
f 327//63 338//80 326//61
f 328//65 339//81 327//63
f 329//67 340//82 328//65
f 342//83 329//67 330//84
f 343//85 330//84 331//68
f 344//86 331//68 332//70
f 345//87 332//70 333//72
f 346//88 333//72 334//74
f 347//89 334//74 335//76
f 336//56 347//89 335//76
f 337//79 360//90 348//78
f 338//80 349//91 337//79
f 339//81 350//92 338//80
f 340//82 351//93 339//81
f 341//94 352//95 340//82
f 354//96 341//94 342//83
f 355//97 342//83 343//85
f 356//98 343//85 344//86
f 357//99 344//86 345//87
f 358//100 345//87 346//88
f 359//101 346//88 347//89
f 348//78 359//101 347//89
f 349//91 372//102 360//90
f 350//92 361//103 349//91
f 351//93 362//104 350//92
f 352//95 363//105 351//93
f 365//106 352//95 353//107
f 366//108 353//107 354//96
f 367//109 354//96 355//97
f 368//110 355//97 356//98
f 369//111 356//98 357//99
f 370//112 357//99 358//100
f 359//101 370//112 358//100
f 360//90 371//113 359//101
f 361//103 384//114 372//102
f 362//104 373//115 361//103
f 363//105 374//116 362//104
f 364//117 375//118 363//105
f 377//119 364//117 365//106
f 378//120 365//106 366//108
f 379//121 366//108 367//109
f 380//122 367//109 368//110
f 381//123 368//110 369//111
f 382//124 369//111 370//112
f 371//113 382//124 370//112
f 372//102 383//125 371//113
f 373//115 396//126 384//114
f 374//116 385//127 373//115
f 375//118 386//128 374//116
f 376//129 387//130 375//118
f 389//131 376//129 377//119
f 390//132 377//119 378//120
f 391//133 378//120 379//121
f 392//134 379//121 380//122
f 393//135 380//122 381//123
f 394//136 381//123 382//124
f 383//125 394//136 382//124
f 384//114 395//137 383//125
f 385//127 408//138 396//126
f 386//128 397//139 385//127
f 387//130 398//140 386//128
f 400//141 387//130 388//142
f 401//143 388//142 389//131
f 402//144 389//131 390//132
f 403//145 390//132 391//133
f 404//146 391//133 392//134
f 405//147 392//134 393//135
f 394//136 405//147 393//135
f 395//137 406//148 394//136
f 396//126 407//149 395//137
f 397//139 420//150 408//138
f 398//140 409//151 397//139
f 399//152 410//153 398//140
f 412//154 399//152 400//141
f 413//155 400//141 401//143
f 414//156 401//143 402//144
f 415//157 402//144 403//145
f 416//158 403//145 404//146
f 417//159 404//146 405//147
f 406//148 417//159 405//147
f 407//149 418//160 406//148
f 408//138 419//161 407//149
f 409//151 432//162 420//150
f 410//153 421//163 409//151
f 411//164 422//165 410//153
f 424//166 411//164 412//154
f 425//167 412//154 413//155
f 426//168 413//155 414//156
f 427//169 414//156 415//157
f 428//170 415//157 416//158
f 429//171 416//158 417//159
f 418//160 429//171 417//159
f 419//161 430//172 418//160
f 420//150 431//173 419//161
f 421//163 444//174 432//162
f 422//165 433//175 421//163
f 423//176 434//177 422//165
f 436//178 423//176 424//166
f 437//179 424//166 425//167
f 438//180 425//167 426//168
f 439//181 426//168 427//169
f 440//182 427//169 428//170
f 441//183 428//170 429//171
f 430//172 441//183 429//171
f 431//173 442//184 430//172
f 432//162 443//185 431//173
f 433//175 456//186 444//174
f 434//177 445//187 433//175
f 435//188 446//189 434//177
f 448//190 435//188 436//178
f 449//191 436//178 437//179
f 450//192 437//179 438//180
f 451//193 438//180 439//181
f 452//194 439//181 440//182
f 453//195 440//182 441//183
f 442//184 453//195 441//183
f 443//185 454//196 442//184
f 444//174 455//197 443//185
f 445//187 468//198 456//186
f 446//189 457//199 445//187
f 447//200 458//201 446//189
f 448//190 459//202 447//200
f 461//203 448//190 449//191
f 462//204 449//191 450//192
f 463//205 450//192 451//193
f 464//206 451//193 452//194
f 465//207 452//194 453//195
f 466//208 453//195 454//196
f 455//197 466//208 454//196
f 456//186 467//209 455//197
f 313//55 325//59 336//56
f 314//58 326//61 325//59
f 315//60 327//63 326//61
f 316//62 328//65 327//63
f 317//64 329//67 328//65
f 318//66 330//84 329//67
f 331//68 330//84 318//66
f 332//70 331//68 319//69
f 333//72 332//70 320//71
f 334//74 333//72 321//73
f 335//76 334//74 322//75
f 336//56 335//76 323//77
f 325//59 337//79 348//78
f 326//61 338//80 337//79
f 327//63 339//81 338//80
f 328//65 340//82 339//81
f 329//67 341//94 340//82
f 342//83 341//94 329//67
f 343//85 342//83 330//84
f 344//86 343//85 331//68
f 345//87 344//86 332//70
f 346//88 345//87 333//72
f 347//89 346//88 334//74
f 336//56 348//78 347//89
f 337//79 349//91 360//90
f 338//80 350//92 349//91
f 339//81 351//93 350//92
f 340//82 352//95 351//93
f 341//94 353//107 352//95
f 354//96 353//107 341//94
f 355//97 354//96 342//83
f 356//98 355//97 343//85
f 357//99 356//98 344//86
f 358//100 357//99 345//87
f 359//101 358//100 346//88
f 348//78 360//90 359//101
f 349//91 361//103 372//102
f 350//92 362//104 361//103
f 351//93 363//105 362//104
f 352//95 364//117 363//105
f 365//106 364//117 352//95
f 366//108 365//106 353//107
f 367//109 366//108 354//96
f 368//110 367//109 355//97
f 369//111 368//110 356//98
f 370//112 369//111 357//99
f 359//101 371//113 370//112
f 360//90 372//102 371//113
f 361//103 373//115 384//114
f 362//104 374//116 373//115
f 363//105 375//118 374//116
f 364//117 376//129 375//118
f 377//119 376//129 364//117
f 378//120 377//119 365//106
f 379//121 378//120 366//108
f 380//122 379//121 367//109
f 381//123 380//122 368//110
f 382//124 381//123 369//111
f 371//113 383//125 382//124
f 372//102 384//114 383//125
f 373//115 385//127 396//126
f 374//116 386//128 385//127
f 375//118 387//130 386//128
f 376//129 388//142 387//130
f 389//131 388//142 376//129
f 390//132 389//131 377//119
f 391//133 390//132 378//120
f 392//134 391//133 379//121
f 393//135 392//134 380//122
f 394//136 393//135 381//123
f 383//125 395//137 394//136
f 384//114 396//126 395//137
f 385//127 397//139 408//138
f 386//128 398//140 397//139
f 387//130 399//152 398//140
f 400//141 399//152 387//130
f 401//143 400//141 388//142
f 402//144 401//143 389//131
f 403//145 402//144 390//132
f 404//146 403//145 391//133
f 405//147 404//146 392//134
f 394//136 406//148 405//147
f 395//137 407//149 406//148
f 396//126 408//138 407//149
f 397//139 409//151 420//150
f 398//140 410//153 409//151
f 399//152 411//164 410//153
f 412//154 411//164 399//152
f 413//155 412//154 400//141
f 414//156 413//155 401//143
f 415//157 414//156 402//144
f 416//158 415//157 403//145
f 417//159 416//158 404//146
f 406//148 418//160 417//159
f 407//149 419//161 418//160
f 408//138 420//150 419//161
f 409//151 421//163 432//162
f 410//153 422//165 421//163
f 411//164 423//176 422//165
f 424//166 423//176 411//164
f 425//167 424//166 412//154
f 426//168 425//167 413//155
f 427//169 426//168 414//156
f 428//170 427//169 415//157
f 429//171 428//170 416//158
f 418//160 430//172 429//171
f 419//161 431//173 430//172
f 420//150 432//162 431//173
f 421//163 433//175 444//174
f 422//165 434//177 433//175
f 423//176 435//188 434//177
f 436//178 435//188 423//176
f 437//179 436//178 424//166
f 438//180 437//179 425//167
f 439//181 438//180 426//168
f 440//182 439//181 427//169
f 441//183 440//182 428//170
f 430//172 442//184 441//183
f 431//173 443//185 442//184
f 432//162 444//174 443//185
f 433//175 445//187 456//186
f 434//177 446//189 445//187
f 435//188 447//200 446//189
f 448//190 447//200 435//188
f 449//191 448//190 436//178
f 450//192 449//191 437//179
f 451//193 450//192 438//180
f 452//194 451//193 439//181
f 453//195 452//194 440//182
f 442//184 454//196 453//195
f 443//185 455//197 454//196
f 444//174 456//186 455//197
f 445//187 457//199 468//198
f 446//189 458//201 457//199
f 447//200 459//202 458//201
f 448//190 460//212 459//202
f 461//203 460//212 448//190
f 462//204 461//203 449//191
f 463//205 462//204 450//192
f 464//206 463//205 451//193
f 465//207 464//206 452//194
f 466//208 465//207 453//195
f 455//197 467//209 466//208
f 456//186 468//198 467//209
