# Blender 5.2.2 LTS
# www.blender.org
mtllib ladder_4.mtl
o ladder_4
v -1.483356 -1.165164 0.100634
v -1.003875 -0.685672 21.520634
v -1.488536 -1.145849 0.100317
v -1.009055 -0.666357 21.520317
v -1.474401 -1.131714 0.099684
v -0.994920 -0.652222 21.519684
v -1.455086 -1.136893 0.099367
v -0.975605 -0.657402 21.519367
v -1.449906 -1.156208 0.099684
v -0.970425 -0.676717 21.519684
v -1.464041 -1.170343 0.100317
v -0.984560 -0.690852 21.520317
v -1.165158 -1.483361 0.100634
v -0.685677 -1.003870 21.520634
v -1.170338 -1.464046 0.100317
v -0.690857 -0.984555 21.520317
v -1.156203 -1.449911 0.099684
v -0.676722 -0.970420 21.519684
v -1.136888 -1.455091 0.099367
v -0.657407 -0.975600 21.519367
v -1.131708 -1.474406 0.099684
v -0.652227 -0.994914 21.519684
v -1.145843 -1.488541 0.100317
v -0.666362 -1.009050 21.520317
v -1.318603 -1.318609 0.100380
v -0.839122 -0.839117 21.520380
v -1.321711 -1.307020 0.100190
v -0.842230 -0.827528 21.520191
v -1.313230 -1.298538 0.099811
v -0.833749 -0.819047 21.519810
v -1.301641 -1.301646 0.099621
v -0.822160 -0.822155 21.519621
v -1.298533 -1.313235 0.099811
v -0.819052 -0.833744 21.519810
v -1.307014 -1.321717 0.100190
v -0.827533 -0.842225 21.520191
v -1.466780 -1.148582 0.212000
v -1.148582 -1.466780 0.212000
v -1.459432 -1.141234 0.206000
v -1.141234 -1.459432 0.206000
v -1.459432 -1.141234 0.194000
v -1.141234 -1.459432 0.194000
v -1.466780 -1.148582 0.188000
v -1.148582 -1.466780 0.188000
v -1.474129 -1.155931 0.194000
v -1.155931 -1.474129 0.194000
v -1.474129 -1.155931 0.206000
v -1.155931 -1.474129 0.206000
v -1.459930 -1.141732 0.492000
v -1.141732 -1.459930 0.492000
v -1.452581 -1.134383 0.486000
v -1.134383 -1.452581 0.486000
v -1.452581 -1.134383 0.474000
v -1.134383 -1.452581 0.474000
v -1.459930 -1.141732 0.468000
v -1.141732 -1.459930 0.468000
v -1.467278 -1.149080 0.474000
v -1.149080 -1.467278 0.474000
v -1.467278 -1.149080 0.486000
v -1.149080 -1.467278 0.486000
v -1.453079 -1.134881 0.772000
v -1.134881 -1.453079 0.772000
v -1.445731 -1.127533 0.766000
v -1.127533 -1.445731 0.766000
v -1.445731 -1.127533 0.754000
v -1.127533 -1.445731 0.754000
v -1.453079 -1.134881 0.748000
v -1.134881 -1.453079 0.748000
v -1.460428 -1.142230 0.754000
v -1.142230 -1.460428 0.754000
v -1.460428 -1.142230 0.766000
v -1.142230 -1.460428 0.766000
v -1.446229 -1.128031 1.052000
v -1.128031 -1.446229 1.052000
v -1.438881 -1.120683 1.046000
v -1.120683 -1.438881 1.046000
v -1.438881 -1.120683 1.034000
v -1.120683 -1.438881 1.034000
v -1.446229 -1.128031 1.028000
v -1.128031 -1.446229 1.028000
v -1.453578 -1.135380 1.034000
v -1.135380 -1.453578 1.034000
v -1.453578 -1.135380 1.046000
v -1.135380 -1.453578 1.046000
v -1.439379 -1.121181 1.332000
v -1.121181 -1.439379 1.332000
v -1.432030 -1.113832 1.326000
v -1.113832 -1.432030 1.326000
v -1.432030 -1.113832 1.314000
v -1.113832 -1.432030 1.314000
v -1.439379 -1.121181 1.308000
v -1.121181 -1.439379 1.308000
v -1.446727 -1.128529 1.314000
v -1.128529 -1.446727 1.314000
v -1.446727 -1.128529 1.326000
v -1.128529 -1.446727 1.326000
v -1.432529 -1.114331 1.612000
v -1.114331 -1.432529 1.612000
v -1.425180 -1.106982 1.606000
v -1.106982 -1.425180 1.606000
v -1.425180 -1.106982 1.594000
v -1.106982 -1.425180 1.594000
v -1.432529 -1.114331 1.588000
v -1.114331 -1.432529 1.588000
v -1.439877 -1.121679 1.594000
v -1.121679 -1.439877 1.594000
v -1.439877 -1.121679 1.606000
v -1.121679 -1.439877 1.606000
v -1.425678 -1.107480 1.892000
v -1.107480 -1.425678 1.892000
v -1.418330 -1.100132 1.886000
v -1.100132 -1.418330 1.886000
v -1.418330 -1.100132 1.874000
v -1.100132 -1.418330 1.874000
v -1.425678 -1.107480 1.868000
v -1.107480 -1.425678 1.868000
v -1.433027 -1.114829 1.874000
v -1.114829 -1.433027 1.874000
v -1.433027 -1.114829 1.886000
v -1.114829 -1.433027 1.886000
v -1.418828 -1.100630 2.172000
v -1.100630 -1.418828 2.172000
v -1.411480 -1.093282 2.166000
v -1.093282 -1.411480 2.166000
v -1.411480 -1.093282 2.154000
v -1.093282 -1.411480 2.154000
v -1.418828 -1.100630 2.148000
v -1.100630 -1.418828 2.148000
v -1.426177 -1.107979 2.154000
v -1.107979 -1.426177 2.154000
v -1.426177 -1.107979 2.166000
v -1.107979 -1.426177 2.166000
v -1.411978 -1.093780 2.452000
v -1.093780 -1.411978 2.452000
v -1.404629 -1.086431 2.446000
v -1.086431 -1.404629 2.446000
v -1.404629 -1.086431 2.434000
v -1.086431 -1.404629 2.434000
v -1.411978 -1.093780 2.428000
v -1.093780 -1.411978 2.428000
v -1.419326 -1.101128 2.434000
v -1.101128 -1.419326 2.434000
v -1.419326 -1.101128 2.446000
v -1.101128 -1.419326 2.446000
v -1.405128 -1.086930 2.732000
v -1.086930 -1.405128 2.732000
v -1.397779 -1.079581 2.726000
v -1.079581 -1.397779 2.726000
v -1.397779 -1.079581 2.714000
v -1.079581 -1.397779 2.714000
v -1.405128 -1.086930 2.708000
v -1.086930 -1.405128 2.708000
v -1.412476 -1.094278 2.714000
v -1.094278 -1.412476 2.714000
v -1.412476 -1.094278 2.726000
v -1.094278 -1.412476 2.726000
v -1.398277 -1.080079 3.012000
v -1.080079 -1.398277 3.012000
v -1.390929 -1.072731 3.006000
v -1.072731 -1.390929 3.006000
v -1.390929 -1.072731 2.994000
v -1.072731 -1.390929 2.994000
v -1.398277 -1.080079 2.988000
v -1.080079 -1.398277 2.988000
v -1.405626 -1.087428 2.994000
v -1.087428 -1.405626 2.994000
v -1.405626 -1.087428 3.006000
v -1.087428 -1.405626 3.006000
v -1.391427 -1.073229 3.292000
v -1.073229 -1.391427 3.292000
v -1.384079 -1.065881 3.286000
v -1.065881 -1.384079 3.286000
v -1.384079 -1.065881 3.274000
v -1.065881 -1.384079 3.274000
v -1.391427 -1.073229 3.268000
v -1.073229 -1.391427 3.268000
v -1.398775 -1.080577 3.274000
v -1.080578 -1.398775 3.274000
v -1.398775 -1.080577 3.286000
v -1.080578 -1.398775 3.286000
v -1.384577 -1.066379 3.572000
v -1.066379 -1.384577 3.572000
v -1.377228 -1.059030 3.566000
v -1.059030 -1.377228 3.566000
v -1.377228 -1.059030 3.554000
v -1.059030 -1.377228 3.554000
v -1.384577 -1.066379 3.548000
v -1.066379 -1.384577 3.548000
v -1.391925 -1.073727 3.554000
v -1.073727 -1.391925 3.554000
v -1.391925 -1.073727 3.566000
v -1.073727 -1.391925 3.566000
v -1.377727 -1.059528 3.852000
v -1.059528 -1.377727 3.852000
v -1.370378 -1.052180 3.846000
v -1.052180 -1.370378 3.846000
v -1.370378 -1.052180 3.834000
v -1.052180 -1.370378 3.834000
v -1.377727 -1.059528 3.828000
v -1.059528 -1.377727 3.828000
v -1.385075 -1.066877 3.834000
v -1.066877 -1.385075 3.834000
v -1.385075 -1.066877 3.846000
v -1.066877 -1.385075 3.846000
v -1.370876 -1.052678 4.132000
v -1.052678 -1.370876 4.132000
v -1.363528 -1.045330 4.126000
v -1.045330 -1.363528 4.126000
v -1.363528 -1.045330 4.114000
v -1.045330 -1.363528 4.114000
v -1.370876 -1.052678 4.108000
v -1.052678 -1.370876 4.108000
v -1.378225 -1.060027 4.114000
v -1.060027 -1.378225 4.114000
v -1.378225 -1.060027 4.126000
v -1.060027 -1.378225 4.126000
v -1.364026 -1.045828 4.412000
v -1.045828 -1.364026 4.412000
v -1.356677 -1.038480 4.406000
v -1.038480 -1.356678 4.406000
v -1.356677 -1.038480 4.394000
v -1.038480 -1.356678 4.394000
v -1.364026 -1.045828 4.388000
v -1.045828 -1.364026 4.388000
v -1.371374 -1.053176 4.394000
v -1.053177 -1.371374 4.394000
v -1.371374 -1.053176 4.406000
v -1.053177 -1.371374 4.406000
v -1.357176 -1.038978 4.692000
v -1.038978 -1.357176 4.692000
v -1.349827 -1.031629 4.686000
v -1.031629 -1.349827 4.686000
v -1.349827 -1.031629 4.674000
v -1.031629 -1.349827 4.674000
v -1.357176 -1.038978 4.668000
v -1.038978 -1.357176 4.668000
v -1.364524 -1.046326 4.674000
v -1.046326 -1.364524 4.674000
v -1.364524 -1.046326 4.686000
v -1.046326 -1.364524 4.686000
v -1.350326 -1.032127 4.972000
v -1.032127 -1.350326 4.972000
v -1.342977 -1.024779 4.966000
v -1.024779 -1.342977 4.966000
v -1.342977 -1.024779 4.954000
v -1.024779 -1.342977 4.954000
v -1.350326 -1.032127 4.948000
v -1.032127 -1.350326 4.948000
v -1.357674 -1.039476 4.954000
v -1.039476 -1.357674 4.954000
v -1.357674 -1.039476 4.966000
v -1.039476 -1.357674 4.966000
v -1.343475 -1.025277 5.252000
v -1.025277 -1.343475 5.252000
v -1.336127 -1.017929 5.246000
v -1.017929 -1.336127 5.246000
v -1.336127 -1.017929 5.234000
v -1.017929 -1.336127 5.234000
v -1.343475 -1.025277 5.228000
v -1.025277 -1.343475 5.228000
v -1.350824 -1.032626 5.234000
v -1.032626 -1.350824 5.234000
v -1.350824 -1.032626 5.246000
v -1.032626 -1.350824 5.246000
v -1.336625 -1.018427 5.532000
v -1.018427 -1.336625 5.532000
v -1.329277 -1.011078 5.526000
v -1.011078 -1.329277 5.526000
v -1.329277 -1.011078 5.514000
v -1.011078 -1.329277 5.514000
v -1.336625 -1.018427 5.508000
v -1.018427 -1.336625 5.508000
v -1.343974 -1.025775 5.514000
v -1.025775 -1.343974 5.514000
v -1.343974 -1.025775 5.526000
v -1.025775 -1.343974 5.526000
v -1.329775 -1.011577 5.812000
v -1.011577 -1.329775 5.812000
v -1.322426 -1.004228 5.806000
v -1.004228 -1.322426 5.806000
v -1.322426 -1.004228 5.794000
v -1.004228 -1.322426 5.794000
v -1.329775 -1.011577 5.788000
v -1.011577 -1.329775 5.788000
v -1.337123 -1.018925 5.794000
v -1.018925 -1.337123 5.794000
v -1.337123 -1.018925 5.806000
v -1.018925 -1.337123 5.806000
v -1.322924 -1.004726 6.092000
v -1.004726 -1.322924 6.092000
v -1.315576 -0.997378 6.086000
v -0.997378 -1.315576 6.086000
v -1.315576 -0.997378 6.074000
v -0.997378 -1.315576 6.074000
v -1.322924 -1.004726 6.068000
v -1.004726 -1.322924 6.068000
v -1.330273 -1.012075 6.074000
v -1.012075 -1.330273 6.074000
v -1.330273 -1.012075 6.086000
v -1.012075 -1.330273 6.086000
v -1.316074 -0.997876 6.372000
v -0.997876 -1.316074 6.372000
v -1.308726 -0.990528 6.366000
v -0.990528 -1.308726 6.366000
v -1.308726 -0.990528 6.354000
v -0.990528 -1.308726 6.354000
v -1.316074 -0.997876 6.348000
v -0.997876 -1.316074 6.348000
v -1.323423 -1.005225 6.354000
v -1.005225 -1.323423 6.354000
v -1.323423 -1.005225 6.366000
v -1.005225 -1.323423 6.366000
v -1.309224 -0.991026 6.652000
v -0.991026 -1.309224 6.652000
v -1.301875 -0.983677 6.646000
v -0.983677 -1.301875 6.646000
v -1.301875 -0.983677 6.634000
v -0.983677 -1.301875 6.634000
v -1.309224 -0.991026 6.628000
v -0.991026 -1.309224 6.628000
v -1.316572 -0.998374 6.634000
v -0.998374 -1.316572 6.634000
v -1.316572 -0.998374 6.646000
v -0.998374 -1.316572 6.646000
v -1.302374 -0.984176 6.932000
v -0.984176 -1.302374 6.932000
v -1.295025 -0.976827 6.926000
v -0.976827 -1.295025 6.926000
v -1.295025 -0.976827 6.914000
v -0.976827 -1.295025 6.914000
v -1.302374 -0.984176 6.908000
v -0.984176 -1.302374 6.908000
v -1.309722 -0.991524 6.914000
v -0.991524 -1.309722 6.914000
v -1.309722 -0.991524 6.926000
v -0.991524 -1.309722 6.926000
v -1.295523 -0.977325 7.212000
v -0.977325 -1.295523 7.212000
v -1.288175 -0.969977 7.206000
v -0.969977 -1.288175 7.206000
v -1.288175 -0.969977 7.194000
v -0.969977 -1.288175 7.194000
v -1.295523 -0.977325 7.188000
v -0.977325 -1.295523 7.188000
v -1.302872 -0.984674 7.194000
v -0.984674 -1.302872 7.194000
v -1.302872 -0.984674 7.206000
v -0.984674 -1.302872 7.206000
v -1.288673 -0.970475 7.492000
v -0.970475 -1.288673 7.492000
v -1.281325 -0.963127 7.486000
v -0.963127 -1.281325 7.486000
v -1.281325 -0.963127 7.474000
v -0.963127 -1.281325 7.474000
v -1.288673 -0.970475 7.468000
v -0.970475 -1.288673 7.468000
v -1.296021 -0.977823 7.474000
v -0.977824 -1.296021 7.474000
v -1.296021 -0.977823 7.486000
v -0.977824 -1.296021 7.486000
v -1.281823 -0.963625 7.772000
v -0.963625 -1.281823 7.772000
v -1.274474 -0.956276 7.766000
v -0.956276 -1.274474 7.766000
v -1.274474 -0.956276 7.754000
v -0.956276 -1.274474 7.754000
v -1.281823 -0.963625 7.748000
v -0.963625 -1.281823 7.748000
v -1.289171 -0.970973 7.754000
v -0.970973 -1.289171 7.754000
v -1.289171 -0.970973 7.766000
v -0.970973 -1.289171 7.766000
v -1.274973 -0.956775 8.052000
v -0.956775 -1.274973 8.052000
v -1.267624 -0.949426 8.046000
v -0.949426 -1.267624 8.046000
v -1.267624 -0.949426 8.034000
v -0.949426 -1.267624 8.034000
v -1.274973 -0.956775 8.028000
v -0.956775 -1.274973 8.028000
v -1.282321 -0.964123 8.034000
v -0.964123 -1.282321 8.034000
v -1.282321 -0.964123 8.046000
v -0.964123 -1.282321 8.046000
v -1.268122 -0.949924 8.332000
v -0.949924 -1.268122 8.332000
v -1.260774 -0.942576 8.325999
v -0.942576 -1.260774 8.325999
v -1.260774 -0.942576 8.314000
v -0.942576 -1.260774 8.314000
v -1.268122 -0.949924 8.308000
v -0.949924 -1.268122 8.308000
v -1.275471 -0.957273 8.314000
v -0.957273 -1.275471 8.314000
v -1.275471 -0.957273 8.325999
v -0.957273 -1.275471 8.325999
v -1.261272 -0.943074 8.612000
v -0.943074 -1.261272 8.612000
v -1.253924 -0.935726 8.606000
v -0.935726 -1.253924 8.606000
v -1.253924 -0.935726 8.594001
v -0.935726 -1.253924 8.594001
v -1.261272 -0.943074 8.588000
v -0.943074 -1.261272 8.588000
v -1.268620 -0.950422 8.594001
v -0.950422 -1.268620 8.594001
v -1.268620 -0.950422 8.606000
v -0.950422 -1.268620 8.606000
v -1.254422 -0.936224 8.892000
v -0.936224 -1.254422 8.892000
v -1.247073 -0.928875 8.886000
v -0.928875 -1.247073 8.886000
v -1.247073 -0.928875 8.874001
v -0.928875 -1.247073 8.874001
v -1.254422 -0.936224 8.868000
v -0.936224 -1.254422 8.868000
v -1.261770 -0.943572 8.874001
v -0.943572 -1.261770 8.874001
v -1.261770 -0.943572 8.886000
v -0.943572 -1.261770 8.886000
v -1.247571 -0.929373 9.172000
v -0.929373 -1.247571 9.172000
v -1.240223 -0.922025 9.165999
v -0.922025 -1.240223 9.165999
v -1.240223 -0.922025 9.154000
v -0.922025 -1.240223 9.154000
v -1.247571 -0.929373 9.148000
v -0.929373 -1.247571 9.148000
v -1.254920 -0.936722 9.154000
v -0.936722 -1.254920 9.154000
v -1.254920 -0.936722 9.165999
v -0.936722 -1.254920 9.165999
v -1.240721 -0.922523 9.452000
v -0.922523 -1.240721 9.452000
v -1.233373 -0.915175 9.445999
v -0.915175 -1.233373 9.445999
v -1.233373 -0.915175 9.434000
v -0.915175 -1.233373 9.434000
v -1.240721 -0.922523 9.427999
v -0.922523 -1.240721 9.427999
v -1.248070 -0.929872 9.434000
v -0.929872 -1.248070 9.434000
v -1.248070 -0.929872 9.445999
v -0.929872 -1.248070 9.445999
v -1.233871 -0.915673 9.732000
v -0.915673 -1.233871 9.732000
v -1.226522 -0.908324 9.726000
v -0.908324 -1.226522 9.726000
v -1.226522 -0.908324 9.714001
v -0.908324 -1.226522 9.714001
v -1.233871 -0.915673 9.708000
v -0.915673 -1.233871 9.708000
v -1.241219 -0.923021 9.714001
v -0.923021 -1.241219 9.714001
v -1.241219 -0.923021 9.726000
v -0.923021 -1.241219 9.726000
v -1.227021 -0.908823 10.012000
v -0.908823 -1.227021 10.012000
v -1.219672 -0.901474 10.006000
v -0.901474 -1.219672 10.006000
v -1.219672 -0.901474 9.994000
v -0.901474 -1.219672 9.994000
v -1.227021 -0.908823 9.988000
v -0.908823 -1.227021 9.988000
v -1.234369 -0.916171 9.994000
v -0.916171 -1.234369 9.994000
v -1.234369 -0.916171 10.006000
v -0.916171 -1.234369 10.006000
v -1.220170 -0.901972 10.292000
v -0.901972 -1.220170 10.292000
v -1.212822 -0.894624 10.285999
v -0.894624 -1.212822 10.285999
v -1.212822 -0.894624 10.274000
v -0.894624 -1.212822 10.274000
v -1.220170 -0.901972 10.268000
v -0.901972 -1.220170 10.268000
v -1.227519 -0.909321 10.274000
v -0.909321 -1.227519 10.274000
v -1.227519 -0.909321 10.285999
v -0.909321 -1.227519 10.285999
v -1.213320 -0.895122 10.572001
v -0.895122 -1.213320 10.572001
v -1.205972 -0.887774 10.566000
v -0.887774 -1.205972 10.566000
v -1.205972 -0.887774 10.554001
v -0.887774 -1.205972 10.554001
v -1.213320 -0.895122 10.548000
v -0.895122 -1.213320 10.548000
v -1.220669 -0.902471 10.554001
v -0.902471 -1.220669 10.554001
v -1.220669 -0.902471 10.566000
v -0.902471 -1.220669 10.566000
v -1.206636 -0.888438 10.852000
v -0.888438 -1.206636 10.852000
v -1.199288 -0.881090 10.846000
v -0.881090 -1.199288 10.846000
v -1.199288 -0.881090 10.834001
v -0.881090 -1.199288 10.834001
v -1.206636 -0.888438 10.828000
v -0.888438 -1.206636 10.828000
v -1.213984 -0.895787 10.834001
v -0.895787 -1.213984 10.834001
v -1.213984 -0.895787 10.846000
v -0.895787 -1.213984 10.846000
v -1.200950 -0.882752 11.132000
v -0.882752 -1.200950 11.132000
v -1.193601 -0.875403 11.125999
v -0.875403 -1.193601 11.125999
v -1.193601 -0.875403 11.114000
v -0.875403 -1.193601 11.114000
v -1.200950 -0.882752 11.108000
v -0.882752 -1.200950 11.108000
v -1.208298 -0.890100 11.114000
v -0.890100 -1.208298 11.114000
v -1.208298 -0.890100 11.125999
v -0.890100 -1.208298 11.125999
v -1.195263 -0.877065 11.412000
v -0.877065 -1.195263 11.412000
v -1.187915 -0.869717 11.405999
v -0.869717 -1.187915 11.405999
v -1.187915 -0.869717 11.394000
v -0.869717 -1.187915 11.394000
v -1.195263 -0.877065 11.388000
v -0.877065 -1.195263 11.388000
v -1.202612 -0.884413 11.394000
v -0.884413 -1.202612 11.394000
v -1.202612 -0.884413 11.405999
v -0.884413 -1.202612 11.405999
v -1.189576 -0.871378 11.692000
v -0.871378 -1.189576 11.692000
v -1.182228 -0.864030 11.686000
v -0.864030 -1.182228 11.686000
v -1.182228 -0.864030 11.674001
v -0.864030 -1.182228 11.674001
v -1.189576 -0.871378 11.668000
v -0.871378 -1.189576 11.668000
v -1.196925 -0.878727 11.674001
v -0.878727 -1.196925 11.674001
v -1.196925 -0.878727 11.686000
v -0.878727 -1.196925 11.686000
v -1.183890 -0.865692 11.972000
v -0.865692 -1.183890 11.972000
v -1.176541 -0.858343 11.966000
v -0.858343 -1.176541 11.966000
v -1.176541 -0.858343 11.954000
v -0.858343 -1.176541 11.954000
v -1.183890 -0.865692 11.948000
v -0.865692 -1.183890 11.948000
v -1.191238 -0.873040 11.954000
v -0.873040 -1.191238 11.954000
v -1.191238 -0.873040 11.966000
v -0.873040 -1.191238 11.966000
v -1.178203 -0.860005 12.252000
v -0.860005 -1.178203 12.252000
v -1.170855 -0.852657 12.245999
v -0.852657 -1.170855 12.245999
v -1.170855 -0.852657 12.234000
v -0.852657 -1.170855 12.234000
v -1.178203 -0.860005 12.228000
v -0.860005 -1.178203 12.228000
v -1.185552 -0.867354 12.234000
v -0.867354 -1.185552 12.234000
v -1.185552 -0.867354 12.245999
v -0.867354 -1.185552 12.245999
v -1.172517 -0.854319 12.532001
v -0.854319 -1.172517 12.532001
v -1.165168 -0.846970 12.526000
v -0.846970 -1.165168 12.526000
v -1.165168 -0.846970 12.514001
v -0.846970 -1.165168 12.514001
v -1.172517 -0.854319 12.508000
v -0.854319 -1.172517 12.508000
v -1.179865 -0.861667 12.514001
v -0.861667 -1.179865 12.514001
v -1.179865 -0.861667 12.526000
v -0.861667 -1.179865 12.526000
v -1.166830 -0.848632 12.812000
v -0.848632 -1.166830 12.812000
v -1.159482 -0.841284 12.806000
v -0.841284 -1.159482 12.806000
v -1.159482 -0.841284 12.794001
v -0.841284 -1.159482 12.794001
v -1.166830 -0.848632 12.788000
v -0.848632 -1.166830 12.788000
v -1.174179 -0.855981 12.794001
v -0.855981 -1.174179 12.794001
v -1.174179 -0.855981 12.806000
v -0.855981 -1.174179 12.806000
v -1.161144 -0.842946 13.092000
v -0.842946 -1.161144 13.092000
v -1.153795 -0.835597 13.085999
v -0.835597 -1.153795 13.085999
v -1.153795 -0.835597 13.074000
v -0.835597 -1.153795 13.074000
v -1.161144 -0.842946 13.068000
v -0.842946 -1.161144 13.068000
v -1.168492 -0.850294 13.074000
v -0.850294 -1.168492 13.074000
v -1.168492 -0.850294 13.085999
v -0.850294 -1.168492 13.085999
v -1.155457 -0.837259 13.372000
v -0.837259 -1.155457 13.372000
v -1.148109 -0.829911 13.365999
v -0.829911 -1.148109 13.365999
v -1.148109 -0.829911 13.354000
v -0.829911 -1.148109 13.354000
v -1.155457 -0.837259 13.348000
v -0.837259 -1.155457 13.348000
v -1.162806 -0.844608 13.354000
v -0.844608 -1.162806 13.354000
v -1.162806 -0.844608 13.365999
v -0.844608 -1.162806 13.365999
v -1.149770 -0.831573 13.652000
v -0.831573 -1.149770 13.652000
v -1.142422 -0.824224 13.646000
v -0.824224 -1.142422 13.646000
v -1.142422 -0.824224 13.634001
v -0.824224 -1.142422 13.634001
v -1.149770 -0.831573 13.628000
v -0.831573 -1.149770 13.628000
v -1.157119 -0.838921 13.634001
v -0.838921 -1.157119 13.634001
v -1.157119 -0.838921 13.646000
v -0.838921 -1.157119 13.646000
v -1.144084 -0.825886 13.932000
v -0.825886 -1.144084 13.932000
v -1.136736 -0.818538 13.926000
v -0.818538 -1.136736 13.926000
v -1.136736 -0.818538 13.914001
v -0.818538 -1.136736 13.914001
v -1.144084 -0.825886 13.908000
v -0.825886 -1.144084 13.908000
v -1.151432 -0.833234 13.914001
v -0.833234 -1.151433 13.914001
v -1.151432 -0.833234 13.926000
v -0.833234 -1.151433 13.926000
v -1.138397 -0.820199 14.212000
v -0.820199 -1.138397 14.212000
v -1.131049 -0.812851 14.205999
v -0.812851 -1.131049 14.205999
v -1.131049 -0.812851 14.194000
v -0.812851 -1.131049 14.194000
v -1.138397 -0.820199 14.188000
v -0.820199 -1.138397 14.188000
v -1.145746 -0.827548 14.194000
v -0.827548 -1.145746 14.194000
v -1.145746 -0.827548 14.205999
v -0.827548 -1.145746 14.205999
v -1.132711 -0.814513 14.492000
v -0.814513 -1.132711 14.492000
v -1.125362 -0.807164 14.485999
v -0.807164 -1.125362 14.485999
v -1.125362 -0.807164 14.474000
v -0.807164 -1.125362 14.474000
v -1.132711 -0.814513 14.467999
v -0.814513 -1.132711 14.467999
v -1.140059 -0.821861 14.474000
v -0.821861 -1.140059 14.474000
v -1.140059 -0.821861 14.485999
v -0.821861 -1.140059 14.485999
v -1.127024 -0.808826 14.772000
v -0.808826 -1.127024 14.772000
v -1.119676 -0.801478 14.766000
v -0.801478 -1.119676 14.766000
v -1.119676 -0.801478 14.754001
v -0.801478 -1.119676 14.754001
v -1.127024 -0.808826 14.748000
v -0.808826 -1.127024 14.748000
v -1.134373 -0.816175 14.754001
v -0.816175 -1.134373 14.754001
v -1.134373 -0.816175 14.766000
v -0.816175 -1.134373 14.766000
v -1.121338 -0.803140 15.052000
v -0.803140 -1.121338 15.052000
v -1.113989 -0.795791 15.046000
v -0.795791 -1.113989 15.046000
v -1.113989 -0.795791 15.034000
v -0.795791 -1.113989 15.034000
v -1.121338 -0.803140 15.028000
v -0.803140 -1.121338 15.028000
v -1.128686 -0.810488 15.034000
v -0.810488 -1.128686 15.034000
v -1.128686 -0.810488 15.046000
v -0.810488 -1.128686 15.046000
v -1.115651 -0.797453 15.332000
v -0.797453 -1.115651 15.332000
v -1.108303 -0.790105 15.325999
v -0.790105 -1.108303 15.325999
v -1.108303 -0.790105 15.314000
v -0.790105 -1.108303 15.314000
v -1.115651 -0.797453 15.308000
v -0.797453 -1.115651 15.308000
v -1.123000 -0.804802 15.314000
v -0.804802 -1.123000 15.314000
v -1.123000 -0.804802 15.325999
v -0.804802 -1.123000 15.325999
v -1.109965 -0.791767 15.612000
v -0.791767 -1.109965 15.612000
v -1.102616 -0.784418 15.606000
v -0.784418 -1.102616 15.606000
v -1.102616 -0.784418 15.594001
v -0.784418 -1.102616 15.594001
v -1.109965 -0.791767 15.588000
v -0.791767 -1.109965 15.588000
v -1.117313 -0.799115 15.594001
v -0.799115 -1.117313 15.594001
v -1.117313 -0.799115 15.606000
v -0.799115 -1.117313 15.606000
v -1.104278 -0.786080 15.892000
v -0.786080 -1.104278 15.892000
v -1.096930 -0.778732 15.886000
v -0.778732 -1.096930 15.886000
v -1.096930 -0.778732 15.874001
v -0.778732 -1.096930 15.874001
v -1.104278 -0.786080 15.868000
v -0.786080 -1.104278 15.868000
v -1.111627 -0.793428 15.874001
v -0.793428 -1.111627 15.874001
v -1.111627 -0.793428 15.886000
v -0.793428 -1.111627 15.886000
v -1.098592 -0.780393 16.171999
v -0.780393 -1.098592 16.171999
v -1.091243 -0.773045 16.166000
v -0.773045 -1.091243 16.166000
v -1.091243 -0.773045 16.153999
v -0.773045 -1.091243 16.153999
v -1.098592 -0.780393 16.148001
v -0.780393 -1.098592 16.148001
v -1.105940 -0.787742 16.153999
v -0.787742 -1.105940 16.153999
v -1.105940 -0.787742 16.166000
v -0.787742 -1.105940 16.166000
v -1.092905 -0.774707 16.452000
v -0.774707 -1.092905 16.452000
v -1.085557 -0.767358 16.446001
v -0.767358 -1.085557 16.446001
v -1.085557 -0.767358 16.434000
v -0.767358 -1.085557 16.434000
v -1.092905 -0.774707 16.428001
v -0.774707 -1.092905 16.428001
v -1.100253 -0.782055 16.434000
v -0.782055 -1.100253 16.434000
v -1.100253 -0.782055 16.446001
v -0.782055 -1.100253 16.446001
v -1.087218 -0.769020 16.731998
v -0.769020 -1.087218 16.731998
v -1.079870 -0.761672 16.726000
v -0.761672 -1.079870 16.726000
v -1.079870 -0.761672 16.713999
v -0.761672 -1.079870 16.713999
v -1.087218 -0.769020 16.708000
v -0.769020 -1.087218 16.708000
v -1.094567 -0.776369 16.713999
v -0.776369 -1.094567 16.713999
v -1.094567 -0.776369 16.726000
v -0.776369 -1.094567 16.726000
v -1.081532 -0.763334 17.011999
v -0.763334 -1.081532 17.011999
v -1.074183 -0.755985 17.006001
v -0.755985 -1.074183 17.006001
v -1.074183 -0.755985 16.993999
v -0.755985 -1.074183 16.993999
v -1.081532 -0.763334 16.988001
v -0.763334 -1.081532 16.988001
v -1.088880 -0.770682 16.993999
v -0.770682 -1.088880 16.993999
v -1.088880 -0.770682 17.006001
v -0.770682 -1.088880 17.006001
v -1.075845 -0.757647 17.292000
v -0.757647 -1.075845 17.292000
v -1.068497 -0.750299 17.286001
v -0.750299 -1.068497 17.286001
v -1.068497 -0.750299 17.274000
v -0.750299 -1.068497 17.274000
v -1.075845 -0.757647 17.268002
v -0.757647 -1.075845 17.268002
v -1.083194 -0.764996 17.274000
v -0.764996 -1.083194 17.274000
v -1.083194 -0.764996 17.286001
v -0.764996 -1.083194 17.286001
v -1.070159 -0.751961 17.571999
v -0.751961 -1.070159 17.571999
v -1.062810 -0.744612 17.566000
v -0.744612 -1.062810 17.566000
v -1.062810 -0.744612 17.553999
v -0.744612 -1.062810 17.553999
v -1.070159 -0.751961 17.548000
v -0.751961 -1.070159 17.548000
v -1.077507 -0.759309 17.553999
v -0.759309 -1.077507 17.553999
v -1.077507 -0.759309 17.566000
v -0.759309 -1.077507 17.566000
v -1.064472 -0.746274 17.851999
v -0.746274 -1.064472 17.851999
v -1.057124 -0.738926 17.846001
v -0.738926 -1.057124 17.846001
v -1.057124 -0.738926 17.834000
v -0.738926 -1.057124 17.834000
v -1.064472 -0.746274 17.828001
v -0.746274 -1.064472 17.828001
v -1.071821 -0.753623 17.834000
v -0.753623 -1.071821 17.834000
v -1.071821 -0.753623 17.846001
v -0.753623 -1.071821 17.846001
v -1.058786 -0.740588 18.132000
v -0.740588 -1.058786 18.132000
v -1.051437 -0.733239 18.126001
v -0.733239 -1.051437 18.126001
v -1.051437 -0.733239 18.114000
v -0.733239 -1.051437 18.114000
v -1.058786 -0.740588 18.108002
v -0.740588 -1.058786 18.108002
v -1.066134 -0.747936 18.114000
v -0.747936 -1.066134 18.114000
v -1.066134 -0.747936 18.126001
v -0.747936 -1.066134 18.126001
v -1.053099 -0.734901 18.411999
v -0.734901 -1.053099 18.411999
v -1.045751 -0.727553 18.406000
v -0.727553 -1.045751 18.406000
v -1.045751 -0.727553 18.393999
v -0.727553 -1.045751 18.393999
v -1.053099 -0.734901 18.388000
v -0.734901 -1.053099 18.388000
v -1.060447 -0.742249 18.393999
v -0.742250 -1.060447 18.393999
v -1.060447 -0.742249 18.406000
v -0.742250 -1.060447 18.406000
v -1.047413 -0.729215 18.691999
v -0.729215 -1.047413 18.691999
v -1.040064 -0.721866 18.686001
v -0.721866 -1.040064 18.686001
v -1.040064 -0.721866 18.674000
v -0.721866 -1.040064 18.674000
v -1.047413 -0.729215 18.668001
v -0.729215 -1.047413 18.668001
v -1.054761 -0.736563 18.674000
v -0.736563 -1.054761 18.674000
v -1.054761 -0.736563 18.686001
v -0.736563 -1.054761 18.686001
v -1.041726 -0.723528 18.971998
v -0.723528 -1.041726 18.971998
v -1.034378 -0.716179 18.966000
v -0.716179 -1.034378 18.966000
v -1.034378 -0.716179 18.953999
v -0.716179 -1.034378 18.953999
v -1.041726 -0.723528 18.948000
v -0.723528 -1.041726 18.948000
v -1.049074 -0.730876 18.953999
v -0.730876 -1.049074 18.953999
v -1.049074 -0.730876 18.966000
v -0.730876 -1.049074 18.966000
v -1.036039 -0.717841 19.251999
v -0.717841 -1.036039 19.251999
v -1.028691 -0.710493 19.246000
v -0.710493 -1.028691 19.246000
v -1.028691 -0.710493 19.233999
v -0.710493 -1.028691 19.233999
v -1.036039 -0.717841 19.228001
v -0.717841 -1.036039 19.228001
v -1.043388 -0.725190 19.233999
v -0.725190 -1.043388 19.233999
v -1.043388 -0.725190 19.246000
v -0.725190 -1.043388 19.246000
v -1.030353 -0.712155 19.532000
v -0.712155 -1.030353 19.532000
v -1.023004 -0.704806 19.526001
v -0.704806 -1.023004 19.526001
v -1.023004 -0.704806 19.514000
v -0.704806 -1.023004 19.514000
v -1.030353 -0.712155 19.508001
v -0.712155 -1.030353 19.508001
v -1.037701 -0.719503 19.514000
v -0.719503 -1.037701 19.514000
v -1.037701 -0.719503 19.526001
v -0.719503 -1.037701 19.526001
v -1.024666 -0.706468 19.811998
v -0.706468 -1.024666 19.811998
v -1.017318 -0.699120 19.806000
v -0.699120 -1.017318 19.806000
v -1.017318 -0.699120 19.793999
v -0.699120 -1.017318 19.793999
v -1.024666 -0.706468 19.788000
v -0.706468 -1.024666 19.788000
v -1.032015 -0.713817 19.793999
v -0.713817 -1.032015 19.793999
v -1.032015 -0.713817 19.806000
v -0.713817 -1.032015 19.806000
v -1.018980 -0.700782 20.091999
v -0.700782 -1.018980 20.091999
v -1.011631 -0.693433 20.086000
v -0.693433 -1.011631 20.086000
v -1.011631 -0.693433 20.073999
v -0.693433 -1.011631 20.073999
v -1.018980 -0.700782 20.068001
v -0.700782 -1.018980 20.068001
v -1.026328 -0.708130 20.073999
v -0.708130 -1.026328 20.073999
v -1.026328 -0.708130 20.086000
v -0.708130 -1.026328 20.086000
v -1.013293 -0.695095 20.372000
v -0.695095 -1.013293 20.372000
v -1.005945 -0.687747 20.366001
v -0.687747 -1.005945 20.366001
v -1.005945 -0.687747 20.354000
v -0.687747 -1.005945 20.354000
v -1.013293 -0.695095 20.348001
v -0.695095 -1.013293 20.348001
v -1.020642 -0.702444 20.354000
v -0.702444 -1.020642 20.354000
v -1.020642 -0.702444 20.366001
v -0.702444 -1.020642 20.366001
v -1.007607 -0.689409 20.651999
v -0.689409 -1.007607 20.651999
v -1.000258 -0.682060 20.646000
v -0.682060 -1.000258 20.646000
v -1.000258 -0.682060 20.633999
v -0.682060 -1.000258 20.633999
v -1.007607 -0.689409 20.628000
v -0.689409 -1.007607 20.628000
v -1.014955 -0.696757 20.633999
v -0.696757 -1.014955 20.633999
v -1.014955 -0.696757 20.646000
v -0.696757 -1.014955 20.646000
v -1.001920 -0.683722 20.931999
v -0.683722 -1.001920 20.931999
v -0.994572 -0.676374 20.926001
v -0.676374 -0.994572 20.926001
v -0.994572 -0.676374 20.914000
v -0.676374 -0.994572 20.914000
v -1.001920 -0.683722 20.908001
v -0.683722 -1.001920 20.908001
v -1.009269 -0.691070 20.914000
v -0.691070 -1.009269 20.914000
v -1.009269 -0.691070 20.926001
v -0.691070 -1.009269 20.926001
v -0.996234 -0.678035 21.212000
v -0.678035 -0.996234 21.212000
v -0.988885 -0.670687 21.206001
v -0.670687 -0.988885 21.206001
v -0.988885 -0.670687 21.194000
v -0.670687 -0.988885 21.194000
v -0.996234 -0.678035 21.188002
v -0.678035 -0.996234 21.188002
v -1.003582 -0.685384 21.194000
v -0.685384 -1.003582 21.194000
v -1.003582 -0.685384 21.206001
v -0.685384 -1.003582 21.206001
v 1.517920 1.409255 0.001108
v 1.017359 0.944549 21.571108
v 1.527250 1.384147 0.000783
v 1.026689 0.919441 21.570782
v 1.516097 1.359804 0.000000
v 1.015536 0.895098 21.570000
v 1.490994 1.350486 -0.000783
v 0.990433 0.885780 21.569218
v 1.466647 1.361652 -0.001108
v 0.966085 0.896946 21.568892
v 1.457317 1.386760 -0.000783
v 0.956755 0.922054 21.569218
v 1.468470 1.411103 0.000000
v 0.967908 0.946397 21.570000
v 1.493573 1.420421 0.000783
v 0.993011 0.955715 21.570782
v 1.464603 1.464590 0.001108
v 0.981623 0.981636 21.571108
v 1.474858 1.439844 0.000783
v 0.991878 0.956891 21.570782
v 1.464615 1.415105 0.000000
v 0.981635 0.932151 21.570000
v 1.439875 1.404862 -0.000783
v 0.956895 0.921908 21.569218
v 1.415130 1.415117 -0.001108
v 0.932150 0.932163 21.568892
v 1.404875 1.439862 -0.000783
v 0.921895 0.956908 21.569218
v 1.415118 1.464602 0.000000
v 0.932138 0.981648 21.570000
v 1.439857 1.474844 0.000783
v 0.956878 0.991891 21.570782
v 1.409269 1.517908 0.001108
v 0.944536 1.017371 21.571108
v 1.420435 1.493561 0.000783
v 0.955701 0.993023 21.570782
v 1.411117 1.468458 0.000000
v 0.946383 0.967920 21.570000
v 1.386774 1.457305 -0.000783
v 0.922040 0.956767 21.569218
v 1.361665 1.466635 -0.001108
v 0.896932 0.966097 21.568892
v 1.350500 1.490982 -0.000783
v 0.885766 0.990445 21.569218
v 1.359818 1.516085 0.000000
v 0.895084 1.015548 21.570000
v 1.384161 1.527238 0.000783
v 0.919427 1.026701 21.570782
v -0.150000 1.703109 10.785000
v -0.150000 1.703109 10.885000
v -0.150000 1.763109 10.785000
v -0.150000 1.763109 10.885000
v 0.150000 1.703109 10.785000
v 0.150000 1.703109 10.885000
v 0.150000 1.763109 10.785000
v 0.150000 1.763109 10.885000
vn -0.9656 -0.2585 0.0274
vn -0.7071 0.7071 -0.0000
vn 0.2585 0.9656 -0.0274
vn 0.9656 0.2585 -0.0274
vn 0.0224 0.0224 0.9995
vn 0.7071 -0.7071 -0.0000
vn -0.2585 -0.9656 0.0274
vn -0.0224 -0.0224 -0.9995
vn 0.0225 0.0224 0.9995
vn 0.3536 0.3536 0.8660
vn 0.7071 0.7071 -0.0000
vn 0.3535 0.3536 -0.8660
vn -0.3536 -0.3536 -0.8660
vn -0.7071 -0.7071 -0.0000
vn -0.3536 -0.3536 0.8660
vn 0.3535 0.3535 -0.8660
vn -0.3535 -0.3536 -0.8660
vn 0.3536 0.3536 -0.8660
vn 0.3535 0.3535 0.8660
vn 0.3536 0.3535 -0.8660
vn -0.3535 -0.3535 0.8660
vn 0.3536 0.3535 0.8660
vn -0.3536 -0.3535 -0.8660
vn -0.3535 -0.3536 0.8660
vn -0.3535 -0.3535 -0.8660
vn -0.3536 -0.3535 0.8660
vn 0.3535 0.3536 0.8660
vn 0.3535 0.3536 -0.8661
vn -0.3535 -0.3536 0.8661
vn -0.3537 -0.3536 0.8660
vn -0.7071 -0.7072 -0.0000
vn 0.7071 0.7072 -0.0000
vn -0.3537 -0.3536 -0.8660
vn 0.3534 0.3536 -0.8661
vn 0.3534 0.3536 0.8661
vn 0.7072 0.7070 -0.0000
vn 0.3534 0.3535 -0.8661
vn 0.7070 -0.7072 -0.0000
vn -0.3534 -0.3535 0.8661
vn -0.7070 0.7072 -0.0000
vn 0.3535 0.3535 0.8661
vn -0.7072 -0.7070 -0.0000
vn -0.3535 -0.3535 0.8661
vn -0.3534 -0.3535 -0.8661
vn 0.7072 -0.7070 -0.0000
vn -0.7072 0.7071 -0.0000
vn 0.3537 0.3535 0.8660
vn 0.3534 0.3535 0.8661
vn 0.3537 0.3535 -0.8660
vn -0.3535 -0.3535 -0.8661
vn 0.3535 0.3535 -0.8661
vn -0.3537 -0.3535 0.8660
vn -0.7072 0.7070 -0.0000
vn 0.3536 0.3535 0.8661
vn -0.3533 -0.3535 -0.8662
vn -0.3533 -0.3535 0.8661
vn 0.3533 0.3535 -0.8661
vn -0.3537 -0.3535 -0.8660
vn -0.7071 0.7072 -0.0000
vn 0.3533 0.3535 0.8661
vn -0.3536 -0.3535 -0.8661
vn 0.9371 0.3478 0.0292
vn 0.9089 -0.4168 0.0121
vn 0.3483 -0.9373 -0.0121
vn -0.4164 -0.9087 -0.0292
vn -0.9371 -0.3478 -0.0292
vn -0.9089 0.4168 -0.0121
vn -0.0232 -0.0215 0.9995
vn -0.3483 0.9373 0.0121
vn 0.4163 0.9087 0.0292
vn 0.0232 0.0215 -0.9995
vn 0.9236 0.3824 0.0292
vn 0.9237 -0.3828 0.0121
vn 0.3828 -0.9237 -0.0121
vn -0.3824 -0.9236 -0.0292
vn -0.9236 -0.3824 -0.0292
vn -0.9237 0.3828 -0.0121
vn -0.0223 -0.0224 0.9995
vn -0.3828 0.9237 0.0121
vn 0.3824 0.9236 0.0292
vn 0.0224 0.0224 -0.9995
vn 0.9087 0.4163 0.0292
vn 0.9373 -0.3483 0.0121
vn 0.4168 -0.9089 -0.0121
vn -0.3478 -0.9371 -0.0292
vn -0.9087 -0.4164 -0.0292
vn -0.9373 0.3483 -0.0121
vn -0.0216 -0.0232 0.9995
vn -0.4168 0.9089 0.0121
vn 0.3478 0.9371 0.0292
vn 0.0215 0.0232 -0.9995
vn -1.0000 -0.0000 -0.0000
vn -0.0000 1.0000 -0.0000
vn 1.0000 -0.0000 -0.0000
vn -0.0000 -1.0000 -0.0000
vn -0.0000 -0.0000 -1.0000
vn -0.0000 -0.0000 1.0000
vn 0.0222 0.0224 0.9995
vn 0.0225 0.0223 0.9995
vn 0.0225 0.0226 0.9995
vn 0.7072 -0.7071 -0.0000
vn 0.7071 -0.7072 -0.0000
vn -0.3534 -0.3536 0.8661
vn 0.3537 0.3536 0.8660
vn 0.3537 0.3536 -0.8660
vn -0.7073 0.7069 -0.0000
vn 0.7070 -0.7073 -0.0000
vn 0.7073 -0.7069 -0.0000
vn -0.7068 0.7074 -0.0000
vn -0.3533 -0.3535 0.8662
vn -0.7069 0.7074 -0.0000
vn 0.3533 0.3535 -0.8662
vn 0.3533 0.3535 0.8662
vn -0.4163 -0.9087 -0.0292
vn -0.0233 -0.0215 0.9995
vn -0.0233 -0.0214 0.9995
vn 0.4164 0.9087 0.0292
vn 0.0232 0.0216 -0.9995
vn 0.9235 0.3824 0.0292
vn -0.9235 -0.3824 -0.0292
vn -0.0224 -0.0222 0.9995
vn -0.0228 -0.0224 0.9995
vn -0.0225 -0.0222 0.9995
vn -0.0224 -0.0224 0.9995
vn 0.9087 0.4164 0.0292
vn -0.9087 -0.4163 -0.0292
vn -0.0216 -0.0230 0.9995
vn -0.0215 -0.0232 0.9995
vn 0.0216 0.0232 -0.9995
s 0
usemtl pipe_steel
f 2//1 3//1 1//1
f 3//2 6//2 5//2
f 5//3 8//3 7//3
f 7//4 10//4 9//4
f 2//5 10//5 6//5
f 10//6 11//6 9//6
f 12//7 1//7 11//7
f 3//8 7//8 11//8
f 13//1 16//1 15//1
f 16//2 17//2 15//2
f 18//3 19//3 17//3
f 20//4 21//4 19//4
f 14//9 22//9 18//9
f 21//6 24//6 23//6
f 24//7 13//7 23//7
f 15//8 19//8 23//8
f 38//10 39//10 37//10
f 40//11 41//11 39//11
f 42//12 43//12 41//12
f 44//13 45//13 43//13
f 38//6 46//6 42//6
f 46//14 47//14 45//14
f 48//15 37//15 47//15
f 39//2 43//2 47//2
f 50//10 51//10 49//10
f 52//11 53//11 51//11
f 54//16 55//16 53//16
f 55//17 58//17 57//17
f 50//6 58//6 54//6
f 58//14 59//14 57//14
f 60//15 49//15 59//15
f 51//2 55//2 59//2
f 62//10 63//10 61//10
f 64//11 65//11 63//11
f 66//18 67//18 65//18
f 68//13 69//13 67//13
f 62//6 70//6 66//6
f 70//14 71//14 69//14
f 72//15 61//15 71//15
f 63//2 67//2 71//2
f 74//19 75//19 73//19
f 76//11 77//11 75//11
f 78//20 79//20 77//20
f 80//17 81//17 79//17
f 74//6 82//6 78//6
f 82//14 83//14 81//14
f 84//21 73//21 83//21
f 75//2 79//2 83//2
f 86//22 87//22 85//22
f 88//11 89//11 87//11
f 90//12 91//12 89//12
f 92//23 93//23 91//23
f 86//6 94//6 90//6
f 94//14 95//14 93//14
f 96//24 85//24 95//24
f 87//2 91//2 95//2
f 98//22 99//22 97//22
f 100//11 101//11 99//11
f 101//16 104//16 103//16
f 104//25 105//25 103//25
f 98//6 106//6 102//6
f 106//14 107//14 105//14
f 107//26 98//26 97//26
f 99//2 103//2 107//2
f 110//27 111//27 109//27
f 112//11 113//11 111//11
f 113//18 116//18 115//18
f 116//13 117//13 115//13
f 110//6 118//6 114//6
f 118//14 119//14 117//14
f 120//15 109//15 119//15
f 111//2 115//2 119//2
f 122//27 123//27 121//27
f 124//11 125//11 123//11
f 126//18 127//18 125//18
f 128//13 129//13 127//13
f 122//6 130//6 126//6
f 130//14 131//14 129//14
f 131//24 122//24 121//24
f 123//2 127//2 131//2
f 134//10 135//10 133//10
f 136//11 137//11 135//11
f 138//18 139//18 137//18
f 140//13 141//13 139//13
f 134//6 142//6 138//6
f 142//14 143//14 141//14
f 144//15 133//15 143//15
f 135//2 139//2 143//2
f 146//10 147//10 145//10
f 148//11 149//11 147//11
f 149//12 152//12 151//12
f 152//17 153//17 151//17
f 146//6 154//6 150//6
f 154//14 155//14 153//14
f 156//15 145//15 155//15
f 147//2 151//2 155//2
f 158//10 159//10 157//10
f 160//11 161//11 159//11
f 162//18 163//18 161//18
f 163//17 166//17 165//17
f 158//6 166//6 162//6
f 166//14 167//14 165//14
f 168//15 157//15 167//15
f 159//2 163//2 167//2
f 170//10 171//10 169//10
f 172//11 173//11 171//11
f 173//20 176//20 175//20
f 176//13 177//13 175//13
f 170//6 178//6 174//6
f 178//14 179//14 177//14
f 180//15 169//15 179//15
f 171//2 175//2 179//2
f 182//10 183//10 181//10
f 184//11 185//11 183//11
f 186//12 187//12 185//12
f 188//13 189//13 187//13
f 182//6 190//6 186//6
f 190//14 191//14 189//14
f 191//15 182//15 181//15
f 183//2 187//2 191//2
f 194//27 195//27 193//27
f 196//11 197//11 195//11
f 198//12 199//12 197//12
f 200//13 201//13 199//13
f 194//6 202//6 198//6
f 202//14 203//14 201//14
f 203//24 194//24 193//24
f 195//2 199//2 203//2
f 206//22 207//22 205//22
f 208//11 209//11 207//11
f 210//12 211//12 209//12
f 212//13 213//13 211//13
f 206//6 214//6 210//6
f 214//14 215//14 213//14
f 216//24 205//24 215//24
f 207//2 211//2 215//2
f 218//10 219//10 217//10
f 220//11 221//11 219//11
f 221//18 224//18 223//18
f 224//17 225//17 223//17
f 218//6 226//6 222//6
f 226//14 227//14 225//14
f 228//15 217//15 227//15
f 219//2 223//2 227//2
f 230//27 231//27 229//27
f 232//11 233//11 231//11
f 233//18 236//18 235//18
f 235//13 238//13 237//13
f 230//6 238//6 234//6
f 238//14 239//14 237//14
f 240//15 229//15 239//15
f 231//2 235//2 239//2
f 242//22 243//22 241//22
f 244//11 245//11 243//11
f 246//12 247//12 245//12
f 248//13 249//13 247//13
f 242//6 250//6 246//6
f 250//14 251//14 249//14
f 252//24 241//24 251//24
f 243//2 247//2 251//2
f 254//10 255//10 253//10
f 256//11 257//11 255//11
f 258//12 259//12 257//12
f 260//23 261//23 259//23
f 254//6 262//6 258//6
f 262//14 263//14 261//14
f 264//15 253//15 263//15
f 255//2 259//2 263//2
f 266//27 267//27 265//27
f 268//11 269//11 267//11
f 270//20 271//20 269//20
f 272//17 273//17 271//17
f 266//6 274//6 270//6
f 274//14 275//14 273//14
f 276//15 265//15 275//15
f 267//2 271//2 275//2
f 278//10 279//10 277//10
f 280//11 281//11 279//11
f 282//12 283//12 281//12
f 284//13 285//13 283//13
f 278//6 286//6 282//6
f 286//14 287//14 285//14
f 288//15 277//15 287//15
f 279//2 283//2 287//2
f 290//22 291//22 289//22
f 292//11 293//11 291//11
f 294//12 295//12 293//12
f 296//23 297//23 295//23
f 290//6 298//6 294//6
f 298//14 299//14 297//14
f 299//26 290//26 289//26
f 291//2 295//2 299//2
f 301//22 304//22 303//22
f 304//11 305//11 303//11
f 306//20 307//20 305//20
f 308//13 309//13 307//13
f 302//6 310//6 306//6
f 310//14 311//14 309//14
f 311//15 302//15 301//15
f 303//2 307//2 311//2
f 314//27 315//27 313//27
f 316//11 317//11 315//11
f 318//20 319//20 317//20
f 320//13 321//13 319//13
f 314//6 322//6 318//6
f 322//14 323//14 321//14
f 323//15 314//15 313//15
f 315//2 319//2 323//2
f 326//10 327//10 325//10
f 328//11 329//11 327//11
f 330//28 331//28 329//28
f 332//13 333//13 331//13
f 326//6 334//6 330//6
f 334//14 335//14 333//14
f 336//24 325//24 335//24
f 327//2 331//2 335//2
f 338//10 339//10 337//10
f 340//11 341//11 339//11
f 342//18 343//18 341//18
f 343//17 346//17 345//17
f 338//6 346//6 342//6
f 346//14 347//14 345//14
f 348//15 337//15 347//15
f 339//2 343//2 347//2
f 349//10 352//10 351//10
f 352//11 353//11 351//11
f 354//12 355//12 353//12
f 356//17 357//17 355//17
f 350//6 358//6 354//6
f 358//14 359//14 357//14
f 359//15 350//15 349//15
f 351//2 355//2 359//2
f 362//10 363//10 361//10
f 364//11 365//11 363//11
f 366//12 367//12 365//12
f 367//17 370//17 369//17
f 362//6 370//6 366//6
f 370//14 371//14 369//14
f 372//29 361//29 371//29
f 363//2 367//2 371//2
f 374//10 375//10 373//10
f 376//11 377//11 375//11
f 378//18 379//18 377//18
f 380//13 381//13 379//13
f 374//6 382//6 378//6
f 382//14 383//14 381//14
f 384//24 373//24 383//24
f 375//2 379//2 383//2
f 386//27 387//27 385//27
f 388//11 389//11 387//11
f 390//18 391//18 389//18
f 392//13 393//13 391//13
f 386//6 394//6 390//6
f 394//14 395//14 393//14
f 396//15 385//15 395//15
f 387//2 391//2 395//2
f 398//27 399//27 397//27
f 400//11 401//11 399//11
f 402//18 403//18 401//18
f 404//13 405//13 403//13
f 398//6 406//6 402//6
f 406//14 407//14 405//14
f 407//15 398//15 397//15
f 399//2 403//2 407//2
f 409//10 412//10 411//10
f 412//11 413//11 411//11
f 414//18 415//18 413//18
f 416//13 417//13 415//13
f 410//6 418//6 414//6
f 418//14 419//14 417//14
f 420//15 409//15 419//15
f 411//2 415//2 419//2
f 422//27 423//27 421//27
f 424//11 425//11 423//11
f 426//18 427//18 425//18
f 428//13 429//13 427//13
f 422//6 430//6 426//6
f 430//14 431//14 429//14
f 432//24 421//24 431//24
f 423//2 427//2 431//2
f 434//27 435//27 433//27
f 436//11 437//11 435//11
f 438//18 439//18 437//18
f 440//13 441//13 439//13
f 434//6 442//6 438//6
f 442//14 443//14 441//14
f 444//15 433//15 443//15
f 435//2 439//2 443//2
f 446//10 447//10 445//10
f 448//11 449//11 447//11
f 450//18 451//18 449//18
f 452//13 453//13 451//13
f 446//6 454//6 450//6
f 454//14 455//14 453//14
f 456//15 445//15 455//15
f 447//2 451//2 455//2
f 458//10 459//10 457//10
f 460//11 461//11 459//11
f 462//18 463//18 461//18
f 464//13 465//13 463//13
f 458//6 466//6 462//6
f 466//14 467//14 465//14
f 468//15 457//15 467//15
f 459//2 463//2 467//2
f 470//10 471//10 469//10
f 472//11 473//11 471//11
f 474//18 475//18 473//18
f 475//13 478//13 477//13
f 470//6 478//6 474//6
f 478//14 479//14 477//14
f 480//15 469//15 479//15
f 471//2 475//2 479//2
f 482//10 483//10 481//10
f 484//11 485//11 483//11
f 486//12 487//12 485//12
f 488//17 489//17 487//17
f 482//6 490//6 486//6
f 490//14 491//14 489//14
f 492//15 481//15 491//15
f 483//2 487//2 491//2
f 494//10 495//10 493//10
f 496//11 497//11 495//11
f 498//18 499//18 497//18
f 499//13 502//13 501//13
f 494//6 502//6 498//6
f 502//14 503//14 501//14
f 504//15 493//15 503//15
f 495//2 499//2 503//2
f 506//10 507//10 505//10
f 508//11 509//11 507//11
f 510//18 511//18 509//18
f 511//13 514//13 513//13
f 506//6 514//6 510//6
f 514//14 515//14 513//14
f 516//15 505//15 515//15
f 507//2 511//2 515//2
f 518//10 519//10 517//10
f 520//11 521//11 519//11
f 522//18 523//18 521//18
f 524//13 525//13 523//13
f 518//6 526//6 522//6
f 526//14 527//14 525//14
f 528//24 517//24 527//24
f 519//2 523//2 527//2
f 530//10 531//10 529//10
f 532//11 533//11 531//11
f 534//18 535//18 533//18
f 536//17 537//17 535//17
f 530//6 538//6 534//6
f 538//14 539//14 537//14
f 540//15 529//15 539//15
f 531//2 535//2 539//2
f 542//10 543//10 541//10
f 544//11 545//11 543//11
f 546//18 547//18 545//18
f 548//17 549//17 547//17
f 542//6 550//6 546//6
f 550//14 551//14 549//14
f 552//15 541//15 551//15
f 543//2 547//2 551//2
f 554//10 555//10 553//10
f 556//11 557//11 555//11
f 558//18 559//18 557//18
f 560//17 561//17 559//17
f 554//6 562//6 558//6
f 562//14 563//14 561//14
f 564//24 553//24 563//24
f 555//2 559//2 563//2
f 565//10 568//10 567//10
f 568//11 569//11 567//11
f 570//18 571//18 569//18
f 572//13 573//13 571//13
f 566//6 574//6 570//6
f 573//14 576//14 575//14
f 576//15 565//15 575//15
f 567//2 571//2 575//2
f 578//27 579//27 577//27
f 580//11 581//11 579//11
f 582//18 583//18 581//18
f 583//13 586//13 585//13
f 578//6 586//6 582//6
f 586//14 587//14 585//14
f 588//30 577//30 587//30
f 579//2 583//2 587//2
f 590//27 591//27 589//27
f 592//11 593//11 591//11
f 594//18 595//18 593//18
f 596//13 597//13 595//13
f 590//6 598//6 594//6
f 598//31 599//31 597//31
f 600//15 589//15 599//15
f 591//2 595//2 599//2
f 602//10 603//10 601//10
f 604//32 605//32 603//32
f 606//18 607//18 605//18
f 608//33 609//33 607//33
f 602//6 610//6 606//6
f 610//31 611//31 609//31
f 612//15 601//15 611//15
f 603//2 607//2 611//2
f 613//10 616//10 615//10
f 616//32 617//32 615//32
f 618//18 619//18 617//18
f 620//13 621//13 619//13
f 614//6 622//6 618//6
f 622//31 623//31 621//31
f 624//24 613//24 623//24
f 615//2 619//2 623//2
f 626//10 627//10 625//10
f 628//11 629//11 627//11
f 630//12 631//12 629//12
f 632//13 633//13 631//13
f 626//6 634//6 630//6
f 634//14 635//14 633//14
f 635//15 626//15 625//15
f 627//2 631//2 635//2
f 638//10 639//10 637//10
f 640//11 641//11 639//11
f 642//18 643//18 641//18
f 644//17 645//17 643//17
f 638//6 646//6 642//6
f 646//14 647//14 645//14
f 648//24 637//24 647//24
f 639//2 643//2 647//2
f 649//10 652//10 651//10
f 652//11 653//11 651//11
f 654//34 655//34 653//34
f 655//13 658//13 657//13
f 650//6 658//6 654//6
f 658//31 659//31 657//31
f 660//24 649//24 659//24
f 651//2 655//2 659//2
f 661//10 664//10 663//10
f 664//11 665//11 663//11
f 666//18 667//18 665//18
f 668//13 669//13 667//13
f 662//6 670//6 666//6
f 670//31 671//31 669//31
f 672//24 661//24 671//24
f 663//2 667//2 671//2
f 674//35 675//35 673//35
f 676//11 677//11 675//11
f 678//18 679//18 677//18
f 680//17 681//17 679//17
f 674//6 682//6 678//6
f 682//14 683//14 681//14
f 684//30 673//30 683//30
f 675//2 679//2 683//2
f 686//10 687//10 685//10
f 688//11 689//11 687//11
f 690//18 691//18 689//18
f 692//33 693//33 691//33
f 686//6 694//6 690//6
f 694//31 695//31 693//31
f 696//24 685//24 695//24
f 687//2 691//2 695//2
f 698//10 699//10 697//10
f 700//11 701//11 699//11
f 702//18 703//18 701//18
f 704//13 705//13 703//13
f 698//6 706//6 702//6
f 706//31 707//31 705//31
f 707//15 698//15 697//15
f 699//2 703//2 707//2
f 710//10 711//10 709//10
f 712//32 713//32 711//32
f 714//18 715//18 713//18
f 716//13 717//13 715//13
f 710//6 718//6 714//6
f 718//14 719//14 717//14
f 720//30 709//30 719//30
f 711//2 715//2 719//2
f 722//22 723//22 721//22
f 724//36 725//36 723//36
f 726//37 727//37 725//37
f 728//23 729//23 727//23
f 722//38 730//38 726//38
f 730//14 731//14 729//14
f 732//39 721//39 731//39
f 723//40 727//40 731//40
f 734//41 735//41 733//41
f 736//11 737//11 735//11
f 738//20 739//20 737//20
f 739//23 742//23 741//23
f 734//6 742//6 738//6
f 742//42 743//42 741//42
f 744//43 733//43 743//43
f 735//2 739//2 743//2
f 746//41 747//41 745//41
f 748//36 749//36 747//36
f 750//20 751//20 749//20
f 752//44 753//44 751//44
f 746//45 754//45 750//45
f 754//14 755//14 753//14
f 756//43 745//43 755//43
f 747//46 751//46 755//46
f 758//47 759//47 757//47
f 760//11 761//11 759//11
f 762//37 763//37 761//37
f 764//23 765//23 763//23
f 758//38 766//38 762//38
f 766//42 767//42 765//42
f 767//26 758//26 757//26
f 759//40 763//40 767//40
f 770//48 771//48 769//48
f 772//11 773//11 771//11
f 774//49 775//49 773//49
f 776//50 777//50 775//50
f 770//6 778//6 774//6
f 778//14 779//14 777//14
f 780//43 769//43 779//43
f 771//46 775//46 779//46
f 782//41 783//41 781//41
f 784//11 785//11 783//11
f 786//51 787//51 785//51
f 788//44 789//44 787//44
f 782//45 790//45 786//45
f 790//14 791//14 789//14
f 792//52 781//52 791//52
f 783//53 787//53 791//53
f 794//41 795//41 793//41
f 796//11 797//11 795//11
f 798//37 799//37 797//37
f 800//23 801//23 799//23
f 794//6 802//6 798//6
f 802//14 803//14 801//14
f 804//43 793//43 803//43
f 795//2 799//2 803//2
f 806//48 807//48 805//48
f 808//36 809//36 807//36
f 810//51 811//51 809//51
f 812//50 813//50 811//50
f 806//6 814//6 810//6
f 814//14 815//14 813//14
f 816//26 805//26 815//26
f 807//2 811//2 815//2
f 818//48 819//48 817//48
f 820//11 821//11 819//11
f 822//49 823//49 821//49
f 824//44 825//44 823//44
f 818//45 826//45 822//45
f 826//42 827//42 825//42
f 828//43 817//43 827//43
f 819//2 823//2 827//2
f 830//54 831//54 829//54
f 832//11 833//11 831//11
f 834//51 835//51 833//51
f 835//55 838//55 837//55
f 830//6 838//6 834//6
f 838//42 839//42 837//42
f 840//56 829//56 839//56
f 831//2 835//2 839//2
f 842//54 843//54 841//54
f 844//11 845//11 843//11
f 846//57 847//57 845//57
f 848//58 849//58 847//58
f 842//38 850//38 846//38
f 850//14 851//14 849//14
f 852//39 841//39 851//39
f 843//2 847//2 851//2
f 854//48 855//48 853//48
f 856//11 857//11 855//11
f 858//20 859//20 857//20
f 860//44 861//44 859//44
f 854//45 862//45 858//45
f 862//14 863//14 861//14
f 863//39 854//39 853//39
f 855//2 859//2 863//2
f 866//22 867//22 865//22
f 868//11 869//11 867//11
f 870//57 871//57 869//57
f 872//23 873//23 871//23
f 866//6 874//6 870//6
f 874//42 875//42 873//42
f 875//26 866//26 865//26
f 867//40 871//40 875//40
f 878//22 879//22 877//22
f 880//11 881//11 879//11
f 882//51 883//51 881//51
f 884//58 885//58 883//58
f 878//38 886//38 882//38
f 886//14 887//14 885//14
f 888//39 877//39 887//39
f 879//2 883//2 887//2
f 890//48 891//48 889//48
f 892//11 893//11 891//11
f 894//20 895//20 893//20
f 896//44 897//44 895//44
f 890//45 898//45 894//45
f 898//14 899//14 897//14
f 900//52 889//52 899//52
f 891//53 895//53 899//53
f 902//22 903//22 901//22
f 904//36 905//36 903//36
f 906//57 907//57 905//57
f 907//44 910//44 909//44
f 902//6 910//6 906//6
f 910//14 911//14 909//14
f 912//56 901//56 911//56
f 903//59 907//59 911//59
f 914//22 915//22 913//22
f 916//36 917//36 915//36
f 918//57 919//57 917//57
f 920//50 921//50 919//50
f 914//38 922//38 918//38
f 922//14 923//14 921//14
f 923//26 914//26 913//26
f 915//2 919//2 923//2
f 926//60 927//60 925//60
f 928//11 929//11 927//11
f 930//20 931//20 929//20
f 932//44 933//44 931//44
f 926//45 934//45 930//45
f 934//14 935//14 933//14
f 936//43 925//43 935//43
f 927//2 931//2 935//2
f 938//22 939//22 937//22
f 940//11 941//11 939//11
f 942//37 943//37 941//37
f 944//61 945//61 943//61
f 938//6 946//6 942//6
f 946//14 947//14 945//14
f 948//39 937//39 947//39
f 939//2 943//2 947//2
f 2//1 4//1 3//1
f 3//2 4//2 6//2
f 5//3 6//3 8//3
f 7//4 8//4 10//4
f 6//5 4//5 2//5
f 2//5 12//5 10//5
f 10//98 8//98 6//98
f 10//6 12//6 11//6
f 12//7 2//7 1//7
f 11//8 1//8 3//8
f 3//8 5//8 7//8
f 7//8 9//8 11//8
f 13//1 14//1 16//1
f 16//2 18//2 17//2
f 18//3 20//3 19//3
f 20//4 22//4 21//4
f 18//98 16//98 14//98
f 14//5 24//5 22//5
f 22//98 20//98 18//98
f 21//6 22//6 24//6
f 24//7 14//7 13//7
f 23//8 13//8 15//8
f 15//8 17//8 19//8
f 19//8 21//8 23//8
f 38//27 40//27 39//27
f 40//11 42//11 41//11
f 42//18 44//18 43//18
f 44//13 46//13 45//13
f 42//6 40//6 38//6
f 38//6 48//6 46//6
f 46//6 44//6 42//6
f 46//14 48//14 47//14
f 48//15 38//15 37//15
f 47//2 37//2 39//2
f 39//2 41//2 43//2
f 43//2 45//2 47//2
f 50//22 52//22 51//22
f 52//11 54//11 53//11
f 54//18 56//18 55//18
f 55//13 56//13 58//13
f 54//6 52//6 50//6
f 50//6 60//6 58//6
f 58//6 56//6 54//6
f 58//14 60//14 59//14
f 60//15 50//15 49//15
f 59//2 49//2 51//2
f 51//2 53//2 55//2
f 55//2 57//2 59//2
f 62//10 64//10 63//10
f 64//11 66//11 65//11
f 66//18 68//18 67//18
f 68//13 70//13 69//13
f 66//6 64//6 62//6
f 62//6 72//6 70//6
f 70//6 68//6 66//6
f 70//14 72//14 71//14
f 72//15 62//15 61//15
f 71//2 61//2 63//2
f 63//2 65//2 67//2
f 67//2 69//2 71//2
f 74//10 76//10 75//10
f 76//11 78//11 77//11
f 78//16 80//16 79//16
f 80//23 82//23 81//23
f 78//6 76//6 74//6
f 74//6 84//6 82//6
f 82//6 80//6 78//6
f 82//14 84//14 83//14
f 84//24 74//24 73//24
f 83//2 73//2 75//2
f 75//2 77//2 79//2
f 79//2 81//2 83//2
f 86//19 88//19 87//19
f 88//11 90//11 89//11
f 90//20 92//20 91//20
f 92//25 94//25 93//25
f 90//6 88//6 86//6
f 86//6 96//6 94//6
f 94//6 92//6 90//6
f 94//14 96//14 95//14
f 96//26 86//26 85//26
f 95//2 85//2 87//2
f 87//2 89//2 91//2
f 91//2 93//2 95//2
f 98//19 100//19 99//19
f 100//11 102//11 101//11
f 101//16 102//16 104//16
f 104//25 106//25 105//25
f 102//6 100//6 98//6
f 98//6 108//6 106//6
f 106//6 104//6 102//6
f 106//14 108//14 107//14
f 107//21 108//21 98//21
f 107//2 97//2 99//2
f 99//2 101//2 103//2
f 103//2 105//2 107//2
f 110//10 112//10 111//10
f 112//11 114//11 113//11
f 113//18 114//18 116//18
f 116//17 118//17 117//17
f 114//6 112//6 110//6
f 110//6 120//6 118//6
f 118//6 116//6 114//6
f 118//14 120//14 119//14
f 120//24 110//24 109//24
f 119//2 109//2 111//2
f 111//2 113//2 115//2
f 115//2 117//2 119//2
f 122//27 124//27 123//27
f 124//11 126//11 125//11
f 126//12 128//12 127//12
f 128//13 130//13 129//13
f 126//6 124//6 122//6
f 122//6 132//6 130//6
f 130//6 128//6 126//6
f 130//14 132//14 131//14
f 131//24 132//24 122//24
f 131//2 121//2 123//2
f 123//2 125//2 127//2
f 127//2 129//2 131//2
f 134//10 136//10 135//10
f 136//11 138//11 137//11
f 138//18 140//18 139//18
f 140//13 142//13 141//13
f 138//6 136//6 134//6
f 134//6 144//6 142//6
f 142//6 140//6 138//6
f 142//14 144//14 143//14
f 144//24 134//24 133//24
f 143//2 133//2 135//2
f 135//2 137//2 139//2
f 139//2 141//2 143//2
f 146//10 148//10 147//10
f 148//11 150//11 149//11
f 149//18 150//18 152//18
f 152//13 154//13 153//13
f 150//6 148//6 146//6
f 146//6 156//6 154//6
f 154//6 152//6 150//6
f 154//14 156//14 155//14
f 156//15 146//15 145//15
f 155//2 145//2 147//2
f 147//2 149//2 151//2
f 151//2 153//2 155//2
f 158//27 160//27 159//27
f 160//11 162//11 161//11
f 162//12 164//12 163//12
f 163//13 164//13 166//13
f 162//6 160//6 158//6
f 158//6 168//6 166//6
f 166//6 164//6 162//6
f 166//14 168//14 167//14
f 168//15 158//15 157//15
f 167//2 157//2 159//2
f 159//2 161//2 163//2
f 163//2 165//2 167//2
f 170//10 172//10 171//10
f 172//11 174//11 173//11
f 173//12 174//12 176//12
f 176//13 178//13 177//13
f 174//6 172//6 170//6
f 170//6 180//6 178//6
f 178//6 176//6 174//6
f 178//14 180//14 179//14
f 180//15 170//15 169//15
f 179//2 169//2 171//2
f 171//2 173//2 175//2
f 175//2 177//2 179//2
f 182//10 184//10 183//10
f 184//11 186//11 185//11
f 186//18 188//18 187//18
f 188//13 190//13 189//13
f 186//6 184//6 182//6
f 182//6 192//6 190//6
f 190//6 188//6 186//6
f 190//14 192//14 191//14
f 191//15 192//15 182//15
f 191//2 181//2 183//2
f 183//2 185//2 187//2
f 187//2 189//2 191//2
f 194//10 196//10 195//10
f 196//11 198//11 197//11
f 198//18 200//18 199//18
f 200//13 202//13 201//13
f 198//6 196//6 194//6
f 194//6 204//6 202//6
f 202//6 200//6 198//6
f 202//14 204//14 203//14
f 203//15 204//15 194//15
f 203//2 193//2 195//2
f 195//2 197//2 199//2
f 199//2 201//2 203//2
f 206//27 208//27 207//27
f 208//11 210//11 209//11
f 210//18 212//18 211//18
f 212//13 214//13 213//13
f 210//6 208//6 206//6
f 206//6 216//6 214//6
f 214//6 212//6 210//6
f 214//14 216//14 215//14
f 216//26 206//26 205//26
f 215//2 205//2 207//2
f 207//59 209//59 211//59
f 211//2 213//2 215//2
f 218//10 220//10 219//10
f 220//11 222//11 221//11
f 221//18 222//18 224//18
f 224//13 226//13 225//13
f 222//6 220//6 218//6
f 218//6 228//6 226//6
f 226//6 224//6 222//6
f 226//14 228//14 227//14
f 228//15 218//15 217//15
f 227//2 217//2 219//2
f 219//2 221//2 223//2
f 223//2 225//2 227//2
f 230//10 232//10 231//10
f 232//11 234//11 233//11
f 233//18 234//18 236//18
f 235//17 236//17 238//17
f 234//6 232//6 230//6
f 230//6 240//6 238//6
f 238//6 236//6 234//6
f 238//14 240//14 239//14
f 240//24 230//24 229//24
f 239//2 229//2 231//2
f 231//2 233//2 235//2
f 235//2 237//2 239//2
f 242//27 244//27 243//27
f 244//11 246//11 245//11
f 246//18 248//18 247//18
f 248//13 250//13 249//13
f 246//6 244//6 242//6
f 242//6 252//6 250//6
f 250//6 248//6 246//6
f 250//14 252//14 251//14
f 252//26 242//26 241//26
f 251//2 241//2 243//2
f 243//2 245//2 247//2
f 247//59 249//59 251//59
f 254//10 256//10 255//10
f 256//11 258//11 257//11
f 258//20 260//20 259//20
f 260//17 262//17 261//17
f 258//6 256//6 254//6
f 254//6 264//6 262//6
f 262//6 260//6 258//6
f 262//14 264//14 263//14
f 264//15 254//15 253//15
f 263//2 253//2 255//2
f 255//2 257//2 259//2
f 259//2 261//2 263//2
f 266//10 268//10 267//10
f 268//11 270//11 269//11
f 270//12 272//12 271//12
f 272//13 274//13 273//13
f 270//6 268//6 266//6
f 266//6 276//6 274//6
f 274//6 272//6 270//6
f 274//14 276//14 275//14
f 276//24 266//24 265//24
f 275//2 265//2 267//2
f 267//2 269//2 271//2
f 271//53 273//53 275//53
f 278//10 280//10 279//10
f 280//11 282//11 281//11
f 282//18 284//18 283//18
f 284//17 286//17 285//17
f 282//6 280//6 278//6
f 278//6 288//6 286//6
f 286//6 284//6 282//6
f 286//14 288//14 287//14
f 288//15 278//15 277//15
f 287//59 277//59 279//59
f 279//2 281//2 283//2
f 283//2 285//2 287//2
f 290//10 292//10 291//10
f 292//11 294//11 293//11
f 294//20 296//20 295//20
f 296//17 298//17 297//17
f 294//6 292//6 290//6
f 290//6 300//6 298//6
f 298//6 296//6 294//6
f 298//14 300//14 299//14
f 299//24 300//24 290//24
f 299//2 289//2 291//2
f 291//2 293//2 295//2
f 295//2 297//2 299//2
f 301//10 302//10 304//10
f 304//11 306//11 305//11
f 306//18 308//18 307//18
f 308//13 310//13 309//13
f 306//6 304//6 302//6
f 302//6 312//6 310//6
f 310//6 308//6 306//6
f 310//14 312//14 311//14
f 311//26 312//26 302//26
f 311//2 301//2 303//2
f 303//46 305//46 307//46
f 307//2 309//2 311//2
f 314//22 316//22 315//22
f 316//11 318//11 317//11
f 318//18 320//18 319//18
f 320//23 322//23 321//23
f 318//101 316//101 314//101
f 314//6 324//6 322//6
f 322//6 320//6 318//6
f 322//14 324//14 323//14
f 323//15 324//15 314//15
f 323//53 313//53 315//53
f 315//2 317//2 319//2
f 319//2 321//2 323//2
f 326//27 328//27 327//27
f 328//11 330//11 329//11
f 330//20 332//20 331//20
f 332//13 334//13 333//13
f 330//6 328//6 326//6
f 326//6 336//6 334//6
f 334//6 332//6 330//6
f 334//14 336//14 335//14
f 336//15 326//15 325//15
f 335//2 325//2 327//2
f 327//2 329//2 331//2
f 331//2 333//2 335//2
f 338//10 340//10 339//10
f 340//11 342//11 341//11
f 342//18 344//18 343//18
f 343//23 344//23 346//23
f 342//6 340//6 338//6
f 338//6 348//6 346//6
f 346//102 344//102 342//102
f 346//14 348//14 347//14
f 348//15 338//15 337//15
f 347//2 337//2 339//2
f 339//2 341//2 343//2
f 343//2 345//2 347//2
f 349//27 350//27 352//27
f 352//11 354//11 353//11
f 354//12 356//12 355//12
f 356//13 358//13 357//13
f 354//6 352//6 350//6
f 350//6 360//6 358//6
f 358//6 356//6 354//6
f 358//14 360//14 359//14
f 359//15 360//15 350//15
f 359//2 349//2 351//2
f 351//46 353//46 355//46
f 355//2 357//2 359//2
f 362//10 364//10 363//10
f 364//11 366//11 365//11
f 366//18 368//18 367//18
f 367//23 368//23 370//23
f 366//6 364//6 362//6
f 362//6 372//6 370//6
f 370//6 368//6 366//6
f 370//14 372//14 371//14
f 372//15 362//15 361//15
f 371//2 361//2 363//2
f 363//2 365//2 367//2
f 367//2 369//2 371//2
f 374//10 376//10 375//10
f 376//11 378//11 377//11
f 378//18 380//18 379//18
f 380//13 382//13 381//13
f 378//6 376//6 374//6
f 374//6 384//6 382//6
f 382//6 380//6 378//6
f 382//14 384//14 383//14
f 384//15 374//15 373//15
f 383//2 373//2 375//2
f 375//2 377//2 379//2
f 379//2 381//2 383//2
f 386//10 388//10 387//10
f 388//11 390//11 389//11
f 390//18 392//18 391//18
f 392//13 394//13 393//13
f 390//6 388//6 386//6
f 386//6 396//6 394//6
f 394//6 392//6 390//6
f 394//14 396//14 395//14
f 396//24 386//24 385//24
f 395//2 385//2 387//2
f 387//2 389//2 391//2
f 391//2 393//2 395//2
f 398//10 400//10 399//10
f 400//11 402//11 401//11
f 402//18 404//18 403//18
f 404//13 406//13 405//13
f 402//101 400//101 398//101
f 398//6 408//6 406//6
f 406//6 404//6 402//6
f 406//14 408//14 407//14
f 407//15 408//15 398//15
f 407//2 397//2 399//2
f 399//46 401//46 403//46
f 403//2 405//2 407//2
f 409//27 410//27 412//27
f 412//11 414//11 413//11
f 414//18 416//18 415//18
f 416//13 418//13 417//13
f 414//6 412//6 410//6
f 410//6 420//6 418//6
f 418//6 416//6 414//6
f 418//14 420//14 419//14
f 420//15 410//15 409//15
f 419//2 409//2 411//2
f 411//2 413//2 415//2
f 415//2 417//2 419//2
f 422//10 424//10 423//10
f 424//11 426//11 425//11
f 426//18 428//18 427//18
f 428//17 430//17 429//17
f 426//6 424//6 422//6
f 422//6 432//6 430//6
f 430//6 428//6 426//6
f 430//14 432//14 431//14
f 432//15 422//15 421//15
f 431//2 421//2 423//2
f 423//2 425//2 427//2
f 427//2 429//2 431//2
f 434//10 436//10 435//10
f 436//11 438//11 437//11
f 438//18 440//18 439//18
f 440//17 442//17 441//17
f 438//6 436//6 434//6
f 434//6 444//6 442//6
f 442//38 440//38 438//38
f 442//14 444//14 443//14
f 444//24 434//24 433//24
f 443//2 433//2 435//2
f 435//2 437//2 439//2
f 439//46 441//46 443//46
f 446//10 448//10 447//10
f 448//11 450//11 449//11
f 450//18 452//18 451//18
f 452//13 454//13 453//13
f 450//6 448//6 446//6
f 446//6 456//6 454//6
f 454//6 452//6 450//6
f 454//14 456//14 455//14
f 456//15 446//15 445//15
f 455//2 445//2 447//2
f 447//2 449//2 451//2
f 451//2 453//2 455//2
f 458//10 460//10 459//10
f 460//11 462//11 461//11
f 462//18 464//18 463//18
f 464//13 466//13 465//13
f 462//6 460//6 458//6
f 458//6 468//6 466//6
f 466//6 464//6 462//6
f 466//14 468//14 467//14
f 468//15 458//15 457//15
f 467//2 457//2 459//2
f 459//2 461//2 463//2
f 463//2 465//2 467//2
f 470//10 472//10 471//10
f 472//11 474//11 473//11
f 474//18 476//18 475//18
f 475//13 476//13 478//13
f 474//101 472//101 470//101
f 470//101 480//101 478//101
f 478//6 476//6 474//6
f 478//14 480//14 479//14
f 480//15 470//15 469//15
f 479//2 469//2 471//2
f 471//2 473//2 475//2
f 475//2 477//2 479//2
f 482//10 484//10 483//10
f 484//11 486//11 485//11
f 486//18 488//18 487//18
f 488//13 490//13 489//13
f 486//6 484//6 482//6
f 482//6 492//6 490//6
f 490//101 488//101 486//101
f 490//14 492//14 491//14
f 492//15 482//15 481//15
f 491//2 481//2 483//2
f 483//2 485//2 487//2
f 487//2 489//2 491//2
f 494//10 496//10 495//10
f 496//11 498//11 497//11
f 498//18 500//18 499//18
f 499//13 500//13 502//13
f 498//6 496//6 494//6
f 494//6 504//6 502//6
f 502//6 500//6 498//6
f 502//14 504//14 503//14
f 504//15 494//15 493//15
f 503//40 493//40 495//40
f 495//2 497//2 499//2
f 499//2 501//2 503//2
f 506//10 508//10 507//10
f 508//11 510//11 509//11
f 510//18 512//18 511//18
f 511//17 512//17 514//17
f 510//6 508//6 506//6
f 506//6 516//6 514//6
f 514//6 512//6 510//6
f 514//14 516//14 515//14
f 516//15 506//15 505//15
f 515//46 505//46 507//46
f 507//2 509//2 511//2
f 511//2 513//2 515//2
f 518//10 520//10 519//10
f 520//11 522//11 521//11
f 522//18 524//18 523//18
f 524//13 526//13 525//13
f 522//101 520//101 518//101
f 518//6 528//6 526//6
f 526//101 524//101 522//101
f 526//14 528//14 527//14
f 528//15 518//15 517//15
f 527//53 517//53 519//53
f 519//2 521//2 523//2
f 523//2 525//2 527//2
f 530//10 532//10 531//10
f 532//11 534//11 533//11
f 534//18 536//18 535//18
f 536//13 538//13 537//13
f 534//101 532//101 530//101
f 530//6 540//6 538//6
f 538//6 536//6 534//6
f 538//14 540//14 539//14
f 540//15 530//15 529//15
f 539//2 529//2 531//2
f 531//2 533//2 535//2
f 535//2 537//2 539//2
f 542//10 544//10 543//10
f 544//11 546//11 545//11
f 546//18 548//18 547//18
f 548//13 550//13 549//13
f 546//6 544//6 542//6
f 542//6 552//6 550//6
f 550//6 548//6 546//6
f 550//14 552//14 551//14
f 552//15 542//15 541//15
f 551//2 541//2 543//2
f 543//2 545//2 547//2
f 547//2 549//2 551//2
f 554//27 556//27 555//27
f 556//11 558//11 557//11
f 558//18 560//18 559//18
f 560//13 562//13 561//13
f 558//6 556//6 554//6
f 554//6 564//6 562//6
f 562//6 560//6 558//6
f 562//14 564//14 563//14
f 564//15 554//15 553//15
f 563//2 553//2 555//2
f 555//2 557//2 559//2
f 559//46 561//46 563//46
f 565//10 566//10 568//10
f 568//11 570//11 569//11
f 570//18 572//18 571//18
f 572//13 574//13 573//13
f 570//6 568//6 566//6
f 566//6 576//6 574//6
f 574//6 572//6 570//6
f 573//14 574//14 576//14
f 576//15 566//15 565//15
f 575//2 565//2 567//2
f 567//2 569//2 571//2
f 571//2 573//2 575//2
f 578//10 580//10 579//10
f 580//32 582//32 581//32
f 582//18 584//18 583//18
f 583//13 584//13 586//13
f 582//6 580//6 578//6
f 578//6 588//6 586//6
f 586//6 584//6 582//6
f 586//31 588//31 587//31
f 588//103 578//103 577//103
f 587//2 577//2 579//2
f 579//2 581//2 583//2
f 583//2 585//2 587//2
f 590//10 592//10 591//10
f 592//32 594//32 593//32
f 594//18 596//18 595//18
f 596//13 598//13 597//13
f 594//6 592//6 590//6
f 590//6 600//6 598//6
f 598//38 596//38 594//38
f 598//14 600//14 599//14
f 600//15 590//15 589//15
f 599//2 589//2 591//2
f 591//2 593//2 595//2
f 595//2 597//2 599//2
f 602//104 604//104 603//104
f 604//11 606//11 605//11
f 606//18 608//18 607//18
f 608//13 610//13 609//13
f 606//6 604//6 602//6
f 602//101 612//101 610//101
f 610//6 608//6 606//6
f 610//14 612//14 611//14
f 612//15 602//15 601//15
f 611//2 601//2 603//2
f 603//2 605//2 607//2
f 607//2 609//2 611//2
f 613//104 614//104 616//104
f 616//11 618//11 617//11
f 618//18 620//18 619//18
f 620//33 622//33 621//33
f 618//6 616//6 614//6
f 614//6 624//6 622//6
f 622//6 620//6 618//6
f 622//14 624//14 623//14
f 624//30 614//30 613//30
f 623//40 613//40 615//40
f 615//46 617//46 619//46
f 619//46 621//46 623//46
f 626//10 628//10 627//10
f 628//11 630//11 629//11
f 630//18 632//18 631//18
f 632//13 634//13 633//13
f 630//6 628//6 626//6
f 626//6 636//6 634//6
f 634//6 632//6 630//6
f 634//31 636//31 635//31
f 635//30 636//30 626//30
f 635//2 625//2 627//2
f 627//2 629//2 631//2
f 631//2 633//2 635//2
f 638//10 640//10 639//10
f 640//32 642//32 641//32
f 642//18 644//18 643//18
f 644//13 646//13 645//13
f 642//6 640//6 638//6
f 638//6 648//6 646//6
f 646//6 644//6 642//6
f 646//31 648//31 647//31
f 648//15 638//15 637//15
f 647//53 637//53 639//53
f 639//2 641//2 643//2
f 643//2 645//2 647//2
f 649//27 650//27 652//27
f 652//11 654//11 653//11
f 654//105 656//105 655//105
f 655//33 656//33 658//33
f 654//6 652//6 650//6
f 650//6 660//6 658//6
f 658//6 656//6 654//6
f 658//14 660//14 659//14
f 660//15 650//15 649//15
f 659//2 649//2 651//2
f 651//2 653//2 655//2
f 655//2 657//2 659//2
f 661//27 662//27 664//27
f 664//32 666//32 665//32
f 666//18 668//18 667//18
f 668//13 670//13 669//13
f 666//6 664//6 662//6
f 662//101 672//101 670//101
f 670//6 668//6 666//6
f 670//14 672//14 671//14
f 672//15 662//15 661//15
f 671//53 661//53 663//53
f 663//2 665//2 667//2
f 667//2 669//2 671//2
f 674//104 676//104 675//104
f 676//32 678//32 677//32
f 678//18 680//18 679//18
f 680//13 682//13 681//13
f 678//6 676//6 674//6
f 674//6 684//6 682//6
f 682//6 680//6 678//6
f 682//31 684//31 683//31
f 684//103 674//103 673//103
f 683//2 673//2 675//2
f 675//2 677//2 679//2
f 679//2 681//2 683//2
f 686//10 688//10 687//10
f 688//32 690//32 689//32
f 690//105 692//105 691//105
f 692//13 694//13 693//13
f 690//6 688//6 686//6
f 686//6 696//6 694//6
f 694//45 692//45 690//45
f 694//14 696//14 695//14
f 696//15 686//15 685//15
f 695//2 685//2 687//2
f 687//2 689//2 691//2
f 691//2 693//2 695//2
f 698//10 700//10 699//10
f 700//32 702//32 701//32
f 702//18 704//18 703//18
f 704//13 706//13 705//13
f 702//101 700//101 698//101
f 698//6 708//6 706//6
f 706//6 704//6 702//6
f 706//14 708//14 707//14
f 707//15 708//15 698//15
f 707//2 697//2 699//2
f 699//46 701//46 703//46
f 703//2 705//2 707//2
f 710//104 712//104 711//104
f 712//11 714//11 713//11
f 714//18 716//18 715//18
f 716//13 718//13 717//13
f 714//6 712//6 710//6
f 710//6 720//6 718//6
f 718//6 716//6 714//6
f 718//31 720//31 719//31
f 720//15 710//15 709//15
f 719//2 709//2 711//2
f 711//2 713//2 715//2
f 715//2 717//2 719//2
f 722//48 724//48 723//48
f 724//11 726//11 725//11
f 726//20 728//20 727//20
f 728//44 730//44 729//44
f 726//6 724//6 722//6
f 722//6 732//6 730//6
f 730//6 728//6 726//6
f 730//42 732//42 731//42
f 732//26 722//26 721//26
f 731//2 721//2 723//2
f 723//2 725//2 727//2
f 727//2 729//2 731//2
f 734//22 736//22 735//22
f 736//36 738//36 737//36
f 738//37 740//37 739//37
f 739//44 740//44 742//44
f 738//101 736//101 734//101
f 734//6 744//6 742//6
f 742//45 740//45 738//45
f 742//14 744//14 743//14
f 744//39 734//39 733//39
f 743//106 733//106 735//106
f 735//2 737//2 739//2
f 739//2 741//2 743//2
f 746//22 748//22 747//22
f 748//11 750//11 749//11
f 750//37 752//37 751//37
f 752//23 754//23 753//23
f 750//6 748//6 746//6
f 746//6 756//6 754//6
f 754//45 752//45 750//45
f 754//42 756//42 755//42
f 756//39 746//39 745//39
f 755//53 745//53 747//53
f 747//2 749//2 751//2
f 751//2 753//2 755//2
f 758//48 760//48 759//48
f 760//11 762//11 761//11
f 762//20 764//20 763//20
f 764//55 766//55 765//55
f 762//6 760//6 758//6
f 758//6 768//6 766//6
f 766//107 764//107 762//107
f 766//14 768//14 767//14
f 767//56 768//56 758//56
f 767//2 757//2 759//2
f 759//2 761//2 763//2
f 763//2 765//2 767//2
f 770//47 772//47 771//47
f 772//11 774//11 773//11
f 774//37 776//37 775//37
f 776//23 778//23 777//23
f 774//6 772//6 770//6
f 770//6 780//6 778//6
f 778//108 776//108 774//108
f 778//42 780//42 779//42
f 780//39 770//39 769//39
f 779//2 769//2 771//2
f 771//2 773//2 775//2
f 775//2 777//2 779//2
f 782//22 784//22 783//22
f 784//36 786//36 785//36
f 786//37 788//37 787//37
f 788//58 790//58 789//58
f 786//6 784//6 782//6
f 782//45 792//45 790//45
f 790//6 788//6 786//6
f 790//14 792//14 791//14
f 792//39 782//39 781//39
f 791//2 781//2 783//2
f 783//2 785//2 787//2
f 787//2 789//2 791//2
f 794//22 796//22 795//22
f 796//11 798//11 797//11
f 798//20 800//20 799//20
f 800//44 802//44 801//44
f 798//6 796//6 794//6
f 794//6 804//6 802//6
f 802//6 800//6 798//6
f 802//14 804//14 803//14
f 804//39 794//39 793//39
f 803//109 793//109 795//109
f 795//2 797//2 799//2
f 799//2 801//2 803//2
f 806//22 808//22 807//22
f 808//11 810//11 809//11
f 810//37 812//37 811//37
f 812//23 814//23 813//23
f 810//6 808//6 806//6
f 806//6 816//6 814//6
f 814//108 812//108 810//108
f 814//14 816//14 815//14
f 816//110 806//110 805//110
f 815//106 805//106 807//106
f 807//53 809//53 811//53
f 811//53 813//53 815//53
f 818//47 820//47 819//47
f 820//11 822//11 821//11
f 822//37 824//37 823//37
f 824//23 826//23 825//23
f 822//6 820//6 818//6
f 818//6 828//6 826//6
f 826//6 824//6 822//6
f 826//14 828//14 827//14
f 828//26 818//26 817//26
f 827//106 817//106 819//106
f 819//2 821//2 823//2
f 823//2 825//2 827//2
f 830//22 832//22 831//22
f 832//11 834//11 833//11
f 834//37 836//37 835//37
f 835//61 836//61 838//61
f 834//6 832//6 830//6
f 830//6 840//6 838//6
f 838//6 836//6 834//6
f 838//14 840//14 839//14
f 840//52 830//52 829//52
f 839//40 829//40 831//40
f 831//2 833//2 835//2
f 835//2 837//2 839//2
f 842//48 844//48 843//48
f 844//36 846//36 845//36
f 846//20 848//20 847//20
f 848//44 850//44 849//44
f 846//45 844//45 842//45
f 842//45 852//45 850//45
f 850//6 848//6 846//6
f 850//14 852//14 851//14
f 852//39 842//39 841//39
f 851//111 841//111 843//111
f 843//2 845//2 847//2
f 847//2 849//2 851//2
f 854//22 856//22 855//22
f 856//11 858//11 857//11
f 858//37 860//37 859//37
f 860//23 862//23 861//23
f 858//6 856//6 854//6
f 854//6 864//6 862//6
f 862//6 860//6 858//6
f 862//42 864//42 863//42
f 863//43 864//43 854//43
f 863//53 853//53 855//53
f 855//2 857//2 859//2
f 859//2 861//2 863//2
f 866//48 868//48 867//48
f 868//11 870//11 869//11
f 870//20 872//20 871//20
f 872//55 874//55 873//55
f 870//6 868//6 866//6
f 866//6 876//6 874//6
f 874//6 872//6 870//6
f 874//14 876//14 875//14
f 875//56 876//56 866//56
f 875//2 865//2 867//2
f 867//53 869//53 871//53
f 871//2 873//2 875//2
f 878//48 880//48 879//48
f 880//11 882//11 881//11
f 882//20 884//20 883//20
f 884//44 886//44 885//44
f 882//45 880//45 878//45
f 878//45 888//45 886//45
f 886//6 884//6 882//6
f 886//14 888//14 887//14
f 888//52 878//52 877//52
f 887//2 877//2 879//2
f 879//2 881//2 883//2
f 883//2 885//2 887//2
f 890//22 892//22 891//22
f 892//11 894//11 893//11
f 894//112 896//112 895//112
f 896//23 898//23 897//23
f 894//6 892//6 890//6
f 890//6 900//6 898//6
f 898//6 896//6 894//6
f 898//14 900//14 899//14
f 900//39 890//39 889//39
f 899//106 889//106 891//106
f 891//2 893//2 895//2
f 895//2 897//2 899//2
f 902//113 904//113 903//113
f 904//11 906//11 905//11
f 906//20 908//20 907//20
f 907//50 908//50 910//50
f 906//6 904//6 902//6
f 902//6 912//6 910//6
f 910//6 908//6 906//6
f 910//14 912//14 911//14
f 912//52 902//52 901//52
f 911//40 901//40 903//40
f 903//2 905//2 907//2
f 907//53 909//53 911//53
f 914//113 916//113 915//113
f 916//11 918//11 917//11
f 918//20 920//20 919//20
f 920//44 922//44 921//44
f 918//45 916//45 914//45
f 914//45 924//45 922//45
f 922//6 920//6 918//6
f 922//14 924//14 923//14
f 923//43 924//43 914//43
f 923//111 913//111 915//111
f 915//2 917//2 919//2
f 919//2 921//2 923//2
f 926//47 928//47 927//47
f 928//11 930//11 929//11
f 930//37 932//37 931//37
f 932//23 934//23 933//23
f 930//6 928//6 926//6
f 926//6 936//6 934//6
f 934//45 932//45 930//45
f 934//42 936//42 935//42
f 936//39 926//39 925//39
f 935//106 925//106 927//106
f 927//53 929//53 931//53
f 931//53 933//53 935//53
f 938//48 940//48 939//48
f 940//11 942//11 941//11
f 942//20 944//20 943//20
f 944//44 946//44 945//44
f 942//6 940//6 938//6
f 938//6 948//6 946//6
f 946//6 944//6 942//6
f 946//14 948//14 947//14
f 948//26 938//26 937//26
f 947//2 937//2 939//2
f 939//2 941//2 943//2
f 943//2 945//2 947//2
usemtl hatch_yellow
f 26//1 27//1 25//1
f 27//2 30//2 29//2
f 30//3 31//3 29//3
f 31//4 34//4 33//4
f 26//9 34//9 30//9
f 34//6 35//6 33//6
f 35//7 26//7 25//7
f 27//8 31//8 35//8
f 26//1 28//1 27//1
f 27//2 28//2 30//2
f 30//3 32//3 31//3
f 31//4 32//4 34//4
f 30//99 28//99 26//99
f 26//100 36//100 34//100
f 34//99 32//99 30//99
f 34//6 36//6 35//6
f 35//7 36//7 26//7
f 35//8 25//8 27//8
f 27//8 29//8 31//8
f 31//8 33//8 35//8
usemtl cable_black
f 950//62 951//62 949//62
f 952//63 953//63 951//63
f 954//64 955//64 953//64
f 955//65 958//65 957//65
f 958//66 959//66 957//66
f 959//67 962//67 961//67
f 962//68 958//68 954//68
f 962//69 963//69 961//69
f 964//70 949//70 963//70
f 955//71 959//71 963//71
f 966//72 967//72 965//72
f 968//73 969//73 967//73
f 970//74 971//74 969//74
f 971//75 974//75 973//75
f 974//76 975//76 973//76
f 975//77 978//77 977//77
f 978//78 974//78 970//78
f 977//79 980//79 979//79
f 980//80 965//80 979//80
f 971//81 975//81 979//81
f 982//82 983//82 981//82
f 983//83 986//83 985//83
f 985//84 988//84 987//84
f 988//85 989//85 987//85
f 989//86 992//86 991//86
f 991//87 994//87 993//87
f 994//88 990//88 986//88
f 993//89 996//89 995//89
f 996//90 981//90 995//90
f 987//91 991//91 995//91
f 950//62 952//62 951//62
f 952//63 954//63 953//63
f 954//64 956//64 955//64
f 955//114 956//114 958//114
f 958//66 960//66 959//66
f 959//67 960//67 962//67
f 954//115 952//115 950//115
f 950//116 964//116 962//116
f 962//115 960//115 958//115
f 958//116 956//116 954//116
f 954//68 950//68 962//68
f 962//69 964//69 963//69
f 964//117 950//117 949//117
f 963//118 949//118 951//118
f 951//71 953//71 955//71
f 955//118 957//118 959//118
f 959//71 961//71 963//71
f 963//71 951//71 955//71
f 966//119 968//119 967//119
f 968//73 970//73 969//73
f 970//74 972//74 971//74
f 971//75 972//75 974//75
f 974//120 976//120 975//120
f 975//77 976//77 978//77
f 970//78 968//78 966//78
f 966//121 980//121 978//121
f 978//122 976//122 974//122
f 974//123 972//123 970//123
f 970//124 966//124 978//124
f 977//79 978//79 980//79
f 980//80 966//80 965//80
f 979//81 965//81 967//81
f 967//81 969//81 971//81
f 971//81 973//81 975//81
f 975//81 977//81 979//81
f 979//81 967//81 971//81
f 982//125 984//125 983//125
f 983//83 984//83 986//83
f 985//84 986//84 988//84
f 988//85 990//85 989//85
f 989//126 990//126 992//126
f 991//87 992//87 994//87
f 986//88 984//88 982//88
f 982//127 996//127 994//127
f 994//88 992//88 990//88
f 990//127 988//127 986//127
f 986//128 982//128 994//128
f 993//89 994//89 996//89
f 996//90 982//90 981//90
f 995//129 981//129 983//129
f 983//91 985//91 987//91
f 987//129 989//129 991//129
f 991//91 993//91 995//91
f 995//91 983//91 987//91
usemtl lamp
f 998//92 999//92 997//92
f 1000//93 1003//93 999//93
f 1004//94 1001//94 1003//94
f 1002//95 997//95 1001//95
f 1003//96 997//96 999//96
f 1000//97 1002//97 1004//97
f 998//92 1000//92 999//92
f 1000//93 1004//93 1003//93
f 1004//94 1002//94 1001//94
f 1002//95 998//95 997//95
f 1003//96 1001//96 997//96
f 1000//97 998//97 1002//97
