# Blender 5.2.2 LTS
# www.blender.org
mtllib ladder_1.mtl
o ladder_1
v -2.038324 -1.720216 0.100022
v -2.022061 -1.703774 21.560020
v -2.043501 -1.700897 0.100011
v -2.027237 -1.684455 21.560009
v -2.029359 -1.686755 0.099990
v -2.013095 -1.670313 21.559990
v -2.010040 -1.691931 0.099978
v -1.993777 -1.675489 21.559978
v -2.004864 -1.711250 0.099990
v -1.988600 -1.694808 21.559990
v -2.019006 -1.725392 0.100011
v -2.002743 -1.708950 21.560009
v -1.720126 -2.038414 0.100022
v -1.703863 -2.021972 21.560020
v -1.725303 -2.019095 0.100011
v -1.709039 -2.002653 21.560009
v -1.711161 -2.004953 0.099990
v -1.694897 -1.988511 21.559990
v -1.691842 -2.010129 0.099978
v -1.675579 -1.993688 21.559978
v -1.686666 -2.029448 0.099990
v -1.670402 -2.013006 21.559990
v -1.700808 -2.043590 0.100011
v -1.684544 -2.027148 21.560009
v -1.873569 -1.873658 0.100014
v -1.857305 -1.857216 21.560013
v -1.876674 -1.862067 0.100007
v -1.860411 -1.845625 21.560005
v -1.868189 -1.853581 0.099994
v -1.851926 -1.837140 21.559994
v -1.856598 -1.856687 0.099987
v -1.840335 -1.840245 21.559986
v -1.853492 -1.868278 0.099994
v -1.837229 -1.851837 21.559994
v -1.861977 -1.876764 0.100007
v -1.845714 -1.860322 21.560005
v -2.024075 -1.705877 0.212000
v -1.705877 -2.024075 0.212000
v -2.016726 -1.698529 0.206000
v -1.698529 -2.016726 0.206000
v -2.016726 -1.698529 0.194000
v -1.698529 -2.016726 0.194000
v -2.024075 -1.705877 0.188000
v -1.705877 -2.024075 0.188000
v -2.031424 -1.713225 0.194000
v -1.713226 -2.031424 0.194000
v -2.031424 -1.713225 0.206000
v -1.713226 -2.031424 0.206000
v -2.023525 -1.705327 0.492000
v -1.705327 -2.023525 0.492000
v -2.016176 -1.697979 0.486000
v -1.697979 -2.016176 0.486000
v -2.016176 -1.697979 0.474000
v -1.697979 -2.016176 0.474000
v -2.023525 -1.705327 0.468000
v -1.705327 -2.023525 0.468000
v -2.030874 -1.712675 0.474000
v -1.712676 -2.030874 0.474000
v -2.030874 -1.712675 0.486000
v -1.712676 -2.030874 0.486000
v -2.022975 -1.704777 0.772000
v -1.704777 -2.022975 0.772000
v -2.015627 -1.697429 0.766000
v -1.697429 -2.015627 0.766000
v -2.015627 -1.697429 0.754000
v -1.697429 -2.015627 0.754000
v -2.022975 -1.704777 0.748000
v -1.704777 -2.022975 0.748000
v -2.030324 -1.712126 0.754000
v -1.712126 -2.030324 0.754000
v -2.030324 -1.712126 0.766000
v -1.712126 -2.030324 0.766000
v -2.022425 -1.704227 1.052000
v -1.704227 -2.022425 1.052000
v -2.015077 -1.696879 1.046000
v -1.696879 -2.015077 1.046000
v -2.015077 -1.696879 1.034000
v -1.696879 -2.015077 1.034000
v -2.022425 -1.704227 1.028000
v -1.704227 -2.022425 1.028000
v -2.029773 -1.711576 1.034000
v -1.711576 -2.029773 1.034000
v -2.029773 -1.711576 1.046000
v -1.711576 -2.029773 1.046000
v -2.021875 -1.703677 1.332000
v -1.703677 -2.021875 1.332000
v -2.014527 -1.696329 1.326000
v -1.696329 -2.014527 1.326000
v -2.014527 -1.696329 1.314000
v -1.696329 -2.014527 1.314000
v -2.021875 -1.703677 1.308000
v -1.703677 -2.021875 1.308000
v -2.029224 -1.711026 1.314000
v -1.711026 -2.029224 1.314000
v -2.029224 -1.711026 1.326000
v -1.711026 -2.029224 1.326000
v -2.021325 -1.703127 1.612000
v -1.703127 -2.021325 1.612000
v -2.013977 -1.695779 1.606000
v -1.695779 -2.013977 1.606000
v -2.013977 -1.695779 1.594000
v -1.695779 -2.013977 1.594000
v -2.021325 -1.703127 1.588000
v -1.703127 -2.021325 1.588000
v -2.028674 -1.710476 1.594000
v -1.710476 -2.028674 1.594000
v -2.028674 -1.710476 1.606000
v -1.710476 -2.028674 1.606000
v -2.020775 -1.702577 1.892000
v -1.702577 -2.020775 1.892000
v -2.013427 -1.695229 1.886000
v -1.695229 -2.013427 1.886000
v -2.013427 -1.695229 1.874000
v -1.695229 -2.013427 1.874000
v -2.020775 -1.702577 1.868000
v -1.702577 -2.020775 1.868000
v -2.028124 -1.709926 1.874000
v -1.709926 -2.028124 1.874000
v -2.028124 -1.709926 1.886000
v -1.709926 -2.028124 1.886000
v -2.020225 -1.702027 2.172000
v -1.702027 -2.020225 2.172000
v -2.012877 -1.694679 2.166000
v -1.694679 -2.012877 2.166000
v -2.012877 -1.694679 2.154000
v -1.694679 -2.012877 2.154000
v -2.020225 -1.702027 2.148000
v -1.702027 -2.020225 2.148000
v -2.027574 -1.709376 2.154000
v -1.709376 -2.027574 2.154000
v -2.027574 -1.709376 2.166000
v -1.709376 -2.027574 2.166000
v -2.019675 -1.701477 2.452000
v -1.701477 -2.019675 2.452000
v -2.012327 -1.694129 2.446000
v -1.694129 -2.012327 2.446000
v -2.012327 -1.694129 2.434000
v -1.694129 -2.012327 2.434000
v -2.019675 -1.701477 2.428000
v -1.701477 -2.019675 2.428000
v -2.027024 -1.708826 2.434000
v -1.708826 -2.027024 2.434000
v -2.027024 -1.708826 2.446000
v -1.708826 -2.027024 2.446000
v -2.019125 -1.700927 2.732000
v -1.700927 -2.019125 2.732000
v -2.011777 -1.693579 2.726000
v -1.693579 -2.011777 2.726000
v -2.011777 -1.693579 2.714000
v -1.693579 -2.011777 2.714000
v -2.019125 -1.700927 2.708000
v -1.700927 -2.019125 2.708000
v -2.026474 -1.708276 2.714000
v -1.708276 -2.026474 2.714000
v -2.026474 -1.708276 2.726000
v -1.708276 -2.026474 2.726000
v -2.018575 -1.700377 3.012000
v -1.700377 -2.018575 3.012000
v -2.011227 -1.693029 3.006000
v -1.693029 -2.011227 3.006000
v -2.011227 -1.693029 2.994000
v -1.693029 -2.011227 2.994000
v -2.018575 -1.700377 2.988000
v -1.700377 -2.018575 2.988000
v -2.025924 -1.707726 2.994000
v -1.707726 -2.025924 2.994000
v -2.025924 -1.707726 3.006000
v -1.707726 -2.025924 3.006000
v -2.018025 -1.699827 3.292000
v -1.699827 -2.018025 3.292000
v -2.010677 -1.692479 3.286000
v -1.692479 -2.010677 3.286000
v -2.010677 -1.692479 3.274000
v -1.692479 -2.010677 3.274000
v -2.018025 -1.699827 3.268000
v -1.699827 -2.018025 3.268000
v -2.025374 -1.707176 3.274000
v -1.707176 -2.025374 3.274000
v -2.025374 -1.707176 3.286000
v -1.707176 -2.025374 3.286000
v -2.017475 -1.699277 3.572000
v -1.699277 -2.017475 3.572000
v -2.010127 -1.691929 3.566000
v -1.691929 -2.010127 3.566000
v -2.010127 -1.691929 3.554000
v -1.691929 -2.010127 3.554000
v -2.017475 -1.699277 3.548000
v -1.699277 -2.017475 3.548000
v -2.024824 -1.706626 3.554000
v -1.706626 -2.024824 3.554000
v -2.024824 -1.706626 3.566000
v -1.706626 -2.024824 3.566000
v -2.016926 -1.698727 3.852000
v -1.698727 -2.016926 3.852000
v -2.009577 -1.691379 3.846000
v -1.691379 -2.009577 3.846000
v -2.009577 -1.691379 3.834000
v -1.691379 -2.009577 3.834000
v -2.016926 -1.698727 3.828000
v -1.698727 -2.016926 3.828000
v -2.024274 -1.706076 3.834000
v -1.706076 -2.024274 3.834000
v -2.024274 -1.706076 3.846000
v -1.706076 -2.024274 3.846000
v -2.016376 -1.698177 4.132000
v -1.698177 -2.016376 4.132000
v -2.009027 -1.690829 4.126000
v -1.690829 -2.009027 4.126000
v -2.009027 -1.690829 4.114000
v -1.690829 -2.009027 4.114000
v -2.016376 -1.698177 4.108000
v -1.698177 -2.016376 4.108000
v -2.023724 -1.705526 4.114000
v -1.705526 -2.023724 4.114000
v -2.023724 -1.705526 4.126000
v -1.705526 -2.023724 4.126000
v -2.015826 -1.697627 4.412000
v -1.697627 -2.015826 4.412000
v -2.008477 -1.690279 4.406000
v -1.690279 -2.008477 4.406000
v -2.008477 -1.690279 4.394000
v -1.690279 -2.008477 4.394000
v -2.015826 -1.697627 4.388000
v -1.697627 -2.015826 4.388000
v -2.023174 -1.704976 4.394000
v -1.704976 -2.023174 4.394000
v -2.023174 -1.704976 4.406000
v -1.704976 -2.023174 4.406000
v -2.015275 -1.697078 4.692000
v -1.697078 -2.015275 4.692000
v -2.007927 -1.689729 4.686000
v -1.689729 -2.007927 4.686000
v -2.007927 -1.689729 4.674000
v -1.689729 -2.007927 4.674000
v -2.015275 -1.697078 4.668000
v -1.697078 -2.015275 4.668000
v -2.022624 -1.704426 4.674000
v -1.704426 -2.022624 4.674000
v -2.022624 -1.704426 4.686000
v -1.704426 -2.022624 4.686000
v -2.014726 -1.696527 4.972000
v -1.696527 -2.014726 4.972000
v -2.007377 -1.689179 4.966000
v -1.689179 -2.007377 4.966000
v -2.007377 -1.689179 4.954000
v -1.689179 -2.007377 4.954000
v -2.014726 -1.696527 4.948000
v -1.696527 -2.014726 4.948000
v -2.022074 -1.703876 4.954000
v -1.703876 -2.022074 4.954000
v -2.022074 -1.703876 4.966000
v -1.703876 -2.022074 4.966000
v -2.014176 -1.695977 5.252000
v -1.695977 -2.014176 5.252000
v -2.006827 -1.688629 5.246000
v -1.688629 -2.006827 5.246000
v -2.006827 -1.688629 5.234000
v -1.688629 -2.006827 5.234000
v -2.014176 -1.695977 5.228000
v -1.695977 -2.014176 5.228000
v -2.021524 -1.703326 5.234000
v -1.703326 -2.021524 5.234000
v -2.021524 -1.703326 5.246000
v -1.703326 -2.021524 5.246000
v -2.013626 -1.695427 5.532000
v -1.695427 -2.013626 5.532000
v -2.006277 -1.688079 5.526000
v -1.688079 -2.006277 5.526000
v -2.006277 -1.688079 5.514000
v -1.688079 -2.006277 5.514000
v -2.013626 -1.695427 5.508000
v -1.695427 -2.013626 5.508000
v -2.020974 -1.702776 5.514000
v -1.702776 -2.020974 5.514000
v -2.020974 -1.702776 5.526000
v -1.702776 -2.020974 5.526000
v -2.013076 -1.694878 5.812000
v -1.694878 -2.013076 5.812000
v -2.005727 -1.687529 5.806000
v -1.687529 -2.005727 5.806000
v -2.005727 -1.687529 5.794000
v -1.687529 -2.005727 5.794000
v -2.013076 -1.694878 5.788000
v -1.694878 -2.013076 5.788000
v -2.020424 -1.702226 5.794000
v -1.702226 -2.020424 5.794000
v -2.020424 -1.702226 5.806000
v -1.702226 -2.020424 5.806000
v -2.012526 -1.694328 6.092000
v -1.694328 -2.012526 6.092000
v -2.005177 -1.686979 6.086000
v -1.686979 -2.005177 6.086000
v -2.005177 -1.686979 6.074000
v -1.686979 -2.005177 6.074000
v -2.012526 -1.694328 6.068000
v -1.694328 -2.012526 6.068000
v -2.019874 -1.701676 6.074000
v -1.701676 -2.019874 6.074000
v -2.019874 -1.701676 6.086000
v -1.701676 -2.019874 6.086000
v -2.011976 -1.693778 6.372000
v -1.693778 -2.011976 6.372000
v -2.004627 -1.686429 6.366000
v -1.686429 -2.004627 6.366000
v -2.004627 -1.686429 6.354000
v -1.686429 -2.004627 6.354000
v -2.011976 -1.693778 6.348000
v -1.693778 -2.011976 6.348000
v -2.019324 -1.701126 6.354000
v -1.701126 -2.019324 6.354000
v -2.019324 -1.701126 6.366000
v -1.701126 -2.019324 6.366000
v -2.011426 -1.693228 6.652000
v -1.693228 -2.011426 6.652000
v -2.004077 -1.685879 6.646000
v -1.685879 -2.004077 6.646000
v -2.004077 -1.685879 6.634000
v -1.685879 -2.004077 6.634000
v -2.011426 -1.693228 6.628000
v -1.693228 -2.011426 6.628000
v -2.018774 -1.700576 6.634000
v -1.700576 -2.018774 6.634000
v -2.018774 -1.700576 6.646000
v -1.700576 -2.018774 6.646000
v -2.010876 -1.692678 6.932000
v -1.692678 -2.010876 6.932000
v -2.003527 -1.685329 6.926000
v -1.685329 -2.003527 6.926000
v -2.003527 -1.685329 6.914000
v -1.685329 -2.003527 6.914000
v -2.010876 -1.692678 6.908000
v -1.692678 -2.010876 6.908000
v -2.018224 -1.700026 6.914000
v -1.700026 -2.018224 6.914000
v -2.018224 -1.700026 6.926000
v -1.700026 -2.018224 6.926000
v -2.010326 -1.692128 7.212000
v -1.692128 -2.010326 7.212000
v -2.002977 -1.684779 7.206000
v -1.684779 -2.002977 7.206000
v -2.002977 -1.684779 7.194000
v -1.684779 -2.002977 7.194000
v -2.010326 -1.692128 7.188000
v -1.692128 -2.010326 7.188000
v -2.017674 -1.699476 7.194000
v -1.699476 -2.017674 7.194000
v -2.017674 -1.699476 7.206000
v -1.699476 -2.017674 7.206000
v -2.009776 -1.691578 7.492000
v -1.691578 -2.009776 7.492000
v -2.002427 -1.684229 7.486000
v -1.684229 -2.002427 7.486000
v -2.002427 -1.684229 7.474000
v -1.684229 -2.002427 7.474000
v -2.009776 -1.691578 7.468000
v -1.691578 -2.009776 7.468000
v -2.017124 -1.698926 7.474000
v -1.698926 -2.017124 7.474000
v -2.017124 -1.698926 7.486000
v -1.698926 -2.017124 7.486000
v -2.009226 -1.691028 7.772000
v -1.691028 -2.009226 7.772000
v -2.001877 -1.683679 7.766000
v -1.683679 -2.001877 7.766000
v -2.001877 -1.683679 7.754000
v -1.683679 -2.001877 7.754000
v -2.009226 -1.691028 7.748000
v -1.691028 -2.009226 7.748000
v -2.016574 -1.698376 7.754000
v -1.698376 -2.016574 7.754000
v -2.016574 -1.698376 7.766000
v -1.698376 -2.016574 7.766000
v -2.008676 -1.690478 8.052000
v -1.690478 -2.008676 8.052000
v -2.001327 -1.683129 8.046000
v -1.683129 -2.001327 8.046000
v -2.001327 -1.683129 8.034000
v -1.683129 -2.001327 8.034000
v -2.008676 -1.690478 8.028000
v -1.690478 -2.008676 8.028000
v -2.016024 -1.697826 8.034000
v -1.697826 -2.016024 8.034000
v -2.016024 -1.697826 8.046000
v -1.697826 -2.016024 8.046000
v -2.008126 -1.689928 8.332000
v -1.689928 -2.008126 8.332000
v -2.000777 -1.682579 8.325999
v -1.682579 -2.000777 8.325999
v -2.000777 -1.682579 8.314000
v -1.682579 -2.000777 8.314000
v -2.008126 -1.689928 8.308000
v -1.689928 -2.008126 8.308000
v -2.015475 -1.697276 8.314000
v -1.697276 -2.015475 8.314000
v -2.015475 -1.697276 8.325999
v -1.697276 -2.015475 8.325999
v -2.007576 -1.689378 8.612000
v -1.689378 -2.007576 8.612000
v -2.000227 -1.682029 8.606000
v -1.682029 -2.000227 8.606000
v -2.000227 -1.682029 8.594001
v -1.682029 -2.000227 8.594001
v -2.007576 -1.689378 8.588000
v -1.689378 -2.007576 8.588000
v -2.014924 -1.696726 8.594001
v -1.696726 -2.014924 8.594001
v -2.014924 -1.696726 8.606000
v -1.696726 -2.014924 8.606000
v -2.007026 -1.688828 8.892000
v -1.688828 -2.007026 8.892000
v -1.999677 -1.681479 8.886000
v -1.681479 -1.999677 8.886000
v -1.999677 -1.681479 8.874001
v -1.681479 -1.999677 8.874001
v -2.007026 -1.688828 8.868000
v -1.688828 -2.007026 8.868000
v -2.014374 -1.696176 8.874001
v -1.696176 -2.014374 8.874001
v -2.014374 -1.696176 8.886000
v -1.696176 -2.014374 8.886000
v -2.006476 -1.688278 9.172000
v -1.688278 -2.006476 9.172000
v -1.999127 -1.680930 9.165999
v -1.680930 -1.999128 9.165999
v -1.999127 -1.680930 9.154000
v -1.680930 -1.999128 9.154000
v -2.006476 -1.688278 9.148000
v -1.688278 -2.006476 9.148000
v -2.013824 -1.695626 9.154000
v -1.695626 -2.013824 9.154000
v -2.013824 -1.695626 9.165999
v -1.695626 -2.013824 9.165999
v -2.005926 -1.687728 9.452000
v -1.687728 -2.005926 9.452000
v -1.998578 -1.680380 9.445999
v -1.680380 -1.998578 9.445999
v -1.998578 -1.680380 9.434000
v -1.680380 -1.998578 9.434000
v -2.005926 -1.687728 9.427999
v -1.687728 -2.005926 9.427999
v -2.013275 -1.695076 9.434000
v -1.695076 -2.013275 9.434000
v -2.013275 -1.695076 9.445999
v -1.695076 -2.013275 9.445999
v -2.005376 -1.687178 9.732000
v -1.687178 -2.005376 9.732000
v -1.998028 -1.679829 9.726000
v -1.679829 -1.998028 9.726000
v -1.998028 -1.679829 9.714001
v -1.679829 -1.998028 9.714001
v -2.005376 -1.687178 9.708000
v -1.687178 -2.005376 9.708000
v -2.012724 -1.694526 9.714001
v -1.694526 -2.012724 9.714001
v -2.012724 -1.694526 9.726000
v -1.694526 -2.012724 9.726000
v -2.004826 -1.686628 10.012000
v -1.686628 -2.004826 10.012000
v -1.997478 -1.679279 10.006000
v -1.679279 -1.997478 10.006000
v -1.997478 -1.679279 9.994000
v -1.679279 -1.997478 9.994000
v -2.004826 -1.686628 9.988000
v -1.686628 -2.004826 9.988000
v -2.012174 -1.693976 9.994000
v -1.693976 -2.012174 9.994000
v -2.012174 -1.693976 10.006000
v -1.693976 -2.012174 10.006000
v -2.004276 -1.686078 10.292000
v -1.686078 -2.004276 10.292000
v -1.996927 -1.678730 10.285999
v -1.678730 -1.996928 10.285999
v -1.996927 -1.678730 10.274000
v -1.678730 -1.996928 10.274000
v -2.004276 -1.686078 10.268000
v -1.686078 -2.004276 10.268000
v -2.011625 -1.693426 10.274000
v -1.693427 -2.011625 10.274000
v -2.011625 -1.693426 10.285999
v -1.693427 -2.011625 10.285999
v -2.003726 -1.685528 10.572001
v -1.685528 -2.003726 10.572001
v -1.996378 -1.678180 10.566000
v -1.678180 -1.996378 10.566000
v -1.996378 -1.678180 10.554001
v -1.678180 -1.996378 10.554001
v -2.003726 -1.685528 10.548000
v -1.685528 -2.003726 10.548000
v -2.011075 -1.692876 10.554001
v -1.692877 -2.011075 10.554001
v -2.011075 -1.692876 10.566000
v -1.692877 -2.011075 10.566000
v -2.003272 -1.685074 10.852000
v -1.685074 -2.003272 10.852000
v -1.995923 -1.677725 10.846000
v -1.677725 -1.995923 10.846000
v -1.995923 -1.677725 10.834001
v -1.677725 -1.995923 10.834001
v -2.003272 -1.685074 10.828000
v -1.685074 -2.003272 10.828000
v -2.010620 -1.692422 10.834001
v -1.692422 -2.010620 10.834001
v -2.010620 -1.692422 10.846000
v -1.692422 -2.010620 10.846000
v -2.003391 -1.685193 11.132000
v -1.685193 -2.003391 11.132000
v -1.996042 -1.677844 11.125999
v -1.677844 -1.996042 11.125999
v -1.996042 -1.677844 11.114000
v -1.677844 -1.996042 11.114000
v -2.003391 -1.685193 11.108000
v -1.685193 -2.003391 11.108000
v -2.010739 -1.692541 11.114000
v -1.692541 -2.010739 11.114000
v -2.010739 -1.692541 11.125999
v -1.692541 -2.010739 11.125999
v -2.003510 -1.685312 11.412000
v -1.685312 -2.003510 11.412000
v -1.996161 -1.677963 11.405999
v -1.677963 -1.996161 11.405999
v -1.996161 -1.677963 11.394000
v -1.677963 -1.996161 11.394000
v -2.003510 -1.685312 11.388000
v -1.685312 -2.003510 11.388000
v -2.010858 -1.692660 11.394000
v -1.692660 -2.010858 11.394000
v -2.010858 -1.692660 11.405999
v -1.692660 -2.010858 11.405999
v -2.003629 -1.685431 11.692000
v -1.685431 -2.003629 11.692000
v -1.996280 -1.678082 11.686000
v -1.678082 -1.996280 11.686000
v -1.996280 -1.678082 11.674001
v -1.678082 -1.996280 11.674001
v -2.003629 -1.685431 11.668000
v -1.685431 -2.003629 11.668000
v -2.010977 -1.692779 11.674001
v -1.692779 -2.010977 11.674001
v -2.010977 -1.692779 11.686000
v -1.692779 -2.010977 11.686000
v -2.003748 -1.685550 11.972000
v -1.685550 -2.003748 11.972000
v -1.996399 -1.678201 11.966000
v -1.678201 -1.996399 11.966000
v -1.996399 -1.678201 11.954000
v -1.678201 -1.996399 11.954000
v -2.003748 -1.685550 11.948000
v -1.685550 -2.003748 11.948000
v -2.011096 -1.692898 11.954000
v -1.692898 -2.011096 11.954000
v -2.011096 -1.692898 11.966000
v -1.692898 -2.011096 11.966000
v -2.003867 -1.685669 12.252000
v -1.685669 -2.003867 12.252000
v -1.996518 -1.678321 12.245999
v -1.678321 -1.996518 12.245999
v -1.996518 -1.678321 12.234000
v -1.678321 -1.996518 12.234000
v -2.003867 -1.685669 12.228000
v -1.685669 -2.003867 12.228000
v -2.011215 -1.693017 12.234000
v -1.693017 -2.011215 12.234000
v -2.011215 -1.693017 12.245999
v -1.693017 -2.011215 12.245999
v -2.003986 -1.685788 12.532001
v -1.685788 -2.003986 12.532001
v -1.996638 -1.678439 12.526000
v -1.678439 -1.996638 12.526000
v -1.996638 -1.678439 12.514001
v -1.678439 -1.996638 12.514001
v -2.003986 -1.685788 12.508000
v -1.685788 -2.003986 12.508000
v -2.011334 -1.693136 12.514001
v -1.693136 -2.011334 12.514001
v -2.011334 -1.693136 12.526000
v -1.693136 -2.011334 12.526000
v -2.004105 -1.685907 12.812000
v -1.685907 -2.004105 12.812000
v -1.996757 -1.678558 12.806000
v -1.678558 -1.996757 12.806000
v -1.996757 -1.678558 12.794001
v -1.678558 -1.996757 12.794001
v -2.004105 -1.685907 12.788000
v -1.685907 -2.004105 12.788000
v -2.011453 -1.693255 12.794001
v -1.693255 -2.011453 12.794001
v -2.011453 -1.693255 12.806000
v -1.693255 -2.011453 12.806000
v -2.004224 -1.686026 13.092000
v -1.686026 -2.004224 13.092000
v -1.996876 -1.678678 13.085999
v -1.678678 -1.996876 13.085999
v -1.996876 -1.678678 13.074000
v -1.678678 -1.996876 13.074000
v -2.004224 -1.686026 13.068000
v -1.686026 -2.004224 13.068000
v -2.011573 -1.693375 13.074000
v -1.693375 -2.011573 13.074000
v -2.011573 -1.693375 13.085999
v -1.693375 -2.011573 13.085999
v -2.004343 -1.686145 13.372000
v -1.686145 -2.004343 13.372000
v -1.996995 -1.678797 13.365999
v -1.678797 -1.996995 13.365999
v -1.996995 -1.678797 13.354000
v -1.678797 -1.996995 13.354000
v -2.004343 -1.686145 13.348000
v -1.686145 -2.004343 13.348000
v -2.011692 -1.693494 13.354000
v -1.693494 -2.011692 13.354000
v -2.011692 -1.693494 13.365999
v -1.693494 -2.011692 13.365999
v -2.004462 -1.686264 13.652000
v -1.686264 -2.004462 13.652000
v -1.997114 -1.678916 13.646000
v -1.678916 -1.997114 13.646000
v -1.997114 -1.678916 13.634001
v -1.678916 -1.997114 13.634001
v -2.004462 -1.686264 13.628000
v -1.686264 -2.004462 13.628000
v -2.011811 -1.693613 13.634001
v -1.693613 -2.011811 13.634001
v -2.011811 -1.693613 13.646000
v -1.693613 -2.011811 13.646000
v -2.004581 -1.686383 13.932000
v -1.686383 -2.004581 13.932000
v -1.997233 -1.679035 13.926000
v -1.679035 -1.997233 13.926000
v -1.997233 -1.679035 13.914001
v -1.679035 -1.997233 13.914001
v -2.004581 -1.686383 13.908000
v -1.686383 -2.004581 13.908000
v -2.011930 -1.693732 13.914001
v -1.693732 -2.011930 13.914001
v -2.011930 -1.693732 13.926000
v -1.693732 -2.011930 13.926000
v -2.004700 -1.686502 14.212000
v -1.686502 -2.004700 14.212000
v -1.997352 -1.679154 14.205999
v -1.679154 -1.997352 14.205999
v -1.997352 -1.679154 14.194000
v -1.679154 -1.997352 14.194000
v -2.004700 -1.686502 14.188000
v -1.686502 -2.004700 14.188000
v -2.012049 -1.693851 14.194000
v -1.693851 -2.012049 14.194000
v -2.012049 -1.693851 14.205999
v -1.693851 -2.012049 14.205999
v -2.004819 -1.686621 14.492000
v -1.686621 -2.004819 14.492000
v -1.997471 -1.679273 14.485999
v -1.679273 -1.997471 14.485999
v -1.997471 -1.679273 14.474000
v -1.679273 -1.997471 14.474000
v -2.004819 -1.686621 14.467999
v -1.686621 -2.004819 14.467999
v -2.012168 -1.693970 14.474000
v -1.693970 -2.012168 14.474000
v -2.012168 -1.693970 14.485999
v -1.693970 -2.012168 14.485999
v -2.004938 -1.686740 14.772000
v -1.686740 -2.004938 14.772000
v -1.997590 -1.679392 14.766000
v -1.679392 -1.997590 14.766000
v -1.997590 -1.679392 14.754001
v -1.679392 -1.997590 14.754001
v -2.004938 -1.686740 14.748000
v -1.686740 -2.004938 14.748000
v -2.012287 -1.694089 14.754001
v -1.694089 -2.012287 14.754001
v -2.012287 -1.694089 14.766000
v -1.694089 -2.012287 14.766000
v -2.005058 -1.686859 15.052000
v -1.686859 -2.005058 15.052000
v -1.997709 -1.679511 15.046000
v -1.679511 -1.997709 15.046000
v -1.997709 -1.679511 15.034000
v -1.679511 -1.997709 15.034000
v -2.005058 -1.686859 15.028000
v -1.686859 -2.005058 15.028000
v -2.012406 -1.694208 15.034000
v -1.694208 -2.012406 15.034000
v -2.012406 -1.694208 15.046000
v -1.694208 -2.012406 15.046000
v -2.005177 -1.686978 15.332000
v -1.686978 -2.005177 15.332000
v -1.997828 -1.679630 15.325999
v -1.679630 -1.997828 15.325999
v -1.997828 -1.679630 15.314000
v -1.679630 -1.997828 15.314000
v -2.005177 -1.686978 15.308000
v -1.686978 -2.005177 15.308000
v -2.012525 -1.694327 15.314000
v -1.694327 -2.012525 15.314000
v -2.012525 -1.694327 15.325999
v -1.694327 -2.012525 15.325999
v -2.005296 -1.687098 15.612000
v -1.687098 -2.005296 15.612000
v -1.997947 -1.679749 15.606000
v -1.679749 -1.997947 15.606000
v -1.997947 -1.679749 15.594001
v -1.679749 -1.997947 15.594001
v -2.005296 -1.687098 15.588000
v -1.687098 -2.005296 15.588000
v -2.012644 -1.694446 15.594001
v -1.694446 -2.012644 15.594001
v -2.012644 -1.694446 15.606000
v -1.694446 -2.012644 15.606000
v -2.005415 -1.687217 15.892000
v -1.687217 -2.005415 15.892000
v -1.998066 -1.679868 15.886000
v -1.679868 -1.998066 15.886000
v -1.998066 -1.679868 15.874001
v -1.679868 -1.998066 15.874001
v -2.005415 -1.687217 15.868000
v -1.687217 -2.005415 15.868000
v -2.012763 -1.694565 15.874001
v -1.694565 -2.012763 15.874001
v -2.012763 -1.694565 15.886000
v -1.694565 -2.012763 15.886000
v -2.005534 -1.687335 16.171999
v -1.687335 -2.005534 16.171999
v -1.998185 -1.679987 16.166000
v -1.679987 -1.998185 16.166000
v -1.998185 -1.679987 16.153999
v -1.679987 -1.998185 16.153999
v -2.005534 -1.687335 16.148001
v -1.687335 -2.005534 16.148001
v -2.012882 -1.694684 16.153999
v -1.694684 -2.012882 16.153999
v -2.012882 -1.694684 16.166000
v -1.694684 -2.012882 16.166000
v -2.005653 -1.687455 16.452000
v -1.687455 -2.005653 16.452000
v -1.998304 -1.680106 16.446001
v -1.680106 -1.998304 16.446001
v -1.998304 -1.680106 16.434000
v -1.680106 -1.998304 16.434000
v -2.005653 -1.687455 16.428001
v -1.687455 -2.005653 16.428001
v -2.013001 -1.694803 16.434000
v -1.694803 -2.013001 16.434000
v -2.013001 -1.694803 16.446001
v -1.694803 -2.013001 16.446001
v -2.005772 -1.687574 16.731998
v -1.687574 -2.005772 16.731998
v -1.998423 -1.680225 16.726000
v -1.680225 -1.998423 16.726000
v -1.998423 -1.680225 16.713999
v -1.680225 -1.998423 16.713999
v -2.005772 -1.687574 16.708000
v -1.687574 -2.005772 16.708000
v -2.013120 -1.694922 16.713999
v -1.694922 -2.013120 16.713999
v -2.013120 -1.694922 16.726000
v -1.694922 -2.013120 16.726000
v -2.005891 -1.687693 17.011999
v -1.687693 -2.005891 17.011999
v -1.998542 -1.680344 17.006001
v -1.680344 -1.998542 17.006001
v -1.998542 -1.680344 16.993999
v -1.680344 -1.998542 16.993999
v -2.005891 -1.687693 16.988001
v -1.687693 -2.005891 16.988001
v -2.013239 -1.695041 16.993999
v -1.695041 -2.013239 16.993999
v -2.013239 -1.695041 17.006001
v -1.695041 -2.013239 17.006001
v -2.006010 -1.687812 17.292000
v -1.687812 -2.006010 17.292000
v -1.998661 -1.680463 17.286001
v -1.680463 -1.998661 17.286001
v -1.998661 -1.680463 17.274000
v -1.680463 -1.998661 17.274000
v -2.006010 -1.687812 17.268002
v -1.687812 -2.006010 17.268002
v -2.013358 -1.695160 17.274000
v -1.695160 -2.013358 17.274000
v -2.013358 -1.695160 17.286001
v -1.695160 -2.013358 17.286001
v -2.006129 -1.687931 17.571999
v -1.687931 -2.006129 17.571999
v -1.998780 -1.680582 17.566000
v -1.680582 -1.998780 17.566000
v -1.998780 -1.680582 17.553999
v -1.680582 -1.998780 17.553999
v -2.006129 -1.687931 17.548000
v -1.687931 -2.006129 17.548000
v -2.013477 -1.695279 17.553999
v -1.695279 -2.013477 17.553999
v -2.013477 -1.695279 17.566000
v -1.695279 -2.013477 17.566000
v -2.006248 -1.688050 17.851999
v -1.688050 -2.006248 17.851999
v -1.998899 -1.680701 17.846001
v -1.680701 -1.998899 17.846001
v -1.998899 -1.680701 17.834000
v -1.680701 -1.998899 17.834000
v -2.006248 -1.688050 17.828001
v -1.688050 -2.006248 17.828001
v -2.013596 -1.695398 17.834000
v -1.695398 -2.013596 17.834000
v -2.013596 -1.695398 17.846001
v -1.695398 -2.013596 17.846001
v -2.006367 -1.688169 18.132000
v -1.688169 -2.006367 18.132000
v -1.999018 -1.680821 18.126001
v -1.680821 -1.999019 18.126001
v -1.999018 -1.680821 18.114000
v -1.680821 -1.999019 18.114000
v -2.006367 -1.688169 18.108002
v -1.688169 -2.006367 18.108002
v -2.013716 -1.695517 18.114000
v -1.695518 -2.013716 18.114000
v -2.013716 -1.695517 18.126001
v -1.695518 -2.013716 18.126001
v -2.006486 -1.688288 18.411999
v -1.688288 -2.006486 18.411999
v -1.999138 -1.680940 18.406000
v -1.680940 -1.999138 18.406000
v -1.999138 -1.680940 18.393999
v -1.680940 -1.999138 18.393999
v -2.006486 -1.688288 18.388000
v -1.688288 -2.006486 18.388000
v -2.013834 -1.695637 18.393999
v -1.695637 -2.013834 18.393999
v -2.013834 -1.695637 18.406000
v -1.695637 -2.013834 18.406000
v -2.006605 -1.688407 18.691999
v -1.688407 -2.006605 18.691999
v -1.999257 -1.681059 18.686001
v -1.681059 -1.999257 18.686001
v -1.999257 -1.681059 18.674000
v -1.681059 -1.999257 18.674000
v -2.006605 -1.688407 18.668001
v -1.688407 -2.006605 18.668001
v -2.013953 -1.695755 18.674000
v -1.695755 -2.013953 18.674000
v -2.013953 -1.695755 18.686001
v -1.695755 -2.013953 18.686001
v -2.006724 -1.688526 18.971998
v -1.688526 -2.006724 18.971998
v -1.999376 -1.681178 18.966000
v -1.681178 -1.999376 18.966000
v -1.999376 -1.681178 18.953999
v -1.681178 -1.999376 18.953999
v -2.006724 -1.688526 18.948000
v -1.688526 -2.006724 18.948000
v -2.014073 -1.695875 18.953999
v -1.695875 -2.014073 18.953999
v -2.014073 -1.695875 18.966000
v -1.695875 -2.014073 18.966000
v -2.006843 -1.688645 19.251999
v -1.688645 -2.006843 19.251999
v -1.999495 -1.681297 19.246000
v -1.681297 -1.999495 19.246000
v -1.999495 -1.681297 19.233999
v -1.681297 -1.999495 19.233999
v -2.006843 -1.688645 19.228001
v -1.688645 -2.006843 19.228001
v -2.014192 -1.695994 19.233999
v -1.695994 -2.014192 19.233999
v -2.014192 -1.695994 19.246000
v -1.695994 -2.014192 19.246000
v -2.006962 -1.688764 19.532000
v -1.688764 -2.006962 19.532000
v -1.999614 -1.681416 19.526001
v -1.681416 -1.999614 19.526001
v -1.999614 -1.681416 19.514000
v -1.681416 -1.999614 19.514000
v -2.006962 -1.688764 19.508001
v -1.688764 -2.006962 19.508001
v -2.014311 -1.696113 19.514000
v -1.696113 -2.014311 19.514000
v -2.014311 -1.696113 19.526001
v -1.696113 -2.014311 19.526001
v -2.007081 -1.688883 19.811998
v -1.688883 -2.007081 19.811998
v -1.999733 -1.681535 19.806000
v -1.681535 -1.999733 19.806000
v -1.999733 -1.681535 19.793999
v -1.681535 -1.999733 19.793999
v -2.007081 -1.688883 19.788000
v -1.688883 -2.007081 19.788000
v -2.014430 -1.696232 19.793999
v -1.696232 -2.014430 19.793999
v -2.014430 -1.696232 19.806000
v -1.696232 -2.014430 19.806000
v -2.007200 -1.689002 20.091999
v -1.689002 -2.007200 20.091999
v -1.999852 -1.681654 20.086000
v -1.681654 -1.999852 20.086000
v -1.999852 -1.681654 20.073999
v -1.681654 -1.999852 20.073999
v -2.007200 -1.689002 20.068001
v -1.689002 -2.007200 20.068001
v -2.014549 -1.696351 20.073999
v -1.696351 -2.014549 20.073999
v -2.014549 -1.696351 20.086000
v -1.696351 -2.014549 20.086000
v -2.007319 -1.689121 20.372000
v -1.689121 -2.007319 20.372000
v -1.999971 -1.681773 20.366001
v -1.681773 -1.999971 20.366001
v -1.999971 -1.681773 20.354000
v -1.681773 -1.999971 20.354000
v -2.007319 -1.689121 20.348001
v -1.689121 -2.007319 20.348001
v -2.014668 -1.696470 20.354000
v -1.696470 -2.014668 20.354000
v -2.014668 -1.696470 20.366001
v -1.696470 -2.014668 20.366001
v -2.007438 -1.689240 20.651999
v -1.689240 -2.007438 20.651999
v -2.000090 -1.681892 20.646000
v -1.681892 -2.000090 20.646000
v -2.000090 -1.681892 20.633999
v -1.681892 -2.000090 20.633999
v -2.007438 -1.689240 20.628000
v -1.689240 -2.007438 20.628000
v -2.014787 -1.696589 20.633999
v -1.696589 -2.014787 20.633999
v -2.014787 -1.696589 20.646000
v -1.696589 -2.014787 20.646000
v -2.007558 -1.689359 20.931999
v -1.689359 -2.007558 20.931999
v -2.000209 -1.682011 20.926001
v -1.682011 -2.000209 20.926001
v -2.000209 -1.682011 20.914000
v -1.682011 -2.000209 20.914000
v -2.007558 -1.689359 20.908001
v -1.689359 -2.007558 20.908001
v -2.014906 -1.696708 20.914000
v -1.696708 -2.014906 20.914000
v -2.014906 -1.696708 20.926001
v -1.696708 -2.014906 20.926001
v -2.007677 -1.689478 21.212000
v -1.689478 -2.007677 21.212000
v -2.000328 -1.682130 21.206001
v -1.682130 -2.000328 21.206001
v -2.000328 -1.682130 21.194000
v -1.682130 -2.000328 21.194000
v -2.007677 -1.689478 21.188002
v -1.689478 -2.007677 21.188002
v -2.015025 -1.696827 21.194000
v -1.696827 -2.015025 21.194000
v -2.015025 -1.696827 21.206001
v -1.696827 -2.015025 21.206001
v 2.071621 1.961721 0.000038
v 2.054464 1.945568 21.610039
v 2.081195 1.936702 0.000027
v 2.064037 1.920549 21.610027
v 2.070274 1.912242 0.000000
v 2.053116 1.896089 21.610001
v 2.045255 1.902668 -0.000027
v 2.028097 1.886515 21.609974
v 2.020794 1.913590 -0.000038
v 2.003637 1.897436 21.609962
v 2.011221 1.938608 -0.000027
v 1.994063 1.922455 21.609974
v 2.022142 1.963069 0.000000
v 2.004985 1.946916 21.610001
v 2.047161 1.972642 0.000027
v 2.030003 1.956489 21.610027
v 2.017444 2.017397 0.000038
v 2.000733 2.000780 21.610039
v 2.027695 1.992648 0.000027
v 2.010984 1.976031 21.610027
v 2.017444 1.967899 0.000000
v 2.000733 1.951282 21.610001
v 1.992695 1.957648 -0.000027
v 1.975984 1.941031 21.609974
v 1.967947 1.967899 -0.000038
v 1.951235 1.951282 21.609962
v 1.957695 1.992648 -0.000027
v 1.940984 1.976031 21.609974
v 1.967947 2.017397 0.000000
v 1.951235 2.000780 21.610001
v 1.992695 2.027648 0.000027
v 1.975984 2.011031 21.610027
v 1.961771 2.071577 0.000038
v 1.945518 2.054508 21.610039
v 1.972692 2.047116 0.000027
v 1.956439 2.030048 21.610027
v 1.963119 2.022098 0.000000
v 1.946866 2.005029 21.610001
v 1.938658 2.011176 -0.000027
v 1.922405 1.994108 21.609974
v 1.913639 2.020750 -0.000038
v 1.897387 2.003681 21.609962
v 1.902718 2.045210 -0.000027
v 1.886465 2.028142 21.609974
v 1.912292 2.070229 0.000000
v 1.896039 2.053161 21.610001
v 1.936752 2.081150 0.000027
v 1.920499 2.064082 21.610027
v -0.150000 2.828033 10.804999
v -0.150000 2.828033 10.905000
v -0.150000 2.888033 10.804999
v -0.150000 2.888033 10.905000
v 0.150000 2.828033 10.804999
v 0.150000 2.828033 10.905000
v 0.150000 2.888033 10.804999
v 0.150000 2.888033 10.905000
vn -0.9659 -0.2588 0.0009
vn -0.7071 0.7071 -0.0000
vn 0.2588 0.9659 -0.0009
vn 0.9659 0.2588 -0.0009
vn 0.0007 0.0007 1.0000
vn 0.7071 -0.7071 -0.0000
vn -0.2588 -0.9659 0.0009
vn -0.0008 -0.0008 -1.0000
vn -0.9659 -0.2589 0.0009
vn 0.9659 0.2589 -0.0009
vn 0.0006 0.0007 1.0000
vn 0.3536 0.3536 0.8660
vn 0.7071 0.7071 -0.0000
vn 0.3536 0.3536 -0.8660
vn -0.3536 -0.3536 -0.8660
vn -0.7071 -0.7071 -0.0000
vn -0.3536 -0.3536 0.8660
vn 0.3535 0.3536 -0.8660
vn -0.3535 -0.3536 -0.8660
vn 0.3535 0.3535 0.8660
vn 0.3536 0.3535 -0.8660
vn 0.3536 0.3535 0.8660
vn 0.3535 0.3535 -0.8660
vn -0.3536 -0.3535 -0.8660
vn -0.3536 -0.3535 0.8660
vn -0.3535 -0.3536 0.8660
vn 0.3535 0.3536 0.8660
vn 0.3537 0.3536 0.8660
vn 0.7071 0.7072 -0.0000
vn -0.3537 -0.3536 -0.8660
vn -0.7071 -0.7072 -0.0000
vn -0.3534 -0.3536 -0.8661
vn -0.3537 -0.3536 0.8660
vn 0.7072 0.7070 -0.0000
vn 0.3534 0.3535 -0.8661
vn -0.3534 -0.3535 0.8661
vn -0.7071 0.7072 -0.0000
vn 0.3535 0.3535 0.8661
vn 0.3536 0.3535 -0.8661
vn 0.7072 -0.7071 -0.0000
vn -0.7072 -0.7070 -0.0000
vn -0.3535 -0.3535 0.8661
vn -0.3533 -0.3535 -0.8661
vn 0.7072 -0.7070 -0.0000
vn 0.7070 -0.7072 -0.0000
vn -0.3533 -0.3535 0.8661
vn -0.7070 0.7072 -0.0000
vn -0.3537 -0.3535 0.8660
vn -0.7072 0.7070 -0.0000
vn 0.3533 0.3535 0.8661
vn 0.3537 0.3535 -0.8660
vn -0.3537 -0.3535 -0.8660
vn 0.3534 0.3535 0.8661
vn 0.3533 0.3535 -0.8662
vn -0.7072 0.7071 -0.0000
vn -0.3534 -0.3535 -0.8661
vn -0.3535 -0.3535 -0.8661
vn 0.3537 0.3535 0.8660
vn -0.3533 -0.3535 -0.8662
vn 0.3535 0.3535 -0.8661
vn 0.9340 0.3574 0.0010
vn 0.9131 -0.4077 0.0004
vn 0.3574 -0.9340 -0.0004
vn -0.4077 -0.9131 -0.0010
vn -0.9340 -0.3574 -0.0010
vn -0.9131 0.4077 -0.0004
vn -0.0008 -0.0007 1.0000
vn -0.3574 0.9340 0.0004
vn 0.4077 0.9131 0.0010
vn 0.0008 0.0007 -1.0000
vn 0.9239 0.3827 0.0010
vn 0.9239 -0.3827 0.0004
vn 0.3827 -0.9239 -0.0004
vn -0.3827 -0.9239 -0.0010
vn -0.9239 -0.3827 -0.0010
vn -0.9239 0.3827 -0.0004
vn -0.0008 -0.0008 1.0000
vn -0.3827 0.9239 0.0004
vn 0.3827 0.9239 0.0010
vn 0.0008 0.0008 -1.0000
vn 0.9131 0.4077 0.0010
vn 0.9340 -0.3574 0.0004
vn 0.4077 -0.9131 -0.0004
vn -0.3574 -0.9340 -0.0010
vn -0.9131 -0.4077 -0.0010
vn -0.9340 0.3574 -0.0004
vn -0.0007 -0.0008 1.0000
vn -0.4077 0.9131 0.0004
vn 0.3574 0.9340 0.0010
vn 0.0007 0.0008 -1.0000
vn -1.0000 -0.0000 -0.0000
vn -0.0000 1.0000 -0.0000
vn 1.0000 -0.0000 -0.0000
vn -0.0000 -1.0000 -0.0000
vn -0.0000 -0.0000 -1.0000
vn -0.0000 -0.0000 1.0000
vn 0.0007 0.0008 1.0000
vn 0.0009 0.0006 1.0000
vn 0.0008 0.0008 1.0000
vn -0.0008 -0.0007 -1.0000
vn -0.0007 -0.0008 -1.0000
vn 0.0009 0.0008 1.0000
vn 0.0007 0.0006 1.0000
vn 0.0007 0.0005 1.0000
vn 0.0011 0.0009 1.0000
vn 0.7071 -0.7071 0.0001
vn -0.3535 -0.3535 0.8660
vn 0.7071 -0.7072 -0.0000
vn 0.7071 -0.7072 0.0001
vn 0.7072 -0.7071 0.0001
vn 0.3537 0.3536 -0.8660
vn 0.3534 0.3536 0.8661
vn 0.3534 0.3536 -0.8661
vn 0.7070 -0.7072 0.0001
vn -0.7073 0.7069 -0.0000
vn 0.3533 0.3535 0.8662
vn 0.7073 -0.7069 -0.0000
vn 0.7072 -0.7070 0.0001
vn -0.3533 -0.3535 0.8662
vn 0.7070 -0.7073 -0.0000
vn 0.7068 -0.7074 -0.0000
vn -0.0009 -0.0008 1.0000
vn -0.0007 -0.0007 1.0000
s 0
usemtl pipe_steel
f 2//1 3//1 1//1
f 4//2 5//2 3//2
f 5//3 8//3 7//3
f 8//4 9//4 7//4
f 2//5 10//5 6//5
f 10//6 11//6 9//6
f 12//7 1//7 11//7
f 3//8 7//8 11//8
f 14//1 15//1 13//1
f 16//2 17//2 15//2
f 18//3 19//3 17//3
f 20//4 21//4 19//4
f 14//5 22//5 18//5
f 21//6 24//6 23//6
f 24//7 13//7 23//7
f 15//8 19//8 23//8
f 38//12 39//12 37//12
f 40//13 41//13 39//13
f 41//14 44//14 43//14
f 44//15 45//15 43//15
f 38//6 46//6 42//6
f 46//16 47//16 45//16
f 48//17 37//17 47//17
f 39//2 43//2 47//2
f 50//12 51//12 49//12
f 52//13 53//13 51//13
f 54//18 55//18 53//18
f 55//19 58//19 57//19
f 50//6 58//6 54//6
f 58//16 59//16 57//16
f 60//17 49//17 59//17
f 51//2 55//2 59//2
f 62//12 63//12 61//12
f 64//13 65//13 63//13
f 66//14 67//14 65//14
f 68//15 69//15 67//15
f 62//6 70//6 66//6
f 70//16 71//16 69//16
f 72//17 61//17 71//17
f 63//2 67//2 71//2
f 74//20 75//20 73//20
f 76//13 77//13 75//13
f 78//21 79//21 77//21
f 80//19 81//19 79//19
f 74//6 82//6 78//6
f 82//16 83//16 81//16
f 84//17 73//17 83//17
f 75//2 79//2 83//2
f 86//12 87//12 85//12
f 88//13 89//13 87//13
f 90//14 91//14 89//14
f 92//15 93//15 91//15
f 86//6 94//6 90//6
f 94//16 95//16 93//16
f 96//17 85//17 95//17
f 87//2 91//2 95//2
f 98//22 99//22 97//22
f 100//13 101//13 99//13
f 101//23 104//23 103//23
f 103//24 106//24 105//24
f 98//6 106//6 102//6
f 106//16 107//16 105//16
f 108//25 97//25 107//25
f 99//2 103//2 107//2
f 110//22 111//22 109//22
f 112//13 113//13 111//13
f 114//18 115//18 113//18
f 116//24 117//24 115//24
f 110//6 118//6 114//6
f 118//16 119//16 117//16
f 120//26 109//26 119//26
f 111//2 115//2 119//2
f 122//27 123//27 121//27
f 124//13 125//13 123//13
f 126//21 127//21 125//21
f 128//15 129//15 127//15
f 122//6 130//6 126//6
f 130//16 131//16 129//16
f 132//17 121//17 131//17
f 123//2 127//2 131//2
f 134//12 135//12 133//12
f 136//13 137//13 135//13
f 138//14 139//14 137//14
f 139//15 142//15 141//15
f 134//6 142//6 138//6
f 142//16 143//16 141//16
f 144//17 133//17 143//17
f 135//2 139//2 143//2
f 146//12 147//12 145//12
f 148//13 149//13 147//13
f 150//14 151//14 149//14
f 151//19 154//19 153//19
f 146//6 154//6 150//6
f 154//16 155//16 153//16
f 156//17 145//17 155//17
f 147//2 151//2 155//2
f 158//12 159//12 157//12
f 160//13 161//13 159//13
f 162//23 163//23 161//23
f 164//15 165//15 163//15
f 158//6 166//6 162//6
f 166//16 167//16 165//16
f 168//17 157//17 167//17
f 159//2 163//2 167//2
f 170//12 171//12 169//12
f 172//13 173//13 171//13
f 174//14 175//14 173//14
f 176//19 177//19 175//19
f 170//6 178//6 174//6
f 178//16 179//16 177//16
f 180//17 169//17 179//17
f 171//2 175//2 179//2
f 182//12 183//12 181//12
f 184//13 185//13 183//13
f 186//14 187//14 185//14
f 188//15 189//15 187//15
f 182//6 190//6 186//6
f 190//16 191//16 189//16
f 192//17 181//17 191//17
f 183//2 187//2 191//2
f 194//27 195//27 193//27
f 196//13 197//13 195//13
f 198//14 199//14 197//14
f 199//15 202//15 201//15
f 194//6 202//6 198//6
f 202//16 203//16 201//16
f 204//26 193//26 203//26
f 195//2 199//2 203//2
f 206//22 207//22 205//22
f 208//13 209//13 207//13
f 210//18 211//18 209//18
f 212//24 213//24 211//24
f 206//6 214//6 210//6
f 214//16 215//16 213//16
f 216//26 205//26 215//26
f 207//2 211//2 215//2
f 218//27 219//27 217//27
f 220//13 221//13 219//13
f 222//21 223//21 221//21
f 224//19 225//19 223//19
f 218//6 226//6 222//6
f 226//16 227//16 225//16
f 228//17 217//17 227//17
f 219//2 223//2 227//2
f 230//27 231//27 229//27
f 232//13 233//13 231//13
f 234//14 235//14 233//14
f 235//15 238//15 237//15
f 230//6 238//6 234//6
f 238//16 239//16 237//16
f 240//17 229//17 239//17
f 231//2 235//2 239//2
f 242//22 243//22 241//22
f 244//13 245//13 243//13
f 246//18 247//18 245//18
f 247//15 250//15 249//15
f 242//6 250//6 246//6
f 250//16 251//16 249//16
f 252//26 241//26 251//26
f 243//2 247//2 251//2
f 254//22 255//22 253//22
f 256//13 257//13 255//13
f 258//18 259//18 257//18
f 260//15 261//15 259//15
f 254//6 262//6 258//6
f 262//16 263//16 261//16
f 264//17 253//17 263//17
f 255//2 259//2 263//2
f 266//27 267//27 265//27
f 268//13 269//13 267//13
f 270//21 271//21 269//21
f 272//19 273//19 271//19
f 266//6 274//6 270//6
f 274//16 275//16 273//16
f 276//25 265//25 275//25
f 267//2 271//2 275//2
f 278//12 279//12 277//12
f 280//13 281//13 279//13
f 282//18 283//18 281//18
f 283//19 286//19 285//19
f 278//6 286//6 282//6
f 286//16 287//16 285//16
f 288//17 277//17 287//17
f 279//2 283//2 287//2
f 290//12 291//12 289//12
f 292//13 293//13 291//13
f 294//18 295//18 293//18
f 295//15 298//15 297//15
f 290//6 298//6 294//6
f 298//16 299//16 297//16
f 300//26 289//26 299//26
f 291//2 295//2 299//2
f 302//27 303//27 301//27
f 304//13 305//13 303//13
f 306//18 307//18 305//18
f 308//19 309//19 307//19
f 302//6 310//6 306//6
f 310//16 311//16 309//16
f 312//26 301//26 311//26
f 303//2 307//2 311//2
f 314//27 315//27 313//27
f 316//13 317//13 315//13
f 318//21 319//21 317//21
f 320//19 321//19 319//19
f 314//6 322//6 318//6
f 322//16 323//16 321//16
f 324//26 313//26 323//26
f 315//2 319//2 323//2
f 326//22 327//22 325//22
f 328//13 329//13 327//13
f 330//18 331//18 329//18
f 332//15 333//15 331//15
f 326//6 334//6 330//6
f 334//16 335//16 333//16
f 335//17 326//17 325//17
f 327//2 331//2 335//2
f 338//22 339//22 337//22
f 340//13 341//13 339//13
f 342//18 343//18 341//18
f 343//15 346//15 345//15
f 338//6 346//6 342//6
f 346//16 347//16 345//16
f 348//26 337//26 347//26
f 339//2 343//2 347//2
f 350//27 351//27 349//27
f 352//13 353//13 351//13
f 354//21 355//21 353//21
f 356//19 357//19 355//19
f 350//6 358//6 354//6
f 358//16 359//16 357//16
f 360//17 349//17 359//17
f 351//2 355//2 359//2
f 362//22 363//22 361//22
f 364//13 365//13 363//13
f 366//18 367//18 365//18
f 368//15 369//15 367//15
f 362//6 370//6 366//6
f 370//16 371//16 369//16
f 372//26 361//26 371//26
f 363//2 367//2 371//2
f 374//12 375//12 373//12
f 376//13 377//13 375//13
f 378//14 379//14 377//14
f 380//15 381//15 379//15
f 374//6 382//6 378//6
f 382//16 383//16 381//16
f 384//26 373//26 383//26
f 375//2 379//2 383//2
f 386//12 387//12 385//12
f 388//13 389//13 387//13
f 390//14 391//14 389//14
f 391//15 394//15 393//15
f 386//6 394//6 390//6
f 394//16 395//16 393//16
f 396//17 385//17 395//17
f 387//2 391//2 395//2
f 398//12 399//12 397//12
f 400//13 401//13 399//13
f 402//14 403//14 401//14
f 404//19 405//19 403//19
f 398//6 406//6 402//6
f 406//16 407//16 405//16
f 408//17 397//17 407//17
f 399//2 403//2 407//2
f 410//12 411//12 409//12
f 412//13 413//13 411//13
f 414//14 415//14 413//14
f 416//15 417//15 415//15
f 410//6 418//6 414//6
f 418//16 419//16 417//16
f 420//17 409//17 419//17
f 411//2 415//2 419//2
f 422//12 423//12 421//12
f 424//13 425//13 423//13
f 425//14 428//14 427//14
f 428//15 429//15 427//15
f 422//6 430//6 426//6
f 430//16 431//16 429//16
f 432//26 421//26 431//26
f 423//2 427//2 431//2
f 434//12 435//12 433//12
f 436//13 437//13 435//13
f 437//18 440//18 439//18
f 439//15 442//15 441//15
f 434//6 442//6 438//6
f 442//16 443//16 441//16
f 444//17 433//17 443//17
f 435//2 439//2 443//2
f 446//12 447//12 445//12
f 448//13 449//13 447//13
f 450//14 451//14 449//14
f 452//15 453//15 451//15
f 446//6 454//6 450//6
f 454//16 455//16 453//16
f 456//17 445//17 455//17
f 447//2 451//2 455//2
f 458//12 459//12 457//12
f 460//13 461//13 459//13
f 462//14 463//14 461//14
f 464//15 465//15 463//15
f 458//6 466//6 462//6
f 466//16 467//16 465//16
f 468//17 457//17 467//17
f 459//2 463//2 467//2
f 470//12 471//12 469//12
f 472//13 473//13 471//13
f 474//14 475//14 473//14
f 475//15 478//15 477//15
f 470//6 478//6 474//6
f 478//16 479//16 477//16
f 480//17 469//17 479//17
f 471//2 475//2 479//2
f 482//27 483//27 481//27
f 484//13 485//13 483//13
f 485//14 488//14 487//14
f 487//15 490//15 489//15
f 482//6 490//6 486//6
f 490//16 491//16 489//16
f 492//17 481//17 491//17
f 483//2 487//2 491//2
f 494//12 495//12 493//12
f 496//13 497//13 495//13
f 498//18 499//18 497//18
f 500//15 501//15 499//15
f 494//6 502//6 498//6
f 502//16 503//16 501//16
f 504//17 493//17 503//17
f 495//2 499//2 503//2
f 506//12 507//12 505//12
f 508//13 509//13 507//13
f 510//14 511//14 509//14
f 512//15 513//15 511//15
f 506//6 514//6 510//6
f 514//16 515//16 513//16
f 516//17 505//17 515//17
f 507//2 511//2 515//2
f 518//12 519//12 517//12
f 520//13 521//13 519//13
f 521//18 524//18 523//18
f 524//19 525//19 523//19
f 518//6 526//6 522//6
f 526//16 527//16 525//16
f 528//17 517//17 527//17
f 519//2 523//2 527//2
f 530//12 531//12 529//12
f 532//13 533//13 531//13
f 534//14 535//14 533//14
f 536//15 537//15 535//15
f 530//6 538//6 534//6
f 538//16 539//16 537//16
f 540//17 529//17 539//17
f 531//2 535//2 539//2
f 542//12 543//12 541//12
f 544//13 545//13 543//13
f 546//14 547//14 545//14
f 548//19 549//19 547//19
f 542//6 550//6 546//6
f 550//16 551//16 549//16
f 552//17 541//17 551//17
f 543//2 547//2 551//2
f 554//12 555//12 553//12
f 556//13 557//13 555//13
f 557//14 560//14 559//14
f 559//15 562//15 561//15
f 554//6 562//6 558//6
f 562//16 563//16 561//16
f 564//26 553//26 563//26
f 555//2 559//2 563//2
f 566//28 567//28 565//28
f 568//13 569//13 567//13
f 570//14 571//14 569//14
f 572//15 573//15 571//15
f 566//6 574//6 570//6
f 574//16 575//16 573//16
f 576//26 565//26 575//26
f 567//2 571//2 575//2
f 578//12 579//12 577//12
f 580//29 581//29 579//29
f 582//18 583//18 581//18
f 584//30 585//30 583//30
f 578//6 586//6 582//6
f 586//16 587//16 585//16
f 588//17 577//17 587//17
f 579//2 583//2 587//2
f 590//12 591//12 589//12
f 592//13 593//13 591//13
f 593//14 596//14 595//14
f 596//30 597//30 595//30
f 590//6 598//6 594//6
f 598//31 599//31 597//31
f 600//26 589//26 599//26
f 591//2 595//2 599//2
f 602//12 603//12 601//12
f 604//13 605//13 603//13
f 606//14 607//14 605//14
f 608//32 609//32 607//32
f 602//6 610//6 606//6
f 610//16 611//16 609//16
f 612//17 601//17 611//17
f 603//2 607//2 611//2
f 614//27 615//27 613//27
f 616//13 617//13 615//13
f 618//14 619//14 617//14
f 620//15 621//15 619//15
f 614//6 622//6 618//6
f 622//16 623//16 621//16
f 624//17 613//17 623//17
f 615//2 619//2 623//2
f 626//12 627//12 625//12
f 628//13 629//13 627//13
f 629//14 632//14 631//14
f 631//15 634//15 633//15
f 626//6 634//6 630//6
f 634//16 635//16 633//16
f 636//33 625//33 635//33
f 627//2 631//2 635//2
f 638//12 639//12 637//12
f 640//13 641//13 639//13
f 642//14 643//14 641//14
f 644//15 645//15 643//15
f 638//6 646//6 642//6
f 646//16 647//16 645//16
f 648//17 637//17 647//17
f 639//2 643//2 647//2
f 650//27 651//27 649//27
f 652//29 653//29 651//29
f 654//14 655//14 653//14
f 656//19 657//19 655//19
f 650//6 658//6 654//6
f 658//31 659//31 657//31
f 660//17 649//17 659//17
f 651//2 655//2 659//2
f 662//12 663//12 661//12
f 664//13 665//13 663//13
f 665//14 668//14 667//14
f 668//15 669//15 667//15
f 662//6 670//6 666//6
f 670//16 671//16 669//16
f 672//26 661//26 671//26
f 663//2 667//2 671//2
f 674//12 675//12 673//12
f 676//29 677//29 675//29
f 678//14 679//14 677//14
f 680//19 681//19 679//19
f 674//6 682//6 678//6
f 682//16 683//16 681//16
f 684//33 673//33 683//33
f 675//2 679//2 683//2
f 686//12 687//12 685//12
f 688//13 689//13 687//13
f 690//14 691//14 689//14
f 692//30 693//30 691//30
f 686//6 694//6 690//6
f 694//31 695//31 693//31
f 696//26 685//26 695//26
f 687//2 691//2 695//2
f 698//27 699//27 697//27
f 700//13 701//13 699//13
f 702//14 703//14 701//14
f 703//15 706//15 705//15
f 698//6 706//6 702//6
f 706//31 707//31 705//31
f 708//26 697//26 707//26
f 699//2 703//2 707//2
f 710//12 711//12 709//12
f 712//29 713//29 711//29
f 714//14 715//14 713//14
f 716//15 717//15 715//15
f 710//6 718//6 714//6
f 718//16 719//16 717//16
f 720//26 709//26 719//26
f 711//2 715//2 719//2
f 722//22 723//22 721//22
f 724//34 725//34 723//34
f 726//35 727//35 725//35
f 728//24 729//24 727//24
f 722//6 730//6 726//6
f 730//16 731//16 729//16
f 732//36 721//36 731//36
f 723//37 727//37 731//37
f 734//38 735//38 733//38
f 736//13 737//13 735//13
f 738//39 739//39 737//39
f 739//24 742//24 741//24
f 734//40 742//40 738//40
f 742//41 743//41 741//41
f 744//42 733//42 743//42
f 735//2 739//2 743//2
f 746//38 747//38 745//38
f 748//13 749//13 747//13
f 750//39 751//39 749//39
f 752//43 753//43 751//43
f 746//44 754//44 750//44
f 754//16 755//16 753//16
f 756//42 745//42 755//42
f 747//2 751//2 755//2
f 758//22 759//22 757//22
f 760//13 761//13 759//13
f 762//35 763//35 761//35
f 764//24 765//24 763//24
f 758//45 766//45 762//45
f 766//41 767//41 765//41
f 768//46 757//46 767//46
f 759//47 763//47 767//47
f 770//38 771//38 769//38
f 772//13 773//13 771//13
f 774//39 775//39 773//39
f 775//24 778//24 777//24
f 770//6 778//6 774//6
f 778//16 779//16 777//16
f 780//48 769//48 779//48
f 771//49 775//49 779//49
f 782//50 783//50 781//50
f 784//13 785//13 783//13
f 786//51 787//51 785//51
f 788//43 789//43 787//43
f 782//44 790//44 786//44
f 790//16 791//16 789//16
f 792//25 781//25 791//25
f 783//49 787//49 791//49
f 794//22 795//22 793//22
f 796//13 797//13 795//13
f 798//35 799//35 797//35
f 800//52 801//52 799//52
f 794//6 802//6 798//6
f 802//41 803//41 801//41
f 804//36 793//36 803//36
f 795//2 799//2 803//2
f 805//53 808//53 807//53
f 808//13 809//13 807//13
f 809//54 812//54 811//54
f 811//24 814//24 813//24
f 806//44 814//44 810//44
f 814//16 815//16 813//16
f 816//48 805//48 815//48
f 807//55 811//55 815//55
f 818//50 819//50 817//50
f 820//13 821//13 819//13
f 822//39 823//39 821//39
f 824//56 825//56 823//56
f 818//40 826//40 822//40
f 826//41 827//41 825//41
f 828//25 817//25 827//25
f 819//2 823//2 827//2
f 830//38 831//38 829//38
f 832//34 833//34 831//34
f 834//35 835//35 833//35
f 836//57 837//57 835//57
f 830//45 838//45 834//45
f 838//41 839//41 837//41
f 840//36 829//36 839//36
f 831//2 835//2 839//2
f 842//58 843//58 841//58
f 844//13 845//13 843//13
f 846//35 847//35 845//35
f 848//24 849//24 847//24
f 842//6 850//6 846//6
f 850//16 851//16 849//16
f 852//42 841//42 851//42
f 843//2 847//2 851//2
f 854//50 855//50 853//50
f 856//34 857//34 855//34
f 858//39 859//39 857//39
f 860//56 861//56 859//56
f 854//44 862//44 858//44
f 862//41 863//41 861//41
f 864//42 853//42 863//42
f 855//49 859//49 863//49
f 866//22 867//22 865//22
f 868//13 869//13 867//13
f 870//35 871//35 869//35
f 872//24 873//24 871//24
f 866//6 874//6 870//6
f 874//16 875//16 873//16
f 876//36 865//36 875//36
f 867//37 871//37 875//37
f 878//58 879//58 877//58
f 880//13 881//13 879//13
f 882//35 883//35 881//35
f 883//59 886//59 885//59
f 878//45 886//45 882//45
f 886//41 887//41 885//41
f 888//46 877//46 887//46
f 879//2 883//2 887//2
f 890//53 891//53 889//53
f 892//13 893//13 891//13
f 894//51 895//51 893//51
f 896//43 897//43 895//43
f 890//44 898//44 894//44
f 898//16 899//16 897//16
f 900//25 889//25 899//25
f 891//2 895//2 899//2
f 902//38 903//38 901//38
f 904//13 905//13 903//13
f 906//35 907//35 905//35
f 908//24 909//24 907//24
f 902//6 910//6 906//6
f 910//16 911//16 909//16
f 912//42 901//42 911//42
f 903//2 907//2 911//2
f 914//58 915//58 913//58
f 916//13 917//13 915//13
f 918//35 919//35 917//35
f 920//57 921//57 919//57
f 914//6 922//6 918//6
f 922//16 923//16 921//16
f 924//46 913//46 923//46
f 915//2 919//2 923//2
f 926//53 927//53 925//53
f 928//13 929//13 927//13
f 930//60 931//60 929//60
f 932//57 933//57 931//57
f 926//40 934//40 930//40
f 934//16 935//16 933//16
f 936//25 925//25 935//25
f 927//2 931//2 935//2
f 938//58 939//58 937//58
f 940//13 941//13 939//13
f 942//35 943//35 941//35
f 944//52 945//52 943//52
f 938//6 946//6 942//6
f 946//16 947//16 945//16
f 948//36 937//36 947//36
f 939//37 943//37 947//37
f 2//1 4//1 3//1
f 4//2 6//2 5//2
f 5//3 6//3 8//3
f 8//4 10//4 9//4
f 6//97 4//97 2//97
f 2//98 12//98 10//98
f 10//99 8//99 6//99
f 10//6 12//6 11//6
f 12//7 2//7 1//7
f 11//8 1//8 3//8
f 3//100 5//100 7//100
f 7//101 9//101 11//101
f 14//1 16//1 15//1
f 16//2 18//2 17//2
f 18//3 20//3 19//3
f 20//4 22//4 21//4
f 18//102 16//102 14//102
f 14//103 24//103 22//103
f 22//99 20//99 18//99
f 21//6 22//6 24//6
f 24//7 14//7 13//7
f 23//8 13//8 15//8
f 15//100 17//100 19//100
f 19//101 21//101 23//101
f 38//12 40//12 39//12
f 40//13 42//13 41//13
f 41//14 42//14 44//14
f 44//19 46//19 45//19
f 42//6 40//6 38//6
f 38//6 48//6 46//6
f 46//6 44//6 42//6
f 46//16 48//16 47//16
f 48//17 38//17 37//17
f 47//2 37//2 39//2
f 39//2 41//2 43//2
f 43//2 45//2 47//2
f 50//22 52//22 51//22
f 52//13 54//13 53//13
f 54//14 56//14 55//14
f 55//15 56//15 58//15
f 54//6 52//6 50//6
f 50//6 60//6 58//6
f 58//6 56//6 54//6
f 58//16 60//16 59//16
f 60//17 50//17 49//17
f 59//2 49//2 51//2
f 51//2 53//2 55//2
f 55//2 57//2 59//2
f 62//12 64//12 63//12
f 64//13 66//13 65//13
f 66//14 68//14 67//14
f 68//15 70//15 69//15
f 66//6 64//6 62//6
f 62//6 72//6 70//6
f 70//106 68//106 66//106
f 70//16 72//16 71//16
f 72//17 62//17 61//17
f 71//2 61//2 63//2
f 63//2 65//2 67//2
f 67//2 69//2 71//2
f 74//22 76//22 75//22
f 76//13 78//13 77//13
f 78//23 80//23 79//23
f 80//24 82//24 81//24
f 78//6 76//6 74//6
f 74//6 84//6 82//6
f 82//6 80//6 78//6
f 82//16 84//16 83//16
f 84//107 74//107 73//107
f 83//2 73//2 75//2
f 75//2 77//2 79//2
f 79//2 81//2 83//2
f 86//27 88//27 87//27
f 88//13 90//13 89//13
f 90//14 92//14 91//14
f 92//15 94//15 93//15
f 90//6 88//6 86//6
f 86//6 96//6 94//6
f 94//6 92//6 90//6
f 94//16 96//16 95//16
f 96//17 86//17 85//17
f 95//2 85//2 87//2
f 87//2 89//2 91//2
f 91//2 93//2 95//2
f 98//12 100//12 99//12
f 100//13 102//13 101//13
f 101//14 102//14 104//14
f 103//19 104//19 106//19
f 102//6 100//6 98//6
f 98//6 108//6 106//6
f 106//6 104//6 102//6
f 106//16 108//16 107//16
f 108//26 98//26 97//26
f 107//2 97//2 99//2
f 99//2 101//2 103//2
f 103//2 105//2 107//2
f 110//27 112//27 111//27
f 112//13 114//13 113//13
f 114//14 116//14 115//14
f 116//19 118//19 117//19
f 114//6 112//6 110//6
f 110//6 120//6 118//6
f 118//6 116//6 114//6
f 118//16 120//16 119//16
f 120//26 110//26 109//26
f 119//2 109//2 111//2
f 111//2 113//2 115//2
f 115//2 117//2 119//2
f 122//27 124//27 123//27
f 124//13 126//13 125//13
f 126//18 128//18 127//18
f 128//15 130//15 129//15
f 126//6 124//6 122//6
f 122//6 132//6 130//6
f 130//106 128//106 126//106
f 130//16 132//16 131//16
f 132//26 122//26 121//26
f 131//2 121//2 123//2
f 123//2 125//2 127//2
f 127//2 129//2 131//2
f 134//12 136//12 135//12
f 136//13 138//13 137//13
f 138//18 140//18 139//18
f 139//19 140//19 142//19
f 138//6 136//6 134//6
f 134//6 144//6 142//6
f 142//6 140//6 138//6
f 142//16 144//16 143//16
f 144//26 134//26 133//26
f 143//2 133//2 135//2
f 135//2 137//2 139//2
f 139//2 141//2 143//2
f 146//12 148//12 147//12
f 148//13 150//13 149//13
f 150//18 152//18 151//18
f 151//19 152//19 154//19
f 150//6 148//6 146//6
f 146//6 156//6 154//6
f 154//6 152//6 150//6
f 154//16 156//16 155//16
f 156//17 146//17 145//17
f 155//2 145//2 147//2
f 147//2 149//2 151//2
f 151//2 153//2 155//2
f 158//27 160//27 159//27
f 160//13 162//13 161//13
f 162//18 164//18 163//18
f 164//15 166//15 165//15
f 162//6 160//6 158//6
f 158//6 168//6 166//6
f 166//106 164//106 162//106
f 166//16 168//16 167//16
f 168//17 158//17 157//17
f 167//2 157//2 159//2
f 159//2 161//2 163//2
f 163//2 165//2 167//2
f 170//12 172//12 171//12
f 172//13 174//13 173//13
f 174//14 176//14 175//14
f 176//15 178//15 177//15
f 174//6 172//6 170//6
f 170//6 180//6 178//6
f 178//6 176//6 174//6
f 178//16 180//16 179//16
f 180//17 170//17 169//17
f 179//2 169//2 171//2
f 171//2 173//2 175//2
f 175//2 177//2 179//2
f 182//12 184//12 183//12
f 184//13 186//13 185//13
f 186//14 188//14 187//14
f 188//19 190//19 189//19
f 186//6 184//6 182//6
f 182//6 192//6 190//6
f 190//6 188//6 186//6
f 190//16 192//16 191//16
f 192//26 182//26 181//26
f 191//2 181//2 183//2
f 183//2 185//2 187//2
f 187//2 189//2 191//2
f 194//12 196//12 195//12
f 196//13 198//13 197//13
f 198//14 200//14 199//14
f 199//24 200//24 202//24
f 198//6 196//6 194//6
f 194//6 204//6 202//6
f 202//6 200//6 198//6
f 202//16 204//16 203//16
f 204//25 194//25 193//25
f 203//2 193//2 195//2
f 195//2 197//2 199//2
f 199//2 201//2 203//2
f 206//27 208//27 207//27
f 208//13 210//13 209//13
f 210//14 212//14 211//14
f 212//15 214//15 213//15
f 210//6 208//6 206//6
f 206//108 216//108 214//108
f 214//6 212//6 210//6
f 214//16 216//16 215//16
f 216//25 206//25 205//25
f 215//2 205//2 207//2
f 207//37 209//37 211//37
f 211//2 213//2 215//2
f 218//22 220//22 219//22
f 220//13 222//13 221//13
f 222//18 224//18 223//18
f 224//24 226//24 225//24
f 222//6 220//6 218//6
f 218//6 228//6 226//6
f 226//106 224//106 222//106
f 226//16 228//16 227//16
f 228//26 218//26 217//26
f 227//2 217//2 219//2
f 219//2 221//2 223//2
f 223//55 225//55 227//55
f 230//12 232//12 231//12
f 232//13 234//13 233//13
f 234//18 236//18 235//18
f 235//15 236//15 238//15
f 234//44 232//44 230//44
f 230//6 240//6 238//6
f 238//6 236//6 234//6
f 238//16 240//16 239//16
f 240//26 230//26 229//26
f 239//2 229//2 231//2
f 231//2 233//2 235//2
f 235//2 237//2 239//2
f 242//27 244//27 243//27
f 244//13 246//13 245//13
f 246//14 248//14 247//14
f 247//24 248//24 250//24
f 246//6 244//6 242//6
f 242//6 252//6 250//6
f 250//108 248//108 246//108
f 250//16 252//16 251//16
f 252//25 242//25 241//25
f 251//37 241//37 243//37
f 243//2 245//2 247//2
f 247//2 249//2 251//2
f 254//12 256//12 255//12
f 256//13 258//13 257//13
f 258//21 260//21 259//21
f 260//19 262//19 261//19
f 258//6 256//6 254//6
f 254//6 264//6 262//6
f 262//109 260//109 258//109
f 262//16 264//16 263//16
f 264//17 254//17 253//17
f 263//2 253//2 255//2
f 255//2 257//2 259//2
f 259//2 261//2 263//2
f 266//12 268//12 267//12
f 268//13 270//13 269//13
f 270//18 272//18 271//18
f 272//15 274//15 273//15
f 270//6 268//6 266//6
f 266//6 276//6 274//6
f 274//6 272//6 270//6
f 274//16 276//16 275//16
f 276//17 266//17 265//17
f 275//55 265//55 267//55
f 267//2 269//2 271//2
f 271//49 273//49 275//49
f 278//27 280//27 279//27
f 280//13 282//13 281//13
f 282//14 284//14 283//14
f 283//24 284//24 286//24
f 282//6 280//6 278//6
f 278//6 288//6 286//6
f 286//108 284//108 282//108
f 286//16 288//16 287//16
f 288//17 278//17 277//17
f 287//37 277//37 279//37
f 279//2 281//2 283//2
f 283//2 285//2 287//2
f 290//12 292//12 291//12
f 292//13 294//13 293//13
f 294//14 296//14 295//14
f 295//24 296//24 298//24
f 294//6 292//6 290//6
f 290//6 300//6 298//6
f 298//6 296//6 294//6
f 298//16 300//16 299//16
f 300//17 290//17 289//17
f 299//2 289//2 291//2
f 291//2 293//2 295//2
f 295//2 297//2 299//2
f 302//22 304//22 303//22
f 304//13 306//13 305//13
f 306//14 308//14 307//14
f 308//15 310//15 309//15
f 306//6 304//6 302//6
f 302//6 312//6 310//6
f 310//6 308//6 306//6
f 310//16 312//16 311//16
f 312//17 302//17 301//17
f 311//2 301//2 303//2
f 303//2 305//2 307//2
f 307//55 309//55 311//55
f 314//22 316//22 315//22
f 316//13 318//13 317//13
f 318//14 320//14 319//14
f 320//15 322//15 321//15
f 318//40 316//40 314//40
f 314//6 324//6 322//6
f 322//106 320//106 318//106
f 322//16 324//16 323//16
f 324//17 314//17 313//17
f 323//2 313//2 315//2
f 315//2 317//2 319//2
f 319//2 321//2 323//2
f 326//27 328//27 327//27
f 328//13 330//13 329//13
f 330//14 332//14 331//14
f 332//19 334//19 333//19
f 330//6 328//6 326//6
f 326//6 336//6 334//6
f 334//6 332//6 330//6
f 334//16 336//16 335//16
f 335//26 336//26 326//26
f 335//37 325//37 327//37
f 327//2 329//2 331//2
f 331//2 333//2 335//2
f 338//27 340//27 339//27
f 340//13 342//13 341//13
f 342//14 344//14 343//14
f 343//15 344//15 346//15
f 342//6 340//6 338//6
f 338//108 348//108 346//108
f 346//108 344//108 342//108
f 346//16 348//16 347//16
f 348//17 338//17 337//17
f 347//2 337//2 339//2
f 339//2 341//2 343//2
f 343//2 345//2 347//2
f 350//12 352//12 351//12
f 352//13 354//13 353//13
f 354//18 356//18 355//18
f 356//15 358//15 357//15
f 354//40 352//40 350//40
f 350//40 360//40 358//40
f 358//106 356//106 354//106
f 358//16 360//16 359//16
f 360//26 350//26 349//26
f 359//2 349//2 351//2
f 351//2 353//2 355//2
f 355//2 357//2 359//2
f 362//12 364//12 363//12
f 364//13 366//13 365//13
f 366//14 368//14 367//14
f 368//19 370//19 369//19
f 366//6 364//6 362//6
f 362//45 372//45 370//45
f 370//6 368//6 366//6
f 370//16 372//16 371//16
f 372//17 362//17 361//17
f 371//2 361//2 363//2
f 363//2 365//2 367//2
f 367//2 369//2 371//2
f 374//12 376//12 375//12
f 376//13 378//13 377//13
f 378//14 380//14 379//14
f 380//15 382//15 381//15
f 378//6 376//6 374//6
f 374//6 384//6 382//6
f 382//6 380//6 378//6
f 382//16 384//16 383//16
f 384//17 374//17 373//17
f 383//2 373//2 375//2
f 375//2 377//2 379//2
f 379//2 381//2 383//2
f 386//12 388//12 387//12
f 388//13 390//13 389//13
f 390//14 392//14 391//14
f 391//15 392//15 394//15
f 390//6 388//6 386//6
f 386//6 396//6 394//6
f 394//6 392//6 390//6
f 394//16 396//16 395//16
f 396//17 386//17 385//17
f 395//55 385//55 387//55
f 387//2 389//2 391//2
f 391//2 393//2 395//2
f 398//12 400//12 399//12
f 400//13 402//13 401//13
f 402//14 404//14 403//14
f 404//15 406//15 405//15
f 402//6 400//6 398//6
f 398//6 408//6 406//6
f 406//6 404//6 402//6
f 406//16 408//16 407//16
f 408//17 398//17 397//17
f 407//55 397//55 399//55
f 399//2 401//2 403//2
f 403//2 405//2 407//2
f 410//12 412//12 411//12
f 412//13 414//13 413//13
f 414//14 416//14 415//14
f 416//15 418//15 417//15
f 414//6 412//6 410//6
f 410//6 420//6 418//6
f 418//6 416//6 414//6
f 418//16 420//16 419//16
f 420//17 410//17 409//17
f 419//2 409//2 411//2
f 411//2 413//2 415//2
f 415//2 417//2 419//2
f 422//12 424//12 423//12
f 424//13 426//13 425//13
f 425//14 426//14 428//14
f 428//15 430//15 429//15
f 426//6 424//6 422//6
f 422//6 432//6 430//6
f 430//6 428//6 426//6
f 430//16 432//16 431//16
f 432//17 422//17 421//17
f 431//2 421//2 423//2
f 423//2 425//2 427//2
f 427//2 429//2 431//2
f 434//12 436//12 435//12
f 436//13 438//13 437//13
f 437//14 438//14 440//14
f 439//19 440//19 442//19
f 438//40 436//40 434//40
f 434//6 444//6 442//6
f 442//45 440//45 438//45
f 442//16 444//16 443//16
f 444//17 434//17 433//17
f 443//2 433//2 435//2
f 435//2 437//2 439//2
f 439//2 441//2 443//2
f 446//12 448//12 447//12
f 448//13 450//13 449//13
f 450//14 452//14 451//14
f 452//15 454//15 453//15
f 450//40 448//40 446//40
f 446//6 456//6 454//6
f 454//45 452//45 450//45
f 454//16 456//16 455//16
f 456//17 446//17 445//17
f 455//2 445//2 447//2
f 447//2 449//2 451//2
f 451//2 453//2 455//2
f 458//12 460//12 459//12
f 460//13 462//13 461//13
f 462//14 464//14 463//14
f 464//15 466//15 465//15
f 462//6 460//6 458//6
f 458//6 468//6 466//6
f 466//6 464//6 462//6
f 466//16 468//16 467//16
f 468//17 458//17 457//17
f 467//55 457//55 459//55
f 459//2 461//2 463//2
f 463//2 465//2 467//2
f 470//12 472//12 471//12
f 472//13 474//13 473//13
f 474//14 476//14 475//14
f 475//15 476//15 478//15
f 474//40 472//40 470//40
f 470//6 480//6 478//6
f 478//6 476//6 474//6
f 478//16 480//16 479//16
f 480//17 470//17 469//17
f 479//2 469//2 471//2
f 471//2 473//2 475//2
f 475//2 477//2 479//2
f 482//12 484//12 483//12
f 484//13 486//13 485//13
f 485//14 486//14 488//14
f 487//15 488//15 490//15
f 486//6 484//6 482//6
f 482//6 492//6 490//6
f 490//6 488//6 486//6
f 490//16 492//16 491//16
f 492//17 482//17 481//17
f 491//2 481//2 483//2
f 483//2 485//2 487//2
f 487//2 489//2 491//2
f 494//12 496//12 495//12
f 496//13 498//13 497//13
f 498//14 500//14 499//14
f 500//15 502//15 501//15
f 498//6 496//6 494//6
f 494//6 504//6 502//6
f 502//106 500//106 498//106
f 502//16 504//16 503//16
f 504//17 494//17 493//17
f 503//2 493//2 495//2
f 495//2 497//2 499//2
f 499//2 501//2 503//2
f 506//12 508//12 507//12
f 508//13 510//13 509//13
f 510//14 512//14 511//14
f 512//15 514//15 513//15
f 510//6 508//6 506//6
f 506//6 516//6 514//6
f 514//6 512//6 510//6
f 514//16 516//16 515//16
f 516//17 506//17 505//17
f 515//2 505//2 507//2
f 507//2 509//2 511//2
f 511//37 513//37 515//37
f 518//12 520//12 519//12
f 520//13 522//13 521//13
f 521//14 522//14 524//14
f 524//15 526//15 525//15
f 522//6 520//6 518//6
f 518//40 528//40 526//40
f 526//6 524//6 522//6
f 526//16 528//16 527//16
f 528//17 518//17 517//17
f 527//2 517//2 519//2
f 519//55 521//55 523//55
f 523//2 525//2 527//2
f 530//12 532//12 531//12
f 532//13 534//13 533//13
f 534//14 536//14 535//14
f 536//15 538//15 537//15
f 534//40 532//40 530//40
f 530//40 540//40 538//40
f 538//110 536//110 534//110
f 538//16 540//16 539//16
f 540//17 530//17 529//17
f 539//2 529//2 531//2
f 531//2 533//2 535//2
f 535//55 537//55 539//55
f 542//12 544//12 543//12
f 544//13 546//13 545//13
f 546//14 548//14 547//14
f 548//15 550//15 549//15
f 546//6 544//6 542//6
f 542//6 552//6 550//6
f 550//6 548//6 546//6
f 550//16 552//16 551//16
f 552//17 542//17 541//17
f 551//47 541//47 543//47
f 543//2 545//2 547//2
f 547//2 549//2 551//2
f 554//12 556//12 555//12
f 556//13 558//13 557//13
f 557//18 558//18 560//18
f 559//15 560//15 562//15
f 558//6 556//6 554//6
f 554//6 564//6 562//6
f 562//6 560//6 558//6
f 562//16 564//16 563//16
f 564//17 554//17 553//17
f 563//2 553//2 555//2
f 555//2 557//2 559//2
f 559//2 561//2 563//2
f 566//27 568//27 567//27
f 568//13 570//13 569//13
f 570//14 572//14 571//14
f 572//19 574//19 573//19
f 570//6 568//6 566//6
f 566//6 576//6 574//6
f 574//106 572//106 570//106
f 574//16 576//16 575//16
f 576//17 566//17 565//17
f 575//2 565//2 567//2
f 567//2 569//2 571//2
f 571//2 573//2 575//2
f 578//12 580//12 579//12
f 580//13 582//13 581//13
f 582//111 584//111 583//111
f 584//15 586//15 585//15
f 582//6 580//6 578//6
f 578//6 588//6 586//6
f 586//45 584//45 582//45
f 586//31 588//31 587//31
f 588//17 578//17 577//17
f 587//55 577//55 579//55
f 579//2 581//2 583//2
f 583//2 585//2 587//2
f 590//12 592//12 591//12
f 592//29 594//29 593//29
f 593//111 594//111 596//111
f 596//15 598//15 597//15
f 594//6 592//6 590//6
f 590//6 600//6 598//6
f 598//45 596//45 594//45
f 598//16 600//16 599//16
f 600//33 590//33 589//33
f 599//2 589//2 591//2
f 591//2 593//2 595//2
f 595//2 597//2 599//2
f 602//112 604//112 603//112
f 604//13 606//13 605//13
f 606//113 608//113 607//113
f 608//15 610//15 609//15
f 606//40 604//40 602//40
f 602//6 612//6 610//6
f 610//106 608//106 606//106
f 610//31 612//31 611//31
f 612//17 602//17 601//17
f 611//2 601//2 603//2
f 603//2 605//2 607//2
f 607//2 609//2 611//2
f 614//12 616//12 615//12
f 616//29 618//29 617//29
f 618//14 620//14 619//14
f 620//32 622//32 621//32
f 618//6 616//6 614//6
f 614//40 624//40 622//40
f 622//6 620//6 618//6
f 622//31 624//31 623//31
f 624//17 614//17 613//17
f 623//2 613//2 615//2
f 615//55 617//55 619//55
f 619//2 621//2 623//2
f 626//12 628//12 627//12
f 628//29 630//29 629//29
f 629//14 630//14 632//14
f 631//19 632//19 634//19
f 630//6 628//6 626//6
f 626//6 636//6 634//6
f 634//6 632//6 630//6
f 634//31 636//31 635//31
f 636//17 626//17 625//17
f 635//2 625//2 627//2
f 627//2 629//2 631//2
f 631//2 633//2 635//2
f 638//12 640//12 639//12
f 640//29 642//29 641//29
f 642//14 644//14 643//14
f 644//15 646//15 645//15
f 642//6 640//6 638//6
f 638//6 648//6 646//6
f 646//106 644//106 642//106
f 646//31 648//31 647//31
f 648//33 638//33 637//33
f 647//55 637//55 639//55
f 639//2 641//2 643//2
f 643//2 645//2 647//2
f 650//28 652//28 651//28
f 652//13 654//13 653//13
f 654//14 656//14 655//14
f 656//30 658//30 657//30
f 654//6 652//6 650//6
f 650//6 660//6 658//6
f 658//45 656//45 654//45
f 658//16 660//16 659//16
f 660//17 650//17 649//17
f 659//2 649//2 651//2
f 651//2 653//2 655//2
f 655//2 657//2 659//2
f 662//12 664//12 663//12
f 664//29 666//29 665//29
f 665//14 666//14 668//14
f 668//32 670//32 669//32
f 666//40 664//40 662//40
f 662//6 672//6 670//6
f 670//6 668//6 666//6
f 670//16 672//16 671//16
f 672//17 662//17 661//17
f 671//49 661//49 663//49
f 663//2 665//2 667//2
f 667//2 669//2 671//2
f 674//12 676//12 675//12
f 676//13 678//13 677//13
f 678//14 680//14 679//14
f 680//15 682//15 681//15
f 678//40 676//40 674//40
f 674//6 684//6 682//6
f 682//114 680//114 678//114
f 682//31 684//31 683//31
f 684//17 674//17 673//17
f 683//55 673//55 675//55
f 675//2 677//2 679//2
f 679//2 681//2 683//2
f 686//12 688//12 687//12
f 688//29 690//29 689//29
f 690//111 692//111 691//111
f 692//15 694//15 693//15
f 690//40 688//40 686//40
f 686//6 696//6 694//6
f 694//44 692//44 690//44
f 694//16 696//16 695//16
f 696//33 686//33 685//33
f 695//2 685//2 687//2
f 687//2 689//2 691//2
f 691//55 693//55 695//55
f 698//28 700//28 699//28
f 700//29 702//29 701//29
f 702//14 704//14 703//14
f 703//15 704//15 706//15
f 702//40 700//40 698//40
f 698//6 708//6 706//6
f 706//40 704//40 702//40
f 706//16 708//16 707//16
f 708//17 698//17 697//17
f 707//49 697//49 699//49
f 699//2 701//2 703//2
f 703//2 705//2 707//2
f 710//28 712//28 711//28
f 712//13 714//13 713//13
f 714//14 716//14 715//14
f 716//15 718//15 717//15
f 714//6 712//6 710//6
f 710//6 720//6 718//6
f 718//106 716//106 714//106
f 718//16 720//16 719//16
f 720//17 710//17 709//17
f 719//2 709//2 711//2
f 711//2 713//2 715//2
f 715//2 717//2 719//2
f 722//53 724//53 723//53
f 724//13 726//13 725//13
f 726//21 728//21 727//21
f 728//56 730//56 729//56
f 726//6 724//6 722//6
f 722//6 732//6 730//6
f 730//45 728//45 726//45
f 730//41 732//41 731//41
f 732//25 722//25 721//25
f 731//47 721//47 723//47
f 723//55 725//55 727//55
f 727//37 729//37 731//37
f 734//22 736//22 735//22
f 736//34 738//34 737//34
f 738//35 740//35 739//35
f 739//56 740//56 742//56
f 738//40 736//40 734//40
f 734//40 744//40 742//40
f 742//6 740//6 738//6
f 742//16 744//16 743//16
f 744//25 734//25 733//25
f 743//115 733//115 735//115
f 735//2 737//2 739//2
f 739//2 741//2 743//2
f 746//53 748//53 747//53
f 748//34 750//34 749//34
f 750//54 752//54 751//54
f 752//24 754//24 753//24
f 750//40 748//40 746//40
f 746//6 756//6 754//6
f 754//106 752//106 750//106
f 754//41 756//41 755//41
f 756//36 746//36 745//36
f 755//49 745//49 747//49
f 747//55 749//55 751//55
f 751//2 753//2 755//2
f 758//116 760//116 759//116
f 760//13 762//13 761//13
f 762//21 764//21 763//21
f 764//59 766//59 765//59
f 762//40 760//40 758//40
f 758//6 768//6 766//6
f 766//45 764//45 762//45
f 766//16 768//16 767//16
f 768//25 758//25 757//25
f 767//47 757//47 759//47
f 759//2 761//2 763//2
f 763//2 765//2 767//2
f 770//22 772//22 771//22
f 772//34 774//34 773//34
f 774//35 776//35 775//35
f 775//57 776//57 778//57
f 774//6 772//6 770//6
f 770//44 780//44 778//44
f 778//117 776//117 774//117
f 778//16 780//16 779//16
f 780//36 770//36 769//36
f 779//2 769//2 771//2
f 771//2 773//2 775//2
f 775//2 777//2 779//2
f 782//22 784//22 783//22
f 784//13 786//13 785//13
f 786//54 788//54 787//54
f 788//24 790//24 789//24
f 786//44 784//44 782//44
f 782//44 792//44 790//44
f 790//118 788//118 786//118
f 790//41 792//41 791//41
f 792//119 782//119 781//119
f 791//49 781//49 783//49
f 783//2 785//2 787//2
f 787//2 789//2 791//2
f 794//53 796//53 795//53
f 796//13 798//13 797//13
f 798//51 800//51 799//51
f 800//59 802//59 801//59
f 798//44 796//44 794//44
f 794//6 804//6 802//6
f 802//120 800//120 798//120
f 802//16 804//16 803//16
f 804//25 794//25 793//25
f 803//47 793//47 795//47
f 795//2 797//2 799//2
f 799//2 801//2 803//2
f 805//38 806//38 808//38
f 808//34 810//34 809//34
f 809//21 810//21 812//21
f 811//43 812//43 814//43
f 810//6 808//6 806//6
f 806//6 816//6 814//6
f 814//44 812//44 810//44
f 814//16 816//16 815//16
f 816//36 806//36 805//36
f 815//2 805//2 807//2
f 807//2 809//2 811//2
f 811//2 813//2 815//2
f 818//58 820//58 819//58
f 820//13 822//13 821//13
f 822//35 824//35 823//35
f 824//24 826//24 825//24
f 822//6 820//6 818//6
f 818//6 828//6 826//6
f 826//106 824//106 822//106
f 826//16 828//16 827//16
f 828//36 818//36 817//36
f 827//49 817//49 819//49
f 819//2 821//2 823//2
f 823//2 825//2 827//2
f 830//53 832//53 831//53
f 832//13 834//13 833//13
f 834//21 836//21 835//21
f 836//56 838//56 837//56
f 834//6 832//6 830//6
f 830//6 840//6 838//6
f 838//45 836//45 834//45
f 838//16 840//16 839//16
f 840//25 830//25 829//25
f 839//47 829//47 831//47
f 831//2 833//2 835//2
f 835//2 837//2 839//2
f 842//116 844//116 843//116
f 844//34 846//34 845//34
f 846//21 848//21 847//21
f 848//56 850//56 849//56
f 846//44 844//44 842//44
f 842//6 852//6 850//6
f 850//121 848//121 846//121
f 850//16 852//16 851//16
f 852//25 842//25 841//25
f 851//2 841//2 843//2
f 843//2 845//2 847//2
f 847//2 849//2 851//2
f 854//22 856//22 855//22
f 856//13 858//13 857//13
f 858//35 860//35 859//35
f 860//24 862//24 861//24
f 858//6 856//6 854//6
f 854//6 864//6 862//6
f 862//106 860//106 858//106
f 862//16 864//16 863//16
f 864//36 854//36 853//36
f 863//2 853//2 855//2
f 855//2 857//2 859//2
f 859//2 861//2 863//2
f 866//53 868//53 867//53
f 868//34 870//34 869//34
f 870//21 872//21 871//21
f 872//24 874//24 873//24
f 870//6 868//6 866//6
f 866//6 876//6 874//6
f 874//6 872//6 870//6
f 874//16 876//16 875//16
f 876//48 866//48 865//48
f 875//2 865//2 867//2
f 867//2 869//2 871//2
f 871//49 873//49 875//49
f 878//116 880//116 879//116
f 880//34 882//34 881//34
f 882//21 884//21 883//21
f 883//52 884//52 886//52
f 882//44 880//44 878//44
f 878//6 888//6 886//6
f 886//6 884//6 882//6
f 886//16 888//16 887//16
f 888//25 878//25 877//25
f 887//2 877//2 879//2
f 879//2 881//2 883//2
f 883//2 885//2 887//2
f 890//22 892//22 891//22
f 892//13 894//13 893//13
f 894//54 896//54 895//54
f 896//52 898//52 897//52
f 894//6 892//6 890//6
f 890//6 900//6 898//6
f 898//44 896//44 894//44
f 898//16 900//16 899//16
f 900//36 890//36 889//36
f 899//49 889//49 891//49
f 891//2 893//2 895//2
f 895//49 897//49 899//49
f 902//53 904//53 903//53
f 904//13 906//13 905//13
f 906//21 908//21 907//21
f 908//56 910//56 909//56
f 906//6 904//6 902//6
f 902//6 912//6 910//6
f 910//45 908//45 906//45
f 910//16 912//16 911//16
f 912//36 902//36 901//36
f 911//47 901//47 903//47
f 903//49 905//49 907//49
f 907//2 909//2 911//2
f 914//116 916//116 915//116
f 916//34 918//34 917//34
f 918//35 920//35 919//35
f 920//24 922//24 921//24
f 918//6 916//6 914//6
f 914//6 924//6 922//6
f 922//6 920//6 918//6
f 922//16 924//16 923//16
f 924//48 914//48 913//48
f 923//2 913//2 915//2
f 915//2 917//2 919//2
f 919//2 921//2 923//2
f 926//22 928//22 927//22
f 928//13 930//13 929//13
f 930//35 932//35 931//35
f 932//24 934//24 933//24
f 930//44 928//44 926//44
f 926//6 936//6 934//6
f 934//106 932//106 930//106
f 934//16 936//16 935//16
f 936//119 926//119 925//119
f 935//115 925//115 927//115
f 927//2 929//2 931//2
f 931//2 933//2 935//2
f 938//53 940//53 939//53
f 940//13 942//13 941//13
f 942//51 944//51 943//51
f 944//56 946//56 945//56
f 942//44 940//44 938//44
f 938//6 948//6 946//6
f 946//120 944//120 942//120
f 946//16 948//16 947//16
f 948//25 938//25 937//25
f 947//2 937//2 939//2
f 939//49 941//49 943//49
f 943//2 945//2 947//2
usemtl hatch_yellow
f 26//9 27//9 25//9
f 28//2 29//2 27//2
f 29//3 32//3 31//3
f 32//10 33//10 31//10
f 26//11 34//11 30//11
f 34//6 35//6 33//6
f 36//7 25//7 35//7
f 27//8 31//8 35//8
f 26//1 28//1 27//1
f 28//2 30//2 29//2
f 29//3 30//3 32//3
f 32//4 34//4 33//4
f 30//97 28//97 26//97
f 26//104 36//104 34//104
f 34//105 32//105 30//105
f 34//6 36//6 35//6
f 36//7 26//7 25//7
f 35//8 25//8 27//8
f 27//8 29//8 31//8
f 31//8 33//8 35//8
usemtl cable_black
f 950//61 951//61 949//61
f 952//62 953//62 951//62
f 954//63 955//63 953//63
f 956//64 957//64 955//64
f 958//65 959//65 957//65
f 960//66 961//66 959//66
f 962//67 958//67 954//67
f 962//68 963//68 961//68
f 964//69 949//69 963//69
f 955//70 959//70 963//70
f 966//71 967//71 965//71
f 968//72 969//72 967//72
f 970//73 971//73 969//73
f 972//74 973//74 971//74
f 974//75 975//75 973//75
f 976//76 977//76 975//76
f 978//77 974//77 970//77
f 978//78 979//78 977//78
f 980//79 965//79 979//79
f 971//80 975//80 979//80
f 982//81 983//81 981//81
f 984//82 985//82 983//82
f 986//83 987//83 985//83
f 988//84 989//84 987//84
f 990//85 991//85 989//85
f 992//86 993//86 991//86
f 994//87 990//87 986//87
f 994//88 995//88 993//88
f 996//89 981//89 995//89
f 987//90 991//90 995//90
f 950//61 952//61 951//61
f 952//62 954//62 953//62
f 954//63 956//63 955//63
f 956//64 958//64 957//64
f 958//65 960//65 959//65
f 960//66 962//66 961//66
f 954//122 952//122 950//122
f 950//67 964//67 962//67
f 962//122 960//122 958//122
f 958//67 956//67 954//67
f 954//123 950//123 962//123
f 962//68 964//68 963//68
f 964//69 950//69 949//69
f 963//80 949//80 951//80
f 951//70 953//70 955//70
f 955//80 957//80 959//80
f 959//70 961//70 963//70
f 963//70 951//70 955//70
f 966//71 968//71 967//71
f 968//72 970//72 969//72
f 970//73 972//73 971//73
f 972//74 974//74 973//74
f 974//75 976//75 975//75
f 976//76 978//76 977//76
f 970//87 968//87 966//87
f 966//67 980//67 978//67
f 978//87 976//87 974//87
f 974//67 972//67 970//67
f 970//77 966//77 978//77
f 978//78 980//78 979//78
f 980//79 966//79 965//79
f 979//80 965//80 967//80
f 967//80 969//80 971//80
f 971//80 973//80 975//80
f 975//80 977//80 979//80
f 979//80 967//80 971//80
f 982//81 984//81 983//81
f 984//82 986//82 985//82
f 986//83 988//83 987//83
f 988//84 990//84 989//84
f 990//85 992//85 991//85
f 992//86 994//86 993//86
f 986//87 984//87 982//87
f 982//87 996//87 994//87
f 994//87 992//87 990//87
f 990//77 988//77 986//77
f 986//77 982//77 994//77
f 994//88 996//88 995//88
f 996//89 982//89 981//89
f 995//80 981//80 983//80
f 983//90 985//90 987//90
f 987//80 989//80 991//80
f 991//90 993//90 995//90
f 995//90 983//90 987//90
usemtl lamp
f 998//91 999//91 997//91
f 1000//92 1003//92 999//92
f 1004//93 1001//93 1003//93
f 1002//94 997//94 1001//94
f 1003//95 997//95 999//95
f 1000//96 1002//96 1004//96
f 998//91 1000//91 999//91
f 1000//92 1004//92 1003//92
f 1004//93 1002//93 1001//93
f 1002//94 998//94 997//94
f 1003//95 1001//95 997//95
f 1000//96 998//96 1002//96
