# Blender 5.2.2 LTS
# www.blender.org
mtllib lifting_platform.mtl
o lifting_platform
v -0.450000 -0.450000 -0.040000
v -0.450000 -0.450000 0.000000
v -0.450000 0.450000 -0.040000
v -0.450000 0.450000 0.000000
v 0.450000 -0.450000 -0.040000
v 0.450000 -0.450000 0.000000
v 0.450000 0.450000 -0.040000
v 0.450000 0.450000 0.000000
v -0.450000 -0.450000 -0.100000
v -0.450000 -0.450000 -0.040000
v -0.450000 0.450000 -0.100000
v -0.450000 0.450000 -0.040000
v 0.450000 -0.450000 -0.100000
v 0.450000 -0.450000 -0.040000
v 0.450000 0.450000 -0.100000
v 0.450000 0.450000 -0.040000
v -0.425404 -0.425404 0.002364
v -0.005404 -0.005404 1.922364
v -0.427601 -0.417803 0.001182
v -0.007601 0.002197 1.921182
v -0.422197 -0.412399 -0.001182
v -0.002197 0.007601 1.918818
v -0.414596 -0.414596 -0.002364
v 0.005404 0.005404 1.917636
v -0.412399 -0.422197 -0.001182
v 0.007601 -0.002197 1.918818
v -0.417803 -0.427601 0.001182
v 0.002197 -0.007601 1.921182
v -0.425404 0.425404 0.002364
v -0.005404 0.005404 1.922364
v -0.417803 0.427601 0.001182
v 0.002197 0.007601 1.921182
v -0.412399 0.422197 -0.001182
v 0.007601 0.002197 1.918818
v -0.414596 0.414596 -0.002364
v 0.005404 -0.005404 1.917636
v -0.422197 0.412399 -0.001182
v -0.002197 -0.007601 1.918818
v -0.427601 0.417803 0.001182
v -0.007601 -0.002197 1.921182
v 0.425404 -0.425404 0.002364
v 0.005404 -0.005404 1.922364
v 0.417803 -0.427601 0.001182
v -0.002197 -0.007601 1.921182
v 0.412399 -0.422197 -0.001182
v -0.007601 -0.002197 1.918818
v 0.414596 -0.414596 -0.002364
v -0.005404 0.005404 1.917636
v 0.422197 -0.412399 -0.001182
v 0.002197 0.007601 1.918818
v 0.427601 -0.417803 0.001182
v 0.007601 0.002197 1.921182
v 0.425404 0.425404 0.002364
v 0.005404 0.005404 1.922364
v 0.427601 0.417803 0.001182
v 0.007601 -0.002197 1.921182
v 0.422197 0.412399 -0.001182
v 0.002197 -0.007601 1.918818
v 0.414596 0.414596 -0.002364
v -0.005404 -0.005404 1.917636
v 0.412399 0.422197 -0.001182
v -0.007601 0.002197 1.918818
v 0.417803 0.427601 0.001182
v -0.002197 0.007601 1.921182
v -0.450000 -0.450000 0.000000
v -0.450000 -0.450000 0.080000
v -0.450000 -0.430000 0.000000
v -0.450000 -0.430000 0.080000
v 0.450000 -0.450000 0.000000
v 0.450000 -0.450000 0.080000
v 0.450000 -0.430000 0.000000
v 0.450000 -0.430000 0.080000
v -0.450000 0.430000 0.000000
v -0.450000 0.430000 0.080000
v -0.450000 0.450000 0.000000
v -0.450000 0.450000 0.080000
v 0.450000 0.430000 0.000000
v 0.450000 0.430000 0.080000
v 0.450000 0.450000 0.000000
v 0.450000 0.450000 0.080000
vn -1.0000 -0.0000 -0.0000
vn -0.0000 1.0000 -0.0000
vn 1.0000 -0.0000 -0.0000
vn -0.0000 -1.0000 -0.0000
vn -0.0000 -0.0000 -1.0000
vn -0.0000 -0.0000 1.0000
vn -0.9386 -0.2315 0.2559
vn -0.7071 0.7071 -0.0000
vn 0.2315 0.9386 -0.2559
vn 0.9386 0.2315 -0.2559
vn 0.2090 0.2090 0.9553
vn 0.7071 -0.7071 -0.0000
vn -0.2315 -0.9386 0.2559
vn -0.2090 -0.2090 -0.9553
vn -0.2315 0.9386 0.2559
vn 0.7071 0.7071 -0.0000
vn 0.9386 -0.2315 -0.2559
vn 0.2315 -0.9386 -0.2559
vn 0.2090 -0.2090 0.9553
vn -0.7071 -0.7071 -0.0000
vn -0.9386 0.2315 0.2559
vn -0.2090 0.2090 -0.9553
vn 0.2315 -0.9386 0.2559
vn -0.9386 0.2315 -0.2559
vn -0.2315 0.9386 -0.2559
vn -0.2090 0.2090 0.9553
vn 0.9386 -0.2315 0.2559
vn 0.2090 -0.2090 -0.9553
vn 0.9386 0.2315 0.2559
vn -0.2315 -0.9386 -0.2559
vn -0.9386 -0.2315 -0.2559
vn -0.2090 -0.2090 0.9553
vn 0.2315 0.9386 0.2559
vn 0.2090 0.2090 -0.9553
s 0
usemtl grating
f 2//1 3//1 1//1
f 4//2 7//2 3//2
f 8//3 5//3 7//3
f 6//4 1//4 5//4
f 7//5 1//5 3//5
f 4//6 6//6 8//6
f 2//1 4//1 3//1
f 4//2 8//2 7//2
f 8//3 6//3 5//3
f 6//4 2//4 1//4
f 7//5 5//5 1//5
f 4//6 2//6 6//6
usemtl hatch_yellow
f 10//1 11//1 9//1
f 12//2 15//2 11//2
f 16//3 13//3 15//3
f 14//4 9//4 13//4
f 15//5 9//5 11//5
f 12//6 14//6 16//6
f 66//1 67//1 65//1
f 68//2 71//2 67//2
f 72//3 69//3 71//3
f 70//4 65//4 69//4
f 71//5 65//5 67//5
f 68//6 70//6 72//6
f 74//1 75//1 73//1
f 76//2 79//2 75//2
f 80//3 77//3 79//3
f 78//4 73//4 77//4
f 79//5 73//5 75//5
f 76//6 78//6 80//6
f 10//1 12//1 11//1
f 12//2 16//2 15//2
f 16//3 14//3 13//3
f 14//4 10//4 9//4
f 15//5 13//5 9//5
f 12//6 10//6 14//6
f 66//1 68//1 67//1
f 68//2 72//2 71//2
f 72//3 70//3 69//3
f 70//4 66//4 65//4
f 71//5 69//5 65//5
f 68//6 66//6 70//6
f 74//1 76//1 75//1
f 76//2 80//2 79//2
f 80//3 78//3 77//3
f 78//4 74//4 73//4
f 79//5 77//5 73//5
f 76//6 74//6 78//6
usemtl bolt_black
f 17//7 20//7 19//7
f 19//8 22//8 21//8
f 21//9 24//9 23//9
f 23//10 26//10 25//10
f 18//11 26//11 22//11
f 26//12 27//12 25//12
f 28//13 17//13 27//13
f 19//14 23//14 27//14
f 30//15 31//15 29//15
f 32//16 33//16 31//16
f 33//17 36//17 35//17
f 35//18 38//18 37//18
f 30//19 38//19 34//19
f 37//20 40//20 39//20
f 39//21 30//21 29//21
f 31//22 35//22 39//22
f 42//23 43//23 41//23
f 43//20 46//20 45//20
f 45//24 48//24 47//24
f 48//25 49//25 47//25
f 42//26 50//26 46//26
f 49//16 52//16 51//16
f 52//27 41//27 51//27
f 43//28 47//28 51//28
f 54//29 55//29 53//29
f 56//12 57//12 55//12
f 58//30 59//30 57//30
f 59//31 62//31 61//31
f 54//32 62//32 58//32
f 62//8 63//8 61//8
f 64//33 53//33 63//33
f 55//34 59//34 63//34
f 17//7 18//7 20//7
f 19//8 20//8 22//8
f 21//9 22//9 24//9
f 23//10 24//10 26//10
f 22//11 20//11 18//11
f 18//11 28//11 26//11
f 26//11 24//11 22//11
f 26//12 28//12 27//12
f 28//13 18//13 17//13
f 27//14 17//14 19//14
f 19//14 21//14 23//14
f 23//14 25//14 27//14
f 30//15 32//15 31//15
f 32//16 34//16 33//16
f 33//17 34//17 36//17
f 35//18 36//18 38//18
f 34//19 32//19 30//19
f 30//19 40//19 38//19
f 38//19 36//19 34//19
f 37//20 38//20 40//20
f 39//21 40//21 30//21
f 39//22 29//22 31//22
f 31//22 33//22 35//22
f 35//22 37//22 39//22
f 42//23 44//23 43//23
f 43//20 44//20 46//20
f 45//24 46//24 48//24
f 48//25 50//25 49//25
f 46//26 44//26 42//26
f 42//26 52//26 50//26
f 50//26 48//26 46//26
f 49//16 50//16 52//16
f 52//27 42//27 41//27
f 51//28 41//28 43//28
f 43//28 45//28 47//28
f 47//28 49//28 51//28
f 54//29 56//29 55//29
f 56//12 58//12 57//12
f 58//30 60//30 59//30
f 59//31 60//31 62//31
f 58//32 56//32 54//32
f 54//32 64//32 62//32
f 62//32 60//32 58//32
f 62//8 64//8 63//8
f 64//33 54//33 53//33
f 63//34 53//34 55//34
f 55//34 57//34 59//34
f 59//34 61//34 63//34
