# Blender 5.2.2 LTS
# www.blender.org
mtllib lift_rails.mtl
o lift_rails
v -0.850000 -0.518000 -0.059998
v -0.850000 -0.518000 107.699997
v -0.856928 -0.514000 -0.059998
v -0.856928 -0.514000 107.699997
v -0.856928 -0.506000 -0.059998
v -0.856928 -0.506000 107.699997
v -0.850000 -0.502000 -0.059998
v -0.850000 -0.502000 107.699997
v -0.843072 -0.506000 -0.059998
v -0.843072 -0.506000 107.699997
v -0.843072 -0.514000 -0.059998
v -0.843072 -0.514000 107.699997
v -0.850000 0.502000 -0.059998
v -0.850000 0.502000 107.699997
v -0.856928 0.506000 -0.059998
v -0.856928 0.506000 107.699997
v -0.856928 0.514000 -0.059998
v -0.856928 0.514000 107.699997
v -0.850000 0.518000 -0.059998
v -0.850000 0.518000 107.699997
v -0.843072 0.514000 -0.059998
v -0.843072 0.514000 107.699997
v -0.843072 0.506000 -0.059998
v -0.843072 0.506000 107.699997
v -0.850000 -0.006000 2.139999
v -0.850000 -0.006000 107.699997
v -0.855196 -0.003000 2.139999
v -0.855196 -0.003000 107.699997
v -0.855196 0.003000 2.139999
v -0.855196 0.003000 107.699997
v -0.850000 0.006000 2.139999
v -0.850000 0.006000 107.699997
v -0.844804 0.003000 2.139999
v -0.844804 0.003000 107.699997
v -0.844804 -0.003000 2.139999
v -0.844804 -0.003000 107.699997
v -1.150000 -0.550000 107.649994
v -1.150000 -0.550000 107.750000
v -1.150000 0.550000 107.649994
v -1.150000 0.550000 107.750000
v -0.550000 -0.550000 107.649994
v -0.550000 -0.550000 107.750000
v -0.550000 0.550000 107.649994
v -0.550000 0.550000 107.750000
vn -0.5000 -0.8660 -0.0000
vn -1.0000 -0.0000 -0.0000
vn -0.5000 0.8660 -0.0000
vn 0.5000 0.8660 -0.0000
vn -0.0000 -0.0000 1.0000
vn 1.0000 -0.0000 -0.0000
vn 0.5000 -0.8660 -0.0000
vn -0.0000 -0.0000 -1.0000
vn -0.0004 -0.0000 1.0000
vn -0.0000 1.0000 -0.0000
vn -0.0000 -1.0000 -0.0000
vn -0.0022 -0.0000 1.0000
vn 0.0022 -0.0000 1.0000
vn 0.0019 -0.0000 1.0000
vn 0.0001 -0.0000 -1.0000
s 0
usemtl pipe_steel
f 2//1 3//1 1//1
f 4//2 5//2 3//2
f 6//3 7//3 5//3
f 8//4 9//4 7//4
f 2//5 10//5 6//5
f 10//6 11//6 9//6
f 12//7 1//7 11//7
f 3//8 7//8 11//8
f 14//1 15//1 13//1
f 16//2 17//2 15//2
f 18//3 19//3 17//3
f 20//4 21//4 19//4
f 14//5 22//5 18//5
f 22//6 23//6 21//6
f 24//7 13//7 23//7
f 15//8 19//8 23//8
f 26//1 27//1 25//1
f 28//2 29//2 27//2
f 30//3 31//3 29//3
f 32//4 33//4 31//4
f 26//9 34//9 30//9
f 34//6 35//6 33//6
f 36//7 25//7 35//7
f 27//8 31//8 35//8
f 2//1 4//1 3//1
f 4//2 6//2 5//2
f 6//3 8//3 7//3
f 8//4 10//4 9//4
f 6//12 4//12 2//12
f 2//13 12//13 10//13
f 10//5 8//5 6//5
f 10//6 12//6 11//6
f 12//7 2//7 1//7
f 11//8 1//8 3//8
f 3//8 5//8 7//8
f 7//8 9//8 11//8
f 14//1 16//1 15//1
f 16//2 18//2 17//2
f 18//3 20//3 19//3
f 20//4 22//4 21//4
f 18//12 16//12 14//12
f 14//13 24//13 22//13
f 22//5 20//5 18//5
f 22//6 24//6 23//6
f 24//7 14//7 13//7
f 23//8 13//8 15//8
f 15//8 17//8 19//8
f 19//8 21//8 23//8
f 26//1 28//1 27//1
f 28//2 30//2 29//2
f 30//3 32//3 31//3
f 32//4 34//4 33//4
f 30//14 28//14 26//14
f 26//5 36//5 34//5
f 34//5 32//5 30//5
f 34//6 36//6 35//6
f 36//7 26//7 25//7
f 35//8 25//8 27//8
f 27//8 29//8 31//8
f 31//15 33//15 35//15
usemtl steel_grey
f 38//2 39//2 37//2
f 40//10 43//10 39//10
f 44//6 41//6 43//6
f 42//11 37//11 41//11
f 43//8 37//8 39//8
f 40//5 42//5 44//5
f 38//2 40//2 39//2
f 40//10 44//10 43//10
f 44//6 42//6 41//6
f 42//11 38//11 37//11
f 43//8 41//8 37//8
f 40//5 38//5 42//5
