# Blender 5.2.2 LTS
# www.blender.org
mtllib lift_car.mtl
o lift_car
v -0.450000 -0.450000 -0.040000
v -0.450000 -0.450000 0.000000
v -0.450000 0.450000 -0.040000
v -0.450000 0.450000 0.000000
v 0.450000 -0.450000 -0.040000
v 0.450000 -0.450000 0.000000
v 0.450000 0.450000 -0.040000
v 0.450000 0.450000 0.000000
v -0.450000 -0.450000 2.200000
v -0.450000 -0.450000 2.240000
v -0.450000 0.450000 2.200000
v -0.450000 0.450000 2.240000
v 0.450000 -0.450000 2.200000
v 0.450000 -0.450000 2.240000
v 0.450000 0.450000 2.200000
v 0.450000 0.450000 2.240000
v -0.200000 -0.200000 2.240000
v -0.200000 -0.200000 2.500000
v -0.200000 0.200000 2.240000
v -0.200000 0.200000 2.500000
v 0.200000 -0.200000 2.240000
v 0.200000 -0.200000 2.500000
v 0.200000 0.200000 2.240000
v 0.200000 0.200000 2.500000
v -0.450000 -0.470000 0.000000
v -0.450000 -0.470000 2.200000
v -0.460000 -0.467321 0.000000
v -0.460000 -0.467321 2.200000
v -0.467321 -0.460000 0.000000
v -0.467321 -0.460000 2.200000
v -0.470000 -0.450000 0.000000
v -0.470000 -0.450000 2.200000
v -0.467321 -0.440000 0.000000
v -0.467321 -0.440000 2.200000
v -0.460000 -0.432679 0.000000
v -0.460000 -0.432679 2.200000
v -0.450000 -0.430000 0.000000
v -0.450000 -0.430000 2.200000
v -0.440000 -0.432679 0.000000
v -0.440000 -0.432679 2.200000
v -0.432679 -0.440000 0.000000
v -0.432679 -0.440000 2.200000
v -0.430000 -0.450000 0.000000
v -0.430000 -0.450000 2.200000
v -0.432679 -0.460000 0.000000
v -0.432679 -0.460000 2.200000
v -0.440000 -0.467321 0.000000
v -0.440000 -0.467321 2.200000
v -0.450000 0.430000 0.000000
v -0.450000 0.430000 2.200000
v -0.460000 0.432679 0.000000
v -0.460000 0.432679 2.200000
v -0.467321 0.440000 0.000000
v -0.467321 0.440000 2.200000
v -0.470000 0.450000 0.000000
v -0.470000 0.450000 2.200000
v -0.467321 0.460000 0.000000
v -0.467321 0.460000 2.200000
v -0.460000 0.467321 0.000000
v -0.460000 0.467321 2.200000
v -0.450000 0.470000 0.000000
v -0.450000 0.470000 2.200000
v -0.440000 0.467321 0.000000
v -0.440000 0.467321 2.200000
v -0.432679 0.460000 0.000000
v -0.432679 0.460000 2.200000
v -0.430000 0.450000 0.000000
v -0.430000 0.450000 2.200000
v -0.432679 0.440000 0.000000
v -0.432679 0.440000 2.200000
v -0.440000 0.432679 0.000000
v -0.440000 0.432679 2.200000
v 0.450000 -0.470000 0.000000
v 0.450000 -0.470000 2.200000
v 0.440000 -0.467321 0.000000
v 0.440000 -0.467321 2.200000
v 0.432679 -0.460000 0.000000
v 0.432679 -0.460000 2.200000
v 0.430000 -0.450000 0.000000
v 0.430000 -0.450000 2.200000
v 0.432679 -0.440000 0.000000
v 0.432679 -0.440000 2.200000
v 0.440000 -0.432679 0.000000
v 0.440000 -0.432679 2.200000
v 0.450000 -0.430000 0.000000
v 0.450000 -0.430000 2.200000
v 0.460000 -0.432679 0.000000
v 0.460000 -0.432679 2.200000
v 0.467321 -0.440000 0.000000
v 0.467321 -0.440000 2.200000
v 0.470000 -0.450000 0.000000
v 0.470000 -0.450000 2.200000
v 0.467321 -0.460000 0.000000
v 0.467321 -0.460000 2.200000
v 0.460000 -0.467321 0.000000
v 0.460000 -0.467321 2.200000
v 0.450000 0.430000 0.000000
v 0.450000 0.430000 2.200000
v 0.440000 0.432679 0.000000
v 0.440000 0.432679 2.200000
v 0.432679 0.440000 0.000000
v 0.432679 0.440000 2.200000
v 0.430000 0.450000 0.000000
v 0.430000 0.450000 2.200000
v 0.432679 0.460000 0.000000
v 0.432679 0.460000 2.200000
v 0.440000 0.467321 0.000000
v 0.440000 0.467321 2.200000
v 0.450000 0.470000 0.000000
v 0.450000 0.470000 2.200000
v 0.460000 0.467321 0.000000
v 0.460000 0.467321 2.200000
v 0.467321 0.460000 0.000000
v 0.467321 0.460000 2.200000
v 0.470000 0.450000 0.000000
v 0.470000 0.450000 2.200000
v 0.467321 0.440000 0.000000
v 0.467321 0.440000 2.200000
v 0.460000 0.432679 0.000000
v 0.460000 0.432679 2.200000
v -0.450000 -0.450000 0.515000
v 0.450000 -0.450000 0.515000
v -0.450000 -0.442500 0.512990
v 0.450000 -0.442500 0.512990
v -0.450000 -0.437010 0.507500
v 0.450000 -0.437010 0.507500
v -0.450000 -0.435000 0.500000
v 0.450000 -0.435000 0.500000
v -0.450000 -0.437010 0.492500
v 0.450000 -0.437010 0.492500
v -0.450000 -0.442500 0.487010
v 0.450000 -0.442500 0.487010
v -0.450000 -0.450000 0.485000
v 0.450000 -0.450000 0.485000
v -0.450000 -0.457500 0.487010
v 0.450000 -0.457500 0.487010
v -0.450000 -0.462990 0.492500
v 0.450000 -0.462990 0.492500
v -0.450000 -0.465000 0.500000
v 0.450000 -0.465000 0.500000
v -0.450000 -0.462990 0.507500
v 0.450000 -0.462990 0.507500
v -0.450000 -0.457500 0.512990
v 0.450000 -0.457500 0.512990
v -0.450000 0.450000 0.515000
v 0.450000 0.450000 0.515000
v -0.450000 0.457500 0.512990
v 0.450000 0.457500 0.512990
v -0.450000 0.462990 0.507500
v 0.450000 0.462990 0.507500
v -0.450000 0.465000 0.500000
v 0.450000 0.465000 0.500000
v -0.450000 0.462990 0.492500
v 0.450000 0.462990 0.492500
v -0.450000 0.457500 0.487010
v 0.450000 0.457500 0.487010
v -0.450000 0.450000 0.485000
v 0.450000 0.450000 0.485000
v -0.450000 0.442500 0.487010
v 0.450000 0.442500 0.487010
v -0.450000 0.437010 0.492500
v 0.450000 0.437010 0.492500
v -0.450000 0.435000 0.500000
v 0.450000 0.435000 0.500000
v -0.450000 0.437010 0.507500
v 0.450000 0.437010 0.507500
v -0.450000 0.442500 0.512990
v 0.450000 0.442500 0.512990
v -0.450000 -0.450000 0.515000
v -0.450000 0.450000 0.515000
v -0.457500 -0.450000 0.512990
v -0.457500 0.450000 0.512990
v -0.462990 -0.450000 0.507500
v -0.462990 0.450000 0.507500
v -0.465000 -0.450000 0.500000
v -0.465000 0.450000 0.500000
v -0.462990 -0.450000 0.492500
v -0.462990 0.450000 0.492500
v -0.457500 -0.450000 0.487010
v -0.457500 0.450000 0.487010
v -0.450000 -0.450000 0.485000
v -0.450000 0.450000 0.485000
v -0.442500 -0.450000 0.487010
v -0.442500 0.450000 0.487010
v -0.437010 -0.450000 0.492500
v -0.437010 0.450000 0.492500
v -0.435000 -0.450000 0.500000
v -0.435000 0.450000 0.500000
v -0.437010 -0.450000 0.507500
v -0.437010 0.450000 0.507500
v -0.442500 -0.450000 0.512990
v -0.442500 0.450000 0.512990
v -0.450000 -0.450000 1.015000
v 0.450000 -0.450000 1.015000
v -0.450000 -0.442500 1.012990
v 0.450000 -0.442500 1.012990
v -0.450000 -0.437010 1.007500
v 0.450000 -0.437010 1.007500
v -0.450000 -0.435000 1.000000
v 0.450000 -0.435000 1.000000
v -0.450000 -0.437010 0.992500
v 0.450000 -0.437010 0.992500
v -0.450000 -0.442500 0.987010
v 0.450000 -0.442500 0.987010
v -0.450000 -0.450000 0.985000
v 0.450000 -0.450000 0.985000
v -0.450000 -0.457500 0.987010
v 0.450000 -0.457500 0.987010
v -0.450000 -0.462990 0.992500
v 0.450000 -0.462990 0.992500
v -0.450000 -0.465000 1.000000
v 0.450000 -0.465000 1.000000
v -0.450000 -0.462990 1.007500
v 0.450000 -0.462990 1.007500
v -0.450000 -0.457500 1.012990
v 0.450000 -0.457500 1.012990
v -0.450000 0.450000 1.015000
v 0.450000 0.450000 1.015000
v -0.450000 0.457500 1.012990
v 0.450000 0.457500 1.012990
v -0.450000 0.462990 1.007500
v 0.450000 0.462990 1.007500
v -0.450000 0.465000 1.000000
v 0.450000 0.465000 1.000000
v -0.450000 0.462990 0.992500
v 0.450000 0.462990 0.992500
v -0.450000 0.457500 0.987010
v 0.450000 0.457500 0.987010
v -0.450000 0.450000 0.985000
v 0.450000 0.450000 0.985000
v -0.450000 0.442500 0.987010
v 0.450000 0.442500 0.987010
v -0.450000 0.437010 0.992500
v 0.450000 0.437010 0.992500
v -0.450000 0.435000 1.000000
v 0.450000 0.435000 1.000000
v -0.450000 0.437010 1.007500
v 0.450000 0.437010 1.007500
v -0.450000 0.442500 1.012990
v 0.450000 0.442500 1.012990
v -0.450000 -0.450000 1.015000
v -0.450000 0.450000 1.015000
v -0.457500 -0.450000 1.012990
v -0.457500 0.450000 1.012990
v -0.462990 -0.450000 1.007500
v -0.462990 0.450000 1.007500
v -0.465000 -0.450000 1.000000
v -0.465000 0.450000 1.000000
v -0.462990 -0.450000 0.992500
v -0.462990 0.450000 0.992500
v -0.457500 -0.450000 0.987010
v -0.457500 0.450000 0.987010
v -0.450000 -0.450000 0.985000
v -0.450000 0.450000 0.985000
v -0.442500 -0.450000 0.987010
v -0.442500 0.450000 0.987010
v -0.437010 -0.450000 0.992500
v -0.437010 0.450000 0.992500
v -0.435000 -0.450000 1.000000
v -0.435000 0.450000 1.000000
v -0.437010 -0.450000 1.007500
v -0.437010 0.450000 1.007500
v -0.442500 -0.450000 1.012990
v -0.442500 0.450000 1.012990
v -0.455000 -0.450000 0.050000
v -0.455000 -0.450000 1.100000
v -0.455000 0.450000 0.050000
v -0.455000 0.450000 1.100000
v -0.450000 -0.450000 0.050000
v -0.450000 -0.450000 1.100000
v -0.450000 0.450000 0.050000
v -0.450000 0.450000 1.100000
v -0.440000 0.100000 1.100000
v -0.440000 0.100000 1.350000
v -0.440000 0.300000 1.100000
v -0.440000 0.300000 1.350000
v -0.390000 0.100000 1.100000
v -0.390000 0.100000 1.350000
v -0.390000 0.300000 1.100000
v -0.390000 0.300000 1.350000
vn -1.0000 -0.0000 -0.0000
vn -0.0000 1.0000 -0.0000
vn 1.0000 -0.0000 -0.0000
vn -0.0000 -1.0000 -0.0000
vn -0.0000 -0.0000 -1.0000
vn -0.0000 -0.0000 1.0000
vn -0.2588 -0.9659 -0.0000
vn -0.7071 -0.7071 -0.0000
vn -0.9659 -0.2588 -0.0000
vn -0.9659 0.2588 -0.0000
vn -0.7071 0.7071 -0.0000
vn -0.2588 0.9659 -0.0000
vn 0.2588 0.9659 -0.0000
vn 0.7071 0.7071 -0.0000
vn 0.9659 0.2588 -0.0000
vn 0.9659 -0.2588 -0.0000
vn 0.7071 -0.7071 -0.0000
vn 0.2588 -0.9659 -0.0000
vn -0.0000 0.2588 0.9659
vn -0.0000 0.7071 0.7071
vn -0.0000 0.9659 0.2588
vn -0.0000 0.9659 -0.2588
vn -0.0000 0.7071 -0.7071
vn -0.0000 0.2588 -0.9659
vn -0.0000 -0.2588 -0.9659
vn -0.0000 -0.7071 -0.7071
vn -0.0000 -0.9659 -0.2588
vn -0.0000 -0.9659 0.2588
vn -0.0000 -0.7071 0.7071
vn -0.0000 -0.2588 0.9659
vn -0.2588 -0.0000 0.9659
vn -0.7071 -0.0000 0.7071
vn -0.9659 -0.0000 0.2588
vn -0.9659 -0.0000 -0.2588
vn -0.7071 -0.0000 -0.7071
vn -0.2588 -0.0000 -0.9659
vn 0.2588 -0.0000 -0.9659
vn 0.7071 -0.0000 -0.7071
vn 0.9659 -0.0000 -0.2588
vn 0.9659 -0.0000 0.2588
vn 0.7071 -0.0000 0.7071
vn 0.2588 -0.0000 0.9659
s 0
usemtl grating
f 2//1 3//1 1//1
f 4//2 7//2 3//2
f 8//3 5//3 7//3
f 6//4 1//4 5//4
f 7//5 1//5 3//5
f 4//6 6//6 8//6
f 2//1 4//1 3//1
f 4//2 8//2 7//2
f 8//3 6//3 5//3
f 6//4 2//4 1//4
f 7//5 5//5 1//5
f 4//6 2//6 6//6
usemtl hatch_yellow
f 10//1 11//1 9//1
f 12//2 15//2 11//2
f 16//3 13//3 15//3
f 14//4 9//4 13//4
f 15//5 9//5 11//5
f 12//6 14//6 16//6
f 26//7 27//7 25//7
f 28//8 29//8 27//8
f 30//9 31//9 29//9
f 32//10 33//10 31//10
f 34//11 35//11 33//11
f 36//12 37//12 35//12
f 38//13 39//13 37//13
f 40//14 41//14 39//14
f 42//15 43//15 41//15
f 44//16 45//16 43//16
f 46//6 38//6 30//6
f 46//17 47//17 45//17
f 48//18 25//18 47//18
f 31//5 39//5 47//5
f 50//7 51//7 49//7
f 52//8 53//8 51//8
f 54//9 55//9 53//9
f 56//10 57//10 55//10
f 58//11 59//11 57//11
f 60//12 61//12 59//12
f 62//13 63//13 61//13
f 64//14 65//14 63//14
f 66//15 67//15 65//15
f 68//16 69//16 67//16
f 70//6 62//6 54//6
f 70//17 71//17 69//17
f 72//18 49//18 71//18
f 55//5 63//5 71//5
f 74//7 75//7 73//7
f 76//8 77//8 75//8
f 78//9 79//9 77//9
f 80//10 81//10 79//10
f 82//11 83//11 81//11
f 84//12 85//12 83//12
f 86//13 87//13 85//13
f 88//14 89//14 87//14
f 90//15 91//15 89//15
f 92//16 93//16 91//16
f 94//6 86//6 78//6
f 94//17 95//17 93//17
f 96//18 73//18 95//18
f 79//5 87//5 95//5
f 98//7 99//7 97//7
f 100//8 101//8 99//8
f 102//9 103//9 101//9
f 104//10 105//10 103//10
f 106//11 107//11 105//11
f 108//12 109//12 107//12
f 110//13 111//13 109//13
f 112//14 113//14 111//14
f 114//15 115//15 113//15
f 116//16 117//16 115//16
f 118//6 110//6 102//6
f 118//17 119//17 117//17
f 120//18 97//18 119//18
f 103//5 111//5 119//5
f 122//19 123//19 121//19
f 124//20 125//20 123//20
f 126//21 127//21 125//21
f 128//22 129//22 127//22
f 130//23 131//23 129//23
f 132//24 133//24 131//24
f 134//25 135//25 133//25
f 136//26 137//26 135//26
f 138//27 139//27 137//27
f 140//28 141//28 139//28
f 142//3 134//3 126//3
f 142//29 143//29 141//29
f 143//30 122//30 121//30
f 127//1 135//1 143//1
f 145//19 148//19 147//19
f 148//20 149//20 147//20
f 150//21 151//21 149//21
f 152//22 153//22 151//22
f 154//23 155//23 153//23
f 156//24 157//24 155//24
f 157//25 160//25 159//25
f 160//26 161//26 159//26
f 162//27 163//27 161//27
f 164//28 165//28 163//28
f 166//3 158//3 150//3
f 166//29 167//29 165//29
f 168//30 145//30 167//30
f 151//1 159//1 167//1
f 170//31 171//31 169//31
f 172//32 173//32 171//32
f 174//33 175//33 173//33
f 176//34 177//34 175//34
f 178//35 179//35 177//35
f 180//36 181//36 179//36
f 182//37 183//37 181//37
f 184//38 185//38 183//38
f 186//39 187//39 185//39
f 188//40 189//40 187//40
f 190//2 182//2 174//2
f 190//41 191//41 189//41
f 192//42 169//42 191//42
f 175//4 183//4 191//4
f 194//19 195//19 193//19
f 196//20 197//20 195//20
f 198//21 199//21 197//21
f 200//22 201//22 199//22
f 202//23 203//23 201//23
f 204//24 205//24 203//24
f 205//25 208//25 207//25
f 208//26 209//26 207//26
f 209//27 212//27 211//27
f 212//28 213//28 211//28
f 214//3 206//3 198//3
f 214//29 215//29 213//29
f 216//30 193//30 215//30
f 199//1 207//1 215//1
f 218//19 219//19 217//19
f 220//20 221//20 219//20
f 222//21 223//21 221//21
f 224//22 225//22 223//22
f 226//23 227//23 225//23
f 227//24 230//24 229//24
f 230//25 231//25 229//25
f 232//26 233//26 231//26
f 234//27 235//27 233//27
f 236//28 237//28 235//28
f 238//3 230//3 222//3
f 238//29 239//29 237//29
f 240//30 217//30 239//30
f 223//1 231//1 239//1
f 242//31 243//31 241//31
f 244//32 245//32 243//32
f 246//33 247//33 245//33
f 248//34 249//34 247//34
f 250//35 251//35 249//35
f 252//36 253//36 251//36
f 254//37 255//37 253//37
f 256//38 257//38 255//38
f 258//39 259//39 257//39
f 260//40 261//40 259//40
f 262//2 254//2 246//2
f 262//41 263//41 261//41
f 264//42 241//42 263//42
f 247//4 255//4 263//4
f 10//1 12//1 11//1
f 12//2 16//2 15//2
f 16//3 14//3 13//3
f 14//4 10//4 9//4
f 15//5 13//5 9//5
f 12//6 10//6 14//6
f 26//7 28//7 27//7
f 28//8 30//8 29//8
f 30//9 32//9 31//9
f 32//10 34//10 33//10
f 34//11 36//11 35//11
f 36//12 38//12 37//12
f 38//13 40//13 39//13
f 40//14 42//14 41//14
f 42//15 44//15 43//15
f 44//16 46//16 45//16
f 30//6 28//6 26//6
f 26//6 48//6 46//6
f 46//6 44//6 42//6
f 42//6 40//6 38//6
f 38//6 36//6 34//6
f 34//6 32//6 30//6
f 30//6 26//6 46//6
f 46//6 42//6 38//6
f 38//6 34//6 30//6
f 46//17 48//17 47//17
f 48//18 26//18 25//18
f 47//5 25//5 27//5
f 27//5 29//5 31//5
f 31//5 33//5 35//5
f 35//5 37//5 39//5
f 39//5 41//5 43//5
f 43//5 45//5 47//5
f 47//5 27//5 31//5
f 31//5 35//5 39//5
f 39//5 43//5 47//5
f 50//7 52//7 51//7
f 52//8 54//8 53//8
f 54//9 56//9 55//9
f 56//10 58//10 57//10
f 58//11 60//11 59//11
f 60//12 62//12 61//12
f 62//13 64//13 63//13
f 64//14 66//14 65//14
f 66//15 68//15 67//15
f 68//16 70//16 69//16
f 54//6 52//6 50//6
f 50//6 72//6 70//6
f 70//6 68//6 66//6
f 66//6 64//6 62//6
f 62//6 60//6 58//6
f 58//6 56//6 54//6
f 54//6 50//6 70//6
f 70//6 66//6 62//6
f 62//6 58//6 54//6
f 70//17 72//17 71//17
f 72//18 50//18 49//18
f 71//5 49//5 51//5
f 51//5 53//5 55//5
f 55//5 57//5 59//5
f 59//5 61//5 63//5
f 63//5 65//5 67//5
f 67//5 69//5 71//5
f 71//5 51//5 55//5
f 55//5 59//5 63//5
f 63//5 67//5 71//5
f 74//7 76//7 75//7
f 76//8 78//8 77//8
f 78//9 80//9 79//9
f 80//10 82//10 81//10
f 82//11 84//11 83//11
f 84//12 86//12 85//12
f 86//13 88//13 87//13
f 88//14 90//14 89//14
f 90//15 92//15 91//15
f 92//16 94//16 93//16
f 78//6 76//6 74//6
f 74//6 96//6 94//6
f 94//6 92//6 90//6
f 90//6 88//6 86//6
f 86//6 84//6 82//6
f 82//6 80//6 78//6
f 78//6 74//6 94//6
f 94//6 90//6 86//6
f 86//6 82//6 78//6
f 94//17 96//17 95//17
f 96//18 74//18 73//18
f 95//5 73//5 75//5
f 75//5 77//5 79//5
f 79//5 81//5 83//5
f 83//5 85//5 87//5
f 87//5 89//5 91//5
f 91//5 93//5 95//5
f 95//5 75//5 79//5
f 79//5 83//5 87//5
f 87//5 91//5 95//5
f 98//7 100//7 99//7
f 100//8 102//8 101//8
f 102//9 104//9 103//9
f 104//10 106//10 105//10
f 106//11 108//11 107//11
f 108//12 110//12 109//12
f 110//13 112//13 111//13
f 112//14 114//14 113//14
f 114//15 116//15 115//15
f 116//16 118//16 117//16
f 102//6 100//6 98//6
f 98//6 120//6 118//6
f 118//6 116//6 114//6
f 114//6 112//6 110//6
f 110//6 108//6 106//6
f 106//6 104//6 102//6
f 102//6 98//6 118//6
f 118//6 114//6 110//6
f 110//6 106//6 102//6
f 118//17 120//17 119//17
f 120//18 98//18 97//18
f 119//5 97//5 99//5
f 99//5 101//5 103//5
f 103//5 105//5 107//5
f 107//5 109//5 111//5
f 111//5 113//5 115//5
f 115//5 117//5 119//5
f 119//5 99//5 103//5
f 103//5 107//5 111//5
f 111//5 115//5 119//5
f 122//19 124//19 123//19
f 124//20 126//20 125//20
f 126//21 128//21 127//21
f 128//22 130//22 129//22
f 130//23 132//23 131//23
f 132//24 134//24 133//24
f 134//25 136//25 135//25
f 136//26 138//26 137//26
f 138//27 140//27 139//27
f 140//28 142//28 141//28
f 126//3 124//3 122//3
f 122//3 144//3 142//3
f 142//3 140//3 138//3
f 138//3 136//3 134//3
f 134//3 132//3 130//3
f 130//3 128//3 126//3
f 126//3 122//3 142//3
f 142//3 138//3 134//3
f 134//3 130//3 126//3
f 142//29 144//29 143//29
f 143//30 144//30 122//30
f 143//1 121//1 123//1
f 123//1 125//1 127//1
f 127//1 129//1 131//1
f 131//1 133//1 135//1
f 135//1 137//1 139//1
f 139//1 141//1 143//1
f 143//1 123//1 127//1
f 127//1 131//1 135//1
f 135//1 139//1 143//1
f 145//19 146//19 148//19
f 148//20 150//20 149//20
f 150//21 152//21 151//21
f 152//22 154//22 153//22
f 154//23 156//23 155//23
f 156//24 158//24 157//24
f 157//25 158//25 160//25
f 160//26 162//26 161//26
f 162//27 164//27 163//27
f 164//28 166//28 165//28
f 150//3 148//3 146//3
f 146//3 168//3 166//3
f 166//3 164//3 162//3
f 162//3 160//3 158//3
f 158//3 156//3 154//3
f 154//3 152//3 150//3
f 150//3 146//3 166//3
f 166//3 162//3 158//3
f 158//3 154//3 150//3
f 166//29 168//29 167//29
f 168//30 146//30 145//30
f 167//1 145//1 147//1
f 147//1 149//1 151//1
f 151//1 153//1 155//1
f 155//1 157//1 159//1
f 159//1 161//1 163//1
f 163//1 165//1 167//1
f 167//1 147//1 151//1
f 151//1 155//1 159//1
f 159//1 163//1 167//1
f 170//31 172//31 171//31
f 172//32 174//32 173//32
f 174//33 176//33 175//33
f 176//34 178//34 177//34
f 178//35 180//35 179//35
f 180//36 182//36 181//36
f 182//37 184//37 183//37
f 184//38 186//38 185//38
f 186//39 188//39 187//39
f 188//40 190//40 189//40
f 174//2 172//2 170//2
f 170//2 192//2 190//2
f 190//2 188//2 186//2
f 186//2 184//2 182//2
f 182//2 180//2 178//2
f 178//2 176//2 174//2
f 174//2 170//2 190//2
f 190//2 186//2 182//2
f 182//2 178//2 174//2
f 190//41 192//41 191//41
f 192//42 170//42 169//42
f 191//4 169//4 171//4
f 171//4 173//4 175//4
f 175//4 177//4 179//4
f 179//4 181//4 183//4
f 183//4 185//4 187//4
f 187//4 189//4 191//4
f 191//4 171//4 175//4
f 175//4 179//4 183//4
f 183//4 187//4 191//4
f 194//19 196//19 195//19
f 196//20 198//20 197//20
f 198//21 200//21 199//21
f 200//22 202//22 201//22
f 202//23 204//23 203//23
f 204//24 206//24 205//24
f 205//25 206//25 208//25
f 208//26 210//26 209//26
f 209//27 210//27 212//27
f 212//28 214//28 213//28
f 198//3 196//3 194//3
f 194//3 216//3 214//3
f 214//3 212//3 210//3
f 210//3 208//3 206//3
f 206//3 204//3 202//3
f 202//3 200//3 198//3
f 198//3 194//3 214//3
f 214//3 210//3 206//3
f 206//3 202//3 198//3
f 214//29 216//29 215//29
f 216//30 194//30 193//30
f 215//1 193//1 195//1
f 195//1 197//1 199//1
f 199//1 201//1 203//1
f 203//1 205//1 207//1
f 207//1 209//1 211//1
f 211//1 213//1 215//1
f 215//1 195//1 199//1
f 199//1 203//1 207//1
f 207//1 211//1 215//1
f 218//19 220//19 219//19
f 220//20 222//20 221//20
f 222//21 224//21 223//21
f 224//22 226//22 225//22
f 226//23 228//23 227//23
f 227//24 228//24 230//24
f 230//25 232//25 231//25
f 232//26 234//26 233//26
f 234//27 236//27 235//27
f 236//28 238//28 237//28
f 222//3 220//3 218//3
f 218//3 240//3 238//3
f 238//3 236//3 234//3
f 234//3 232//3 230//3
f 230//3 228//3 226//3
f 226//3 224//3 222//3
f 222//3 218//3 238//3
f 238//3 234//3 230//3
f 230//3 226//3 222//3
f 238//29 240//29 239//29
f 240//30 218//30 217//30
f 239//1 217//1 219//1
f 219//1 221//1 223//1
f 223//1 225//1 227//1
f 227//1 229//1 231//1
f 231//1 233//1 235//1
f 235//1 237//1 239//1
f 239//1 219//1 223//1
f 223//1 227//1 231//1
f 231//1 235//1 239//1
f 242//31 244//31 243//31
f 244//32 246//32 245//32
f 246//33 248//33 247//33
f 248//34 250//34 249//34
f 250//35 252//35 251//35
f 252//36 254//36 253//36
f 254//37 256//37 255//37
f 256//38 258//38 257//38
f 258//39 260//39 259//39
f 260//40 262//40 261//40
f 246//2 244//2 242//2
f 242//2 264//2 262//2
f 262//2 260//2 258//2
f 258//2 256//2 254//2
f 254//2 252//2 250//2
f 250//2 248//2 246//2
f 246//2 242//2 262//2
f 262//2 258//2 254//2
f 254//2 250//2 246//2
f 262//41 264//41 263//41
f 264//42 242//42 241//42
f 263//4 241//4 243//4
f 243//4 245//4 247//4
f 247//4 249//4 251//4
f 251//4 253//4 255//4
f 255//4 257//4 259//4
f 259//4 261//4 263//4
f 263//4 243//4 247//4
f 247//4 251//4 255//4
f 255//4 259//4 263//4
usemtl generator_paint
f 18//1 19//1 17//1
f 20//2 23//2 19//2
f 24//3 21//3 23//3
f 22//4 17//4 21//4
f 23//5 17//5 19//5
f 20//6 22//6 24//6
f 18//1 20//1 19//1
f 20//2 24//2 23//2
f 24//3 22//3 21//3
f 22//4 18//4 17//4
f 23//5 21//5 17//5
f 20//6 18//6 22//6
usemtl steel_grey
f 266//1 267//1 265//1
f 268//2 271//2 267//2
f 272//3 269//3 271//3
f 270//4 265//4 269//4
f 271//5 265//5 267//5
f 268//6 270//6 272//6
f 266//1 268//1 267//1
f 268//2 272//2 271//2
f 272//3 270//3 269//3
f 270//4 266//4 265//4
f 271//5 269//5 265//5
f 268//6 266//6 270//6
usemtl bolt_black
f 274//1 275//1 273//1
f 276//2 279//2 275//2
f 280//3 277//3 279//3
f 278//4 273//4 277//4
f 279//5 273//5 275//5
f 276//6 278//6 280//6
f 274//1 276//1 275//1
f 276//2 280//2 279//2
f 280//3 278//3 277//3
f 278//4 274//4 273//4
f 279//5 277//5 273//5
f 276//6 274//6 278//6
