# Blender 5.2.2 LTS
# www.blender.org
mtllib platform_2.mtl
o platform_2
v 0.000000 2.920868 31.260000
v 0.000000 2.920868 31.309999
v 0.286295 2.906803 31.260000
v 0.286295 2.906803 31.309999
v 0.569833 2.864744 31.260000
v 0.569833 2.864744 31.309999
v 0.847883 2.795097 31.260000
v 0.847883 2.795097 31.309999
v 1.117768 2.698530 31.260000
v 1.117768 2.698530 31.309999
v 1.376888 2.575976 31.260000
v 1.376888 2.575976 31.309999
v 1.622747 2.428613 31.260000
v 1.622747 2.428613 31.309999
v 1.852979 2.257862 31.260000
v 1.852979 2.257862 31.309999
v 2.065366 2.065366 31.260000
v 2.065366 2.065366 31.309999
v 2.257862 1.852979 31.260000
v 2.257862 1.852979 31.309999
v 2.428613 1.622747 31.260000
v 2.428613 1.622747 31.309999
v 2.575976 1.376888 31.260000
v 2.575976 1.376888 31.309999
v 2.698530 1.117768 31.260000
v 2.698530 1.117768 31.309999
v 2.795097 0.847883 31.260000
v 2.795097 0.847883 31.309999
v 2.864744 0.569833 31.260000
v 2.864744 0.569833 31.309999
v 2.906803 0.286295 31.260000
v 2.906803 0.286295 31.309999
v 2.920868 0.000000 31.260000
v 2.920868 0.000000 31.309999
v 2.906803 -0.286295 31.260000
v 2.906803 -0.286295 31.309999
v 2.864744 -0.569833 31.260000
v 2.864744 -0.569833 31.309999
v 2.795097 -0.847883 31.260000
v 2.795097 -0.847883 31.309999
v 2.698530 -1.117768 31.260000
v 2.698530 -1.117768 31.309999
v 2.575976 -1.376888 31.260000
v 2.575976 -1.376888 31.309999
v 2.428613 -1.622747 31.260000
v 2.428613 -1.622747 31.309999
v 2.257862 -1.852979 31.260000
v 2.257862 -1.852979 31.309999
v 2.065366 -2.065366 31.260000
v 2.065366 -2.065366 31.309999
v 1.852979 -2.257862 31.260000
v 1.852979 -2.257862 31.309999
v 1.622747 -2.428613 31.260000
v 1.622747 -2.428613 31.309999
v 1.376888 -2.575976 31.260000
v 1.376888 -2.575976 31.309999
v 1.117768 -2.698530 31.260000
v 1.117768 -2.698530 31.309999
v 0.847883 -2.795097 31.260000
v 0.847883 -2.795097 31.309999
v 0.569833 -2.864744 31.260000
v 0.569833 -2.864744 31.309999
v 0.286295 -2.906803 31.260000
v 0.286295 -2.906803 31.309999
v 0.000000 -2.920868 31.260000
v 0.000000 -2.920868 31.309999
v -0.286295 -2.906803 31.260000
v -0.286295 -2.906803 31.309999
v -0.569833 -2.864744 31.260000
v -0.569833 -2.864744 31.309999
v -0.847883 -2.795097 31.260000
v -0.847883 -2.795097 31.309999
v -1.117768 -2.698530 31.260000
v -1.117768 -2.698530 31.309999
v -1.376888 -2.575976 31.260000
v -1.376888 -2.575976 31.309999
v -1.622747 -2.428613 31.260000
v -1.622747 -2.428613 31.309999
v -1.852979 -2.257862 31.260000
v -1.852979 -2.257862 31.309999
v -2.257862 -1.852979 31.260000
v -2.257862 -1.852979 31.309999
v -2.428613 -1.622747 31.260000
v -2.428613 -1.622747 31.309999
v -2.575976 -1.376888 31.260000
v -2.575976 -1.376888 31.309999
v -2.698530 -1.117768 31.260000
v -2.698530 -1.117768 31.309999
v -2.795097 -0.847883 31.260000
v -2.795097 -0.847883 31.309999
v -2.864744 -0.569833 31.260000
v -2.864744 -0.569833 31.309999
v -2.906803 -0.286295 31.260000
v -2.906803 -0.286295 31.309999
v -2.920868 0.000000 31.260000
v -2.920868 0.000000 31.309999
v -2.906803 0.286295 31.260000
v -2.906803 0.286295 31.309999
v -2.864744 0.569833 31.260000
v -2.864744 0.569833 31.309999
v -2.795097 0.847883 31.260000
v -2.795097 0.847883 31.309999
v -2.698530 1.117768 31.260000
v -2.698530 1.117768 31.309999
v -2.575976 1.376888 31.260000
v -2.575976 1.376888 31.309999
v -2.428613 1.622747 31.260000
v -2.428613 1.622747 31.309999
v -2.257862 1.852979 31.260000
v -2.257862 1.852979 31.309999
v -2.065366 2.065366 31.260000
v -2.065366 2.065366 31.309999
v -1.852979 2.257862 31.260000
v -1.852979 2.257862 31.309999
v -1.622747 2.428613 31.260000
v -1.622747 2.428613 31.309999
v -1.376888 2.575976 31.260000
v -1.376888 2.575976 31.309999
v -1.117768 2.698530 31.260000
v -1.117768 2.698530 31.309999
v -0.847883 2.795097 31.260000
v -0.847883 2.795097 31.309999
v -0.569833 2.864744 31.260000
v -0.569833 2.864744 31.309999
v -0.286295 2.906803 31.260000
v -0.286295 2.906803 31.309999
v -1.380000 -0.530000 31.309999
v -1.380000 0.530000 31.309999
v -0.320000 0.530000 31.309999
v -0.320000 -0.530000 31.309999
v -1.380000 0.530000 31.260000
v -1.380000 -0.530000 31.260000
v -0.320000 -0.530000 31.260000
v -0.320000 0.530000 31.260000
v -1.905450 -2.210305 31.309999
v -1.905450 -2.210305 31.260000
v -2.210305 -1.905450 31.309999
v -2.210305 -1.905450 31.260000
v -1.510305 -1.510305 31.309999
v -2.210305 -1.510305 31.309999
v -1.510305 -2.210305 31.309999
v -2.210305 -1.510305 31.260000
v -1.510305 -2.210305 31.260000
v -1.510305 -1.510305 31.260000
v -1.430000 -0.580000 32.330002
v -0.270000 -0.580000 32.330002
v -1.430000 -0.570000 32.327320
v -0.270000 -0.570000 32.327320
v -1.430000 -0.562679 32.320000
v -0.270000 -0.562679 32.320000
v -1.430000 -0.560000 32.310001
v -0.270000 -0.560000 32.310001
v -1.430000 -0.562679 32.300003
v -0.270000 -0.562679 32.300003
v -1.430000 -0.570000 32.292683
v -0.270000 -0.570000 32.292683
v -1.430000 -0.580000 32.290001
v -0.270000 -0.580000 32.290001
v -1.430000 -0.590000 32.292683
v -0.270000 -0.590000 32.292683
v -1.430000 -0.597320 32.300003
v -0.270000 -0.597320 32.300003
v -1.430000 -0.600000 32.310001
v -0.270000 -0.600000 32.310001
v -1.430000 -0.597320 32.320000
v -0.270000 -0.597320 32.320000
v -1.430000 -0.590000 32.327320
v -0.270000 -0.590000 32.327320
v -1.430000 -0.580000 31.824999
v -0.270000 -0.580000 31.824999
v -1.430000 -0.572500 31.822990
v -0.270000 -0.572500 31.822990
v -1.430000 -0.567010 31.817499
v -0.270000 -0.567010 31.817499
v -1.430000 -0.565000 31.809999
v -0.270000 -0.565000 31.809999
v -1.430000 -0.567010 31.802500
v -0.270000 -0.567010 31.802500
v -1.430000 -0.572500 31.797009
v -0.270000 -0.572500 31.797009
v -1.430000 -0.580000 31.795000
v -0.270000 -0.580000 31.795000
v -1.430000 -0.587500 31.797009
v -0.270000 -0.587500 31.797009
v -1.430000 -0.592990 31.802500
v -0.270000 -0.592990 31.802500
v -1.430000 -0.595000 31.809999
v -0.270000 -0.595000 31.809999
v -1.430000 -0.592990 31.817499
v -0.270000 -0.592990 31.817499
v -1.430000 -0.587500 31.822990
v -0.270000 -0.587500 31.822990
v -1.430000 0.580000 32.330002
v -0.270000 0.580000 32.330002
v -1.430000 0.590000 32.327320
v -0.270000 0.590000 32.327320
v -1.430000 0.597320 32.320000
v -0.270000 0.597320 32.320000
v -1.430000 0.600000 32.310001
v -0.270000 0.600000 32.310001
v -1.430000 0.597320 32.300003
v -0.270000 0.597320 32.300003
v -1.430000 0.590000 32.292683
v -0.270000 0.590000 32.292683
v -1.430000 0.580000 32.290001
v -0.270000 0.580000 32.290001
v -1.430000 0.570000 32.292683
v -0.270000 0.570000 32.292683
v -1.430000 0.562679 32.300003
v -0.270000 0.562679 32.300003
v -1.430000 0.560000 32.310001
v -0.270000 0.560000 32.310001
v -1.430000 0.562679 32.320000
v -0.270000 0.562679 32.320000
v -1.430000 0.570000 32.327320
v -0.270000 0.570000 32.327320
v -1.430000 0.580000 31.824999
v -0.270000 0.580000 31.824999
v -1.430000 0.587500 31.822990
v -0.270000 0.587500 31.822990
v -1.430000 0.592990 31.817499
v -0.270000 0.592990 31.817499
v -1.430000 0.595000 31.809999
v -0.270000 0.595000 31.809999
v -1.430000 0.592990 31.802500
v -0.270000 0.592990 31.802500
v -1.430000 0.587500 31.797009
v -0.270000 0.587500 31.797009
v -1.430000 0.580000 31.795000
v -0.270000 0.580000 31.795000
v -1.430000 0.572500 31.797009
v -0.270000 0.572500 31.797009
v -1.430000 0.567010 31.802500
v -0.270000 0.567010 31.802500
v -1.430000 0.565000 31.809999
v -0.270000 0.565000 31.809999
v -1.430000 0.567010 31.817499
v -0.270000 0.567010 31.817499
v -1.430000 0.572500 31.822990
v -0.270000 0.572500 31.822990
v -1.430000 -0.580000 32.330002
v -1.430000 0.580000 32.330002
v -1.440000 -0.580000 32.327320
v -1.440000 0.580000 32.327320
v -1.447320 -0.580000 32.320000
v -1.447320 0.580000 32.320000
v -1.450000 -0.580000 32.310001
v -1.450000 0.580000 32.310001
v -1.447320 -0.580000 32.300003
v -1.447320 0.580000 32.300003
v -1.440000 -0.580000 32.292683
v -1.440000 0.580000 32.292683
v -1.430000 -0.580000 32.290001
v -1.430000 0.580000 32.290001
v -1.420000 -0.580000 32.292683
v -1.420000 0.580000 32.292683
v -1.412679 -0.580000 32.300003
v -1.412679 0.580000 32.300003
v -1.410000 -0.580000 32.310001
v -1.410000 0.580000 32.310001
v -1.412679 -0.580000 32.320000
v -1.412679 0.580000 32.320000
v -1.420000 -0.580000 32.327320
v -1.420000 0.580000 32.327320
v -1.430000 -0.580000 31.824999
v -1.430000 0.580000 31.824999
v -1.437500 -0.580000 31.822990
v -1.437500 0.580000 31.822990
v -1.442990 -0.580000 31.817499
v -1.442990 0.580000 31.817499
v -1.445000 -0.580000 31.809999
v -1.445000 0.580000 31.809999
v -1.442990 -0.580000 31.802500
v -1.442990 0.580000 31.802500
v -1.437500 -0.580000 31.797009
v -1.437500 0.580000 31.797009
v -1.430000 -0.580000 31.795000
v -1.430000 0.580000 31.795000
v -1.422500 -0.580000 31.797009
v -1.422500 0.580000 31.797009
v -1.417010 -0.580000 31.802500
v -1.417010 0.580000 31.802500
v -1.415000 -0.580000 31.809999
v -1.415000 0.580000 31.809999
v -1.417010 -0.580000 31.817499
v -1.417010 0.580000 31.817499
v -1.422500 -0.580000 31.822990
v -1.422500 0.580000 31.822990
v -1.430000 -0.600000 31.310001
v -1.430000 -0.600000 32.310001
v -1.440000 -0.597320 31.310001
v -1.440000 -0.597320 32.310001
v -1.447320 -0.590000 31.310001
v -1.447320 -0.590000 32.310001
v -1.450000 -0.580000 31.310001
v -1.450000 -0.580000 32.310001
v -1.447320 -0.570000 31.310001
v -1.447320 -0.570000 32.310001
v -1.440000 -0.562679 31.310001
v -1.440000 -0.562679 32.310001
v -1.430000 -0.560000 31.310001
v -1.430000 -0.560000 32.310001
v -1.420000 -0.562679 31.310001
v -1.420000 -0.562679 32.310001
v -1.412679 -0.570000 31.310001
v -1.412679 -0.570000 32.310001
v -1.410000 -0.580000 31.310001
v -1.410000 -0.580000 32.310001
v -1.412679 -0.590000 31.310001
v -1.412679 -0.590000 32.310001
v -1.420000 -0.597320 31.310001
v -1.420000 -0.597320 32.310001
v -0.270000 -0.600000 31.310001
v -0.270000 -0.600000 32.310001
v -0.280000 -0.597320 31.310001
v -0.280000 -0.597320 32.310001
v -0.287321 -0.590000 31.310001
v -0.287321 -0.590000 32.310001
v -0.290000 -0.580000 31.310001
v -0.290000 -0.580000 32.310001
v -0.287321 -0.570000 31.310001
v -0.287321 -0.570000 32.310001
v -0.280000 -0.562679 31.310001
v -0.280000 -0.562679 32.310001
v -0.270000 -0.560000 31.310001
v -0.270000 -0.560000 32.310001
v -0.260000 -0.562679 31.310001
v -0.260000 -0.562679 32.310001
v -0.252679 -0.570000 31.310001
v -0.252679 -0.570000 32.310001
v -0.250000 -0.580000 31.310001
v -0.250000 -0.580000 32.310001
v -0.252679 -0.590000 31.310001
v -0.252679 -0.590000 32.310001
v -0.260000 -0.597320 31.310001
v -0.260000 -0.597320 32.310001
v -1.430000 0.560000 31.310001
v -1.430000 0.560000 32.310001
v -1.440000 0.562679 31.310001
v -1.440000 0.562679 32.310001
v -1.447320 0.570000 31.310001
v -1.447320 0.570000 32.310001
v -1.450000 0.580000 31.310001
v -1.450000 0.580000 32.310001
v -1.447320 0.590000 31.310001
v -1.447320 0.590000 32.310001
v -1.440000 0.597320 31.310001
v -1.440000 0.597320 32.310001
v -1.430000 0.600000 31.310001
v -1.430000 0.600000 32.310001
v -1.420000 0.597320 31.310001
v -1.420000 0.597320 32.310001
v -1.412679 0.590000 31.310001
v -1.412679 0.590000 32.310001
v -1.410000 0.580000 31.310001
v -1.410000 0.580000 32.310001
v -1.412679 0.570000 31.310001
v -1.412679 0.570000 32.310001
v -1.420000 0.562679 31.310001
v -1.420000 0.562679 32.310001
v -0.270000 0.560000 31.310001
v -0.270000 0.560000 32.310001
v -0.280000 0.562679 31.310001
v -0.280000 0.562679 32.310001
v -0.287321 0.570000 31.310001
v -0.287321 0.570000 32.310001
v -0.290000 0.580000 31.310001
v -0.290000 0.580000 32.310001
v -0.287321 0.590000 31.310001
v -0.287321 0.590000 32.310001
v -0.280000 0.597320 31.310001
v -0.280000 0.597320 32.310001
v -0.270000 0.600000 31.310001
v -0.270000 0.600000 32.310001
v -0.260000 0.597320 31.310001
v -0.260000 0.597320 32.310001
v -0.252679 0.590000 31.310001
v -0.252679 0.590000 32.310001
v -0.250000 0.580000 31.310001
v -0.250000 0.580000 32.310001
v -0.252679 0.570000 31.310001
v -0.252679 0.570000 32.310001
v -0.260000 0.562679 31.310001
v -0.260000 0.562679 32.310001
v -2.210305 -2.230305 31.310001
v -2.210305 -2.230305 32.310001
v -2.220305 -2.227625 31.310001
v -2.220305 -2.227625 32.310001
v -2.227625 -2.220305 31.310001
v -2.227625 -2.220305 32.310001
v -2.230305 -2.210305 31.310001
v -2.230305 -2.210305 32.310001
v -2.227625 -2.200305 31.310001
v -2.227625 -2.200305 32.310001
v -2.220305 -2.192984 31.310001
v -2.220305 -2.192984 32.310001
v -2.210305 -2.190305 31.310001
v -2.210305 -2.190305 32.310001
v -2.200305 -2.192984 31.310001
v -2.200305 -2.192984 32.310001
v -2.192984 -2.200305 31.310001
v -2.192984 -2.200305 32.310001
v -2.190305 -2.210305 31.310001
v -2.190305 -2.210305 32.310001
v -2.192984 -2.220305 31.310001
v -2.192984 -2.220305 32.310001
v -2.200305 -2.227625 31.310001
v -2.200305 -2.227625 32.310001
v -1.510305 -2.230305 31.310001
v -1.510305 -2.230305 32.310001
v -1.520305 -2.227625 31.310001
v -1.520305 -2.227625 32.310001
v -1.527625 -2.220305 31.310001
v -1.527625 -2.220305 32.310001
v -1.530305 -2.210305 31.310001
v -1.530305 -2.210305 32.310001
v -1.527625 -2.200305 31.310001
v -1.527625 -2.200305 32.310001
v -1.520305 -2.192984 31.310001
v -1.520305 -2.192984 32.310001
v -1.510305 -2.190305 31.310001
v -1.510305 -2.190305 32.310001
v -1.500305 -2.192984 31.310001
v -1.500305 -2.192984 32.310001
v -1.492984 -2.200305 31.310001
v -1.492984 -2.200305 32.310001
v -1.490305 -2.210305 31.310001
v -1.490305 -2.210305 32.310001
v -1.492984 -2.220305 31.310001
v -1.492984 -2.220305 32.310001
v -1.500305 -2.227625 31.310001
v -1.500305 -2.227625 32.310001
v -2.210305 -1.530305 31.310001
v -2.210305 -1.530305 32.310001
v -2.220305 -1.527625 31.310001
v -2.220305 -1.527625 32.310001
v -2.227625 -1.520305 31.310001
v -2.227625 -1.520305 32.310001
v -2.230305 -1.510305 31.310001
v -2.230305 -1.510305 32.310001
v -2.227625 -1.500305 31.310001
v -2.227625 -1.500305 32.310001
v -2.220305 -1.492984 31.310001
v -2.220305 -1.492984 32.310001
v -2.210305 -1.490305 31.310001
v -2.210305 -1.490305 32.310001
v -2.200305 -1.492984 31.310001
v -2.200305 -1.492984 32.310001
v -2.192984 -1.500305 31.310001
v -2.192984 -1.500305 32.310001
v -2.190305 -1.510305 31.310001
v -2.190305 -1.510305 32.310001
v -2.192984 -1.520305 31.310001
v -2.192984 -1.520305 32.310001
v -2.200305 -1.527625 31.310001
v -2.200305 -1.527625 32.310001
v -0.150000 2.848588 33.310001
v -0.150000 2.848588 33.410000
v -0.150000 2.908587 33.310001
v -0.150000 2.908587 33.410000
v 0.150000 2.848588 33.310001
v 0.150000 2.848588 33.410000
v 0.150000 2.908587 33.310001
v 0.150000 2.908587 33.410000
vn 0.0491 0.9988 -0.0000
vn 0.1467 0.9892 -0.0000
vn 0.2430 0.9700 -0.0000
vn 0.3369 0.9415 -0.0000
vn 0.4276 0.9040 -0.0000
vn 0.5141 0.8577 -0.0000
vn 0.5957 0.8032 -0.0000
vn 0.6716 0.7410 -0.0000
vn 0.7410 0.6716 -0.0000
vn 0.8032 0.5957 -0.0000
vn 0.8577 0.5141 -0.0000
vn 0.9040 0.4276 -0.0000
vn 0.9415 0.3369 -0.0000
vn 0.9700 0.2430 -0.0000
vn 0.9892 0.1467 -0.0000
vn 0.9988 0.0491 -0.0000
vn 0.9988 -0.0491 -0.0000
vn 0.9892 -0.1467 -0.0000
vn 0.9700 -0.2430 -0.0000
vn 0.9415 -0.3369 -0.0000
vn 0.9040 -0.4276 -0.0000
vn 0.8577 -0.5141 -0.0000
vn 0.8032 -0.5957 -0.0000
vn 0.7410 -0.6716 -0.0000
vn 0.6716 -0.7410 -0.0000
vn 0.5957 -0.8032 -0.0000
vn 0.5141 -0.8577 -0.0000
vn 0.4276 -0.9040 -0.0000
vn 0.3369 -0.9415 -0.0000
vn 0.2430 -0.9700 -0.0000
vn 0.1467 -0.9892 -0.0000
vn 0.0491 -0.9988 -0.0000
vn -0.0491 -0.9988 -0.0000
vn -0.1467 -0.9892 -0.0000
vn -0.2430 -0.9700 -0.0000
vn -0.3369 -0.9415 -0.0000
vn -0.4276 -0.9040 -0.0000
vn -0.5141 -0.8577 -0.0000
vn -0.5957 -0.8032 -0.0000
vn -0.6716 -0.7409 -0.0000
vn -0.7409 -0.6716 -0.0000
vn -0.8032 -0.5957 -0.0000
vn -0.8577 -0.5141 -0.0000
vn -0.9040 -0.4276 -0.0000
vn -0.9415 -0.3369 -0.0000
vn -0.9700 -0.2430 -0.0000
vn -0.9892 -0.1467 -0.0000
vn -0.9988 -0.0491 -0.0000
vn -0.9988 0.0491 -0.0000
vn -0.9892 0.1467 -0.0000
vn -0.9700 0.2430 -0.0000
vn -0.9415 0.3369 -0.0000
vn -0.9040 0.4276 -0.0000
vn -0.8577 0.5141 -0.0000
vn -0.8032 0.5957 -0.0000
vn -0.7410 0.6716 -0.0000
vn -0.6716 0.7410 -0.0000
vn -0.5957 0.8032 -0.0000
vn -0.5141 0.8577 -0.0000
vn -0.4276 0.9040 -0.0000
vn -0.3369 0.9415 -0.0000
vn -0.2430 0.9700 -0.0000
vn -0.0000 -0.0000 1.0000
vn -0.1467 0.9892 -0.0000
vn -0.0491 0.9988 -0.0000
vn -0.0000 -0.0000 -1.0000
vn 1.0000 -0.0000 -0.0000
vn -0.0000 -1.0000 -0.0000
vn -1.0000 -0.0000 -0.0000
vn -0.0000 1.0000 -0.0000
vn -0.0000 0.2590 0.9659
vn -0.0000 0.7071 0.7071
vn -0.0000 0.9659 0.2589
vn -0.0000 0.9659 -0.2589
vn -0.0000 0.7071 -0.7071
vn -0.0000 0.2590 -0.9659
vn -0.0000 -0.2590 -0.9659
vn -0.0000 -0.7071 -0.7071
vn -0.0000 -0.9659 -0.2589
vn -0.0000 -0.9659 0.2589
vn -0.0000 -0.7071 0.7071
vn -0.0000 -0.2590 0.9659
vn -0.0000 0.2587 0.9660
vn -0.0000 0.7072 0.7070
vn -0.0000 0.9659 0.2588
vn -0.0000 0.9659 -0.2588
vn -0.0000 0.7072 -0.7071
vn -0.0000 0.2587 -0.9660
vn -0.0000 -0.2587 -0.9660
vn -0.0000 -0.7072 -0.7070
vn -0.0000 -0.9659 -0.2588
vn -0.0000 -0.9659 0.2588
vn -0.0000 -0.7072 0.7071
vn -0.0000 -0.2587 0.9660
vn -0.2590 -0.0000 0.9659
vn -0.7071 -0.0000 0.7071
vn -0.9659 -0.0000 0.2589
vn -0.9659 -0.0000 -0.2589
vn -0.7071 -0.0000 -0.7071
vn -0.2590 -0.0000 -0.9659
vn 0.2590 -0.0000 -0.9659
vn 0.7071 -0.0000 -0.7071
vn 0.9659 -0.0000 -0.2589
vn 0.9659 -0.0000 0.2589
vn 0.7071 -0.0000 0.7071
vn 0.2590 -0.0000 0.9659
vn -0.2587 -0.0000 0.9660
vn -0.7072 -0.0000 0.7070
vn -0.9659 -0.0000 0.2588
vn -0.9659 -0.0000 -0.2588
vn -0.7072 -0.0000 -0.7070
vn -0.2587 -0.0000 -0.9660
vn 0.2587 -0.0000 -0.9660
vn 0.7072 -0.0000 -0.7070
vn 0.9659 -0.0000 -0.2588
vn 0.9659 -0.0000 0.2588
vn 0.7072 -0.0000 0.7070
vn 0.2587 -0.0000 0.9660
vn -0.2588 -0.9659 -0.0000
vn -0.7071 -0.7071 -0.0000
vn -0.9659 -0.2588 -0.0000
vn -0.9659 0.2588 -0.0000
vn -0.7071 0.7071 -0.0000
vn -0.2588 0.9659 -0.0000
vn 0.2588 0.9659 -0.0000
vn 0.7071 0.7071 -0.0000
vn 0.9659 0.2588 -0.0000
vn 0.9659 -0.2588 -0.0000
vn 0.7071 -0.7071 -0.0000
vn 0.2588 -0.9659 -0.0000
vn -0.6716 -0.7410 -0.0000
vn -0.7410 -0.6716 -0.0000
vn -0.0000 0.7072 0.7071
vn -0.0000 0.7072 -0.7070
vn -0.0000 -0.7072 -0.7071
vn -0.0000 -0.7072 0.7070
vn -1.0000 -0.0001 -0.0000
vn -1.0000 0.0001 -0.0000
s 0
usemtl grating
f 2//1 3//1 1//1
f 4//2 5//2 3//2
f 6//3 7//3 5//3
f 8//4 9//4 7//4
f 10//5 11//5 9//5
f 12//6 13//6 11//6
f 14//7 15//7 13//7
f 16//8 17//8 15//8
f 18//9 19//9 17//9
f 20//10 21//10 19//10
f 22//11 23//11 21//11
f 24//12 25//12 23//12
f 26//13 27//13 25//13
f 28//14 29//14 27//14
f 30//15 31//15 29//15
f 32//16 33//16 31//16
f 34//17 35//17 33//17
f 36//18 37//18 35//18
f 38//19 39//19 37//19
f 40//20 41//20 39//20
f 42//21 43//21 41//21
f 44//22 45//22 43//22
f 46//23 47//23 45//23
f 48//24 49//24 47//24
f 50//25 51//25 49//25
f 52//26 53//26 51//26
f 54//27 55//27 53//27
f 56//28 57//28 55//28
f 58//29 59//29 57//29
f 60//30 61//30 59//30
f 62//31 63//31 61//31
f 64//32 65//32 63//32
f 66//33 67//33 65//33
f 68//34 69//34 67//34
f 70//35 71//35 69//35
f 72//36 73//36 71//36
f 74//37 75//37 73//37
f 76//38 77//38 75//38
f 78//39 79//39 77//39
f 79//40 135//40 136//40
f 82//41 138//41 137//41
f 82//42 83//42 81//42
f 84//43 85//43 83//43
f 86//44 87//44 85//44
f 88//45 89//45 87//45
f 90//46 91//46 89//46
f 92//47 93//47 91//47
f 94//48 95//48 93//48
f 96//49 97//49 95//49
f 98//50 99//50 97//50
f 100//51 101//51 99//51
f 102//52 103//52 101//52
f 104//53 105//53 103//53
f 106//54 107//54 105//54
f 108//55 109//55 107//55
f 110//56 111//56 109//56
f 112//57 113//57 111//57
f 114//58 115//58 113//58
f 116//59 117//59 115//59
f 118//60 119//60 117//60
f 120//61 121//61 119//61
f 122//62 123//62 121//62
f 70//63 100//63 139//63
f 34//63 2//63 60//63
f 124//64 125//64 123//64
f 126//65 1//65 125//65
f 133//66 27//66 59//66
f 105//66 121//66 131//66
f 128//67 132//67 131//67
f 129//68 131//68 134//68
f 129//69 133//69 130//69
f 130//70 132//70 127//70
f 138//67 140//67 137//67
f 139//68 142//68 144//68
f 139//69 143//69 141//69
f 141//70 136//70 135//70
f 2//1 4//1 3//1
f 4//2 6//2 5//2
f 6//3 8//3 7//3
f 8//4 10//4 9//4
f 10//5 12//5 11//5
f 12//6 14//6 13//6
f 14//7 16//7 15//7
f 16//8 18//8 17//8
f 18//9 20//9 19//9
f 20//10 22//10 21//10
f 22//11 24//11 23//11
f 24//12 26//12 25//12
f 26//13 28//13 27//13
f 28//14 30//14 29//14
f 30//15 32//15 31//15
f 32//16 34//16 33//16
f 34//17 36//17 35//17
f 36//18 38//18 37//18
f 38//19 40//19 39//19
f 40//20 42//20 41//20
f 42//21 44//21 43//21
f 44//22 46//22 45//22
f 46//23 48//23 47//23
f 48//24 50//24 49//24
f 50//25 52//25 51//25
f 52//26 54//26 53//26
f 54//27 56//27 55//27
f 56//28 58//28 57//28
f 58//29 60//29 59//29
f 60//30 62//30 61//30
f 62//31 64//31 63//31
f 64//32 66//32 65//32
f 66//33 68//33 67//33
f 68//34 70//34 69//34
f 70//35 72//35 71//35
f 72//36 74//36 73//36
f 74//37 76//37 75//37
f 76//38 78//38 77//38
f 78//39 80//39 79//39
f 79//131 80//131 135//131
f 82//132 81//132 138//132
f 82//42 84//42 83//42
f 84//43 86//43 85//43
f 86//44 88//44 87//44
f 88//45 90//45 89//45
f 90//46 92//46 91//46
f 92//47 94//47 93//47
f 94//48 96//48 95//48
f 96//49 98//49 97//49
f 98//50 100//50 99//50
f 100//51 102//51 101//51
f 102//52 104//52 103//52
f 104//53 106//53 105//53
f 106//54 108//54 107//54
f 108//55 110//55 109//55
f 110//56 112//56 111//56
f 112//57 114//57 113//57
f 114//58 116//58 115//58
f 116//59 118//59 117//59
f 118//60 120//60 119//60
f 120//61 122//61 121//61
f 122//62 124//62 123//62
f 135//63 80//63 78//63
f 78//63 76//63 74//63
f 74//63 72//63 70//63
f 70//63 130//63 127//63
f 127//63 128//63 100//63
f 100//63 98//63 96//63
f 96//63 94//63 92//63
f 92//63 90//63 88//63
f 88//63 86//63 84//63
f 84//63 82//63 137//63
f 84//63 137//63 140//63
f 92//63 88//63 84//63
f 100//63 96//63 92//63
f 70//63 127//63 100//63
f 78//63 74//63 70//63
f 141//63 135//63 78//63
f 141//63 78//63 70//63
f 100//63 92//63 84//63
f 100//63 84//63 140//63
f 139//63 141//63 70//63
f 100//63 140//63 139//63
f 54//63 52//63 50//63
f 50//63 48//63 46//63
f 46//63 44//63 42//63
f 42//63 40//63 38//63
f 38//63 36//63 34//63
f 34//63 32//63 30//63
f 30//63 28//63 26//63
f 26//63 24//63 22//63
f 22//63 20//63 18//63
f 18//63 16//63 14//63
f 14//63 12//63 10//63
f 10//63 8//63 6//63
f 6//63 4//63 2//63
f 2//63 126//63 124//63
f 124//63 122//63 120//63
f 120//63 118//63 116//63
f 116//63 114//63 112//63
f 112//63 110//63 108//63
f 108//63 106//63 104//63
f 104//63 102//63 100//63
f 100//63 128//63 129//63
f 130//63 70//63 68//63
f 104//63 100//63 129//63
f 129//63 130//63 68//63
f 68//63 66//63 64//63
f 64//63 62//63 60//63
f 60//63 58//63 56//63
f 56//63 54//63 50//63
f 50//63 46//63 42//63
f 42//63 38//63 34//63
f 34//63 30//63 26//63
f 26//63 22//63 18//63
f 18//63 14//63 10//63
f 10//63 6//63 2//63
f 2//63 124//63 120//63
f 120//63 116//63 112//63
f 112//63 108//63 104//63
f 129//63 68//63 64//63
f 112//63 104//63 129//63
f 2//63 120//63 112//63
f 18//63 10//63 2//63
f 34//63 26//63 18//63
f 50//63 42//63 34//63
f 60//63 56//63 50//63
f 129//63 64//63 60//63
f 2//63 112//63 129//63
f 34//63 18//63 2//63
f 60//63 50//63 34//63
f 2//63 129//63 60//63
f 124//64 126//64 125//64
f 126//65 2//65 1//65
f 142//66 138//66 81//66
f 81//66 83//66 85//66
f 85//66 87//66 89//66
f 89//66 91//66 93//66
f 89//66 93//66 132//66
f 81//66 85//66 89//66
f 142//66 81//66 89//66
f 89//66 132//66 133//66
f 133//66 134//66 125//66
f 125//66 1//66 3//66
f 3//66 5//66 7//66
f 7//66 9//66 11//66
f 11//66 13//66 15//66
f 15//66 17//66 19//66
f 19//66 21//66 23//66
f 23//66 25//66 27//66
f 27//66 29//66 31//66
f 31//66 33//66 35//66
f 35//66 37//66 39//66
f 39//66 41//66 43//66
f 43//66 45//66 47//66
f 47//66 49//66 51//66
f 51//66 53//66 55//66
f 55//66 57//66 59//66
f 59//66 61//66 63//66
f 63//66 65//66 67//66
f 67//66 69//66 71//66
f 71//66 73//66 75//66
f 75//66 77//66 79//66
f 79//66 136//66 143//66
f 144//66 142//66 89//66
f 75//66 79//66 143//66
f 144//66 89//66 133//66
f 75//66 143//66 144//66
f 67//66 71//66 75//66
f 59//66 63//66 67//66
f 51//66 55//66 59//66
f 43//66 47//66 51//66
f 35//66 39//66 43//66
f 27//66 31//66 35//66
f 19//66 23//66 27//66
f 11//66 15//66 19//66
f 3//66 7//66 11//66
f 133//66 125//66 3//66
f 75//66 144//66 133//66
f 59//66 67//66 75//66
f 43//66 51//66 59//66
f 27//66 35//66 43//66
f 11//66 19//66 27//66
f 133//66 3//66 11//66
f 59//66 75//66 133//66
f 27//66 43//66 59//66
f 133//66 11//66 27//66
f 131//66 132//66 93//66
f 93//66 95//66 97//66
f 97//66 99//66 101//66
f 101//66 103//66 105//66
f 105//66 107//66 109//66
f 109//66 111//66 113//66
f 113//66 115//66 117//66
f 117//66 119//66 121//66
f 121//66 123//66 125//66
f 125//66 134//66 131//66
f 131//66 93//66 97//66
f 97//66 101//66 105//66
f 105//66 109//66 113//66
f 113//66 117//66 121//66
f 121//66 125//66 131//66
f 131//66 97//66 105//66
f 105//66 113//66 121//66
f 128//67 127//67 132//67
f 129//68 128//68 131//68
f 129//69 134//69 133//69
f 130//70 133//70 132//70
f 138//67 142//67 140//67
f 139//68 140//68 142//68
f 139//69 144//69 143//69
f 141//70 143//70 136//70
usemtl hatch_yellow
f 146//71 147//71 145//71
f 148//72 149//72 147//72
f 150//73 151//73 149//73
f 152//74 153//74 151//74
f 154//75 155//75 153//75
f 156//76 157//76 155//76
f 158//77 159//77 157//77
f 160//78 161//78 159//78
f 162//79 163//79 161//79
f 164//80 165//80 163//80
f 166//67 158//67 150//67
f 166//81 167//81 165//81
f 168//82 145//82 167//82
f 151//69 159//69 167//69
f 170//83 171//83 169//83
f 172//84 173//84 171//84
f 174//85 175//85 173//85
f 176//86 177//86 175//86
f 178//87 179//87 177//87
f 180//88 181//88 179//88
f 182//89 183//89 181//89
f 184//90 185//90 183//90
f 186//91 187//91 185//91
f 188//92 189//92 187//92
f 190//67 182//67 174//67
f 190//93 191//93 189//93
f 192//94 169//94 191//94
f 175//69 183//69 191//69
f 194//71 195//71 193//71
f 196//72 197//72 195//72
f 198//73 199//73 197//73
f 200//74 201//74 199//74
f 202//75 203//75 201//75
f 204//76 205//76 203//76
f 206//77 207//77 205//77
f 208//78 209//78 207//78
f 210//79 211//79 209//79
f 212//80 213//80 211//80
f 214//67 206//67 198//67
f 214//81 215//81 213//81
f 216//82 193//82 215//82
f 199//69 207//69 215//69
f 218//83 219//83 217//83
f 220//84 221//84 219//84
f 222//85 223//85 221//85
f 224//86 225//86 223//86
f 226//87 227//87 225//87
f 228//88 229//88 227//88
f 230//89 231//89 229//89
f 232//90 233//90 231//90
f 234//91 235//91 233//91
f 236//92 237//92 235//92
f 238//67 230//67 222//67
f 238//93 239//93 237//93
f 240//94 217//94 239//94
f 223//69 231//69 239//69
f 242//95 243//95 241//95
f 244//96 245//96 243//96
f 246//97 247//97 245//97
f 248//98 249//98 247//98
f 250//99 251//99 249//99
f 252//100 253//100 251//100
f 254//101 255//101 253//101
f 256//102 257//102 255//102
f 258//103 259//103 257//103
f 260//104 261//104 259//104
f 262//70 254//70 246//70
f 262//105 263//105 261//105
f 264//106 241//106 263//106
f 247//68 255//68 263//68
f 266//107 267//107 265//107
f 268//108 269//108 267//108
f 270//109 271//109 269//109
f 272//110 273//110 271//110
f 274//111 275//111 273//111
f 276//112 277//112 275//112
f 278//113 279//113 277//113
f 280//114 281//114 279//114
f 282//115 283//115 281//115
f 284//116 285//116 283//116
f 286//70 278//70 270//70
f 286//117 287//117 285//117
f 288//118 265//118 287//118
f 271//68 279//68 287//68
f 290//119 291//119 289//119
f 292//120 293//120 291//120
f 294//121 295//121 293//121
f 296//122 297//122 295//122
f 298//123 299//123 297//123
f 300//124 301//124 299//124
f 302//125 303//125 301//125
f 304//126 305//126 303//126
f 306//127 307//127 305//127
f 308//128 309//128 307//128
f 310//63 302//63 294//63
f 310//129 311//129 309//129
f 312//130 289//130 311//130
f 295//66 303//66 311//66
f 314//119 315//119 313//119
f 316//120 317//120 315//120
f 318//121 319//121 317//121
f 320//122 321//122 319//122
f 322//123 323//123 321//123
f 324//124 325//124 323//124
f 326//125 327//125 325//125
f 328//126 329//126 327//126
f 330//127 331//127 329//127
f 332//128 333//128 331//128
f 334//63 326//63 318//63
f 334//129 335//129 333//129
f 336//130 313//130 335//130
f 319//66 327//66 335//66
f 338//119 339//119 337//119
f 340//120 341//120 339//120
f 342//121 343//121 341//121
f 344//122 345//122 343//122
f 346//123 347//123 345//123
f 348//124 349//124 347//124
f 350//125 351//125 349//125
f 352//126 353//126 351//126
f 354//127 355//127 353//127
f 356//128 357//128 355//128
f 358//63 350//63 342//63
f 358//129 359//129 357//129
f 360//130 337//130 359//130
f 343//66 351//66 359//66
f 362//119 363//119 361//119
f 364//120 365//120 363//120
f 366//121 367//121 365//121
f 368//122 369//122 367//122
f 370//123 371//123 369//123
f 372//124 373//124 371//124
f 374//125 375//125 373//125
f 376//126 377//126 375//126
f 378//127 379//127 377//127
f 380//128 381//128 379//128
f 382//63 374//63 366//63
f 382//129 383//129 381//129
f 384//130 361//130 383//130
f 367//66 375//66 383//66
f 386//119 387//119 385//119
f 388//120 389//120 387//120
f 390//121 391//121 389//121
f 392//122 393//122 391//122
f 394//123 395//123 393//123
f 396//124 397//124 395//124
f 398//125 399//125 397//125
f 400//126 401//126 399//126
f 402//127 403//127 401//127
f 404//128 405//128 403//128
f 406//63 398//63 390//63
f 406//129 407//129 405//129
f 408//130 385//130 407//130
f 391//66 399//66 407//66
f 410//119 411//119 409//119
f 412//120 413//120 411//120
f 414//121 415//121 413//121
f 416//122 417//122 415//122
f 418//123 419//123 417//123
f 420//124 421//124 419//124
f 422//125 423//125 421//125
f 424//126 425//126 423//126
f 426//127 427//127 425//127
f 428//128 429//128 427//128
f 430//63 422//63 414//63
f 430//129 431//129 429//129
f 432//130 409//130 431//130
f 415//66 423//66 431//66
f 434//119 435//119 433//119
f 436//120 437//120 435//120
f 438//121 439//121 437//121
f 440//122 441//122 439//122
f 442//123 443//123 441//123
f 444//124 445//124 443//124
f 446//125 447//125 445//125
f 448//126 449//126 447//126
f 450//127 451//127 449//127
f 452//128 453//128 451//128
f 454//63 446//63 438//63
f 454//129 455//129 453//129
f 456//130 433//130 455//130
f 439//66 447//66 455//66
f 146//71 148//71 147//71
f 148//72 150//72 149//72
f 150//73 152//73 151//73
f 152//74 154//74 153//74
f 154//75 156//75 155//75
f 156//76 158//76 157//76
f 158//77 160//77 159//77
f 160//78 162//78 161//78
f 162//79 164//79 163//79
f 164//80 166//80 165//80
f 150//67 148//67 146//67
f 146//67 168//67 166//67
f 166//67 164//67 162//67
f 162//67 160//67 158//67
f 158//67 156//67 154//67
f 154//67 152//67 150//67
f 150//67 146//67 166//67
f 166//67 162//67 158//67
f 158//67 154//67 150//67
f 166//81 168//81 167//81
f 168//82 146//82 145//82
f 167//69 145//69 147//69
f 147//69 149//69 151//69
f 151//69 153//69 155//69
f 155//69 157//69 159//69
f 159//69 161//69 163//69
f 163//69 165//69 167//69
f 167//69 147//69 151//69
f 151//69 155//69 159//69
f 159//69 163//69 167//69
f 170//83 172//83 171//83
f 172//133 174//133 173//133
f 174//85 176//85 175//85
f 176//86 178//86 177//86
f 178//134 180//134 179//134
f 180//88 182//88 181//88
f 182//89 184//89 183//89
f 184//135 186//135 185//135
f 186//91 188//91 187//91
f 188//92 190//92 189//92
f 174//67 172//67 170//67
f 170//67 192//67 190//67
f 190//67 188//67 186//67
f 186//67 184//67 182//67
f 182//67 180//67 178//67
f 178//67 176//67 174//67
f 174//67 170//67 190//67
f 190//67 186//67 182//67
f 182//67 178//67 174//67
f 190//136 192//136 191//136
f 192//94 170//94 169//94
f 191//69 169//69 171//69
f 171//137 173//137 175//137
f 175//137 177//137 179//137
f 179//69 181//69 183//69
f 183//138 185//138 187//138
f 187//138 189//138 191//138
f 191//69 171//69 175//69
f 175//69 179//69 183//69
f 183//69 187//69 191//69
f 194//71 196//71 195//71
f 196//72 198//72 197//72
f 198//73 200//73 199//73
f 200//74 202//74 201//74
f 202//75 204//75 203//75
f 204//76 206//76 205//76
f 206//77 208//77 207//77
f 208//78 210//78 209//78
f 210//79 212//79 211//79
f 212//80 214//80 213//80
f 198//67 196//67 194//67
f 194//67 216//67 214//67
f 214//67 212//67 210//67
f 210//67 208//67 206//67
f 206//67 204//67 202//67
f 202//67 200//67 198//67
f 198//67 194//67 214//67
f 214//67 210//67 206//67
f 206//67 202//67 198//67
f 214//81 216//81 215//81
f 216//82 194//82 193//82
f 215//69 193//69 195//69
f 195//69 197//69 199//69
f 199//69 201//69 203//69
f 203//69 205//69 207//69
f 207//69 209//69 211//69
f 211//69 213//69 215//69
f 215//69 195//69 199//69
f 199//69 203//69 207//69
f 207//69 211//69 215//69
f 218//83 220//83 219//83
f 220//133 222//133 221//133
f 222//85 224//85 223//85
f 224//86 226//86 225//86
f 226//134 228//134 227//134
f 228//88 230//88 229//88
f 230//89 232//89 231//89
f 232//135 234//135 233//135
f 234//91 236//91 235//91
f 236//92 238//92 237//92
f 222//67 220//67 218//67
f 218//67 240//67 238//67
f 238//67 236//67 234//67
f 234//67 232//67 230//67
f 230//67 228//67 226//67
f 226//67 224//67 222//67
f 222//67 218//67 238//67
f 238//67 234//67 230//67
f 230//67 226//67 222//67
f 238//136 240//136 239//136
f 240//94 218//94 217//94
f 239//69 217//69 219//69
f 219//137 221//137 223//137
f 223//137 225//137 227//137
f 227//69 229//69 231//69
f 231//138 233//138 235//138
f 235//138 237//138 239//138
f 239//69 219//69 223//69
f 223//69 227//69 231//69
f 231//69 235//69 239//69
f 242//95 244//95 243//95
f 244//96 246//96 245//96
f 246//97 248//97 247//97
f 248//98 250//98 249//98
f 250//99 252//99 251//99
f 252//100 254//100 253//100
f 254//101 256//101 255//101
f 256//102 258//102 257//102
f 258//103 260//103 259//103
f 260//104 262//104 261//104
f 246//70 244//70 242//70
f 242//70 264//70 262//70
f 262//70 260//70 258//70
f 258//70 256//70 254//70
f 254//70 252//70 250//70
f 250//70 248//70 246//70
f 246//70 242//70 262//70
f 262//70 258//70 254//70
f 254//70 250//70 246//70
f 262//105 264//105 263//105
f 264//106 242//106 241//106
f 263//68 241//68 243//68
f 243//68 245//68 247//68
f 247//68 249//68 251//68
f 251//68 253//68 255//68
f 255//68 257//68 259//68
f 259//68 261//68 263//68
f 263//68 243//68 247//68
f 247//68 251//68 255//68
f 255//68 259//68 263//68
f 266//107 268//107 267//107
f 268//108 270//108 269//108
f 270//109 272//109 271//109
f 272//110 274//110 273//110
f 274//111 276//111 275//111
f 276//112 278//112 277//112
f 278//113 280//113 279//113
f 280//114 282//114 281//114
f 282//115 284//115 283//115
f 284//116 286//116 285//116
f 270//70 268//70 266//70
f 266//70 288//70 286//70
f 286//70 284//70 282//70
f 282//70 280//70 278//70
f 278//70 276//70 274//70
f 274//70 272//70 270//70
f 270//70 266//70 286//70
f 286//70 282//70 278//70
f 278//70 274//70 270//70
f 286//117 288//117 287//117
f 288//118 266//118 265//118
f 287//68 265//68 267//68
f 267//68 269//68 271//68
f 271//68 273//68 275//68
f 275//68 277//68 279//68
f 279//68 281//68 283//68
f 283//68 285//68 287//68
f 287//68 267//68 271//68
f 271//68 275//68 279//68
f 279//68 283//68 287//68
f 290//119 292//119 291//119
f 292//120 294//120 293//120
f 294//121 296//121 295//121
f 296//122 298//122 297//122
f 298//123 300//123 299//123
f 300//124 302//124 301//124
f 302//125 304//125 303//125
f 304//126 306//126 305//126
f 306//127 308//127 307//127
f 308//128 310//128 309//128
f 294//63 292//63 290//63
f 290//63 312//63 310//63
f 310//63 308//63 306//63
f 306//63 304//63 302//63
f 302//63 300//63 298//63
f 298//63 296//63 294//63
f 294//63 290//63 310//63
f 310//63 306//63 302//63
f 302//63 298//63 294//63
f 310//129 312//129 311//129
f 312//130 290//130 289//130
f 311//66 289//66 291//66
f 291//66 293//66 295//66
f 295//66 297//66 299//66
f 299//66 301//66 303//66
f 303//66 305//66 307//66
f 307//66 309//66 311//66
f 311//66 291//66 295//66
f 295//66 299//66 303//66
f 303//66 307//66 311//66
f 314//119 316//119 315//119
f 316//120 318//120 317//120
f 318//121 320//121 319//121
f 320//122 322//122 321//122
f 322//123 324//123 323//123
f 324//124 326//124 325//124
f 326//125 328//125 327//125
f 328//126 330//126 329//126
f 330//127 332//127 331//127
f 332//128 334//128 333//128
f 318//63 316//63 314//63
f 314//63 336//63 334//63
f 334//63 332//63 330//63
f 330//63 328//63 326//63
f 326//63 324//63 322//63
f 322//63 320//63 318//63
f 318//63 314//63 334//63
f 334//63 330//63 326//63
f 326//63 322//63 318//63
f 334//129 336//129 335//129
f 336//130 314//130 313//130
f 335//66 313//66 315//66
f 315//66 317//66 319//66
f 319//66 321//66 323//66
f 323//66 325//66 327//66
f 327//66 329//66 331//66
f 331//66 333//66 335//66
f 335//66 315//66 319//66
f 319//66 323//66 327//66
f 327//66 331//66 335//66
f 338//119 340//119 339//119
f 340//120 342//120 341//120
f 342//121 344//121 343//121
f 344//122 346//122 345//122
f 346//123 348//123 347//123
f 348//124 350//124 349//124
f 350//125 352//125 351//125
f 352//126 354//126 353//126
f 354//127 356//127 355//127
f 356//128 358//128 357//128
f 342//63 340//63 338//63
f 338//63 360//63 358//63
f 358//63 356//63 354//63
f 354//63 352//63 350//63
f 350//63 348//63 346//63
f 346//63 344//63 342//63
f 342//63 338//63 358//63
f 358//63 354//63 350//63
f 350//63 346//63 342//63
f 358//129 360//129 359//129
f 360//130 338//130 337//130
f 359//66 337//66 339//66
f 339//66 341//66 343//66
f 343//66 345//66 347//66
f 347//66 349//66 351//66
f 351//66 353//66 355//66
f 355//66 357//66 359//66
f 359//66 339//66 343//66
f 343//66 347//66 351//66
f 351//66 355//66 359//66
f 362//119 364//119 363//119
f 364//120 366//120 365//120
f 366//121 368//121 367//121
f 368//122 370//122 369//122
f 370//123 372//123 371//123
f 372//124 374//124 373//124
f 374//125 376//125 375//125
f 376//126 378//126 377//126
f 378//127 380//127 379//127
f 380//128 382//128 381//128
f 366//63 364//63 362//63
f 362//63 384//63 382//63
f 382//63 380//63 378//63
f 378//63 376//63 374//63
f 374//63 372//63 370//63
f 370//63 368//63 366//63
f 366//63 362//63 382//63
f 382//63 378//63 374//63
f 374//63 370//63 366//63
f 382//129 384//129 383//129
f 384//130 362//130 361//130
f 383//66 361//66 363//66
f 363//66 365//66 367//66
f 367//66 369//66 371//66
f 371//66 373//66 375//66
f 375//66 377//66 379//66
f 379//66 381//66 383//66
f 383//66 363//66 367//66
f 367//66 371//66 375//66
f 375//66 379//66 383//66
f 386//119 388//119 387//119
f 388//120 390//120 389//120
f 390//121 392//121 391//121
f 392//122 394//122 393//122
f 394//123 396//123 395//123
f 396//124 398//124 397//124
f 398//125 400//125 399//125
f 400//126 402//126 401//126
f 402//127 404//127 403//127
f 404//128 406//128 405//128
f 390//63 388//63 386//63
f 386//63 408//63 406//63
f 406//63 404//63 402//63
f 402//63 400//63 398//63
f 398//63 396//63 394//63
f 394//63 392//63 390//63
f 390//63 386//63 406//63
f 406//63 402//63 398//63
f 398//63 394//63 390//63
f 406//129 408//129 407//129
f 408//130 386//130 385//130
f 407//66 385//66 387//66
f 387//66 389//66 391//66
f 391//66 393//66 395//66
f 395//66 397//66 399//66
f 399//66 401//66 403//66
f 403//66 405//66 407//66
f 407//66 387//66 391//66
f 391//66 395//66 399//66
f 399//66 403//66 407//66
f 410//119 412//119 411//119
f 412//120 414//120 413//120
f 414//121 416//121 415//121
f 416//122 418//122 417//122
f 418//123 420//123 419//123
f 420//124 422//124 421//124
f 422//125 424//125 423//125
f 424//126 426//126 425//126
f 426//127 428//127 427//127
f 428//128 430//128 429//128
f 414//63 412//63 410//63
f 410//63 432//63 430//63
f 430//63 428//63 426//63
f 426//63 424//63 422//63
f 422//63 420//63 418//63
f 418//63 416//63 414//63
f 414//63 410//63 430//63
f 430//63 426//63 422//63
f 422//63 418//63 414//63
f 430//129 432//129 431//129
f 432//130 410//130 409//130
f 431//66 409//66 411//66
f 411//66 413//66 415//66
f 415//66 417//66 419//66
f 419//66 421//66 423//66
f 423//66 425//66 427//66
f 427//66 429//66 431//66
f 431//66 411//66 415//66
f 415//66 419//66 423//66
f 423//66 427//66 431//66
f 434//119 436//119 435//119
f 436//120 438//120 437//120
f 438//121 440//121 439//121
f 440//122 442//122 441//122
f 442//123 444//123 443//123
f 444//124 446//124 445//124
f 446//125 448//125 447//125
f 448//126 450//126 449//126
f 450//127 452//127 451//127
f 452//128 454//128 453//128
f 438//63 436//63 434//63
f 434//63 456//63 454//63
f 454//63 452//63 450//63
f 450//63 448//63 446//63
f 446//63 444//63 442//63
f 442//63 440//63 438//63
f 438//63 434//63 454//63
f 454//63 450//63 446//63
f 446//63 442//63 438//63
f 454//129 456//129 455//129
f 456//130 434//130 433//130
f 455//66 433//66 435//66
f 435//66 437//66 439//66
f 439//66 441//66 443//66
f 443//66 445//66 447//66
f 447//66 449//66 451//66
f 451//66 453//66 455//66
f 455//66 435//66 439//66
f 439//66 443//66 447//66
f 447//66 451//66 455//66
usemtl lamp
f 458//69 459//69 457//69
f 460//70 463//70 459//70
f 464//67 461//67 463//67
f 462//68 457//68 461//68
f 463//66 457//66 459//66
f 460//63 462//63 464//63
f 458//69 460//69 459//69
f 460//70 464//70 463//70
f 464//67 462//67 461//67
f 462//68 458//68 457//68
f 463//66 461//66 457//66
f 460//63 458//63 462//63
