# Blender 5.2.2 LTS
# www.blender.org
mtllib platform_1.mtl
o platform_1
v 0.000000 2.903869 20.460001
v 0.000000 2.903869 20.510000
v 0.284629 2.889886 20.460001
v 0.284629 2.889886 20.510000
v 0.566517 2.848072 20.460001
v 0.566517 2.848072 20.510000
v 0.842949 2.778829 20.460001
v 0.842949 2.778829 20.510000
v 1.111262 2.682825 20.460001
v 1.111262 2.682825 20.510000
v 1.368874 2.560983 20.460001
v 1.368874 2.560983 20.510000
v 1.613303 2.414479 20.460001
v 1.613303 2.414479 20.510000
v 1.842195 2.244721 20.460001
v 1.842195 2.244721 20.510000
v 2.053345 2.053345 20.460001
v 2.053345 2.053345 20.510000
v 2.244721 1.842195 20.460001
v 2.244721 1.842195 20.510000
v 2.414479 1.613303 20.460001
v 2.414479 1.613303 20.510000
v 2.560983 1.368874 20.460001
v 2.560983 1.368874 20.510000
v 2.682825 1.111262 20.460001
v 2.682825 1.111262 20.510000
v 2.778829 0.842949 20.460001
v 2.778829 0.842949 20.510000
v 2.848072 0.566517 20.460001
v 2.848072 0.566517 20.510000
v 2.889886 0.284629 20.460001
v 2.889886 0.284629 20.510000
v 2.903869 0.000000 20.460001
v 2.903869 0.000000 20.510000
v 2.889886 -0.284629 20.460001
v 2.889886 -0.284629 20.510000
v 2.848072 -0.566517 20.460001
v 2.848072 -0.566517 20.510000
v 2.778829 -0.842949 20.460001
v 2.778829 -0.842949 20.510000
v 2.682825 -1.111262 20.460001
v 2.682825 -1.111262 20.510000
v 2.560983 -1.368874 20.460001
v 2.560983 -1.368874 20.510000
v 2.414479 -1.613303 20.460001
v 2.414479 -1.613303 20.510000
v 2.244721 -1.842195 20.460001
v 2.244721 -1.842195 20.510000
v 2.053345 -2.053345 20.460001
v 2.053345 -2.053345 20.510000
v 1.842195 -2.244721 20.460001
v 1.842195 -2.244721 20.510000
v 1.613303 -2.414479 20.460001
v 1.613303 -2.414479 20.510000
v 1.368874 -2.560983 20.460001
v 1.368874 -2.560983 20.510000
v 1.111262 -2.682825 20.460001
v 1.111262 -2.682825 20.510000
v 0.842949 -2.778829 20.460001
v 0.842949 -2.778829 20.510000
v 0.566517 -2.848072 20.460001
v 0.566517 -2.848072 20.510000
v 0.284629 -2.889886 20.460001
v 0.284629 -2.889886 20.510000
v 0.000000 -2.903869 20.460001
v 0.000000 -2.903869 20.510000
v -0.284629 -2.889886 20.460001
v -0.284629 -2.889886 20.510000
v -0.566517 -2.848072 20.460001
v -0.566517 -2.848072 20.510000
v -0.842949 -2.778829 20.460001
v -0.842949 -2.778829 20.510000
v -1.111262 -2.682825 20.460001
v -1.111262 -2.682825 20.510000
v -1.368874 -2.560983 20.460001
v -1.368874 -2.560983 20.510000
v -1.613303 -2.414479 20.460001
v -1.613303 -2.414479 20.510000
v -1.842195 -2.244721 20.460001
v -1.842195 -2.244721 20.510000
v -2.244721 -1.842195 20.460001
v -2.244721 -1.842195 20.510000
v -2.414479 -1.613303 20.460001
v -2.414479 -1.613303 20.510000
v -2.560983 -1.368874 20.460001
v -2.560983 -1.368874 20.510000
v -2.682825 -1.111262 20.460001
v -2.682825 -1.111262 20.510000
v -2.778829 -0.842949 20.460001
v -2.778829 -0.842949 20.510000
v -2.848072 -0.566517 20.460001
v -2.848072 -0.566517 20.510000
v -2.889886 -0.284629 20.460001
v -2.889886 -0.284629 20.510000
v -2.903869 0.000000 20.460001
v -2.903869 0.000000 20.510000
v -2.889886 0.284629 20.460001
v -2.889886 0.284629 20.510000
v -2.848072 0.566517 20.460001
v -2.848072 0.566517 20.510000
v -2.778829 0.842949 20.460001
v -2.778829 0.842949 20.510000
v -2.682825 1.111262 20.460001
v -2.682825 1.111262 20.510000
v -2.560983 1.368874 20.460001
v -2.560983 1.368874 20.510000
v -2.414479 1.613303 20.460001
v -2.414479 1.613303 20.510000
v -2.244721 1.842195 20.460001
v -2.244721 1.842195 20.510000
v -2.053345 2.053345 20.460001
v -2.053345 2.053345 20.510000
v -1.842195 2.244721 20.460001
v -1.842195 2.244721 20.510000
v -1.613303 2.414479 20.460001
v -1.613303 2.414479 20.510000
v -1.368874 2.560983 20.460001
v -1.368874 2.560983 20.510000
v -1.111262 2.682825 20.460001
v -1.111262 2.682825 20.510000
v -0.842949 2.778829 20.460001
v -0.842949 2.778829 20.510000
v -0.566517 2.848072 20.460001
v -0.566517 2.848072 20.510000
v -0.284629 2.889886 20.460001
v -0.284629 2.889886 20.510000
v -1.380000 -0.530000 20.510000
v -1.380000 0.530000 20.510000
v -0.320000 0.530000 20.510000
v -0.320000 -0.530000 20.510000
v -1.380000 0.530000 20.460001
v -1.380000 -0.530000 20.460001
v -0.320000 -0.530000 20.460001
v -0.320000 0.530000 20.460001
v -1.893430 -2.198284 20.510000
v -1.893430 -2.198284 20.460001
v -2.198284 -1.893430 20.510000
v -2.198284 -1.893430 20.460001
v -1.498284 -1.498284 20.510000
v -2.198284 -1.498284 20.510000
v -1.498284 -2.198284 20.510000
v -2.198284 -1.498284 20.460001
v -1.498284 -2.198284 20.460001
v -1.498284 -1.498284 20.460001
v -1.430000 -0.580000 21.530001
v -0.270000 -0.580000 21.530001
v -1.430000 -0.570000 21.527321
v -0.270000 -0.570000 21.527321
v -1.430000 -0.562679 21.520000
v -0.270000 -0.562679 21.520000
v -1.430000 -0.560000 21.510000
v -0.270000 -0.560000 21.510000
v -1.430000 -0.562679 21.500000
v -0.270000 -0.562679 21.500000
v -1.430000 -0.570000 21.492680
v -0.270000 -0.570000 21.492680
v -1.430000 -0.580000 21.490000
v -0.270000 -0.580000 21.490000
v -1.430000 -0.590000 21.492680
v -0.270000 -0.590000 21.492680
v -1.430000 -0.597320 21.500000
v -0.270000 -0.597320 21.500000
v -1.430000 -0.600000 21.510000
v -0.270000 -0.600000 21.510000
v -1.430000 -0.597320 21.520000
v -0.270000 -0.597320 21.520000
v -1.430000 -0.590000 21.527321
v -0.270000 -0.590000 21.527321
v -1.430000 -0.580000 21.025000
v -0.270000 -0.580000 21.025000
v -1.430000 -0.572500 21.022991
v -0.270000 -0.572500 21.022991
v -1.430000 -0.567010 21.017500
v -0.270000 -0.567010 21.017500
v -1.430000 -0.565000 21.010000
v -0.270000 -0.565000 21.010000
v -1.430000 -0.567010 21.002501
v -0.270000 -0.567010 21.002501
v -1.430000 -0.572500 20.997009
v -0.270000 -0.572500 20.997009
v -1.430000 -0.580000 20.995001
v -0.270000 -0.580000 20.995001
v -1.430000 -0.587500 20.997009
v -0.270000 -0.587500 20.997009
v -1.430000 -0.592990 21.002501
v -0.270000 -0.592990 21.002501
v -1.430000 -0.595000 21.010000
v -0.270000 -0.595000 21.010000
v -1.430000 -0.592990 21.017500
v -0.270000 -0.592990 21.017500
v -1.430000 -0.587500 21.022991
v -0.270000 -0.587500 21.022991
v -1.430000 0.580000 21.530001
v -0.270000 0.580000 21.530001
v -1.430000 0.590000 21.527321
v -0.270000 0.590000 21.527321
v -1.430000 0.597320 21.520000
v -0.270000 0.597320 21.520000
v -1.430000 0.600000 21.510000
v -0.270000 0.600000 21.510000
v -1.430000 0.597320 21.500000
v -0.270000 0.597320 21.500000
v -1.430000 0.590000 21.492680
v -0.270000 0.590000 21.492680
v -1.430000 0.580000 21.490000
v -0.270000 0.580000 21.490000
v -1.430000 0.570000 21.492680
v -0.270000 0.570000 21.492680
v -1.430000 0.562679 21.500000
v -0.270000 0.562679 21.500000
v -1.430000 0.560000 21.510000
v -0.270000 0.560000 21.510000
v -1.430000 0.562679 21.520000
v -0.270000 0.562679 21.520000
v -1.430000 0.570000 21.527321
v -0.270000 0.570000 21.527321
v -1.430000 0.580000 21.025000
v -0.270000 0.580000 21.025000
v -1.430000 0.587500 21.022991
v -0.270000 0.587500 21.022991
v -1.430000 0.592990 21.017500
v -0.270000 0.592990 21.017500
v -1.430000 0.595000 21.010000
v -0.270000 0.595000 21.010000
v -1.430000 0.592990 21.002501
v -0.270000 0.592990 21.002501
v -1.430000 0.587500 20.997009
v -0.270000 0.587500 20.997009
v -1.430000 0.580000 20.995001
v -0.270000 0.580000 20.995001
v -1.430000 0.572500 20.997009
v -0.270000 0.572500 20.997009
v -1.430000 0.567010 21.002501
v -0.270000 0.567010 21.002501
v -1.430000 0.565000 21.010000
v -0.270000 0.565000 21.010000
v -1.430000 0.567010 21.017500
v -0.270000 0.567010 21.017500
v -1.430000 0.572500 21.022991
v -0.270000 0.572500 21.022991
v -1.430000 -0.580000 21.530001
v -1.430000 0.580000 21.530001
v -1.440000 -0.580000 21.527321
v -1.440000 0.580000 21.527321
v -1.447320 -0.580000 21.520000
v -1.447320 0.580000 21.520000
v -1.450000 -0.580000 21.510000
v -1.450000 0.580000 21.510000
v -1.447320 -0.580000 21.500000
v -1.447320 0.580000 21.500000
v -1.440000 -0.580000 21.492680
v -1.440000 0.580000 21.492680
v -1.430000 -0.580000 21.490000
v -1.430000 0.580000 21.490000
v -1.420000 -0.580000 21.492680
v -1.420000 0.580000 21.492680
v -1.412679 -0.580000 21.500000
v -1.412679 0.580000 21.500000
v -1.410000 -0.580000 21.510000
v -1.410000 0.580000 21.510000
v -1.412679 -0.580000 21.520000
v -1.412679 0.580000 21.520000
v -1.420000 -0.580000 21.527321
v -1.420000 0.580000 21.527321
v -1.430000 -0.580000 21.025000
v -1.430000 0.580000 21.025000
v -1.437500 -0.580000 21.022991
v -1.437500 0.580000 21.022991
v -1.442990 -0.580000 21.017500
v -1.442990 0.580000 21.017500
v -1.445000 -0.580000 21.010000
v -1.445000 0.580000 21.010000
v -1.442990 -0.580000 21.002501
v -1.442990 0.580000 21.002501
v -1.437500 -0.580000 20.997009
v -1.437500 0.580000 20.997009
v -1.430000 -0.580000 20.995001
v -1.430000 0.580000 20.995001
v -1.422500 -0.580000 20.997009
v -1.422500 0.580000 20.997009
v -1.417010 -0.580000 21.002501
v -1.417010 0.580000 21.002501
v -1.415000 -0.580000 21.010000
v -1.415000 0.580000 21.010000
v -1.417010 -0.580000 21.017500
v -1.417010 0.580000 21.017500
v -1.422500 -0.580000 21.022991
v -1.422500 0.580000 21.022991
v -1.430000 -0.600000 20.510000
v -1.430000 -0.600000 21.510000
v -1.440000 -0.597320 20.510000
v -1.440000 -0.597320 21.510000
v -1.447320 -0.590000 20.510000
v -1.447320 -0.590000 21.510000
v -1.450000 -0.580000 20.510000
v -1.450000 -0.580000 21.510000
v -1.447320 -0.570000 20.510000
v -1.447320 -0.570000 21.510000
v -1.440000 -0.562679 20.510000
v -1.440000 -0.562679 21.510000
v -1.430000 -0.560000 20.510000
v -1.430000 -0.560000 21.510000
v -1.420000 -0.562679 20.510000
v -1.420000 -0.562679 21.510000
v -1.412679 -0.570000 20.510000
v -1.412679 -0.570000 21.510000
v -1.410000 -0.580000 20.510000
v -1.410000 -0.580000 21.510000
v -1.412679 -0.590000 20.510000
v -1.412679 -0.590000 21.510000
v -1.420000 -0.597320 20.510000
v -1.420000 -0.597320 21.510000
v -0.270000 -0.600000 20.510000
v -0.270000 -0.600000 21.510000
v -0.280000 -0.597320 20.510000
v -0.280000 -0.597320 21.510000
v -0.287321 -0.590000 20.510000
v -0.287321 -0.590000 21.510000
v -0.290000 -0.580000 20.510000
v -0.290000 -0.580000 21.510000
v -0.287321 -0.570000 20.510000
v -0.287321 -0.570000 21.510000
v -0.280000 -0.562679 20.510000
v -0.280000 -0.562679 21.510000
v -0.270000 -0.560000 20.510000
v -0.270000 -0.560000 21.510000
v -0.260000 -0.562679 20.510000
v -0.260000 -0.562679 21.510000
v -0.252679 -0.570000 20.510000
v -0.252679 -0.570000 21.510000
v -0.250000 -0.580000 20.510000
v -0.250000 -0.580000 21.510000
v -0.252679 -0.590000 20.510000
v -0.252679 -0.590000 21.510000
v -0.260000 -0.597320 20.510000
v -0.260000 -0.597320 21.510000
v -1.430000 0.560000 20.510000
v -1.430000 0.560000 21.510000
v -1.440000 0.562679 20.510000
v -1.440000 0.562679 21.510000
v -1.447320 0.570000 20.510000
v -1.447320 0.570000 21.510000
v -1.450000 0.580000 20.510000
v -1.450000 0.580000 21.510000
v -1.447320 0.590000 20.510000
v -1.447320 0.590000 21.510000
v -1.440000 0.597320 20.510000
v -1.440000 0.597320 21.510000
v -1.430000 0.600000 20.510000
v -1.430000 0.600000 21.510000
v -1.420000 0.597320 20.510000
v -1.420000 0.597320 21.510000
v -1.412679 0.590000 20.510000
v -1.412679 0.590000 21.510000
v -1.410000 0.580000 20.510000
v -1.410000 0.580000 21.510000
v -1.412679 0.570000 20.510000
v -1.412679 0.570000 21.510000
v -1.420000 0.562679 20.510000
v -1.420000 0.562679 21.510000
v -0.270000 0.560000 20.510000
v -0.270000 0.560000 21.510000
v -0.280000 0.562679 20.510000
v -0.280000 0.562679 21.510000
v -0.287321 0.570000 20.510000
v -0.287321 0.570000 21.510000
v -0.290000 0.580000 20.510000
v -0.290000 0.580000 21.510000
v -0.287321 0.590000 20.510000
v -0.287321 0.590000 21.510000
v -0.280000 0.597320 20.510000
v -0.280000 0.597320 21.510000
v -0.270000 0.600000 20.510000
v -0.270000 0.600000 21.510000
v -0.260000 0.597320 20.510000
v -0.260000 0.597320 21.510000
v -0.252679 0.590000 20.510000
v -0.252679 0.590000 21.510000
v -0.250000 0.580000 20.510000
v -0.250000 0.580000 21.510000
v -0.252679 0.570000 20.510000
v -0.252679 0.570000 21.510000
v -0.260000 0.562679 20.510000
v -0.260000 0.562679 21.510000
v -2.198284 -2.218284 20.510000
v -2.198284 -2.218284 21.510000
v -2.208284 -2.215605 20.510000
v -2.208284 -2.215605 21.510000
v -2.215605 -2.208284 20.510000
v -2.215605 -2.208284 21.510000
v -2.218284 -2.198284 20.510000
v -2.218284 -2.198284 21.510000
v -2.215605 -2.188284 20.510000
v -2.215605 -2.188284 21.510000
v -2.208284 -2.180964 20.510000
v -2.208284 -2.180964 21.510000
v -2.198284 -2.178284 20.510000
v -2.198284 -2.178284 21.510000
v -2.188284 -2.180964 20.510000
v -2.188284 -2.180964 21.510000
v -2.180964 -2.188284 20.510000
v -2.180964 -2.188284 21.510000
v -2.178284 -2.198284 20.510000
v -2.178284 -2.198284 21.510000
v -2.180964 -2.208284 20.510000
v -2.180964 -2.208284 21.510000
v -2.188284 -2.215605 20.510000
v -2.188284 -2.215605 21.510000
v -1.498284 -2.218284 20.510000
v -1.498284 -2.218284 21.510000
v -1.508284 -2.215605 20.510000
v -1.508284 -2.215605 21.510000
v -1.515605 -2.208284 20.510000
v -1.515605 -2.208284 21.510000
v -1.518284 -2.198284 20.510000
v -1.518284 -2.198284 21.510000
v -1.515605 -2.188284 20.510000
v -1.515605 -2.188284 21.510000
v -1.508284 -2.180964 20.510000
v -1.508284 -2.180964 21.510000
v -1.498284 -2.178284 20.510000
v -1.498284 -2.178284 21.510000
v -1.488284 -2.180964 20.510000
v -1.488284 -2.180964 21.510000
v -1.480964 -2.188284 20.510000
v -1.480964 -2.188284 21.510000
v -1.478284 -2.198284 20.510000
v -1.478284 -2.198284 21.510000
v -1.480964 -2.208284 20.510000
v -1.480964 -2.208284 21.510000
v -1.488284 -2.215605 20.510000
v -1.488284 -2.215605 21.510000
v -2.198284 -1.518284 20.510000
v -2.198284 -1.518284 21.510000
v -2.208284 -1.515605 20.510000
v -2.208284 -1.515605 21.510000
v -2.215605 -1.508284 20.510000
v -2.215605 -1.508284 21.510000
v -2.218284 -1.498284 20.510000
v -2.218284 -1.498284 21.510000
v -2.215605 -1.488284 20.510000
v -2.215605 -1.488284 21.510000
v -2.208284 -1.480964 20.510000
v -2.208284 -1.480964 21.510000
v -2.198284 -1.478284 20.510000
v -2.198284 -1.478284 21.510000
v -2.188284 -1.480964 20.510000
v -2.188284 -1.480964 21.510000
v -2.180964 -1.488284 20.510000
v -2.180964 -1.488284 21.510000
v -2.178284 -1.498284 20.510000
v -2.178284 -1.498284 21.510000
v -2.180964 -1.508284 20.510000
v -2.180964 -1.508284 21.510000
v -2.188284 -1.515605 20.510000
v -2.188284 -1.515605 21.510000
v -0.150000 2.834849 22.510000
v -0.150000 2.834849 22.609999
v -0.150000 2.894849 22.510000
v -0.150000 2.894849 22.609999
v 0.150000 2.834849 22.510000
v 0.150000 2.834849 22.609999
v 0.150000 2.894849 22.510000
v 0.150000 2.894849 22.609999
vn 0.0491 0.9988 -0.0000
vn 0.1467 0.9892 -0.0000
vn 0.2430 0.9700 -0.0000
vn 0.3369 0.9415 -0.0000
vn 0.4276 0.9040 -0.0000
vn 0.5141 0.8577 -0.0000
vn 0.5957 0.8032 -0.0000
vn 0.6716 0.7410 -0.0000
vn 0.7410 0.6716 -0.0000
vn 0.8032 0.5957 -0.0000
vn 0.8577 0.5141 -0.0000
vn 0.9040 0.4276 -0.0000
vn 0.9415 0.3369 -0.0000
vn 0.9700 0.2430 -0.0000
vn 0.9892 0.1467 -0.0000
vn 0.9988 0.0491 -0.0000
vn 0.9988 -0.0491 -0.0000
vn 0.9892 -0.1467 -0.0000
vn 0.9700 -0.2430 -0.0000
vn 0.9415 -0.3369 -0.0000
vn 0.9040 -0.4276 -0.0000
vn 0.8577 -0.5141 -0.0000
vn 0.8032 -0.5957 -0.0000
vn 0.7410 -0.6716 -0.0000
vn 0.6716 -0.7410 -0.0000
vn 0.5957 -0.8032 -0.0000
vn 0.5141 -0.8577 -0.0000
vn 0.4276 -0.9040 -0.0000
vn 0.3369 -0.9415 -0.0000
vn 0.2430 -0.9700 -0.0000
vn 0.1467 -0.9892 -0.0000
vn 0.0491 -0.9988 -0.0000
vn -0.0491 -0.9988 -0.0000
vn -0.1467 -0.9892 -0.0000
vn -0.2430 -0.9700 -0.0000
vn -0.3369 -0.9415 -0.0000
vn -0.4276 -0.9040 -0.0000
vn -0.5141 -0.8577 -0.0000
vn -0.5957 -0.8032 -0.0000
vn -0.6716 -0.7410 -0.0000
vn -0.7410 -0.6716 -0.0000
vn -0.8032 -0.5957 -0.0000
vn -0.8577 -0.5141 -0.0000
vn -0.9040 -0.4276 -0.0000
vn -0.9415 -0.3369 -0.0000
vn -0.9700 -0.2430 -0.0000
vn -0.9892 -0.1467 -0.0000
vn -0.9988 -0.0491 -0.0000
vn -0.9988 0.0491 -0.0000
vn -0.9892 0.1467 -0.0000
vn -0.9700 0.2430 -0.0000
vn -0.9415 0.3369 -0.0000
vn -0.9040 0.4276 -0.0000
vn -0.8577 0.5141 -0.0000
vn -0.8032 0.5957 -0.0000
vn -0.7410 0.6716 -0.0000
vn -0.6716 0.7410 -0.0000
vn -0.5957 0.8032 -0.0000
vn -0.5141 0.8577 -0.0000
vn -0.4276 0.9040 -0.0000
vn -0.3369 0.9415 -0.0000
vn -0.2430 0.9700 -0.0000
vn -0.0000 -0.0000 1.0000
vn -0.1467 0.9892 -0.0000
vn -0.0491 0.9988 -0.0000
vn -0.0000 -0.0000 -1.0000
vn 1.0000 -0.0000 -0.0000
vn -0.0000 -1.0000 -0.0000
vn -1.0000 -0.0000 -0.0000
vn -0.0000 1.0000 -0.0000
vn -0.0000 0.2588 0.9659
vn -0.0000 0.7071 0.7071
vn -0.0000 0.9659 0.2588
vn -0.0000 0.9659 -0.2588
vn -0.0000 0.7071 -0.7071
vn -0.0000 0.2589 -0.9659
vn -0.0000 -0.2588 -0.9659
vn -0.0000 -0.7071 -0.7071
vn -0.0000 -0.9659 -0.2588
vn -0.0000 -0.9659 0.2588
vn -0.0000 -0.7071 0.7071
vn -0.0000 -0.2588 0.9659
vn -0.0000 0.2587 0.9660
vn -0.0000 0.7072 0.7070
vn -0.0000 0.7072 -0.7071
vn -0.0000 0.2587 -0.9660
vn -0.0000 -0.2587 -0.9660
vn -0.0000 -0.7072 -0.7070
vn -0.0000 -0.7072 0.7071
vn -0.0000 -0.2587 0.9660
vn -0.0000 0.2588 -0.9659
vn -0.0000 -0.2589 0.9659
vn -0.2588 -0.0000 0.9659
vn -0.7071 -0.0000 0.7071
vn -0.9659 -0.0000 0.2588
vn -0.9659 -0.0000 -0.2588
vn -0.7071 -0.0000 -0.7071
vn -0.2589 -0.0000 -0.9659
vn 0.2588 -0.0000 -0.9659
vn 0.7071 -0.0000 -0.7071
vn 0.9659 -0.0000 -0.2588
vn 0.9659 -0.0000 0.2588
vn 0.7071 -0.0000 0.7071
vn 0.2589 -0.0000 0.9659
vn -0.2587 -0.0000 0.9660
vn -0.7072 -0.0000 0.7070
vn -0.7072 -0.0000 -0.7070
vn -0.2587 -0.0000 -0.9660
vn 0.2587 -0.0000 -0.9660
vn 0.7072 -0.0000 -0.7070
vn 0.7072 -0.0000 0.7070
vn 0.2587 -0.0000 0.9660
vn -0.2588 -0.9659 -0.0000
vn -0.7071 -0.7071 -0.0000
vn -0.9659 -0.2588 -0.0000
vn -0.9659 0.2588 -0.0000
vn -0.7071 0.7071 -0.0000
vn -0.2588 0.9659 -0.0000
vn 0.2588 0.9659 -0.0000
vn 0.7071 0.7071 -0.0000
vn 0.9659 0.2588 -0.0000
vn 0.9659 -0.2588 -0.0000
vn 0.7071 -0.7071 -0.0000
vn 0.2588 -0.9659 -0.0000
vn -0.7409 -0.6716 -0.0000
vn -0.0000 0.2589 0.9659
vn -0.0000 0.7072 0.7071
vn -0.0000 0.7072 -0.7070
vn -0.0000 -0.7072 -0.7071
vn -0.0000 -0.7072 0.7070
vn -1.0000 -0.0001 -0.0000
vn -1.0000 0.0001 -0.0000
vn -0.0000 -0.2589 -0.9659
vn -0.2589 -0.0000 0.9659
vn -0.2588 -0.0000 -0.9659
vn 0.2589 -0.0000 -0.9659
vn 0.2588 -0.0000 0.9659
s 0
usemtl grating
f 2//1 3//1 1//1
f 4//2 5//2 3//2
f 6//3 7//3 5//3
f 8//4 9//4 7//4
f 10//5 11//5 9//5
f 12//6 13//6 11//6
f 14//7 15//7 13//7
f 16//8 17//8 15//8
f 18//9 19//9 17//9
f 20//10 21//10 19//10
f 22//11 23//11 21//11
f 24//12 25//12 23//12
f 26//13 27//13 25//13
f 28//14 29//14 27//14
f 30//15 31//15 29//15
f 32//16 33//16 31//16
f 34//17 35//17 33//17
f 36//18 37//18 35//18
f 38//19 39//19 37//19
f 40//20 41//20 39//20
f 42//21 43//21 41//21
f 44//22 45//22 43//22
f 46//23 47//23 45//23
f 48//24 49//24 47//24
f 50//25 51//25 49//25
f 52//26 53//26 51//26
f 54//27 55//27 53//27
f 56//28 57//28 55//28
f 58//29 59//29 57//29
f 60//30 61//30 59//30
f 62//31 63//31 61//31
f 64//32 65//32 63//32
f 66//33 67//33 65//33
f 68//34 69//34 67//34
f 70//35 71//35 69//35
f 72//36 73//36 71//36
f 74//37 75//37 73//37
f 76//38 77//38 75//38
f 78//39 79//39 77//39
f 79//40 135//40 136//40
f 82//41 138//41 137//41
f 82//42 83//42 81//42
f 84//43 85//43 83//43
f 86//44 87//44 85//44
f 88//45 89//45 87//45
f 90//46 91//46 89//46
f 92//47 93//47 91//47
f 94//48 95//48 93//48
f 96//49 97//49 95//49
f 98//50 99//50 97//50
f 100//51 101//51 99//51
f 102//52 103//52 101//52
f 104//53 105//53 103//53
f 106//54 107//54 105//54
f 108//55 109//55 107//55
f 110//56 111//56 109//56
f 112//57 113//57 111//57
f 114//58 115//58 113//58
f 116//59 117//59 115//59
f 118//60 119//60 117//60
f 120//61 121//61 119//61
f 122//62 123//62 121//62
f 70//63 100//63 139//63
f 2//63 60//63 44//63
f 124//64 125//64 123//64
f 126//65 1//65 125//65
f 133//66 27//66 59//66
f 105//66 121//66 131//66
f 128//67 132//67 131//67
f 129//68 131//68 134//68
f 129//69 133//69 130//69
f 130//70 132//70 127//70
f 138//67 140//67 137//67
f 139//68 142//68 144//68
f 139//69 143//69 141//69
f 141//70 136//70 135//70
f 2//1 4//1 3//1
f 4//2 6//2 5//2
f 6//3 8//3 7//3
f 8//4 10//4 9//4
f 10//5 12//5 11//5
f 12//6 14//6 13//6
f 14//7 16//7 15//7
f 16//8 18//8 17//8
f 18//9 20//9 19//9
f 20//10 22//10 21//10
f 22//11 24//11 23//11
f 24//12 26//12 25//12
f 26//13 28//13 27//13
f 28//14 30//14 29//14
f 30//15 32//15 31//15
f 32//16 34//16 33//16
f 34//17 36//17 35//17
f 36//18 38//18 37//18
f 38//19 40//19 39//19
f 40//20 42//20 41//20
f 42//21 44//21 43//21
f 44//22 46//22 45//22
f 46//23 48//23 47//23
f 48//24 50//24 49//24
f 50//25 52//25 51//25
f 52//26 54//26 53//26
f 54//27 56//27 55//27
f 56//28 58//28 57//28
f 58//29 60//29 59//29
f 60//30 62//30 61//30
f 62//31 64//31 63//31
f 64//32 66//32 65//32
f 66//33 68//33 67//33
f 68//34 70//34 69//34
f 70//35 72//35 71//35
f 72//36 74//36 73//36
f 74//37 76//37 75//37
f 76//38 78//38 77//38
f 78//39 80//39 79//39
f 79//40 80//40 135//40
f 82//125 81//125 138//125
f 82//42 84//42 83//42
f 84//43 86//43 85//43
f 86//44 88//44 87//44
f 88//45 90//45 89//45
f 90//46 92//46 91//46
f 92//47 94//47 93//47
f 94//48 96//48 95//48
f 96//49 98//49 97//49
f 98//50 100//50 99//50
f 100//51 102//51 101//51
f 102//52 104//52 103//52
f 104//53 106//53 105//53
f 106//54 108//54 107//54
f 108//55 110//55 109//55
f 110//56 112//56 111//56
f 112//57 114//57 113//57
f 114//58 116//58 115//58
f 116//59 118//59 117//59
f 118//60 120//60 119//60
f 120//61 122//61 121//61
f 122//62 124//62 123//62
f 135//63 80//63 78//63
f 78//63 76//63 74//63
f 74//63 72//63 70//63
f 70//63 130//63 127//63
f 127//63 128//63 100//63
f 100//63 98//63 96//63
f 96//63 94//63 92//63
f 92//63 90//63 88//63
f 88//63 86//63 84//63
f 84//63 82//63 137//63
f 84//63 137//63 140//63
f 92//63 88//63 84//63
f 100//63 96//63 92//63
f 70//63 127//63 100//63
f 78//63 74//63 70//63
f 141//63 135//63 78//63
f 141//63 78//63 70//63
f 100//63 92//63 84//63
f 100//63 84//63 140//63
f 139//63 141//63 70//63
f 100//63 140//63 139//63
f 22//63 20//63 18//63
f 18//63 16//63 14//63
f 14//63 12//63 10//63
f 10//63 8//63 6//63
f 6//63 4//63 2//63
f 2//63 126//63 124//63
f 124//63 122//63 120//63
f 120//63 118//63 116//63
f 116//63 114//63 112//63
f 112//63 110//63 108//63
f 108//63 106//63 104//63
f 104//63 102//63 100//63
f 100//63 128//63 129//63
f 130//63 70//63 68//63
f 104//63 100//63 129//63
f 129//63 130//63 68//63
f 68//63 66//63 64//63
f 64//63 62//63 60//63
f 60//63 58//63 56//63
f 56//63 54//63 52//63
f 52//63 50//63 48//63
f 48//63 46//63 44//63
f 44//63 42//63 40//63
f 40//63 38//63 36//63
f 36//63 34//63 32//63
f 32//63 30//63 28//63
f 28//63 26//63 24//63
f 24//63 22//63 18//63
f 18//63 14//63 10//63
f 10//63 6//63 2//63
f 2//63 124//63 120//63
f 120//63 116//63 112//63
f 112//63 108//63 104//63
f 129//63 68//63 64//63
f 112//63 104//63 129//63
f 2//63 120//63 112//63
f 18//63 10//63 2//63
f 28//63 24//63 18//63
f 36//63 32//63 28//63
f 44//63 40//63 36//63
f 52//63 48//63 44//63
f 60//63 56//63 52//63
f 129//63 64//63 60//63
f 2//63 112//63 129//63
f 28//63 18//63 2//63
f 44//63 36//63 28//63
f 60//63 52//63 44//63
f 2//63 129//63 60//63
f 44//63 28//63 2//63
f 124//64 126//64 125//64
f 126//65 2//65 1//65
f 142//66 138//66 81//66
f 81//66 83//66 85//66
f 85//66 87//66 89//66
f 89//66 91//66 93//66
f 89//66 93//66 132//66
f 81//66 85//66 89//66
f 142//66 81//66 89//66
f 89//66 132//66 133//66
f 133//66 134//66 125//66
f 125//66 1//66 3//66
f 3//66 5//66 7//66
f 7//66 9//66 11//66
f 11//66 13//66 15//66
f 15//66 17//66 19//66
f 19//66 21//66 23//66
f 23//66 25//66 27//66
f 27//66 29//66 31//66
f 31//66 33//66 35//66
f 35//66 37//66 39//66
f 39//66 41//66 43//66
f 43//66 45//66 47//66
f 47//66 49//66 51//66
f 51//66 53//66 55//66
f 55//66 57//66 59//66
f 59//66 61//66 63//66
f 63//66 65//66 67//66
f 67//66 69//66 71//66
f 71//66 73//66 75//66
f 75//66 77//66 79//66
f 79//66 136//66 143//66
f 144//66 142//66 89//66
f 75//66 79//66 143//66
f 144//66 89//66 133//66
f 75//66 143//66 144//66
f 67//66 71//66 75//66
f 59//66 63//66 67//66
f 51//66 55//66 59//66
f 43//66 47//66 51//66
f 35//66 39//66 43//66
f 27//66 31//66 35//66
f 19//66 23//66 27//66
f 11//66 15//66 19//66
f 3//66 7//66 11//66
f 133//66 125//66 3//66
f 75//66 144//66 133//66
f 59//66 67//66 75//66
f 43//66 51//66 59//66
f 27//66 35//66 43//66
f 11//66 19//66 27//66
f 133//66 3//66 11//66
f 59//66 75//66 133//66
f 27//66 43//66 59//66
f 133//66 11//66 27//66
f 131//66 132//66 93//66
f 93//66 95//66 97//66
f 97//66 99//66 101//66
f 101//66 103//66 105//66
f 105//66 107//66 109//66
f 109//66 111//66 113//66
f 113//66 115//66 117//66
f 117//66 119//66 121//66
f 121//66 123//66 125//66
f 125//66 134//66 131//66
f 131//66 93//66 97//66
f 97//66 101//66 105//66
f 105//66 109//66 113//66
f 113//66 117//66 121//66
f 121//66 125//66 131//66
f 131//66 97//66 105//66
f 105//66 113//66 121//66
f 128//67 127//67 132//67
f 129//68 128//68 131//68
f 129//69 134//69 133//69
f 130//70 133//70 132//70
f 138//67 142//67 140//67
f 139//68 140//68 142//68
f 139//69 144//69 143//69
f 141//70 143//70 136//70
usemtl hatch_yellow
f 146//71 147//71 145//71
f 148//72 149//72 147//72
f 150//73 151//73 149//73
f 152//74 153//74 151//74
f 154//75 155//75 153//75
f 156//76 157//76 155//76
f 158//77 159//77 157//77
f 160//78 161//78 159//78
f 162//79 163//79 161//79
f 164//80 165//80 163//80
f 166//67 158//67 150//67
f 166//81 167//81 165//81
f 168//82 145//82 167//82
f 151//69 159//69 167//69
f 170//83 171//83 169//83
f 172//84 173//84 171//84
f 174//73 175//73 173//73
f 176//74 177//74 175//74
f 178//85 179//85 177//85
f 180//86 181//86 179//86
f 182//87 183//87 181//87
f 184//88 185//88 183//88
f 186//79 187//79 185//79
f 188//80 189//80 187//80
f 190//67 182//67 174//67
f 190//89 191//89 189//89
f 192//90 169//90 191//90
f 175//69 183//69 191//69
f 194//71 195//71 193//71
f 196//72 197//72 195//72
f 198//73 199//73 197//73
f 200//74 201//74 199//74
f 202//75 203//75 201//75
f 204//91 205//91 203//91
f 206//77 207//77 205//77
f 208//78 209//78 207//78
f 210//79 211//79 209//79
f 212//80 213//80 211//80
f 214//67 206//67 198//67
f 214//81 215//81 213//81
f 216//92 193//92 215//92
f 199//69 207//69 215//69
f 218//83 219//83 217//83
f 220//84 221//84 219//84
f 222//73 223//73 221//73
f 224//74 225//74 223//74
f 226//85 227//85 225//85
f 228//86 229//86 227//86
f 230//87 231//87 229//87
f 232//88 233//88 231//88
f 234//79 235//79 233//79
f 236//80 237//80 235//80
f 238//67 230//67 222//67
f 238//89 239//89 237//89
f 240//90 217//90 239//90
f 223//69 231//69 239//69
f 242//93 243//93 241//93
f 244//94 245//94 243//94
f 246//95 247//95 245//95
f 248//96 249//96 247//96
f 250//97 251//97 249//97
f 252//98 253//98 251//98
f 254//99 255//99 253//99
f 256//100 257//100 255//100
f 258//101 259//101 257//101
f 260//102 261//102 259//102
f 262//70 254//70 246//70
f 262//103 263//103 261//103
f 264//104 241//104 263//104
f 247//68 255//68 263//68
f 266//105 267//105 265//105
f 268//106 269//106 267//106
f 270//95 271//95 269//95
f 272//96 273//96 271//96
f 274//107 275//107 273//107
f 276//108 277//108 275//108
f 278//109 279//109 277//109
f 280//110 281//110 279//110
f 282//101 283//101 281//101
f 284//102 285//102 283//102
f 286//70 278//70 270//70
f 286//111 287//111 285//111
f 288//112 265//112 287//112
f 271//68 279//68 287//68
f 290//113 291//113 289//113
f 292//114 293//114 291//114
f 294//115 295//115 293//115
f 296//116 297//116 295//116
f 298//117 299//117 297//117
f 300//118 301//118 299//118
f 302//119 303//119 301//119
f 304//120 305//120 303//120
f 306//121 307//121 305//121
f 308//122 309//122 307//122
f 310//63 302//63 294//63
f 310//123 311//123 309//123
f 312//124 289//124 311//124
f 295//66 303//66 311//66
f 314//113 315//113 313//113
f 316//114 317//114 315//114
f 318//115 319//115 317//115
f 320//116 321//116 319//116
f 322//117 323//117 321//117
f 324//118 325//118 323//118
f 326//119 327//119 325//119
f 328//120 329//120 327//120
f 330//121 331//121 329//121
f 332//122 333//122 331//122
f 334//63 326//63 318//63
f 334//123 335//123 333//123
f 336//124 313//124 335//124
f 319//66 327//66 335//66
f 338//113 339//113 337//113
f 340//114 341//114 339//114
f 342//115 343//115 341//115
f 344//116 345//116 343//116
f 346//117 347//117 345//117
f 348//118 349//118 347//118
f 350//119 351//119 349//119
f 352//120 353//120 351//120
f 354//121 355//121 353//121
f 356//122 357//122 355//122
f 358//63 350//63 342//63
f 358//123 359//123 357//123
f 360//124 337//124 359//124
f 343//66 351//66 359//66
f 362//113 363//113 361//113
f 364//114 365//114 363//114
f 366//115 367//115 365//115
f 368//116 369//116 367//116
f 370//117 371//117 369//117
f 372//118 373//118 371//118
f 374//119 375//119 373//119
f 376//120 377//120 375//120
f 378//121 379//121 377//121
f 380//122 381//122 379//122
f 382//63 374//63 366//63
f 382//123 383//123 381//123
f 384//124 361//124 383//124
f 367//66 375//66 383//66
f 386//113 387//113 385//113
f 388//114 389//114 387//114
f 390//115 391//115 389//115
f 392//116 393//116 391//116
f 394//117 395//117 393//117
f 396//118 397//118 395//118
f 398//119 399//119 397//119
f 400//120 401//120 399//120
f 402//121 403//121 401//121
f 404//122 405//122 403//122
f 406//63 398//63 390//63
f 406//123 407//123 405//123
f 408//124 385//124 407//124
f 391//66 399//66 407//66
f 410//113 411//113 409//113
f 412//114 413//114 411//114
f 414//115 415//115 413//115
f 416//116 417//116 415//116
f 418//117 419//117 417//117
f 420//118 421//118 419//118
f 422//119 423//119 421//119
f 424//120 425//120 423//120
f 426//121 427//121 425//121
f 428//122 429//122 427//122
f 430//63 422//63 414//63
f 430//123 431//123 429//123
f 432//124 409//124 431//124
f 415//66 423//66 431//66
f 434//113 435//113 433//113
f 436//114 437//114 435//114
f 438//115 439//115 437//115
f 440//116 441//116 439//116
f 442//117 443//117 441//117
f 444//118 445//118 443//118
f 446//119 447//119 445//119
f 448//120 449//120 447//120
f 450//121 451//121 449//121
f 452//122 453//122 451//122
f 454//63 446//63 438//63
f 454//123 455//123 453//123
f 456//124 433//124 455//124
f 439//66 447//66 455//66
f 146//126 148//126 147//126
f 148//72 150//72 149//72
f 150//73 152//73 151//73
f 152//74 154//74 153//74
f 154//75 156//75 155//75
f 156//91 158//91 157//91
f 158//77 160//77 159//77
f 160//78 162//78 161//78
f 162//79 164//79 163//79
f 164//80 166//80 165//80
f 150//67 148//67 146//67
f 146//67 168//67 166//67
f 166//67 164//67 162//67
f 162//67 160//67 158//67
f 158//67 156//67 154//67
f 154//67 152//67 150//67
f 150//67 146//67 166//67
f 166//67 162//67 158//67
f 158//67 154//67 150//67
f 166//81 168//81 167//81
f 168//82 146//82 145//82
f 167//69 145//69 147//69
f 147//69 149//69 151//69
f 151//69 153//69 155//69
f 155//69 157//69 159//69
f 159//69 161//69 163//69
f 163//69 165//69 167//69
f 167//69 147//69 151//69
f 151//69 155//69 159//69
f 159//69 163//69 167//69
f 170//83 172//83 171//83
f 172//127 174//127 173//127
f 174//73 176//73 175//73
f 176//74 178//74 177//74
f 178//128 180//128 179//128
f 180//86 182//86 181//86
f 182//87 184//87 183//87
f 184//129 186//129 185//129
f 186//79 188//79 187//79
f 188//80 190//80 189//80
f 174//67 172//67 170//67
f 170//67 192//67 190//67
f 190//67 188//67 186//67
f 186//67 184//67 182//67
f 182//67 180//67 178//67
f 178//67 176//67 174//67
f 174//67 170//67 190//67
f 190//67 186//67 182//67
f 182//67 178//67 174//67
f 190//130 192//130 191//130
f 192//90 170//90 169//90
f 191//69 169//69 171//69
f 171//131 173//131 175//131
f 175//131 177//131 179//131
f 179//69 181//69 183//69
f 183//132 185//132 187//132
f 187//132 189//132 191//132
f 191//69 171//69 175//69
f 175//69 179//69 183//69
f 183//69 187//69 191//69
f 194//71 196//71 195//71
f 196//72 198//72 197//72
f 198//73 200//73 199//73
f 200//74 202//74 201//74
f 202//75 204//75 203//75
f 204//91 206//91 205//91
f 206//133 208//133 207//133
f 208//78 210//78 209//78
f 210//79 212//79 211//79
f 212//80 214//80 213//80
f 198//67 196//67 194//67
f 194//67 216//67 214//67
f 214//67 212//67 210//67
f 210//67 208//67 206//67
f 206//67 204//67 202//67
f 202//67 200//67 198//67
f 198//67 194//67 214//67
f 214//67 210//67 206//67
f 206//67 202//67 198//67
f 214//81 216//81 215//81
f 216//82 194//82 193//82
f 215//69 193//69 195//69
f 195//69 197//69 199//69
f 199//69 201//69 203//69
f 203//69 205//69 207//69
f 207//69 209//69 211//69
f 211//69 213//69 215//69
f 215//69 195//69 199//69
f 199//69 203//69 207//69
f 207//69 211//69 215//69
f 218//83 220//83 219//83
f 220//127 222//127 221//127
f 222//73 224//73 223//73
f 224//74 226//74 225//74
f 226//128 228//128 227//128
f 228//86 230//86 229//86
f 230//87 232//87 231//87
f 232//129 234//129 233//129
f 234//79 236//79 235//79
f 236//80 238//80 237//80
f 222//67 220//67 218//67
f 218//67 240//67 238//67
f 238//67 236//67 234//67
f 234//67 232//67 230//67
f 230//67 228//67 226//67
f 226//67 224//67 222//67
f 222//67 218//67 238//67
f 238//67 234//67 230//67
f 230//67 226//67 222//67
f 238//130 240//130 239//130
f 240//90 218//90 217//90
f 239//69 217//69 219//69
f 219//131 221//131 223//131
f 223//131 225//131 227//131
f 227//69 229//69 231//69
f 231//132 233//132 235//132
f 235//132 237//132 239//132
f 239//69 219//69 223//69
f 223//69 227//69 231//69
f 231//69 235//69 239//69
f 242//134 244//134 243//134
f 244//94 246//94 245//94
f 246//95 248//95 247//95
f 248//96 250//96 249//96
f 250//97 252//97 251//97
f 252//135 254//135 253//135
f 254//136 256//136 255//136
f 256//100 258//100 257//100
f 258//101 260//101 259//101
f 260//102 262//102 261//102
f 246//70 244//70 242//70
f 242//70 264//70 262//70
f 262//70 260//70 258//70
f 258//70 256//70 254//70
f 254//70 252//70 250//70
f 250//70 248//70 246//70
f 246//70 242//70 262//70
f 262//70 258//70 254//70
f 254//70 250//70 246//70
f 262//103 264//103 263//103
f 264//137 242//137 241//137
f 263//68 241//68 243//68
f 243//68 245//68 247//68
f 247//68 249//68 251//68
f 251//68 253//68 255//68
f 255//68 257//68 259//68
f 259//68 261//68 263//68
f 263//68 243//68 247//68
f 247//68 251//68 255//68
f 255//68 259//68 263//68
f 266//105 268//105 267//105
f 268//106 270//106 269//106
f 270//95 272//95 271//95
f 272//96 274//96 273//96
f 274//107 276//107 275//107
f 276//108 278//108 277//108
f 278//109 280//109 279//109
f 280//110 282//110 281//110
f 282//101 284//101 283//101
f 284//102 286//102 285//102
f 270//70 268//70 266//70
f 266//70 288//70 286//70
f 286//70 284//70 282//70
f 282//70 280//70 278//70
f 278//70 276//70 274//70
f 274//70 272//70 270//70
f 270//70 266//70 286//70
f 286//70 282//70 278//70
f 278//70 274//70 270//70
f 286//111 288//111 287//111
f 288//112 266//112 265//112
f 287//68 265//68 267//68
f 267//68 269//68 271//68
f 271//68 273//68 275//68
f 275//68 277//68 279//68
f 279//68 281//68 283//68
f 283//68 285//68 287//68
f 287//68 267//68 271//68
f 271//68 275//68 279//68
f 279//68 283//68 287//68
f 290//113 292//113 291//113
f 292//114 294//114 293//114
f 294//115 296//115 295//115
f 296//116 298//116 297//116
f 298//117 300//117 299//117
f 300//118 302//118 301//118
f 302//119 304//119 303//119
f 304//120 306//120 305//120
f 306//121 308//121 307//121
f 308//122 310//122 309//122
f 294//63 292//63 290//63
f 290//63 312//63 310//63
f 310//63 308//63 306//63
f 306//63 304//63 302//63
f 302//63 300//63 298//63
f 298//63 296//63 294//63
f 294//63 290//63 310//63
f 310//63 306//63 302//63
f 302//63 298//63 294//63
f 310//123 312//123 311//123
f 312//124 290//124 289//124
f 311//66 289//66 291//66
f 291//66 293//66 295//66
f 295//66 297//66 299//66
f 299//66 301//66 303//66
f 303//66 305//66 307//66
f 307//66 309//66 311//66
f 311//66 291//66 295//66
f 295//66 299//66 303//66
f 303//66 307//66 311//66
f 314//113 316//113 315//113
f 316//114 318//114 317//114
f 318//115 320//115 319//115
f 320//116 322//116 321//116
f 322//117 324//117 323//117
f 324//118 326//118 325//118
f 326//119 328//119 327//119
f 328//120 330//120 329//120
f 330//121 332//121 331//121
f 332//122 334//122 333//122
f 318//63 316//63 314//63
f 314//63 336//63 334//63
f 334//63 332//63 330//63
f 330//63 328//63 326//63
f 326//63 324//63 322//63
f 322//63 320//63 318//63
f 318//63 314//63 334//63
f 334//63 330//63 326//63
f 326//63 322//63 318//63
f 334//123 336//123 335//123
f 336//124 314//124 313//124
f 335//66 313//66 315//66
f 315//66 317//66 319//66
f 319//66 321//66 323//66
f 323//66 325//66 327//66
f 327//66 329//66 331//66
f 331//66 333//66 335//66
f 335//66 315//66 319//66
f 319//66 323//66 327//66
f 327//66 331//66 335//66
f 338//113 340//113 339//113
f 340//114 342//114 341//114
f 342//115 344//115 343//115
f 344//116 346//116 345//116
f 346//117 348//117 347//117
f 348//118 350//118 349//118
f 350//119 352//119 351//119
f 352//120 354//120 353//120
f 354//121 356//121 355//121
f 356//122 358//122 357//122
f 342//63 340//63 338//63
f 338//63 360//63 358//63
f 358//63 356//63 354//63
f 354//63 352//63 350//63
f 350//63 348//63 346//63
f 346//63 344//63 342//63
f 342//63 338//63 358//63
f 358//63 354//63 350//63
f 350//63 346//63 342//63
f 358//123 360//123 359//123
f 360//124 338//124 337//124
f 359//66 337//66 339//66
f 339//66 341//66 343//66
f 343//66 345//66 347//66
f 347//66 349//66 351//66
f 351//66 353//66 355//66
f 355//66 357//66 359//66
f 359//66 339//66 343//66
f 343//66 347//66 351//66
f 351//66 355//66 359//66
f 362//113 364//113 363//113
f 364//114 366//114 365//114
f 366//115 368//115 367//115
f 368//116 370//116 369//116
f 370//117 372//117 371//117
f 372//118 374//118 373//118
f 374//119 376//119 375//119
f 376//120 378//120 377//120
f 378//121 380//121 379//121
f 380//122 382//122 381//122
f 366//63 364//63 362//63
f 362//63 384//63 382//63
f 382//63 380//63 378//63
f 378//63 376//63 374//63
f 374//63 372//63 370//63
f 370//63 368//63 366//63
f 366//63 362//63 382//63
f 382//63 378//63 374//63
f 374//63 370//63 366//63
f 382//123 384//123 383//123
f 384//124 362//124 361//124
f 383//66 361//66 363//66
f 363//66 365//66 367//66
f 367//66 369//66 371//66
f 371//66 373//66 375//66
f 375//66 377//66 379//66
f 379//66 381//66 383//66
f 383//66 363//66 367//66
f 367//66 371//66 375//66
f 375//66 379//66 383//66
f 386//113 388//113 387//113
f 388//114 390//114 389//114
f 390//115 392//115 391//115
f 392//116 394//116 393//116
f 394//117 396//117 395//117
f 396//118 398//118 397//118
f 398//119 400//119 399//119
f 400//120 402//120 401//120
f 402//121 404//121 403//121
f 404//122 406//122 405//122
f 390//63 388//63 386//63
f 386//63 408//63 406//63
f 406//63 404//63 402//63
f 402//63 400//63 398//63
f 398//63 396//63 394//63
f 394//63 392//63 390//63
f 390//63 386//63 406//63
f 406//63 402//63 398//63
f 398//63 394//63 390//63
f 406//123 408//123 407//123
f 408//124 386//124 385//124
f 407//66 385//66 387//66
f 387//66 389//66 391//66
f 391//66 393//66 395//66
f 395//66 397//66 399//66
f 399//66 401//66 403//66
f 403//66 405//66 407//66
f 407//66 387//66 391//66
f 391//66 395//66 399//66
f 399//66 403//66 407//66
f 410//113 412//113 411//113
f 412//114 414//114 413//114
f 414//115 416//115 415//115
f 416//116 418//116 417//116
f 418//117 420//117 419//117
f 420//118 422//118 421//118
f 422//119 424//119 423//119
f 424//120 426//120 425//120
f 426//121 428//121 427//121
f 428//122 430//122 429//122
f 414//63 412//63 410//63
f 410//63 432//63 430//63
f 430//63 428//63 426//63
f 426//63 424//63 422//63
f 422//63 420//63 418//63
f 418//63 416//63 414//63
f 414//63 410//63 430//63
f 430//63 426//63 422//63
f 422//63 418//63 414//63
f 430//123 432//123 431//123
f 432//124 410//124 409//124
f 431//66 409//66 411//66
f 411//66 413//66 415//66
f 415//66 417//66 419//66
f 419//66 421//66 423//66
f 423//66 425//66 427//66
f 427//66 429//66 431//66
f 431//66 411//66 415//66
f 415//66 419//66 423//66
f 423//66 427//66 431//66
f 434//113 436//113 435//113
f 436//114 438//114 437//114
f 438//115 440//115 439//115
f 440//116 442//116 441//116
f 442//117 444//117 443//117
f 444//118 446//118 445//118
f 446//119 448//119 447//119
f 448//120 450//120 449//120
f 450//121 452//121 451//121
f 452//122 454//122 453//122
f 438//63 436//63 434//63
f 434//63 456//63 454//63
f 454//63 452//63 450//63
f 450//63 448//63 446//63
f 446//63 444//63 442//63
f 442//63 440//63 438//63
f 438//63 434//63 454//63
f 454//63 450//63 446//63
f 446//63 442//63 438//63
f 454//123 456//123 455//123
f 456//124 434//124 433//124
f 455//66 433//66 435//66
f 435//66 437//66 439//66
f 439//66 441//66 443//66
f 443//66 445//66 447//66
f 447//66 449//66 451//66
f 451//66 453//66 455//66
f 455//66 435//66 439//66
f 439//66 443//66 447//66
f 447//66 451//66 455//66
usemtl lamp
f 458//69 459//69 457//69
f 460//70 463//70 459//70
f 464//67 461//67 463//67
f 462//68 457//68 461//68
f 463//66 457//66 459//66
f 460//63 462//63 464//63
f 458//69 460//69 459//69
f 460//70 464//70 463//70
f 464//67 462//67 461//67
f 462//68 458//68 457//68
f 463//66 461//66 457//66
f 460//63 458//63 462//63
