# Blender 5.2.2 LTS
# www.blender.org
mtllib platform_3.mtl
o platform_3
v 0.000000 2.184981 31.260000
v 0.000000 2.184981 31.309999
v 0.214166 2.174460 31.260000
v 0.214166 2.174460 31.309999
v 0.426269 2.142997 31.260000
v 0.426269 2.142997 31.309999
v 0.634267 2.090897 31.260000
v 0.634267 2.090897 31.309999
v 0.836156 2.018659 31.260000
v 0.836156 2.018659 31.309999
v 1.029993 1.926981 31.260000
v 1.029993 1.926981 31.309999
v 1.213910 1.816745 31.260000
v 1.213910 1.816745 31.309999
v 1.386137 1.689013 31.260000
v 1.386137 1.689013 31.309999
v 1.545015 1.545015 31.260000
v 1.545015 1.545015 31.309999
v 1.689013 1.386137 31.260000
v 1.689013 1.386137 31.309999
v 1.816745 1.213910 31.260000
v 1.816745 1.213910 31.309999
v 1.926981 1.029993 31.260000
v 1.926981 1.029993 31.309999
v 2.018659 0.836156 31.260000
v 2.018659 0.836156 31.309999
v 2.090897 0.634267 31.260000
v 2.090897 0.634267 31.309999
v 2.142997 0.426269 31.260000
v 2.142997 0.426269 31.309999
v 2.174460 0.214166 31.260000
v 2.174460 0.214166 31.309999
v 2.184981 0.000000 31.260000
v 2.184981 0.000000 31.309999
v 2.174460 -0.214166 31.260000
v 2.174460 -0.214166 31.309999
v 2.142997 -0.426269 31.260000
v 2.142997 -0.426269 31.309999
v 2.090897 -0.634267 31.260000
v 2.090897 -0.634267 31.309999
v 2.018659 -0.836156 31.260000
v 2.018659 -0.836156 31.309999
v 1.926981 -1.029993 31.260000
v 1.926981 -1.029993 31.309999
v 1.816745 -1.213910 31.260000
v 1.816745 -1.213910 31.309999
v 1.689013 -1.386137 31.260000
v 1.689013 -1.386137 31.309999
v 1.545015 -1.545015 31.260000
v 1.545015 -1.545015 31.309999
v 1.386137 -1.689013 31.260000
v 1.386137 -1.689013 31.309999
v 1.213910 -1.816745 31.260000
v 1.213910 -1.816745 31.309999
v 1.029993 -1.926981 31.260000
v 1.029993 -1.926981 31.309999
v 0.836156 -2.018659 31.260000
v 0.836156 -2.018659 31.309999
v 0.634267 -2.090897 31.260000
v 0.634267 -2.090897 31.309999
v 0.426269 -2.142997 31.260000
v 0.426269 -2.142997 31.309999
v 0.214166 -2.174460 31.260000
v 0.214166 -2.174460 31.309999
v 0.000000 -2.184981 31.260000
v 0.000000 -2.184981 31.309999
v -0.214166 -2.174460 31.260000
v -0.214166 -2.174460 31.309999
v -0.426269 -2.142997 31.260000
v -0.426269 -2.142997 31.309999
v -0.634267 -2.090897 31.260000
v -0.634267 -2.090897 31.309999
v -0.836156 -2.018659 31.260000
v -0.836156 -2.018659 31.309999
v -1.029993 -1.926981 31.260000
v -1.029993 -1.926981 31.309999
v -1.213910 -1.816745 31.260000
v -1.213910 -1.816745 31.309999
v -1.816745 -1.213910 31.260000
v -1.816745 -1.213910 31.309999
v -1.926981 -1.029993 31.260000
v -1.926981 -1.029993 31.309999
v -2.018659 -0.836156 31.260000
v -2.018659 -0.836156 31.309999
v -2.090897 -0.634267 31.260000
v -2.090897 -0.634267 31.309999
v -2.142997 -0.426269 31.260000
v -2.142997 -0.426269 31.309999
v -2.174460 -0.214166 31.260000
v -2.174460 -0.214166 31.309999
v -2.184981 0.000000 31.260000
v -2.184981 0.000000 31.309999
v -2.174460 0.214166 31.260000
v -2.174460 0.214166 31.309999
v -2.142997 0.426269 31.260000
v -2.142997 0.426269 31.309999
v -2.090897 0.634267 31.260000
v -2.090897 0.634267 31.309999
v -2.018659 0.836156 31.260000
v -2.018659 0.836156 31.309999
v -1.926981 1.029993 31.260000
v -1.926981 1.029993 31.309999
v -1.816745 1.213910 31.260000
v -1.816745 1.213910 31.309999
v -1.689013 1.386137 31.260000
v -1.689013 1.386137 31.309999
v -1.545015 1.545015 31.260000
v -1.545015 1.545015 31.309999
v -1.386137 1.689013 31.260000
v -1.386137 1.689013 31.309999
v -1.213910 1.816745 31.260000
v -1.213910 1.816745 31.309999
v -1.029993 1.926981 31.260000
v -1.029993 1.926981 31.309999
v -0.836156 2.018659 31.260000
v -0.836156 2.018659 31.309999
v -0.634267 2.090897 31.260000
v -0.634267 2.090897 31.309999
v -0.426269 2.142997 31.260000
v -0.426269 2.142997 31.309999
v -0.214166 2.174460 31.260000
v -0.214166 2.174460 31.309999
v -1.380000 -0.530000 31.309999
v -1.380000 0.530000 31.309999
v -0.320000 0.530000 31.309999
v -0.320000 -0.530000 31.309999
v -1.380000 0.530000 31.260000
v -1.380000 -0.026500 31.260000
v -1.380000 -0.530000 31.260000
v -0.320000 -0.530000 31.260000
v -0.320000 0.530000 31.260000
v -1.384869 -1.689954 31.309999
v -1.384869 -1.689954 31.260000
v -1.689954 -1.384869 31.309999
v -1.689954 -1.384869 31.260000
v -0.989954 -0.989954 31.309999
v -1.689954 -0.989954 31.309999
v -0.989954 -1.689954 31.309999
v -1.689954 -0.989954 31.260000
v -0.989954 -1.689954 31.260000
v -0.989954 -0.989954 31.260000
v -1.430000 -0.580000 32.330002
v -0.270000 -0.580000 32.330002
v -1.430000 -0.570000 32.327320
v -0.270000 -0.570000 32.327320
v -1.430000 -0.562679 32.320000
v -0.270000 -0.562679 32.320000
v -1.430000 -0.560000 32.310001
v -0.270000 -0.560000 32.310001
v -1.430000 -0.562679 32.300003
v -0.270000 -0.562679 32.300003
v -1.430000 -0.570000 32.292683
v -0.270000 -0.570000 32.292683
v -1.430000 -0.580000 32.290001
v -0.270000 -0.580000 32.290001
v -1.430000 -0.590000 32.292683
v -0.270000 -0.590000 32.292683
v -1.430000 -0.597320 32.300003
v -0.270000 -0.597320 32.300003
v -1.430000 -0.600000 32.310001
v -0.270000 -0.600000 32.310001
v -1.430000 -0.597320 32.320000
v -0.270000 -0.597320 32.320000
v -1.430000 -0.590000 32.327320
v -0.270000 -0.590000 32.327320
v -1.430000 -0.580000 31.824999
v -0.270000 -0.580000 31.824999
v -1.430000 -0.572500 31.822990
v -0.270000 -0.572500 31.822990
v -1.430000 -0.567010 31.817499
v -0.270000 -0.567010 31.817499
v -1.430000 -0.565000 31.809999
v -0.270000 -0.565000 31.809999
v -1.430000 -0.567010 31.802500
v -0.270000 -0.567010 31.802500
v -1.430000 -0.572500 31.797009
v -0.270000 -0.572500 31.797009
v -1.430000 -0.580000 31.795000
v -0.270000 -0.580000 31.795000
v -1.430000 -0.587500 31.797009
v -0.270000 -0.587500 31.797009
v -1.430000 -0.592990 31.802500
v -0.270000 -0.592990 31.802500
v -1.430000 -0.595000 31.809999
v -0.270000 -0.595000 31.809999
v -1.430000 -0.592990 31.817499
v -0.270000 -0.592990 31.817499
v -1.430000 -0.587500 31.822990
v -0.270000 -0.587500 31.822990
v -1.430000 0.580000 32.330002
v -0.270000 0.580000 32.330002
v -1.430000 0.590000 32.327320
v -0.270000 0.590000 32.327320
v -1.430000 0.597320 32.320000
v -0.270000 0.597320 32.320000
v -1.430000 0.600000 32.310001
v -0.270000 0.600000 32.310001
v -1.430000 0.597320 32.300003
v -0.270000 0.597320 32.300003
v -1.430000 0.590000 32.292683
v -0.270000 0.590000 32.292683
v -1.430000 0.580000 32.290001
v -0.270000 0.580000 32.290001
v -1.430000 0.570000 32.292683
v -0.270000 0.570000 32.292683
v -1.430000 0.562679 32.300003
v -0.270000 0.562679 32.300003
v -1.430000 0.560000 32.310001
v -0.270000 0.560000 32.310001
v -1.430000 0.562679 32.320000
v -0.270000 0.562679 32.320000
v -1.430000 0.570000 32.327320
v -0.270000 0.570000 32.327320
v -1.430000 0.580000 31.824999
v -0.270000 0.580000 31.824999
v -1.430000 0.587500 31.822990
v -0.270000 0.587500 31.822990
v -1.430000 0.592990 31.817499
v -0.270000 0.592990 31.817499
v -1.430000 0.595000 31.809999
v -0.270000 0.595000 31.809999
v -1.430000 0.592990 31.802500
v -0.270000 0.592990 31.802500
v -1.430000 0.587500 31.797009
v -0.270000 0.587500 31.797009
v -1.430000 0.580000 31.795000
v -0.270000 0.580000 31.795000
v -1.430000 0.572500 31.797009
v -0.270000 0.572500 31.797009
v -1.430000 0.567010 31.802500
v -0.270000 0.567010 31.802500
v -1.430000 0.565000 31.809999
v -0.270000 0.565000 31.809999
v -1.430000 0.567010 31.817499
v -0.270000 0.567010 31.817499
v -1.430000 0.572500 31.822990
v -0.270000 0.572500 31.822990
v -1.430000 -0.580000 32.330002
v -1.430000 0.580000 32.330002
v -1.440000 -0.580000 32.327320
v -1.440000 0.580000 32.327320
v -1.447320 -0.580000 32.320000
v -1.447320 0.580000 32.320000
v -1.450000 -0.580000 32.310001
v -1.450000 0.580000 32.310001
v -1.447320 -0.580000 32.300003
v -1.447320 0.580000 32.300003
v -1.440000 -0.580000 32.292683
v -1.440000 0.580000 32.292683
v -1.430000 -0.580000 32.290001
v -1.430000 0.580000 32.290001
v -1.420000 -0.580000 32.292683
v -1.420000 0.580000 32.292683
v -1.412679 -0.580000 32.300003
v -1.412679 0.580000 32.300003
v -1.410000 -0.580000 32.310001
v -1.410000 0.580000 32.310001
v -1.412679 -0.580000 32.320000
v -1.412679 0.580000 32.320000
v -1.420000 -0.580000 32.327320
v -1.420000 0.580000 32.327320
v -1.430000 -0.580000 31.824999
v -1.430000 0.580000 31.824999
v -1.437500 -0.580000 31.822990
v -1.437500 0.580000 31.822990
v -1.442990 -0.580000 31.817499
v -1.442990 0.580000 31.817499
v -1.445000 -0.580000 31.809999
v -1.445000 0.580000 31.809999
v -1.442990 -0.580000 31.802500
v -1.442990 0.580000 31.802500
v -1.437500 -0.580000 31.797009
v -1.437500 0.580000 31.797009
v -1.430000 -0.580000 31.795000
v -1.430000 0.580000 31.795000
v -1.422500 -0.580000 31.797009
v -1.422500 0.580000 31.797009
v -1.417010 -0.580000 31.802500
v -1.417010 0.580000 31.802500
v -1.415000 -0.580000 31.809999
v -1.415000 0.580000 31.809999
v -1.417010 -0.580000 31.817499
v -1.417010 0.580000 31.817499
v -1.422500 -0.580000 31.822990
v -1.422500 0.580000 31.822990
v -1.430000 -0.600000 31.310001
v -1.430000 -0.600000 32.310001
v -1.440000 -0.597320 31.310001
v -1.440000 -0.597320 32.310001
v -1.447320 -0.590000 31.310001
v -1.447320 -0.590000 32.310001
v -1.450000 -0.580000 31.310001
v -1.450000 -0.580000 32.310001
v -1.447320 -0.570000 31.310001
v -1.447320 -0.570000 32.310001
v -1.440000 -0.562679 31.310001
v -1.440000 -0.562679 32.310001
v -1.430000 -0.560000 31.310001
v -1.430000 -0.560000 32.310001
v -1.420000 -0.562679 31.310001
v -1.420000 -0.562679 32.310001
v -1.412679 -0.570000 31.310001
v -1.412679 -0.570000 32.310001
v -1.410000 -0.580000 31.310001
v -1.410000 -0.580000 32.310001
v -1.412679 -0.590000 31.310001
v -1.412679 -0.590000 32.310001
v -1.420000 -0.597320 31.310001
v -1.420000 -0.597320 32.310001
v -0.270000 -0.600000 31.310001
v -0.270000 -0.600000 32.310001
v -0.280000 -0.597320 31.310001
v -0.280000 -0.597320 32.310001
v -0.287321 -0.590000 31.310001
v -0.287321 -0.590000 32.310001
v -0.290000 -0.580000 31.310001
v -0.290000 -0.580000 32.310001
v -0.287321 -0.570000 31.310001
v -0.287321 -0.570000 32.310001
v -0.280000 -0.562679 31.310001
v -0.280000 -0.562679 32.310001
v -0.270000 -0.560000 31.310001
v -0.270000 -0.560000 32.310001
v -0.260000 -0.562679 31.310001
v -0.260000 -0.562679 32.310001
v -0.252679 -0.570000 31.310001
v -0.252679 -0.570000 32.310001
v -0.250000 -0.580000 31.310001
v -0.250000 -0.580000 32.310001
v -0.252679 -0.590000 31.310001
v -0.252679 -0.590000 32.310001
v -0.260000 -0.597320 31.310001
v -0.260000 -0.597320 32.310001
v -1.430000 0.560000 31.310001
v -1.430000 0.560000 32.310001
v -1.440000 0.562679 31.310001
v -1.440000 0.562679 32.310001
v -1.447320 0.570000 31.310001
v -1.447320 0.570000 32.310001
v -1.450000 0.580000 31.310001
v -1.450000 0.580000 32.310001
v -1.447320 0.590000 31.310001
v -1.447320 0.590000 32.310001
v -1.440000 0.597320 31.310001
v -1.440000 0.597320 32.310001
v -1.430000 0.600000 31.310001
v -1.430000 0.600000 32.310001
v -1.420000 0.597320 31.310001
v -1.420000 0.597320 32.310001
v -1.412679 0.590000 31.310001
v -1.412679 0.590000 32.310001
v -1.410000 0.580000 31.310001
v -1.410000 0.580000 32.310001
v -1.412679 0.570000 31.310001
v -1.412679 0.570000 32.310001
v -1.420000 0.562679 31.310001
v -1.420000 0.562679 32.310001
v -0.270000 0.560000 31.310001
v -0.270000 0.560000 32.310001
v -0.280000 0.562679 31.310001
v -0.280000 0.562679 32.310001
v -0.287321 0.570000 31.310001
v -0.287321 0.570000 32.310001
v -0.290000 0.580000 31.310001
v -0.290000 0.580000 32.310001
v -0.287321 0.590000 31.310001
v -0.287321 0.590000 32.310001
v -0.280000 0.597320 31.310001
v -0.280000 0.597320 32.310001
v -0.270000 0.600000 31.310001
v -0.270000 0.600000 32.310001
v -0.260000 0.597320 31.310001
v -0.260000 0.597320 32.310001
v -0.252679 0.590000 31.310001
v -0.252679 0.590000 32.310001
v -0.250000 0.580000 31.310001
v -0.250000 0.580000 32.310001
v -0.252679 0.570000 31.310001
v -0.252679 0.570000 32.310001
v -0.260000 0.562679 31.310001
v -0.260000 0.562679 32.310001
v -1.689954 -1.709954 31.310001
v -1.689954 -1.709954 32.310001
v -1.699954 -1.707274 31.310001
v -1.699954 -1.707274 32.310001
v -1.707274 -1.699954 31.310001
v -1.707274 -1.699954 32.310001
v -1.709954 -1.689954 31.310001
v -1.709954 -1.689954 32.310001
v -1.707274 -1.679954 31.310001
v -1.707274 -1.679954 32.310001
v -1.699954 -1.672633 31.310001
v -1.699954 -1.672633 32.310001
v -1.689954 -1.669954 31.310001
v -1.689954 -1.669954 32.310001
v -1.679954 -1.672633 31.310001
v -1.679954 -1.672633 32.310001
v -1.672633 -1.679954 31.310001
v -1.672633 -1.679954 32.310001
v -1.669954 -1.689954 31.310001
v -1.669954 -1.689954 32.310001
v -1.672633 -1.699954 31.310001
v -1.672633 -1.699954 32.310001
v -1.679954 -1.707274 31.310001
v -1.679954 -1.707274 32.310001
v -0.989954 -1.709954 31.310001
v -0.989954 -1.709954 32.310001
v -0.999954 -1.707274 31.310001
v -0.999954 -1.707274 32.310001
v -1.007274 -1.699954 31.310001
v -1.007274 -1.699954 32.310001
v -1.009954 -1.689954 31.310001
v -1.009954 -1.689954 32.310001
v -1.007274 -1.679954 31.310001
v -1.007274 -1.679954 32.310001
v -0.999954 -1.672633 31.310001
v -0.999954 -1.672633 32.310001
v -0.989954 -1.669954 31.310001
v -0.989954 -1.669954 32.310001
v -0.979954 -1.672633 31.310001
v -0.979954 -1.672633 32.310001
v -0.972633 -1.679954 31.310001
v -0.972633 -1.679954 32.310001
v -0.969954 -1.689954 31.310001
v -0.969954 -1.689954 32.310001
v -0.972633 -1.699954 31.310001
v -0.972633 -1.699954 32.310001
v -0.979954 -1.707274 31.310001
v -0.979954 -1.707274 32.310001
v -1.689954 -1.009954 31.310001
v -1.689954 -1.009954 32.310001
v -1.699954 -1.007274 31.310001
v -1.699954 -1.007274 32.310001
v -1.707274 -0.999954 31.310001
v -1.707274 -0.999954 32.310001
v -1.709954 -0.989954 31.310001
v -1.709954 -0.989954 32.310001
v -1.707274 -0.979954 31.310001
v -1.707274 -0.979954 32.310001
v -1.699954 -0.972633 31.310001
v -1.699954 -0.972633 32.310001
v -1.689954 -0.969954 31.310001
v -1.689954 -0.969954 32.310001
v -1.679954 -0.972633 31.310001
v -1.679954 -0.972633 32.310001
v -1.672633 -0.979954 31.310001
v -1.672633 -0.979954 32.310001
v -1.669954 -0.989954 31.310001
v -1.669954 -0.989954 32.310001
v -1.672633 -0.999954 31.310001
v -1.672633 -0.999954 32.310001
v -1.679954 -1.007274 31.310001
v -1.679954 -1.007274 32.310001
v -0.150000 2.045121 33.310001
v -0.150000 2.045121 33.410000
v -0.150000 2.105121 33.310001
v -0.150000 2.105121 33.410000
v 0.150000 2.045121 33.310001
v 0.150000 2.045121 33.410000
v 0.150000 2.105121 33.310001
v 0.150000 2.105121 33.410000
vn 0.0491 0.9988 -0.0000
vn 0.1467 0.9892 -0.0000
vn 0.2430 0.9700 -0.0000
vn 0.3369 0.9415 -0.0000
vn 0.4276 0.9040 -0.0000
vn 0.5141 0.8577 -0.0000
vn 0.5957 0.8032 -0.0000
vn 0.6716 0.7410 -0.0000
vn 0.7410 0.6716 -0.0000
vn 0.8032 0.5957 -0.0000
vn 0.8577 0.5141 -0.0000
vn 0.9040 0.4276 -0.0000
vn 0.9415 0.3369 -0.0000
vn 0.9700 0.2430 -0.0000
vn 0.9892 0.1467 -0.0000
vn 0.9988 0.0491 -0.0000
vn 0.9988 -0.0491 -0.0000
vn 0.9892 -0.1467 -0.0000
vn 0.9700 -0.2430 -0.0000
vn 0.9415 -0.3369 -0.0000
vn 0.9040 -0.4276 -0.0000
vn 0.8577 -0.5141 -0.0000
vn 0.8032 -0.5957 -0.0000
vn 0.7410 -0.6716 -0.0000
vn 0.6716 -0.7410 -0.0000
vn 0.5957 -0.8032 -0.0000
vn 0.5141 -0.8577 -0.0000
vn 0.4276 -0.9040 -0.0000
vn 0.3369 -0.9415 -0.0000
vn 0.2430 -0.9700 -0.0000
vn 0.1467 -0.9892 -0.0000
vn 0.0491 -0.9988 -0.0000
vn -0.0491 -0.9988 -0.0000
vn -0.1467 -0.9892 -0.0000
vn -0.2430 -0.9700 -0.0000
vn -0.3369 -0.9415 -0.0000
vn -0.4276 -0.9040 -0.0000
vn -0.5141 -0.8577 -0.0000
vn -0.5957 -0.8032 -0.0000
vn -0.8032 -0.5957 -0.0000
vn -0.8577 -0.5141 -0.0000
vn -0.9040 -0.4276 -0.0000
vn -0.9415 -0.3369 -0.0000
vn -0.9700 -0.2430 -0.0000
vn -0.9892 -0.1467 -0.0000
vn -0.9988 -0.0491 -0.0000
vn -0.9988 0.0491 -0.0000
vn -0.9892 0.1467 -0.0000
vn -0.9700 0.2430 -0.0000
vn -0.9415 0.3369 -0.0000
vn -0.9040 0.4276 -0.0000
vn -0.8577 0.5141 -0.0000
vn -0.8032 0.5957 -0.0000
vn -0.7410 0.6716 -0.0000
vn -0.6716 0.7410 -0.0000
vn -0.5957 0.8032 -0.0000
vn -0.5141 0.8577 -0.0000
vn -0.4276 0.9040 -0.0000
vn -0.3369 0.9415 -0.0000
vn -0.2430 0.9700 -0.0000
vn -0.0000 -0.0000 1.0000
vn -0.1467 0.9892 -0.0000
vn -0.0491 0.9988 -0.0000
vn -0.0000 -0.0000 -1.0000
vn 1.0000 -0.0000 -0.0000
vn -0.0000 -1.0000 -0.0000
vn -1.0000 -0.0000 -0.0000
vn -0.0000 1.0000 -0.0000
vn -0.0000 0.2590 0.9659
vn -0.0000 0.7071 0.7071
vn -0.0000 0.9659 0.2589
vn -0.0000 0.9659 -0.2589
vn -0.0000 0.7071 -0.7071
vn -0.0000 0.2590 -0.9659
vn -0.0000 -0.2590 -0.9659
vn -0.0000 -0.7071 -0.7071
vn -0.0000 -0.9659 -0.2589
vn -0.0000 -0.9659 0.2589
vn -0.0000 -0.7071 0.7071
vn -0.0000 -0.2590 0.9659
vn -0.0000 0.2587 0.9660
vn -0.0000 0.7072 0.7070
vn -0.0000 0.9659 0.2588
vn -0.0000 0.9659 -0.2588
vn -0.0000 0.7072 -0.7071
vn -0.0000 0.2587 -0.9660
vn -0.0000 -0.2587 -0.9660
vn -0.0000 -0.7072 -0.7070
vn -0.0000 -0.9659 -0.2588
vn -0.0000 -0.9659 0.2588
vn -0.0000 -0.7072 0.7071
vn -0.0000 -0.2587 0.9660
vn -0.2590 -0.0000 0.9659
vn -0.7071 -0.0000 0.7071
vn -0.9659 -0.0000 0.2589
vn -0.9659 -0.0000 -0.2589
vn -0.7071 -0.0000 -0.7071
vn -0.2590 -0.0000 -0.9659
vn 0.2590 -0.0000 -0.9659
vn 0.7071 -0.0000 -0.7071
vn 0.9659 -0.0000 -0.2589
vn 0.9659 -0.0000 0.2589
vn 0.7071 -0.0000 0.7071
vn 0.2590 -0.0000 0.9659
vn -0.2587 -0.0000 0.9660
vn -0.7072 -0.0000 0.7070
vn -0.9659 -0.0000 0.2588
vn -0.9659 -0.0000 -0.2588
vn -0.7072 -0.0000 -0.7070
vn -0.2587 -0.0000 -0.9660
vn 0.2587 -0.0000 -0.9660
vn 0.7072 -0.0000 -0.7070
vn 0.9659 -0.0000 -0.2588
vn 0.9659 -0.0000 0.2588
vn 0.7072 -0.0000 0.7070
vn 0.2587 -0.0000 0.9660
vn -0.2588 -0.9659 -0.0000
vn -0.7071 -0.7071 -0.0000
vn -0.9659 -0.2588 -0.0000
vn -0.9659 0.2588 -0.0000
vn -0.7071 0.7071 -0.0000
vn -0.2588 0.9659 -0.0000
vn 0.2588 0.9659 -0.0000
vn 0.7071 0.7071 -0.0000
vn 0.9659 0.2588 -0.0000
vn 0.9659 -0.2588 -0.0000
vn 0.7071 -0.7071 -0.0000
vn 0.2588 -0.9659 -0.0000
vn -0.0000 0.7072 0.7071
vn -0.0000 0.7072 -0.7070
vn -0.0000 -0.7072 -0.7071
vn -0.0000 -0.7072 0.7070
vn -1.0000 -0.0001 -0.0000
vn -1.0000 0.0001 -0.0000
s 0
usemtl grating
f 2//1 3//1 1//1
f 4//2 5//2 3//2
f 6//3 7//3 5//3
f 8//4 9//4 7//4
f 10//5 11//5 9//5
f 12//6 13//6 11//6
f 14//7 15//7 13//7
f 16//8 17//8 15//8
f 18//9 19//9 17//9
f 20//10 21//10 19//10
f 22//11 23//11 21//11
f 24//12 25//12 23//12
f 26//13 27//13 25//13
f 28//14 29//14 27//14
f 30//15 31//15 29//15
f 32//16 33//16 31//16
f 34//17 35//17 33//17
f 36//18 37//18 35//18
f 38//19 39//19 37//19
f 40//20 41//20 39//20
f 42//21 43//21 41//21
f 44//22 45//22 43//22
f 46//23 47//23 45//23
f 48//24 49//24 47//24
f 50//25 51//25 49//25
f 52//26 53//26 51//26
f 54//27 55//27 53//27
f 56//28 57//28 55//28
f 58//29 59//29 57//29
f 60//30 61//30 59//30
f 62//31 63//31 61//31
f 64//32 65//32 63//32
f 66//33 67//33 65//33
f 68//34 69//34 67//34
f 70//35 71//35 69//35
f 72//36 73//36 71//36
f 74//37 75//37 73//37
f 76//38 77//38 75//38
f 77//39 132//39 133//39
f 80//40 135//40 134//40
f 80//41 81//41 79//41
f 82//42 83//42 81//42
f 84//43 85//43 83//43
f 86//44 87//44 85//44
f 88//45 89//45 87//45
f 90//46 91//46 89//46
f 92//47 93//47 91//47
f 94//48 95//48 93//48
f 96//49 97//49 95//49
f 98//50 99//50 97//50
f 100//51 101//51 99//51
f 102//52 103//52 101//52
f 104//53 105//53 103//53
f 106//54 107//54 105//54
f 108//55 109//55 107//55
f 110//56 111//56 109//56
f 112//57 113//57 111//57
f 114//58 115//58 113//58
f 116//59 117//59 115//59
f 118//60 119//60 117//60
f 123//61 90//61 82//61
f 34//61 2//61 125//61
f 120//62 121//62 119//62
f 122//63 1//63 121//63
f 130//64 25//64 57//64
f 127//64 101//64 117//64
f 128//65 124//65 129//65
f 125//66 127//66 131//66
f 125//67 130//67 126//67
f 126//68 129//68 123//68
f 135//65 137//65 134//65
f 136//66 139//66 141//66
f 141//67 138//67 136//67
f 138//68 133//68 132//68
f 2//1 4//1 3//1
f 4//2 6//2 5//2
f 6//3 8//3 7//3
f 8//4 10//4 9//4
f 10//5 12//5 11//5
f 12//6 14//6 13//6
f 14//7 16//7 15//7
f 16//8 18//8 17//8
f 18//9 20//9 19//9
f 20//10 22//10 21//10
f 22//11 24//11 23//11
f 24//12 26//12 25//12
f 26//13 28//13 27//13
f 28//14 30//14 29//14
f 30//15 32//15 31//15
f 32//16 34//16 33//16
f 34//17 36//17 35//17
f 36//18 38//18 37//18
f 38//19 40//19 39//19
f 40//20 42//20 41//20
f 42//21 44//21 43//21
f 44//22 46//22 45//22
f 46//23 48//23 47//23
f 48//24 50//24 49//24
f 50//25 52//25 51//25
f 52//26 54//26 53//26
f 54//27 56//27 55//27
f 56//28 58//28 57//28
f 58//29 60//29 59//29
f 60//30 62//30 61//30
f 62//31 64//31 63//31
f 64//32 66//32 65//32
f 66//33 68//33 67//33
f 68//34 70//34 69//34
f 70//35 72//35 71//35
f 72//36 74//36 73//36
f 74//37 76//37 75//37
f 76//38 78//38 77//38
f 77//39 78//39 132//39
f 80//40 79//40 135//40
f 80//41 82//41 81//41
f 82//42 84//42 83//42
f 84//43 86//43 85//43
f 86//44 88//44 87//44
f 88//45 90//45 89//45
f 90//46 92//46 91//46
f 92//47 94//47 93//47
f 94//48 96//48 95//48
f 96//49 98//49 97//49
f 98//50 100//50 99//50
f 100//51 102//51 101//51
f 102//52 104//52 103//52
f 104//53 106//53 105//53
f 106//54 108//54 107//54
f 108//55 110//55 109//55
f 110//56 112//56 111//56
f 112//57 114//57 113//57
f 114//58 116//58 115//58
f 116//59 118//59 117//59
f 118//60 120//60 119//60
f 132//61 78//61 76//61
f 76//61 74//61 72//61
f 72//61 70//61 126//61
f 123//61 124//61 96//61
f 76//61 72//61 126//61
f 138//61 132//61 76//61
f 138//61 76//61 126//61
f 123//61 96//61 94//61
f 136//61 138//61 126//61
f 80//61 134//61 137//61
f 137//61 136//61 126//61
f 123//61 94//61 92//61
f 137//61 126//61 123//61
f 82//61 80//61 137//61
f 86//61 84//61 82//61
f 90//61 88//61 86//61
f 123//61 92//61 90//61
f 82//61 137//61 123//61
f 90//61 86//61 82//61
f 54//61 52//61 50//61
f 50//61 48//61 46//61
f 46//61 44//61 42//61
f 42//61 40//61 38//61
f 38//61 36//61 34//61
f 34//61 32//61 30//61
f 30//61 28//61 26//61
f 26//61 24//61 22//61
f 22//61 20//61 18//61
f 18//61 16//61 14//61
f 14//61 12//61 10//61
f 10//61 8//61 6//61
f 6//61 4//61 2//61
f 2//61 122//61 120//61
f 120//61 118//61 116//61
f 116//61 114//61 112//61
f 112//61 110//61 108//61
f 108//61 106//61 104//61
f 104//61 102//61 100//61
f 100//61 98//61 96//61
f 100//61 96//61 124//61
f 108//61 104//61 100//61
f 116//61 112//61 108//61
f 2//61 120//61 116//61
f 10//61 6//61 2//61
f 18//61 14//61 10//61
f 26//61 22//61 18//61
f 34//61 30//61 26//61
f 42//61 38//61 34//61
f 50//61 46//61 42//61
f 56//61 54//61 50//61
f 60//61 58//61 56//61
f 64//61 62//61 60//61
f 68//61 66//61 64//61
f 126//61 70//61 68//61
f 100//61 124//61 125//61
f 125//61 126//61 68//61
f 68//61 64//61 60//61
f 60//61 56//61 50//61
f 50//61 42//61 34//61
f 34//61 26//61 18//61
f 18//61 10//61 2//61
f 2//61 116//61 108//61
f 108//61 100//61 125//61
f 125//61 68//61 60//61
f 60//61 50//61 34//61
f 34//61 18//61 2//61
f 2//61 108//61 125//61
f 125//61 60//61 34//61
f 120//62 122//62 121//62
f 122//63 2//63 1//63
f 135//64 79//64 81//64
f 81//64 83//64 85//64
f 85//64 87//64 89//64
f 89//64 128//64 129//64
f 130//64 131//64 121//64
f 85//64 89//64 129//64
f 130//64 121//64 1//64
f 85//64 129//64 130//64
f 135//64 81//64 85//64
f 139//64 135//64 85//64
f 130//64 1//64 3//64
f 139//64 85//64 130//64
f 141//64 139//64 130//64
f 130//64 3//64 5//64
f 5//64 7//64 9//64
f 9//64 11//64 13//64
f 13//64 15//64 17//64
f 17//64 19//64 21//64
f 21//64 23//64 25//64
f 25//64 27//64 29//64
f 29//64 31//64 33//64
f 33//64 35//64 37//64
f 37//64 39//64 41//64
f 41//64 43//64 45//64
f 45//64 47//64 49//64
f 49//64 51//64 53//64
f 53//64 55//64 57//64
f 57//64 59//64 61//64
f 61//64 63//64 65//64
f 65//64 67//64 69//64
f 69//64 71//64 73//64
f 73//64 75//64 77//64
f 77//64 133//64 140//64
f 140//64 141//64 130//64
f 130//64 5//64 9//64
f 9//64 13//64 17//64
f 17//64 21//64 25//64
f 25//64 29//64 33//64
f 33//64 37//64 41//64
f 41//64 45//64 49//64
f 49//64 53//64 57//64
f 57//64 61//64 65//64
f 65//64 69//64 73//64
f 73//64 77//64 140//64
f 130//64 9//64 17//64
f 73//64 140//64 130//64
f 57//64 65//64 73//64
f 41//64 49//64 57//64
f 25//64 33//64 41//64
f 130//64 17//64 25//64
f 57//64 73//64 130//64
f 25//64 41//64 57//64
f 127//64 128//64 89//64
f 89//64 91//64 93//64
f 93//64 95//64 97//64
f 97//64 99//64 101//64
f 101//64 103//64 105//64
f 105//64 107//64 109//64
f 109//64 111//64 113//64
f 113//64 115//64 117//64
f 117//64 119//64 121//64
f 121//64 131//64 127//64
f 127//64 89//64 93//64
f 93//64 97//64 101//64
f 101//64 105//64 109//64
f 109//64 113//64 117//64
f 117//64 121//64 127//64
f 127//64 93//64 101//64
f 101//64 109//64 117//64
f 128//65 127//65 124//65
f 124//65 123//65 129//65
f 125//66 124//66 127//66
f 125//67 131//67 130//67
f 126//68 130//68 129//68
f 135//65 139//65 137//65
f 136//66 137//66 139//66
f 141//67 140//67 138//67
f 138//68 140//68 133//68
usemtl hatch_yellow
f 143//69 144//69 142//69
f 145//70 146//70 144//70
f 147//71 148//71 146//71
f 149//72 150//72 148//72
f 151//73 152//73 150//73
f 153//74 154//74 152//74
f 155//75 156//75 154//75
f 157//76 158//76 156//76
f 159//77 160//77 158//77
f 161//78 162//78 160//78
f 163//65 155//65 147//65
f 163//79 164//79 162//79
f 165//80 142//80 164//80
f 148//67 156//67 164//67
f 167//81 168//81 166//81
f 169//82 170//82 168//82
f 171//83 172//83 170//83
f 173//84 174//84 172//84
f 175//85 176//85 174//85
f 177//86 178//86 176//86
f 179//87 180//87 178//87
f 181//88 182//88 180//88
f 183//89 184//89 182//89
f 185//90 186//90 184//90
f 187//65 179//65 171//65
f 187//91 188//91 186//91
f 189//92 166//92 188//92
f 172//67 180//67 188//67
f 191//69 192//69 190//69
f 193//70 194//70 192//70
f 195//71 196//71 194//71
f 197//72 198//72 196//72
f 199//73 200//73 198//73
f 201//74 202//74 200//74
f 203//75 204//75 202//75
f 205//76 206//76 204//76
f 207//77 208//77 206//77
f 209//78 210//78 208//78
f 211//65 203//65 195//65
f 211//79 212//79 210//79
f 213//80 190//80 212//80
f 196//67 204//67 212//67
f 215//81 216//81 214//81
f 217//82 218//82 216//82
f 219//83 220//83 218//83
f 221//84 222//84 220//84
f 223//85 224//85 222//85
f 225//86 226//86 224//86
f 227//87 228//87 226//87
f 229//88 230//88 228//88
f 231//89 232//89 230//89
f 233//90 234//90 232//90
f 235//65 227//65 219//65
f 235//91 236//91 234//91
f 237//92 214//92 236//92
f 220//67 228//67 236//67
f 239//93 240//93 238//93
f 241//94 242//94 240//94
f 243//95 244//95 242//95
f 245//96 246//96 244//96
f 247//97 248//97 246//97
f 249//98 250//98 248//98
f 251//99 252//99 250//99
f 253//100 254//100 252//100
f 255//101 256//101 254//101
f 257//102 258//102 256//102
f 259//68 251//68 243//68
f 259//103 260//103 258//103
f 261//104 238//104 260//104
f 244//66 252//66 260//66
f 263//105 264//105 262//105
f 265//106 266//106 264//106
f 267//107 268//107 266//107
f 269//108 270//108 268//108
f 271//109 272//109 270//109
f 273//110 274//110 272//110
f 275//111 276//111 274//111
f 277//112 278//112 276//112
f 279//113 280//113 278//113
f 281//114 282//114 280//114
f 283//68 275//68 267//68
f 283//115 284//115 282//115
f 285//116 262//116 284//116
f 268//66 276//66 284//66
f 287//117 288//117 286//117
f 289//118 290//118 288//118
f 291//119 292//119 290//119
f 293//120 294//120 292//120
f 295//121 296//121 294//121
f 297//122 298//122 296//122
f 299//123 300//123 298//123
f 301//124 302//124 300//124
f 303//125 304//125 302//125
f 305//126 306//126 304//126
f 307//61 299//61 291//61
f 307//127 308//127 306//127
f 309//128 286//128 308//128
f 292//64 300//64 308//64
f 311//117 312//117 310//117
f 313//118 314//118 312//118
f 315//119 316//119 314//119
f 317//120 318//120 316//120
f 319//121 320//121 318//121
f 321//122 322//122 320//122
f 323//123 324//123 322//123
f 325//124 326//124 324//124
f 327//125 328//125 326//125
f 329//126 330//126 328//126
f 331//61 323//61 315//61
f 331//127 332//127 330//127
f 333//128 310//128 332//128
f 316//64 324//64 332//64
f 335//117 336//117 334//117
f 337//118 338//118 336//118
f 339//119 340//119 338//119
f 341//120 342//120 340//120
f 343//121 344//121 342//121
f 345//122 346//122 344//122
f 347//123 348//123 346//123
f 349//124 350//124 348//124
f 351//125 352//125 350//125
f 353//126 354//126 352//126
f 355//61 347//61 339//61
f 355//127 356//127 354//127
f 357//128 334//128 356//128
f 340//64 348//64 356//64
f 359//117 360//117 358//117
f 361//118 362//118 360//118
f 363//119 364//119 362//119
f 365//120 366//120 364//120
f 367//121 368//121 366//121
f 369//122 370//122 368//122
f 371//123 372//123 370//123
f 373//124 374//124 372//124
f 375//125 376//125 374//125
f 377//126 378//126 376//126
f 379//61 371//61 363//61
f 379//127 380//127 378//127
f 381//128 358//128 380//128
f 364//64 372//64 380//64
f 383//117 384//117 382//117
f 385//118 386//118 384//118
f 387//119 388//119 386//119
f 389//120 390//120 388//120
f 391//121 392//121 390//121
f 393//122 394//122 392//122
f 395//123 396//123 394//123
f 397//124 398//124 396//124
f 399//125 400//125 398//125
f 401//126 402//126 400//126
f 403//61 395//61 387//61
f 403//127 404//127 402//127
f 405//128 382//128 404//128
f 388//64 396//64 404//64
f 407//117 408//117 406//117
f 409//118 410//118 408//118
f 411//119 412//119 410//119
f 413//120 414//120 412//120
f 415//121 416//121 414//121
f 417//122 418//122 416//122
f 419//123 420//123 418//123
f 421//124 422//124 420//124
f 423//125 424//125 422//125
f 425//126 426//126 424//126
f 427//61 419//61 411//61
f 427//127 428//127 426//127
f 429//128 406//128 428//128
f 412//64 420//64 428//64
f 431//117 432//117 430//117
f 433//118 434//118 432//118
f 435//119 436//119 434//119
f 437//120 438//120 436//120
f 439//121 440//121 438//121
f 441//122 442//122 440//122
f 443//123 444//123 442//123
f 445//124 446//124 444//124
f 447//125 448//125 446//125
f 449//126 450//126 448//126
f 451//61 443//61 435//61
f 451//127 452//127 450//127
f 453//128 430//128 452//128
f 436//64 444//64 452//64
f 143//69 145//69 144//69
f 145//70 147//70 146//70
f 147//71 149//71 148//71
f 149//72 151//72 150//72
f 151//73 153//73 152//73
f 153//74 155//74 154//74
f 155//75 157//75 156//75
f 157//76 159//76 158//76
f 159//77 161//77 160//77
f 161//78 163//78 162//78
f 147//65 145//65 143//65
f 143//65 165//65 163//65
f 163//65 161//65 159//65
f 159//65 157//65 155//65
f 155//65 153//65 151//65
f 151//65 149//65 147//65
f 147//65 143//65 163//65
f 163//65 159//65 155//65
f 155//65 151//65 147//65
f 163//79 165//79 164//79
f 165//80 143//80 142//80
f 164//67 142//67 144//67
f 144//67 146//67 148//67
f 148//67 150//67 152//67
f 152//67 154//67 156//67
f 156//67 158//67 160//67
f 160//67 162//67 164//67
f 164//67 144//67 148//67
f 148//67 152//67 156//67
f 156//67 160//67 164//67
f 167//81 169//81 168//81
f 169//129 171//129 170//129
f 171//83 173//83 172//83
f 173//84 175//84 174//84
f 175//130 177//130 176//130
f 177//86 179//86 178//86
f 179//87 181//87 180//87
f 181//131 183//131 182//131
f 183//89 185//89 184//89
f 185//90 187//90 186//90
f 171//65 169//65 167//65
f 167//65 189//65 187//65
f 187//65 185//65 183//65
f 183//65 181//65 179//65
f 179//65 177//65 175//65
f 175//65 173//65 171//65
f 171//65 167//65 187//65
f 187//65 183//65 179//65
f 179//65 175//65 171//65
f 187//132 189//132 188//132
f 189//92 167//92 166//92
f 188//67 166//67 168//67
f 168//133 170//133 172//133
f 172//133 174//133 176//133
f 176//67 178//67 180//67
f 180//134 182//134 184//134
f 184//134 186//134 188//134
f 188//67 168//67 172//67
f 172//67 176//67 180//67
f 180//67 184//67 188//67
f 191//69 193//69 192//69
f 193//70 195//70 194//70
f 195//71 197//71 196//71
f 197//72 199//72 198//72
f 199//73 201//73 200//73
f 201//74 203//74 202//74
f 203//75 205//75 204//75
f 205//76 207//76 206//76
f 207//77 209//77 208//77
f 209//78 211//78 210//78
f 195//65 193//65 191//65
f 191//65 213//65 211//65
f 211//65 209//65 207//65
f 207//65 205//65 203//65
f 203//65 201//65 199//65
f 199//65 197//65 195//65
f 195//65 191//65 211//65
f 211//65 207//65 203//65
f 203//65 199//65 195//65
f 211//79 213//79 212//79
f 213//80 191//80 190//80
f 212//67 190//67 192//67
f 192//67 194//67 196//67
f 196//67 198//67 200//67
f 200//67 202//67 204//67
f 204//67 206//67 208//67
f 208//67 210//67 212//67
f 212//67 192//67 196//67
f 196//67 200//67 204//67
f 204//67 208//67 212//67
f 215//81 217//81 216//81
f 217//129 219//129 218//129
f 219//83 221//83 220//83
f 221//84 223//84 222//84
f 223//130 225//130 224//130
f 225//86 227//86 226//86
f 227//87 229//87 228//87
f 229//131 231//131 230//131
f 231//89 233//89 232//89
f 233//90 235//90 234//90
f 219//65 217//65 215//65
f 215//65 237//65 235//65
f 235//65 233//65 231//65
f 231//65 229//65 227//65
f 227//65 225//65 223//65
f 223//65 221//65 219//65
f 219//65 215//65 235//65
f 235//65 231//65 227//65
f 227//65 223//65 219//65
f 235//132 237//132 236//132
f 237//92 215//92 214//92
f 236//67 214//67 216//67
f 216//133 218//133 220//133
f 220//133 222//133 224//133
f 224//67 226//67 228//67
f 228//134 230//134 232//134
f 232//134 234//134 236//134
f 236//67 216//67 220//67
f 220//67 224//67 228//67
f 228//67 232//67 236//67
f 239//93 241//93 240//93
f 241//94 243//94 242//94
f 243//95 245//95 244//95
f 245//96 247//96 246//96
f 247//97 249//97 248//97
f 249//98 251//98 250//98
f 251//99 253//99 252//99
f 253//100 255//100 254//100
f 255//101 257//101 256//101
f 257//102 259//102 258//102
f 243//68 241//68 239//68
f 239//68 261//68 259//68
f 259//68 257//68 255//68
f 255//68 253//68 251//68
f 251//68 249//68 247//68
f 247//68 245//68 243//68
f 243//68 239//68 259//68
f 259//68 255//68 251//68
f 251//68 247//68 243//68
f 259//103 261//103 260//103
f 261//104 239//104 238//104
f 260//66 238//66 240//66
f 240//66 242//66 244//66
f 244//66 246//66 248//66
f 248//66 250//66 252//66
f 252//66 254//66 256//66
f 256//66 258//66 260//66
f 260//66 240//66 244//66
f 244//66 248//66 252//66
f 252//66 256//66 260//66
f 263//105 265//105 264//105
f 265//106 267//106 266//106
f 267//107 269//107 268//107
f 269//108 271//108 270//108
f 271//109 273//109 272//109
f 273//110 275//110 274//110
f 275//111 277//111 276//111
f 277//112 279//112 278//112
f 279//113 281//113 280//113
f 281//114 283//114 282//114
f 267//68 265//68 263//68
f 263//68 285//68 283//68
f 283//68 281//68 279//68
f 279//68 277//68 275//68
f 275//68 273//68 271//68
f 271//68 269//68 267//68
f 267//68 263//68 283//68
f 283//68 279//68 275//68
f 275//68 271//68 267//68
f 283//115 285//115 284//115
f 285//116 263//116 262//116
f 284//66 262//66 264//66
f 264//66 266//66 268//66
f 268//66 270//66 272//66
f 272//66 274//66 276//66
f 276//66 278//66 280//66
f 280//66 282//66 284//66
f 284//66 264//66 268//66
f 268//66 272//66 276//66
f 276//66 280//66 284//66
f 287//117 289//117 288//117
f 289//118 291//118 290//118
f 291//119 293//119 292//119
f 293//120 295//120 294//120
f 295//121 297//121 296//121
f 297//122 299//122 298//122
f 299//123 301//123 300//123
f 301//124 303//124 302//124
f 303//125 305//125 304//125
f 305//126 307//126 306//126
f 291//61 289//61 287//61
f 287//61 309//61 307//61
f 307//61 305//61 303//61
f 303//61 301//61 299//61
f 299//61 297//61 295//61
f 295//61 293//61 291//61
f 291//61 287//61 307//61
f 307//61 303//61 299//61
f 299//61 295//61 291//61
f 307//127 309//127 308//127
f 309//128 287//128 286//128
f 308//64 286//64 288//64
f 288//64 290//64 292//64
f 292//64 294//64 296//64
f 296//64 298//64 300//64
f 300//64 302//64 304//64
f 304//64 306//64 308//64
f 308//64 288//64 292//64
f 292//64 296//64 300//64
f 300//64 304//64 308//64
f 311//117 313//117 312//117
f 313//118 315//118 314//118
f 315//119 317//119 316//119
f 317//120 319//120 318//120
f 319//121 321//121 320//121
f 321//122 323//122 322//122
f 323//123 325//123 324//123
f 325//124 327//124 326//124
f 327//125 329//125 328//125
f 329//126 331//126 330//126
f 315//61 313//61 311//61
f 311//61 333//61 331//61
f 331//61 329//61 327//61
f 327//61 325//61 323//61
f 323//61 321//61 319//61
f 319//61 317//61 315//61
f 315//61 311//61 331//61
f 331//61 327//61 323//61
f 323//61 319//61 315//61
f 331//127 333//127 332//127
f 333//128 311//128 310//128
f 332//64 310//64 312//64
f 312//64 314//64 316//64
f 316//64 318//64 320//64
f 320//64 322//64 324//64
f 324//64 326//64 328//64
f 328//64 330//64 332//64
f 332//64 312//64 316//64
f 316//64 320//64 324//64
f 324//64 328//64 332//64
f 335//117 337//117 336//117
f 337//118 339//118 338//118
f 339//119 341//119 340//119
f 341//120 343//120 342//120
f 343//121 345//121 344//121
f 345//122 347//122 346//122
f 347//123 349//123 348//123
f 349//124 351//124 350//124
f 351//125 353//125 352//125
f 353//126 355//126 354//126
f 339//61 337//61 335//61
f 335//61 357//61 355//61
f 355//61 353//61 351//61
f 351//61 349//61 347//61
f 347//61 345//61 343//61
f 343//61 341//61 339//61
f 339//61 335//61 355//61
f 355//61 351//61 347//61
f 347//61 343//61 339//61
f 355//127 357//127 356//127
f 357//128 335//128 334//128
f 356//64 334//64 336//64
f 336//64 338//64 340//64
f 340//64 342//64 344//64
f 344//64 346//64 348//64
f 348//64 350//64 352//64
f 352//64 354//64 356//64
f 356//64 336//64 340//64
f 340//64 344//64 348//64
f 348//64 352//64 356//64
f 359//117 361//117 360//117
f 361//118 363//118 362//118
f 363//119 365//119 364//119
f 365//120 367//120 366//120
f 367//121 369//121 368//121
f 369//122 371//122 370//122
f 371//123 373//123 372//123
f 373//124 375//124 374//124
f 375//125 377//125 376//125
f 377//126 379//126 378//126
f 363//61 361//61 359//61
f 359//61 381//61 379//61
f 379//61 377//61 375//61
f 375//61 373//61 371//61
f 371//61 369//61 367//61
f 367//61 365//61 363//61
f 363//61 359//61 379//61
f 379//61 375//61 371//61
f 371//61 367//61 363//61
f 379//127 381//127 380//127
f 381//128 359//128 358//128
f 380//64 358//64 360//64
f 360//64 362//64 364//64
f 364//64 366//64 368//64
f 368//64 370//64 372//64
f 372//64 374//64 376//64
f 376//64 378//64 380//64
f 380//64 360//64 364//64
f 364//64 368//64 372//64
f 372//64 376//64 380//64
f 383//117 385//117 384//117
f 385//118 387//118 386//118
f 387//119 389//119 388//119
f 389//120 391//120 390//120
f 391//121 393//121 392//121
f 393//122 395//122 394//122
f 395//123 397//123 396//123
f 397//124 399//124 398//124
f 399//125 401//125 400//125
f 401//126 403//126 402//126
f 387//61 385//61 383//61
f 383//61 405//61 403//61
f 403//61 401//61 399//61
f 399//61 397//61 395//61
f 395//61 393//61 391//61
f 391//61 389//61 387//61
f 387//61 383//61 403//61
f 403//61 399//61 395//61
f 395//61 391//61 387//61
f 403//127 405//127 404//127
f 405//128 383//128 382//128
f 404//64 382//64 384//64
f 384//64 386//64 388//64
f 388//64 390//64 392//64
f 392//64 394//64 396//64
f 396//64 398//64 400//64
f 400//64 402//64 404//64
f 404//64 384//64 388//64
f 388//64 392//64 396//64
f 396//64 400//64 404//64
f 407//117 409//117 408//117
f 409//118 411//118 410//118
f 411//119 413//119 412//119
f 413//120 415//120 414//120
f 415//121 417//121 416//121
f 417//122 419//122 418//122
f 419//123 421//123 420//123
f 421//124 423//124 422//124
f 423//125 425//125 424//125
f 425//126 427//126 426//126
f 411//61 409//61 407//61
f 407//61 429//61 427//61
f 427//61 425//61 423//61
f 423//61 421//61 419//61
f 419//61 417//61 415//61
f 415//61 413//61 411//61
f 411//61 407//61 427//61
f 427//61 423//61 419//61
f 419//61 415//61 411//61
f 427//127 429//127 428//127
f 429//128 407//128 406//128
f 428//64 406//64 408//64
f 408//64 410//64 412//64
f 412//64 414//64 416//64
f 416//64 418//64 420//64
f 420//64 422//64 424//64
f 424//64 426//64 428//64
f 428//64 408//64 412//64
f 412//64 416//64 420//64
f 420//64 424//64 428//64
f 431//117 433//117 432//117
f 433//118 435//118 434//118
f 435//119 437//119 436//119
f 437//120 439//120 438//120
f 439//121 441//121 440//121
f 441//122 443//122 442//122
f 443//123 445//123 444//123
f 445//124 447//124 446//124
f 447//125 449//125 448//125
f 449//126 451//126 450//126
f 435//61 433//61 431//61
f 431//61 453//61 451//61
f 451//61 449//61 447//61
f 447//61 445//61 443//61
f 443//61 441//61 439//61
f 439//61 437//61 435//61
f 435//61 431//61 451//61
f 451//61 447//61 443//61
f 443//61 439//61 435//61
f 451//127 453//127 452//127
f 453//128 431//128 430//128
f 452//64 430//64 432//64
f 432//64 434//64 436//64
f 436//64 438//64 440//64
f 440//64 442//64 444//64
f 444//64 446//64 448//64
f 448//64 450//64 452//64
f 452//64 432//64 436//64
f 436//64 440//64 444//64
f 444//64 448//64 452//64
usemtl lamp
f 455//67 456//67 454//67
f 457//68 460//68 456//68
f 461//65 458//65 460//65
f 459//66 454//66 458//66
f 460//64 454//64 456//64
f 457//61 459//61 461//61
f 455//67 457//67 456//67
f 457//68 461//68 460//68
f 461//65 459//65 458//65
f 459//66 455//66 454//66
f 460//64 458//64 454//64
f 457//61 455//61 459//61
