# Blender 5.2.2 LTS
# www.blender.org
mtllib rotor_lock_pin.mtl
o rotor_lock_pin
v -0.300000 0.045000 0.000000
v -0.060000 0.045000 -0.000000
v -0.300000 0.044783 -0.004411
v -0.060000 0.044783 -0.004411
v -0.300000 0.044135 -0.008779
v -0.060000 0.044135 -0.008779
v -0.300000 0.043062 -0.013063
v -0.060000 0.043062 -0.013063
v -0.300000 0.041575 -0.017221
v -0.060000 0.041575 -0.017221
v -0.300000 0.039686 -0.021213
v -0.060000 0.039686 -0.021213
v -0.300000 0.037416 -0.025001
v -0.060000 0.037416 -0.025001
v -0.300000 0.034785 -0.028548
v -0.060000 0.034785 -0.028548
v -0.300000 0.031820 -0.031820
v -0.060000 0.031820 -0.031820
v -0.300000 0.028548 -0.034785
v -0.060000 0.028548 -0.034785
v -0.300000 0.025001 -0.037416
v -0.060000 0.025001 -0.037416
v -0.300000 0.021213 -0.039686
v -0.060000 0.021213 -0.039686
v -0.300000 0.017221 -0.041575
v -0.060000 0.017221 -0.041575
v -0.300000 0.013063 -0.043062
v -0.060000 0.013063 -0.043062
v -0.300000 0.008779 -0.044135
v -0.060000 0.008779 -0.044135
v -0.300000 0.004411 -0.044783
v -0.060000 0.004411 -0.044783
v -0.300000 0.000000 -0.045000
v -0.060000 0.000000 -0.045000
v -0.300000 -0.004411 -0.044783
v -0.060000 -0.004411 -0.044783
v -0.300000 -0.008779 -0.044135
v -0.060000 -0.008779 -0.044135
v -0.300000 -0.013063 -0.043062
v -0.060000 -0.013063 -0.043062
v -0.300000 -0.017221 -0.041575
v -0.060000 -0.017221 -0.041575
v -0.300000 -0.021213 -0.039686
v -0.060000 -0.021213 -0.039686
v -0.300000 -0.025001 -0.037416
v -0.060000 -0.025001 -0.037416
v -0.300000 -0.028548 -0.034785
v -0.060000 -0.028548 -0.034785
v -0.300000 -0.031820 -0.031820
v -0.060000 -0.031820 -0.031820
v -0.300000 -0.034785 -0.028548
v -0.060000 -0.034785 -0.028548
v -0.300000 -0.037416 -0.025001
v -0.060000 -0.037416 -0.025001
v -0.300000 -0.039686 -0.021213
v -0.060000 -0.039686 -0.021213
v -0.300000 -0.041575 -0.017221
v -0.060000 -0.041575 -0.017221
v -0.300000 -0.043062 -0.013063
v -0.060000 -0.043062 -0.013063
v -0.300000 -0.044135 -0.008779
v -0.060000 -0.044135 -0.008779
v -0.300000 -0.044783 -0.004411
v -0.060000 -0.044783 -0.004411
v -0.300000 -0.045000 0.000000
v -0.060000 -0.045000 -0.000000
v -0.300000 -0.044783 0.004411
v -0.060000 -0.044783 0.004411
v -0.300000 -0.044135 0.008779
v -0.060000 -0.044135 0.008779
v -0.300000 -0.043062 0.013063
v -0.060000 -0.043062 0.013063
v -0.300000 -0.041575 0.017221
v -0.060000 -0.041575 0.017221
v -0.300000 -0.039686 0.021213
v -0.060000 -0.039686 0.021213
v -0.300000 -0.037416 0.025001
v -0.060000 -0.037416 0.025001
v -0.300000 -0.034785 0.028548
v -0.060000 -0.034785 0.028548
v -0.300000 -0.031820 0.031820
v -0.060000 -0.031820 0.031820
v -0.300000 -0.028548 0.034785
v -0.060000 -0.028548 0.034785
v -0.300000 -0.025001 0.037416
v -0.060000 -0.025001 0.037416
v -0.300000 -0.021213 0.039686
v -0.060000 -0.021213 0.039686
v -0.300000 -0.017221 0.041575
v -0.060000 -0.017221 0.041575
v -0.300000 -0.013063 0.043062
v -0.060000 -0.013063 0.043062
v -0.300000 -0.008779 0.044135
v -0.060000 -0.008779 0.044135
v -0.300000 -0.004411 0.044783
v -0.060000 -0.004411 0.044783
v -0.300000 0.000000 0.045000
v -0.060000 0.000000 0.045000
v -0.300000 0.004411 0.044783
v -0.060000 0.004411 0.044783
v -0.300000 0.008779 0.044135
v -0.060000 0.008779 0.044135
v -0.300000 0.013063 0.043062
v -0.060000 0.013063 0.043062
v -0.300000 0.017221 0.041575
v -0.060000 0.017221 0.041575
v -0.300000 0.021213 0.039686
v -0.060000 0.021213 0.039686
v -0.300000 0.025001 0.037416
v -0.060000 0.025001 0.037416
v -0.300000 0.028548 0.034785
v -0.060000 0.028548 0.034785
v -0.300000 0.031820 0.031820
v -0.060000 0.031820 0.031820
v -0.300000 0.034785 0.028548
v -0.060000 0.034785 0.028548
v -0.300000 0.037416 0.025001
v -0.060000 0.037416 0.025001
v -0.300000 0.039686 0.021213
v -0.060000 0.039686 0.021213
v -0.300000 0.041575 0.017221
v -0.060000 0.041575 0.017221
v -0.300000 0.043062 0.013063
v -0.060000 0.043062 0.013063
v -0.300000 0.044135 0.008779
v -0.060000 0.044135 0.008779
v -0.300000 0.044783 0.004411
v -0.060000 0.044783 0.004411
v -0.060000 0.045000 0.000000
v -0.010000 0.045000 -0.000000
v -0.060000 0.044783 -0.004411
v -0.010000 0.044783 -0.004411
v -0.060000 0.044135 -0.008779
v -0.010000 0.044135 -0.008779
v -0.060000 0.043062 -0.013063
v -0.010000 0.043062 -0.013063
v -0.060000 0.041575 -0.017221
v -0.010000 0.041575 -0.017221
v -0.060000 0.039686 -0.021213
v -0.010000 0.039686 -0.021213
v -0.060000 0.037416 -0.025001
v -0.010000 0.037416 -0.025001
v -0.060000 0.034785 -0.028548
v -0.010000 0.034785 -0.028548
v -0.060000 0.031820 -0.031820
v -0.010000 0.031820 -0.031820
v -0.060000 0.028548 -0.034785
v -0.010000 0.028548 -0.034785
v -0.060000 0.025001 -0.037416
v -0.010000 0.025001 -0.037416
v -0.060000 0.021213 -0.039686
v -0.010000 0.021213 -0.039686
v -0.060000 0.017221 -0.041575
v -0.010000 0.017221 -0.041575
v -0.060000 0.013063 -0.043062
v -0.010000 0.013063 -0.043062
v -0.060000 0.008779 -0.044135
v -0.010000 0.008779 -0.044135
v -0.060000 0.004411 -0.044783
v -0.010000 0.004411 -0.044783
v -0.060000 0.000000 -0.045000
v -0.010000 0.000000 -0.045000
v -0.060000 -0.004411 -0.044783
v -0.010000 -0.004411 -0.044783
v -0.060000 -0.008779 -0.044135
v -0.010000 -0.008779 -0.044135
v -0.060000 -0.013063 -0.043062
v -0.010000 -0.013063 -0.043062
v -0.060000 -0.017221 -0.041575
v -0.010000 -0.017221 -0.041575
v -0.060000 -0.021213 -0.039686
v -0.010000 -0.021213 -0.039686
v -0.060000 -0.025001 -0.037416
v -0.010000 -0.025001 -0.037416
v -0.060000 -0.028548 -0.034785
v -0.010000 -0.028548 -0.034785
v -0.060000 -0.031820 -0.031820
v -0.010000 -0.031820 -0.031820
v -0.060000 -0.034785 -0.028548
v -0.010000 -0.034785 -0.028548
v -0.060000 -0.037416 -0.025001
v -0.010000 -0.037416 -0.025001
v -0.060000 -0.039686 -0.021213
v -0.010000 -0.039686 -0.021213
v -0.060000 -0.041575 -0.017221
v -0.010000 -0.041575 -0.017221
v -0.060000 -0.043062 -0.013063
v -0.010000 -0.043062 -0.013063
v -0.060000 -0.044135 -0.008779
v -0.010000 -0.044135 -0.008779
v -0.060000 -0.044783 -0.004411
v -0.010000 -0.044783 -0.004411
v -0.060000 -0.045000 0.000000
v -0.010000 -0.045000 -0.000000
v -0.060000 -0.044783 0.004411
v -0.010000 -0.044783 0.004411
v -0.060000 -0.044135 0.008779
v -0.010000 -0.044135 0.008779
v -0.060000 -0.043062 0.013063
v -0.010000 -0.043062 0.013063
v -0.060000 -0.041575 0.017221
v -0.010000 -0.041575 0.017221
v -0.060000 -0.039686 0.021213
v -0.010000 -0.039686 0.021213
v -0.060000 -0.037416 0.025001
v -0.010000 -0.037416 0.025001
v -0.060000 -0.034785 0.028548
v -0.010000 -0.034785 0.028548
v -0.060000 -0.031820 0.031820
v -0.010000 -0.031820 0.031820
v -0.060000 -0.028548 0.034785
v -0.010000 -0.028548 0.034785
v -0.060000 -0.025001 0.037416
v -0.010000 -0.025001 0.037416
v -0.060000 -0.021213 0.039686
v -0.010000 -0.021213 0.039686
v -0.060000 -0.017221 0.041575
v -0.010000 -0.017221 0.041575
v -0.060000 -0.013063 0.043062
v -0.010000 -0.013063 0.043062
v -0.060000 -0.008779 0.044135
v -0.010000 -0.008779 0.044135
v -0.060000 -0.004411 0.044783
v -0.010000 -0.004411 0.044783
v -0.060000 0.000000 0.045000
v -0.010000 0.000000 0.045000
v -0.060000 0.004411 0.044783
v -0.010000 0.004411 0.044783
v -0.060000 0.008779 0.044135
v -0.010000 0.008779 0.044135
v -0.060000 0.013063 0.043062
v -0.010000 0.013063 0.043062
v -0.060000 0.017221 0.041575
v -0.010000 0.017221 0.041575
v -0.060000 0.021213 0.039686
v -0.010000 0.021213 0.039686
v -0.060000 0.025001 0.037416
v -0.010000 0.025001 0.037416
v -0.060000 0.028548 0.034785
v -0.010000 0.028548 0.034785
v -0.060000 0.031820 0.031820
v -0.010000 0.031820 0.031820
v -0.060000 0.034785 0.028548
v -0.010000 0.034785 0.028548
v -0.060000 0.037416 0.025001
v -0.010000 0.037416 0.025001
v -0.060000 0.039686 0.021213
v -0.010000 0.039686 0.021213
v -0.060000 0.041575 0.017221
v -0.010000 0.041575 0.017221
v -0.060000 0.043062 0.013063
v -0.010000 0.043062 0.013063
v -0.060000 0.044135 0.008779
v -0.010000 0.044135 0.008779
v -0.060000 0.044783 0.004411
v -0.010000 0.044783 0.004411
v -0.010000 0.045000 0.000000
v 0.000000 0.045000 -0.000000
v -0.010000 0.044783 -0.004411
v 0.000000 0.044783 -0.004411
v -0.010000 0.044135 -0.008779
v 0.000000 0.044135 -0.008779
v -0.010000 0.043062 -0.013063
v 0.000000 0.043062 -0.013063
v -0.010000 0.041575 -0.017221
v 0.000000 0.041575 -0.017221
v -0.010000 0.039686 -0.021213
v 0.000000 0.039686 -0.021213
v -0.010000 0.037416 -0.025001
v 0.000000 0.037416 -0.025001
v -0.010000 0.034785 -0.028548
v 0.000000 0.034785 -0.028548
v -0.010000 0.031820 -0.031820
v 0.000000 0.031820 -0.031820
v -0.010000 0.028548 -0.034785
v 0.000000 0.028548 -0.034785
v -0.010000 0.025001 -0.037416
v 0.000000 0.025001 -0.037416
v -0.010000 0.021213 -0.039686
v 0.000000 0.021213 -0.039686
v -0.010000 0.017221 -0.041575
v 0.000000 0.017221 -0.041575
v -0.010000 0.013063 -0.043062
v 0.000000 0.013063 -0.043062
v -0.010000 0.008779 -0.044135
v 0.000000 0.008779 -0.044135
v -0.010000 0.004411 -0.044783
v 0.000000 0.004411 -0.044783
v -0.010000 0.000000 -0.045000
v 0.000000 0.000000 -0.045000
v -0.010000 -0.004411 -0.044783
v 0.000000 -0.004411 -0.044783
v -0.010000 -0.008779 -0.044135
v 0.000000 -0.008779 -0.044135
v -0.010000 -0.013063 -0.043062
v 0.000000 -0.013063 -0.043062
v -0.010000 -0.017221 -0.041575
v 0.000000 -0.017221 -0.041575
v -0.010000 -0.021213 -0.039686
v 0.000000 -0.021213 -0.039686
v -0.010000 -0.025001 -0.037416
v 0.000000 -0.025001 -0.037416
v -0.010000 -0.028548 -0.034785
v 0.000000 -0.028548 -0.034785
v -0.010000 -0.031820 -0.031820
v 0.000000 -0.031820 -0.031820
v -0.010000 -0.034785 -0.028548
v 0.000000 -0.034785 -0.028548
v -0.010000 -0.037416 -0.025001
v 0.000000 -0.037416 -0.025001
v -0.010000 -0.039686 -0.021213
v 0.000000 -0.039686 -0.021213
v -0.010000 -0.041575 -0.017221
v 0.000000 -0.041575 -0.017221
v -0.010000 -0.043062 -0.013063
v 0.000000 -0.043062 -0.013063
v -0.010000 -0.044135 -0.008779
v 0.000000 -0.044135 -0.008779
v -0.010000 -0.044783 -0.004411
v 0.000000 -0.044783 -0.004411
v -0.010000 -0.045000 0.000000
v 0.000000 -0.045000 -0.000000
v -0.010000 -0.044783 0.004411
v 0.000000 -0.044783 0.004411
v -0.010000 -0.044135 0.008779
v 0.000000 -0.044135 0.008779
v -0.010000 -0.043062 0.013063
v 0.000000 -0.043062 0.013063
v -0.010000 -0.041575 0.017221
v 0.000000 -0.041575 0.017221
v -0.010000 -0.039686 0.021213
v 0.000000 -0.039686 0.021213
v -0.010000 -0.037416 0.025001
v 0.000000 -0.037416 0.025001
v -0.010000 -0.034785 0.028548
v 0.000000 -0.034785 0.028548
v -0.010000 -0.031820 0.031820
v 0.000000 -0.031820 0.031820
v -0.010000 -0.028548 0.034785
v 0.000000 -0.028548 0.034785
v -0.010000 -0.025001 0.037416
v 0.000000 -0.025001 0.037416
v -0.010000 -0.021213 0.039686
v 0.000000 -0.021213 0.039686
v -0.010000 -0.017221 0.041575
v 0.000000 -0.017221 0.041575
v -0.010000 -0.013063 0.043062
v 0.000000 -0.013063 0.043062
v -0.010000 -0.008779 0.044135
v 0.000000 -0.008779 0.044135
v -0.010000 -0.004411 0.044783
v 0.000000 -0.004411 0.044783
v -0.010000 0.000000 0.045000
v 0.000000 0.000000 0.045000
v -0.010000 0.004411 0.044783
v 0.000000 0.004411 0.044783
v -0.010000 0.008779 0.044135
v 0.000000 0.008779 0.044135
v -0.010000 0.013063 0.043062
v 0.000000 0.013063 0.043062
v -0.010000 0.017221 0.041575
v 0.000000 0.017221 0.041575
v -0.010000 0.021213 0.039686
v 0.000000 0.021213 0.039686
v -0.010000 0.025001 0.037416
v 0.000000 0.025001 0.037416
v -0.010000 0.028548 0.034785
v 0.000000 0.028548 0.034785
v -0.010000 0.031820 0.031820
v 0.000000 0.031820 0.031820
v -0.010000 0.034785 0.028548
v 0.000000 0.034785 0.028548
v -0.010000 0.037416 0.025001
v 0.000000 0.037416 0.025001
v -0.010000 0.039686 0.021213
v 0.000000 0.039686 0.021213
v -0.010000 0.041575 0.017221
v 0.000000 0.041575 0.017221
v -0.010000 0.043062 0.013063
v 0.000000 0.043062 0.013063
v -0.010000 0.044135 0.008779
v 0.000000 0.044135 0.008779
v -0.010000 0.044783 0.004411
v 0.000000 0.044783 0.004411
vn -0.0000 0.9988 -0.0491
vn -0.0000 0.9892 -0.1467
vn -0.0000 0.9700 -0.2430
vn -0.0000 0.9415 -0.3369
vn -0.0000 0.9040 -0.4276
vn -0.0000 0.8577 -0.5141
vn -0.0000 0.8032 -0.5957
vn -0.0000 0.7410 -0.6716
vn -0.0000 0.6716 -0.7410
vn -0.0000 0.5957 -0.8032
vn -0.0000 0.5141 -0.8577
vn -0.0000 0.4276 -0.9040
vn -0.0000 0.3369 -0.9415
vn -0.0000 0.2430 -0.9700
vn -0.0000 0.1467 -0.9892
vn -0.0000 0.0491 -0.9988
vn -0.0000 -0.0491 -0.9988
vn -0.0000 -0.1467 -0.9892
vn -0.0000 -0.2430 -0.9700
vn -0.0000 -0.3369 -0.9415
vn -0.0000 -0.4276 -0.9040
vn -0.0000 -0.5141 -0.8577
vn -0.0000 -0.5957 -0.8032
vn -0.0000 -0.6716 -0.7410
vn -0.0000 -0.7410 -0.6716
vn -0.0000 -0.8032 -0.5957
vn -0.0000 -0.8577 -0.5141
vn -0.0000 -0.9040 -0.4276
vn -0.0000 -0.9415 -0.3369
vn -0.0000 -0.9700 -0.2430
vn -0.0000 -0.9892 -0.1467
vn -0.0000 -0.9988 -0.0491
vn -0.0000 -0.9988 0.0491
vn -0.0000 -0.9892 0.1467
vn -0.0000 -0.9700 0.2430
vn -0.0000 -0.9415 0.3369
vn -0.0000 -0.9040 0.4276
vn -0.0000 -0.8577 0.5141
vn -0.0000 -0.8032 0.5957
vn -0.0000 -0.7410 0.6716
vn -0.0000 -0.6716 0.7410
vn -0.0000 -0.5957 0.8032
vn -0.0000 -0.5141 0.8577
vn -0.0000 -0.4276 0.9040
vn -0.0000 -0.3369 0.9415
vn -0.0000 -0.2430 0.9700
vn -0.0000 -0.1467 0.9892
vn -0.0000 -0.0491 0.9988
vn -0.0000 0.0491 0.9988
vn -0.0000 0.1467 0.9892
vn -0.0000 0.2430 0.9700
vn -0.0000 0.3369 0.9415
vn -0.0000 0.4276 0.9040
vn -0.0000 0.5141 0.8577
vn -0.0000 0.5957 0.8032
vn -0.0000 0.6716 0.7410
vn -0.0000 0.7410 0.6716
vn -0.0000 0.8032 0.5957
vn -0.0000 0.8577 0.5141
vn -0.0000 0.9040 0.4276
vn -0.0000 0.9415 0.3369
vn -0.0000 0.9700 0.2430
vn 1.0000 -0.0000 -0.0000
vn -0.0000 0.9892 0.1467
vn -0.0000 0.9988 0.0491
vn -1.0000 -0.0000 -0.0000
vn 1.0000 -0.0000 0.0001
vn 1.0000 -0.0000 -0.0001
vn -1.0000 -0.0000 0.0001
vn -1.0000 -0.0000 -0.0001
s 0
usemtl pipe_steel
f 2//1 3//1 1//1
f 4//2 5//2 3//2
f 6//3 7//3 5//3
f 8//4 9//4 7//4
f 10//5 11//5 9//5
f 12//6 13//6 11//6
f 14//7 15//7 13//7
f 16//8 17//8 15//8
f 18//9 19//9 17//9
f 20//10 21//10 19//10
f 22//11 23//11 21//11
f 24//12 25//12 23//12
f 26//13 27//13 25//13
f 28//14 29//14 27//14
f 30//15 31//15 29//15
f 32//16 33//16 31//16
f 34//17 35//17 33//17
f 36//18 37//18 35//18
f 38//19 39//19 37//19
f 40//20 41//20 39//20
f 42//21 43//21 41//21
f 44//22 45//22 43//22
f 46//23 47//23 45//23
f 48//24 49//24 47//24
f 50//25 51//25 49//25
f 52//26 53//26 51//26
f 54//27 55//27 53//27
f 56//28 57//28 55//28
f 58//29 59//29 57//29
f 60//30 61//30 59//30
f 62//31 63//31 61//31
f 64//32 65//32 63//32
f 66//33 67//33 65//33
f 68//34 69//34 67//34
f 70//35 71//35 69//35
f 72//36 73//36 71//36
f 74//37 75//37 73//37
f 76//38 77//38 75//38
f 78//39 79//39 77//39
f 80//40 81//40 79//40
f 82//41 83//41 81//41
f 84//42 85//42 83//42
f 86//43 87//43 85//43
f 88//44 89//44 87//44
f 90//45 91//45 89//45
f 92//46 93//46 91//46
f 94//47 95//47 93//47
f 96//48 97//48 95//48
f 98//49 99//49 97//49
f 100//50 101//50 99//50
f 102//51 103//51 101//51
f 104//52 105//52 103//52
f 106//53 107//53 105//53
f 108//54 109//54 107//54
f 110//55 111//55 109//55
f 112//56 113//56 111//56
f 114//57 115//57 113//57
f 116//58 117//58 115//58
f 118//59 119//59 117//59
f 120//60 121//60 119//60
f 122//61 123//61 121//61
f 124//62 125//62 123//62
f 70//63 38//63 6//63
f 126//64 127//64 125//64
f 128//65 1//65 127//65
f 63//66 95//66 127//66
f 258//1 259//1 257//1
f 260//2 261//2 259//2
f 262//3 263//3 261//3
f 264//4 265//4 263//4
f 266//5 267//5 265//5
f 268//6 269//6 267//6
f 270//7 271//7 269//7
f 272//8 273//8 271//8
f 274//9 275//9 273//9
f 276//10 277//10 275//10
f 278//11 279//11 277//11
f 280//12 281//12 279//12
f 282//13 283//13 281//13
f 284//14 285//14 283//14
f 286//15 287//15 285//15
f 288//16 289//16 287//16
f 290//17 291//17 289//17
f 292//18 293//18 291//18
f 294//19 295//19 293//19
f 296//20 297//20 295//20
f 298//21 299//21 297//21
f 300//22 301//22 299//22
f 302//23 303//23 301//23
f 304//24 305//24 303//24
f 306//25 307//25 305//25
f 308//26 309//26 307//26
f 310//27 311//27 309//27
f 312//28 313//28 311//28
f 314//29 315//29 313//29
f 316//30 317//30 315//30
f 318//31 319//31 317//31
f 320//32 321//32 319//32
f 322//33 323//33 321//33
f 324//34 325//34 323//34
f 326//35 327//35 325//35
f 328//36 329//36 327//36
f 330//37 331//37 329//37
f 332//38 333//38 331//38
f 334//39 335//39 333//39
f 336//40 337//40 335//40
f 338//41 339//41 337//41
f 340//42 341//42 339//42
f 342//43 343//43 341//43
f 344//44 345//44 343//44
f 346//45 347//45 345//45
f 348//46 349//46 347//46
f 350//47 351//47 349//47
f 352//48 353//48 351//48
f 354//49 355//49 353//49
f 356//50 357//50 355//50
f 358//51 359//51 357//51
f 360//52 361//52 359//52
f 362//53 363//53 361//53
f 364//54 365//54 363//54
f 366//55 367//55 365//55
f 368//56 369//56 367//56
f 370//57 371//57 369//57
f 372//58 373//58 371//58
f 374//59 375//59 373//59
f 376//60 377//60 375//60
f 378//61 379//61 377//61
f 380//62 381//62 379//62
f 326//63 294//63 262//63
f 382//64 383//64 381//64
f 384//65 257//65 383//65
f 319//66 351//66 383//66
f 2//1 4//1 3//1
f 4//2 6//2 5//2
f 6//3 8//3 7//3
f 8//4 10//4 9//4
f 10//5 12//5 11//5
f 12//6 14//6 13//6
f 14//7 16//7 15//7
f 16//8 18//8 17//8
f 18//9 20//9 19//9
f 20//10 22//10 21//10
f 22//11 24//11 23//11
f 24//12 26//12 25//12
f 26//13 28//13 27//13
f 28//14 30//14 29//14
f 30//15 32//15 31//15
f 32//16 34//16 33//16
f 34//17 36//17 35//17
f 36//18 38//18 37//18
f 38//19 40//19 39//19
f 40//20 42//20 41//20
f 42//21 44//21 43//21
f 44//22 46//22 45//22
f 46//23 48//23 47//23
f 48//24 50//24 49//24
f 50//25 52//25 51//25
f 52//26 54//26 53//26
f 54//27 56//27 55//27
f 56//28 58//28 57//28
f 58//29 60//29 59//29
f 60//30 62//30 61//30
f 62//31 64//31 63//31
f 64//32 66//32 65//32
f 66//33 68//33 67//33
f 68//34 70//34 69//34
f 70//35 72//35 71//35
f 72//36 74//36 73//36
f 74//37 76//37 75//37
f 76//38 78//38 77//38
f 78//39 80//39 79//39
f 80//40 82//40 81//40
f 82//41 84//41 83//41
f 84//42 86//42 85//42
f 86//43 88//43 87//43
f 88//44 90//44 89//44
f 90//45 92//45 91//45
f 92//46 94//46 93//46
f 94//47 96//47 95//47
f 96//48 98//48 97//48
f 98//49 100//49 99//49
f 100//50 102//50 101//50
f 102//51 104//51 103//51
f 104//52 106//52 105//52
f 106//53 108//53 107//53
f 108//54 110//54 109//54
f 110//55 112//55 111//55
f 112//56 114//56 113//56
f 114//57 116//57 115//57
f 116//58 118//58 117//58
f 118//59 120//59 119//59
f 120//60 122//60 121//60
f 122//61 124//61 123//61
f 124//62 126//62 125//62
f 6//63 4//63 2//63
f 2//63 128//63 126//63
f 126//63 124//63 122//63
f 122//63 120//63 118//63
f 118//63 116//63 114//63
f 114//63 112//63 110//63
f 110//63 108//63 106//63
f 106//63 104//63 102//63
f 102//67 100//67 98//67
f 98//67 96//67 94//67
f 94//63 92//63 90//63
f 90//63 88//63 86//63
f 86//63 84//63 82//63
f 82//63 80//63 78//63
f 78//63 76//63 74//63
f 74//63 72//63 70//63
f 70//63 68//63 66//63
f 66//63 64//63 62//63
f 62//63 60//63 58//63
f 58//63 56//63 54//63
f 54//63 52//63 50//63
f 50//63 48//63 46//63
f 46//63 44//63 42//63
f 42//63 40//63 38//63
f 38//68 36//68 34//68
f 34//68 32//68 30//68
f 30//63 28//63 26//63
f 26//63 24//63 22//63
f 22//63 20//63 18//63
f 18//63 16//63 14//63
f 14//63 12//63 10//63
f 10//63 8//63 6//63
f 6//63 2//63 126//63
f 126//63 122//63 118//63
f 118//63 114//63 110//63
f 110//63 106//63 102//63
f 102//63 98//63 94//63
f 94//63 90//63 86//63
f 86//63 82//63 78//63
f 78//63 74//63 70//63
f 70//63 66//63 62//63
f 62//63 58//63 54//63
f 54//63 50//63 46//63
f 46//63 42//63 38//63
f 38//63 34//63 30//63
f 30//63 26//63 22//63
f 22//63 18//63 14//63
f 14//63 10//63 6//63
f 6//63 126//63 118//63
f 118//63 110//63 102//63
f 102//63 94//63 86//63
f 86//63 78//63 70//63
f 70//63 62//63 54//63
f 54//63 46//63 38//63
f 38//63 30//63 22//63
f 22//63 14//63 6//63
f 6//63 118//63 102//63
f 102//63 86//63 70//63
f 70//63 54//63 38//63
f 38//63 22//63 6//63
f 6//63 102//63 70//63
f 126//64 128//64 127//64
f 128//65 2//65 1//65
f 127//66 1//66 3//66
f 3//66 5//66 7//66
f 7//66 9//66 11//66
f 11//66 13//66 15//66
f 15//66 17//66 19//66
f 19//66 21//66 23//66
f 23//69 25//69 27//69
f 27//70 29//70 31//70
f 31//66 33//66 35//66
f 35//70 37//70 39//70
f 39//66 41//66 43//66
f 43//66 45//66 47//66
f 47//66 49//66 51//66
f 51//66 53//66 55//66
f 55//66 57//66 59//66
f 59//66 61//66 63//66
f 63//66 65//66 67//66
f 67//66 69//66 71//66
f 71//66 73//66 75//66
f 75//66 77//66 79//66
f 79//66 81//66 83//66
f 83//66 85//66 87//66
f 87//70 89//70 91//70
f 91//69 93//69 95//69
f 95//66 97//66 99//66
f 99//69 101//69 103//69
f 103//66 105//66 107//66
f 107//66 109//66 111//66
f 111//66 113//66 115//66
f 115//66 117//66 119//66
f 119//66 121//66 123//66
f 123//66 125//66 127//66
f 127//66 3//66 7//66
f 7//66 11//66 15//66
f 15//66 19//66 23//66
f 23//66 27//66 31//66
f 31//66 35//66 39//66
f 39//66 43//66 47//66
f 47//66 51//66 55//66
f 55//66 59//66 63//66
f 63//66 67//66 71//66
f 71//66 75//66 79//66
f 79//66 83//66 87//66
f 87//66 91//66 95//66
f 95//66 99//66 103//66
f 103//66 107//66 111//66
f 111//66 115//66 119//66
f 119//66 123//66 127//66
f 127//66 7//66 15//66
f 15//66 23//66 31//66
f 31//66 39//66 47//66
f 47//66 55//66 63//66
f 63//66 71//66 79//66
f 79//66 87//66 95//66
f 95//66 103//66 111//66
f 111//66 119//66 127//66
f 127//66 15//66 31//66
f 31//66 47//66 63//66
f 63//66 79//66 95//66
f 95//66 111//66 127//66
f 127//66 31//66 63//66
f 258//1 260//1 259//1
f 260//2 262//2 261//2
f 262//3 264//3 263//3
f 264//4 266//4 265//4
f 266//5 268//5 267//5
f 268//6 270//6 269//6
f 270//7 272//7 271//7
f 272//8 274//8 273//8
f 274//9 276//9 275//9
f 276//10 278//10 277//10
f 278//11 280//11 279//11
f 280//12 282//12 281//12
f 282//13 284//13 283//13
f 284//14 286//14 285//14
f 286//15 288//15 287//15
f 288//16 290//16 289//16
f 290//17 292//17 291//17
f 292//18 294//18 293//18
f 294//19 296//19 295//19
f 296//20 298//20 297//20
f 298//21 300//21 299//21
f 300//22 302//22 301//22
f 302//23 304//23 303//23
f 304//24 306//24 305//24
f 306//25 308//25 307//25
f 308//26 310//26 309//26
f 310//27 312//27 311//27
f 312//28 314//28 313//28
f 314//29 316//29 315//29
f 316//30 318//30 317//30
f 318//31 320//31 319//31
f 320//32 322//32 321//32
f 322//33 324//33 323//33
f 324//34 326//34 325//34
f 326//35 328//35 327//35
f 328//36 330//36 329//36
f 330//37 332//37 331//37
f 332//38 334//38 333//38
f 334//39 336//39 335//39
f 336//40 338//40 337//40
f 338//41 340//41 339//41
f 340//42 342//42 341//42
f 342//43 344//43 343//43
f 344//44 346//44 345//44
f 346//45 348//45 347//45
f 348//46 350//46 349//46
f 350//47 352//47 351//47
f 352//48 354//48 353//48
f 354//49 356//49 355//49
f 356//50 358//50 357//50
f 358//51 360//51 359//51
f 360//52 362//52 361//52
f 362//53 364//53 363//53
f 364//54 366//54 365//54
f 366//55 368//55 367//55
f 368//56 370//56 369//56
f 370//57 372//57 371//57
f 372//58 374//58 373//58
f 374//59 376//59 375//59
f 376//60 378//60 377//60
f 378//61 380//61 379//61
f 380//62 382//62 381//62
f 262//63 260//63 258//63
f 258//63 384//63 382//63
f 382//63 380//63 378//63
f 378//63 376//63 374//63
f 374//67 372//67 370//67
f 370//68 368//68 366//68
f 366//63 364//63 362//63
f 362//63 360//63 358//63
f 358//63 356//63 354//63
f 354//63 352//63 350//63
f 350//63 348//63 346//63
f 346//63 344//63 342//63
f 342//68 340//68 338//68
f 338//67 336//67 334//67
f 334//63 332//63 330//63
f 330//63 328//63 326//63
f 326//63 324//63 322//63
f 322//63 320//63 318//63
f 318//63 316//63 314//63
f 314//63 312//63 310//63
f 310//68 308//68 306//68
f 306//67 304//67 302//67
f 302//63 300//63 298//63
f 298//63 296//63 294//63
f 294//63 292//63 290//63
f 290//63 288//63 286//63
f 286//63 284//63 282//63
f 282//63 280//63 278//63
f 278//67 276//67 274//67
f 274//68 272//68 270//68
f 270//63 268//63 266//63
f 266//63 264//63 262//63
f 262//63 258//63 382//63
f 382//63 378//63 374//63
f 374//63 370//63 366//63
f 366//63 362//63 358//63
f 358//63 354//63 350//63
f 350//63 346//63 342//63
f 342//63 338//63 334//63
f 334//63 330//63 326//63
f 326//63 322//63 318//63
f 318//63 314//63 310//63
f 310//63 306//63 302//63
f 302//63 298//63 294//63
f 294//63 290//63 286//63
f 286//63 282//63 278//63
f 278//63 274//63 270//63
f 270//63 266//63 262//63
f 262//63 382//63 374//63
f 374//63 366//63 358//63
f 358//63 350//63 342//63
f 342//63 334//63 326//63
f 326//63 318//63 310//63
f 310//63 302//63 294//63
f 294//63 286//63 278//63
f 278//63 270//63 262//63
f 262//63 374//63 358//63
f 358//63 342//63 326//63
f 326//63 310//63 294//63
f 294//63 278//63 262//63
f 262//63 358//63 326//63
f 382//64 384//64 383//64
f 384//65 258//65 257//65
f 383//66 257//66 259//66
f 259//66 261//66 263//66
f 263//66 265//66 267//66
f 267//66 269//66 271//66
f 271//66 273//66 275//66
f 275//69 277//69 279//69
f 279//66 281//66 283//66
f 283//66 285//66 287//66
f 287//66 289//66 291//66
f 291//66 293//66 295//66
f 295//66 297//66 299//66
f 299//69 301//69 303//69
f 303//66 305//66 307//66
f 307//66 309//66 311//66
f 311//66 313//66 315//66
f 315//66 317//66 319//66
f 319//66 321//66 323//66
f 323//66 325//66 327//66
f 327//66 329//66 331//66
f 331//66 333//66 335//66
f 335//66 337//66 339//66
f 339//70 341//70 343//70
f 343//66 345//66 347//66
f 347//66 349//66 351//66
f 351//66 353//66 355//66
f 355//66 357//66 359//66
f 359//66 361//66 363//66
f 363//70 365//70 367//70
f 367//66 369//66 371//66
f 371//66 373//66 375//66
f 375//66 377//66 379//66
f 379//66 381//66 383//66
f 383//66 259//66 263//66
f 263//66 267//66 271//66
f 271//66 275//66 279//66
f 279//66 283//66 287//66
f 287//66 291//66 295//66
f 295//66 299//66 303//66
f 303//66 307//66 311//66
f 311//66 315//66 319//66
f 319//66 323//66 327//66
f 327//66 331//66 335//66
f 335//66 339//66 343//66
f 343//66 347//66 351//66
f 351//66 355//66 359//66
f 359//66 363//66 367//66
f 367//66 371//66 375//66
f 375//66 379//66 383//66
f 383//66 263//66 271//66
f 271//66 279//66 287//66
f 287//66 295//66 303//66
f 303//66 311//66 319//66
f 319//66 327//66 335//66
f 335//66 343//66 351//66
f 351//66 359//66 367//66
f 367//66 375//66 383//66
f 383//66 271//66 287//66
f 287//66 303//66 319//66
f 319//66 335//66 351//66
f 351//66 367//66 383//66
f 383//66 287//66 319//66
usemtl alarm_red
f 130//1 131//1 129//1
f 132//2 133//2 131//2
f 134//3 135//3 133//3
f 136//4 137//4 135//4
f 138//5 139//5 137//5
f 140//6 141//6 139//6
f 142//7 143//7 141//7
f 144//8 145//8 143//8
f 146//9 147//9 145//9
f 148//10 149//10 147//10
f 150//11 151//11 149//11
f 152//12 153//12 151//12
f 154//13 155//13 153//13
f 156//14 157//14 155//14
f 158//15 159//15 157//15
f 160//16 161//16 159//16
f 162//17 163//17 161//17
f 164//18 165//18 163//18
f 166//19 167//19 165//19
f 168//20 169//20 167//20
f 170//21 171//21 169//21
f 172//22 173//22 171//22
f 174//23 175//23 173//23
f 176//24 177//24 175//24
f 178//25 179//25 177//25
f 180//26 181//26 179//26
f 182//27 183//27 181//27
f 184//28 185//28 183//28
f 186//29 187//29 185//29
f 188//30 189//30 187//30
f 190//31 191//31 189//31
f 192//32 193//32 191//32
f 194//33 195//33 193//33
f 196//34 197//34 195//34
f 198//35 199//35 197//35
f 200//36 201//36 199//36
f 202//37 203//37 201//37
f 204//38 205//38 203//38
f 206//39 207//39 205//39
f 208//40 209//40 207//40
f 210//41 211//41 209//41
f 212//42 213//42 211//42
f 214//43 215//43 213//43
f 216//44 217//44 215//44
f 218//45 219//45 217//45
f 220//46 221//46 219//46
f 222//47 223//47 221//47
f 224//48 225//48 223//48
f 226//49 227//49 225//49
f 228//50 229//50 227//50
f 230//51 231//51 229//51
f 232//52 233//52 231//52
f 234//53 235//53 233//53
f 236//54 237//54 235//54
f 238//55 239//55 237//55
f 240//56 241//56 239//56
f 242//57 243//57 241//57
f 244//58 245//58 243//58
f 246//59 247//59 245//59
f 248//60 249//60 247//60
f 250//61 251//61 249//61
f 252//62 253//62 251//62
f 198//63 166//63 134//63
f 254//64 255//64 253//64
f 256//65 129//65 255//65
f 191//66 223//66 255//66
f 130//1 132//1 131//1
f 132//2 134//2 133//2
f 134//3 136//3 135//3
f 136//4 138//4 137//4
f 138//5 140//5 139//5
f 140//6 142//6 141//6
f 142//7 144//7 143//7
f 144//8 146//8 145//8
f 146//9 148//9 147//9
f 148//10 150//10 149//10
f 150//11 152//11 151//11
f 152//12 154//12 153//12
f 154//13 156//13 155//13
f 156//14 158//14 157//14
f 158//15 160//15 159//15
f 160//16 162//16 161//16
f 162//17 164//17 163//17
f 164//18 166//18 165//18
f 166//19 168//19 167//19
f 168//20 170//20 169//20
f 170//21 172//21 171//21
f 172//22 174//22 173//22
f 174//23 176//23 175//23
f 176//24 178//24 177//24
f 178//25 180//25 179//25
f 180//26 182//26 181//26
f 182//27 184//27 183//27
f 184//28 186//28 185//28
f 186//29 188//29 187//29
f 188//30 190//30 189//30
f 190//31 192//31 191//31
f 192//32 194//32 193//32
f 194//33 196//33 195//33
f 196//34 198//34 197//34
f 198//35 200//35 199//35
f 200//36 202//36 201//36
f 202//37 204//37 203//37
f 204//38 206//38 205//38
f 206//39 208//39 207//39
f 208//40 210//40 209//40
f 210//41 212//41 211//41
f 212//42 214//42 213//42
f 214//43 216//43 215//43
f 216//44 218//44 217//44
f 218//45 220//45 219//45
f 220//46 222//46 221//46
f 222//47 224//47 223//47
f 224//48 226//48 225//48
f 226//49 228//49 227//49
f 228//50 230//50 229//50
f 230//51 232//51 231//51
f 232//52 234//52 233//52
f 234//53 236//53 235//53
f 236//54 238//54 237//54
f 238//55 240//55 239//55
f 240//56 242//56 241//56
f 242//57 244//57 243//57
f 244//58 246//58 245//58
f 246//59 248//59 247//59
f 248//60 250//60 249//60
f 250//61 252//61 251//61
f 252//62 254//62 253//62
f 134//63 132//63 130//63
f 130//63 256//63 254//63
f 254//63 252//63 250//63
f 250//63 248//63 246//63
f 246//63 244//63 242//63
f 242//63 240//63 238//63
f 238//67 236//67 234//67
f 234//68 232//68 230//68
f 230//63 228//63 226//63
f 226//63 224//63 222//63
f 222//68 220//68 218//68
f 218//67 216//67 214//67
f 214//63 212//63 210//63
f 210//63 208//63 206//63
f 206//63 204//63 202//63
f 202//63 200//63 198//63
f 198//63 196//63 194//63
f 194//63 192//63 190//63
f 190//63 188//63 186//63
f 186//63 184//63 182//63
f 182//63 180//63 178//63
f 178//63 176//63 174//63
f 174//68 172//68 170//68
f 170//67 168//67 166//67
f 166//63 164//63 162//63
f 162//63 160//63 158//63
f 158//67 156//67 154//67
f 154//68 152//68 150//68
f 150//63 148//63 146//63
f 146//63 144//63 142//63
f 142//63 140//63 138//63
f 138//63 136//63 134//63
f 134//63 130//63 254//63
f 254//63 250//63 246//63
f 246//63 242//63 238//63
f 238//63 234//63 230//63
f 230//63 226//63 222//63
f 222//63 218//63 214//63
f 214//63 210//63 206//63
f 206//63 202//63 198//63
f 198//63 194//63 190//63
f 190//63 186//63 182//63
f 182//63 178//63 174//63
f 174//63 170//63 166//63
f 166//63 162//63 158//63
f 158//63 154//63 150//63
f 150//63 146//63 142//63
f 142//63 138//63 134//63
f 134//63 254//63 246//63
f 246//63 238//63 230//63
f 230//63 222//63 214//63
f 214//63 206//63 198//63
f 198//63 190//63 182//63
f 182//63 174//63 166//63
f 166//63 158//63 150//63
f 150//63 142//63 134//63
f 134//63 246//63 230//63
f 230//63 214//63 198//63
f 198//63 182//63 166//63
f 166//63 150//63 134//63
f 134//63 230//63 198//63
f 254//64 256//64 255//64
f 256//65 130//65 129//65
f 255//66 129//66 131//66
f 131//66 133//66 135//66
f 135//66 137//66 139//66
f 139//66 141//66 143//66
f 143//66 145//66 147//66
f 147//66 149//66 151//66
f 151//66 153//66 155//66
f 155//69 157//69 159//69
f 159//66 161//66 163//66
f 163//69 165//69 167//69
f 167//66 169//66 171//66
f 171//66 173//66 175//66
f 175//66 177//66 179//66
f 179//66 181//66 183//66
f 183//66 185//66 187//66
f 187//66 189//66 191//66
f 191//66 193//66 195//66
f 195//66 197//66 199//66
f 199//66 201//66 203//66
f 203//66 205//66 207//66
f 207//66 209//66 211//66
f 211//66 213//66 215//66
f 215//66 217//66 219//66
f 219//70 221//70 223//70
f 223//66 225//66 227//66
f 227//70 229//70 231//70
f 231//66 233//66 235//66
f 235//66 237//66 239//66
f 239//66 241//66 243//66
f 243//66 245//66 247//66
f 247//66 249//66 251//66
f 251//66 253//66 255//66
f 255//66 131//66 135//66
f 135//66 139//66 143//66
f 143//66 147//66 151//66
f 151//66 155//66 159//66
f 159//66 163//66 167//66
f 167//66 171//66 175//66
f 175//66 179//66 183//66
f 183//66 187//66 191//66
f 191//66 195//66 199//66
f 199//66 203//66 207//66
f 207//66 211//66 215//66
f 215//66 219//66 223//66
f 223//66 227//66 231//66
f 231//66 235//66 239//66
f 239//66 243//66 247//66
f 247//66 251//66 255//66
f 255//66 135//66 143//66
f 143//66 151//66 159//66
f 159//66 167//66 175//66
f 175//66 183//66 191//66
f 191//66 199//66 207//66
f 207//66 215//66 223//66
f 223//66 231//66 239//66
f 239//66 247//66 255//66
f 255//66 143//66 159//66
f 159//66 175//66 191//66
f 191//66 207//66 223//66
f 223//66 239//66 255//66
f 255//66 159//66 191//66
