# Blender 5.2.2 LTS
# www.blender.org
mtllib rotor_lock.mtl
o rotor_lock
v -3.100000 -0.860000 -0.100000
v -3.100000 -0.860000 0.100000
v -3.100000 -0.660000 -0.100000
v -3.100000 -0.660000 0.100000
v -2.720000 -0.860000 -0.100000
v -2.720000 -0.860000 0.100000
v -2.720000 -0.660000 -0.100000
v -2.720000 -0.660000 0.100000
v -3.050000 -0.680000 -0.060000
v -3.050000 -0.680000 0.060000
v -3.050000 -0.540000 -0.060000
v -3.050000 -0.540000 0.060000
v -2.770000 -0.680000 -0.060000
v -2.770000 -0.680000 0.060000
v -2.770000 -0.540000 -0.060000
v -2.770000 -0.540000 0.060000
v -3.180000 -0.760000 -0.112000
v -3.174000 -0.760000 -0.110392
v -3.169608 -0.760000 -0.106000
v -3.168000 -0.760000 -0.100000
v -3.169608 -0.760000 -0.094000
v -3.174000 -0.760000 -0.089608
v -3.180000 -0.760000 -0.088000
v -3.186000 -0.760000 -0.089608
v -3.190392 -0.760000 -0.094000
v -3.192000 -0.760000 -0.100000
v -3.190392 -0.760000 -0.106000
v -3.186000 -0.760000 -0.110392
v -3.180000 -0.745381 -0.111042
v -3.174000 -0.745591 -0.109448
v -3.169608 -0.746164 -0.105093
v -3.168000 -0.746947 -0.099144
v -3.169608 -0.747731 -0.093196
v -3.174000 -0.748304 -0.088841
v -3.180000 -0.748514 -0.087247
v -3.186000 -0.748304 -0.088841
v -3.190392 -0.747731 -0.093196
v -3.192000 -0.746947 -0.099144
v -3.190392 -0.746164 -0.105093
v -3.186000 -0.745591 -0.109448
v -3.180000 -0.731012 -0.108184
v -3.174000 -0.731428 -0.106631
v -3.169608 -0.732565 -0.102388
v -3.168000 -0.734118 -0.096593
v -3.169608 -0.735671 -0.090797
v -3.174000 -0.736808 -0.086554
v -3.180000 -0.737224 -0.085001
v -3.186000 -0.736808 -0.086554
v -3.190392 -0.735671 -0.090797
v -3.192000 -0.734118 -0.096593
v -3.190392 -0.732565 -0.102388
v -3.186000 -0.731428 -0.106631
v -3.180000 -0.717139 -0.103475
v -3.174000 -0.717755 -0.101989
v -3.169608 -0.719436 -0.097931
v -3.168000 -0.721732 -0.092388
v -3.169608 -0.724028 -0.086845
v -3.174000 -0.725709 -0.082787
v -3.180000 -0.726324 -0.081301
v -3.186000 -0.725709 -0.082787
v -3.190392 -0.724028 -0.086845
v -3.192000 -0.721732 -0.092388
v -3.190392 -0.719436 -0.097931
v -3.186000 -0.717755 -0.101989
v -3.180000 -0.704000 -0.096995
v -3.174000 -0.704804 -0.095603
v -3.169608 -0.707000 -0.091799
v -3.168000 -0.710000 -0.086603
v -3.169608 -0.713000 -0.081406
v -3.174000 -0.715196 -0.077603
v -3.180000 -0.716000 -0.076210
v -3.186000 -0.715196 -0.077603
v -3.190392 -0.713000 -0.081406
v -3.192000 -0.710000 -0.086603
v -3.190392 -0.707000 -0.091799
v -3.186000 -0.704804 -0.095603
v -3.180000 -0.691819 -0.088856
v -3.174000 -0.692797 -0.087580
v -3.169608 -0.695471 -0.084095
v -3.168000 -0.699124 -0.079335
v -3.169608 -0.702776 -0.074575
v -3.174000 -0.705450 -0.071091
v -3.180000 -0.706429 -0.069815
v -3.186000 -0.705450 -0.071091
v -3.190392 -0.702776 -0.074575
v -3.192000 -0.699124 -0.079335
v -3.190392 -0.695471 -0.084095
v -3.186000 -0.692797 -0.087580
v -3.180000 -0.680804 -0.079196
v -3.174000 -0.681941 -0.078059
v -3.169608 -0.685047 -0.074953
v -3.168000 -0.689289 -0.070711
v -3.169608 -0.693532 -0.066468
v -3.174000 -0.696638 -0.063362
v -3.180000 -0.697775 -0.062225
v -3.186000 -0.696638 -0.063362
v -3.190392 -0.693532 -0.066468
v -3.192000 -0.689289 -0.070711
v -3.190392 -0.685047 -0.074953
v -3.186000 -0.681941 -0.078059
v -3.180000 -0.671144 -0.068181
v -3.174000 -0.672420 -0.067203
v -3.169608 -0.675905 -0.064529
v -3.168000 -0.680665 -0.060876
v -3.169608 -0.685425 -0.057224
v -3.174000 -0.688909 -0.054550
v -3.180000 -0.690185 -0.053571
v -3.186000 -0.688909 -0.054550
v -3.190392 -0.685425 -0.057224
v -3.192000 -0.680665 -0.060876
v -3.190392 -0.675905 -0.064529
v -3.186000 -0.672420 -0.067203
v -3.180000 -0.663005 -0.056000
v -3.174000 -0.664397 -0.055196
v -3.169608 -0.668201 -0.053000
v -3.168000 -0.673397 -0.050000
v -3.169608 -0.678594 -0.047000
v -3.174000 -0.682397 -0.044804
v -3.180000 -0.683790 -0.044000
v -3.186000 -0.682397 -0.044804
v -3.190392 -0.678594 -0.047000
v -3.192000 -0.673397 -0.050000
v -3.190392 -0.668201 -0.053000
v -3.186000 -0.664397 -0.055196
v -3.180000 -0.656525 -0.042861
v -3.174000 -0.658011 -0.042245
v -3.169608 -0.662069 -0.040564
v -3.168000 -0.667612 -0.038268
v -3.169608 -0.673155 -0.035972
v -3.174000 -0.677213 -0.034291
v -3.180000 -0.678699 -0.033676
v -3.186000 -0.677213 -0.034291
v -3.190392 -0.673155 -0.035972
v -3.192000 -0.667612 -0.038268
v -3.190392 -0.662069 -0.040564
v -3.186000 -0.658011 -0.042245
v -3.180000 -0.651816 -0.028988
v -3.174000 -0.653369 -0.028572
v -3.169608 -0.657612 -0.027435
v -3.168000 -0.663407 -0.025882
v -3.169608 -0.669203 -0.024329
v -3.174000 -0.673446 -0.023192
v -3.180000 -0.674999 -0.022776
v -3.186000 -0.673446 -0.023192
v -3.190392 -0.669203 -0.024329
v -3.192000 -0.663407 -0.025882
v -3.190392 -0.657612 -0.027435
v -3.186000 -0.653369 -0.028572
v -3.180000 -0.648958 -0.014619
v -3.174000 -0.650552 -0.014409
v -3.169608 -0.654907 -0.013836
v -3.168000 -0.660856 -0.013053
v -3.169608 -0.666804 -0.012269
v -3.174000 -0.671159 -0.011696
v -3.180000 -0.672753 -0.011486
v -3.186000 -0.671159 -0.011696
v -3.190392 -0.666804 -0.012269
v -3.192000 -0.660856 -0.013053
v -3.190392 -0.654907 -0.013836
v -3.186000 -0.650552 -0.014409
v -3.180000 -0.648000 -0.000000
v -3.174000 -0.649608 -0.000000
v -3.169608 -0.654000 -0.000000
v -3.168000 -0.660000 -0.000000
v -3.169608 -0.666000 -0.000000
v -3.174000 -0.670392 -0.000000
v -3.180000 -0.672000 -0.000000
v -3.186000 -0.670392 -0.000000
v -3.190392 -0.666000 -0.000000
v -3.192000 -0.660000 -0.000000
v -3.190392 -0.654000 -0.000000
v -3.186000 -0.649608 -0.000000
v -3.180000 -0.648958 0.014619
v -3.174000 -0.650552 0.014409
v -3.169608 -0.654907 0.013836
v -3.168000 -0.660856 0.013053
v -3.169608 -0.666804 0.012269
v -3.174000 -0.671159 0.011696
v -3.180000 -0.672753 0.011486
v -3.186000 -0.671159 0.011696
v -3.190392 -0.666804 0.012269
v -3.192000 -0.660856 0.013053
v -3.190392 -0.654907 0.013836
v -3.186000 -0.650552 0.014409
v -3.180000 -0.651816 0.028988
v -3.174000 -0.653369 0.028572
v -3.169608 -0.657612 0.027435
v -3.168000 -0.663407 0.025882
v -3.169608 -0.669203 0.024329
v -3.174000 -0.673446 0.023192
v -3.180000 -0.674999 0.022776
v -3.186000 -0.673446 0.023192
v -3.190392 -0.669203 0.024329
v -3.192000 -0.663407 0.025882
v -3.190392 -0.657612 0.027435
v -3.186000 -0.653369 0.028572
v -3.180000 -0.656525 0.042861
v -3.174000 -0.658011 0.042245
v -3.169608 -0.662069 0.040564
v -3.168000 -0.667612 0.038268
v -3.169608 -0.673155 0.035972
v -3.174000 -0.677213 0.034291
v -3.180000 -0.678699 0.033676
v -3.186000 -0.677213 0.034291
v -3.190392 -0.673155 0.035972
v -3.192000 -0.667612 0.038268
v -3.190392 -0.662069 0.040564
v -3.186000 -0.658011 0.042245
v -3.180000 -0.663005 0.056000
v -3.174000 -0.664397 0.055196
v -3.169608 -0.668201 0.053000
v -3.168000 -0.673397 0.050000
v -3.169608 -0.678594 0.047000
v -3.174000 -0.682397 0.044804
v -3.180000 -0.683790 0.044000
v -3.186000 -0.682397 0.044804
v -3.190392 -0.678594 0.047000
v -3.192000 -0.673397 0.050000
v -3.190392 -0.668201 0.053000
v -3.186000 -0.664397 0.055196
v -3.180000 -0.671144 0.068181
v -3.174000 -0.672420 0.067203
v -3.169608 -0.675905 0.064529
v -3.168000 -0.680665 0.060876
v -3.169608 -0.685425 0.057224
v -3.174000 -0.688909 0.054550
v -3.180000 -0.690185 0.053571
v -3.186000 -0.688909 0.054550
v -3.190392 -0.685425 0.057224
v -3.192000 -0.680665 0.060876
v -3.190392 -0.675905 0.064529
v -3.186000 -0.672420 0.067203
v -3.180000 -0.680804 0.079196
v -3.174000 -0.681941 0.078059
v -3.169608 -0.685047 0.074953
v -3.168000 -0.689289 0.070711
v -3.169608 -0.693532 0.066468
v -3.174000 -0.696638 0.063362
v -3.180000 -0.697775 0.062225
v -3.186000 -0.696638 0.063362
v -3.190392 -0.693532 0.066468
v -3.192000 -0.689289 0.070711
v -3.190392 -0.685047 0.074953
v -3.186000 -0.681941 0.078059
v -3.180000 -0.691819 0.088856
v -3.174000 -0.692797 0.087580
v -3.169608 -0.695471 0.084095
v -3.168000 -0.699124 0.079335
v -3.169608 -0.702776 0.074575
v -3.174000 -0.705450 0.071091
v -3.180000 -0.706429 0.069815
v -3.186000 -0.705450 0.071091
v -3.190392 -0.702776 0.074575
v -3.192000 -0.699124 0.079335
v -3.190392 -0.695471 0.084095
v -3.186000 -0.692797 0.087580
v -3.180000 -0.704000 0.096995
v -3.174000 -0.704804 0.095603
v -3.169608 -0.707000 0.091799
v -3.168000 -0.710000 0.086603
v -3.169608 -0.713000 0.081406
v -3.174000 -0.715196 0.077603
v -3.180000 -0.716000 0.076210
v -3.186000 -0.715196 0.077603
v -3.190392 -0.713000 0.081406
v -3.192000 -0.710000 0.086603
v -3.190392 -0.707000 0.091799
v -3.186000 -0.704804 0.095603
v -3.180000 -0.717139 0.103475
v -3.174000 -0.717755 0.101989
v -3.169608 -0.719436 0.097931
v -3.168000 -0.721732 0.092388
v -3.169608 -0.724028 0.086845
v -3.174000 -0.725709 0.082787
v -3.180000 -0.726324 0.081301
v -3.186000 -0.725709 0.082787
v -3.190392 -0.724028 0.086845
v -3.192000 -0.721732 0.092388
v -3.190392 -0.719436 0.097931
v -3.186000 -0.717755 0.101989
v -3.180000 -0.731012 0.108184
v -3.174000 -0.731428 0.106631
v -3.169608 -0.732565 0.102388
v -3.168000 -0.734118 0.096593
v -3.169608 -0.735671 0.090797
v -3.174000 -0.736808 0.086554
v -3.180000 -0.737224 0.085001
v -3.186000 -0.736808 0.086554
v -3.190392 -0.735671 0.090797
v -3.192000 -0.734118 0.096593
v -3.190392 -0.732565 0.102388
v -3.186000 -0.731428 0.106631
v -3.180000 -0.745381 0.111042
v -3.174000 -0.745591 0.109448
v -3.169608 -0.746164 0.105093
v -3.168000 -0.746947 0.099144
v -3.169608 -0.747730 0.093196
v -3.174000 -0.748304 0.088841
v -3.180000 -0.748514 0.087247
v -3.186000 -0.748304 0.088841
v -3.190392 -0.747730 0.093196
v -3.192000 -0.746947 0.099144
v -3.190392 -0.746164 0.105093
v -3.186000 -0.745591 0.109448
v -3.180000 -0.760000 0.112000
v -3.174000 -0.760000 0.110392
v -3.169608 -0.760000 0.106000
v -3.168000 -0.760000 0.100000
v -3.169608 -0.760000 0.094000
v -3.174000 -0.760000 0.089608
v -3.180000 -0.760000 0.088000
v -3.186000 -0.760000 0.089608
v -3.190392 -0.760000 0.094000
v -3.192000 -0.760000 0.100000
v -3.190392 -0.760000 0.106000
v -3.186000 -0.760000 0.110392
v -3.180000 -0.774619 0.111042
v -3.174000 -0.774409 0.109448
v -3.169608 -0.773836 0.105093
v -3.168000 -0.773053 0.099144
v -3.169608 -0.772269 0.093196
v -3.174000 -0.771696 0.088841
v -3.180000 -0.771486 0.087247
v -3.186000 -0.771696 0.088841
v -3.190392 -0.772269 0.093196
v -3.192000 -0.773053 0.099144
v -3.190392 -0.773836 0.105093
v -3.186000 -0.774409 0.109448
v -3.180000 -0.788988 0.108184
v -3.174000 -0.788572 0.106631
v -3.169608 -0.787435 0.102388
v -3.168000 -0.785882 0.096593
v -3.169608 -0.784329 0.090797
v -3.174000 -0.783192 0.086554
v -3.180000 -0.782776 0.085001
v -3.186000 -0.783192 0.086554
v -3.190392 -0.784329 0.090797
v -3.192000 -0.785882 0.096593
v -3.190392 -0.787435 0.102388
v -3.186000 -0.788572 0.106631
v -3.180000 -0.802860 0.103475
v -3.174000 -0.802245 0.101989
v -3.169608 -0.800564 0.097931
v -3.168000 -0.798268 0.092388
v -3.169608 -0.795972 0.086845
v -3.174000 -0.794291 0.082787
v -3.180000 -0.793676 0.081301
v -3.186000 -0.794291 0.082787
v -3.190392 -0.795972 0.086845
v -3.192000 -0.798268 0.092388
v -3.190392 -0.800564 0.097931
v -3.186000 -0.802245 0.101989
v -3.180000 -0.816000 0.096995
v -3.174000 -0.815196 0.095603
v -3.169608 -0.813000 0.091799
v -3.168000 -0.810000 0.086603
v -3.169608 -0.807000 0.081406
v -3.174000 -0.804804 0.077603
v -3.180000 -0.804000 0.076210
v -3.186000 -0.804804 0.077603
v -3.190392 -0.807000 0.081406
v -3.192000 -0.810000 0.086603
v -3.190392 -0.813000 0.091799
v -3.186000 -0.815196 0.095603
v -3.180000 -0.828181 0.088856
v -3.174000 -0.827203 0.087580
v -3.169608 -0.824529 0.084095
v -3.168000 -0.820876 0.079335
v -3.169608 -0.817224 0.074575
v -3.174000 -0.814550 0.071091
v -3.180000 -0.813571 0.069815
v -3.186000 -0.814550 0.071091
v -3.190392 -0.817224 0.074575
v -3.192000 -0.820876 0.079335
v -3.190392 -0.824529 0.084095
v -3.186000 -0.827203 0.087580
v -3.180000 -0.839196 0.079196
v -3.174000 -0.838059 0.078059
v -3.169608 -0.834953 0.074953
v -3.168000 -0.830711 0.070711
v -3.169608 -0.826468 0.066468
v -3.174000 -0.823362 0.063362
v -3.180000 -0.822225 0.062225
v -3.186000 -0.823362 0.063362
v -3.190392 -0.826468 0.066468
v -3.192000 -0.830711 0.070711
v -3.190392 -0.834953 0.074953
v -3.186000 -0.838059 0.078059
v -3.180000 -0.848856 0.068181
v -3.174000 -0.847580 0.067203
v -3.169608 -0.844095 0.064529
v -3.168000 -0.839335 0.060876
v -3.169608 -0.834575 0.057224
v -3.174000 -0.831091 0.054550
v -3.180000 -0.829815 0.053571
v -3.186000 -0.831091 0.054550
v -3.190392 -0.834575 0.057224
v -3.192000 -0.839335 0.060876
v -3.190392 -0.844095 0.064529
v -3.186000 -0.847580 0.067203
v -3.180000 -0.856995 0.056000
v -3.174000 -0.855603 0.055196
v -3.169608 -0.851799 0.053000
v -3.168000 -0.846603 0.050000
v -3.169608 -0.841406 0.047000
v -3.174000 -0.837603 0.044804
v -3.180000 -0.836210 0.044000
v -3.186000 -0.837603 0.044804
v -3.190392 -0.841406 0.047000
v -3.192000 -0.846603 0.050000
v -3.190392 -0.851799 0.053000
v -3.186000 -0.855603 0.055196
v -3.180000 -0.863474 0.042861
v -3.174000 -0.861989 0.042245
v -3.169608 -0.857931 0.040564
v -3.168000 -0.852388 0.038268
v -3.169608 -0.846845 0.035972
v -3.174000 -0.842787 0.034291
v -3.180000 -0.841301 0.033676
v -3.186000 -0.842787 0.034291
v -3.190392 -0.846845 0.035972
v -3.192000 -0.852388 0.038268
v -3.190392 -0.857931 0.040564
v -3.186000 -0.861989 0.042245
v -3.180000 -0.868184 0.028988
v -3.174000 -0.866631 0.028572
v -3.169608 -0.862388 0.027435
v -3.168000 -0.856593 0.025882
v -3.169608 -0.850797 0.024329
v -3.174000 -0.846554 0.023192
v -3.180000 -0.845001 0.022776
v -3.186000 -0.846554 0.023192
v -3.190392 -0.850797 0.024329
v -3.192000 -0.856593 0.025882
v -3.190392 -0.862388 0.027435
v -3.186000 -0.866631 0.028572
v -3.180000 -0.871042 0.014619
v -3.174000 -0.869448 0.014409
v -3.169608 -0.865093 0.013836
v -3.168000 -0.859144 0.013053
v -3.169608 -0.853196 0.012270
v -3.174000 -0.848841 0.011696
v -3.180000 -0.847247 0.011486
v -3.186000 -0.848841 0.011696
v -3.190392 -0.853196 0.012270
v -3.192000 -0.859144 0.013053
v -3.190392 -0.865093 0.013836
v -3.186000 -0.869448 0.014409
v -3.180000 -0.872000 -0.000000
v -3.174000 -0.870392 -0.000000
v -3.169608 -0.866000 -0.000000
v -3.168000 -0.860000 -0.000000
v -3.169608 -0.854000 -0.000000
v -3.174000 -0.849608 -0.000000
v -3.180000 -0.848000 -0.000000
v -3.186000 -0.849608 -0.000000
v -3.190392 -0.854000 -0.000000
v -3.192000 -0.860000 -0.000000
v -3.190392 -0.866000 -0.000000
v -3.186000 -0.870392 -0.000000
v -3.180000 -0.871042 -0.014619
v -3.174000 -0.869448 -0.014409
v -3.169608 -0.865093 -0.013836
v -3.168000 -0.859144 -0.013053
v -3.169608 -0.853196 -0.012269
v -3.174000 -0.848841 -0.011696
v -3.180000 -0.847247 -0.011486
v -3.186000 -0.848841 -0.011696
v -3.190392 -0.853196 -0.012269
v -3.192000 -0.859144 -0.013053
v -3.190392 -0.865093 -0.013836
v -3.186000 -0.869448 -0.014409
v -3.180000 -0.868184 -0.028988
v -3.174000 -0.866631 -0.028572
v -3.169608 -0.862388 -0.027435
v -3.168000 -0.856593 -0.025882
v -3.169608 -0.850797 -0.024329
v -3.174000 -0.846554 -0.023192
v -3.180000 -0.845001 -0.022776
v -3.186000 -0.846554 -0.023192
v -3.190392 -0.850797 -0.024329
v -3.192000 -0.856593 -0.025882
v -3.190392 -0.862388 -0.027435
v -3.186000 -0.866631 -0.028572
v -3.180000 -0.863474 -0.042861
v -3.174000 -0.861989 -0.042245
v -3.169608 -0.857931 -0.040564
v -3.168000 -0.852388 -0.038268
v -3.169608 -0.846845 -0.035972
v -3.174000 -0.842787 -0.034291
v -3.180000 -0.841301 -0.033676
v -3.186000 -0.842787 -0.034291
v -3.190392 -0.846845 -0.035972
v -3.192000 -0.852388 -0.038268
v -3.190392 -0.857931 -0.040564
v -3.186000 -0.861989 -0.042245
v -3.180000 -0.856995 -0.056000
v -3.174000 -0.855603 -0.055196
v -3.169608 -0.851799 -0.053000
v -3.168000 -0.846603 -0.050000
v -3.169608 -0.841406 -0.047000
v -3.174000 -0.837603 -0.044804
v -3.180000 -0.836210 -0.044000
v -3.186000 -0.837603 -0.044804
v -3.190392 -0.841406 -0.047000
v -3.192000 -0.846603 -0.050000
v -3.190392 -0.851799 -0.053000
v -3.186000 -0.855603 -0.055196
v -3.180000 -0.848856 -0.068181
v -3.174000 -0.847580 -0.067203
v -3.169608 -0.844095 -0.064529
v -3.168000 -0.839335 -0.060876
v -3.169608 -0.834575 -0.057224
v -3.174000 -0.831091 -0.054550
v -3.180000 -0.829815 -0.053571
v -3.186000 -0.831091 -0.054550
v -3.190392 -0.834575 -0.057224
v -3.192000 -0.839335 -0.060876
v -3.190392 -0.844095 -0.064529
v -3.186000 -0.847580 -0.067203
v -3.180000 -0.839196 -0.079196
v -3.174000 -0.838059 -0.078059
v -3.169608 -0.834953 -0.074953
v -3.168000 -0.830711 -0.070711
v -3.169608 -0.826468 -0.066468
v -3.174000 -0.823362 -0.063362
v -3.180000 -0.822225 -0.062225
v -3.186000 -0.823362 -0.063362
v -3.190392 -0.826468 -0.066468
v -3.192000 -0.830711 -0.070711
v -3.190392 -0.834953 -0.074953
v -3.186000 -0.838059 -0.078059
v -3.180000 -0.828181 -0.088856
v -3.174000 -0.827203 -0.087580
v -3.169608 -0.824529 -0.084095
v -3.168000 -0.820876 -0.079335
v -3.169608 -0.817224 -0.074575
v -3.174000 -0.814550 -0.071091
v -3.180000 -0.813571 -0.069815
v -3.186000 -0.814550 -0.071091
v -3.190392 -0.817224 -0.074575
v -3.192000 -0.820876 -0.079335
v -3.190392 -0.824529 -0.084095
v -3.186000 -0.827203 -0.087580
v -3.180000 -0.816000 -0.096995
v -3.174000 -0.815196 -0.095603
v -3.169608 -0.813000 -0.091799
v -3.168000 -0.810000 -0.086603
v -3.169608 -0.807000 -0.081406
v -3.174000 -0.804804 -0.077603
v -3.180000 -0.804000 -0.076210
v -3.186000 -0.804804 -0.077603
v -3.190392 -0.807000 -0.081406
v -3.192000 -0.810000 -0.086603
v -3.190392 -0.813000 -0.091799
v -3.186000 -0.815196 -0.095603
v -3.180000 -0.802861 -0.103474
v -3.174000 -0.802245 -0.101989
v -3.169608 -0.800564 -0.097931
v -3.168000 -0.798268 -0.092388
v -3.169608 -0.795972 -0.086845
v -3.174000 -0.794291 -0.082787
v -3.180000 -0.793676 -0.081301
v -3.186000 -0.794291 -0.082787
v -3.190392 -0.795972 -0.086845
v -3.192000 -0.798268 -0.092388
v -3.190392 -0.800564 -0.097931
v -3.186000 -0.802245 -0.101989
v -3.180000 -0.788988 -0.108184
v -3.174000 -0.788572 -0.106631
v -3.169608 -0.787435 -0.102388
v -3.168000 -0.785882 -0.096593
v -3.169608 -0.784329 -0.090797
v -3.174000 -0.783192 -0.086554
v -3.180000 -0.782776 -0.085001
v -3.186000 -0.783192 -0.086554
v -3.190392 -0.784329 -0.090797
v -3.192000 -0.785882 -0.096593
v -3.190392 -0.787435 -0.102388
v -3.186000 -0.788572 -0.106631
v -3.180000 -0.774619 -0.111042
v -3.174000 -0.774409 -0.109448
v -3.169608 -0.773836 -0.105093
v -3.168000 -0.773053 -0.099144
v -3.169608 -0.772269 -0.093196
v -3.174000 -0.771696 -0.088841
v -3.180000 -0.771486 -0.087247
v -3.186000 -0.771696 -0.088841
v -3.190392 -0.772269 -0.093196
v -3.192000 -0.773053 -0.099144
v -3.190392 -0.773836 -0.105093
v -3.186000 -0.774409 -0.109448
v -3.180000 -0.740000 0.000000
v -3.100000 -0.740000 -0.000000
v -3.180000 -0.740096 -0.001960
v -3.100000 -0.740096 -0.001960
v -3.180000 -0.740384 -0.003902
v -3.100000 -0.740384 -0.003902
v -3.180000 -0.740861 -0.005806
v -3.100000 -0.740861 -0.005806
v -3.180000 -0.741522 -0.007654
v -3.100000 -0.741522 -0.007654
v -3.180000 -0.742362 -0.009428
v -3.100000 -0.742362 -0.009428
v -3.180000 -0.743371 -0.011111
v -3.100000 -0.743371 -0.011111
v -3.180000 -0.744540 -0.012688
v -3.100000 -0.744540 -0.012688
v -3.180000 -0.745858 -0.014142
v -3.100000 -0.745858 -0.014142
v -3.180000 -0.747312 -0.015460
v -3.100000 -0.747312 -0.015460
v -3.180000 -0.748889 -0.016629
v -3.100000 -0.748889 -0.016629
v -3.180000 -0.750572 -0.017638
v -3.100000 -0.750572 -0.017638
v -3.180000 -0.752346 -0.018478
v -3.100000 -0.752346 -0.018478
v -3.180000 -0.754194 -0.019139
v -3.100000 -0.754194 -0.019139
v -3.180000 -0.756098 -0.019616
v -3.100000 -0.756098 -0.019616
v -3.180000 -0.758040 -0.019904
v -3.100000 -0.758040 -0.019904
v -3.180000 -0.760000 -0.020000
v -3.100000 -0.760000 -0.020000
v -3.180000 -0.761960 -0.019904
v -3.100000 -0.761960 -0.019904
v -3.180000 -0.763902 -0.019616
v -3.100000 -0.763902 -0.019616
v -3.180000 -0.765806 -0.019139
v -3.100000 -0.765806 -0.019139
v -3.180000 -0.767654 -0.018478
v -3.100000 -0.767654 -0.018478
v -3.180000 -0.769428 -0.017638
v -3.100000 -0.769428 -0.017638
v -3.180000 -0.771111 -0.016629
v -3.100000 -0.771111 -0.016629
v -3.180000 -0.772688 -0.015460
v -3.100000 -0.772688 -0.015460
v -3.180000 -0.774142 -0.014142
v -3.100000 -0.774142 -0.014142
v -3.180000 -0.775460 -0.012688
v -3.100000 -0.775460 -0.012688
v -3.180000 -0.776629 -0.011111
v -3.100000 -0.776629 -0.011111
v -3.180000 -0.777638 -0.009428
v -3.100000 -0.777638 -0.009428
v -3.180000 -0.778478 -0.007654
v -3.100000 -0.778478 -0.007654
v -3.180000 -0.779139 -0.005806
v -3.100000 -0.779139 -0.005806
v -3.180000 -0.779616 -0.003902
v -3.100000 -0.779616 -0.003902
v -3.180000 -0.779904 -0.001960
v -3.100000 -0.779904 -0.001960
v -3.180000 -0.780000 0.000000
v -3.100000 -0.780000 -0.000000
v -3.180000 -0.779904 0.001960
v -3.100000 -0.779904 0.001960
v -3.180000 -0.779616 0.003902
v -3.100000 -0.779616 0.003902
v -3.180000 -0.779139 0.005806
v -3.100000 -0.779139 0.005806
v -3.180000 -0.778478 0.007654
v -3.100000 -0.778478 0.007654
v -3.180000 -0.777638 0.009428
v -3.100000 -0.777638 0.009428
v -3.180000 -0.776629 0.011111
v -3.100000 -0.776629 0.011111
v -3.180000 -0.775460 0.012688
v -3.100000 -0.775460 0.012688
v -3.180000 -0.774142 0.014142
v -3.100000 -0.774142 0.014142
v -3.180000 -0.772688 0.015460
v -3.100000 -0.772688 0.015460
v -3.180000 -0.771111 0.016629
v -3.100000 -0.771111 0.016629
v -3.180000 -0.769428 0.017638
v -3.100000 -0.769428 0.017638
v -3.180000 -0.767654 0.018478
v -3.100000 -0.767654 0.018478
v -3.180000 -0.765806 0.019139
v -3.100000 -0.765806 0.019139
v -3.180000 -0.763902 0.019616
v -3.100000 -0.763902 0.019616
v -3.180000 -0.761960 0.019904
v -3.100000 -0.761960 0.019904
v -3.180000 -0.760000 0.020000
v -3.100000 -0.760000 0.020000
v -3.180000 -0.758040 0.019904
v -3.100000 -0.758040 0.019904
v -3.180000 -0.756098 0.019616
v -3.100000 -0.756098 0.019616
v -3.180000 -0.754194 0.019139
v -3.100000 -0.754194 0.019139
v -3.180000 -0.752346 0.018478
v -3.100000 -0.752346 0.018478
v -3.180000 -0.750572 0.017638
v -3.100000 -0.750572 0.017638
v -3.180000 -0.748889 0.016629
v -3.100000 -0.748889 0.016629
v -3.180000 -0.747312 0.015460
v -3.100000 -0.747312 0.015460
v -3.180000 -0.745858 0.014142
v -3.100000 -0.745858 0.014142
v -3.180000 -0.744540 0.012688
v -3.100000 -0.744540 0.012688
v -3.180000 -0.743371 0.011111
v -3.100000 -0.743371 0.011111
v -3.180000 -0.742362 0.009428
v -3.100000 -0.742362 0.009428
v -3.180000 -0.741522 0.007654
v -3.100000 -0.741522 0.007654
v -3.180000 -0.740861 0.005806
v -3.100000 -0.740861 0.005806
v -3.180000 -0.740384 0.003902
v -3.100000 -0.740384 0.003902
v -3.180000 -0.740096 0.001960
v -3.100000 -0.740096 0.001960
v -3.185000 -0.766000 0.000000
v -3.185000 -0.766000 0.100000
v -3.185000 -0.754000 0.000000
v -3.185000 -0.754000 0.100000
v -3.175000 -0.766000 0.000000
v -3.175000 -0.766000 0.100000
v -3.175000 -0.754000 0.000000
v -3.175000 -0.754000 0.100000
v -3.185000 -0.757000 -0.005196
v -3.185000 -0.843603 -0.055196
v -3.185000 -0.763000 0.005196
v -3.185000 -0.849603 -0.044804
v -3.175000 -0.757000 -0.005196
v -3.175000 -0.843603 -0.055196
v -3.175000 -0.763000 0.005196
v -3.175000 -0.849603 -0.044804
v -3.185000 -0.757000 0.005196
v -3.185000 -0.670397 -0.044804
v -3.185000 -0.763000 -0.005196
v -3.185000 -0.676397 -0.055196
v -3.175000 -0.757000 0.005196
v -3.175000 -0.670397 -0.044804
v -3.175000 -0.763000 -0.005196
v -3.175000 -0.676397 -0.055196
vn -1.0000 -0.0000 -0.0000
vn -0.0000 1.0000 -0.0000
vn 1.0000 -0.0000 -0.0000
vn -0.0000 -1.0000 -0.0000
vn -0.0000 -0.0000 -1.0000
vn -0.0000 -0.0000 1.0000
vn 0.2583 0.0632 -0.9640
vn 0.7064 0.0463 -0.7063
vn 0.9658 0.0170 -0.2588
vn 0.9658 -0.0170 0.2588
vn 0.7063 -0.0463 0.7063
vn 0.2583 -0.0632 0.9640
vn -0.2583 -0.0632 0.9640
vn -0.7063 -0.0463 0.7063
vn -0.9658 -0.0170 0.2588
vn -0.9658 0.0170 -0.2588
vn -0.7063 0.0463 -0.7063
vn -0.2583 0.0632 -0.9640
vn 0.2583 0.1885 -0.9475
vn 0.7063 0.1381 -0.6943
vn 0.9658 0.0506 -0.2544
vn 0.9658 -0.0506 0.2544
vn 0.7064 -0.1381 0.6943
vn 0.2583 -0.1885 0.9475
vn -0.2583 -0.1885 0.9475
vn -0.7063 -0.1381 0.6943
vn -0.9658 -0.0506 0.2544
vn -0.9658 0.0506 -0.2544
vn -0.7063 0.1381 -0.6943
vn -0.2583 0.1885 -0.9475
vn 0.2583 0.3105 -0.9148
vn 0.7063 0.2275 -0.6703
vn 0.9658 0.0834 -0.2456
vn 0.9658 -0.0834 0.2456
vn 0.7064 -0.2275 0.6703
vn 0.2583 -0.3105 0.9148
vn -0.2583 -0.3105 0.9148
vn -0.7063 -0.2275 0.6703
vn -0.9658 -0.0834 0.2456
vn -0.9658 0.0834 -0.2456
vn -0.7063 0.2275 -0.6703
vn -0.2583 0.3105 -0.9148
vn 0.2583 0.4273 -0.8664
vn 0.7063 0.3131 -0.6349
vn 0.9658 0.1147 -0.2326
vn 0.9658 -0.1147 0.2326
vn 0.7064 -0.3131 0.6349
vn 0.2583 -0.4273 0.8664
vn -0.2583 -0.4273 0.8664
vn -0.7063 -0.3131 0.6349
vn -0.9658 -0.1147 0.2326
vn -0.9658 0.1147 -0.2326
vn -0.7063 0.3131 -0.6349
vn -0.2583 0.4273 -0.8664
vn 0.2583 0.5367 -0.8033
vn 0.7064 0.3933 -0.5886
vn 0.9658 0.1441 -0.2156
vn 0.9658 -0.1441 0.2156
vn 0.7064 -0.3933 0.5886
vn 0.2583 -0.5367 0.8033
vn -0.2583 -0.5367 0.8033
vn -0.7063 -0.3933 0.5886
vn -0.9658 -0.1441 0.2156
vn -0.9658 0.1441 -0.2156
vn -0.7063 0.3933 -0.5886
vn -0.2583 0.5367 -0.8033
vn 0.2583 0.6370 -0.7263
vn 0.7063 0.4667 -0.5322
vn 0.9658 0.1710 -0.1950
vn 0.9658 -0.1710 0.1950
vn 0.7063 -0.4667 0.5322
vn 0.2583 -0.6370 0.7263
vn -0.2583 -0.6370 0.7263
vn -0.7063 -0.4667 0.5322
vn -0.9658 -0.1710 0.1950
vn -0.9658 0.1710 -0.1950
vn -0.7063 0.4667 -0.5322
vn -0.2583 0.6370 -0.7263
vn 0.2583 0.7263 -0.6370
vn 0.7064 0.5322 -0.4667
vn 0.9658 0.1950 -0.1710
vn 0.9658 -0.1950 0.1710
vn 0.7063 -0.5322 0.4667
vn 0.2583 -0.7263 0.6370
vn -0.2583 -0.7263 0.6370
vn -0.7063 -0.5322 0.4667
vn -0.9658 -0.1950 0.1710
vn -0.9658 0.1950 -0.1710
vn -0.7063 0.5322 -0.4667
vn -0.2583 0.7263 -0.6370
vn 0.2583 0.8033 -0.5367
vn 0.7064 0.5886 -0.3933
vn 0.9658 0.2156 -0.1441
vn 0.9658 -0.2156 0.1441
vn 0.7063 -0.5886 0.3933
vn 0.2583 -0.8033 0.5367
vn -0.2583 -0.8033 0.5367
vn -0.7063 -0.5886 0.3933
vn -0.9658 -0.2156 0.1441
vn -0.9658 0.2156 -0.1441
vn -0.7063 0.5886 -0.3933
vn -0.2583 0.8033 -0.5367
vn 0.2583 0.8664 -0.4273
vn 0.7064 0.6349 -0.3131
vn 0.9658 0.2326 -0.1147
vn 0.9658 -0.2326 0.1147
vn 0.7064 -0.6349 0.3131
vn 0.2583 -0.8664 0.4273
vn -0.2583 -0.8664 0.4273
vn -0.7063 -0.6349 0.3131
vn -0.9658 -0.2326 0.1147
vn -0.9658 0.2326 -0.1147
vn -0.7063 0.6349 -0.3131
vn -0.2583 0.8664 -0.4273
vn 0.2583 0.9148 -0.3105
vn 0.7063 0.6703 -0.2275
vn 0.9658 0.2456 -0.0834
vn 0.9658 -0.2456 0.0834
vn 0.7064 -0.6703 0.2275
vn 0.2583 -0.9148 0.3105
vn -0.2583 -0.9148 0.3105
vn -0.7063 -0.6703 0.2275
vn -0.9658 -0.2456 0.0834
vn -0.9658 0.2456 -0.0834
vn -0.7063 0.6703 -0.2275
vn -0.2583 0.9148 -0.3105
vn 0.2583 0.9475 -0.1885
vn 0.7063 0.6943 -0.1381
vn 0.9658 0.2543 -0.0506
vn 0.9658 -0.2544 0.0506
vn 0.7063 -0.6943 0.1381
vn 0.2583 -0.9475 0.1885
vn -0.2583 -0.9475 0.1885
vn -0.7063 -0.6943 0.1381
vn -0.9658 -0.2544 0.0506
vn -0.9658 0.2544 -0.0506
vn -0.7063 0.6943 -0.1381
vn -0.2583 0.9475 -0.1885
vn 0.2583 0.9640 -0.0632
vn 0.7063 0.7064 -0.0463
vn 0.9658 0.2588 -0.0170
vn 0.9658 -0.2588 0.0170
vn 0.7064 -0.7063 0.0463
vn 0.2583 -0.9640 0.0632
vn -0.2583 -0.9640 0.0632
vn -0.7063 -0.7063 0.0463
vn -0.9658 -0.2588 0.0170
vn -0.9658 0.2588 -0.0170
vn -0.7064 0.7063 -0.0463
vn -0.2583 0.9640 -0.0632
vn 0.2583 0.9640 0.0632
vn 0.7063 0.7063 0.0463
vn 0.9658 0.2588 0.0170
vn 0.9658 -0.2588 -0.0170
vn 0.7064 -0.7063 -0.0463
vn 0.2583 -0.9640 -0.0632
vn -0.2583 -0.9640 -0.0632
vn -0.7064 -0.7063 -0.0463
vn -0.9658 -0.2588 -0.0170
vn -0.9658 0.2588 0.0170
vn -0.7063 0.7064 0.0463
vn -0.2583 0.9640 0.0632
vn 0.2583 0.9475 0.1885
vn 0.7064 0.6943 0.1381
vn 0.9658 0.2543 0.0506
vn 0.9658 -0.2543 -0.0506
vn 0.7063 -0.6943 -0.1381
vn 0.2583 -0.9475 -0.1885
vn -0.2583 -0.9475 -0.1885
vn -0.7064 -0.6943 -0.1381
vn -0.9658 -0.2544 -0.0506
vn -0.9658 0.2544 0.0506
vn -0.7064 0.6943 0.1381
vn -0.2583 0.9475 0.1885
vn 0.2583 0.9148 0.3105
vn 0.7064 0.6703 0.2275
vn 0.9658 0.2456 0.0834
vn 0.9658 -0.2456 -0.0834
vn 0.7064 -0.6703 -0.2275
vn 0.2583 -0.9148 -0.3105
vn -0.2583 -0.9148 -0.3105
vn -0.7063 -0.6703 -0.2275
vn -0.9658 -0.2456 -0.0834
vn -0.9658 0.2456 0.0834
vn -0.7064 0.6703 0.2275
vn -0.2583 0.9148 0.3105
vn 0.2583 0.8664 0.4273
vn 0.7063 0.6349 0.3131
vn 0.9658 0.2326 0.1147
vn 0.9658 -0.2326 -0.1147
vn 0.7063 -0.6349 -0.3131
vn 0.2583 -0.8664 -0.4273
vn -0.2583 -0.8664 -0.4273
vn -0.7063 -0.6349 -0.3131
vn -0.9658 -0.2326 -0.1147
vn -0.9658 0.2326 0.1147
vn -0.7064 0.6349 0.3131
vn -0.2583 0.8664 0.4273
vn 0.2583 0.8033 0.5367
vn 0.7063 0.5886 0.3933
vn 0.9658 0.2156 0.1441
vn 0.9658 -0.2156 -0.1441
vn 0.7063 -0.5886 -0.3933
vn 0.2583 -0.8033 -0.5367
vn -0.2583 -0.8033 -0.5367
vn -0.7064 -0.5886 -0.3933
vn -0.9658 -0.2156 -0.1441
vn -0.9658 0.2156 0.1441
vn -0.7064 0.5886 0.3933
vn -0.2583 0.8033 0.5367
vn 0.2583 0.7263 0.6370
vn 0.7063 0.5322 0.4667
vn 0.9658 0.1950 0.1710
vn 0.9658 -0.1950 -0.1710
vn 0.7063 -0.5322 -0.4667
vn 0.2583 -0.7263 -0.6370
vn -0.2583 -0.7263 -0.6370
vn -0.7064 -0.5322 -0.4667
vn -0.9658 -0.1950 -0.1710
vn -0.9658 0.1950 0.1710
vn -0.7063 0.5322 0.4667
vn -0.2583 0.7263 0.6370
vn 0.2583 0.6370 0.7263
vn 0.7063 0.4667 0.5322
vn 0.9658 0.1710 0.1950
vn 0.9658 -0.1710 -0.1950
vn 0.7063 -0.4667 -0.5322
vn 0.2583 -0.6370 -0.7263
vn -0.2583 -0.6370 -0.7263
vn -0.7063 -0.4667 -0.5322
vn -0.9658 -0.1710 -0.1950
vn -0.9658 0.1710 0.1950
vn -0.7064 0.4667 0.5322
vn -0.2583 0.6370 0.7263
vn 0.2583 0.5367 0.8033
vn 0.7063 0.3933 0.5886
vn 0.9658 0.1441 0.2156
vn 0.9658 -0.1441 -0.2156
vn 0.7063 -0.3933 -0.5886
vn 0.2583 -0.5367 -0.8033
vn -0.2583 -0.5367 -0.8033
vn -0.7064 -0.3933 -0.5886
vn -0.9658 -0.1441 -0.2156
vn -0.9658 0.1441 0.2156
vn -0.7064 0.3933 0.5886
vn -0.2583 0.5367 0.8033
vn 0.2583 0.4273 0.8664
vn 0.7063 0.3131 0.6349
vn 0.9658 0.1147 0.2326
vn 0.9658 -0.1147 -0.2326
vn 0.7063 -0.3131 -0.6349
vn 0.2583 -0.4273 -0.8664
vn -0.2583 -0.4273 -0.8664
vn -0.7064 -0.3131 -0.6349
vn -0.9658 -0.1147 -0.2326
vn -0.9658 0.1147 0.2326
vn -0.7064 0.3131 0.6349
vn -0.2583 0.4273 0.8664
vn 0.2583 0.3105 0.9148
vn 0.7063 0.2275 0.6703
vn 0.9658 0.0834 0.2456
vn 0.9658 -0.0834 -0.2456
vn 0.7063 -0.2275 -0.6703
vn 0.2583 -0.3105 -0.9148
vn -0.2583 -0.3105 -0.9148
vn -0.7064 -0.2275 -0.6703
vn -0.9658 -0.0834 -0.2456
vn -0.9658 0.0834 0.2456
vn -0.7063 0.2275 0.6703
vn -0.2583 0.3105 0.9148
vn 0.2583 0.1885 0.9475
vn 0.7063 0.1381 0.6943
vn 0.9658 0.0506 0.2544
vn 0.9658 -0.0506 -0.2544
vn 0.7063 -0.1381 -0.6943
vn 0.2583 -0.1885 -0.9475
vn -0.2583 -0.1885 -0.9475
vn -0.7064 -0.1381 -0.6943
vn -0.9658 -0.0506 -0.2544
vn -0.9658 0.0506 0.2544
vn -0.7064 0.1381 0.6943
vn -0.2583 0.1885 0.9475
vn 0.2583 0.0632 0.9640
vn 0.7063 0.0463 0.7063
vn 0.9658 0.0170 0.2588
vn 0.9658 -0.0170 -0.2588
vn 0.7063 -0.0463 -0.7063
vn 0.2583 -0.0632 -0.9640
vn -0.2583 -0.0632 -0.9640
vn -0.7064 -0.0463 -0.7063
vn -0.9658 -0.0170 -0.2588
vn -0.9658 0.0170 0.2588
vn -0.7063 0.0463 0.7063
vn -0.2583 0.0632 0.9640
vn 0.7063 0.0463 -0.7063
vn -0.7064 0.0463 -0.7063
vn 0.7063 -0.1381 0.6943
vn -0.7064 0.1381 -0.6943
vn 0.7063 -0.2275 0.6703
vn -0.7064 0.2275 -0.6703
vn 0.7063 -0.3131 0.6349
vn -0.7064 0.3131 -0.6349
vn -0.7064 -0.3131 0.6349
vn 0.7063 -0.3933 0.5886
vn 0.7063 0.3933 -0.5886
vn -0.7064 -0.3933 0.5886
vn -0.7064 -0.4667 0.5322
vn 0.7063 0.5322 -0.4667
vn 0.7063 0.5886 -0.3933
vn 0.7063 -0.6349 0.3131
vn 0.7063 0.6349 -0.3131
vn 0.7063 -0.6703 0.2275
vn -0.7064 -0.6703 0.2275
vn 0.9658 0.2544 -0.0506
vn 0.7064 0.6943 -0.1381
vn -0.9658 0.2543 -0.0506
vn 0.7063 -0.7063 0.0463
vn 0.7064 0.7063 -0.0463
vn -0.7063 0.7064 -0.0463
vn -0.7064 -0.7063 0.0463
vn 0.7064 0.7063 0.0463
vn -0.7063 0.7063 0.0463
vn 0.9658 -0.2544 -0.0506
vn -0.9658 0.2543 0.0506
vn 0.7063 0.6703 0.2275
vn -0.7063 0.6703 0.2275
vn -0.7064 -0.6703 -0.2275
vn -0.7063 0.6349 0.3131
vn -0.7063 0.5886 0.3933
vn -0.7063 -0.5886 -0.3933
vn 0.7064 -0.5322 -0.4667
vn -0.7063 -0.5322 -0.4667
vn -0.7063 0.4667 0.5322
vn -0.7063 0.3933 0.5886
vn -0.7063 -0.3933 -0.5886
vn 0.7064 0.3131 0.6349
vn -0.7063 0.3131 0.6349
vn -0.7063 -0.3131 -0.6349
vn 0.7064 -0.2275 -0.6703
vn -0.7063 -0.2275 -0.6703
vn 0.7064 -0.1381 -0.6943
vn 0.7064 0.1381 0.6943
vn -0.7063 0.1381 0.6943
vn -0.7063 -0.1381 -0.6943
vn -0.7063 0.0463 0.7064
vn -0.7063 -0.0463 -0.7063
vn -0.0000 0.9988 -0.0491
vn -0.0000 0.9892 -0.1467
vn -0.0000 0.9700 -0.2430
vn -0.0000 0.9415 -0.3369
vn -0.0000 0.9040 -0.4276
vn -0.0000 0.8577 -0.5141
vn -0.0000 0.8032 -0.5957
vn -0.0000 0.7410 -0.6716
vn -0.0000 0.6716 -0.7410
vn -0.0000 0.5957 -0.8032
vn -0.0000 0.5141 -0.8577
vn -0.0000 0.4276 -0.9040
vn -0.0000 0.3369 -0.9415
vn -0.0000 0.2430 -0.9700
vn -0.0000 0.1467 -0.9892
vn -0.0000 0.0491 -0.9988
vn -0.0000 -0.0491 -0.9988
vn -0.0000 -0.1467 -0.9892
vn -0.0000 -0.2430 -0.9700
vn -0.0000 -0.3369 -0.9415
vn -0.0000 -0.4276 -0.9040
vn -0.0000 -0.5141 -0.8577
vn -0.0000 -0.5957 -0.8032
vn -0.0000 -0.6716 -0.7410
vn -0.0000 -0.7410 -0.6716
vn -0.0000 -0.8032 -0.5957
vn -0.0000 -0.8577 -0.5141
vn -0.0000 -0.9040 -0.4276
vn -0.0000 -0.9415 -0.3369
vn -0.0000 -0.9700 -0.2430
vn -0.0000 -0.9892 -0.1467
vn -0.0000 -0.9988 -0.0491
vn -0.0000 -0.9988 0.0491
vn -0.0000 -0.9892 0.1467
vn -0.0000 -0.9700 0.2430
vn -0.0000 -0.9415 0.3369
vn -0.0000 -0.9040 0.4276
vn -0.0000 -0.8577 0.5141
vn -0.0000 -0.8032 0.5957
vn -0.0000 -0.7410 0.6716
vn -0.0000 -0.6716 0.7410
vn -0.0000 -0.5957 0.8032
vn -0.0000 -0.5141 0.8577
vn -0.0000 -0.4276 0.9040
vn -0.0000 -0.3369 0.9415
vn -0.0000 -0.2430 0.9700
vn -0.0000 -0.1467 0.9892
vn -0.0000 -0.0491 0.9988
vn -0.0000 0.0491 0.9988
vn -0.0000 0.1467 0.9892
vn -0.0000 0.2430 0.9700
vn -0.0000 0.3369 0.9415
vn -0.0000 0.4276 0.9040
vn -0.0000 0.5141 0.8577
vn -0.0000 0.5957 0.8032
vn -0.0000 0.6716 0.7410
vn -0.0000 0.7410 0.6716
vn -0.0000 0.8032 0.5957
vn -0.0000 0.8577 0.5141
vn -0.0000 0.9040 0.4276
vn -0.0000 0.9415 0.3369
vn -0.0000 0.9700 0.2430
vn -0.0000 0.9892 0.1467
vn -0.0000 0.9988 0.0491
vn -0.0000 -0.5000 0.8660
vn -0.0000 0.5000 -0.8660
vn -0.0000 0.8660 0.5000
vn -0.0000 -0.8660 -0.5000
vn -0.0000 -0.5000 -0.8660
vn -0.0000 0.5000 0.8660
vn -0.0000 -0.8660 0.5000
vn -0.0000 0.8660 -0.5000
vn -0.7063 -0.0463 0.7064
vn 0.7064 0.3131 -0.6349
vn 0.7064 0.4667 -0.5322
vn 0.7064 -0.5322 0.4667
vn 0.7064 -0.5886 0.3933
vn 0.7064 0.6703 -0.2275
vn -0.7064 0.6703 -0.2275
vn 0.9658 -0.2543 0.0506
vn 0.7064 -0.6943 0.1381
vn -0.7064 -0.6943 0.1381
vn -0.9658 -0.2543 0.0506
vn -0.7064 0.6943 -0.1381
vn -0.7063 0.7063 -0.0463
vn 0.7063 -0.7064 -0.0463
vn -0.7063 -0.7064 -0.0463
vn -0.7064 0.7063 0.0463
vn 0.7063 0.6943 0.1381
vn 0.9658 0.2544 0.0506
vn 0.7064 -0.6943 -0.1381
vn -0.7063 -0.6943 -0.1381
vn -0.7063 0.6943 0.1381
vn 0.7063 -0.6703 -0.2275
vn -0.7064 -0.6349 -0.3131
vn 0.7064 0.5886 0.3933
vn -0.7064 0.5322 0.4667
vn -0.7064 -0.4667 -0.5322
vn 0.7063 0.0463 0.7064
vn -0.7064 0.0463 0.7063
vn 0.7063 -0.0463 0.7064
vn 0.7063 0.0463 -0.7064
vn -0.7064 -0.0463 0.7063
vn -0.7064 -0.1381 0.6943
vn -0.7064 0.3933 -0.5886
vn -0.7064 0.5322 -0.4667
vn -0.7064 -0.5322 0.4667
vn -0.7064 0.5886 -0.3933
vn -0.7064 -0.5886 0.3933
vn -0.7064 0.6349 -0.3131
vn -0.7064 -0.6349 0.3131
vn -0.7063 -0.7064 0.0463
vn -0.7063 -0.7063 -0.0463
vn 0.7064 -0.6349 -0.3131
vn 0.7064 0.6349 0.3131
vn 0.7064 -0.5886 -0.3933
vn 0.7064 -0.4667 -0.5322
vn 0.7064 0.4667 0.5322
vn 0.7064 -0.3933 -0.5886
vn 0.7064 0.3933 0.5886
vn 0.7064 -0.3131 -0.6349
vn 0.7064 0.2275 0.6703
vn 0.7064 -0.0463 -0.7063
vn 1.0000 0.0002 -0.0000
vn 1.0000 0.0001 -0.0000
vn 1.0000 -0.0001 -0.0000
vn 1.0000 -0.0002 -0.0000
vn -1.0000 0.0003 -0.0000
vn -1.0000 0.0002 -0.0000
vn -1.0000 0.0001 -0.0000
vn -1.0000 -0.0001 -0.0000
vn -1.0000 -0.0002 -0.0000
vn -1.0000 -0.0003 -0.0000
s 0
usemtl hatch_yellow
f 2//1 3//1 1//1
f 4//2 7//2 3//2
f 8//3 5//3 7//3
f 6//4 1//4 5//4
f 7//5 1//5 3//5
f 4//6 6//6 8//6
f 2//1 4//1 3//1
f 4//2 8//2 7//2
f 8//3 6//3 5//3
f 6//4 2//4 1//4
f 7//5 5//5 1//5
f 4//6 2//6 6//6
usemtl gear_paint
f 10//1 11//1 9//1
f 12//2 15//2 11//2
f 16//3 13//3 15//3
f 14//4 9//4 13//4
f 15//5 9//5 11//5
f 12//6 14//6 16//6
f 10//1 12//1 11//1
f 12//2 16//2 15//2
f 16//3 14//3 13//3
f 14//4 10//4 9//4
f 15//5 13//5 9//5
f 12//6 10//6 14//6
usemtl alarm_red
f 29//7 18//7 17//7
f 18//8 31//8 19//8
f 31//9 20//9 19//9
f 32//10 21//10 20//10
f 21//11 34//11 22//11
f 22//12 35//12 23//12
f 23//13 36//13 24//13
f 36//14 25//14 24//14
f 37//15 26//15 25//15
f 38//16 27//16 26//16
f 39//17 28//17 27//17
f 40//18 17//18 28//18
f 41//19 30//19 29//19
f 42//20 31//20 30//20
f 31//21 44//21 32//21
f 32//22 45//22 33//22
f 45//23 34//23 33//23
f 34//24 47//24 35//24
f 47//25 36//25 35//25
f 36//26 49//26 37//26
f 49//27 38//27 37//27
f 50//28 39//28 38//28
f 51//29 40//29 39//29
f 52//30 29//30 40//30
f 53//31 42//31 41//31
f 54//32 43//32 42//32
f 55//33 44//33 43//33
f 44//34 57//34 45//34
f 57//35 46//35 45//35
f 46//36 59//36 47//36
f 59//37 48//37 47//37
f 48//38 61//38 49//38
f 61//39 50//39 49//39
f 50//40 63//40 51//40
f 63//41 52//41 51//41
f 52//42 53//42 41//42
f 65//43 54//43 53//43
f 66//44 55//44 54//44
f 67//45 56//45 55//45
f 68//46 57//46 56//46
f 69//47 58//47 57//47
f 70//48 59//48 58//48
f 71//49 60//49 59//49
f 60//50 73//50 61//50
f 73//51 62//51 61//51
f 62//52 75//52 63//52
f 75//53 64//53 63//53
f 64//54 65//54 53//54
f 65//55 78//55 66//55
f 66//56 79//56 67//56
f 79//57 68//57 67//57
f 80//58 69//58 68//58
f 81//59 70//59 69//59
f 70//60 83//60 71//60
f 83//61 72//61 71//61
f 72//62 85//62 73//62
f 73//63 86//63 74//63
f 86//64 75//64 74//64
f 75//65 88//65 76//65
f 88//66 65//66 76//66
f 89//67 78//67 77//67
f 90//68 79//68 78//68
f 79//69 92//69 80//69
f 92//70 81//70 80//70
f 81//71 94//71 82//71
f 94//72 83//72 82//72
f 95//73 84//73 83//73
f 96//74 85//74 84//74
f 85//75 98//75 86//75
f 98//76 87//76 86//76
f 87//77 100//77 88//77
f 88//78 89//78 77//78
f 89//79 102//79 90//79
f 90//80 103//80 91//80
f 103//81 92//81 91//81
f 104//82 93//82 92//82
f 93//83 106//83 94//83
f 106//84 95//84 94//84
f 95//85 108//85 96//85
f 108//86 97//86 96//86
f 97//87 110//87 98//87
f 110//88 99//88 98//88
f 99//89 112//89 100//89
f 112//90 89//90 100//90
f 101//91 114//91 102//91
f 102//92 115//92 103//92
f 115//93 104//93 103//93
f 104//94 117//94 105//94
f 105//95 118//95 106//95
f 118//96 107//96 106//96
f 107//97 120//97 108//97
f 120//98 109//98 108//98
f 121//99 110//99 109//99
f 110//100 123//100 111//100
f 111//101 124//101 112//101
f 112//102 113//102 101//102
f 125//103 114//103 113//103
f 114//104 127//104 115//104
f 115//105 128//105 116//105
f 128//106 117//106 116//106
f 129//107 118//107 117//107
f 118//108 131//108 119//108
f 131//109 120//109 119//109
f 120//110 133//110 121//110
f 121//111 134//111 122//111
f 134//112 123//112 122//112
f 123//113 136//113 124//113
f 136//114 113//114 124//114
f 125//115 138//115 126//115
f 138//116 127//116 126//116
f 139//117 128//117 127//117
f 140//118 129//118 128//118
f 141//119 130//119 129//119
f 142//120 131//120 130//120
f 143//121 132//121 131//121
f 144//122 133//122 132//122
f 133//123 146//123 134//123
f 146//124 135//124 134//124
f 135//125 148//125 136//125
f 136//126 137//126 125//126
f 149//127 138//127 137//127
f 150//128 139//128 138//128
f 151//129 140//129 139//129
f 152//130 141//130 140//130
f 141//131 154//131 142//131
f 142//132 155//132 143//132
f 155//133 144//133 143//133
f 156//134 145//134 144//134
f 145//135 158//135 146//135
f 158//136 147//136 146//136
f 159//137 148//137 147//137
f 160//138 137//138 148//138
f 161//139 150//139 149//139
f 162//140 151//140 150//140
f 151//141 164//141 152//141
f 152//142 165//142 153//142
f 165//143 154//143 153//143
f 166//144 155//144 154//144
f 155//145 168//145 156//145
f 168//146 157//146 156//146
f 169//147 158//147 157//147
f 170//148 159//148 158//148
f 171//149 160//149 159//149
f 172//150 149//150 160//150
f 161//151 174//151 162//151
f 174//152 163//152 162//152
f 175//153 164//153 163//153
f 176//154 165//154 164//154
f 177//155 166//155 165//155
f 166//156 179//156 167//156
f 179//157 168//157 167//157
f 168//158 181//158 169//158
f 181//159 170//159 169//159
f 182//160 171//160 170//160
f 171//161 184//161 172//161
f 172//162 173//162 161//162
f 185//163 174//163 173//163
f 174//164 187//164 175//164
f 187//165 176//165 175//165
f 176//166 189//166 177//166
f 177//167 190//167 178//167
f 178//168 191//168 179//168
f 179//169 192//169 180//169
f 180//170 193//170 181//170
f 181//171 194//171 182//171
f 194//172 183//172 182//172
f 195//173 184//173 183//173
f 184//174 185//174 173//174
f 197//175 186//175 185//175
f 186//176 199//176 187//176
f 199//177 188//177 187//177
f 200//178 189//178 188//178
f 201//179 190//179 189//179
f 202//180 191//180 190//180
f 203//181 192//181 191//181
f 192//182 205//182 193//182
f 205//183 194//183 193//183
f 206//184 195//184 194//184
f 207//185 196//185 195//185
f 208//186 185//186 196//186
f 197//187 210//187 198//187
f 210//188 199//188 198//188
f 199//189 212//189 200//189
f 200//190 213//190 201//190
f 201//191 214//191 202//191
f 214//192 203//192 202//192
f 215//193 204//193 203//193
f 216//194 205//194 204//194
f 217//195 206//195 205//195
f 218//196 207//196 206//196
f 219//197 208//197 207//197
f 220//198 197//198 208//198
f 221//199 210//199 209//199
f 222//200 211//200 210//200
f 223//201 212//201 211//201
f 224//202 213//202 212//202
f 213//203 226//203 214//203
f 214//204 227//204 215//204
f 227//205 216//205 215//205
f 216//206 229//206 217//206
f 217//207 230//207 218//207
f 230//208 219//208 218//208
f 231//209 220//209 219//209
f 232//210 209//210 220//210
f 221//211 234//211 222//211
f 222//212 235//212 223//212
f 235//213 224//213 223//213
f 224//214 237//214 225//214
f 237//215 226//215 225//215
f 238//216 227//216 226//216
f 239//217 228//217 227//217
f 228//218 241//218 229//218
f 229//219 242//219 230//219
f 242//220 231//220 230//220
f 231//221 244//221 232//221
f 244//222 221//222 232//222
f 245//223 234//223 233//223
f 234//224 247//224 235//224
f 247//225 236//225 235//225
f 248//226 237//226 236//226
f 249//227 238//227 237//227
f 238//228 251//228 239//228
f 239//229 252//229 240//229
f 252//230 241//230 240//230
f 253//231 242//231 241//231
f 242//232 255//232 243//232
f 243//233 256//233 244//233
f 256//234 233//234 244//234
f 245//235 258//235 246//235
f 258//236 247//236 246//236
f 259//237 248//237 247//237
f 248//238 261//238 249//238
f 261//239 250//239 249//239
f 250//240 263//240 251//240
f 263//241 252//241 251//241
f 264//242 253//242 252//242
f 265//243 254//243 253//243
f 254//244 267//244 255//244
f 255//245 268//245 256//245
f 268//246 245//246 256//246
f 257//247 270//247 258//247
f 270//248 259//248 258//248
f 271//249 260//249 259//249
f 260//250 273//250 261//250
f 273//251 262//251 261//251
f 262//252 275//252 263//252
f 263//253 276//253 264//253
f 264//254 277//254 265//254
f 277//255 266//255 265//255
f 266//256 279//256 267//256
f 279//257 268//257 267//257
f 280//258 257//258 268//258
f 269//259 282//259 270//259
f 270//260 283//260 271//260
f 283//261 272//261 271//261
f 284//262 273//262 272//262
f 273//263 286//263 274//263
f 274//264 287//264 275//264
f 287//265 276//265 275//265
f 288//266 277//266 276//266
f 289//267 278//267 277//267
f 290//268 279//268 278//268
f 291//269 280//269 279//269
f 280//270 281//270 269//270
f 293//271 282//271 281//271
f 282//272 295//272 283//272
f 295//273 284//273 283//273
f 296//274 285//274 284//274
f 297//275 286//275 285//275
f 286//276 299//276 287//276
f 287//277 300//277 288//277
f 288//278 301//278 289//278
f 301//279 290//279 289//279
f 302//280 291//280 290//280
f 291//281 304//281 292//281
f 304//282 281//282 292//282
f 293//283 306//283 294//283
f 306//284 295//284 294//284
f 307//285 296//285 295//285
f 296//286 309//286 297//286
f 309//287 298//287 297//287
f 298//288 311//288 299//288
f 299//289 312//289 300//289
f 312//290 301//290 300//290
f 313//291 302//291 301//291
f 314//292 303//292 302//292
f 315//293 304//293 303//293
f 316//294 293//294 304//294
f 305//12 318//12 306//12
f 318//11 307//11 306//11
f 319//10 308//10 307//10
f 320//9 309//9 308//9
f 321//295 310//295 309//295
f 322//7 311//7 310//7
f 323//18 312//18 311//18
f 324//296 313//296 312//296
f 325//16 314//16 313//16
f 326//15 315//15 314//15
f 327//14 316//14 315//14
f 316//13 317//13 305//13
f 317//24 330//24 318//24
f 330//297 319//297 318//297
f 319//22 332//22 320//22
f 320//21 333//21 321//21
f 321//20 334//20 322//20
f 334//19 323//19 322//19
f 335//30 324//30 323//30
f 336//298 325//298 324//298
f 337//28 326//28 325//28
f 338//27 327//27 326//27
f 339//26 328//26 327//26
f 328//25 329//25 317//25
f 341//36 330//36 329//36
f 330//299 343//299 331//299
f 343//34 332//34 331//34
f 344//33 333//33 332//33
f 345//32 334//32 333//32
f 334//31 347//31 335//31
f 335//42 348//42 336//42
f 336//300 349//300 337//300
f 349//40 338//40 337//40
f 338//39 351//39 339//39
f 351//38 340//38 339//38
f 352//37 329//37 340//37
f 341//48 354//48 342//48
f 354//301 343//301 342//301
f 355//46 344//46 343//46
f 356//45 345//45 344//45
f 357//44 346//44 345//44
f 346//43 359//43 347//43
f 359//54 348//54 347//54
f 348//302 361//302 349//302
f 349//52 362//52 350//52
f 362//51 351//51 350//51
f 363//303 352//303 351//303
f 352//49 353//49 341//49
f 365//60 354//60 353//60
f 366//304 355//304 354//304
f 367//58 356//58 355//58
f 356//57 369//57 357//57
f 357//305 370//305 358//305
f 358//55 371//55 359//55
f 371//66 360//66 359//66
f 372//65 361//65 360//65
f 373//64 362//64 361//64
f 374//63 363//63 362//63
f 375//306 364//306 363//306
f 376//61 353//61 364//61
f 365//72 378//72 366//72
f 378//71 367//71 366//71
f 379//70 368//70 367//70
f 380//69 369//69 368//69
f 369//68 382//68 370//68
f 382//67 371//67 370//67
f 383//78 372//78 371//78
f 384//77 373//77 372//77
f 373//76 386//76 374//76
f 386//75 375//75 374//75
f 387//307 376//307 375//307
f 376//73 377//73 365//73
f 389//84 378//84 377//84
f 390//83 379//83 378//83
f 391//82 380//82 379//82
f 380//81 393//81 381//81
f 393//308 382//308 381//308
f 394//79 383//79 382//79
f 395//90 384//90 383//90
f 396//89 385//89 384//89
f 385//88 398//88 386//88
f 398//87 387//87 386//87
f 387//86 400//86 388//86
f 400//85 377//85 388//85
f 401//96 390//96 389//96
f 390//95 403//95 391//95
f 391//94 404//94 392//94
f 392//93 405//93 393//93
f 405//309 394//309 393//309
f 394//91 407//91 395//91
f 407//102 396//102 395//102
f 408//101 397//101 396//101
f 409//100 398//100 397//100
f 410//99 399//99 398//99
f 399//98 412//98 400//98
f 412//97 389//97 400//97
f 413//108 402//108 401//108
f 402//310 415//310 403//310
f 415//106 404//106 403//106
f 416//105 405//105 404//105
f 417//311 406//311 405//311
f 406//103 419//103 407//103
f 407//114 420//114 408//114
f 420//113 409//113 408//113
f 421//112 410//112 409//112
f 410//111 423//111 411//111
f 411//110 424//110 412//110
f 424//109 401//109 412//109
f 425//120 414//120 413//120
f 426//312 415//312 414//312
f 415//118 428//118 416//118
f 428//117 417//117 416//117
f 417//116 430//116 418//116
f 418//115 431//115 419//115
f 431//126 420//126 419//126
f 432//125 421//125 420//125
f 433//124 422//124 421//124
f 434//123 423//123 422//123
f 435//313 424//313 423//313
f 424//121 425//121 413//121
f 437//132 426//132 425//132
f 438//131 427//131 426//131
f 427//130 440//130 428//130
f 440//314 429//314 428//314
f 441//315 430//315 429//315
f 430//127 443//127 431//127
f 431//138 444//138 432//138
f 444//137 433//137 432//137
f 445//316 434//316 433//316
f 446//135 435//135 434//135
f 435//134 448//134 436//134
f 436//133 437//133 425//133
f 449//144 438//144 437//144
f 438//317 451//317 439//317
f 439//142 452//142 440//142
f 452//141 441//141 440//141
f 453//318 442//318 441//318
f 454//139 443//139 442//139
f 443//150 456//150 444//150
f 456//319 445//319 444//319
f 445//148 458//148 446//148
f 458//147 447//147 446//147
f 459//320 448//320 447//320
f 460//145 437//145 448//145
f 449//156 462//156 450//156
f 450//155 463//155 451//155
f 463//154 452//154 451//154
f 464//153 453//153 452//153
f 465//321 454//321 453//321
f 454//151 467//151 455//151
f 467//162 456//162 455//162
f 456//322 469//322 457//322
f 469//160 458//160 457//160
f 458//159 471//159 459//159
f 471//158 460//158 459//158
f 460//157 461//157 449//157
f 473//168 462//168 461//168
f 462//167 475//167 463//167
f 463//323 476//323 464//323
f 464//165 477//165 465//165
f 477//164 466//164 465//164
f 478//163 467//163 466//163
f 479//174 468//174 467//174
f 468//173 481//173 469//173
f 481//324 470//324 469//324
f 482//171 471//171 470//171
f 483//170 472//170 471//170
f 484//169 461//169 472//169
f 473//180 486//180 474//180
f 474//179 487//179 475//179
f 487//178 476//178 475//178
f 488//177 477//177 476//177
f 477//325 490//325 478//325
f 478//175 491//175 479//175
f 479//186 492//186 480//186
f 492//326 481//326 480//326
f 493//184 482//184 481//184
f 482//183 495//183 483//183
f 495//327 484//327 483//327
f 496//181 473//181 484//181
f 485//192 498//192 486//192
f 498//191 487//191 486//191
f 499//190 488//190 487//190
f 488//189 501//189 489//189
f 489//188 502//188 490//188
f 502//187 491//187 490//187
f 503//198 492//198 491//198
f 504//328 493//328 492//328
f 505//196 494//196 493//196
f 494//195 507//195 495//195
f 507//194 496//194 495//194
f 496//193 497//193 485//193
f 509//204 498//204 497//204
f 510//203 499//203 498//203
f 499//202 512//202 500//202
f 512//201 501//201 500//201
f 501//200 514//200 502//200
f 502//199 515//199 503//199
f 503//210 516//210 504//210
f 504//329 517//329 505//329
f 517//208 506//208 505//208
f 518//207 507//207 506//207
f 519//330 508//330 507//330
f 508//205 509//205 497//205
f 509//216 522//216 510//216
f 510//331 523//331 511//331
f 511//214 524//214 512//214
f 512//213 525//213 513//213
f 525//212 514//212 513//212
f 526//211 515//211 514//211
f 527//222 516//222 515//222
f 528//221 517//221 516//221
f 529//220 518//220 517//220
f 530//219 519//219 518//219
f 531//332 520//332 519//332
f 532//217 509//217 520//217
f 533//228 522//228 521//228
f 534//227 523//227 522//227
f 535//226 524//226 523//226
f 536//225 525//225 524//225
f 537//224 526//224 525//224
f 526//223 539//223 527//223
f 539//234 528//234 527//234
f 540//333 529//333 528//333
f 541//232 530//232 529//232
f 530//231 543//231 531//231
f 531//230 544//230 532//230
f 544//229 521//229 532//229
f 533//240 546//240 534//240
f 546//239 535//239 534//239
f 547//238 536//238 535//238
f 548//237 537//237 536//237
f 537//236 550//236 538//236
f 550//235 539//235 538//235
f 539//246 552//246 540//246
f 552//334 541//334 540//334
f 553//244 542//244 541//244
f 542//243 555//243 543//243
f 555//335 544//335 543//335
f 544//241 545//241 533//241
f 557//252 546//252 545//252
f 558//251 547//251 546//251
f 547//250 560//250 548//250
f 548//249 561//249 549//249
f 561//336 550//336 549//336
f 550//247 563//247 551//247
f 551//258 564//258 552//258
f 564//337 553//337 552//337
f 553//256 566//256 554//256
f 566//255 555//255 554//255
f 555//338 568//338 556//338
f 568//253 545//253 556//253
f 557//264 570//264 558//264
f 558//339 571//339 559//339
f 571//262 560//262 559//262
f 572//261 561//261 560//261
f 573//260 562//260 561//260
f 562//259 575//259 563//259
f 575//270 564//270 563//270
f 576//269 565//269 564//269
f 577//268 566//268 565//268
f 578//267 567//267 566//267
f 579//340 568//340 567//340
f 580//265 557//265 568//265
f 581//276 570//276 569//276
f 570//341 583//341 571//341
f 583//274 572//274 571//274
f 572//273 585//273 573//273
f 573//342 586//342 574//342
f 586//271 575//271 574//271
f 587//282 576//282 575//282
f 588//343 577//343 576//343
f 589//280 578//280 577//280
f 590//279 579//279 578//279
f 591//344 580//344 579//344
f 592//277 569//277 580//277
f 17//288 582//288 581//288
f 18//287 583//287 582//287
f 19//286 584//286 583//286
f 20//285 585//285 584//285
f 21//284 586//284 585//284
f 22//283 587//283 586//283
f 23//294 588//294 587//294
f 24//345 589//345 588//345
f 589//292 26//292 590//292
f 26//291 591//291 590//291
f 27//346 592//346 591//346
f 592//289 17//289 581//289
f 722//1 723//1 721//1
f 724//2 727//2 723//2
f 728//3 725//3 727//3
f 726//4 721//4 725//4
f 727//5 721//5 723//5
f 724//6 726//6 728//6
f 730//1 731//1 729//1
f 732//411 735//411 731//411
f 735//3 734//3 733//3
f 734//412 729//412 733//412
f 735//413 729//413 731//413
f 732//414 734//414 736//414
f 738//1 739//1 737//1
f 740//415 743//415 739//415
f 744//3 741//3 743//3
f 742//416 737//416 741//416
f 743//417 737//417 739//417
f 740//418 742//418 744//418
f 29//7 30//7 18//7
f 18//295 30//295 31//295
f 31//9 32//9 20//9
f 32//10 33//10 21//10
f 21//11 33//11 34//11
f 22//12 34//12 35//12
f 23//13 35//13 36//13
f 36//419 37//419 25//419
f 37//15 38//15 26//15
f 38//16 39//16 27//16
f 39//17 40//17 28//17
f 40//18 29//18 17//18
f 41//19 42//19 30//19
f 42//20 43//20 31//20
f 31//21 43//21 44//21
f 32//22 44//22 45//22
f 45//297 46//297 34//297
f 34//24 46//24 47//24
f 47//25 48//25 36//25
f 36//26 48//26 49//26
f 49//27 50//27 38//27
f 50//28 51//28 39//28
f 51//29 52//29 40//29
f 52//30 41//30 29//30
f 53//31 54//31 42//31
f 54//32 55//32 43//32
f 55//33 56//33 44//33
f 44//34 56//34 57//34
f 57//35 58//35 46//35
f 46//36 58//36 59//36
f 59//37 60//37 48//37
f 48//38 60//38 61//38
f 61//39 62//39 50//39
f 50//40 62//40 63//40
f 63//41 64//41 52//41
f 52//42 64//42 53//42
f 65//43 66//43 54//43
f 66//420 67//420 55//420
f 67//45 68//45 56//45
f 68//46 69//46 57//46
f 69//301 70//301 58//301
f 70//48 71//48 59//48
f 71//49 72//49 60//49
f 60//50 72//50 73//50
f 73//51 74//51 62//51
f 62//52 74//52 75//52
f 75//53 76//53 64//53
f 64//54 76//54 65//54
f 65//55 77//55 78//55
f 66//305 78//305 79//305
f 79//57 80//57 68//57
f 80//58 81//58 69//58
f 81//304 82//304 70//304
f 70//60 82//60 83//60
f 83//61 84//61 72//61
f 72//62 84//62 85//62
f 73//63 85//63 86//63
f 86//64 87//64 75//64
f 75//65 87//65 88//65
f 88//66 77//66 65//66
f 89//67 90//67 78//67
f 90//421 91//421 79//421
f 79//69 91//69 92//69
f 92//70 93//70 81//70
f 81//71 93//71 94//71
f 94//72 95//72 83//72
f 95//73 96//73 84//73
f 96//74 97//74 85//74
f 85//75 97//75 98//75
f 98//76 99//76 87//76
f 87//77 99//77 100//77
f 88//78 100//78 89//78
f 89//79 101//79 102//79
f 90//308 102//308 103//308
f 103//81 104//81 92//81
f 104//82 105//82 93//82
f 93//422 105//422 106//422
f 106//84 107//84 95//84
f 95//85 107//85 108//85
f 108//86 109//86 97//86
f 97//87 109//87 110//87
f 110//88 111//88 99//88
f 99//89 111//89 112//89
f 112//90 101//90 89//90
f 101//91 113//91 114//91
f 102//309 114//309 115//309
f 115//93 116//93 104//93
f 104//94 116//94 117//94
f 105//423 117//423 118//423
f 118//96 119//96 107//96
f 107//97 119//97 120//97
f 120//98 121//98 109//98
f 121//99 122//99 110//99
f 110//100 122//100 123//100
f 111//101 123//101 124//101
f 112//102 124//102 113//102
f 125//103 126//103 114//103
f 114//311 126//311 127//311
f 115//105 127//105 128//105
f 128//106 129//106 117//106
f 129//310 130//310 118//310
f 118//108 130//108 131//108
f 131//109 132//109 120//109
f 120//110 132//110 133//110
f 121//111 133//111 134//111
f 134//112 135//112 123//112
f 123//113 135//113 136//113
f 136//114 125//114 113//114
f 125//115 137//115 138//115
f 138//424 139//424 127//424
f 139//117 140//117 128//117
f 140//118 141//118 129//118
f 141//312 142//312 130//312
f 142//120 143//120 131//120
f 143//121 144//121 132//121
f 144//313 145//313 133//313
f 133//123 145//123 146//123
f 146//124 147//124 135//124
f 135//425 147//425 148//425
f 136//126 148//126 137//126
f 149//127 150//127 138//127
f 150//315 151//315 139//315
f 151//314 152//314 140//314
f 152//426 153//426 141//426
f 141//427 153//427 154//427
f 142//132 154//132 155//132
f 155//133 156//133 144//133
f 156//428 157//428 145//428
f 145//429 157//429 158//429
f 158//316 159//316 147//316
f 159//430 160//430 148//430
f 160//138 149//138 137//138
f 161//139 162//139 150//139
f 162//318 163//318 151//318
f 151//141 163//141 164//141
f 152//142 164//142 165//142
f 165//317 166//317 154//317
f 166//144 167//144 155//144
f 155//145 167//145 168//145
f 168//146 169//146 157//146
f 169//147 170//147 158//147
f 170//148 171//148 159//148
f 171//431 172//431 160//431
f 172//150 161//150 149//150
f 161//151 173//151 174//151
f 174//321 175//321 163//321
f 175//153 176//153 164//153
f 176//154 177//154 165//154
f 177//432 178//432 166//432
f 166//156 178//156 179//156
f 179//157 180//157 168//157
f 168//433 180//433 181//433
f 181//159 182//159 170//159
f 182//160 183//160 171//160
f 171//434 183//434 184//434
f 172//162 184//162 173//162
f 185//163 186//163 174//163
f 174//435 186//435 187//435
f 187//436 188//436 176//436
f 176//323 188//323 189//323
f 177//437 189//437 190//437
f 178//168 190//168 191//168
f 179//169 191//169 192//169
f 180//438 192//438 193//438
f 181//171 193//171 194//171
f 194//172 195//172 183//172
f 195//439 196//439 184//439
f 184//174 196//174 185//174
f 197//175 198//175 186//175
f 186//325 198//325 199//325
f 199//177 200//177 188//177
f 200//178 201//178 189//178
f 201//440 202//440 190//440
f 202//180 203//180 191//180
f 203//181 204//181 192//181
f 192//182 204//182 205//182
f 205//183 206//183 194//183
f 206//184 207//184 195//184
f 207//326 208//326 196//326
f 208//186 197//186 185//186
f 197//187 209//187 210//187
f 210//188 211//188 199//188
f 199//189 211//189 212//189
f 200//190 212//190 213//190
f 201//191 213//191 214//191
f 214//192 215//192 203//192
f 215//193 216//193 204//193
f 216//441 217//441 205//441
f 217//195 218//195 206//195
f 218//196 219//196 207//196
f 219//328 220//328 208//328
f 220//198 209//198 197//198
f 221//199 222//199 210//199
f 222//442 223//442 211//442
f 223//201 224//201 212//201
f 224//202 225//202 213//202
f 213//203 225//203 226//203
f 214//204 226//204 227//204
f 227//205 228//205 216//205
f 216//330 228//330 229//330
f 217//207 229//207 230//207
f 230//208 231//208 219//208
f 231//329 232//329 220//329
f 232//210 221//210 209//210
f 221//211 233//211 234//211
f 222//212 234//212 235//212
f 235//213 236//213 224//213
f 224//214 236//214 237//214
f 237//215 238//215 226//215
f 238//216 239//216 227//216
f 239//217 240//217 228//217
f 228//332 240//332 241//332
f 229//219 241//219 242//219
f 242//220 243//220 231//220
f 231//443 243//443 244//443
f 244//222 233//222 221//222
f 245//223 246//223 234//223
f 234//224 246//224 247//224
f 247//225 248//225 236//225
f 248//226 249//226 237//226
f 249//227 250//227 238//227
f 238//228 250//228 251//228
f 239//229 251//229 252//229
f 252//444 253//444 241//444
f 253//231 254//231 242//231
f 242//232 254//232 255//232
f 243//233 255//233 256//233
f 256//234 245//234 233//234
f 245//235 257//235 258//235
f 258//236 259//236 247//236
f 259//237 260//237 248//237
f 248//238 260//238 261//238
f 261//239 262//239 250//239
f 250//240 262//240 263//240
f 263//241 264//241 252//241
f 264//335 265//335 253//335
f 265//243 266//243 254//243
f 254//244 266//244 267//244
f 255//334 267//334 268//334
f 268//246 257//246 245//246
f 257//247 269//247 270//247
f 270//248 271//248 259//248
f 271//249 272//249 260//249
f 260//250 272//250 273//250
f 273//251 274//251 262//251
f 262//252 274//252 275//252
f 263//253 275//253 276//253
f 264//338 276//338 277//338
f 277//255 278//255 266//255
f 266//256 278//256 279//256
f 279//337 280//337 268//337
f 280//258 269//258 257//258
f 269//259 281//259 282//259
f 270//260 282//260 283//260
f 283//261 284//261 272//261
f 284//262 285//262 273//262
f 273//263 285//263 286//263
f 274//264 286//264 287//264
f 287//265 288//265 276//265
f 288//266 289//266 277//266
f 289//267 290//267 278//267
f 290//268 291//268 279//268
f 291//269 292//269 280//269
f 280//270 292//270 281//270
f 293//271 294//271 282//271
f 282//272 294//272 295//272
f 295//273 296//273 284//273
f 296//274 297//274 285//274
f 297//275 298//275 286//275
f 286//276 298//276 299//276
f 287//277 299//277 300//277
f 288//278 300//278 301//278
f 301//279 302//279 290//279
f 302//280 303//280 291//280
f 291//343 303//343 304//343
f 304//282 293//282 281//282
f 293//283 305//283 306//283
f 306//445 307//445 295//445
f 307//285 308//285 296//285
f 296//286 308//286 309//286
f 309//287 310//287 298//287
f 298//288 310//288 311//288
f 299//289 311//289 312//289
f 312//346 313//346 301//346
f 313//291 314//291 302//291
f 314//292 315//292 303//292
f 315//446 316//446 304//446
f 316//294 305//294 293//294
f 305//12 317//12 318//12
f 318//447 319//447 307//447
f 319//10 320//10 308//10
f 320//9 321//9 309//9
f 321//448 322//448 310//448
f 322//7 323//7 311//7
f 323//18 324//18 312//18
f 324//296 325//296 313//296
f 325//16 326//16 314//16
f 326//15 327//15 315//15
f 327//449 328//449 316//449
f 316//13 328//13 317//13
f 317//24 329//24 330//24
f 330//297 331//297 319//297
f 319//22 331//22 332//22
f 320//21 332//21 333//21
f 321//20 333//20 334//20
f 334//19 335//19 323//19
f 335//30 336//30 324//30
f 336//298 337//298 325//298
f 337//28 338//28 326//28
f 338//27 339//27 327//27
f 339//450 340//450 328//450
f 328//25 340//25 329//25
f 341//36 342//36 330//36
f 330//299 342//299 343//299
f 343//34 344//34 332//34
f 344//33 345//33 333//33
f 345//32 346//32 334//32
f 334//31 346//31 347//31
f 335//42 347//42 348//42
f 336//300 348//300 349//300
f 349//40 350//40 338//40
f 338//39 350//39 351//39
f 351//38 352//38 340//38
f 352//37 341//37 329//37
f 341//48 353//48 354//48
f 354//301 355//301 343//301
f 355//46 356//46 344//46
f 356//45 357//45 345//45
f 357//44 358//44 346//44
f 346//43 358//43 359//43
f 359//54 360//54 348//54
f 348//53 360//53 361//53
f 349//52 361//52 362//52
f 362//51 363//51 351//51
f 363//50 364//50 352//50
f 352//49 364//49 353//49
f 365//60 366//60 354//60
f 366//304 367//304 355//304
f 367//58 368//58 356//58
f 356//57 368//57 369//57
f 357//305 369//305 370//305
f 358//55 370//55 371//55
f 371//66 372//66 360//66
f 372//451 373//451 361//451
f 373//64 374//64 362//64
f 374//63 375//63 363//63
f 375//62 376//62 364//62
f 376//61 365//61 353//61
f 365//72 377//72 378//72
f 378//71 379//71 367//71
f 379//70 380//70 368//70
f 380//69 381//69 369//69
f 369//68 381//68 382//68
f 382//67 383//67 371//67
f 383//78 384//78 372//78
f 384//77 385//77 373//77
f 373//76 385//76 386//76
f 386//75 387//75 375//75
f 387//307 388//307 376//307
f 376//73 388//73 377//73
f 389//84 390//84 378//84
f 390//83 391//83 379//83
f 391//82 392//82 380//82
f 380//81 392//81 393//81
f 393//308 394//308 382//308
f 394//79 395//79 383//79
f 395//90 396//90 384//90
f 396//452 397//452 385//452
f 385//88 397//88 398//88
f 398//87 399//87 387//87
f 387//453 399//453 400//453
f 400//85 389//85 377//85
f 401//96 402//96 390//96
f 390//95 402//95 403//95
f 391//94 403//94 404//94
f 392//93 404//93 405//93
f 405//309 406//309 394//309
f 394//91 406//91 407//91
f 407//102 408//102 396//102
f 408//454 409//454 397//454
f 409//100 410//100 398//100
f 410//99 411//99 399//99
f 399//455 411//455 412//455
f 412//97 401//97 389//97
f 413//108 414//108 402//108
f 402//310 414//310 415//310
f 415//106 416//106 404//106
f 416//105 417//105 405//105
f 417//311 418//311 406//311
f 406//103 418//103 419//103
f 407//114 419//114 420//114
f 420//456 421//456 409//456
f 421//112 422//112 410//112
f 410//111 422//111 423//111
f 411//457 423//457 424//457
f 424//109 413//109 401//109
f 425//120 426//120 414//120
f 426//119 427//119 415//119
f 415//118 427//118 428//118
f 428//117 429//117 417//117
f 417//424 429//424 430//424
f 418//115 430//115 431//115
f 431//126 432//126 420//126
f 432//425 433//425 421//425
f 433//124 434//124 422//124
f 434//123 435//123 423//123
f 435//122 436//122 424//122
f 424//121 436//121 425//121
f 437//132 438//132 426//132
f 438//427 439//427 427//427
f 427//426 439//426 440//426
f 440//129 441//129 429//129
f 441//128 442//128 430//128
f 430//127 442//127 443//127
f 431//138 443//138 444//138
f 444//430 445//430 433//430
f 445//136 446//136 434//136
f 446//135 447//135 435//135
f 435//428 447//428 448//428
f 436//133 448//133 437//133
f 449//144 450//144 438//144
f 438//143 450//143 451//143
f 439//142 451//142 452//142
f 452//141 453//141 441//141
f 453//140 454//140 442//140
f 454//139 455//139 443//139
f 443//150 455//150 456//150
f 456//149 457//149 445//149
f 445//148 457//148 458//148
f 458//147 459//147 447//147
f 459//458 460//458 448//458
f 460//145 449//145 437//145
f 449//156 461//156 462//156
f 450//432 462//432 463//432
f 463//154 464//154 452//154
f 464//153 465//153 453//153
f 465//152 466//152 454//152
f 454//151 466//151 467//151
f 467//162 468//162 456//162
f 456//322 468//322 469//322
f 469//160 470//160 458//160
f 458//159 470//159 471//159
f 471//459 472//459 460//459
f 460//157 472//157 461//157
f 473//168 474//168 462//168
f 462//167 474//167 475//167
f 463//166 475//166 476//166
f 464//436 476//436 477//436
f 477//435 478//435 466//435
f 478//163 479//163 467//163
f 479//174 480//174 468//174
f 468//439 480//439 481//439
f 481//172 482//172 470//172
f 482//171 483//171 471//171
f 483//170 484//170 472//170
f 484//169 473//169 461//169
f 473//180 485//180 486//180
f 474//440 486//440 487//440
f 487//178 488//178 476//178
f 488//177 489//177 477//177
f 477//176 489//176 490//176
f 478//175 490//175 491//175
f 479//186 491//186 492//186
f 492//326 493//326 481//326
f 493//184 494//184 482//184
f 482//183 494//183 495//183
f 495//182 496//182 484//182
f 496//181 485//181 473//181
f 485//192 497//192 498//192
f 498//460 499//460 487//460
f 499//190 500//190 488//190
f 488//189 500//189 501//189
f 489//461 501//461 502//461
f 502//187 503//187 491//187
f 503//198 504//198 492//198
f 504//328 505//328 493//328
f 505//196 506//196 494//196
f 494//195 506//195 507//195
f 507//194 508//194 496//194
f 496//193 508//193 497//193
f 509//204 510//204 498//204
f 510//462 511//462 499//462
f 499//202 511//202 512//202
f 512//201 513//201 501//201
f 501//442 513//442 514//442
f 502//199 514//199 515//199
f 503//210 515//210 516//210
f 504//329 516//329 517//329
f 517//208 518//208 506//208
f 518//207 519//207 507//207
f 519//330 520//330 508//330
f 508//205 520//205 509//205
f 509//216 521//216 522//216
f 510//215 522//215 523//215
f 511//214 523//214 524//214
f 512//213 524//213 525//213
f 525//212 526//212 514//212
f 526//211 527//211 515//211
f 527//222 528//222 516//222
f 528//221 529//221 517//221
f 529//220 530//220 518//220
f 530//219 531//219 519//219
f 531//332 532//332 520//332
f 532//217 521//217 509//217
f 533//228 534//228 522//228
f 534//463 535//463 523//463
f 535//226 536//226 524//226
f 536//225 537//225 525//225
f 537//464 538//464 526//464
f 526//223 538//223 539//223
f 539//234 540//234 528//234
f 540//333 541//333 529//333
f 541//232 542//232 530//232
f 530//231 542//231 543//231
f 531//230 543//230 544//230
f 544//229 533//229 521//229
f 533//240 545//240 546//240
f 546//465 547//465 535//465
f 547//238 548//238 536//238
f 548//237 549//237 537//237
f 537//466 549//466 550//466
f 550//235 551//235 539//235
f 539//246 551//246 552//246
f 552//334 553//334 541//334
f 553//244 554//244 542//244
f 542//243 554//243 555//243
f 555//335 556//335 544//335
f 544//241 556//241 545//241
f 557//252 558//252 546//252
f 558//467 559//467 547//467
f 547//250 559//250 560//250
f 548//249 560//249 561//249
f 561//248 562//248 550//248
f 550//247 562//247 563//247
f 551//258 563//258 564//258
f 564//337 565//337 553//337
f 553//256 565//256 566//256
f 566//255 567//255 555//255
f 555//338 567//338 568//338
f 568//253 557//253 545//253
f 557//264 569//264 570//264
f 558//263 570//263 571//263
f 571//262 572//262 560//262
f 572//261 573//261 561//261
f 573//468 574//468 562//468
f 562//259 574//259 575//259
f 575//270 576//270 564//270
f 576//269 577//269 565//269
f 577//268 578//268 566//268
f 578//267 579//267 567//267
f 579//340 580//340 568//340
f 580//265 569//265 557//265
f 581//276 582//276 570//276
f 570//275 582//275 583//275
f 583//274 584//274 572//274
f 572//273 584//273 585//273
f 573//272 585//272 586//272
f 586//271 587//271 575//271
f 587//282 588//282 576//282
f 588//343 589//343 577//343
f 589//280 590//280 578//280
f 590//279 591//279 579//279
f 591//344 592//344 580//344
f 592//277 581//277 569//277
f 17//288 18//288 582//288
f 18//469 19//469 583//469
f 19//286 20//286 584//286
f 20//285 21//285 585//285
f 21//284 22//284 586//284
f 22//283 23//283 587//283
f 23//294 24//294 588//294
f 24//293 25//293 589//293
f 589//292 25//292 26//292
f 26//291 27//291 591//291
f 27//346 28//346 592//346
f 592//289 28//289 17//289
f 722//1 724//1 723//1
f 724//2 728//2 727//2
f 728//3 726//3 725//3
f 726//4 722//4 721//4
f 727//5 725//5 721//5
f 724//6 722//6 726//6
f 730//1 732//1 731//1
f 732//411 736//411 735//411
f 735//3 736//3 734//3
f 734//412 730//412 729//412
f 735//413 733//413 729//413
f 732//414 730//414 734//414
f 738//1 740//1 739//1
f 740//415 744//415 743//415
f 744//3 742//3 741//3
f 742//416 738//416 737//416
f 743//417 741//417 737//417
f 740//418 738//418 742//418
usemtl pipe_steel
f 594//347 595//347 593//347
f 596//348 597//348 595//348
f 598//349 599//349 597//349
f 599//350 602//350 601//350
f 602//351 603//351 601//351
f 604//352 605//352 603//352
f 606//353 607//353 605//353
f 608//354 609//354 607//354
f 610//355 611//355 609//355
f 612//356 613//356 611//356
f 614//357 615//357 613//357
f 616//358 617//358 615//358
f 618//359 619//359 617//359
f 619//360 622//360 621//360
f 621//361 624//361 623//361
f 624//362 625//362 623//362
f 626//363 627//363 625//363
f 627//364 630//364 629//364
f 630//365 631//365 629//365
f 632//366 633//366 631//366
f 634//367 635//367 633//367
f 636//368 637//368 635//368
f 638//369 639//369 637//369
f 640//370 641//370 639//370
f 642//371 643//371 641//371
f 644//372 645//372 643//372
f 646//373 647//373 645//373
f 648//374 649//374 647//374
f 650//375 651//375 649//375
f 652//376 653//376 651//376
f 654//377 655//377 653//377
f 656//378 657//378 655//378
f 658//379 659//379 657//379
f 660//380 661//380 659//380
f 662//381 663//381 661//381
f 664//382 665//382 663//382
f 666//383 667//383 665//383
f 668//384 669//384 667//384
f 670//385 671//385 669//385
f 672//386 673//386 671//386
f 674//387 675//387 673//387
f 676//388 677//388 675//388
f 678//389 679//389 677//389
f 680//390 681//390 679//390
f 682//391 683//391 681//391
f 684//392 685//392 683//392
f 685//393 688//393 687//393
f 687//394 690//394 689//394
f 690//395 691//395 689//395
f 691//396 694//396 693//396
f 694//397 695//397 693//397
f 696//398 697//398 695//398
f 698//399 699//399 697//399
f 700//400 701//400 699//400
f 702//401 703//401 701//401
f 704//402 705//402 703//402
f 706//403 707//403 705//403
f 708//404 709//404 707//404
f 710//405 711//405 709//405
f 712//406 713//406 711//406
f 713//407 716//407 715//407
f 716//408 717//408 715//408
f 662//3 630//3 598//3
f 718//409 719//409 717//409
f 719//410 594//410 593//410
f 655//1 687//1 719//1
f 594//347 596//347 595//347
f 596//348 598//348 597//348
f 598//349 600//349 599//349
f 599//350 600//350 602//350
f 602//351 604//351 603//351
f 604//352 606//352 605//352
f 606//353 608//353 607//353
f 608//354 610//354 609//354
f 610//355 612//355 611//355
f 612//356 614//356 613//356
f 614//357 616//357 615//357
f 616//358 618//358 617//358
f 618//359 620//359 619//359
f 619//360 620//360 622//360
f 621//361 622//361 624//361
f 624//362 626//362 625//362
f 626//363 628//363 627//363
f 627//364 628//364 630//364
f 630//365 632//365 631//365
f 632//366 634//366 633//366
f 634//367 636//367 635//367
f 636//368 638//368 637//368
f 638//369 640//369 639//369
f 640//370 642//370 641//370
f 642//371 644//371 643//371
f 644//372 646//372 645//372
f 646//373 648//373 647//373
f 648//374 650//374 649//374
f 650//375 652//375 651//375
f 652//376 654//376 653//376
f 654//377 656//377 655//377
f 656//378 658//378 657//378
f 658//379 660//379 659//379
f 660//380 662//380 661//380
f 662//381 664//381 663//381
f 664//382 666//382 665//382
f 666//383 668//383 667//383
f 668//384 670//384 669//384
f 670//385 672//385 671//385
f 672//386 674//386 673//386
f 674//387 676//387 675//387
f 676//388 678//388 677//388
f 678//389 680//389 679//389
f 680//390 682//390 681//390
f 682//391 684//391 683//391
f 684//392 686//392 685//392
f 685//393 686//393 688//393
f 687//394 688//394 690//394
f 690//395 692//395 691//395
f 691//396 692//396 694//396
f 694//397 696//397 695//397
f 696//398 698//398 697//398
f 698//399 700//399 699//399
f 700//400 702//400 701//400
f 702//401 704//401 703//401
f 704//402 706//402 705//402
f 706//403 708//403 707//403
f 708//404 710//404 709//404
f 710//405 712//405 711//405
f 712//406 714//406 713//406
f 713//407 714//407 716//407
f 716//408 718//408 717//408
f 598//470 596//470 594//470
f 594//470 720//470 718//470
f 718//470 716//470 714//470
f 714//3 712//3 710//3
f 710//470 708//470 706//470
f 706//471 704//471 702//471
f 702//472 700//472 698//472
f 698//3 696//3 694//3
f 694//3 692//3 690//3
f 690//3 688//3 686//3
f 686//3 684//3 682//3
f 682//471 680//471 678//471
f 678//473 676//473 674//473
f 674//473 672//473 670//473
f 670//3 668//3 666//3
f 666//473 664//473 662//473
f 662//473 660//473 658//473
f 658//473 656//473 654//473
f 654//473 652//473 650//473
f 650//3 648//3 646//3
f 646//473 644//473 642//473
f 642//472 640//472 638//472
f 638//471 636//471 634//471
f 634//3 632//3 630//3
f 630//3 628//3 626//3
f 626//3 624//3 622//3
f 622//3 620//3 618//3
f 618//472 616//472 614//472
f 614//470 612//470 610//470
f 610//470 608//470 606//470
f 606//3 604//3 602//3
f 602//470 600//470 598//470
f 598//3 594//3 718//3
f 718//3 714//3 710//3
f 710//3 706//3 702//3
f 702//3 698//3 694//3
f 694//3 690//3 686//3
f 686//3 682//3 678//3
f 678//3 674//3 670//3
f 670//3 666//3 662//3
f 662//3 658//3 654//3
f 654//3 650//3 646//3
f 646//3 642//3 638//3
f 638//3 634//3 630//3
f 630//3 626//3 622//3
f 622//3 618//3 614//3
f 614//3 610//3 606//3
f 606//3 602//3 598//3
f 598//3 718//3 710//3
f 710//3 702//3 694//3
f 694//3 686//3 678//3
f 678//3 670//3 662//3
f 662//3 654//3 646//3
f 646//3 638//3 630//3
f 630//3 622//3 614//3
f 614//3 606//3 598//3
f 598//3 710//3 694//3
f 694//3 678//3 662//3
f 662//3 646//3 630//3
f 630//3 614//3 598//3
f 598//3 694//3 662//3
f 718//409 720//409 719//409
f 719//410 720//410 594//410
f 719//1 593//1 595//1
f 595//474 597//474 599//474
f 599//475 601//475 603//475
f 603//475 605//475 607//475
f 607//475 609//475 611//475
f 611//1 613//1 615//1
f 615//476 617//476 619//476
f 619//1 621//1 623//1
f 623//1 625//1 627//1
f 627//1 629//1 631//1
f 631//477 633//477 635//477
f 635//1 637//1 639//1
f 639//478 641//478 643//478
f 643//478 645//478 647//478
f 647//1 649//1 651//1
f 651//479 653//479 655//479
f 655//1 657//1 659//1
f 659//479 661//479 663//479
f 663//478 665//478 667//478
f 667//478 669//478 671//478
f 671//478 673//478 675//478
f 675//1 677//1 679//1
f 679//477 681//477 683//477
f 683//1 685//1 687//1
f 687//1 689//1 691//1
f 691//1 693//1 695//1
f 695//476 697//476 699//476
f 699//1 701//1 703//1
f 703//475 705//475 707//475
f 707//475 709//475 711//475
f 711//1 713//1 715//1
f 715//474 717//474 719//474
f 719//1 595//1 599//1
f 599//1 603//1 607//1
f 607//1 611//1 615//1
f 615//1 619//1 623//1
f 623//1 627//1 631//1
f 631//1 635//1 639//1
f 639//1 643//1 647//1
f 647//1 651//1 655//1
f 655//1 659//1 663//1
f 663//1 667//1 671//1
f 671//1 675//1 679//1
f 679//1 683//1 687//1
f 687//1 691//1 695//1
f 695//1 699//1 703//1
f 703//1 707//1 711//1
f 711//1 715//1 719//1
f 719//1 599//1 607//1
f 607//1 615//1 623//1
f 623//1 631//1 639//1
f 639//1 647//1 655//1
f 655//1 663//1 671//1
f 671//1 679//1 687//1
f 687//1 695//1 703//1
f 703//1 711//1 719//1
f 719//1 607//1 623//1
f 623//1 639//1 655//1
f 655//1 671//1 687//1
f 687//1 703//1 719//1
f 719//1 623//1 655//1
