# Blender 5.2.2 LTS
# www.blender.org
mtllib safety.mtl
o safety
v -1.200000 1.920000 1.200000
v -1.200000 1.920000 1.500000
v -1.200000 2.040000 1.200000
v -1.200000 2.040000 1.500000
v -0.800000 1.920000 1.200000
v -0.800000 1.920000 1.500000
v -0.800000 2.040000 1.200000
v -0.800000 2.040000 1.500000
v -1.070000 1.915000 1.330000
v -1.070000 1.915000 1.370000
v -1.070000 1.920000 1.330000
v -1.070000 1.920000 1.370000
v -0.930000 1.915000 1.330000
v -0.930000 1.915000 1.370000
v -0.930000 1.920000 1.330000
v -0.930000 1.920000 1.370000
v -1.020000 1.915000 1.280000
v -1.020000 1.915000 1.420000
v -1.020000 1.920000 1.280000
v -1.020000 1.920000 1.420000
v -0.980000 1.915000 1.280000
v -0.980000 1.915000 1.420000
v -0.980000 1.920000 1.280000
v -0.980000 1.920000 1.420000
v -0.170000 -2.040000 1.180000
v -0.170000 -2.040000 1.320000
v -0.170000 -1.960000 1.180000
v -0.170000 -1.960000 1.320000
v -0.030000 -2.040000 1.180000
v -0.030000 -2.040000 1.320000
v -0.030000 -1.960000 1.180000
v -0.030000 -1.960000 1.320000
v -0.100000 -1.920000 1.285000
v -0.100000 -1.960000 1.285000
v -0.095432 -1.920000 1.284701
v -0.095432 -1.960000 1.284701
v -0.090941 -1.920000 1.283807
v -0.090941 -1.960000 1.283807
v -0.086606 -1.920000 1.282336
v -0.086606 -1.960000 1.282336
v -0.082500 -1.920000 1.280311
v -0.082500 -1.960000 1.280311
v -0.078693 -1.920000 1.277767
v -0.078693 -1.960000 1.277767
v -0.075251 -1.920000 1.274749
v -0.075251 -1.960000 1.274749
v -0.072233 -1.920000 1.271307
v -0.072233 -1.960000 1.271307
v -0.069689 -1.920000 1.267500
v -0.069689 -1.960000 1.267500
v -0.067664 -1.920000 1.263394
v -0.067664 -1.960000 1.263394
v -0.066193 -1.920000 1.259059
v -0.066193 -1.960000 1.259059
v -0.065299 -1.920000 1.254568
v -0.065299 -1.960000 1.254568
v -0.065000 -1.920000 1.250000
v -0.065000 -1.960000 1.250000
v -0.065299 -1.920000 1.245432
v -0.065299 -1.960000 1.245432
v -0.066193 -1.920000 1.240941
v -0.066193 -1.960000 1.240941
v -0.067664 -1.920000 1.236606
v -0.067664 -1.960000 1.236606
v -0.069689 -1.920000 1.232500
v -0.069689 -1.960000 1.232500
v -0.072233 -1.920000 1.228693
v -0.072233 -1.960000 1.228693
v -0.075251 -1.920000 1.225251
v -0.075251 -1.960000 1.225251
v -0.078693 -1.920000 1.222233
v -0.078693 -1.960000 1.222233
v -0.082500 -1.920000 1.219689
v -0.082500 -1.960000 1.219689
v -0.086606 -1.920000 1.217664
v -0.086606 -1.960000 1.217664
v -0.090941 -1.920000 1.216193
v -0.090941 -1.960000 1.216193
v -0.095432 -1.920000 1.215299
v -0.095432 -1.960000 1.215299
v -0.100000 -1.920000 1.215000
v -0.100000 -1.960000 1.215000
v -0.104568 -1.920000 1.215299
v -0.104568 -1.960000 1.215299
v -0.109059 -1.920000 1.216193
v -0.109059 -1.960000 1.216193
v -0.113394 -1.920000 1.217664
v -0.113394 -1.960000 1.217664
v -0.117500 -1.920000 1.219689
v -0.117500 -1.960000 1.219689
v -0.121307 -1.920000 1.222233
v -0.121307 -1.960000 1.222233
v -0.124749 -1.920000 1.225251
v -0.124749 -1.960000 1.225251
v -0.127767 -1.920000 1.228693
v -0.127767 -1.960000 1.228693
v -0.130311 -1.920000 1.232500
v -0.130311 -1.960000 1.232500
v -0.132336 -1.920000 1.236606
v -0.132336 -1.960000 1.236606
v -0.133807 -1.920000 1.240941
v -0.133807 -1.960000 1.240941
v -0.134701 -1.920000 1.245432
v -0.134701 -1.960000 1.245432
v -0.135000 -1.920000 1.250000
v -0.135000 -1.960000 1.250000
v -0.134701 -1.920000 1.254568
v -0.134701 -1.960000 1.254568
v -0.133807 -1.920000 1.259059
v -0.133807 -1.960000 1.259059
v -0.132336 -1.920000 1.263394
v -0.132336 -1.960000 1.263394
v -0.130311 -1.920000 1.267500
v -0.130311 -1.960000 1.267500
v -0.127767 -1.920000 1.271307
v -0.127767 -1.960000 1.271307
v -0.124749 -1.920000 1.274749
v -0.124749 -1.960000 1.274749
v -0.121307 -1.920000 1.277767
v -0.121307 -1.960000 1.277767
v -0.117500 -1.920000 1.280311
v -0.117500 -1.960000 1.280311
v -0.113394 -1.920000 1.282336
v -0.113394 -1.960000 1.282336
v -0.109059 -1.920000 1.283807
v -0.109059 -1.960000 1.283807
v -0.104568 -1.920000 1.284701
v -0.104568 -1.960000 1.284701
vn -1.0000 -0.0000 -0.0000
vn -0.0000 1.0000 -0.0000
vn 1.0000 -0.0000 -0.0000
vn -0.0000 -1.0000 -0.0000
vn -0.0000 -0.0000 -1.0000
vn -0.0000 -0.0000 1.0000
vn 0.0654 -0.0000 0.9979
vn 0.1951 -0.0000 0.9808
vn 0.3214 -0.0000 0.9469
vn 0.4423 -0.0000 0.8969
vn 0.5556 -0.0000 0.8315
vn 0.6593 -0.0000 0.7518
vn 0.7518 -0.0000 0.6593
vn 0.8315 -0.0000 0.5556
vn 0.8969 -0.0000 0.4423
vn 0.9469 -0.0000 0.3214
vn 0.9808 -0.0000 0.1951
vn 0.9979 -0.0000 0.0654
vn 0.9979 -0.0000 -0.0654
vn 0.9808 -0.0000 -0.1951
vn 0.9469 -0.0000 -0.3214
vn 0.8969 -0.0000 -0.4423
vn 0.8315 -0.0000 -0.5556
vn 0.7518 -0.0000 -0.6593
vn 0.6593 -0.0000 -0.7518
vn 0.5556 -0.0000 -0.8315
vn 0.4423 -0.0000 -0.8969
vn 0.3214 -0.0000 -0.9469
vn 0.1951 -0.0000 -0.9808
vn 0.0654 -0.0000 -0.9979
vn -0.0654 -0.0000 -0.9979
vn -0.1951 -0.0000 -0.9808
vn -0.3214 -0.0000 -0.9469
vn -0.4423 -0.0000 -0.8969
vn -0.5556 -0.0000 -0.8315
vn -0.6593 -0.0000 -0.7518
vn -0.7518 -0.0000 -0.6593
vn -0.8315 -0.0000 -0.5556
vn -0.8969 -0.0000 -0.4423
vn -0.9469 -0.0000 -0.3214
vn -0.9808 -0.0000 -0.1951
vn -0.9979 -0.0000 -0.0654
vn -0.9979 -0.0000 0.0654
vn -0.9808 -0.0000 0.1951
vn -0.9469 -0.0000 0.3214
vn -0.8969 -0.0000 0.4423
vn -0.8315 -0.0000 0.5556
vn -0.7518 -0.0000 0.6593
vn -0.6593 -0.0000 0.7518
vn -0.5556 -0.0000 0.8315
vn -0.4423 -0.0000 0.8969
vn -0.3214 -0.0000 0.9469
vn -0.1951 -0.0000 0.9808
vn -0.0654 -0.0000 0.9979
vn -0.0000 -1.0000 -0.0014
vn -0.0000 -1.0000 -0.0007
vn -0.0000 -1.0000 0.0007
vn -0.0000 -1.0000 -0.0003
vn -0.0000 -1.0000 -0.0001
vn -0.0000 -1.0000 0.0002
vn -0.0000 -1.0000 0.0014
vn -0.0000 -1.0000 0.0003
vn -0.0000 -1.0000 0.0001
vn -0.0000 -1.0000 -0.0002
vn -0.0000 1.0000 -0.0003
vn -0.0000 1.0000 -0.0002
vn -0.0000 1.0000 0.0003
vn -0.0000 1.0000 0.0002
vn -0.0000 1.0000 0.0001
vn -0.0000 1.0000 -0.0001
s 0
usemtl led_green
f 2//1 3//1 1//1
f 4//2 7//2 3//2
f 8//3 5//3 7//3
f 6//4 1//4 5//4
f 7//5 1//5 3//5
f 4//6 6//6 8//6
f 2//1 4//1 3//1
f 4//2 8//2 7//2
f 8//3 6//3 5//3
f 6//4 2//4 1//4
f 7//5 5//5 1//5
f 4//6 2//6 6//6
usemtl bottle_white
f 10//1 11//1 9//1
f 12//2 15//2 11//2
f 16//3 13//3 15//3
f 14//4 9//4 13//4
f 15//5 9//5 11//5
f 12//6 14//6 16//6
f 18//1 19//1 17//1
f 20//2 23//2 19//2
f 24//3 21//3 23//3
f 22//4 17//4 21//4
f 23//5 17//5 19//5
f 20//6 22//6 24//6
f 10//1 12//1 11//1
f 12//2 16//2 15//2
f 16//3 14//3 13//3
f 14//4 10//4 9//4
f 15//5 13//5 9//5
f 12//6 10//6 14//6
f 18//1 20//1 19//1
f 20//2 24//2 23//2
f 24//3 22//3 21//3
f 22//4 18//4 17//4
f 23//5 21//5 17//5
f 20//6 18//6 22//6
usemtl hatch_yellow
f 26//1 27//1 25//1
f 28//2 31//2 27//2
f 32//3 29//3 31//3
f 30//4 25//4 29//4
f 31//5 25//5 27//5
f 28//6 30//6 32//6
f 26//1 28//1 27//1
f 28//2 32//2 31//2
f 32//3 30//3 29//3
f 30//4 26//4 25//4
f 31//5 29//5 25//5
f 28//6 26//6 30//6
usemtl alarm_red
f 34//7 35//7 33//7
f 36//8 37//8 35//8
f 38//9 39//9 37//9
f 40//10 41//10 39//10
f 42//11 43//11 41//11
f 44//12 45//12 43//12
f 46//13 47//13 45//13
f 48//14 49//14 47//14
f 50//15 51//15 49//15
f 52//16 53//16 51//16
f 54//17 55//17 53//17
f 56//18 57//18 55//18
f 58//19 59//19 57//19
f 60//20 61//20 59//20
f 62//21 63//21 61//21
f 64//22 65//22 63//22
f 66//23 67//23 65//23
f 68//24 69//24 67//24
f 70//25 71//25 69//25
f 72//26 73//26 71//26
f 74//27 75//27 73//27
f 76//28 77//28 75//28
f 78//29 79//29 77//29
f 80//30 81//30 79//30
f 82//31 83//31 81//31
f 84//32 85//32 83//32
f 86//33 87//33 85//33
f 88//34 89//34 87//34
f 90//35 91//35 89//35
f 92//36 93//36 91//36
f 94//37 95//37 93//37
f 96//38 97//38 95//38
f 98//39 99//39 97//39
f 100//40 101//40 99//40
f 101//41 104//41 103//41
f 104//42 105//42 103//42
f 106//43 107//43 105//43
f 108//44 109//44 107//44
f 110//45 111//45 109//45
f 112//46 113//46 111//46
f 114//47 115//47 113//47
f 116//48 117//48 115//48
f 118//49 119//49 117//49
f 120//50 121//50 119//50
f 122//51 123//51 121//51
f 124//52 125//52 123//52
f 102//4 70//4 38//4
f 126//53 127//53 125//53
f 128//54 33//54 127//54
f 63//2 95//2 127//2
f 34//7 36//7 35//7
f 36//8 38//8 37//8
f 38//9 40//9 39//9
f 40//10 42//10 41//10
f 42//11 44//11 43//11
f 44//12 46//12 45//12
f 46//13 48//13 47//13
f 48//14 50//14 49//14
f 50//15 52//15 51//15
f 52//16 54//16 53//16
f 54//17 56//17 55//17
f 56//18 58//18 57//18
f 58//19 60//19 59//19
f 60//20 62//20 61//20
f 62//21 64//21 63//21
f 64//22 66//22 65//22
f 66//23 68//23 67//23
f 68//24 70//24 69//24
f 70//25 72//25 71//25
f 72//26 74//26 73//26
f 74//27 76//27 75//27
f 76//28 78//28 77//28
f 78//29 80//29 79//29
f 80//30 82//30 81//30
f 82//31 84//31 83//31
f 84//32 86//32 85//32
f 86//33 88//33 87//33
f 88//34 90//34 89//34
f 90//35 92//35 91//35
f 92//36 94//36 93//36
f 94//37 96//37 95//37
f 96//38 98//38 97//38
f 98//39 100//39 99//39
f 100//40 102//40 101//40
f 101//41 102//41 104//41
f 104//42 106//42 105//42
f 106//43 108//43 107//43
f 108//44 110//44 109//44
f 110//45 112//45 111//45
f 112//46 114//46 113//46
f 114//47 116//47 115//47
f 116//48 118//48 117//48
f 118//49 120//49 119//49
f 120//50 122//50 121//50
f 122//51 124//51 123//51
f 124//52 126//52 125//52
f 38//55 36//55 34//55
f 34//55 128//55 126//55
f 126//4 124//4 122//4
f 122//56 120//56 118//56
f 118//57 116//57 114//57
f 114//58 112//58 110//58
f 110//59 108//59 106//59
f 106//60 104//60 102//60
f 102//4 100//4 98//4
f 98//56 96//56 94//56
f 94//57 92//57 90//57
f 90//4 88//4 86//4
f 86//61 84//61 82//61
f 82//61 80//61 78//61
f 78//4 76//4 74//4
f 74//57 72//57 70//57
f 70//56 68//56 66//56
f 66//62 64//62 62//62
f 62//63 60//63 58//63
f 58//64 56//64 54//64
f 54//4 52//4 50//4
f 50//57 48//57 46//57
f 46//56 44//56 42//56
f 42//4 40//4 38//4
f 38//4 34//4 126//4
f 126//60 122//60 118//60
f 118//64 114//64 110//64
f 110//4 106//4 102//4
f 102//60 98//60 94//60
f 94//58 90//58 86//58
f 86//4 82//4 78//4
f 78//64 74//64 70//64
f 70//60 66//60 62//60
f 62//4 58//4 54//4
f 54//64 50//64 46//64
f 46//62 42//62 38//62
f 38//63 126//63 118//63
f 118//4 110//4 102//4
f 102//4 94//4 86//4
f 86//59 78//59 70//59
f 70//4 62//4 54//4
f 54//4 46//4 38//4
f 38//4 118//4 102//4
f 102//4 86//4 70//4
f 70//4 54//4 38//4
f 126//53 128//53 127//53
f 128//54 34//54 33//54
f 127//2 33//2 35//2
f 35//2 37//2 39//2
f 39//2 41//2 43//2
f 43//2 45//2 47//2
f 47//2 49//2 51//2
f 51//2 53//2 55//2
f 55//2 57//2 59//2
f 59//2 61//2 63//2
f 63//2 65//2 67//2
f 67//2 69//2 71//2
f 71//2 73//2 75//2
f 75//2 77//2 79//2
f 79//2 81//2 83//2
f 83//2 85//2 87//2
f 87//2 89//2 91//2
f 91//2 93//2 95//2
f 95//2 97//2 99//2
f 99//2 101//2 103//2
f 103//2 105//2 107//2
f 107//2 109//2 111//2
f 111//2 113//2 115//2
f 115//2 117//2 119//2
f 119//2 121//2 123//2
f 123//2 125//2 127//2
f 127//65 35//65 39//65
f 39//2 43//2 47//2
f 47//2 51//2 55//2
f 55//2 59//2 63//2
f 63//66 67//66 71//66
f 71//65 75//65 79//65
f 79//67 83//67 87//67
f 87//2 91//2 95//2
f 95//2 99//2 103//2
f 103//2 107//2 111//2
f 111//68 115//68 119//68
f 119//67 123//67 127//67
f 127//2 39//2 47//2
f 47//2 55//2 63//2
f 63//69 71//69 79//69
f 79//2 87//2 95//2
f 95//2 103//2 111//2
f 111//70 119//70 127//70
f 127//2 47//2 63//2
f 63//2 79//2 95//2
f 95//2 111//2 127//2
