# Blender 5.2.2 LTS
# www.blender.org
mtllib shrink_disc_bolts_loose.mtl
o shrink_disc_bolts_loose
v -5.500000 -0.048702 0.414829
v -5.486000 -0.048702 0.414829
v -5.500000 -0.057202 0.400107
v -5.486000 -0.057202 0.400107
v -5.500000 -0.074202 0.400107
v -5.486000 -0.074202 0.400107
v -5.500000 -0.082702 0.414829
v -5.486000 -0.082702 0.414829
v -5.500000 -0.074202 0.429552
v -5.486000 -0.074202 0.429552
v -5.500000 -0.057202 0.429552
v -5.486000 -0.057202 0.429552
v -5.486000 -0.066632 0.401520
v -5.486000 -0.070699 0.427200
v -5.486000 -0.060706 0.402458
v -5.486000 -0.064773 0.428138
v -5.484000 -0.066632 0.401520
v -5.484000 -0.070699 0.427200
v -5.484000 -0.060706 0.402458
v -5.484000 -0.064773 0.428138
v -5.500000 -0.071794 0.434114
v -5.500000 -0.078052 0.473621
v -5.500000 -0.065868 0.435052
v -5.500000 -0.072125 0.474560
v -5.498000 -0.071794 0.434114
v -5.498000 -0.078052 0.473621
v -5.498000 -0.065868 0.435052
v -5.498000 -0.072125 0.474560
v -5.500000 -0.173676 0.374223
v -5.486000 -0.173676 0.374223
v -5.500000 -0.182176 0.359500
v -5.486000 -0.182176 0.359500
v -5.500000 -0.199176 0.359500
v -5.486000 -0.199176 0.359500
v -5.500000 -0.207676 0.374223
v -5.486000 -0.207676 0.374223
v -5.500000 -0.199176 0.388945
v -5.486000 -0.199176 0.388945
v -5.500000 -0.182176 0.388945
v -5.486000 -0.182176 0.388945
v -5.486000 -0.187447 0.361278
v -5.486000 -0.199251 0.384444
v -5.486000 -0.182101 0.364002
v -5.486000 -0.193905 0.387168
v -5.484000 -0.187447 0.361278
v -5.484000 -0.199251 0.384444
v -5.484000 -0.182101 0.364002
v -5.484000 -0.193905 0.387168
v -5.500000 -0.202429 0.390681
v -5.500000 -0.220588 0.426321
v -5.500000 -0.197083 0.393405
v -5.500000 -0.215242 0.429045
v -5.498000 -0.202429 0.390681
v -5.498000 -0.220588 0.426321
v -5.498000 -0.197083 0.393405
v -5.498000 -0.215242 0.429045
v -5.500000 -0.279985 0.296985
v -5.486000 -0.279985 0.296985
v -5.500000 -0.288485 0.282262
v -5.486000 -0.288485 0.282262
v -5.500000 -0.305485 0.282262
v -5.486000 -0.305485 0.282262
v -5.500000 -0.313985 0.296985
v -5.486000 -0.313985 0.296985
v -5.500000 -0.305485 0.311707
v -5.486000 -0.305485 0.311707
v -5.500000 -0.288485 0.311707
v -5.486000 -0.288485 0.311707
v -5.486000 -0.289914 0.285671
v -5.486000 -0.308299 0.304056
v -5.486000 -0.285671 0.289914
v -5.486000 -0.304056 0.308299
v -5.484000 -0.289914 0.285671
v -5.484000 -0.308299 0.304056
v -5.484000 -0.285671 0.289914
v -5.484000 -0.304056 0.308299
v -5.500000 -0.313248 0.309006
v -5.500000 -0.341533 0.337290
v -5.500000 -0.309006 0.313248
v -5.500000 -0.337290 0.341533
v -5.498000 -0.313248 0.309006
v -5.498000 -0.341533 0.337290
v -5.498000 -0.309006 0.313248
v -5.498000 -0.337290 0.341533
v -5.500000 -0.357223 0.190676
v -5.486000 -0.357223 0.190676
v -5.500000 -0.365723 0.175954
v -5.486000 -0.365723 0.175954
v -5.500000 -0.382723 0.175954
v -5.486000 -0.382723 0.175954
v -5.500000 -0.391223 0.190676
v -5.486000 -0.391223 0.190676
v -5.500000 -0.382723 0.205398
v -5.486000 -0.382723 0.205398
v -5.500000 -0.365723 0.205398
v -5.486000 -0.365723 0.205398
v -5.486000 -0.364002 0.182101
v -5.486000 -0.387168 0.193905
v -5.486000 -0.361278 0.187447
v -5.486000 -0.384444 0.199251
v -5.484000 -0.364002 0.182101
v -5.484000 -0.387168 0.193905
v -5.484000 -0.361278 0.187447
v -5.484000 -0.384444 0.199251
v -5.500000 -0.393405 0.197083
v -5.500000 -0.429045 0.215242
v -5.500000 -0.390681 0.202429
v -5.500000 -0.426321 0.220588
v -5.498000 -0.393405 0.197083
v -5.498000 -0.429045 0.215242
v -5.498000 -0.390681 0.202429
v -5.498000 -0.426321 0.220588
v -5.500000 -0.397829 0.065702
v -5.486000 -0.397829 0.065702
v -5.500000 -0.406329 0.050980
v -5.486000 -0.406329 0.050980
v -5.500000 -0.423329 0.050980
v -5.486000 -0.423329 0.050980
v -5.500000 -0.431829 0.065702
v -5.486000 -0.431829 0.065702
v -5.500000 -0.423329 0.080425
v -5.486000 -0.423329 0.080425
v -5.500000 -0.406329 0.080425
v -5.486000 -0.406329 0.080425
v -5.486000 -0.402458 0.060706
v -5.486000 -0.428138 0.064773
v -5.486000 -0.401520 0.066632
v -5.486000 -0.427200 0.070699
v -5.484000 -0.402458 0.060706
v -5.484000 -0.428138 0.064773
v -5.484000 -0.401520 0.066632
v -5.484000 -0.427200 0.070699
v -5.500000 -0.435052 0.065868
v -5.500000 -0.474560 0.072125
v -5.500000 -0.434114 0.071794
v -5.500000 -0.473621 0.078052
v -5.498000 -0.435052 0.065868
v -5.498000 -0.474560 0.072125
v -5.498000 -0.434114 0.071794
v -5.498000 -0.473621 0.078052
v -5.500000 -0.397829 -0.065702
v -5.486000 -0.397829 -0.065702
v -5.500000 -0.406329 -0.080425
v -5.486000 -0.406329 -0.080425
v -5.500000 -0.423329 -0.080425
v -5.486000 -0.423329 -0.080425
v -5.500000 -0.431829 -0.065702
v -5.486000 -0.431829 -0.065702
v -5.500000 -0.423329 -0.050980
v -5.486000 -0.423329 -0.050980
v -5.500000 -0.406329 -0.050980
v -5.486000 -0.406329 -0.050980
v -5.486000 -0.401520 -0.066632
v -5.486000 -0.427200 -0.070699
v -5.486000 -0.402458 -0.060706
v -5.486000 -0.428138 -0.064773
v -5.484000 -0.401520 -0.066632
v -5.484000 -0.427200 -0.070699
v -5.484000 -0.402458 -0.060706
v -5.484000 -0.428138 -0.064773
v -5.500000 -0.434114 -0.071794
v -5.500000 -0.473621 -0.078052
v -5.500000 -0.435052 -0.065868
v -5.500000 -0.474560 -0.072125
v -5.498000 -0.434114 -0.071794
v -5.498000 -0.473621 -0.078052
v -5.498000 -0.435052 -0.065868
v -5.498000 -0.474560 -0.072125
v -5.478000 -0.357223 -0.190676
v -5.464000 -0.357223 -0.190676
v -5.478000 -0.365723 -0.205398
v -5.464000 -0.365723 -0.205398
v -5.478000 -0.382723 -0.205398
v -5.464000 -0.382723 -0.205398
v -5.478000 -0.391223 -0.190676
v -5.464000 -0.391223 -0.190676
v -5.478000 -0.382723 -0.175954
v -5.464000 -0.382723 -0.175954
v -5.478000 -0.365723 -0.175954
v -5.464000 -0.365723 -0.175954
v -5.500000 -0.363223 -0.190676
v -5.478000 -0.363223 -0.190676
v -5.500000 -0.364696 -0.196176
v -5.478000 -0.364696 -0.196176
v -5.500000 -0.368723 -0.200202
v -5.478000 -0.368723 -0.200202
v -5.500000 -0.374223 -0.201676
v -5.478000 -0.374223 -0.201676
v -5.500000 -0.379723 -0.200202
v -5.478000 -0.379723 -0.200202
v -5.500000 -0.383749 -0.196176
v -5.478000 -0.383749 -0.196176
v -5.500000 -0.385223 -0.190676
v -5.478000 -0.385223 -0.190676
v -5.500000 -0.383749 -0.185176
v -5.478000 -0.383749 -0.185176
v -5.500000 -0.379723 -0.181150
v -5.478000 -0.379723 -0.181150
v -5.500000 -0.374223 -0.179676
v -5.478000 -0.374223 -0.179676
v -5.500000 -0.368723 -0.181150
v -5.478000 -0.368723 -0.181150
v -5.500000 -0.364696 -0.185176
v -5.478000 -0.364696 -0.185176
v -5.464000 -0.366402 -0.179867
v -5.464000 -0.376516 -0.203819
v -5.464000 -0.371929 -0.177533
v -5.464000 -0.382044 -0.201485
v -5.462000 -0.366402 -0.179867
v -5.462000 -0.376516 -0.203819
v -5.462000 -0.371929 -0.177533
v -5.462000 -0.382044 -0.201485
v -5.500000 -0.390681 -0.202429
v -5.500000 -0.426321 -0.220589
v -5.500000 -0.393405 -0.197083
v -5.500000 -0.429045 -0.215242
v -5.498000 -0.390681 -0.202429
v -5.498000 -0.426321 -0.220589
v -5.498000 -0.393405 -0.197083
v -5.498000 -0.429045 -0.215242
v -5.500000 -0.279985 -0.296985
v -5.486000 -0.279985 -0.296985
v -5.500000 -0.288485 -0.311707
v -5.486000 -0.288485 -0.311707
v -5.500000 -0.305485 -0.311707
v -5.486000 -0.305485 -0.311707
v -5.500000 -0.313985 -0.296985
v -5.486000 -0.313985 -0.296985
v -5.500000 -0.305485 -0.282262
v -5.486000 -0.305485 -0.282262
v -5.500000 -0.288485 -0.282262
v -5.486000 -0.288485 -0.282262
v -5.486000 -0.285671 -0.289914
v -5.486000 -0.304056 -0.308299
v -5.486000 -0.289914 -0.285671
v -5.486000 -0.308299 -0.304056
v -5.484000 -0.285671 -0.289914
v -5.484000 -0.304056 -0.308299
v -5.484000 -0.289914 -0.285671
v -5.484000 -0.308299 -0.304056
v -5.500000 -0.309006 -0.313248
v -5.500000 -0.337290 -0.341533
v -5.500000 -0.313248 -0.309006
v -5.500000 -0.341533 -0.337290
v -5.498000 -0.309006 -0.313248
v -5.498000 -0.337290 -0.341533
v -5.498000 -0.313248 -0.309006
v -5.498000 -0.341533 -0.337290
v -5.500000 -0.173676 -0.374223
v -5.486000 -0.173676 -0.374223
v -5.500000 -0.182176 -0.388945
v -5.486000 -0.182176 -0.388945
v -5.500000 -0.199176 -0.388945
v -5.486000 -0.199176 -0.388945
v -5.500000 -0.207676 -0.374223
v -5.486000 -0.207676 -0.374223
v -5.500000 -0.199176 -0.359500
v -5.486000 -0.199176 -0.359500
v -5.500000 -0.182176 -0.359500
v -5.486000 -0.182176 -0.359500
v -5.486000 -0.182101 -0.364002
v -5.486000 -0.193905 -0.387168
v -5.486000 -0.187447 -0.361278
v -5.486000 -0.199251 -0.384444
v -5.484000 -0.182101 -0.364002
v -5.484000 -0.193905 -0.387168
v -5.484000 -0.187447 -0.361278
v -5.484000 -0.199251 -0.384444
v -5.500000 -0.197083 -0.393405
v -5.500000 -0.215242 -0.429045
v -5.500000 -0.202429 -0.390681
v -5.500000 -0.220589 -0.426321
v -5.498000 -0.197083 -0.393405
v -5.498000 -0.215242 -0.429045
v -5.498000 -0.202429 -0.390681
v -5.498000 -0.220589 -0.426321
v -5.500000 -0.048702 -0.414829
v -5.486000 -0.048702 -0.414829
v -5.500000 -0.057202 -0.429552
v -5.486000 -0.057202 -0.429552
v -5.500000 -0.074202 -0.429552
v -5.486000 -0.074202 -0.429552
v -5.500000 -0.082702 -0.414829
v -5.486000 -0.082702 -0.414829
v -5.500000 -0.074202 -0.400107
v -5.486000 -0.074202 -0.400107
v -5.500000 -0.057202 -0.400107
v -5.486000 -0.057202 -0.400107
v -5.486000 -0.060706 -0.402458
v -5.486000 -0.064773 -0.428138
v -5.486000 -0.066632 -0.401520
v -5.486000 -0.070699 -0.427200
v -5.484000 -0.060706 -0.402458
v -5.484000 -0.064773 -0.428138
v -5.484000 -0.066632 -0.401520
v -5.484000 -0.070699 -0.427200
v -5.500000 -0.065868 -0.435052
v -5.500000 -0.072125 -0.474560
v -5.500000 -0.071794 -0.434114
v -5.500000 -0.078052 -0.473621
v -5.498000 -0.065868 -0.435052
v -5.498000 -0.072125 -0.474560
v -5.498000 -0.071794 -0.434114
v -5.498000 -0.078052 -0.473621
v -5.500000 0.082702 -0.414829
v -5.486000 0.082702 -0.414829
v -5.500000 0.074202 -0.429552
v -5.486000 0.074202 -0.429552
v -5.500000 0.057202 -0.429552
v -5.486000 0.057202 -0.429552
v -5.500000 0.048702 -0.414829
v -5.486000 0.048702 -0.414829
v -5.500000 0.057202 -0.400107
v -5.486000 0.057202 -0.400107
v -5.500000 0.074202 -0.400107
v -5.486000 0.074202 -0.400107
v -5.486000 0.066632 -0.401520
v -5.486000 0.070699 -0.427200
v -5.486000 0.060706 -0.402458
v -5.486000 0.064773 -0.428138
v -5.484000 0.066632 -0.401520
v -5.484000 0.070699 -0.427200
v -5.484000 0.060706 -0.402458
v -5.484000 0.064773 -0.428138
v -5.500000 0.071794 -0.434114
v -5.500000 0.078052 -0.473621
v -5.500000 0.065868 -0.435052
v -5.500000 0.072125 -0.474560
v -5.498000 0.071794 -0.434114
v -5.498000 0.078052 -0.473621
v -5.498000 0.065868 -0.435052
v -5.498000 0.072125 -0.474560
v -5.500000 0.207676 -0.374223
v -5.486000 0.207676 -0.374223
v -5.500000 0.199176 -0.388945
v -5.486000 0.199176 -0.388945
v -5.500000 0.182176 -0.388945
v -5.486000 0.182176 -0.388945
v -5.500000 0.173676 -0.374223
v -5.486000 0.173676 -0.374223
v -5.500000 0.182176 -0.359500
v -5.486000 0.182176 -0.359500
v -5.500000 0.199176 -0.359500
v -5.486000 0.199176 -0.359500
v -5.486000 0.187447 -0.361278
v -5.486000 0.199251 -0.384444
v -5.486000 0.182101 -0.364002
v -5.486000 0.193905 -0.387168
v -5.484000 0.187447 -0.361278
v -5.484000 0.199251 -0.384444
v -5.484000 0.182101 -0.364002
v -5.484000 0.193905 -0.387168
v -5.500000 0.202429 -0.390681
v -5.500000 0.220589 -0.426321
v -5.500000 0.197083 -0.393405
v -5.500000 0.215242 -0.429045
v -5.498000 0.202429 -0.390681
v -5.498000 0.220589 -0.426321
v -5.498000 0.197083 -0.393405
v -5.498000 0.215242 -0.429045
v -5.500000 0.313985 -0.296985
v -5.486000 0.313985 -0.296985
v -5.500000 0.305485 -0.311707
v -5.486000 0.305485 -0.311707
v -5.500000 0.288485 -0.311707
v -5.486000 0.288485 -0.311707
v -5.500000 0.279985 -0.296985
v -5.486000 0.279985 -0.296985
v -5.500000 0.288485 -0.282262
v -5.486000 0.288485 -0.282262
v -5.500000 0.305485 -0.282262
v -5.486000 0.305485 -0.282262
v -5.486000 0.289914 -0.285671
v -5.486000 0.308299 -0.304056
v -5.486000 0.285671 -0.289914
v -5.486000 0.304056 -0.308299
v -5.484000 0.289914 -0.285671
v -5.484000 0.308299 -0.304056
v -5.484000 0.285671 -0.289914
v -5.484000 0.304056 -0.308299
v -5.500000 0.313248 -0.309006
v -5.500000 0.341533 -0.337290
v -5.500000 0.309006 -0.313248
v -5.500000 0.337290 -0.341533
v -5.498000 0.313248 -0.309006
v -5.498000 0.341533 -0.337290
v -5.498000 0.309006 -0.313248
v -5.498000 0.337290 -0.341533
v -5.500000 0.391223 -0.190676
v -5.486000 0.391223 -0.190676
v -5.500000 0.382723 -0.205398
v -5.486000 0.382723 -0.205398
v -5.500000 0.365723 -0.205398
v -5.486000 0.365723 -0.205398
v -5.500000 0.357223 -0.190676
v -5.486000 0.357223 -0.190676
v -5.500000 0.365723 -0.175954
v -5.486000 0.365723 -0.175954
v -5.500000 0.382723 -0.175954
v -5.486000 0.382723 -0.175954
v -5.486000 0.364002 -0.182101
v -5.486000 0.387168 -0.193905
v -5.486000 0.361278 -0.187447
v -5.486000 0.384444 -0.199251
v -5.484000 0.364002 -0.182101
v -5.484000 0.387168 -0.193905
v -5.484000 0.361278 -0.187447
v -5.484000 0.384444 -0.199251
v -5.500000 0.393405 -0.197083
v -5.500000 0.429045 -0.215243
v -5.500000 0.390681 -0.202429
v -5.500000 0.426321 -0.220589
v -5.498000 0.393405 -0.197083
v -5.498000 0.429045 -0.215243
v -5.498000 0.390681 -0.202429
v -5.498000 0.426321 -0.220589
v -5.500000 0.431829 -0.065702
v -5.486000 0.431829 -0.065702
v -5.500000 0.423329 -0.080425
v -5.486000 0.423329 -0.080425
v -5.500000 0.406329 -0.080425
v -5.486000 0.406329 -0.080425
v -5.500000 0.397829 -0.065702
v -5.486000 0.397829 -0.065702
v -5.500000 0.406329 -0.050980
v -5.486000 0.406329 -0.050980
v -5.500000 0.423329 -0.050980
v -5.486000 0.423329 -0.050980
v -5.486000 0.402459 -0.060706
v -5.486000 0.428138 -0.064773
v -5.486000 0.401520 -0.066632
v -5.486000 0.427200 -0.070699
v -5.484000 0.402459 -0.060706
v -5.484000 0.428138 -0.064773
v -5.484000 0.401520 -0.066632
v -5.484000 0.427200 -0.070699
v -5.500000 0.435052 -0.065868
v -5.500000 0.474560 -0.072126
v -5.500000 0.434114 -0.071794
v -5.500000 0.473621 -0.078052
v -5.498000 0.435052 -0.065868
v -5.498000 0.474560 -0.072126
v -5.498000 0.434114 -0.071794
v -5.498000 0.473621 -0.078052
v -5.500000 0.431829 0.065702
v -5.486000 0.431829 0.065702
v -5.500000 0.423329 0.050980
v -5.486000 0.423329 0.050980
v -5.500000 0.406329 0.050980
v -5.486000 0.406329 0.050980
v -5.500000 0.397829 0.065702
v -5.486000 0.397829 0.065702
v -5.500000 0.406329 0.080425
v -5.486000 0.406329 0.080425
v -5.500000 0.423329 0.080425
v -5.486000 0.423329 0.080425
v -5.486000 0.401520 0.066632
v -5.486000 0.427200 0.070699
v -5.486000 0.402459 0.060706
v -5.486000 0.428138 0.064773
v -5.484000 0.401520 0.066632
v -5.484000 0.427200 0.070699
v -5.484000 0.402459 0.060706
v -5.484000 0.428138 0.064773
v -5.500000 0.434114 0.071794
v -5.500000 0.473621 0.078052
v -5.500000 0.435052 0.065868
v -5.500000 0.474560 0.072126
v -5.498000 0.434114 0.071794
v -5.498000 0.473621 0.078052
v -5.498000 0.435052 0.065868
v -5.498000 0.474560 0.072126
v -5.500000 0.391223 0.190676
v -5.486000 0.391223 0.190676
v -5.500000 0.382723 0.175954
v -5.486000 0.382723 0.175954
v -5.500000 0.365723 0.175954
v -5.486000 0.365723 0.175954
v -5.500000 0.357223 0.190676
v -5.486000 0.357223 0.190676
v -5.500000 0.365723 0.205398
v -5.486000 0.365723 0.205398
v -5.500000 0.382723 0.205398
v -5.486000 0.382723 0.205398
v -5.486000 0.361278 0.187447
v -5.486000 0.384444 0.199251
v -5.486000 0.364002 0.182101
v -5.486000 0.387168 0.193905
v -5.484000 0.361278 0.187447
v -5.484000 0.384444 0.199251
v -5.484000 0.364002 0.182101
v -5.484000 0.387168 0.193905
v -5.500000 0.390681 0.202429
v -5.500000 0.426321 0.220589
v -5.500000 0.393405 0.197083
v -5.500000 0.429045 0.215243
v -5.498000 0.390681 0.202429
v -5.498000 0.426321 0.220589
v -5.498000 0.393405 0.197083
v -5.498000 0.429045 0.215243
v -5.500000 0.313985 0.296985
v -5.486000 0.313985 0.296985
v -5.500000 0.305485 0.282262
v -5.486000 0.305485 0.282262
v -5.500000 0.288485 0.282262
v -5.486000 0.288485 0.282262
v -5.500000 0.279985 0.296985
v -5.486000 0.279985 0.296985
v -5.500000 0.288485 0.311707
v -5.486000 0.288485 0.311707
v -5.500000 0.305485 0.311707
v -5.486000 0.305485 0.311707
v -5.486000 0.285671 0.289914
v -5.486000 0.304056 0.308299
v -5.486000 0.289914 0.285671
v -5.486000 0.308299 0.304056
v -5.484000 0.285671 0.289914
v -5.484000 0.304056 0.308299
v -5.484000 0.289914 0.285671
v -5.484000 0.308299 0.304056
v -5.500000 0.309006 0.313248
v -5.500000 0.337290 0.341533
v -5.500000 0.313248 0.309006
v -5.500000 0.341533 0.337290
v -5.498000 0.309006 0.313248
v -5.498000 0.337290 0.341533
v -5.498000 0.313248 0.309006
v -5.498000 0.341533 0.337290
v -5.500000 0.207676 0.374223
v -5.486000 0.207676 0.374223
v -5.500000 0.199176 0.359500
v -5.486000 0.199176 0.359500
v -5.500000 0.182176 0.359500
v -5.486000 0.182176 0.359500
v -5.500000 0.173676 0.374223
v -5.486000 0.173676 0.374223
v -5.500000 0.182176 0.388945
v -5.486000 0.182176 0.388945
v -5.500000 0.199176 0.388945
v -5.486000 0.199176 0.388945
v -5.486000 0.182101 0.364002
v -5.486000 0.193905 0.387168
v -5.486000 0.187447 0.361278
v -5.486000 0.199251 0.384444
v -5.484000 0.182101 0.364002
v -5.484000 0.193905 0.387168
v -5.484000 0.187447 0.361278
v -5.484000 0.199251 0.384444
v -5.500000 0.197083 0.393405
v -5.500000 0.215242 0.429045
v -5.500000 0.202429 0.390681
v -5.500000 0.220588 0.426321
v -5.498000 0.197083 0.393405
v -5.498000 0.215242 0.429045
v -5.498000 0.202429 0.390681
v -5.498000 0.220588 0.426321
v -5.500000 0.082702 0.414829
v -5.486000 0.082702 0.414829
v -5.500000 0.074202 0.400107
v -5.486000 0.074202 0.400107
v -5.500000 0.057202 0.400107
v -5.486000 0.057202 0.400107
v -5.500000 0.048702 0.414829
v -5.486000 0.048702 0.414829
v -5.500000 0.057202 0.429552
v -5.486000 0.057202 0.429552
v -5.500000 0.074202 0.429552
v -5.486000 0.074202 0.429552
v -5.486000 0.060706 0.402458
v -5.486000 0.064773 0.428138
v -5.486000 0.066632 0.401520
v -5.486000 0.070699 0.427200
v -5.484000 0.060706 0.402458
v -5.484000 0.064773 0.428138
v -5.484000 0.066632 0.401520
v -5.484000 0.070699 0.427200
v -5.500000 0.065868 0.435052
v -5.500000 0.072125 0.474560
v -5.500000 0.071794 0.434114
v -5.500000 0.078052 0.473621
v -5.498000 0.065868 0.435052
v -5.498000 0.072125 0.474560
v -5.498000 0.071794 0.434114
v -5.498000 0.078052 0.473621
vn -0.0000 0.8660 -0.5000
vn -0.0000 -0.0000 -1.0000
vn -0.0000 -0.8660 -0.5000
vn -0.0000 -0.8660 0.5000
vn 1.0000 -0.0000 -0.0000
vn -0.0000 -0.0000 1.0000
vn -0.0000 0.8660 0.5000
vn -1.0000 -0.0000 -0.0000
vn -0.0000 0.9877 0.1564
vn -0.0000 -0.9877 -0.1564
vn -0.0000 0.1564 -0.9877
vn -0.0000 -0.1564 0.9877
vn -0.0000 0.8910 0.4540
vn -0.0000 -0.8910 -0.4540
vn -0.0000 0.4540 -0.8910
vn -0.0000 -0.4540 0.8910
vn -0.0000 0.7071 0.7071
vn -0.0000 -0.7071 -0.7071
vn -0.0000 0.7071 -0.7071
vn -0.0000 -0.7071 0.7071
vn -0.0000 0.4540 0.8910
vn -0.0000 -0.4540 -0.8910
vn -0.0000 0.8910 -0.4540
vn -0.0000 -0.8910 0.4540
vn -0.0000 0.1564 0.9877
vn -0.0000 -0.1564 -0.9877
vn -0.0000 0.9877 -0.1564
vn -0.0000 -0.9877 0.1564
vn -0.0000 0.9659 -0.2588
vn -0.0000 0.2588 -0.9659
vn -0.0000 -0.2588 -0.9659
vn -0.0000 -0.9659 -0.2588
vn -0.0000 -0.9659 0.2588
vn -0.0000 -0.2588 0.9659
vn -0.0000 0.2588 0.9659
vn -0.0000 0.9659 0.2588
vn -0.0000 -0.9212 0.3890
vn -0.0000 0.9212 -0.3890
vn -0.0000 0.3890 0.9212
vn -0.0000 -0.3890 -0.9212
vn -0.0000 -0.1565 -0.9877
vn -0.0000 -0.1565 0.9877
vn -0.0000 0.1565 0.9877
vn -0.0000 0.1565 -0.9877
s 0
usemtl bolt_black
f 2//1 3//1 1//1
f 4//2 5//2 3//2
f 6//3 7//3 5//3
f 8//4 9//4 7//4
f 2//5 10//5 6//5
f 10//6 11//6 9//6
f 12//7 1//7 11//7
f 3//8 7//8 11//8
f 30//1 31//1 29//1
f 32//2 33//2 31//2
f 34//3 35//3 33//3
f 36//4 37//4 35//4
f 30//5 38//5 34//5
f 38//6 39//6 37//6
f 40//7 29//7 39//7
f 31//8 35//8 39//8
f 58//1 59//1 57//1
f 60//2 61//2 59//2
f 62//3 63//3 61//3
f 64//4 65//4 63//4
f 58//5 66//5 62//5
f 66//6 67//6 65//6
f 68//7 57//7 67//7
f 59//8 63//8 67//8
f 86//1 87//1 85//1
f 88//2 89//2 87//2
f 90//3 91//3 89//3
f 92//4 93//4 91//4
f 86//5 94//5 90//5
f 94//6 95//6 93//6
f 96//7 85//7 95//7
f 87//8 91//8 95//8
f 114//1 115//1 113//1
f 116//2 117//2 115//2
f 118//3 119//3 117//3
f 120//4 121//4 119//4
f 114//5 122//5 118//5
f 122//6 123//6 121//6
f 124//7 113//7 123//7
f 115//8 119//8 123//8
f 142//1 143//1 141//1
f 144//2 145//2 143//2
f 146//3 147//3 145//3
f 148//4 149//4 147//4
f 142//5 150//5 146//5
f 150//6 151//6 149//6
f 152//7 141//7 151//7
f 143//8 147//8 151//8
f 170//1 171//1 169//1
f 172//2 173//2 171//2
f 174//3 175//3 173//3
f 176//4 177//4 175//4
f 170//5 178//5 174//5
f 178//6 179//6 177//6
f 180//7 169//7 179//7
f 171//8 175//8 179//8
f 222//1 223//1 221//1
f 224//2 225//2 223//2
f 226//3 227//3 225//3
f 228//4 229//4 227//4
f 222//5 230//5 226//5
f 230//6 231//6 229//6
f 232//7 221//7 231//7
f 223//8 227//8 231//8
f 250//1 251//1 249//1
f 252//2 253//2 251//2
f 254//3 255//3 253//3
f 256//4 257//4 255//4
f 250//5 258//5 254//5
f 258//6 259//6 257//6
f 260//7 249//7 259//7
f 251//8 255//8 259//8
f 278//1 279//1 277//1
f 280//2 281//2 279//2
f 282//3 283//3 281//3
f 284//4 285//4 283//4
f 278//5 286//5 282//5
f 286//6 287//6 285//6
f 288//7 277//7 287//7
f 279//8 283//8 287//8
f 306//1 307//1 305//1
f 308//2 309//2 307//2
f 310//3 311//3 309//3
f 312//4 313//4 311//4
f 306//5 314//5 310//5
f 314//6 315//6 313//6
f 316//7 305//7 315//7
f 307//8 311//8 315//8
f 334//1 335//1 333//1
f 336//2 337//2 335//2
f 338//3 339//3 337//3
f 340//4 341//4 339//4
f 334//5 342//5 338//5
f 342//6 343//6 341//6
f 344//7 333//7 343//7
f 335//8 339//8 343//8
f 362//1 363//1 361//1
f 364//2 365//2 363//2
f 366//3 367//3 365//3
f 368//4 369//4 367//4
f 362//5 370//5 366//5
f 370//6 371//6 369//6
f 372//7 361//7 371//7
f 363//8 367//8 371//8
f 390//1 391//1 389//1
f 392//2 393//2 391//2
f 394//3 395//3 393//3
f 396//4 397//4 395//4
f 390//5 398//5 394//5
f 398//6 399//6 397//6
f 400//7 389//7 399//7
f 391//8 395//8 399//8
f 418//1 419//1 417//1
f 420//2 421//2 419//2
f 422//3 423//3 421//3
f 424//4 425//4 423//4
f 418//5 426//5 422//5
f 426//6 427//6 425//6
f 428//7 417//7 427//7
f 419//8 423//8 427//8
f 446//1 447//1 445//1
f 448//2 449//2 447//2
f 450//3 451//3 449//3
f 452//4 453//4 451//4
f 446//5 454//5 450//5
f 454//6 455//6 453//6
f 456//7 445//7 455//7
f 447//8 451//8 455//8
f 474//1 475//1 473//1
f 476//2 477//2 475//2
f 478//3 479//3 477//3
f 480//4 481//4 479//4
f 474//5 482//5 478//5
f 482//6 483//6 481//6
f 484//7 473//7 483//7
f 475//8 479//8 483//8
f 502//1 503//1 501//1
f 504//2 505//2 503//2
f 506//3 507//3 505//3
f 508//4 509//4 507//4
f 502//5 510//5 506//5
f 510//6 511//6 509//6
f 512//7 501//7 511//7
f 503//8 507//8 511//8
f 530//1 531//1 529//1
f 532//2 533//2 531//2
f 534//3 535//3 533//3
f 536//4 537//4 535//4
f 530//5 538//5 534//5
f 538//6 539//6 537//6
f 540//7 529//7 539//7
f 531//8 535//8 539//8
f 558//1 559//1 557//1
f 560//2 561//2 559//2
f 562//3 563//3 561//3
f 564//4 565//4 563//4
f 558//5 566//5 562//5
f 566//6 567//6 565//6
f 568//7 557//7 567//7
f 559//8 563//8 567//8
f 2//1 4//1 3//1
f 4//2 6//2 5//2
f 6//3 8//3 7//3
f 8//4 10//4 9//4
f 6//5 4//5 2//5
f 2//5 12//5 10//5
f 10//5 8//5 6//5
f 10//6 12//6 11//6
f 12//7 2//7 1//7
f 11//8 1//8 3//8
f 3//8 5//8 7//8
f 7//8 9//8 11//8
f 30//1 32//1 31//1
f 32//2 34//2 33//2
f 34//3 36//3 35//3
f 36//4 38//4 37//4
f 34//5 32//5 30//5
f 30//5 40//5 38//5
f 38//5 36//5 34//5
f 38//6 40//6 39//6
f 40//7 30//7 29//7
f 39//8 29//8 31//8
f 31//8 33//8 35//8
f 35//8 37//8 39//8
f 58//1 60//1 59//1
f 60//2 62//2 61//2
f 62//3 64//3 63//3
f 64//4 66//4 65//4
f 62//5 60//5 58//5
f 58//5 68//5 66//5
f 66//5 64//5 62//5
f 66//6 68//6 67//6
f 68//7 58//7 57//7
f 67//8 57//8 59//8
f 59//8 61//8 63//8
f 63//8 65//8 67//8
f 86//1 88//1 87//1
f 88//2 90//2 89//2
f 90//3 92//3 91//3
f 92//4 94//4 93//4
f 90//5 88//5 86//5
f 86//5 96//5 94//5
f 94//5 92//5 90//5
f 94//6 96//6 95//6
f 96//7 86//7 85//7
f 95//8 85//8 87//8
f 87//8 89//8 91//8
f 91//8 93//8 95//8
f 114//1 116//1 115//1
f 116//2 118//2 117//2
f 118//3 120//3 119//3
f 120//4 122//4 121//4
f 118//5 116//5 114//5
f 114//5 124//5 122//5
f 122//5 120//5 118//5
f 122//6 124//6 123//6
f 124//7 114//7 113//7
f 123//8 113//8 115//8
f 115//8 117//8 119//8
f 119//8 121//8 123//8
f 142//1 144//1 143//1
f 144//2 146//2 145//2
f 146//3 148//3 147//3
f 148//4 150//4 149//4
f 146//5 144//5 142//5
f 142//5 152//5 150//5
f 150//5 148//5 146//5
f 150//6 152//6 151//6
f 152//7 142//7 141//7
f 151//8 141//8 143//8
f 143//8 145//8 147//8
f 147//8 149//8 151//8
f 170//1 172//1 171//1
f 172//2 174//2 173//2
f 174//3 176//3 175//3
f 176//4 178//4 177//4
f 174//5 172//5 170//5
f 170//5 180//5 178//5
f 178//5 176//5 174//5
f 178//6 180//6 179//6
f 180//7 170//7 169//7
f 179//8 169//8 171//8
f 171//8 173//8 175//8
f 175//8 177//8 179//8
f 222//1 224//1 223//1
f 224//2 226//2 225//2
f 226//3 228//3 227//3
f 228//4 230//4 229//4
f 226//5 224//5 222//5
f 222//5 232//5 230//5
f 230//5 228//5 226//5
f 230//6 232//6 231//6
f 232//7 222//7 221//7
f 231//8 221//8 223//8
f 223//8 225//8 227//8
f 227//8 229//8 231//8
f 250//1 252//1 251//1
f 252//2 254//2 253//2
f 254//3 256//3 255//3
f 256//4 258//4 257//4
f 254//5 252//5 250//5
f 250//5 260//5 258//5
f 258//5 256//5 254//5
f 258//6 260//6 259//6
f 260//7 250//7 249//7
f 259//8 249//8 251//8
f 251//8 253//8 255//8
f 255//8 257//8 259//8
f 278//1 280//1 279//1
f 280//2 282//2 281//2
f 282//3 284//3 283//3
f 284//4 286//4 285//4
f 282//5 280//5 278//5
f 278//5 288//5 286//5
f 286//5 284//5 282//5
f 286//6 288//6 287//6
f 288//7 278//7 277//7
f 287//8 277//8 279//8
f 279//8 281//8 283//8
f 283//8 285//8 287//8
f 306//1 308//1 307//1
f 308//2 310//2 309//2
f 310//3 312//3 311//3
f 312//4 314//4 313//4
f 310//5 308//5 306//5
f 306//5 316//5 314//5
f 314//5 312//5 310//5
f 314//6 316//6 315//6
f 316//7 306//7 305//7
f 315//8 305//8 307//8
f 307//8 309//8 311//8
f 311//8 313//8 315//8
f 334//1 336//1 335//1
f 336//2 338//2 337//2
f 338//3 340//3 339//3
f 340//4 342//4 341//4
f 338//5 336//5 334//5
f 334//5 344//5 342//5
f 342//5 340//5 338//5
f 342//6 344//6 343//6
f 344//7 334//7 333//7
f 343//8 333//8 335//8
f 335//8 337//8 339//8
f 339//8 341//8 343//8
f 362//1 364//1 363//1
f 364//2 366//2 365//2
f 366//3 368//3 367//3
f 368//4 370//4 369//4
f 366//5 364//5 362//5
f 362//5 372//5 370//5
f 370//5 368//5 366//5
f 370//6 372//6 371//6
f 372//7 362//7 361//7
f 371//8 361//8 363//8
f 363//8 365//8 367//8
f 367//8 369//8 371//8
f 390//1 392//1 391//1
f 392//2 394//2 393//2
f 394//3 396//3 395//3
f 396//4 398//4 397//4
f 394//5 392//5 390//5
f 390//5 400//5 398//5
f 398//5 396//5 394//5
f 398//6 400//6 399//6
f 400//7 390//7 389//7
f 399//8 389//8 391//8
f 391//8 393//8 395//8
f 395//8 397//8 399//8
f 418//1 420//1 419//1
f 420//2 422//2 421//2
f 422//3 424//3 423//3
f 424//4 426//4 425//4
f 422//5 420//5 418//5
f 418//5 428//5 426//5
f 426//5 424//5 422//5
f 426//6 428//6 427//6
f 428//7 418//7 417//7
f 427//8 417//8 419//8
f 419//8 421//8 423//8
f 423//8 425//8 427//8
f 446//1 448//1 447//1
f 448//2 450//2 449//2
f 450//3 452//3 451//3
f 452//4 454//4 453//4
f 450//5 448//5 446//5
f 446//5 456//5 454//5
f 454//5 452//5 450//5
f 454//6 456//6 455//6
f 456//7 446//7 445//7
f 455//8 445//8 447//8
f 447//8 449//8 451//8
f 451//8 453//8 455//8
f 474//1 476//1 475//1
f 476//2 478//2 477//2
f 478//3 480//3 479//3
f 480//4 482//4 481//4
f 478//5 476//5 474//5
f 474//5 484//5 482//5
f 482//5 480//5 478//5
f 482//6 484//6 483//6
f 484//7 474//7 473//7
f 483//8 473//8 475//8
f 475//8 477//8 479//8
f 479//8 481//8 483//8
f 502//1 504//1 503//1
f 504//2 506//2 505//2
f 506//3 508//3 507//3
f 508//4 510//4 509//4
f 506//5 504//5 502//5
f 502//5 512//5 510//5
f 510//5 508//5 506//5
f 510//6 512//6 511//6
f 512//7 502//7 501//7
f 511//8 501//8 503//8
f 503//8 505//8 507//8
f 507//8 509//8 511//8
f 530//1 532//1 531//1
f 532//2 534//2 533//2
f 534//3 536//3 535//3
f 536//4 538//4 537//4
f 534//5 532//5 530//5
f 530//5 540//5 538//5
f 538//5 536//5 534//5
f 538//6 540//6 539//6
f 540//7 530//7 529//7
f 539//8 529//8 531//8
f 531//8 533//8 535//8
f 535//8 537//8 539//8
f 558//1 560//1 559//1
f 560//2 562//2 561//2
f 562//3 564//3 563//3
f 564//4 566//4 565//4
f 562//5 560//5 558//5
f 558//5 568//5 566//5
f 566//5 564//5 562//5
f 566//6 568//6 567//6
f 568//7 558//7 557//7
f 567//8 557//8 559//8
f 559//8 561//8 563//8
f 563//8 565//8 567//8
usemtl hatch_yellow
f 13//8 16//8 15//8
f 16//9 19//9 15//9
f 20//5 17//5 19//5
f 18//10 13//10 17//10
f 19//11 13//11 15//11
f 16//12 18//12 20//12
f 21//8 24//8 23//8
f 24//9 27//9 23//9
f 28//5 25//5 27//5
f 26//10 21//10 25//10
f 27//11 21//11 23//11
f 24//12 26//12 28//12
f 41//8 44//8 43//8
f 44//13 47//13 43//13
f 48//5 45//5 47//5
f 46//14 41//14 45//14
f 47//15 41//15 43//15
f 44//16 46//16 48//16
f 49//8 52//8 51//8
f 52//13 55//13 51//13
f 56//5 53//5 55//5
f 54//14 49//14 53//14
f 55//15 49//15 51//15
f 52//16 54//16 56//16
f 70//8 71//8 69//8
f 72//17 75//17 71//17
f 76//5 73//5 75//5
f 74//18 69//18 73//18
f 75//19 69//19 71//19
f 72//20 74//20 76//20
f 78//8 79//8 77//8
f 80//17 83//17 79//17
f 84//5 81//5 83//5
f 82//18 77//18 81//18
f 83//19 77//19 79//19
f 80//20 82//20 84//20
f 98//8 99//8 97//8
f 100//21 103//21 99//21
f 103//5 102//5 101//5
f 102//22 97//22 101//22
f 103//23 97//23 99//23
f 100//24 102//24 104//24
f 106//8 107//8 105//8
f 108//21 111//21 107//21
f 111//5 110//5 109//5
f 110//22 105//22 109//22
f 111//23 105//23 107//23
f 108//24 110//24 112//24
f 126//8 127//8 125//8
f 128//25 131//25 127//25
f 131//5 130//5 129//5
f 130//26 125//26 129//26
f 131//27 125//27 127//27
f 128//28 130//28 132//28
f 134//8 135//8 133//8
f 136//25 139//25 135//25
f 139//5 138//5 137//5
f 138//26 133//26 137//26
f 139//27 133//27 135//27
f 136//28 138//28 140//28
f 153//8 156//8 155//8
f 156//12 159//12 155//12
f 160//5 157//5 159//5
f 158//11 153//11 157//11
f 159//9 153//9 155//9
f 156//10 158//10 160//10
f 161//8 164//8 163//8
f 164//12 167//12 163//12
f 168//5 165//5 167//5
f 166//11 161//11 165//11
f 167//9 161//9 163//9
f 164//10 166//10 168//10
f 206//8 207//8 205//8
f 208//37 211//37 207//37
f 211//5 210//5 209//5
f 210//38 205//38 209//38
f 211//39 205//39 207//39
f 208//40 210//40 212//40
f 213//8 216//8 215//8
f 216//16 219//16 215//16
f 220//5 217//5 219//5
f 218//15 213//15 217//15
f 219//13 213//13 215//13
f 216//14 218//14 220//14
f 234//8 235//8 233//8
f 236//20 239//20 235//20
f 239//5 238//5 237//5
f 238//19 233//19 237//19
f 239//17 233//17 235//17
f 236//18 238//18 240//18
f 241//8 244//8 243//8
f 244//20 247//20 243//20
f 247//5 246//5 245//5
f 246//19 241//19 245//19
f 247//17 241//17 243//17
f 244//18 246//18 248//18
f 262//8 263//8 261//8
f 264//24 267//24 263//24
f 267//5 266//5 265//5
f 266//23 261//23 265//23
f 267//21 261//21 263//21
f 264//22 266//22 268//22
f 270//8 271//8 269//8
f 272//24 275//24 271//24
f 275//5 274//5 273//5
f 274//23 269//23 273//23
f 275//21 269//21 271//21
f 272//22 274//22 276//22
f 290//8 291//8 289//8
f 292//28 295//28 291//28
f 295//5 294//5 293//5
f 294//27 289//27 293//27
f 295//25 289//25 291//25
f 292//41 294//41 296//41
f 298//8 299//8 297//8
f 300//28 303//28 299//28
f 303//5 302//5 301//5
f 302//27 297//27 301//27
f 303//25 297//25 299//25
f 300//26 302//26 304//26
f 317//8 320//8 319//8
f 320//10 323//10 319//10
f 324//5 321//5 323//5
f 322//9 317//9 321//9
f 323//42 317//42 319//42
f 320//11 322//11 324//11
f 325//8 328//8 327//8
f 328//10 331//10 327//10
f 332//5 329//5 331//5
f 330//9 325//9 329//9
f 331//12 325//12 327//12
f 328//11 330//11 332//11
f 345//8 348//8 347//8
f 348//14 351//14 347//14
f 352//5 349//5 351//5
f 350//13 345//13 349//13
f 351//16 345//16 347//16
f 348//15 350//15 352//15
f 353//8 356//8 355//8
f 356//14 359//14 355//14
f 360//5 357//5 359//5
f 358//13 353//13 357//13
f 359//16 353//16 355//16
f 356//15 358//15 360//15
f 373//8 376//8 375//8
f 376//18 379//18 375//18
f 380//5 377//5 379//5
f 378//17 373//17 377//17
f 379//20 373//20 375//20
f 376//19 378//19 380//19
f 381//8 384//8 383//8
f 384//18 387//18 383//18
f 387//5 386//5 385//5
f 386//17 381//17 385//17
f 387//20 381//20 383//20
f 384//19 386//19 388//19
f 402//8 403//8 401//8
f 404//22 407//22 403//22
f 407//5 406//5 405//5
f 406//21 401//21 405//21
f 407//24 401//24 403//24
f 404//23 406//23 408//23
f 409//8 412//8 411//8
f 412//22 415//22 411//22
f 416//5 413//5 415//5
f 414//21 409//21 413//21
f 415//24 409//24 411//24
f 412//23 414//23 416//23
f 430//8 431//8 429//8
f 432//26 435//26 431//26
f 435//5 434//5 433//5
f 434//25 429//25 433//25
f 435//28 429//28 431//28
f 432//27 434//27 436//27
f 438//8 439//8 437//8
f 440//26 443//26 439//26
f 444//5 441//5 443//5
f 442//25 437//25 441//25
f 443//28 437//28 439//28
f 440//27 442//27 444//27
f 457//8 460//8 459//8
f 460//11 463//11 459//11
f 464//5 461//5 463//5
f 462//12 457//12 461//12
f 463//10 457//10 459//10
f 460//9 462//9 464//9
f 466//8 467//8 465//8
f 468//11 471//11 467//11
f 472//5 469//5 471//5
f 470//12 465//12 469//12
f 471//10 465//10 467//10
f 468//9 470//9 472//9
f 485//8 488//8 487//8
f 488//15 491//15 487//15
f 492//5 489//5 491//5
f 490//16 485//16 489//16
f 491//14 485//14 487//14
f 488//13 490//13 492//13
f 493//8 496//8 495//8
f 496//15 499//15 495//15
f 500//5 497//5 499//5
f 498//16 493//16 497//16
f 499//14 493//14 495//14
f 496//13 498//13 500//13
f 514//8 515//8 513//8
f 516//19 519//19 515//19
f 520//5 517//5 519//5
f 518//20 513//20 517//20
f 519//18 513//18 515//18
f 516//17 518//17 520//17
f 522//8 523//8 521//8
f 524//19 527//19 523//19
f 528//5 525//5 527//5
f 526//20 521//20 525//20
f 527//18 521//18 523//18
f 524//17 526//17 528//17
f 542//8 543//8 541//8
f 544//23 547//23 543//23
f 547//5 546//5 545//5
f 546//24 541//24 545//24
f 547//22 541//22 543//22
f 544//21 546//21 548//21
f 550//8 551//8 549//8
f 552//23 555//23 551//23
f 555//5 554//5 553//5
f 554//24 549//24 553//24
f 555//22 549//22 551//22
f 552//21 554//21 556//21
f 570//8 571//8 569//8
f 572//27 575//27 571//27
f 575//5 574//5 573//5
f 574//28 569//28 573//28
f 575//26 569//26 571//26
f 572//25 574//25 576//25
f 578//8 579//8 577//8
f 580//27 583//27 579//27
f 583//5 582//5 581//5
f 582//28 577//28 581//28
f 583//26 577//26 579//26
f 580//25 582//25 584//25
f 13//8 14//8 16//8
f 16//9 20//9 19//9
f 20//5 18//5 17//5
f 18//10 14//10 13//10
f 19//11 17//11 13//11
f 16//12 14//12 18//12
f 21//8 22//8 24//8
f 24//9 28//9 27//9
f 28//5 26//5 25//5
f 26//10 22//10 21//10
f 27//11 25//11 21//11
f 24//12 22//12 26//12
f 41//8 42//8 44//8
f 44//13 48//13 47//13
f 48//5 46//5 45//5
f 46//14 42//14 41//14
f 47//15 45//15 41//15
f 44//16 42//16 46//16
f 49//8 50//8 52//8
f 52//13 56//13 55//13
f 56//5 54//5 53//5
f 54//14 50//14 49//14
f 55//15 53//15 49//15
f 52//16 50//16 54//16
f 70//8 72//8 71//8
f 72//17 76//17 75//17
f 76//5 74//5 73//5
f 74//18 70//18 69//18
f 75//19 73//19 69//19
f 72//20 70//20 74//20
f 78//8 80//8 79//8
f 80//17 84//17 83//17
f 84//5 82//5 81//5
f 82//18 78//18 77//18
f 83//19 81//19 77//19
f 80//20 78//20 82//20
f 98//8 100//8 99//8
f 100//21 104//21 103//21
f 103//5 104//5 102//5
f 102//22 98//22 97//22
f 103//23 101//23 97//23
f 100//24 98//24 102//24
f 106//8 108//8 107//8
f 108//21 112//21 111//21
f 111//5 112//5 110//5
f 110//22 106//22 105//22
f 111//23 109//23 105//23
f 108//24 106//24 110//24
f 126//8 128//8 127//8
f 128//25 132//25 131//25
f 131//5 132//5 130//5
f 130//26 126//26 125//26
f 131//27 129//27 125//27
f 128//28 126//28 130//28
f 134//8 136//8 135//8
f 136//25 140//25 139//25
f 139//5 140//5 138//5
f 138//26 134//26 133//26
f 139//27 137//27 133//27
f 136//28 134//28 138//28
f 153//8 154//8 156//8
f 156//12 160//12 159//12
f 160//5 158//5 157//5
f 158//11 154//11 153//11
f 159//9 157//9 153//9
f 156//10 154//10 158//10
f 161//8 162//8 164//8
f 164//12 168//12 167//12
f 168//5 166//5 165//5
f 166//11 162//11 161//11
f 167//9 165//9 161//9
f 164//10 162//10 166//10
f 206//8 208//8 207//8
f 208//37 212//37 211//37
f 211//5 212//5 210//5
f 210//38 206//38 205//38
f 211//39 209//39 205//39
f 208//40 206//40 210//40
f 213//8 214//8 216//8
f 216//16 220//16 219//16
f 220//5 218//5 217//5
f 218//15 214//15 213//15
f 219//13 217//13 213//13
f 216//14 214//14 218//14
f 234//8 236//8 235//8
f 236//20 240//20 239//20
f 239//5 240//5 238//5
f 238//19 234//19 233//19
f 239//17 237//17 233//17
f 236//18 234//18 238//18
f 241//8 242//8 244//8
f 244//20 248//20 247//20
f 247//5 248//5 246//5
f 246//19 242//19 241//19
f 247//17 245//17 241//17
f 244//18 242//18 246//18
f 262//8 264//8 263//8
f 264//24 268//24 267//24
f 267//5 268//5 266//5
f 266//23 262//23 261//23
f 267//21 265//21 261//21
f 264//22 262//22 266//22
f 270//8 272//8 271//8
f 272//24 276//24 275//24
f 275//5 276//5 274//5
f 274//23 270//23 269//23
f 275//21 273//21 269//21
f 272//22 270//22 274//22
f 290//8 292//8 291//8
f 292//28 296//28 295//28
f 295//5 296//5 294//5
f 294//27 290//27 289//27
f 295//43 293//43 289//43
f 292//26 290//26 294//26
f 298//8 300//8 299//8
f 300//28 304//28 303//28
f 303//5 304//5 302//5
f 302//27 298//27 297//27
f 303//25 301//25 297//25
f 300//26 298//26 302//26
f 317//8 318//8 320//8
f 320//10 324//10 323//10
f 324//5 322//5 321//5
f 322//9 318//9 317//9
f 323//12 321//12 317//12
f 320//44 318//44 322//44
f 325//8 326//8 328//8
f 328//10 332//10 331//10
f 332//5 330//5 329//5
f 330//9 326//9 325//9
f 331//12 329//12 325//12
f 328//11 326//11 330//11
f 345//8 346//8 348//8
f 348//14 352//14 351//14
f 352//5 350//5 349//5
f 350//13 346//13 345//13
f 351//16 349//16 345//16
f 348//15 346//15 350//15
f 353//8 354//8 356//8
f 356//14 360//14 359//14
f 360//5 358//5 357//5
f 358//13 354//13 353//13
f 359//16 357//16 353//16
f 356//15 354//15 358//15
f 373//8 374//8 376//8
f 376//18 380//18 379//18
f 380//5 378//5 377//5
f 378//17 374//17 373//17
f 379//20 377//20 373//20
f 376//19 374//19 378//19
f 381//8 382//8 384//8
f 384//18 388//18 387//18
f 387//5 388//5 386//5
f 386//17 382//17 381//17
f 387//20 385//20 381//20
f 384//19 382//19 386//19
f 402//8 404//8 403//8
f 404//22 408//22 407//22
f 407//5 408//5 406//5
f 406//21 402//21 401//21
f 407//24 405//24 401//24
f 404//23 402//23 406//23
f 409//8 410//8 412//8
f 412//22 416//22 415//22
f 416//5 414//5 413//5
f 414//21 410//21 409//21
f 415//24 413//24 409//24
f 412//23 410//23 414//23
f 430//8 432//8 431//8
f 432//26 436//26 435//26
f 435//5 436//5 434//5
f 434//25 430//25 429//25
f 435//28 433//28 429//28
f 432//27 430//27 434//27
f 438//8 440//8 439//8
f 440//26 444//26 443//26
f 444//5 442//5 441//5
f 442//25 438//25 437//25
f 443//28 441//28 437//28
f 440//27 438//27 442//27
f 457//8 458//8 460//8
f 460//11 464//11 463//11
f 464//5 462//5 461//5
f 462//12 458//12 457//12
f 463//10 461//10 457//10
f 460//9 458//9 462//9
f 466//8 468//8 467//8
f 468//11 472//11 471//11
f 472//5 470//5 469//5
f 470//12 466//12 465//12
f 471//10 469//10 465//10
f 468//9 466//9 470//9
f 485//8 486//8 488//8
f 488//15 492//15 491//15
f 492//5 490//5 489//5
f 490//16 486//16 485//16
f 491//14 489//14 485//14
f 488//13 486//13 490//13
f 493//8 494//8 496//8
f 496//15 500//15 499//15
f 500//5 498//5 497//5
f 498//16 494//16 493//16
f 499//14 497//14 493//14
f 496//13 494//13 498//13
f 514//8 516//8 515//8
f 516//19 520//19 519//19
f 520//5 518//5 517//5
f 518//20 514//20 513//20
f 519//18 517//18 513//18
f 516//17 514//17 518//17
f 522//8 524//8 523//8
f 524//19 528//19 527//19
f 528//5 526//5 525//5
f 526//20 522//20 521//20
f 527//18 525//18 521//18
f 524//17 522//17 526//17
f 542//8 544//8 543//8
f 544//23 548//23 547//23
f 547//5 548//5 546//5
f 546//24 542//24 541//24
f 547//22 545//22 541//22
f 544//21 542//21 546//21
f 550//8 552//8 551//8
f 552//23 556//23 555//23
f 555//5 556//5 554//5
f 554//24 550//24 549//24
f 555//22 553//22 549//22
f 552//21 550//21 554//21
f 570//8 572//8 571//8
f 572//27 576//27 575//27
f 575//5 576//5 574//5
f 574//28 570//28 569//28
f 575//26 573//26 569//26
f 572//25 570//25 574//25
f 578//8 580//8 579//8
f 580//27 584//27 583//27
f 583//5 584//5 582//5
f 582//28 578//28 577//28
f 583//26 581//26 577//26
f 580//25 578//25 582//25
usemtl pipe_steel
f 182//29 183//29 181//29
f 184//19 185//19 183//19
f 186//30 187//30 185//30
f 188//31 189//31 187//31
f 190//18 191//18 189//18
f 192//32 193//32 191//32
f 194//33 195//33 193//33
f 196//20 197//20 195//20
f 198//34 199//34 197//34
f 200//35 201//35 199//35
f 202//5 194//5 186//5
f 202//17 203//17 201//17
f 204//36 181//36 203//36
f 187//8 195//8 203//8
f 182//29 184//29 183//29
f 184//19 186//19 185//19
f 186//30 188//30 187//30
f 188//31 190//31 189//31
f 190//18 192//18 191//18
f 192//32 194//32 193//32
f 194//33 196//33 195//33
f 196//20 198//20 197//20
f 198//34 200//34 199//34
f 200//35 202//35 201//35
f 186//5 184//5 182//5
f 182//5 204//5 202//5
f 202//5 200//5 198//5
f 198//5 196//5 194//5
f 194//5 192//5 190//5
f 190//5 188//5 186//5
f 186//5 182//5 202//5
f 202//5 198//5 194//5
f 194//5 190//5 186//5
f 202//17 204//17 203//17
f 204//36 182//36 181//36
f 203//8 181//8 183//8
f 183//8 185//8 187//8
f 187//8 189//8 191//8
f 191//8 193//8 195//8
f 195//8 197//8 199//8
f 199//8 201//8 203//8
f 203//8 183//8 187//8
f 187//8 191//8 195//8
f 195//8 199//8 203//8
