# Blender 5.2.2 LTS
# www.blender.org
mtllib shrink_disc_bolts_ok.mtl
o shrink_disc_bolts_ok
v -5.500000 -0.048702 0.414829
v -5.486000 -0.048702 0.414829
v -5.500000 -0.057202 0.400107
v -5.486000 -0.057202 0.400107
v -5.500000 -0.074202 0.400107
v -5.486000 -0.074202 0.400107
v -5.500000 -0.082702 0.414829
v -5.486000 -0.082702 0.414829
v -5.500000 -0.074202 0.429552
v -5.486000 -0.074202 0.429552
v -5.500000 -0.057202 0.429552
v -5.486000 -0.057202 0.429552
v -5.486000 -0.066632 0.401520
v -5.486000 -0.070699 0.427200
v -5.486000 -0.060706 0.402458
v -5.486000 -0.064773 0.428138
v -5.484000 -0.066632 0.401520
v -5.484000 -0.070699 0.427200
v -5.484000 -0.060706 0.402458
v -5.484000 -0.064773 0.428138
v -5.500000 -0.071794 0.434114
v -5.500000 -0.078052 0.473621
v -5.500000 -0.065868 0.435052
v -5.500000 -0.072125 0.474560
v -5.498000 -0.071794 0.434114
v -5.498000 -0.078052 0.473621
v -5.498000 -0.065868 0.435052
v -5.498000 -0.072125 0.474560
v -5.500000 -0.173676 0.374223
v -5.486000 -0.173676 0.374223
v -5.500000 -0.182176 0.359500
v -5.486000 -0.182176 0.359500
v -5.500000 -0.199176 0.359500
v -5.486000 -0.199176 0.359500
v -5.500000 -0.207676 0.374223
v -5.486000 -0.207676 0.374223
v -5.500000 -0.199176 0.388945
v -5.486000 -0.199176 0.388945
v -5.500000 -0.182176 0.388945
v -5.486000 -0.182176 0.388945
v -5.486000 -0.187447 0.361278
v -5.486000 -0.199251 0.384444
v -5.486000 -0.182101 0.364002
v -5.486000 -0.193905 0.387168
v -5.484000 -0.187447 0.361278
v -5.484000 -0.199251 0.384444
v -5.484000 -0.182101 0.364002
v -5.484000 -0.193905 0.387168
v -5.500000 -0.202429 0.390681
v -5.500000 -0.220588 0.426321
v -5.500000 -0.197083 0.393405
v -5.500000 -0.215242 0.429045
v -5.498000 -0.202429 0.390681
v -5.498000 -0.220588 0.426321
v -5.498000 -0.197083 0.393405
v -5.498000 -0.215242 0.429045
v -5.500000 -0.279985 0.296985
v -5.486000 -0.279985 0.296985
v -5.500000 -0.288485 0.282262
v -5.486000 -0.288485 0.282262
v -5.500000 -0.305485 0.282262
v -5.486000 -0.305485 0.282262
v -5.500000 -0.313985 0.296985
v -5.486000 -0.313985 0.296985
v -5.500000 -0.305485 0.311707
v -5.486000 -0.305485 0.311707
v -5.500000 -0.288485 0.311707
v -5.486000 -0.288485 0.311707
v -5.486000 -0.289914 0.285671
v -5.486000 -0.308299 0.304056
v -5.486000 -0.285671 0.289914
v -5.486000 -0.304056 0.308299
v -5.484000 -0.289914 0.285671
v -5.484000 -0.308299 0.304056
v -5.484000 -0.285671 0.289914
v -5.484000 -0.304056 0.308299
v -5.500000 -0.313248 0.309006
v -5.500000 -0.341533 0.337290
v -5.500000 -0.309006 0.313248
v -5.500000 -0.337290 0.341533
v -5.498000 -0.313248 0.309006
v -5.498000 -0.341533 0.337290
v -5.498000 -0.309006 0.313248
v -5.498000 -0.337290 0.341533
v -5.500000 -0.357223 0.190676
v -5.486000 -0.357223 0.190676
v -5.500000 -0.365723 0.175954
v -5.486000 -0.365723 0.175954
v -5.500000 -0.382723 0.175954
v -5.486000 -0.382723 0.175954
v -5.500000 -0.391223 0.190676
v -5.486000 -0.391223 0.190676
v -5.500000 -0.382723 0.205398
v -5.486000 -0.382723 0.205398
v -5.500000 -0.365723 0.205398
v -5.486000 -0.365723 0.205398
v -5.486000 -0.364002 0.182101
v -5.486000 -0.387168 0.193905
v -5.486000 -0.361278 0.187447
v -5.486000 -0.384444 0.199251
v -5.484000 -0.364002 0.182101
v -5.484000 -0.387168 0.193905
v -5.484000 -0.361278 0.187447
v -5.484000 -0.384444 0.199251
v -5.500000 -0.393405 0.197083
v -5.500000 -0.429045 0.215242
v -5.500000 -0.390681 0.202429
v -5.500000 -0.426321 0.220588
v -5.498000 -0.393405 0.197083
v -5.498000 -0.429045 0.215242
v -5.498000 -0.390681 0.202429
v -5.498000 -0.426321 0.220588
v -5.500000 -0.397829 0.065702
v -5.486000 -0.397829 0.065702
v -5.500000 -0.406329 0.050980
v -5.486000 -0.406329 0.050980
v -5.500000 -0.423329 0.050980
v -5.486000 -0.423329 0.050980
v -5.500000 -0.431829 0.065702
v -5.486000 -0.431829 0.065702
v -5.500000 -0.423329 0.080425
v -5.486000 -0.423329 0.080425
v -5.500000 -0.406329 0.080425
v -5.486000 -0.406329 0.080425
v -5.486000 -0.402458 0.060706
v -5.486000 -0.428138 0.064773
v -5.486000 -0.401520 0.066632
v -5.486000 -0.427200 0.070699
v -5.484000 -0.402458 0.060706
v -5.484000 -0.428138 0.064773
v -5.484000 -0.401520 0.066632
v -5.484000 -0.427200 0.070699
v -5.500000 -0.435052 0.065868
v -5.500000 -0.474560 0.072125
v -5.500000 -0.434114 0.071794
v -5.500000 -0.473621 0.078052
v -5.498000 -0.435052 0.065868
v -5.498000 -0.474560 0.072125
v -5.498000 -0.434114 0.071794
v -5.498000 -0.473621 0.078052
v -5.500000 -0.397829 -0.065702
v -5.486000 -0.397829 -0.065702
v -5.500000 -0.406329 -0.080425
v -5.486000 -0.406329 -0.080425
v -5.500000 -0.423329 -0.080425
v -5.486000 -0.423329 -0.080425
v -5.500000 -0.431829 -0.065702
v -5.486000 -0.431829 -0.065702
v -5.500000 -0.423329 -0.050980
v -5.486000 -0.423329 -0.050980
v -5.500000 -0.406329 -0.050980
v -5.486000 -0.406329 -0.050980
v -5.486000 -0.401520 -0.066632
v -5.486000 -0.427200 -0.070699
v -5.486000 -0.402458 -0.060706
v -5.486000 -0.428138 -0.064773
v -5.484000 -0.401520 -0.066632
v -5.484000 -0.427200 -0.070699
v -5.484000 -0.402458 -0.060706
v -5.484000 -0.428138 -0.064773
v -5.500000 -0.434114 -0.071794
v -5.500000 -0.473621 -0.078052
v -5.500000 -0.435052 -0.065868
v -5.500000 -0.474560 -0.072125
v -5.498000 -0.434114 -0.071794
v -5.498000 -0.473621 -0.078052
v -5.498000 -0.435052 -0.065868
v -5.498000 -0.474560 -0.072125
v -5.500000 -0.357223 -0.190676
v -5.486000 -0.357223 -0.190676
v -5.500000 -0.365723 -0.205398
v -5.486000 -0.365723 -0.205398
v -5.500000 -0.382723 -0.205398
v -5.486000 -0.382723 -0.205398
v -5.500000 -0.391223 -0.190676
v -5.486000 -0.391223 -0.190676
v -5.500000 -0.382723 -0.175954
v -5.486000 -0.382723 -0.175954
v -5.500000 -0.365723 -0.175954
v -5.486000 -0.365723 -0.175954
v -5.486000 -0.361278 -0.187447
v -5.486000 -0.384444 -0.199251
v -5.486000 -0.364002 -0.182101
v -5.486000 -0.387168 -0.193905
v -5.484000 -0.361278 -0.187447
v -5.484000 -0.384444 -0.199251
v -5.484000 -0.364002 -0.182101
v -5.484000 -0.387168 -0.193905
v -5.500000 -0.390681 -0.202429
v -5.500000 -0.426321 -0.220589
v -5.500000 -0.393405 -0.197083
v -5.500000 -0.429045 -0.215242
v -5.498000 -0.390681 -0.202429
v -5.498000 -0.426321 -0.220589
v -5.498000 -0.393405 -0.197083
v -5.498000 -0.429045 -0.215242
v -5.500000 -0.279985 -0.296985
v -5.486000 -0.279985 -0.296985
v -5.500000 -0.288485 -0.311707
v -5.486000 -0.288485 -0.311707
v -5.500000 -0.305485 -0.311707
v -5.486000 -0.305485 -0.311707
v -5.500000 -0.313985 -0.296985
v -5.486000 -0.313985 -0.296985
v -5.500000 -0.305485 -0.282262
v -5.486000 -0.305485 -0.282262
v -5.500000 -0.288485 -0.282262
v -5.486000 -0.288485 -0.282262
v -5.486000 -0.285671 -0.289914
v -5.486000 -0.304056 -0.308299
v -5.486000 -0.289914 -0.285671
v -5.486000 -0.308299 -0.304056
v -5.484000 -0.285671 -0.289914
v -5.484000 -0.304056 -0.308299
v -5.484000 -0.289914 -0.285671
v -5.484000 -0.308299 -0.304056
v -5.500000 -0.309006 -0.313248
v -5.500000 -0.337290 -0.341533
v -5.500000 -0.313248 -0.309006
v -5.500000 -0.341533 -0.337290
v -5.498000 -0.309006 -0.313248
v -5.498000 -0.337290 -0.341533
v -5.498000 -0.313248 -0.309006
v -5.498000 -0.341533 -0.337290
v -5.500000 -0.173676 -0.374223
v -5.486000 -0.173676 -0.374223
v -5.500000 -0.182176 -0.388945
v -5.486000 -0.182176 -0.388945
v -5.500000 -0.199176 -0.388945
v -5.486000 -0.199176 -0.388945
v -5.500000 -0.207676 -0.374223
v -5.486000 -0.207676 -0.374223
v -5.500000 -0.199176 -0.359500
v -5.486000 -0.199176 -0.359500
v -5.500000 -0.182176 -0.359500
v -5.486000 -0.182176 -0.359500
v -5.486000 -0.182101 -0.364002
v -5.486000 -0.193905 -0.387168
v -5.486000 -0.187447 -0.361278
v -5.486000 -0.199251 -0.384444
v -5.484000 -0.182101 -0.364002
v -5.484000 -0.193905 -0.387168
v -5.484000 -0.187447 -0.361278
v -5.484000 -0.199251 -0.384444
v -5.500000 -0.197083 -0.393405
v -5.500000 -0.215242 -0.429045
v -5.500000 -0.202429 -0.390681
v -5.500000 -0.220589 -0.426321
v -5.498000 -0.197083 -0.393405
v -5.498000 -0.215242 -0.429045
v -5.498000 -0.202429 -0.390681
v -5.498000 -0.220589 -0.426321
v -5.500000 -0.048702 -0.414829
v -5.486000 -0.048702 -0.414829
v -5.500000 -0.057202 -0.429552
v -5.486000 -0.057202 -0.429552
v -5.500000 -0.074202 -0.429552
v -5.486000 -0.074202 -0.429552
v -5.500000 -0.082702 -0.414829
v -5.486000 -0.082702 -0.414829
v -5.500000 -0.074202 -0.400107
v -5.486000 -0.074202 -0.400107
v -5.500000 -0.057202 -0.400107
v -5.486000 -0.057202 -0.400107
v -5.486000 -0.060706 -0.402458
v -5.486000 -0.064773 -0.428138
v -5.486000 -0.066632 -0.401520
v -5.486000 -0.070699 -0.427200
v -5.484000 -0.060706 -0.402458
v -5.484000 -0.064773 -0.428138
v -5.484000 -0.066632 -0.401520
v -5.484000 -0.070699 -0.427200
v -5.500000 -0.065868 -0.435052
v -5.500000 -0.072125 -0.474560
v -5.500000 -0.071794 -0.434114
v -5.500000 -0.078052 -0.473621
v -5.498000 -0.065868 -0.435052
v -5.498000 -0.072125 -0.474560
v -5.498000 -0.071794 -0.434114
v -5.498000 -0.078052 -0.473621
v -5.500000 0.082702 -0.414829
v -5.486000 0.082702 -0.414829
v -5.500000 0.074202 -0.429552
v -5.486000 0.074202 -0.429552
v -5.500000 0.057202 -0.429552
v -5.486000 0.057202 -0.429552
v -5.500000 0.048702 -0.414829
v -5.486000 0.048702 -0.414829
v -5.500000 0.057202 -0.400107
v -5.486000 0.057202 -0.400107
v -5.500000 0.074202 -0.400107
v -5.486000 0.074202 -0.400107
v -5.486000 0.066632 -0.401520
v -5.486000 0.070699 -0.427200
v -5.486000 0.060706 -0.402458
v -5.486000 0.064773 -0.428138
v -5.484000 0.066632 -0.401520
v -5.484000 0.070699 -0.427200
v -5.484000 0.060706 -0.402458
v -5.484000 0.064773 -0.428138
v -5.500000 0.071794 -0.434114
v -5.500000 0.078052 -0.473621
v -5.500000 0.065868 -0.435052
v -5.500000 0.072125 -0.474560
v -5.498000 0.071794 -0.434114
v -5.498000 0.078052 -0.473621
v -5.498000 0.065868 -0.435052
v -5.498000 0.072125 -0.474560
v -5.500000 0.207676 -0.374223
v -5.486000 0.207676 -0.374223
v -5.500000 0.199176 -0.388945
v -5.486000 0.199176 -0.388945
v -5.500000 0.182176 -0.388945
v -5.486000 0.182176 -0.388945
v -5.500000 0.173676 -0.374223
v -5.486000 0.173676 -0.374223
v -5.500000 0.182176 -0.359500
v -5.486000 0.182176 -0.359500
v -5.500000 0.199176 -0.359500
v -5.486000 0.199176 -0.359500
v -5.486000 0.187447 -0.361278
v -5.486000 0.199251 -0.384444
v -5.486000 0.182101 -0.364002
v -5.486000 0.193905 -0.387168
v -5.484000 0.187447 -0.361278
v -5.484000 0.199251 -0.384444
v -5.484000 0.182101 -0.364002
v -5.484000 0.193905 -0.387168
v -5.500000 0.202429 -0.390681
v -5.500000 0.220589 -0.426321
v -5.500000 0.197083 -0.393405
v -5.500000 0.215242 -0.429045
v -5.498000 0.202429 -0.390681
v -5.498000 0.220589 -0.426321
v -5.498000 0.197083 -0.393405
v -5.498000 0.215242 -0.429045
v -5.500000 0.313985 -0.296985
v -5.486000 0.313985 -0.296985
v -5.500000 0.305485 -0.311707
v -5.486000 0.305485 -0.311707
v -5.500000 0.288485 -0.311707
v -5.486000 0.288485 -0.311707
v -5.500000 0.279985 -0.296985
v -5.486000 0.279985 -0.296985
v -5.500000 0.288485 -0.282262
v -5.486000 0.288485 -0.282262
v -5.500000 0.305485 -0.282262
v -5.486000 0.305485 -0.282262
v -5.486000 0.289914 -0.285671
v -5.486000 0.308299 -0.304056
v -5.486000 0.285671 -0.289914
v -5.486000 0.304056 -0.308299
v -5.484000 0.289914 -0.285671
v -5.484000 0.308299 -0.304056
v -5.484000 0.285671 -0.289914
v -5.484000 0.304056 -0.308299
v -5.500000 0.313248 -0.309006
v -5.500000 0.341533 -0.337290
v -5.500000 0.309006 -0.313248
v -5.500000 0.337290 -0.341533
v -5.498000 0.313248 -0.309006
v -5.498000 0.341533 -0.337290
v -5.498000 0.309006 -0.313248
v -5.498000 0.337290 -0.341533
v -5.500000 0.391223 -0.190676
v -5.486000 0.391223 -0.190676
v -5.500000 0.382723 -0.205398
v -5.486000 0.382723 -0.205398
v -5.500000 0.365723 -0.205398
v -5.486000 0.365723 -0.205398
v -5.500000 0.357223 -0.190676
v -5.486000 0.357223 -0.190676
v -5.500000 0.365723 -0.175954
v -5.486000 0.365723 -0.175954
v -5.500000 0.382723 -0.175954
v -5.486000 0.382723 -0.175954
v -5.486000 0.364002 -0.182101
v -5.486000 0.387168 -0.193905
v -5.486000 0.361278 -0.187447
v -5.486000 0.384444 -0.199251
v -5.484000 0.364002 -0.182101
v -5.484000 0.387168 -0.193905
v -5.484000 0.361278 -0.187447
v -5.484000 0.384444 -0.199251
v -5.500000 0.393405 -0.197083
v -5.500000 0.429045 -0.215243
v -5.500000 0.390681 -0.202429
v -5.500000 0.426321 -0.220589
v -5.498000 0.393405 -0.197083
v -5.498000 0.429045 -0.215243
v -5.498000 0.390681 -0.202429
v -5.498000 0.426321 -0.220589
v -5.500000 0.431829 -0.065702
v -5.486000 0.431829 -0.065702
v -5.500000 0.423329 -0.080425
v -5.486000 0.423329 -0.080425
v -5.500000 0.406329 -0.080425
v -5.486000 0.406329 -0.080425
v -5.500000 0.397829 -0.065702
v -5.486000 0.397829 -0.065702
v -5.500000 0.406329 -0.050980
v -5.486000 0.406329 -0.050980
v -5.500000 0.423329 -0.050980
v -5.486000 0.423329 -0.050980
v -5.486000 0.402459 -0.060706
v -5.486000 0.428138 -0.064773
v -5.486000 0.401520 -0.066632
v -5.486000 0.427200 -0.070699
v -5.484000 0.402459 -0.060706
v -5.484000 0.428138 -0.064773
v -5.484000 0.401520 -0.066632
v -5.484000 0.427200 -0.070699
v -5.500000 0.435052 -0.065868
v -5.500000 0.474560 -0.072126
v -5.500000 0.434114 -0.071794
v -5.500000 0.473621 -0.078052
v -5.498000 0.435052 -0.065868
v -5.498000 0.474560 -0.072126
v -5.498000 0.434114 -0.071794
v -5.498000 0.473621 -0.078052
v -5.500000 0.431829 0.065702
v -5.486000 0.431829 0.065702
v -5.500000 0.423329 0.050980
v -5.486000 0.423329 0.050980
v -5.500000 0.406329 0.050980
v -5.486000 0.406329 0.050980
v -5.500000 0.397829 0.065702
v -5.486000 0.397829 0.065702
v -5.500000 0.406329 0.080425
v -5.486000 0.406329 0.080425
v -5.500000 0.423329 0.080425
v -5.486000 0.423329 0.080425
v -5.486000 0.401520 0.066632
v -5.486000 0.427200 0.070699
v -5.486000 0.402459 0.060706
v -5.486000 0.428138 0.064773
v -5.484000 0.401520 0.066632
v -5.484000 0.427200 0.070699
v -5.484000 0.402459 0.060706
v -5.484000 0.428138 0.064773
v -5.500000 0.434114 0.071794
v -5.500000 0.473621 0.078052
v -5.500000 0.435052 0.065868
v -5.500000 0.474560 0.072126
v -5.498000 0.434114 0.071794
v -5.498000 0.473621 0.078052
v -5.498000 0.435052 0.065868
v -5.498000 0.474560 0.072126
v -5.500000 0.391223 0.190676
v -5.486000 0.391223 0.190676
v -5.500000 0.382723 0.175954
v -5.486000 0.382723 0.175954
v -5.500000 0.365723 0.175954
v -5.486000 0.365723 0.175954
v -5.500000 0.357223 0.190676
v -5.486000 0.357223 0.190676
v -5.500000 0.365723 0.205398
v -5.486000 0.365723 0.205398
v -5.500000 0.382723 0.205398
v -5.486000 0.382723 0.205398
v -5.486000 0.361278 0.187447
v -5.486000 0.384444 0.199251
v -5.486000 0.364002 0.182101
v -5.486000 0.387168 0.193905
v -5.484000 0.361278 0.187447
v -5.484000 0.384444 0.199251
v -5.484000 0.364002 0.182101
v -5.484000 0.387168 0.193905
v -5.500000 0.390681 0.202429
v -5.500000 0.426321 0.220589
v -5.500000 0.393405 0.197083
v -5.500000 0.429045 0.215243
v -5.498000 0.390681 0.202429
v -5.498000 0.426321 0.220589
v -5.498000 0.393405 0.197083
v -5.498000 0.429045 0.215243
v -5.500000 0.313985 0.296985
v -5.486000 0.313985 0.296985
v -5.500000 0.305485 0.282262
v -5.486000 0.305485 0.282262
v -5.500000 0.288485 0.282262
v -5.486000 0.288485 0.282262
v -5.500000 0.279985 0.296985
v -5.486000 0.279985 0.296985
v -5.500000 0.288485 0.311707
v -5.486000 0.288485 0.311707
v -5.500000 0.305485 0.311707
v -5.486000 0.305485 0.311707
v -5.486000 0.285671 0.289914
v -5.486000 0.304056 0.308299
v -5.486000 0.289914 0.285671
v -5.486000 0.308299 0.304056
v -5.484000 0.285671 0.289914
v -5.484000 0.304056 0.308299
v -5.484000 0.289914 0.285671
v -5.484000 0.308299 0.304056
v -5.500000 0.309006 0.313248
v -5.500000 0.337290 0.341533
v -5.500000 0.313248 0.309006
v -5.500000 0.341533 0.337290
v -5.498000 0.309006 0.313248
v -5.498000 0.337290 0.341533
v -5.498000 0.313248 0.309006
v -5.498000 0.341533 0.337290
v -5.500000 0.207676 0.374223
v -5.486000 0.207676 0.374223
v -5.500000 0.199176 0.359500
v -5.486000 0.199176 0.359500
v -5.500000 0.182176 0.359500
v -5.486000 0.182176 0.359500
v -5.500000 0.173676 0.374223
v -5.486000 0.173676 0.374223
v -5.500000 0.182176 0.388945
v -5.486000 0.182176 0.388945
v -5.500000 0.199176 0.388945
v -5.486000 0.199176 0.388945
v -5.486000 0.182101 0.364002
v -5.486000 0.193905 0.387168
v -5.486000 0.187447 0.361278
v -5.486000 0.199251 0.384444
v -5.484000 0.182101 0.364002
v -5.484000 0.193905 0.387168
v -5.484000 0.187447 0.361278
v -5.484000 0.199251 0.384444
v -5.500000 0.197083 0.393405
v -5.500000 0.215242 0.429045
v -5.500000 0.202429 0.390681
v -5.500000 0.220588 0.426321
v -5.498000 0.197083 0.393405
v -5.498000 0.215242 0.429045
v -5.498000 0.202429 0.390681
v -5.498000 0.220588 0.426321
v -5.500000 0.082702 0.414829
v -5.486000 0.082702 0.414829
v -5.500000 0.074202 0.400107
v -5.486000 0.074202 0.400107
v -5.500000 0.057202 0.400107
v -5.486000 0.057202 0.400107
v -5.500000 0.048702 0.414829
v -5.486000 0.048702 0.414829
v -5.500000 0.057202 0.429552
v -5.486000 0.057202 0.429552
v -5.500000 0.074202 0.429552
v -5.486000 0.074202 0.429552
v -5.486000 0.060706 0.402458
v -5.486000 0.064773 0.428138
v -5.486000 0.066632 0.401520
v -5.486000 0.070699 0.427200
v -5.484000 0.060706 0.402458
v -5.484000 0.064773 0.428138
v -5.484000 0.066632 0.401520
v -5.484000 0.070699 0.427200
v -5.500000 0.065868 0.435052
v -5.500000 0.072125 0.474560
v -5.500000 0.071794 0.434114
v -5.500000 0.078052 0.473621
v -5.498000 0.065868 0.435052
v -5.498000 0.072125 0.474560
v -5.498000 0.071794 0.434114
v -5.498000 0.078052 0.473621
vn -0.0000 0.8660 -0.5000
vn -0.0000 -0.0000 -1.0000
vn -0.0000 -0.8660 -0.5000
vn -0.0000 -0.8660 0.5000
vn 1.0000 -0.0000 -0.0000
vn -0.0000 -0.0000 1.0000
vn -0.0000 0.8660 0.5000
vn -1.0000 -0.0000 -0.0000
vn -0.0000 0.9877 0.1564
vn -0.0000 -0.9877 -0.1564
vn -0.0000 0.1564 -0.9877
vn -0.0000 -0.1564 0.9877
vn -0.0000 0.8910 0.4540
vn -0.0000 -0.8910 -0.4540
vn -0.0000 0.4540 -0.8910
vn -0.0000 -0.4540 0.8910
vn -0.0000 0.7071 0.7071
vn -0.0000 -0.7071 -0.7071
vn -0.0000 0.7071 -0.7071
vn -0.0000 -0.7071 0.7071
vn -0.0000 0.4540 0.8910
vn -0.0000 -0.4540 -0.8910
vn -0.0000 0.8910 -0.4540
vn -0.0000 -0.8910 0.4540
vn -0.0000 0.1564 0.9877
vn -0.0000 -0.1564 -0.9877
vn -0.0000 0.9877 -0.1564
vn -0.0000 -0.9877 0.1564
vn -0.0000 -0.1565 -0.9877
vn -0.0000 -0.1565 0.9877
vn -0.0000 0.1565 0.9877
vn -0.0000 0.1565 -0.9877
s 0
usemtl bolt_black
f 2//1 3//1 1//1
f 4//2 5//2 3//2
f 6//3 7//3 5//3
f 8//4 9//4 7//4
f 2//5 10//5 6//5
f 10//6 11//6 9//6
f 12//7 1//7 11//7
f 3//8 7//8 11//8
f 30//1 31//1 29//1
f 32//2 33//2 31//2
f 34//3 35//3 33//3
f 36//4 37//4 35//4
f 30//5 38//5 34//5
f 38//6 39//6 37//6
f 40//7 29//7 39//7
f 31//8 35//8 39//8
f 58//1 59//1 57//1
f 60//2 61//2 59//2
f 62//3 63//3 61//3
f 64//4 65//4 63//4
f 58//5 66//5 62//5
f 66//6 67//6 65//6
f 68//7 57//7 67//7
f 59//8 63//8 67//8
f 86//1 87//1 85//1
f 88//2 89//2 87//2
f 90//3 91//3 89//3
f 92//4 93//4 91//4
f 86//5 94//5 90//5
f 94//6 95//6 93//6
f 96//7 85//7 95//7
f 87//8 91//8 95//8
f 114//1 115//1 113//1
f 116//2 117//2 115//2
f 118//3 119//3 117//3
f 120//4 121//4 119//4
f 114//5 122//5 118//5
f 122//6 123//6 121//6
f 124//7 113//7 123//7
f 115//8 119//8 123//8
f 142//1 143//1 141//1
f 144//2 145//2 143//2
f 146//3 147//3 145//3
f 148//4 149//4 147//4
f 142//5 150//5 146//5
f 150//6 151//6 149//6
f 152//7 141//7 151//7
f 143//8 147//8 151//8
f 170//1 171//1 169//1
f 172//2 173//2 171//2
f 174//3 175//3 173//3
f 176//4 177//4 175//4
f 170//5 178//5 174//5
f 178//6 179//6 177//6
f 180//7 169//7 179//7
f 171//8 175//8 179//8
f 198//1 199//1 197//1
f 200//2 201//2 199//2
f 202//3 203//3 201//3
f 204//4 205//4 203//4
f 198//5 206//5 202//5
f 206//6 207//6 205//6
f 208//7 197//7 207//7
f 199//8 203//8 207//8
f 226//1 227//1 225//1
f 228//2 229//2 227//2
f 230//3 231//3 229//3
f 232//4 233//4 231//4
f 226//5 234//5 230//5
f 234//6 235//6 233//6
f 236//7 225//7 235//7
f 227//8 231//8 235//8
f 254//1 255//1 253//1
f 256//2 257//2 255//2
f 258//3 259//3 257//3
f 260//4 261//4 259//4
f 254//5 262//5 258//5
f 262//6 263//6 261//6
f 264//7 253//7 263//7
f 255//8 259//8 263//8
f 282//1 283//1 281//1
f 284//2 285//2 283//2
f 286//3 287//3 285//3
f 288//4 289//4 287//4
f 282//5 290//5 286//5
f 290//6 291//6 289//6
f 292//7 281//7 291//7
f 283//8 287//8 291//8
f 310//1 311//1 309//1
f 312//2 313//2 311//2
f 314//3 315//3 313//3
f 316//4 317//4 315//4
f 310//5 318//5 314//5
f 318//6 319//6 317//6
f 320//7 309//7 319//7
f 311//8 315//8 319//8
f 338//1 339//1 337//1
f 340//2 341//2 339//2
f 342//3 343//3 341//3
f 344//4 345//4 343//4
f 338//5 346//5 342//5
f 346//6 347//6 345//6
f 348//7 337//7 347//7
f 339//8 343//8 347//8
f 366//1 367//1 365//1
f 368//2 369//2 367//2
f 370//3 371//3 369//3
f 372//4 373//4 371//4
f 366//5 374//5 370//5
f 374//6 375//6 373//6
f 376//7 365//7 375//7
f 367//8 371//8 375//8
f 394//1 395//1 393//1
f 396//2 397//2 395//2
f 398//3 399//3 397//3
f 400//4 401//4 399//4
f 394//5 402//5 398//5
f 402//6 403//6 401//6
f 404//7 393//7 403//7
f 395//8 399//8 403//8
f 422//1 423//1 421//1
f 424//2 425//2 423//2
f 426//3 427//3 425//3
f 428//4 429//4 427//4
f 422//5 430//5 426//5
f 430//6 431//6 429//6
f 432//7 421//7 431//7
f 423//8 427//8 431//8
f 450//1 451//1 449//1
f 452//2 453//2 451//2
f 454//3 455//3 453//3
f 456//4 457//4 455//4
f 450//5 458//5 454//5
f 458//6 459//6 457//6
f 460//7 449//7 459//7
f 451//8 455//8 459//8
f 478//1 479//1 477//1
f 480//2 481//2 479//2
f 482//3 483//3 481//3
f 484//4 485//4 483//4
f 478//5 486//5 482//5
f 486//6 487//6 485//6
f 488//7 477//7 487//7
f 479//8 483//8 487//8
f 506//1 507//1 505//1
f 508//2 509//2 507//2
f 510//3 511//3 509//3
f 512//4 513//4 511//4
f 506//5 514//5 510//5
f 514//6 515//6 513//6
f 516//7 505//7 515//7
f 507//8 511//8 515//8
f 534//1 535//1 533//1
f 536//2 537//2 535//2
f 538//3 539//3 537//3
f 540//4 541//4 539//4
f 534//5 542//5 538//5
f 542//6 543//6 541//6
f 544//7 533//7 543//7
f 535//8 539//8 543//8
f 2//1 4//1 3//1
f 4//2 6//2 5//2
f 6//3 8//3 7//3
f 8//4 10//4 9//4
f 6//5 4//5 2//5
f 2//5 12//5 10//5
f 10//5 8//5 6//5
f 10//6 12//6 11//6
f 12//7 2//7 1//7
f 11//8 1//8 3//8
f 3//8 5//8 7//8
f 7//8 9//8 11//8
f 30//1 32//1 31//1
f 32//2 34//2 33//2
f 34//3 36//3 35//3
f 36//4 38//4 37//4
f 34//5 32//5 30//5
f 30//5 40//5 38//5
f 38//5 36//5 34//5
f 38//6 40//6 39//6
f 40//7 30//7 29//7
f 39//8 29//8 31//8
f 31//8 33//8 35//8
f 35//8 37//8 39//8
f 58//1 60//1 59//1
f 60//2 62//2 61//2
f 62//3 64//3 63//3
f 64//4 66//4 65//4
f 62//5 60//5 58//5
f 58//5 68//5 66//5
f 66//5 64//5 62//5
f 66//6 68//6 67//6
f 68//7 58//7 57//7
f 67//8 57//8 59//8
f 59//8 61//8 63//8
f 63//8 65//8 67//8
f 86//1 88//1 87//1
f 88//2 90//2 89//2
f 90//3 92//3 91//3
f 92//4 94//4 93//4
f 90//5 88//5 86//5
f 86//5 96//5 94//5
f 94//5 92//5 90//5
f 94//6 96//6 95//6
f 96//7 86//7 85//7
f 95//8 85//8 87//8
f 87//8 89//8 91//8
f 91//8 93//8 95//8
f 114//1 116//1 115//1
f 116//2 118//2 117//2
f 118//3 120//3 119//3
f 120//4 122//4 121//4
f 118//5 116//5 114//5
f 114//5 124//5 122//5
f 122//5 120//5 118//5
f 122//6 124//6 123//6
f 124//7 114//7 113//7
f 123//8 113//8 115//8
f 115//8 117//8 119//8
f 119//8 121//8 123//8
f 142//1 144//1 143//1
f 144//2 146//2 145//2
f 146//3 148//3 147//3
f 148//4 150//4 149//4
f 146//5 144//5 142//5
f 142//5 152//5 150//5
f 150//5 148//5 146//5
f 150//6 152//6 151//6
f 152//7 142//7 141//7
f 151//8 141//8 143//8
f 143//8 145//8 147//8
f 147//8 149//8 151//8
f 170//1 172//1 171//1
f 172//2 174//2 173//2
f 174//3 176//3 175//3
f 176//4 178//4 177//4
f 174//5 172//5 170//5
f 170//5 180//5 178//5
f 178//5 176//5 174//5
f 178//6 180//6 179//6
f 180//7 170//7 169//7
f 179//8 169//8 171//8
f 171//8 173//8 175//8
f 175//8 177//8 179//8
f 198//1 200//1 199//1
f 200//2 202//2 201//2
f 202//3 204//3 203//3
f 204//4 206//4 205//4
f 202//5 200//5 198//5
f 198//5 208//5 206//5
f 206//5 204//5 202//5
f 206//6 208//6 207//6
f 208//7 198//7 197//7
f 207//8 197//8 199//8
f 199//8 201//8 203//8
f 203//8 205//8 207//8
f 226//1 228//1 227//1
f 228//2 230//2 229//2
f 230//3 232//3 231//3
f 232//4 234//4 233//4
f 230//5 228//5 226//5
f 226//5 236//5 234//5
f 234//5 232//5 230//5
f 234//6 236//6 235//6
f 236//7 226//7 225//7
f 235//8 225//8 227//8
f 227//8 229//8 231//8
f 231//8 233//8 235//8
f 254//1 256//1 255//1
f 256//2 258//2 257//2
f 258//3 260//3 259//3
f 260//4 262//4 261//4
f 258//5 256//5 254//5
f 254//5 264//5 262//5
f 262//5 260//5 258//5
f 262//6 264//6 263//6
f 264//7 254//7 253//7
f 263//8 253//8 255//8
f 255//8 257//8 259//8
f 259//8 261//8 263//8
f 282//1 284//1 283//1
f 284//2 286//2 285//2
f 286//3 288//3 287//3
f 288//4 290//4 289//4
f 286//5 284//5 282//5
f 282//5 292//5 290//5
f 290//5 288//5 286//5
f 290//6 292//6 291//6
f 292//7 282//7 281//7
f 291//8 281//8 283//8
f 283//8 285//8 287//8
f 287//8 289//8 291//8
f 310//1 312//1 311//1
f 312//2 314//2 313//2
f 314//3 316//3 315//3
f 316//4 318//4 317//4
f 314//5 312//5 310//5
f 310//5 320//5 318//5
f 318//5 316//5 314//5
f 318//6 320//6 319//6
f 320//7 310//7 309//7
f 319//8 309//8 311//8
f 311//8 313//8 315//8
f 315//8 317//8 319//8
f 338//1 340//1 339//1
f 340//2 342//2 341//2
f 342//3 344//3 343//3
f 344//4 346//4 345//4
f 342//5 340//5 338//5
f 338//5 348//5 346//5
f 346//5 344//5 342//5
f 346//6 348//6 347//6
f 348//7 338//7 337//7
f 347//8 337//8 339//8
f 339//8 341//8 343//8
f 343//8 345//8 347//8
f 366//1 368//1 367//1
f 368//2 370//2 369//2
f 370//3 372//3 371//3
f 372//4 374//4 373//4
f 370//5 368//5 366//5
f 366//5 376//5 374//5
f 374//5 372//5 370//5
f 374//6 376//6 375//6
f 376//7 366//7 365//7
f 375//8 365//8 367//8
f 367//8 369//8 371//8
f 371//8 373//8 375//8
f 394//1 396//1 395//1
f 396//2 398//2 397//2
f 398//3 400//3 399//3
f 400//4 402//4 401//4
f 398//5 396//5 394//5
f 394//5 404//5 402//5
f 402//5 400//5 398//5
f 402//6 404//6 403//6
f 404//7 394//7 393//7
f 403//8 393//8 395//8
f 395//8 397//8 399//8
f 399//8 401//8 403//8
f 422//1 424//1 423//1
f 424//2 426//2 425//2
f 426//3 428//3 427//3
f 428//4 430//4 429//4
f 426//5 424//5 422//5
f 422//5 432//5 430//5
f 430//5 428//5 426//5
f 430//6 432//6 431//6
f 432//7 422//7 421//7
f 431//8 421//8 423//8
f 423//8 425//8 427//8
f 427//8 429//8 431//8
f 450//1 452//1 451//1
f 452//2 454//2 453//2
f 454//3 456//3 455//3
f 456//4 458//4 457//4
f 454//5 452//5 450//5
f 450//5 460//5 458//5
f 458//5 456//5 454//5
f 458//6 460//6 459//6
f 460//7 450//7 449//7
f 459//8 449//8 451//8
f 451//8 453//8 455//8
f 455//8 457//8 459//8
f 478//1 480//1 479//1
f 480//2 482//2 481//2
f 482//3 484//3 483//3
f 484//4 486//4 485//4
f 482//5 480//5 478//5
f 478//5 488//5 486//5
f 486//5 484//5 482//5
f 486//6 488//6 487//6
f 488//7 478//7 477//7
f 487//8 477//8 479//8
f 479//8 481//8 483//8
f 483//8 485//8 487//8
f 506//1 508//1 507//1
f 508//2 510//2 509//2
f 510//3 512//3 511//3
f 512//4 514//4 513//4
f 510//5 508//5 506//5
f 506//5 516//5 514//5
f 514//5 512//5 510//5
f 514//6 516//6 515//6
f 516//7 506//7 505//7
f 515//8 505//8 507//8
f 507//8 509//8 511//8
f 511//8 513//8 515//8
f 534//1 536//1 535//1
f 536//2 538//2 537//2
f 538//3 540//3 539//3
f 540//4 542//4 541//4
f 538//5 536//5 534//5
f 534//5 544//5 542//5
f 542//5 540//5 538//5
f 542//6 544//6 543//6
f 544//7 534//7 533//7
f 543//8 533//8 535//8
f 535//8 537//8 539//8
f 539//8 541//8 543//8
usemtl hatch_yellow
f 13//8 16//8 15//8
f 16//9 19//9 15//9
f 20//5 17//5 19//5
f 18//10 13//10 17//10
f 19//11 13//11 15//11
f 16//12 18//12 20//12
f 21//8 24//8 23//8
f 24//9 27//9 23//9
f 28//5 25//5 27//5
f 26//10 21//10 25//10
f 27//11 21//11 23//11
f 24//12 26//12 28//12
f 41//8 44//8 43//8
f 44//13 47//13 43//13
f 48//5 45//5 47//5
f 46//14 41//14 45//14
f 47//15 41//15 43//15
f 44//16 46//16 48//16
f 49//8 52//8 51//8
f 52//13 55//13 51//13
f 56//5 53//5 55//5
f 54//14 49//14 53//14
f 55//15 49//15 51//15
f 52//16 54//16 56//16
f 70//8 71//8 69//8
f 72//17 75//17 71//17
f 76//5 73//5 75//5
f 74//18 69//18 73//18
f 75//19 69//19 71//19
f 72//20 74//20 76//20
f 78//8 79//8 77//8
f 80//17 83//17 79//17
f 84//5 81//5 83//5
f 82//18 77//18 81//18
f 83//19 77//19 79//19
f 80//20 82//20 84//20
f 98//8 99//8 97//8
f 100//21 103//21 99//21
f 103//5 102//5 101//5
f 102//22 97//22 101//22
f 103//23 97//23 99//23
f 100//24 102//24 104//24
f 106//8 107//8 105//8
f 108//21 111//21 107//21
f 111//5 110//5 109//5
f 110//22 105//22 109//22
f 111//23 105//23 107//23
f 108//24 110//24 112//24
f 126//8 127//8 125//8
f 128//25 131//25 127//25
f 131//5 130//5 129//5
f 130//26 125//26 129//26
f 131//27 125//27 127//27
f 128//28 130//28 132//28
f 134//8 135//8 133//8
f 136//25 139//25 135//25
f 139//5 138//5 137//5
f 138//26 133//26 137//26
f 139//27 133//27 135//27
f 136//28 138//28 140//28
f 153//8 156//8 155//8
f 156//12 159//12 155//12
f 160//5 157//5 159//5
f 158//11 153//11 157//11
f 159//9 153//9 155//9
f 156//10 158//10 160//10
f 161//8 164//8 163//8
f 164//12 167//12 163//12
f 168//5 165//5 167//5
f 166//11 161//11 165//11
f 167//9 161//9 163//9
f 164//10 166//10 168//10
f 181//8 184//8 183//8
f 184//16 187//16 183//16
f 188//5 185//5 187//5
f 186//15 181//15 185//15
f 187//13 181//13 183//13
f 184//14 186//14 188//14
f 189//8 192//8 191//8
f 192//16 195//16 191//16
f 196//5 193//5 195//5
f 194//15 189//15 193//15
f 195//13 189//13 191//13
f 192//14 194//14 196//14
f 210//8 211//8 209//8
f 212//20 215//20 211//20
f 215//5 214//5 213//5
f 214//19 209//19 213//19
f 215//17 209//17 211//17
f 212//18 214//18 216//18
f 217//8 220//8 219//8
f 220//20 223//20 219//20
f 223//5 222//5 221//5
f 222//19 217//19 221//19
f 223//17 217//17 219//17
f 220//18 222//18 224//18
f 238//8 239//8 237//8
f 240//24 243//24 239//24
f 243//5 242//5 241//5
f 242//23 237//23 241//23
f 243//21 237//21 239//21
f 240//22 242//22 244//22
f 246//8 247//8 245//8
f 248//24 251//24 247//24
f 251//5 250//5 249//5
f 250//23 245//23 249//23
f 251//21 245//21 247//21
f 248//22 250//22 252//22
f 266//8 267//8 265//8
f 268//28 271//28 267//28
f 271//5 270//5 269//5
f 270//27 265//27 269//27
f 271//25 265//25 267//25
f 268//29 270//29 272//29
f 274//8 275//8 273//8
f 276//28 279//28 275//28
f 279//5 278//5 277//5
f 278//27 273//27 277//27
f 279//25 273//25 275//25
f 276//26 278//26 280//26
f 293//8 296//8 295//8
f 296//10 299//10 295//10
f 300//5 297//5 299//5
f 298//9 293//9 297//9
f 299//30 293//30 295//30
f 296//11 298//11 300//11
f 301//8 304//8 303//8
f 304//10 307//10 303//10
f 308//5 305//5 307//5
f 306//9 301//9 305//9
f 307//12 301//12 303//12
f 304//11 306//11 308//11
f 321//8 324//8 323//8
f 324//14 327//14 323//14
f 328//5 325//5 327//5
f 326//13 321//13 325//13
f 327//16 321//16 323//16
f 324//15 326//15 328//15
f 329//8 332//8 331//8
f 332//14 335//14 331//14
f 336//5 333//5 335//5
f 334//13 329//13 333//13
f 335//16 329//16 331//16
f 332//15 334//15 336//15
f 349//8 352//8 351//8
f 352//18 355//18 351//18
f 356//5 353//5 355//5
f 354//17 349//17 353//17
f 355//20 349//20 351//20
f 352//19 354//19 356//19
f 357//8 360//8 359//8
f 360//18 363//18 359//18
f 363//5 362//5 361//5
f 362//17 357//17 361//17
f 363//20 357//20 359//20
f 360//19 362//19 364//19
f 378//8 379//8 377//8
f 380//22 383//22 379//22
f 383//5 382//5 381//5
f 382//21 377//21 381//21
f 383//24 377//24 379//24
f 380//23 382//23 384//23
f 385//8 388//8 387//8
f 388//22 391//22 387//22
f 392//5 389//5 391//5
f 390//21 385//21 389//21
f 391//24 385//24 387//24
f 388//23 390//23 392//23
f 406//8 407//8 405//8
f 408//26 411//26 407//26
f 411//5 410//5 409//5
f 410//25 405//25 409//25
f 411//28 405//28 407//28
f 408//27 410//27 412//27
f 414//8 415//8 413//8
f 416//26 419//26 415//26
f 420//5 417//5 419//5
f 418//25 413//25 417//25
f 419//28 413//28 415//28
f 416//27 418//27 420//27
f 433//8 436//8 435//8
f 436//11 439//11 435//11
f 440//5 437//5 439//5
f 438//12 433//12 437//12
f 439//10 433//10 435//10
f 436//9 438//9 440//9
f 442//8 443//8 441//8
f 444//11 447//11 443//11
f 448//5 445//5 447//5
f 446//12 441//12 445//12
f 447//10 441//10 443//10
f 444//9 446//9 448//9
f 461//8 464//8 463//8
f 464//15 467//15 463//15
f 468//5 465//5 467//5
f 466//16 461//16 465//16
f 467//14 461//14 463//14
f 464//13 466//13 468//13
f 469//8 472//8 471//8
f 472//15 475//15 471//15
f 476//5 473//5 475//5
f 474//16 469//16 473//16
f 475//14 469//14 471//14
f 472//13 474//13 476//13
f 490//8 491//8 489//8
f 492//19 495//19 491//19
f 496//5 493//5 495//5
f 494//20 489//20 493//20
f 495//18 489//18 491//18
f 492//17 494//17 496//17
f 498//8 499//8 497//8
f 500//19 503//19 499//19
f 504//5 501//5 503//5
f 502//20 497//20 501//20
f 503//18 497//18 499//18
f 500//17 502//17 504//17
f 518//8 519//8 517//8
f 520//23 523//23 519//23
f 523//5 522//5 521//5
f 522//24 517//24 521//24
f 523//22 517//22 519//22
f 520//21 522//21 524//21
f 526//8 527//8 525//8
f 528//23 531//23 527//23
f 531//5 530//5 529//5
f 530//24 525//24 529//24
f 531//22 525//22 527//22
f 528//21 530//21 532//21
f 546//8 547//8 545//8
f 548//27 551//27 547//27
f 551//5 550//5 549//5
f 550//28 545//28 549//28
f 551//26 545//26 547//26
f 548//25 550//25 552//25
f 554//8 555//8 553//8
f 556//27 559//27 555//27
f 559//5 558//5 557//5
f 558//28 553//28 557//28
f 559//26 553//26 555//26
f 556//25 558//25 560//25
f 13//8 14//8 16//8
f 16//9 20//9 19//9
f 20//5 18//5 17//5
f 18//10 14//10 13//10
f 19//11 17//11 13//11
f 16//12 14//12 18//12
f 21//8 22//8 24//8
f 24//9 28//9 27//9
f 28//5 26//5 25//5
f 26//10 22//10 21//10
f 27//11 25//11 21//11
f 24//12 22//12 26//12
f 41//8 42//8 44//8
f 44//13 48//13 47//13
f 48//5 46//5 45//5
f 46//14 42//14 41//14
f 47//15 45//15 41//15
f 44//16 42//16 46//16
f 49//8 50//8 52//8
f 52//13 56//13 55//13
f 56//5 54//5 53//5
f 54//14 50//14 49//14
f 55//15 53//15 49//15
f 52//16 50//16 54//16
f 70//8 72//8 71//8
f 72//17 76//17 75//17
f 76//5 74//5 73//5
f 74//18 70//18 69//18
f 75//19 73//19 69//19
f 72//20 70//20 74//20
f 78//8 80//8 79//8
f 80//17 84//17 83//17
f 84//5 82//5 81//5
f 82//18 78//18 77//18
f 83//19 81//19 77//19
f 80//20 78//20 82//20
f 98//8 100//8 99//8
f 100//21 104//21 103//21
f 103//5 104//5 102//5
f 102//22 98//22 97//22
f 103//23 101//23 97//23
f 100//24 98//24 102//24
f 106//8 108//8 107//8
f 108//21 112//21 111//21
f 111//5 112//5 110//5
f 110//22 106//22 105//22
f 111//23 109//23 105//23
f 108//24 106//24 110//24
f 126//8 128//8 127//8
f 128//25 132//25 131//25
f 131//5 132//5 130//5
f 130//26 126//26 125//26
f 131//27 129//27 125//27
f 128//28 126//28 130//28
f 134//8 136//8 135//8
f 136//25 140//25 139//25
f 139//5 140//5 138//5
f 138//26 134//26 133//26
f 139//27 137//27 133//27
f 136//28 134//28 138//28
f 153//8 154//8 156//8
f 156//12 160//12 159//12
f 160//5 158//5 157//5
f 158//11 154//11 153//11
f 159//9 157//9 153//9
f 156//10 154//10 158//10
f 161//8 162//8 164//8
f 164//12 168//12 167//12
f 168//5 166//5 165//5
f 166//11 162//11 161//11
f 167//9 165//9 161//9
f 164//10 162//10 166//10
f 181//8 182//8 184//8
f 184//16 188//16 187//16
f 188//5 186//5 185//5
f 186//15 182//15 181//15
f 187//13 185//13 181//13
f 184//14 182//14 186//14
f 189//8 190//8 192//8
f 192//16 196//16 195//16
f 196//5 194//5 193//5
f 194//15 190//15 189//15
f 195//13 193//13 189//13
f 192//14 190//14 194//14
f 210//8 212//8 211//8
f 212//20 216//20 215//20
f 215//5 216//5 214//5
f 214//19 210//19 209//19
f 215//17 213//17 209//17
f 212//18 210//18 214//18
f 217//8 218//8 220//8
f 220//20 224//20 223//20
f 223//5 224//5 222//5
f 222//19 218//19 217//19
f 223//17 221//17 217//17
f 220//18 218//18 222//18
f 238//8 240//8 239//8
f 240//24 244//24 243//24
f 243//5 244//5 242//5
f 242//23 238//23 237//23
f 243//21 241//21 237//21
f 240//22 238//22 242//22
f 246//8 248//8 247//8
f 248//24 252//24 251//24
f 251//5 252//5 250//5
f 250//23 246//23 245//23
f 251//21 249//21 245//21
f 248//22 246//22 250//22
f 266//8 268//8 267//8
f 268//28 272//28 271//28
f 271//5 272//5 270//5
f 270//27 266//27 265//27
f 271//31 269//31 265//31
f 268//26 266//26 270//26
f 274//8 276//8 275//8
f 276//28 280//28 279//28
f 279//5 280//5 278//5
f 278//27 274//27 273//27
f 279//25 277//25 273//25
f 276//26 274//26 278//26
f 293//8 294//8 296//8
f 296//10 300//10 299//10
f 300//5 298//5 297//5
f 298//9 294//9 293//9
f 299//12 297//12 293//12
f 296//32 294//32 298//32
f 301//8 302//8 304//8
f 304//10 308//10 307//10
f 308//5 306//5 305//5
f 306//9 302//9 301//9
f 307//12 305//12 301//12
f 304//11 302//11 306//11
f 321//8 322//8 324//8
f 324//14 328//14 327//14
f 328//5 326//5 325//5
f 326//13 322//13 321//13
f 327//16 325//16 321//16
f 324//15 322//15 326//15
f 329//8 330//8 332//8
f 332//14 336//14 335//14
f 336//5 334//5 333//5
f 334//13 330//13 329//13
f 335//16 333//16 329//16
f 332//15 330//15 334//15
f 349//8 350//8 352//8
f 352//18 356//18 355//18
f 356//5 354//5 353//5
f 354//17 350//17 349//17
f 355//20 353//20 349//20
f 352//19 350//19 354//19
f 357//8 358//8 360//8
f 360//18 364//18 363//18
f 363//5 364//5 362//5
f 362//17 358//17 357//17
f 363//20 361//20 357//20
f 360//19 358//19 362//19
f 378//8 380//8 379//8
f 380//22 384//22 383//22
f 383//5 384//5 382//5
f 382//21 378//21 377//21
f 383//24 381//24 377//24
f 380//23 378//23 382//23
f 385//8 386//8 388//8
f 388//22 392//22 391//22
f 392//5 390//5 389//5
f 390//21 386//21 385//21
f 391//24 389//24 385//24
f 388//23 386//23 390//23
f 406//8 408//8 407//8
f 408//26 412//26 411//26
f 411//5 412//5 410//5
f 410//25 406//25 405//25
f 411//28 409//28 405//28
f 408//27 406//27 410//27
f 414//8 416//8 415//8
f 416//26 420//26 419//26
f 420//5 418//5 417//5
f 418//25 414//25 413//25
f 419//28 417//28 413//28
f 416//27 414//27 418//27
f 433//8 434//8 436//8
f 436//11 440//11 439//11
f 440//5 438//5 437//5
f 438//12 434//12 433//12
f 439//10 437//10 433//10
f 436//9 434//9 438//9
f 442//8 444//8 443//8
f 444//11 448//11 447//11
f 448//5 446//5 445//5
f 446//12 442//12 441//12
f 447//10 445//10 441//10
f 444//9 442//9 446//9
f 461//8 462//8 464//8
f 464//15 468//15 467//15
f 468//5 466//5 465//5
f 466//16 462//16 461//16
f 467//14 465//14 461//14
f 464//13 462//13 466//13
f 469//8 470//8 472//8
f 472//15 476//15 475//15
f 476//5 474//5 473//5
f 474//16 470//16 469//16
f 475//14 473//14 469//14
f 472//13 470//13 474//13
f 490//8 492//8 491//8
f 492//19 496//19 495//19
f 496//5 494//5 493//5
f 494//20 490//20 489//20
f 495//18 493//18 489//18
f 492//17 490//17 494//17
f 498//8 500//8 499//8
f 500//19 504//19 503//19
f 504//5 502//5 501//5
f 502//20 498//20 497//20
f 503//18 501//18 497//18
f 500//17 498//17 502//17
f 518//8 520//8 519//8
f 520//23 524//23 523//23
f 523//5 524//5 522//5
f 522//24 518//24 517//24
f 523//22 521//22 517//22
f 520//21 518//21 522//21
f 526//8 528//8 527//8
f 528//23 532//23 531//23
f 531//5 532//5 530//5
f 530//24 526//24 525//24
f 531//22 529//22 525//22
f 528//21 526//21 530//21
f 546//8 548//8 547//8
f 548//27 552//27 551//27
f 551//5 552//5 550//5
f 550//28 546//28 545//28
f 551//26 549//26 545//26
f 548//25 546//25 550//25
f 554//8 556//8 555//8
f 556//27 560//27 559//27
f 559//5 560//5 558//5
f 558//28 554//28 553//28
f 559//26 557//26 553//26
f 556//25 554//25 558//25
