# Blender 5.2.2 LTS
# www.blender.org
mtllib technician.mtl
o technician
v -0.100000 -0.070000 0.050000
v -0.100000 -0.070000 0.880000
v -0.126788 -0.064672 0.050000
v -0.126788 -0.064672 0.880000
v -0.149497 -0.049497 0.050000
v -0.149497 -0.049497 0.880000
v -0.164672 -0.026788 0.050000
v -0.164672 -0.026788 0.880000
v -0.170000 -0.000000 0.050000
v -0.170000 -0.000000 0.880000
v -0.164672 0.026788 0.050000
v -0.164672 0.026788 0.880000
v -0.149497 0.049497 0.050000
v -0.149497 0.049497 0.880000
v -0.126788 0.064672 0.050000
v -0.126788 0.064672 0.880000
v -0.100000 0.070000 0.050000
v -0.100000 0.070000 0.880000
v -0.073212 0.064672 0.050000
v -0.073212 0.064672 0.880000
v -0.050503 0.049497 0.050000
v -0.050503 0.049497 0.880000
v -0.035328 0.026788 0.050000
v -0.035328 0.026788 0.880000
v -0.030000 0.000000 0.050000
v -0.030000 0.000000 0.880000
v -0.035328 -0.026788 0.050000
v -0.035328 -0.026788 0.880000
v -0.050503 -0.049497 0.050000
v -0.050503 -0.049497 0.880000
v -0.073212 -0.064672 0.050000
v -0.073212 -0.064672 0.880000
v -0.160000 -0.060000 0.000000
v -0.160000 -0.060000 0.080000
v -0.160000 0.140000 0.000000
v -0.160000 0.140000 0.080000
v -0.040000 -0.060000 0.000000
v -0.040000 -0.060000 0.080000
v -0.040000 0.140000 0.000000
v -0.040000 0.140000 0.080000
v -0.224005 0.048060 1.433198
v -0.234005 0.168060 0.993198
v -0.248382 0.039545 1.431430
v -0.258382 0.159545 0.991430
v -0.265154 0.020434 1.426599
v -0.275154 0.140434 0.986599
v -0.269827 -0.004152 1.420000
v -0.279827 0.115848 0.980000
v -0.261149 -0.027626 1.413401
v -0.271149 0.092374 0.973401
v -0.241445 -0.043697 1.408570
v -0.251445 0.076303 0.968570
v -0.215995 -0.048060 1.406802
v -0.225995 0.071940 0.966802
v -0.191618 -0.039545 1.408570
v -0.201618 0.080455 0.968570
v -0.174846 -0.020434 1.413401
v -0.184846 0.099566 0.973401
v -0.170173 0.004152 1.420000
v -0.180173 0.124152 0.980000
v -0.178851 0.027626 1.426599
v -0.188851 0.147626 0.986599
v -0.198555 0.043697 1.431430
v -0.208555 0.163697 0.991430
v 0.100000 -0.070000 0.050000
v 0.100000 -0.070000 0.880000
v 0.073212 -0.064672 0.050000
v 0.073212 -0.064672 0.880000
v 0.050503 -0.049497 0.050000
v 0.050503 -0.049497 0.880000
v 0.035328 -0.026788 0.050000
v 0.035328 -0.026788 0.880000
v 0.030000 -0.000000 0.050000
v 0.030000 -0.000000 0.880000
v 0.035328 0.026788 0.050000
v 0.035328 0.026788 0.880000
v 0.050503 0.049497 0.050000
v 0.050503 0.049497 0.880000
v 0.073212 0.064672 0.050000
v 0.073212 0.064672 0.880000
v 0.100000 0.070000 0.050000
v 0.100000 0.070000 0.880000
v 0.126788 0.064672 0.050000
v 0.126788 0.064672 0.880000
v 0.149497 0.049497 0.050000
v 0.149497 0.049497 0.880000
v 0.164672 0.026788 0.050000
v 0.164672 0.026788 0.880000
v 0.170000 0.000000 0.050000
v 0.170000 0.000000 0.880000
v 0.164672 -0.026788 0.050000
v 0.164672 -0.026788 0.880000
v 0.149497 -0.049497 0.050000
v 0.149497 -0.049497 0.880000
v 0.126788 -0.064672 0.050000
v 0.126788 -0.064672 0.880000
v 0.040000 -0.060000 0.000000
v 0.040000 -0.060000 0.080000
v 0.040000 0.140000 0.000000
v 0.040000 0.140000 0.080000
v 0.160000 -0.060000 0.000000
v 0.160000 -0.060000 0.080000
v 0.160000 0.140000 0.000000
v 0.160000 0.140000 0.080000
v 0.224005 0.048060 1.433198
v 0.234005 0.168060 0.993198
v 0.198555 0.043697 1.431430
v 0.208555 0.163697 0.991430
v 0.178851 0.027626 1.426599
v 0.188851 0.147626 0.986599
v 0.170173 0.004152 1.420000
v 0.180173 0.124152 0.980000
v 0.174846 -0.020434 1.413401
v 0.184846 0.099566 0.973401
v 0.191618 -0.039545 1.408570
v 0.201618 0.080455 0.968570
v 0.215995 -0.048060 1.406802
v 0.225995 0.071940 0.966802
v 0.241445 -0.043697 1.408570
v 0.251445 0.076303 0.968570
v 0.261149 -0.027626 1.413401
v 0.271149 0.092374 0.973401
v 0.269827 -0.004152 1.420000
v 0.279827 0.115848 0.980000
v 0.265154 0.020434 1.426599
v 0.275154 0.140434 0.986599
v 0.248382 0.039545 1.431430
v 0.258382 0.159545 0.991430
v -0.190000 -0.110000 0.850000
v -0.190000 -0.110000 1.480000
v -0.190000 0.110000 0.850000
v -0.190000 0.110000 1.480000
v 0.190000 -0.110000 0.850000
v 0.190000 -0.110000 1.480000
v 0.190000 0.110000 0.850000
v 0.190000 0.110000 1.480000
v -0.200000 -0.115000 1.050000
v -0.200000 -0.115000 1.100000
v -0.200000 0.115000 1.050000
v -0.200000 0.115000 1.100000
v 0.200000 -0.115000 1.050000
v 0.200000 -0.115000 1.100000
v 0.200000 0.115000 1.050000
v 0.200000 0.115000 1.100000
v 0.000000 0.000000 1.710000
v 0.000000 0.021460 1.707886
v 0.000000 0.061113 1.691462
v 0.000000 0.077782 1.677782
v 0.000000 0.101627 1.642095
v 0.000000 0.110000 1.600000
v 0.000000 0.107886 1.578540
v 0.000000 0.091462 1.538887
v 0.000000 0.061113 1.508538
v 0.000000 0.000000 1.490000
v 0.004187 0.021048 1.707886
v 0.008212 0.041286 1.701627
v 0.011923 0.059938 1.691462
v 0.015174 0.076287 1.677782
v 0.017843 0.089704 1.661113
v 0.019826 0.099674 1.642095
v 0.021048 0.105813 1.621460
v 0.021460 0.107886 1.600000
v 0.021048 0.105813 1.578540
v 0.019826 0.099674 1.557905
v 0.017843 0.089704 1.538887
v 0.015174 0.076287 1.522218
v 0.011923 0.059938 1.508538
v 0.008212 0.041286 1.498373
v 0.004187 0.021048 1.492114
v 0.008212 0.019826 1.707886
v 0.016109 0.038891 1.701627
v 0.023387 0.056461 1.691462
v 0.029766 0.071861 1.677782
v 0.035001 0.084500 1.661113
v 0.038891 0.093891 1.642095
v 0.041286 0.099674 1.621460
v 0.042095 0.101627 1.600000
v 0.041286 0.099674 1.578540
v 0.038891 0.093891 1.557905
v 0.035001 0.084500 1.538887
v 0.029766 0.071861 1.522218
v 0.023387 0.056461 1.508538
v 0.016109 0.038891 1.498373
v 0.008212 0.019826 1.492114
v 0.011923 0.017843 1.707886
v 0.023387 0.035001 1.701627
v 0.033952 0.050813 1.691462
v 0.043213 0.064673 1.677782
v 0.050813 0.076048 1.661113
v 0.056461 0.084500 1.642095
v 0.059938 0.089704 1.621460
v 0.061113 0.091462 1.600000
v 0.059938 0.089704 1.578540
v 0.056461 0.084500 1.557905
v 0.050813 0.076048 1.538887
v 0.043213 0.064673 1.522218
v 0.033952 0.050813 1.508538
v 0.023387 0.035001 1.498373
v 0.011923 0.017843 1.492114
v 0.015174 0.015174 1.707886
v 0.029766 0.029766 1.701627
v 0.043213 0.043213 1.691462
v 0.055000 0.055000 1.677782
v 0.064673 0.064673 1.661113
v 0.071861 0.071861 1.642095
v 0.076287 0.076287 1.621460
v 0.077782 0.077782 1.600000
v 0.076287 0.076287 1.578540
v 0.071861 0.071861 1.557905
v 0.064673 0.064673 1.538887
v 0.055000 0.055000 1.522218
v 0.043213 0.043213 1.508538
v 0.029766 0.029766 1.498373
v 0.015174 0.015174 1.492114
v 0.017843 0.011922 1.707886
v 0.035001 0.023387 1.701627
v 0.050813 0.033952 1.691462
v 0.064673 0.043213 1.677782
v 0.076048 0.050813 1.661113
v 0.084500 0.056461 1.642095
v 0.089704 0.059938 1.621460
v 0.091462 0.061113 1.600000
v 0.089704 0.059938 1.578540
v 0.084500 0.056461 1.557905
v 0.076048 0.050813 1.538887
v 0.064673 0.043213 1.522218
v 0.050813 0.033952 1.508538
v 0.035001 0.023387 1.498373
v 0.017843 0.011922 1.492114
v 0.019826 0.008212 1.707886
v 0.038891 0.016109 1.701627
v 0.056461 0.023387 1.691462
v 0.071861 0.029766 1.677782
v 0.084500 0.035001 1.661113
v 0.093891 0.038891 1.642095
v 0.099674 0.041286 1.621460
v 0.101627 0.042095 1.600000
v 0.099674 0.041286 1.578540
v 0.093891 0.038891 1.557905
v 0.084500 0.035001 1.538887
v 0.071861 0.029766 1.522218
v 0.056461 0.023387 1.508538
v 0.038891 0.016109 1.498373
v 0.019826 0.008212 1.492114
v 0.021048 0.004187 1.707886
v 0.041286 0.008212 1.701627
v 0.059938 0.011922 1.691462
v 0.076287 0.015174 1.677782
v 0.089704 0.017843 1.661113
v 0.099674 0.019826 1.642095
v 0.105813 0.021048 1.621460
v 0.107886 0.021460 1.600000
v 0.105813 0.021048 1.578540
v 0.099674 0.019826 1.557905
v 0.089704 0.017843 1.538887
v 0.076287 0.015174 1.522218
v 0.059938 0.011922 1.508538
v 0.041286 0.008212 1.498373
v 0.021048 0.004187 1.492114
v 0.021460 -0.000000 1.707886
v 0.042095 -0.000000 1.701627
v 0.061113 -0.000000 1.691462
v 0.077782 -0.000000 1.677782
v 0.091462 -0.000000 1.661113
v 0.101627 -0.000000 1.642095
v 0.107886 -0.000000 1.621460
v 0.110000 -0.000000 1.600000
v 0.107886 -0.000000 1.578540
v 0.101627 -0.000000 1.557905
v 0.091462 -0.000000 1.538887
v 0.077782 -0.000000 1.522218
v 0.061113 -0.000000 1.508538
v 0.042095 -0.000000 1.498373
v 0.021460 -0.000000 1.492114
v 0.021048 -0.004187 1.707886
v 0.041286 -0.008212 1.701627
v 0.059938 -0.011923 1.691462
v 0.076287 -0.015174 1.677782
v 0.089704 -0.017843 1.661113
v 0.099674 -0.019826 1.642095
v 0.105813 -0.021048 1.621460
v 0.107886 -0.021460 1.600000
v 0.105813 -0.021048 1.578540
v 0.099674 -0.019826 1.557905
v 0.089704 -0.017843 1.538887
v 0.076287 -0.015174 1.522218
v 0.059938 -0.011923 1.508538
v 0.041286 -0.008212 1.498373
v 0.021048 -0.004187 1.492114
v 0.019826 -0.008212 1.707886
v 0.038891 -0.016109 1.701627
v 0.056461 -0.023387 1.691462
v 0.071861 -0.029766 1.677782
v 0.084500 -0.035001 1.661113
v 0.093891 -0.038891 1.642095
v 0.099674 -0.041286 1.621460
v 0.101627 -0.042095 1.600000
v 0.099674 -0.041286 1.578540
v 0.093891 -0.038891 1.557905
v 0.084500 -0.035001 1.538887
v 0.071861 -0.029766 1.522218
v 0.056461 -0.023387 1.508538
v 0.038891 -0.016109 1.498373
v 0.019826 -0.008212 1.492114
v 0.017843 -0.011922 1.707886
v 0.035001 -0.023387 1.701627
v 0.050813 -0.033952 1.691462
v 0.064673 -0.043213 1.677782
v 0.076048 -0.050813 1.661113
v 0.084500 -0.056461 1.642095
v 0.089704 -0.059938 1.621460
v 0.091462 -0.061113 1.600000
v 0.089704 -0.059938 1.578540
v 0.084500 -0.056461 1.557905
v 0.076048 -0.050813 1.538887
v 0.064673 -0.043213 1.522218
v 0.050813 -0.033952 1.508538
v 0.035001 -0.023387 1.498373
v 0.017843 -0.011922 1.492114
v 0.015174 -0.015174 1.707886
v 0.029766 -0.029766 1.701627
v 0.043213 -0.043213 1.691462
v 0.055000 -0.055000 1.677782
v 0.064673 -0.064673 1.661113
v 0.071861 -0.071861 1.642095
v 0.076287 -0.076287 1.621460
v 0.077782 -0.077782 1.600000
v 0.076287 -0.076287 1.578540
v 0.071861 -0.071861 1.557905
v 0.064673 -0.064673 1.538887
v 0.055000 -0.055000 1.522218
v 0.043213 -0.043213 1.508538
v 0.029766 -0.029766 1.498373
v 0.015174 -0.015174 1.492114
v 0.011922 -0.017843 1.707886
v 0.023387 -0.035001 1.701627
v 0.033952 -0.050813 1.691462
v 0.043213 -0.064673 1.677782
v 0.050813 -0.076048 1.661113
v 0.056461 -0.084500 1.642095
v 0.059938 -0.089704 1.621460
v 0.061113 -0.091462 1.600000
v 0.059938 -0.089704 1.578540
v 0.056461 -0.084500 1.557905
v 0.050813 -0.076048 1.538887
v 0.043213 -0.064673 1.522218
v 0.033952 -0.050813 1.508538
v 0.023387 -0.035001 1.498373
v 0.011922 -0.017843 1.492114
v 0.008212 -0.019826 1.707886
v 0.016109 -0.038891 1.701627
v 0.023387 -0.056461 1.691462
v 0.029766 -0.071861 1.677782
v 0.035001 -0.084500 1.661113
v 0.038891 -0.093891 1.642095
v 0.041286 -0.099674 1.621460
v 0.042095 -0.101627 1.600000
v 0.041286 -0.099674 1.578540
v 0.038891 -0.093891 1.557905
v 0.035001 -0.084500 1.538887
v 0.029766 -0.071861 1.522218
v 0.023387 -0.056461 1.508538
v 0.016109 -0.038891 1.498373
v 0.008212 -0.019826 1.492114
v 0.004187 -0.021048 1.707886
v 0.008212 -0.041286 1.701627
v 0.011922 -0.059938 1.691462
v 0.015174 -0.076287 1.677782
v 0.017843 -0.089704 1.661113
v 0.019826 -0.099674 1.642095
v 0.021048 -0.105813 1.621460
v 0.021460 -0.107886 1.600000
v 0.021048 -0.105813 1.578540
v 0.019826 -0.099674 1.557905
v 0.017843 -0.089704 1.538887
v 0.015174 -0.076287 1.522218
v 0.011922 -0.059938 1.508538
v 0.008212 -0.041286 1.498373
v 0.004187 -0.021048 1.492114
v -0.000000 -0.021460 1.707886
v -0.000000 -0.042095 1.701627
v -0.000000 -0.061113 1.691462
v -0.000000 -0.077782 1.677782
v -0.000000 -0.091462 1.661113
v -0.000000 -0.101627 1.642095
v -0.000000 -0.107886 1.621460
v -0.000000 -0.110000 1.600000
v -0.000000 -0.107886 1.578540
v -0.000000 -0.101627 1.557905
v -0.000000 -0.091462 1.538887
v -0.000000 -0.077782 1.522218
v -0.000000 -0.061113 1.508538
v -0.000000 -0.042095 1.498373
v -0.000000 -0.021460 1.492114
v -0.004187 -0.021048 1.707886
v -0.008212 -0.041286 1.701627
v -0.011923 -0.059938 1.691462
v -0.015174 -0.076287 1.677782
v -0.017843 -0.089704 1.661113
v -0.019826 -0.099674 1.642095
v -0.021048 -0.105813 1.621460
v -0.021460 -0.107886 1.600000
v -0.021048 -0.105813 1.578540
v -0.019826 -0.099674 1.557905
v -0.017843 -0.089704 1.538887
v -0.015174 -0.076287 1.522218
v -0.011923 -0.059938 1.508538
v -0.008212 -0.041286 1.498373
v -0.004187 -0.021048 1.492114
v -0.008212 -0.019826 1.707886
v -0.016109 -0.038891 1.701627
v -0.023387 -0.056461 1.691462
v -0.029766 -0.071861 1.677782
v -0.035001 -0.084499 1.661113
v -0.038891 -0.093891 1.642095
v -0.041286 -0.099674 1.621460
v -0.042095 -0.101627 1.600000
v -0.041286 -0.099674 1.578540
v -0.038891 -0.093891 1.557905
v -0.035001 -0.084499 1.538887
v -0.029766 -0.071861 1.522218
v -0.023387 -0.056461 1.508538
v -0.016109 -0.038891 1.498373
v -0.008212 -0.019826 1.492114
v -0.011922 -0.017843 1.707886
v -0.023387 -0.035001 1.701627
v -0.033952 -0.050813 1.691462
v -0.043213 -0.064673 1.677782
v -0.050813 -0.076048 1.661113
v -0.056461 -0.084500 1.642095
v -0.059938 -0.089704 1.621460
v -0.061113 -0.091462 1.600000
v -0.059938 -0.089704 1.578540
v -0.056461 -0.084500 1.557905
v -0.050813 -0.076048 1.538887
v -0.043213 -0.064673 1.522218
v -0.033952 -0.050813 1.508538
v -0.023387 -0.035001 1.498373
v -0.011922 -0.017843 1.492114
v -0.015174 -0.015174 1.707886
v -0.029766 -0.029766 1.701627
v -0.043213 -0.043213 1.691462
v -0.055000 -0.055000 1.677782
v -0.064673 -0.064673 1.661113
v -0.071861 -0.071861 1.642095
v -0.076287 -0.076287 1.621460
v -0.077782 -0.077782 1.600000
v -0.076287 -0.076287 1.578540
v -0.071861 -0.071861 1.557905
v -0.064673 -0.064673 1.538887
v -0.055000 -0.055000 1.522218
v -0.043213 -0.043213 1.508538
v -0.029766 -0.029766 1.498373
v -0.015174 -0.015174 1.492114
v -0.017843 -0.011922 1.707886
v -0.035001 -0.023387 1.701627
v -0.050813 -0.033952 1.691462
v -0.064673 -0.043213 1.677782
v -0.076048 -0.050813 1.661113
v -0.084500 -0.056461 1.642095
v -0.089704 -0.059938 1.621460
v -0.091462 -0.061113 1.600000
v -0.089704 -0.059938 1.578540
v -0.084500 -0.056461 1.557905
v -0.076048 -0.050813 1.538887
v -0.064673 -0.043213 1.522218
v -0.050813 -0.033952 1.508538
v -0.035001 -0.023387 1.498373
v -0.017843 -0.011922 1.492114
v -0.019826 -0.008212 1.707886
v -0.038891 -0.016109 1.701627
v -0.056461 -0.023387 1.691462
v -0.071861 -0.029766 1.677782
v -0.084499 -0.035001 1.661113
v -0.093891 -0.038891 1.642095
v -0.099674 -0.041286 1.621460
v -0.101627 -0.042095 1.600000
v -0.099674 -0.041286 1.578540
v -0.093891 -0.038891 1.557905
v -0.084499 -0.035001 1.538887
v -0.071861 -0.029766 1.522218
v -0.056461 -0.023387 1.508538
v -0.038891 -0.016109 1.498373
v -0.019826 -0.008212 1.492114
v -0.021048 -0.004187 1.707886
v -0.041286 -0.008212 1.701627
v -0.059938 -0.011922 1.691462
v -0.076287 -0.015174 1.677782
v -0.089704 -0.017843 1.661113
v -0.099674 -0.019826 1.642095
v -0.105813 -0.021048 1.621460
v -0.107886 -0.021460 1.600000
v -0.105813 -0.021048 1.578540
v -0.099674 -0.019826 1.557905
v -0.089704 -0.017843 1.538887
v -0.076287 -0.015174 1.522218
v -0.059938 -0.011922 1.508538
v -0.041286 -0.008212 1.498373
v -0.021048 -0.004187 1.492114
v -0.021460 0.000000 1.707886
v -0.042095 0.000000 1.701627
v -0.061113 0.000000 1.691462
v -0.077782 0.000000 1.677782
v -0.091462 0.000000 1.661113
v -0.101627 0.000000 1.642095
v -0.107886 0.000000 1.621460
v -0.110000 0.000000 1.600000
v -0.107886 0.000000 1.578540
v -0.101627 0.000000 1.557905
v -0.091462 0.000000 1.538887
v -0.077782 0.000000 1.522218
v -0.061113 0.000000 1.508538
v -0.042095 0.000000 1.498373
v -0.021460 0.000000 1.492114
v -0.021048 0.004187 1.707886
v -0.041286 0.008212 1.701627
v -0.059938 0.011923 1.691462
v -0.076287 0.015174 1.677782
v -0.089704 0.017843 1.661113
v -0.099674 0.019826 1.642095
v -0.105813 0.021048 1.621460
v -0.107886 0.021460 1.600000
v -0.105813 0.021048 1.578540
v -0.099674 0.019826 1.557905
v -0.089704 0.017843 1.538887
v -0.076287 0.015174 1.522218
v -0.059938 0.011923 1.508538
v -0.041286 0.008212 1.498373
v -0.021048 0.004187 1.492114
v -0.019826 0.008212 1.707886
v -0.038891 0.016109 1.701627
v -0.056461 0.023387 1.691462
v -0.071861 0.029766 1.677782
v -0.084499 0.035001 1.661113
v -0.093891 0.038891 1.642095
v -0.099674 0.041286 1.621460
v -0.101627 0.042095 1.600000
v -0.099674 0.041286 1.578540
v -0.093891 0.038891 1.557905
v -0.084499 0.035001 1.538887
v -0.071861 0.029766 1.522218
v -0.056461 0.023387 1.508538
v -0.038891 0.016109 1.498373
v -0.019826 0.008212 1.492114
v -0.017843 0.011922 1.707886
v -0.035001 0.023387 1.701627
v -0.050813 0.033952 1.691462
v -0.064673 0.043213 1.677782
v -0.076048 0.050813 1.661113
v -0.084499 0.056461 1.642095
v -0.089704 0.059938 1.621460
v -0.091462 0.061113 1.600000
v -0.089704 0.059938 1.578540
v -0.084499 0.056461 1.557905
v -0.076048 0.050813 1.538887
v -0.064673 0.043213 1.522218
v -0.050813 0.033952 1.508538
v -0.035001 0.023387 1.498373
v -0.017843 0.011922 1.492114
v -0.015174 0.015174 1.707886
v -0.029766 0.029766 1.701627
v -0.043213 0.043213 1.691462
v -0.055000 0.055000 1.677782
v -0.064673 0.064673 1.661113
v -0.071861 0.071861 1.642095
v -0.076287 0.076287 1.621460
v -0.077782 0.077782 1.600000
v -0.076287 0.076287 1.578540
v -0.071861 0.071861 1.557905
v -0.064673 0.064673 1.538887
v -0.055000 0.055000 1.522218
v -0.043213 0.043213 1.508538
v -0.029766 0.029766 1.498373
v -0.015174 0.015174 1.492114
v -0.011922 0.017843 1.707886
v -0.023387 0.035001 1.701627
v -0.033952 0.050813 1.691462
v -0.043213 0.064673 1.677782
v -0.050813 0.076048 1.661113
v -0.056461 0.084500 1.642095
v -0.059938 0.089704 1.621460
v -0.061113 0.091462 1.600000
v -0.059938 0.089704 1.578540
v -0.056461 0.084500 1.557905
v -0.050813 0.076048 1.538887
v -0.043213 0.064673 1.522218
v -0.033952 0.050813 1.508538
v -0.023387 0.035001 1.498373
v -0.011922 0.017843 1.492114
v -0.008212 0.019826 1.707886
v -0.016109 0.038891 1.701627
v -0.023387 0.056461 1.691462
v -0.029766 0.071861 1.677782
v -0.035001 0.084499 1.661113
v -0.038891 0.093891 1.642095
v -0.041286 0.099674 1.621460
v -0.042095 0.101627 1.600000
v -0.041286 0.099674 1.578540
v -0.038891 0.093891 1.557905
v -0.035001 0.084499 1.538887
v -0.029766 0.071861 1.522218
v -0.023387 0.056461 1.508538
v -0.016109 0.038891 1.498373
v -0.008212 0.019826 1.492114
v -0.004187 0.021048 1.707886
v -0.008212 0.041286 1.701627
v -0.011922 0.059938 1.691462
v -0.015174 0.076287 1.677782
v -0.017843 0.089704 1.661113
v -0.019826 0.099674 1.642095
v -0.021048 0.105813 1.621460
v -0.021460 0.107886 1.600000
v -0.021048 0.105813 1.578540
v -0.019826 0.099674 1.557905
v -0.017843 0.089704 1.538887
v -0.015174 0.076287 1.522218
v -0.011922 0.059938 1.508538
v -0.008212 0.041286 1.498373
v -0.004187 0.021048 1.492114
v 0.000000 0.042095 1.701627
v 0.000000 0.091462 1.661113
v 0.000000 0.107886 1.621460
v 0.000000 0.101627 1.557905
v 0.000000 0.077782 1.522218
v 0.000000 0.042095 1.498373
v 0.000000 0.021460 1.492114
v 0.000000 0.010000 1.785000
v 0.000000 0.079446 1.763934
v 0.000000 0.113934 1.729446
v 0.000000 0.132598 1.684386
v 0.000000 0.135000 1.660000
v 0.004758 0.033918 1.782598
v 0.009332 0.056916 1.775485
v 0.013548 0.078112 1.763934
v 0.017244 0.096690 1.748388
v 0.020276 0.111937 1.729446
v 0.022530 0.123266 1.707835
v 0.023918 0.130242 1.684386
v 0.024386 0.132598 1.660000
v 0.009332 0.032530 1.782598
v 0.018306 0.054194 1.775485
v 0.026576 0.074160 1.763934
v 0.033825 0.091660 1.748388
v 0.039774 0.106022 1.729446
v 0.044194 0.116694 1.707835
v 0.046916 0.123266 1.684386
v 0.047835 0.125485 1.660000
v 0.013548 0.030276 1.782598
v 0.026576 0.049774 1.775485
v 0.038582 0.067742 1.763934
v 0.049106 0.083492 1.748388
v 0.057742 0.096418 1.729446
v 0.064160 0.106022 1.707835
v 0.068112 0.111937 1.684386
v 0.069446 0.113934 1.660000
v 0.017244 0.027244 1.782598
v 0.033825 0.043825 1.775485
v 0.049106 0.059106 1.763934
v 0.062500 0.072500 1.748388
v 0.073492 0.083492 1.729446
v 0.081660 0.091660 1.707835
v 0.086690 0.096690 1.684386
v 0.088388 0.098388 1.660000
v 0.020276 0.023548 1.782598
v 0.039774 0.036576 1.775485
v 0.057742 0.048582 1.763934
v 0.073492 0.059106 1.748388
v 0.086418 0.067742 1.729446
v 0.096022 0.074160 1.707835
v 0.101937 0.078112 1.684386
v 0.103934 0.079446 1.660000
v 0.022530 0.019332 1.782598
v 0.044194 0.028306 1.775485
v 0.064160 0.036576 1.763934
v 0.081660 0.043825 1.748388
v 0.096022 0.049774 1.729446
v 0.106694 0.054194 1.707835
v 0.113266 0.056916 1.684386
v 0.115485 0.057835 1.660000
v 0.023918 0.014758 1.782598
v 0.046916 0.019332 1.775485
v 0.068112 0.023548 1.763934
v 0.086690 0.027244 1.748388
v 0.101937 0.030276 1.729446
v 0.113266 0.032530 1.707835
v 0.120242 0.033918 1.684386
v 0.122598 0.034386 1.660000
v 0.024386 0.010000 1.782598
v 0.047835 0.010000 1.775485
v 0.069446 0.010000 1.763934
v 0.088388 0.010000 1.748388
v 0.103934 0.010000 1.729446
v 0.115485 0.010000 1.707835
v 0.122598 0.010000 1.684386
v 0.125000 0.010000 1.660000
v 0.023918 0.005242 1.782598
v 0.046916 0.000668 1.775485
v 0.068112 -0.003548 1.763934
v 0.086690 -0.007244 1.748388
v 0.101937 -0.010276 1.729446
v 0.113266 -0.012530 1.707835
v 0.120242 -0.013918 1.684386
v 0.122598 -0.014386 1.660000
v 0.022530 0.000668 1.782598
v 0.044194 -0.008306 1.775485
v 0.064160 -0.016576 1.763934
v 0.081660 -0.023825 1.748388
v 0.096022 -0.029774 1.729446
v 0.106694 -0.034194 1.707835
v 0.113266 -0.036916 1.684386
v 0.115485 -0.037835 1.660000
v 0.020276 -0.003548 1.782598
v 0.039774 -0.016576 1.775485
v 0.057742 -0.028582 1.763934
v 0.073492 -0.039106 1.748388
v 0.086418 -0.047742 1.729446
v 0.096022 -0.054160 1.707835
v 0.101937 -0.058112 1.684386
v 0.103934 -0.059446 1.660000
v 0.017244 -0.007244 1.782598
v 0.033825 -0.023825 1.775485
v 0.049106 -0.039106 1.763934
v 0.062500 -0.052500 1.748388
v 0.073492 -0.063492 1.729446
v 0.081660 -0.071660 1.707835
v 0.086690 -0.076690 1.684386
v 0.088388 -0.078388 1.660000
v 0.013548 -0.010276 1.782598
v 0.026576 -0.029774 1.775485
v 0.038582 -0.047742 1.763934
v 0.049106 -0.063492 1.748388
v 0.057742 -0.076418 1.729446
v 0.064160 -0.086022 1.707835
v 0.068112 -0.091937 1.684386
v 0.069446 -0.093934 1.660000
v 0.009332 -0.012530 1.782598
v 0.018306 -0.034194 1.775485
v 0.026576 -0.054160 1.763934
v 0.033825 -0.071660 1.748388
v 0.039774 -0.086022 1.729446
v 0.044194 -0.096694 1.707835
v 0.046916 -0.103266 1.684386
v 0.047835 -0.105485 1.660000
v 0.004758 -0.013918 1.782598
v 0.009332 -0.036916 1.775485
v 0.013548 -0.058112 1.763934
v 0.017244 -0.076690 1.748388
v 0.020276 -0.091937 1.729446
v 0.022530 -0.103266 1.707835
v 0.023918 -0.110242 1.684386
v 0.024386 -0.112598 1.660000
v -0.000000 -0.014386 1.782598
v -0.000000 -0.037835 1.775485
v -0.000000 -0.059446 1.763934
v -0.000000 -0.078388 1.748388
v -0.000000 -0.093934 1.729446
v 0.000000 -0.105485 1.707835
v -0.000000 -0.112598 1.684386
v -0.000000 -0.115000 1.660000
v -0.004758 -0.013918 1.782598
v -0.009332 -0.036916 1.775485
v -0.013548 -0.058112 1.763934
v -0.017244 -0.076690 1.748388
v -0.020276 -0.091937 1.729446
v -0.022530 -0.103266 1.707835
v -0.023918 -0.110242 1.684386
v -0.024386 -0.112598 1.660000
v -0.009332 -0.012530 1.782598
v -0.018306 -0.034194 1.775485
v -0.026576 -0.054160 1.763934
v -0.033825 -0.071660 1.748388
v -0.039774 -0.086022 1.729446
v -0.044194 -0.096694 1.707835
v -0.046916 -0.103266 1.684386
v -0.047835 -0.105485 1.660000
v -0.013548 -0.010276 1.782598
v -0.026576 -0.029774 1.775485
v -0.038582 -0.047742 1.763934
v -0.049106 -0.063492 1.748388
v -0.057742 -0.076418 1.729446
v -0.064160 -0.086022 1.707835
v -0.068112 -0.091937 1.684386
v -0.069446 -0.093934 1.660000
v -0.017244 -0.007244 1.782598
v -0.033825 -0.023825 1.775485
v -0.049106 -0.039106 1.763934
v -0.062500 -0.052500 1.748388
v -0.073492 -0.063492 1.729446
v -0.081660 -0.071660 1.707835
v -0.086690 -0.076690 1.684386
v -0.088388 -0.078388 1.660000
v -0.020276 -0.003548 1.782598
v -0.039774 -0.016576 1.775485
v -0.057742 -0.028582 1.763934
v -0.073492 -0.039106 1.748388
v -0.086418 -0.047742 1.729446
v -0.096022 -0.054160 1.707835
v -0.101937 -0.058112 1.684386
v -0.103934 -0.059446 1.660000
v -0.022530 0.000668 1.782598
v -0.044194 -0.008306 1.775485
v -0.064160 -0.016576 1.763934
v -0.081660 -0.023825 1.748388
v -0.096022 -0.029774 1.729446
v -0.106694 -0.034194 1.707835
v -0.113266 -0.036916 1.684386
v -0.115485 -0.037835 1.660000
v -0.023918 0.005242 1.782598
v -0.046916 0.000668 1.775485
v -0.068112 -0.003548 1.763934
v -0.086690 -0.007244 1.748388
v -0.101937 -0.010276 1.729446
v -0.113266 -0.012530 1.707835
v -0.120242 -0.013918 1.684386
v -0.122598 -0.014386 1.660000
v -0.024386 0.010000 1.782598
v -0.047835 0.010000 1.775485
v -0.069446 0.010000 1.763934
v -0.088388 0.010000 1.748388
v -0.103934 0.010000 1.729446
v -0.115485 0.010000 1.707835
v -0.122598 0.010000 1.684386
v -0.125000 0.010000 1.660000
v -0.023918 0.014758 1.782598
v -0.046916 0.019332 1.775485
v -0.068112 0.023548 1.763934
v -0.086690 0.027244 1.748388
v -0.101937 0.030276 1.729446
v -0.113266 0.032530 1.707835
v -0.120242 0.033918 1.684386
v -0.122598 0.034386 1.660000
v -0.022530 0.019332 1.782598
v -0.044194 0.028306 1.775485
v -0.064160 0.036576 1.763934
v -0.081660 0.043825 1.748388
v -0.096022 0.049774 1.729446
v -0.106694 0.054194 1.707835
v -0.113266 0.056916 1.684386
v -0.115485 0.057835 1.660000
v -0.020276 0.023548 1.782598
v -0.039774 0.036576 1.775485
v -0.057742 0.048582 1.763934
v -0.073492 0.059106 1.748388
v -0.086418 0.067742 1.729446
v -0.096022 0.074160 1.707835
v -0.101937 0.078112 1.684386
v -0.103934 0.079446 1.660000
v -0.017244 0.027244 1.782598
v -0.033825 0.043825 1.775485
v -0.049106 0.059106 1.763934
v -0.062500 0.072500 1.748388
v -0.073492 0.083492 1.729446
v -0.081660 0.091660 1.707835
v -0.086690 0.096690 1.684386
v -0.088388 0.098388 1.660000
v -0.013548 0.030276 1.782598
v -0.026576 0.049774 1.775485
v -0.038582 0.067742 1.763934
v -0.049106 0.083492 1.748388
v -0.057742 0.096418 1.729446
v -0.064160 0.106022 1.707835
v -0.068112 0.111937 1.684386
v -0.069446 0.113934 1.660000
v -0.009332 0.032530 1.782598
v -0.018306 0.054194 1.775485
v -0.026576 0.074160 1.763934
v -0.033825 0.091660 1.748388
v -0.039774 0.106022 1.729446
v -0.044194 0.116694 1.707835
v -0.046916 0.123266 1.684386
v -0.047835 0.125485 1.660000
v -0.004758 0.033918 1.782598
v -0.009332 0.056916 1.775485
v -0.013548 0.078112 1.763934
v -0.017244 0.096690 1.748388
v -0.020276 0.111937 1.729446
v -0.022530 0.123266 1.707835
v -0.023918 0.130242 1.684386
v -0.024386 0.132598 1.660000
v 0.000000 0.034386 1.782598
v 0.000000 0.057835 1.775485
v 0.000000 0.098388 1.748388
v 0.000000 0.125485 1.707835
vn -0.1951 -0.9808 -0.0000
vn -0.5556 -0.8315 -0.0000
vn -0.8315 -0.5556 -0.0000
vn -0.9808 -0.1951 -0.0000
vn -0.9808 0.1951 -0.0000
vn -0.8315 0.5556 -0.0000
vn -0.5556 0.8315 -0.0000
vn -0.1951 0.9808 -0.0000
vn 0.1951 0.9808 -0.0000
vn 0.5556 0.8315 -0.0000
vn 0.8315 0.5556 -0.0000
vn 0.9808 0.1951 -0.0000
vn 0.9808 -0.1951 -0.0000
vn 0.8315 -0.5556 -0.0000
vn -0.0000 -0.0000 1.0000
vn 0.5556 -0.8315 -0.0000
vn 0.1951 -0.9808 -0.0000
vn -0.0000 -0.0000 -1.0000
vn -1.0000 -0.0000 -0.0000
vn -0.0000 1.0000 -0.0000
vn 1.0000 -0.0000 -0.0000
vn -0.0000 -1.0000 -0.0000
vn -0.3353 0.9070 0.2550
vn -0.7613 0.6209 0.1867
vn -0.9833 0.1686 0.0683
vn -0.9419 -0.3290 -0.0683
vn -0.6480 -0.7384 -0.1867
vn -0.1806 -0.9499 -0.2550
vn 0.3353 -0.9070 -0.2550
vn 0.7613 -0.6209 -0.1867
vn 0.9833 -0.1686 -0.0683
vn 0.9419 0.3290 0.0683
vn -0.0219 0.2631 -0.9645
vn 0.6480 0.7384 0.1867
vn 0.1806 0.9499 0.2550
vn 0.0219 -0.2631 0.9645
vn -0.1806 0.9499 0.2550
vn -0.6480 0.7384 0.1867
vn -0.9419 0.3290 0.0683
vn -0.9833 -0.1686 -0.0683
vn -0.7613 -0.6209 -0.1867
vn -0.3353 -0.9070 -0.2550
vn 0.1806 -0.9499 -0.2550
vn 0.6480 -0.7384 -0.1867
vn 0.9419 -0.3290 -0.0683
vn 0.9833 0.1686 0.0683
vn 0.0219 0.2631 -0.9645
vn 0.7613 0.6209 0.1867
vn 0.3353 0.9070 0.2550
vn -0.0219 -0.2631 0.9645
vn 0.0285 0.2902 -0.9566
vn 0.0975 0.9904 0.0976
vn 0.0097 0.0980 0.9951
vn 0.0096 0.0980 -0.9951
vn 0.0976 0.9904 -0.0976
vn 0.0286 0.2902 0.9565
vn 0.0938 0.9527 -0.2890
vn 0.0464 0.4709 0.8810
vn 0.0865 0.8786 -0.4696
vn 0.0624 0.6332 0.7715
vn 0.0759 0.7708 -0.6326
vn 0.0759 0.7708 0.6326
vn 0.0624 0.6332 -0.7715
vn 0.0865 0.8786 0.4696
vn 0.0464 0.4709 -0.8810
vn 0.0938 0.9527 0.2890
vn 0.1373 0.4528 -0.8810
vn 0.2779 0.9161 0.2890
vn 0.0847 0.2790 -0.9565
vn 0.2889 0.9524 0.0975
vn 0.0286 0.0942 0.9951
vn 0.0286 0.0942 -0.9951
vn 0.2889 0.9524 -0.0976
vn 0.0846 0.2790 0.9565
vn 0.2779 0.9161 -0.2890
vn 0.1373 0.4528 0.8810
vn 0.2563 0.8448 -0.4696
vn 0.1847 0.6088 0.7715
vn 0.2248 0.7412 -0.6326
vn 0.2248 0.7412 0.6326
vn 0.1847 0.6088 -0.7715
vn 0.2563 0.8448 0.4696
vn 0.2230 0.4173 0.8810
vn 0.4162 0.7786 -0.4696
vn 0.2999 0.5611 0.7715
vn 0.3651 0.6831 -0.6326
vn 0.3651 0.6831 0.6326
vn 0.2999 0.5611 -0.7715
vn 0.4162 0.7786 0.4696
vn 0.2230 0.4173 -0.8810
vn 0.4513 0.8443 0.2890
vn 0.1374 0.2571 -0.9566
vn 0.4691 0.8777 0.0976
vn 0.0465 0.0869 0.9951
vn 0.0464 0.0869 -0.9951
vn 0.4691 0.8777 -0.0975
vn 0.1374 0.2571 0.9565
vn 0.4513 0.8443 -0.2890
vn 0.6073 0.7400 0.2890
vn 0.1850 0.2254 -0.9566
vn 0.6314 0.7693 0.0975
vn 0.0624 0.0761 0.9951
vn 0.0625 0.0761 -0.9951
vn 0.6314 0.7693 -0.0975
vn 0.1850 0.2254 0.9565
vn 0.6073 0.7400 -0.2890
vn 0.3002 0.3658 0.8810
vn 0.5601 0.6825 -0.4696
vn 0.4036 0.4918 0.7715
vn 0.4913 0.5987 -0.6326
vn 0.4913 0.5987 0.6326
vn 0.4036 0.4918 -0.7715
vn 0.5601 0.6825 0.4696
vn 0.3002 0.3658 -0.8810
vn 0.6825 0.5601 -0.4696
vn 0.4918 0.4036 0.7715
vn 0.5987 0.4913 -0.6326
vn 0.5987 0.4913 0.6326
vn 0.4918 0.4036 -0.7715
vn 0.6825 0.5601 0.4696
vn 0.3658 0.3002 -0.8810
vn 0.7400 0.6073 0.2890
vn 0.2254 0.1850 -0.9565
vn 0.7693 0.6314 0.0976
vn 0.0762 0.0625 0.9951
vn 0.0761 0.0625 -0.9951
vn 0.7693 0.6314 -0.0975
vn 0.2254 0.1850 0.9565
vn 0.7400 0.6073 -0.2890
vn 0.3658 0.3002 0.8810
vn 0.2572 0.1374 -0.9565
vn 0.8777 0.4692 0.0976
vn 0.0868 0.0464 0.9951
vn 0.0869 0.0464 -0.9951
vn 0.8777 0.4691 -0.0975
vn 0.2571 0.1374 0.9565
vn 0.8443 0.4513 -0.2890
vn 0.4173 0.2230 0.8810
vn 0.7786 0.4162 -0.4696
vn 0.5611 0.2999 0.7715
vn 0.6831 0.3651 -0.6326
vn 0.6831 0.3651 0.6326
vn 0.5611 0.2999 -0.7715
vn 0.7786 0.4162 0.4696
vn 0.4173 0.2230 -0.8810
vn 0.8443 0.4513 0.2890
vn 0.6088 0.1847 0.7715
vn 0.7412 0.2248 -0.6326
vn 0.7412 0.2248 0.6326
vn 0.6088 0.1847 -0.7715
vn 0.8448 0.2563 0.4696
vn 0.4528 0.1374 -0.8810
vn 0.9161 0.2779 0.2890
vn 0.2790 0.0846 -0.9566
vn 0.9524 0.2889 0.0976
vn 0.0943 0.0286 0.9951
vn 0.0942 0.0286 -0.9951
vn 0.9524 0.2889 -0.0975
vn 0.2790 0.0846 0.9565
vn 0.9161 0.2779 -0.2890
vn 0.4528 0.1374 0.8810
vn 0.8449 0.2563 -0.4696
vn 0.9904 0.0976 0.0976
vn 0.0980 0.0097 0.9951
vn 0.0980 0.0097 -0.9951
vn 0.9904 0.0975 -0.0975
vn 0.2902 0.0286 0.9566
vn 0.9527 0.0938 -0.2890
vn 0.4709 0.0464 0.8810
vn 0.8786 0.0865 -0.4696
vn 0.6332 0.0624 0.7715
vn 0.7708 0.0759 -0.6326
vn 0.7708 0.0759 0.6326
vn 0.6332 0.0624 -0.7715
vn 0.8786 0.0865 0.4696
vn 0.4709 0.0464 -0.8810
vn 0.9527 0.0938 0.2890
vn 0.2902 0.0286 -0.9566
vn 0.7708 -0.0759 -0.6326
vn 0.7708 -0.0759 0.6326
vn 0.6332 -0.0624 -0.7715
vn 0.8786 -0.0865 0.4696
vn 0.4709 -0.0464 -0.8810
vn 0.9527 -0.0938 0.2890
vn 0.2902 -0.0286 -0.9566
vn 0.9904 -0.0976 0.0975
vn 0.0980 -0.0097 0.9951
vn 0.0980 -0.0097 -0.9951
vn 0.9904 -0.0975 -0.0975
vn 0.2902 -0.0286 0.9565
vn 0.9527 -0.0938 -0.2890
vn 0.4709 -0.0464 0.8810
vn 0.8786 -0.0865 -0.4696
vn 0.6332 -0.0624 0.7715
vn 0.0942 -0.0286 -0.9951
vn 0.9524 -0.2889 -0.0975
vn 0.2790 -0.0846 0.9566
vn 0.9161 -0.2779 -0.2890
vn 0.4528 -0.1374 0.8810
vn 0.8449 -0.2563 -0.4696
vn 0.6088 -0.1847 0.7715
vn 0.7412 -0.2248 -0.6326
vn 0.7412 -0.2248 0.6326
vn 0.6088 -0.1847 -0.7715
vn 0.8448 -0.2563 0.4696
vn 0.4528 -0.1374 -0.8810
vn 0.9161 -0.2779 0.2890
vn 0.2790 -0.0846 -0.9565
vn 0.9524 -0.2889 0.0975
vn 0.0942 -0.0286 0.9951
vn 0.5611 -0.2999 -0.7715
vn 0.7786 -0.4162 0.4696
vn 0.4173 -0.2230 -0.8810
vn 0.8443 -0.4513 0.2890
vn 0.2571 -0.1374 -0.9566
vn 0.8777 -0.4692 0.0975
vn 0.0869 -0.0464 0.9951
vn 0.0869 -0.0464 -0.9951
vn 0.8777 -0.4691 -0.0975
vn 0.2571 -0.1374 0.9565
vn 0.8443 -0.4513 -0.2890
vn 0.4173 -0.2230 0.8810
vn 0.7786 -0.4162 -0.4696
vn 0.5611 -0.2999 0.7715
vn 0.6831 -0.3651 -0.6326
vn 0.6831 -0.3651 0.6326
vn 0.2254 -0.1850 0.9565
vn 0.7400 -0.6073 -0.2890
vn 0.3658 -0.3002 0.8810
vn 0.6825 -0.5601 -0.4696
vn 0.4918 -0.4036 0.7715
vn 0.5987 -0.4913 -0.6326
vn 0.5987 -0.4913 0.6326
vn 0.4918 -0.4036 -0.7715
vn 0.6825 -0.5601 0.4696
vn 0.3658 -0.3002 -0.8810
vn 0.7400 -0.6073 0.2890
vn 0.2254 -0.1850 -0.9565
vn 0.7693 -0.6314 0.0975
vn 0.0761 -0.0625 0.9951
vn 0.0761 -0.0625 -0.9951
vn 0.7693 -0.6314 -0.0975
vn 0.5601 -0.6825 0.4696
vn 0.3002 -0.3658 -0.8810
vn 0.6073 -0.7400 0.2890
vn 0.1850 -0.2254 -0.9566
vn 0.6314 -0.7693 0.0976
vn 0.0625 -0.0761 0.9951
vn 0.0625 -0.0761 -0.9951
vn 0.6314 -0.7693 -0.0975
vn 0.1850 -0.2254 0.9566
vn 0.6073 -0.7400 -0.2890
vn 0.3002 -0.3658 0.8810
vn 0.5601 -0.6825 -0.4696
vn 0.4036 -0.4918 0.7715
vn 0.4913 -0.5987 -0.6326
vn 0.4913 -0.5987 0.6326
vn 0.4036 -0.4918 -0.7715
vn 0.4513 -0.8443 -0.2890
vn 0.2230 -0.4173 0.8810
vn 0.4162 -0.7786 -0.4696
vn 0.2999 -0.5611 0.7715
vn 0.3651 -0.6831 -0.6326
vn 0.3651 -0.6831 0.6326
vn 0.2999 -0.5611 -0.7715
vn 0.4162 -0.7786 0.4696
vn 0.2230 -0.4173 -0.8810
vn 0.4513 -0.8443 0.2890
vn 0.1374 -0.2571 -0.9566
vn 0.4691 -0.8777 0.0976
vn 0.0464 -0.0869 0.9951
vn 0.0464 -0.0869 -0.9951
vn 0.4691 -0.8777 -0.0975
vn 0.1375 -0.2571 0.9565
vn 0.1374 -0.4528 -0.8810
vn 0.2779 -0.9161 0.2890
vn 0.0847 -0.2790 -0.9565
vn 0.2889 -0.9524 0.0976
vn 0.0286 -0.0942 0.9951
vn 0.0286 -0.0942 -0.9951
vn 0.2889 -0.9524 -0.0975
vn 0.0846 -0.2790 0.9565
vn 0.2779 -0.9161 -0.2890
vn 0.1374 -0.4528 0.8810
vn 0.2563 -0.8448 -0.4696
vn 0.1847 -0.6088 0.7715
vn 0.2248 -0.7412 -0.6326
vn 0.2248 -0.7412 0.6326
vn 0.1847 -0.6088 -0.7715
vn 0.2563 -0.8448 0.4696
vn 0.0464 -0.4709 0.8810
vn 0.0865 -0.8786 -0.4696
vn 0.0624 -0.6332 0.7715
vn 0.0759 -0.7708 -0.6326
vn 0.0759 -0.7708 0.6326
vn 0.0624 -0.6332 -0.7715
vn 0.0865 -0.8786 0.4696
vn 0.0464 -0.4709 -0.8810
vn 0.0938 -0.9527 0.2890
vn 0.0286 -0.2902 -0.9565
vn 0.0975 -0.9904 0.0975
vn 0.0097 -0.0980 0.9951
vn 0.0096 -0.0980 -0.9951
vn 0.0975 -0.9904 -0.0975
vn 0.0286 -0.2902 0.9565
vn 0.0938 -0.9527 -0.2890
vn -0.0938 -0.9527 0.2890
vn -0.0286 -0.2902 -0.9565
vn -0.0975 -0.9904 0.0976
vn -0.0097 -0.0980 0.9951
vn -0.0096 -0.0980 -0.9951
vn -0.0976 -0.9904 -0.0975
vn -0.0286 -0.2902 0.9565
vn -0.0938 -0.9527 -0.2890
vn -0.0464 -0.4709 0.8810
vn -0.0865 -0.8786 -0.4696
vn -0.0624 -0.6332 0.7715
vn -0.0759 -0.7708 -0.6326
vn -0.0759 -0.7708 0.6326
vn -0.0624 -0.6332 -0.7715
vn -0.0865 -0.8786 0.4696
vn -0.0464 -0.4709 -0.8810
vn -0.2563 -0.8448 -0.4696
vn -0.1847 -0.6088 0.7715
vn -0.2248 -0.7412 -0.6326
vn -0.2248 -0.7412 0.6326
vn -0.1847 -0.6088 -0.7715
vn -0.2563 -0.8448 0.4696
vn -0.1374 -0.4528 -0.8810
vn -0.2779 -0.9161 0.2890
vn -0.0846 -0.2790 -0.9565
vn -0.2889 -0.9524 0.0975
vn -0.0286 -0.0942 0.9951
vn -0.0286 -0.0942 -0.9951
vn -0.2889 -0.9524 -0.0975
vn -0.0846 -0.2790 0.9565
vn -0.2779 -0.9161 -0.2890
vn -0.1374 -0.4528 0.8810
vn -0.1374 -0.2571 -0.9566
vn -0.4691 -0.8777 0.0975
vn -0.0464 -0.0869 0.9951
vn -0.0464 -0.0869 -0.9951
vn -0.4692 -0.8777 -0.0975
vn -0.1374 -0.2571 0.9566
vn -0.4513 -0.8443 -0.2890
vn -0.2230 -0.4173 0.8810
vn -0.4162 -0.7786 -0.4696
vn -0.2999 -0.5611 0.7715
vn -0.3651 -0.6831 -0.6326
vn -0.3651 -0.6831 0.6326
vn -0.2999 -0.5611 -0.7715
vn -0.4162 -0.7786 0.4696
vn -0.2230 -0.4173 -0.8810
vn -0.4513 -0.8443 0.2890
vn -0.4913 -0.5987 -0.6326
vn -0.4913 -0.5987 0.6326
vn -0.4036 -0.4918 -0.7715
vn -0.5601 -0.6825 0.4696
vn -0.3002 -0.3658 -0.8810
vn -0.6073 -0.7400 0.2890
vn -0.1850 -0.2254 -0.9566
vn -0.6314 -0.7693 0.0975
vn -0.0624 -0.0761 0.9951
vn -0.0625 -0.0761 -0.9951
vn -0.6314 -0.7693 -0.0975
vn -0.1850 -0.2254 0.9566
vn -0.6073 -0.7400 -0.2890
vn -0.3002 -0.3658 0.8810
vn -0.5601 -0.6825 -0.4696
vn -0.4036 -0.4918 0.7715
vn -0.0762 -0.0625 0.9951
vn -0.0762 -0.0625 -0.9951
vn -0.7693 -0.6314 -0.0975
vn -0.2254 -0.1850 0.9565
vn -0.7400 -0.6073 -0.2890
vn -0.3658 -0.3002 0.8810
vn -0.6825 -0.5601 -0.4696
vn -0.4918 -0.4036 0.7715
vn -0.5987 -0.4913 -0.6326
vn -0.5987 -0.4913 0.6326
vn -0.4918 -0.4036 -0.7715
vn -0.6825 -0.5601 0.4696
vn -0.3658 -0.3002 -0.8810
vn -0.7400 -0.6073 0.2890
vn -0.2254 -0.1850 -0.9565
vn -0.7693 -0.6314 0.0976
vn -0.6831 -0.3651 0.6326
vn -0.5611 -0.2999 -0.7715
vn -0.7786 -0.4162 0.4696
vn -0.4173 -0.2230 -0.8810
vn -0.8443 -0.4513 0.2890
vn -0.2572 -0.1374 -0.9565
vn -0.8777 -0.4692 0.0975
vn -0.0869 -0.0464 0.9951
vn -0.0868 -0.0464 -0.9951
vn -0.8777 -0.4691 -0.0975
vn -0.2572 -0.1374 0.9565
vn -0.8443 -0.4513 -0.2890
vn -0.4173 -0.2230 0.8810
vn -0.7786 -0.4162 -0.4696
vn -0.5611 -0.2999 0.7715
vn -0.6831 -0.3651 -0.6326
vn -0.9524 -0.2889 -0.0975
vn -0.2790 -0.0846 0.9565
vn -0.9161 -0.2779 -0.2890
vn -0.4528 -0.1374 0.8810
vn -0.8448 -0.2563 -0.4696
vn -0.6088 -0.1847 0.7715
vn -0.7412 -0.2248 -0.6326
vn -0.7412 -0.2248 0.6326
vn -0.6088 -0.1847 -0.7715
vn -0.8448 -0.2563 0.4696
vn -0.4528 -0.1374 -0.8810
vn -0.9161 -0.2779 0.2890
vn -0.2790 -0.0846 -0.9565
vn -0.9524 -0.2889 0.0976
vn -0.0942 -0.0286 0.9951
vn -0.0942 -0.0286 -0.9951
vn -0.6331 -0.0624 -0.7715
vn -0.8786 -0.0865 0.4696
vn -0.4709 -0.0464 -0.8810
vn -0.9527 -0.0938 0.2890
vn -0.2902 -0.0286 -0.9566
vn -0.9904 -0.0976 0.0976
vn -0.0980 -0.0097 0.9951
vn -0.0980 -0.0097 -0.9951
vn -0.9904 -0.0975 -0.0975
vn -0.2902 -0.0286 0.9565
vn -0.9527 -0.0938 -0.2890
vn -0.4709 -0.0464 0.8810
vn -0.8786 -0.0865 -0.4696
vn -0.6332 -0.0624 0.7715
vn -0.7708 -0.0759 -0.6326
vn -0.7708 -0.0759 0.6326
vn -0.2902 0.0286 0.9566
vn -0.9527 0.0938 -0.2890
vn -0.4709 0.0464 0.8810
vn -0.8786 0.0865 -0.4696
vn -0.6332 0.0624 0.7715
vn -0.7708 0.0759 -0.6326
vn -0.7708 0.0759 0.6326
vn -0.6332 0.0624 -0.7715
vn -0.8786 0.0865 0.4696
vn -0.4709 0.0464 -0.8810
vn -0.9527 0.0938 0.2890
vn -0.2902 0.0286 -0.9565
vn -0.9904 0.0976 0.0976
vn -0.0980 0.0097 0.9951
vn -0.0980 0.0097 -0.9951
vn -0.9904 0.0975 -0.0975
vn -0.8449 0.2563 0.4696
vn -0.4528 0.1374 -0.8810
vn -0.9161 0.2779 0.2890
vn -0.2790 0.0846 -0.9565
vn -0.9524 0.2889 0.0976
vn -0.0942 0.0286 0.9951
vn -0.0942 0.0286 -0.9951
vn -0.9524 0.2889 -0.0975
vn -0.2790 0.0846 0.9565
vn -0.9161 0.2779 -0.2890
vn -0.4528 0.1374 0.8810
vn -0.8449 0.2563 -0.4696
vn -0.6088 0.1847 0.7715
vn -0.7412 0.2248 -0.6326
vn -0.7412 0.2248 0.6326
vn -0.6088 0.1847 -0.7715
vn -0.8443 0.4513 -0.2890
vn -0.4173 0.2231 0.8810
vn -0.7786 0.4162 -0.4696
vn -0.5611 0.2999 0.7715
vn -0.6831 0.3651 -0.6326
vn -0.6831 0.3651 0.6326
vn -0.5611 0.2999 -0.7715
vn -0.7786 0.4162 0.4696
vn -0.4173 0.2230 -0.8810
vn -0.8443 0.4513 0.2890
vn -0.2571 0.1374 -0.9565
vn -0.8777 0.4692 0.0976
vn -0.0869 0.0464 0.9951
vn -0.0868 0.0464 -0.9951
vn -0.8777 0.4691 -0.0975
vn -0.2572 0.1374 0.9565
vn -0.3658 0.3002 -0.8810
vn -0.7400 0.6073 0.2890
vn -0.2254 0.1850 -0.9565
vn -0.7693 0.6314 0.0976
vn -0.0761 0.0625 0.9951
vn -0.0761 0.0625 -0.9951
vn -0.7693 0.6314 -0.0976
vn -0.2254 0.1850 0.9565
vn -0.7400 0.6073 -0.2890
vn -0.3658 0.3002 0.8810
vn -0.6825 0.5601 -0.4696
vn -0.4918 0.4036 0.7715
vn -0.5987 0.4913 -0.6326
vn -0.5987 0.4913 0.6326
vn -0.4918 0.4036 -0.7715
vn -0.6825 0.5601 0.4696
vn -0.5601 0.6825 -0.4696
vn -0.4036 0.4918 0.7715
vn -0.4913 0.5987 -0.6326
vn -0.4913 0.5987 0.6326
vn -0.4036 0.4918 -0.7715
vn -0.5601 0.6825 0.4696
vn -0.3002 0.3658 -0.8810
vn -0.6073 0.7400 0.2890
vn -0.1850 0.2254 -0.9565
vn -0.6314 0.7693 0.0976
vn -0.0625 0.0761 0.9951
vn -0.0625 0.0761 -0.9951
vn -0.6314 0.7693 -0.0976
vn -0.1850 0.2254 0.9565
vn -0.6073 0.7400 -0.2890
vn -0.3002 0.3658 0.8810
vn -0.1374 0.2571 -0.9566
vn -0.4691 0.8777 0.0976
vn -0.0464 0.0869 0.9951
vn -0.0464 0.0869 -0.9951
vn -0.4691 0.8777 -0.0976
vn -0.1375 0.2571 0.9565
vn -0.4513 0.8443 -0.2890
vn -0.2231 0.4173 0.8810
vn -0.4162 0.7786 -0.4696
vn -0.2999 0.5611 0.7715
vn -0.3651 0.6831 -0.6326
vn -0.3651 0.6831 0.6326
vn -0.2999 0.5611 -0.7715
vn -0.4162 0.7786 0.4696
vn -0.2230 0.4173 -0.8810
vn -0.4513 0.8443 0.2890
vn -0.1847 0.6088 0.7715
vn -0.2248 0.7412 -0.6326
vn -0.2248 0.7412 0.6326
vn -0.1847 0.6088 -0.7715
vn -0.2563 0.8448 0.4696
vn -0.1374 0.4528 -0.8810
vn -0.2779 0.9161 0.2890
vn -0.0846 0.2790 -0.9565
vn -0.2889 0.9524 0.0976
vn -0.0286 0.0942 0.9951
vn -0.0286 0.0942 -0.9951
vn -0.2889 0.9524 -0.0976
vn -0.0846 0.2790 0.9566
vn -0.2779 0.9161 -0.2890
vn -0.1373 0.4528 0.8810
vn -0.2563 0.8448 -0.4696
vn -0.0976 0.9904 0.0976
vn -0.0096 0.0980 0.9951
vn -0.0097 0.0980 -0.9951
vn -0.0976 0.9904 -0.0976
vn -0.0286 0.2902 0.9565
vn -0.0938 0.9527 -0.2890
vn -0.0464 0.4709 0.8810
vn -0.0865 0.8786 -0.4696
vn -0.0624 0.6332 0.7715
vn -0.0759 0.7708 -0.6326
vn -0.0759 0.7708 0.6326
vn -0.0624 0.6332 -0.7715
vn -0.0865 0.8786 0.4696
vn -0.0464 0.4709 -0.8810
vn -0.0938 0.9527 0.2890
vn -0.0286 0.2902 -0.9565
vn 0.0975 0.9904 0.0975
vn 0.0096 0.0980 0.9951
vn 0.2889 0.9524 0.0976
vn 0.1374 0.4528 0.8810
vn 0.4691 0.8777 0.0975
vn 0.0464 0.0869 0.9951
vn 0.1375 0.2571 0.9565
vn 0.0625 0.0761 0.9951
vn 0.7693 0.6314 0.0975
vn 0.0761 0.0625 0.9951
vn 0.9524 0.2889 0.0975
vn 0.0942 0.0286 0.9951
vn 0.2790 0.0846 0.9566
vn 0.9904 0.0976 0.0975
vn 0.2790 -0.0846 0.9565
vn 0.0943 -0.0286 0.9951
vn 0.8777 -0.4691 0.0975
vn 0.0868 -0.0464 0.9951
vn 0.2572 -0.1374 0.9565
vn 0.2254 -0.1850 0.9566
vn 0.6314 -0.7693 0.0975
vn 0.2231 -0.4173 0.8810
vn 0.4691 -0.8777 0.0975
vn 0.2889 -0.9524 0.0975
vn 0.0847 -0.2790 0.9565
vn 0.0096 -0.0980 0.9951
vn -0.0975 -0.9904 0.0975
vn -0.0096 -0.0980 0.9951
vn -0.4692 -0.8777 0.0975
vn -0.0465 -0.0869 0.9951
vn -0.1374 -0.2571 0.9565
vn -0.1850 -0.2254 0.9565
vn -0.0761 -0.0625 0.9951
vn -0.7693 -0.6314 0.0975
vn -0.8777 -0.4691 0.0975
vn -0.0868 -0.0464 0.9951
vn -0.2571 -0.1374 0.9565
vn -0.4173 -0.2231 0.8810
vn -0.9524 -0.2889 0.0975
vn -0.9904 -0.0976 0.0975
vn -0.2902 -0.0286 0.9566
vn -0.9904 0.0975 0.0975
vn -0.8448 0.2563 0.4696
vn -0.9524 0.2889 0.0975
vn -0.2790 0.0846 0.9566
vn -0.8777 0.4692 0.0975
vn -0.0868 0.0464 0.9951
vn -0.2571 0.1374 0.9565
vn -0.7693 0.6314 0.0975
vn -0.6314 0.7693 0.0975
vn -0.4691 0.8777 0.0975
vn -0.2889 0.9524 0.0975
vn -0.1374 0.4528 0.8810
vn -0.0976 0.9904 0.0975
vn -0.0219 0.2630 -0.9645
vn 0.0220 -0.2631 0.9645
vn 0.0219 0.2630 -0.9645
vn -0.0220 -0.2631 0.9645
vn 0.0286 0.2902 -0.9565
vn 0.0975 0.9904 -0.0975
vn 0.1374 0.4528 -0.8810
vn 0.0846 0.2790 -0.9565
vn 0.2889 0.9524 -0.0975
vn 0.2231 0.4173 0.8810
vn 0.2231 0.4173 -0.8810
vn 0.1375 0.2571 -0.9565
vn 0.4692 0.8777 -0.0976
vn 0.1374 0.2571 0.9566
vn 0.1850 0.2254 -0.9565
vn 0.1850 0.2254 0.9566
vn 0.2254 0.1850 -0.9566
vn 0.7693 0.6314 -0.0976
vn 0.2254 0.1850 0.9566
vn 0.2571 0.1374 -0.9565
vn 0.8777 0.4691 0.0975
vn 0.8777 0.4692 -0.0976
vn 0.2572 0.1374 0.9565
vn 0.8449 0.2563 0.4696
vn 0.2790 0.0846 -0.9565
vn 0.9524 0.2889 -0.0976
vn 0.8448 0.2563 -0.4696
vn 0.9904 0.0975 0.0975
vn 0.9904 0.0976 -0.0975
vn 0.2902 0.0286 0.9565
vn 0.2902 0.0286 -0.9565
vn 0.2902 -0.0286 -0.9565
vn 0.9904 -0.0975 0.0975
vn 0.2902 -0.0286 0.9566
vn 0.8448 -0.2563 -0.4696
vn 0.8449 -0.2563 0.4696
vn 0.2790 -0.0846 -0.9566
vn 0.2571 -0.1374 -0.9565
vn 0.2571 -0.1374 0.9566
vn 0.3657 -0.3002 0.8810
vn 0.1850 -0.2254 -0.9565
vn 0.6314 -0.7693 -0.0976
vn 0.1850 -0.2254 0.9565
vn 0.4914 -0.5987 0.6326
vn 0.2231 -0.4173 -0.8810
vn 0.1375 -0.2571 -0.9565
vn 0.4692 -0.8777 0.0975
vn 0.4691 -0.8777 -0.0976
vn 0.1374 -0.2571 0.9566
vn 0.0846 -0.2790 -0.9565
vn 0.2889 -0.9524 -0.0976
vn 0.0623 -0.6332 0.7715
vn 0.0976 -0.9904 0.0975
vn 0.0285 -0.2902 0.9565
vn -0.0976 -0.9904 0.0975
vn -0.0975 -0.9904 -0.0976
vn -0.0285 -0.2902 0.9565
vn -0.1375 -0.2571 -0.9565
vn -0.4691 -0.8777 -0.0976
vn -0.1375 -0.2571 0.9565
vn -0.2231 -0.4173 0.8810
vn -0.2231 -0.4173 -0.8810
vn -0.4914 -0.5987 0.6326
vn -0.1850 -0.2254 -0.9565
vn -0.2254 -0.1850 0.9566
vn -0.2254 -0.1850 -0.9566
vn -0.2571 -0.1374 -0.9565
vn -0.8777 -0.4692 -0.0976
vn -0.2571 -0.1374 0.9566
vn -0.9524 -0.2889 -0.0976
vn -0.6332 -0.0624 -0.7715
vn -0.2902 -0.0286 -0.9565
vn -0.2902 0.0286 0.9565
vn -0.9524 0.2889 -0.0976
vn -0.8448 0.2563 -0.4696
vn -0.4173 0.2230 0.8810
vn -0.4173 0.2231 -0.8810
vn -0.8777 0.4691 0.0975
vn -0.8777 0.4692 -0.0976
vn -0.2571 0.1374 0.9566
vn -0.1850 0.2254 0.9566
vn -0.1375 0.2571 -0.9565
vn -0.4691 0.8777 -0.0975
vn -0.1374 0.2571 0.9566
vn -0.2230 0.4173 0.8810
vn -0.2231 0.4173 -0.8810
vn -0.0847 0.2790 -0.9565
vn -0.0846 0.2790 0.9565
vn -0.0976 0.9904 -0.0975
vn 0.0976 0.9904 0.0976
vn 0.0846 0.2790 0.9566
vn 0.1849 0.2254 0.9566
vn 0.2571 0.1374 0.9566
vn 0.4173 -0.2231 0.8810
vn 0.1373 -0.4528 0.8810
vn 0.0285 -0.2902 0.9566
vn -0.0286 -0.2902 0.9566
vn -0.1849 -0.2254 0.9566
vn -0.8449 -0.2563 0.4696
vn -0.9904 -0.0975 0.0975
vn -0.9904 0.0976 0.0975
vn -0.2254 0.1850 0.9566
vn -0.1849 0.2254 0.9566
vn -0.1374 0.2571 0.9565
vn -0.0286 0.2902 0.9566
vn -0.0001 -0.0000 -1.0000
vn 0.0001 -0.0000 -1.0000
s 0
usemtl alarm_red
f 2//1 3//1 1//1
f 4//2 5//2 3//2
f 6//3 7//3 5//3
f 8//4 9//4 7//4
f 10//5 11//5 9//5
f 12//6 13//6 11//6
f 14//7 15//7 13//7
f 16//8 17//8 15//8
f 18//9 19//9 17//9
f 20//10 21//10 19//10
f 22//11 23//11 21//11
f 24//12 25//12 23//12
f 26//13 27//13 25//13
f 28//14 29//14 27//14
f 22//15 14//15 6//15
f 30//16 31//16 29//16
f 32//17 1//17 31//17
f 15//18 23//18 31//18
f 42//23 43//23 41//23
f 44//24 45//24 43//24
f 46//25 47//25 45//25
f 47//26 50//26 49//26
f 50//27 51//27 49//27
f 51//28 54//28 53//28
f 53//29 56//29 55//29
f 56//30 57//30 55//30
f 57//31 60//31 59//31
f 60//32 61//32 59//32
f 62//33 54//33 46//33
f 61//34 64//34 63//34
f 64//35 41//35 63//35
f 47//36 55//36 63//36
f 66//1 67//1 65//1
f 68//2 69//2 67//2
f 70//3 71//3 69//3
f 72//4 73//4 71//4
f 74//5 75//5 73//5
f 76//6 77//6 75//6
f 78//7 79//7 77//7
f 80//8 81//8 79//8
f 82//9 83//9 81//9
f 84//10 85//10 83//10
f 86//11 87//11 85//11
f 88//12 89//12 87//12
f 90//13 91//13 89//13
f 92//14 93//14 91//14
f 86//15 78//15 70//15
f 94//16 95//16 93//16
f 96//17 65//17 95//17
f 79//18 87//18 95//18
f 106//37 107//37 105//37
f 108//38 109//38 107//38
f 110//39 111//39 109//39
f 112//40 113//40 111//40
f 113//41 116//41 115//41
f 116//42 117//42 115//42
f 118//43 119//43 117//43
f 120//44 121//44 119//44
f 122//45 123//45 121//45
f 123//46 126//46 125//46
f 126//47 118//47 110//47
f 126//48 127//48 125//48
f 128//49 105//49 127//49
f 111//50 119//50 127//50
f 130//19 131//19 129//19
f 132//20 135//20 131//20
f 136//21 133//21 135//21
f 134//22 129//22 133//22
f 135//18 129//18 131//18
f 132//15 134//15 136//15
f 2//1 4//1 3//1
f 4//2 6//2 5//2
f 6//3 8//3 7//3
f 8//4 10//4 9//4
f 10//5 12//5 11//5
f 12//6 14//6 13//6
f 14//7 16//7 15//7
f 16//8 18//8 17//8
f 18//9 20//9 19//9
f 20//10 22//10 21//10
f 22//11 24//11 23//11
f 24//12 26//12 25//12
f 26//13 28//13 27//13
f 28//14 30//14 29//14
f 6//15 4//15 2//15
f 2//15 32//15 30//15
f 30//15 28//15 26//15
f 26//15 24//15 22//15
f 22//15 20//15 18//15
f 18//15 16//15 14//15
f 14//15 12//15 10//15
f 10//15 8//15 6//15
f 6//15 2//15 30//15
f 30//15 26//15 22//15
f 22//15 18//15 14//15
f 14//15 10//15 6//15
f 6//15 30//15 22//15
f 30//16 32//16 31//16
f 32//17 2//17 1//17
f 31//18 1//18 3//18
f 3//18 5//18 7//18
f 7//18 9//18 11//18
f 11//18 13//18 15//18
f 15//18 17//18 19//18
f 19//18 21//18 23//18
f 23//18 25//18 27//18
f 27//18 29//18 31//18
f 31//18 3//18 7//18
f 7//18 11//18 15//18
f 15//18 19//18 23//18
f 23//18 27//18 31//18
f 31//18 7//18 15//18
f 42//23 44//23 43//23
f 44//24 46//24 45//24
f 46//25 48//25 47//25
f 47//26 48//26 50//26
f 50//27 52//27 51//27
f 51//28 52//28 54//28
f 53//29 54//29 56//29
f 56//30 58//30 57//30
f 57//31 58//31 60//31
f 60//32 62//32 61//32
f 46//33 44//33 42//33
f 42//617 64//617 62//617
f 62//33 60//33 58//33
f 58//33 56//33 54//33
f 54//33 52//33 50//33
f 50//33 48//33 46//33
f 46//33 42//33 62//33
f 62//33 58//33 54//33
f 54//33 50//33 46//33
f 61//34 62//34 64//34
f 64//35 42//35 41//35
f 63//36 41//36 43//36
f 43//618 45//618 47//618
f 47//36 49//36 51//36
f 51//36 53//36 55//36
f 55//36 57//36 59//36
f 59//36 61//36 63//36
f 63//36 43//36 47//36
f 47//36 51//36 55//36
f 55//36 59//36 63//36
f 66//1 68//1 67//1
f 68//2 70//2 69//2
f 70//3 72//3 71//3
f 72//4 74//4 73//4
f 74//5 76//5 75//5
f 76//6 78//6 77//6
f 78//7 80//7 79//7
f 80//8 82//8 81//8
f 82//9 84//9 83//9
f 84//10 86//10 85//10
f 86//11 88//11 87//11
f 88//12 90//12 89//12
f 90//13 92//13 91//13
f 92//14 94//14 93//14
f 70//15 68//15 66//15
f 66//15 96//15 94//15
f 94//15 92//15 90//15
f 90//15 88//15 86//15
f 86//15 84//15 82//15
f 82//15 80//15 78//15
f 78//15 76//15 74//15
f 74//15 72//15 70//15
f 70//15 66//15 94//15
f 94//15 90//15 86//15
f 86//15 82//15 78//15
f 78//15 74//15 70//15
f 70//15 94//15 86//15
f 94//16 96//16 95//16
f 96//17 66//17 65//17
f 95//18 65//18 67//18
f 67//18 69//18 71//18
f 71//18 73//18 75//18
f 75//18 77//18 79//18
f 79//18 81//18 83//18
f 83//18 85//18 87//18
f 87//18 89//18 91//18
f 91//18 93//18 95//18
f 95//18 67//18 71//18
f 71//18 75//18 79//18
f 79//18 83//18 87//18
f 87//18 91//18 95//18
f 95//18 71//18 79//18
f 106//37 108//37 107//37
f 108//38 110//38 109//38
f 110//39 112//39 111//39
f 112//40 114//40 113//40
f 113//41 114//41 116//41
f 116//42 118//42 117//42
f 118//43 120//43 119//43
f 120//44 122//44 121//44
f 122//45 124//45 123//45
f 123//46 124//46 126//46
f 110//619 108//619 106//619
f 106//47 128//47 126//47
f 126//47 124//47 122//47
f 122//47 120//47 118//47
f 118//47 116//47 114//47
f 114//47 112//47 110//47
f 110//47 106//47 126//47
f 126//47 122//47 118//47
f 118//47 114//47 110//47
f 126//48 128//48 127//48
f 128//49 106//49 105//49
f 127//50 105//50 107//50
f 107//50 109//50 111//50
f 111//50 113//50 115//50
f 115//50 117//50 119//50
f 119//50 121//50 123//50
f 123//620 125//620 127//620
f 127//50 107//50 111//50
f 111//50 115//50 119//50
f 119//50 123//50 127//50
f 130//19 132//19 131//19
f 132//20 136//20 135//20
f 136//21 134//21 133//21
f 134//22 130//22 129//22
f 135//18 133//18 129//18
f 132//15 130//15 134//15
usemtl bolt_black
f 34//19 35//19 33//19
f 36//20 39//20 35//20
f 40//21 37//21 39//21
f 38//22 33//22 37//22
f 39//18 33//18 35//18
f 36//15 38//15 40//15
f 98//19 99//19 97//19
f 100//20 103//20 99//20
f 104//21 101//21 103//21
f 102//22 97//22 101//22
f 103//18 97//18 99//18
f 100//15 102//15 104//15
f 138//19 139//19 137//19
f 140//20 143//20 139//20
f 144//21 141//21 143//21
f 142//22 137//22 141//22
f 143//18 137//18 139//18
f 140//15 142//15 144//15
f 34//19 36//19 35//19
f 36//20 40//20 39//20
f 40//21 38//21 37//21
f 38//22 34//22 33//22
f 39//18 37//18 33//18
f 36//15 34//15 38//15
f 98//19 100//19 99//19
f 100//20 104//20 103//20
f 104//21 102//21 101//21
f 102//22 98//22 97//22
f 103//18 101//18 97//18
f 100//15 98//15 102//15
f 138//19 140//19 139//19
f 140//20 144//20 143//20
f 144//21 142//21 141//21
f 142//22 138//22 137//22
f 143//18 141//18 137//18
f 140//15 138//15 142//15
usemtl bottle_white
f 625//51 169//51 626//51
f 622//52 162//52 150//52
f 146//53 145//53 155//53
f 154//54 626//54 169//54
f 151//55 162//55 163//55
f 620//56 155//56 156//56
f 623//57 163//57 164//57
f 147//58 156//58 157//58
f 623//59 165//59 152//59
f 147//60 158//60 148//60
f 152//61 166//61 624//61
f 621//62 158//62 159//62
f 624//63 167//63 153//63
f 149//64 159//64 160//64
f 153//65 168//65 625//65
f 622//66 160//66 161//66
f 167//67 183//67 168//67
f 160//68 176//68 161//68
f 169//69 183//69 184//69
f 161//70 177//70 162//70
f 155//71 145//71 170//71
f 154//72 169//72 184//72
f 162//73 178//73 163//73
f 155//74 171//74 156//74
f 163//75 179//75 164//75
f 156//76 172//76 157//76
f 164//77 180//77 165//77
f 157//78 173//78 158//78
f 166//79 180//79 181//79
f 158//80 174//80 159//80
f 167//81 181//81 182//81
f 159//82 175//82 160//82
f 171//83 187//83 172//83
f 179//84 195//84 180//84
f 172//85 188//85 173//85
f 181//86 195//86 196//86
f 173//87 189//87 174//87
f 182//88 196//88 197//88
f 174//89 190//89 175//89
f 183//90 197//90 198//90
f 175//91 191//91 176//91
f 184//92 198//92 199//92
f 177//93 191//93 192//93
f 170//94 145//94 185//94
f 154//95 184//95 199//95
f 177//96 193//96 178//96
f 170//97 186//97 171//97
f 179//98 193//98 194//98
f 190//99 206//99 191//99
f 199//100 213//100 214//100
f 192//101 206//101 207//101
f 185//102 145//102 200//102
f 154//103 199//103 214//103
f 192//104 208//104 193//104
f 185//105 201//105 186//105
f 194//106 208//106 209//106
f 186//107 202//107 187//107
f 195//108 209//108 210//108
f 187//109 203//109 188//109
f 195//110 211//110 196//110
f 188//111 204//111 189//111
f 196//112 212//112 197//112
f 189//113 205//113 190//113
f 198//114 212//114 213//114
f 210//115 224//115 225//115
f 202//116 218//116 203//116
f 211//117 225//117 226//117
f 204//118 218//118 219//118
f 211//119 227//119 212//119
f 204//120 220//120 205//120
f 213//121 227//121 228//121
f 205//122 221//122 206//122
f 213//123 229//123 214//123
f 207//124 221//124 222//124
f 200//125 145//125 215//125
f 154//126 214//126 229//126
f 207//127 223//127 208//127
f 200//128 216//128 201//128
f 209//129 223//129 224//129
f 201//130 217//130 202//130
f 229//131 243//131 244//131
f 221//132 237//132 222//132
f 215//133 145//133 230//133
f 154//134 229//134 244//134
f 222//135 238//135 223//135
f 215//136 231//136 216//136
f 223//137 239//137 224//137
f 217//138 231//138 232//138
f 225//139 239//139 240//139
f 218//140 232//140 233//140
f 225//141 241//141 226//141
f 218//142 234//142 219//142
f 226//143 242//143 227//143
f 219//144 235//144 220//144
f 228//145 242//145 243//145
f 220//146 236//146 221//146
f 232//147 248//147 233//147
f 241//148 255//148 256//148
f 233//149 249//149 234//149
f 241//150 257//150 242//150
f 234//151 250//151 235//151
f 243//152 257//152 258//152
f 235//153 251//153 236//153
f 243//154 259//154 244//154
f 236//155 252//155 237//155
f 230//156 145//156 245//156
f 154//157 244//157 259//157
f 237//158 253//158 238//158
f 230//159 246//159 231//159
f 238//160 254//160 239//160
f 232//161 246//161 247//161
f 240//162 254//162 255//162
f 251//163 267//163 252//163
f 245//164 145//164 260//164
f 154//165 259//165 274//165
f 252//166 268//166 253//166
f 245//167 261//167 246//167
f 253//168 269//168 254//168
f 246//169 262//169 247//169
f 254//170 270//170 255//170
f 247//171 263//171 248//171
f 256//172 270//172 271//172
f 248//173 264//173 249//173
f 256//174 272//174 257//174
f 249//175 265//175 250//175
f 258//176 272//176 273//176
f 250//177 266//177 251//177
f 258//178 274//178 259//178
f 270//179 286//179 271//179
f 263//180 279//180 264//180
f 271//181 287//181 272//181
f 264//182 280//182 265//182
f 273//183 287//183 288//183
f 265//184 281//184 266//184
f 273//185 289//185 274//185
f 266//186 282//186 267//186
f 260//187 145//187 275//187
f 154//188 274//188 289//188
f 267//189 283//189 268//189
f 260//190 276//190 261//190
f 268//191 284//191 269//191
f 262//192 276//192 277//192
f 270//193 284//193 285//193
f 263//194 277//194 278//194
f 154//195 289//195 304//195
f 282//196 298//196 283//196
f 275//197 291//197 276//197
f 283//198 299//198 284//198
f 276//199 292//199 277//199
f 285//200 299//200 300//200
f 278//201 292//201 293//201
f 285//202 301//202 286//202
f 278//203 294//203 279//203
f 286//204 302//204 287//204
f 279//205 295//205 280//205
f 288//206 302//206 303//206
f 280//207 296//207 281//207
f 288//208 304//208 289//208
f 282//209 296//209 297//209
f 275//210 145//210 290//210
f 301//211 317//211 302//211
f 294//212 310//212 295//212
f 302//213 318//213 303//213
f 295//214 311//214 296//214
f 304//215 318//215 319//215
f 296//216 312//216 297//216
f 290//217 145//217 305//217
f 154//218 304//218 319//218
f 297//219 313//219 298//219
f 290//220 306//220 291//220
f 299//221 313//221 314//221
f 291//222 307//222 292//222
f 300//223 314//223 315//223
f 293//224 307//224 308//224
f 301//225 315//225 316//225
f 293//226 309//226 294//226
f 305//227 321//227 306//227
f 313//228 329//228 314//228
f 306//229 322//229 307//229
f 315//230 329//230 330//230
f 308//231 322//231 323//231
f 315//232 331//232 316//232
f 308//233 324//233 309//233
f 316//234 332//234 317//234
f 309//235 325//235 310//235
f 317//236 333//236 318//236
f 310//237 326//237 311//237
f 318//238 334//238 319//238
f 312//239 326//239 327//239
f 305//240 145//240 320//240
f 154//241 319//241 334//241
f 312//242 328//242 313//242
f 324//243 340//243 325//243
f 333//244 347//244 348//244
f 325//245 341//245 326//245
f 333//246 349//246 334//246
f 327//247 341//247 342//247
f 320//248 145//248 335//248
f 154//249 334//249 349//249
f 327//250 343//250 328//250
f 320//251 336//251 321//251
f 328//252 344//252 329//252
f 321//253 337//253 322//253
f 330//254 344//254 345//254
f 322//255 338//255 323//255
f 330//256 346//256 331//256
f 324//257 338//257 339//257
f 331//258 347//258 332//258
f 343//259 359//259 344//259
f 336//260 352//260 337//260
f 345//261 359//261 360//261
f 338//262 352//262 353//262
f 345//263 361//263 346//263
f 339//264 353//264 354//264
f 346//265 362//265 347//265
f 339//266 355//266 340//266
f 348//267 362//267 363//267
f 340//268 356//268 341//268
f 348//269 364//269 349//269
f 342//270 356//270 357//270
f 335//271 145//271 350//271
f 154//272 349//272 364//272
f 342//273 358//273 343//273
f 335//274 351//274 336//274
f 362//275 378//275 363//275
f 356//276 370//276 371//276
f 363//277 379//277 364//277
f 356//278 372//278 357//278
f 350//279 145//279 365//279
f 154//280 364//280 379//280
f 357//281 373//281 358//281
f 350//282 366//282 351//282
f 358//283 374//283 359//283
f 352//284 366//284 367//284
f 360//285 374//285 375//285
f 352//286 368//286 353//286
f 360//287 376//287 361//287
f 354//288 368//288 369//288
f 361//289 377//289 362//289
f 354//290 370//290 355//290
f 366//291 382//291 367//291
f 375//292 389//292 390//292
f 367//293 383//293 368//293
f 376//294 390//294 391//294
f 368//295 384//295 369//295
f 376//296 392//296 377//296
f 369//297 385//297 370//297
f 378//298 392//298 393//298
f 371//299 385//299 386//299
f 378//300 394//300 379//300
f 371//301 387//301 372//301
f 365//302 145//302 380//302
f 154//303 379//303 394//303
f 372//304 388//304 373//304
f 365//305 381//305 366//305
f 373//306 389//306 374//306
f 385//307 401//307 386//307
f 393//308 409//308 394//308
f 387//309 401//309 402//309
f 380//310 145//310 395//310
f 154//311 394//311 409//311
f 387//312 403//312 388//312
f 380//313 396//313 381//313
f 388//314 404//314 389//314
f 381//315 397//315 382//315
f 390//316 404//316 405//316
f 383//317 397//317 398//317
f 390//318 406//318 391//318
f 383//319 399//319 384//319
f 391//320 407//320 392//320
f 384//321 400//321 385//321
f 393//322 407//322 408//322
f 405//323 419//323 420//323
f 398//324 412//324 413//324
f 406//325 420//325 421//325
f 398//326 414//326 399//326
f 406//327 422//327 407//327
f 399//328 415//328 400//328
f 408//329 422//329 423//329
f 400//330 416//330 401//330
f 409//331 423//331 424//331
f 401//332 417//332 402//332
f 395//333 145//333 410//333
f 154//334 409//334 424//334
f 402//335 418//335 403//335
f 395//336 411//336 396//336
f 403//337 419//337 404//337
f 396//338 412//338 397//338
f 423//339 439//339 424//339
f 417//340 431//340 432//340
f 410//341 145//341 425//341
f 154//342 424//342 439//342
f 417//343 433//343 418//343
f 410//344 426//344 411//344
f 418//345 434//345 419//345
f 411//346 427//346 412//346
f 420//347 434//347 435//347
f 412//348 428//348 413//348
f 421//349 435//349 436//349
f 413//350 429//350 414//350
f 421//351 437//351 422//351
f 414//352 430//352 415//352
f 423//353 437//353 438//353
f 415//354 431//354 416//354
f 435//355 451//355 436//355
f 429//356 443//356 444//356
f 436//357 452//357 437//357
f 429//358 445//358 430//358
f 438//359 452//359 453//359
f 430//360 446//360 431//360
f 438//361 454//361 439//361
f 431//362 447//362 432//362
f 425//363 145//363 440//363
f 154//364 439//364 454//364
f 432//365 448//365 433//365
f 425//366 441//366 426//366
f 434//367 448//367 449//367
f 426//368 442//368 427//368
f 435//369 449//369 450//369
f 428//370 442//370 443//370
f 440//371 145//371 455//371
f 154//372 454//372 469//372
f 447//373 463//373 448//373
f 440//374 456//374 441//374
f 449//375 463//375 464//375
f 441//376 457//376 442//376
f 450//377 464//377 465//377
f 442//378 458//378 443//378
f 450//379 466//379 451//379
f 444//380 458//380 459//380
f 451//381 467//381 452//381
f 444//382 460//382 445//382
f 453//383 467//383 468//383
f 445//384 461//384 446//384
f 453//385 469//385 454//385
f 446//386 462//386 447//386
f 459//387 473//387 474//387
f 466//388 482//388 467//388
f 459//389 475//389 460//389
f 468//390 482//390 483//390
f 460//391 476//391 461//391
f 469//392 483//392 484//392
f 461//393 477//393 462//393
f 455//394 145//394 470//394
f 154//395 469//395 484//395
f 462//396 478//396 463//396
f 455//397 471//397 456//397
f 464//398 478//398 479//398
f 456//399 472//399 457//399
f 465//400 479//400 480//400
f 457//401 473//401 458//401
f 465//402 481//402 466//402
f 477//403 493//403 478//403
f 470//404 486//404 471//404
f 479//405 493//405 494//405
f 471//406 487//406 472//406
f 480//407 494//407 495//407
f 472//408 488//408 473//408
f 480//409 496//409 481//409
f 474//410 488//410 489//410
f 481//411 497//411 482//411
f 474//412 490//412 475//412
f 482//413 498//413 483//413
f 475//414 491//414 476//414
f 483//415 499//415 484//415
f 476//416 492//416 477//416
f 470//417 145//417 485//417
f 154//418 484//418 499//418
f 497//419 511//419 512//419
f 490//420 504//420 505//420
f 497//421 513//421 498//421
f 490//422 506//422 491//422
f 498//423 514//423 499//423
f 492//424 506//424 507//424
f 485//425 145//425 500//425
f 154//426 499//426 514//426
f 492//427 508//427 493//427
f 486//428 500//428 501//428
f 494//429 508//429 509//429
f 486//430 502//430 487//430
f 494//431 510//431 495//431
f 487//432 503//432 488//432
f 495//433 511//433 496//433
f 488//434 504//434 489//434
f 500//435 516//435 501//435
f 509//436 523//436 524//436
f 501//437 517//437 502//437
f 509//438 525//438 510//438
f 502//439 518//439 503//439
f 510//440 526//440 511//440
f 504//441 518//441 519//441
f 511//442 527//442 512//442
f 504//443 520//443 505//443
f 513//444 527//444 528//444
f 505//445 521//445 506//445
f 514//446 528//446 529//446
f 507//447 521//447 522//447
f 500//448 145//448 515//448
f 154//449 514//449 529//449
f 507//450 523//450 508//450
f 520//451 534//451 535//451
f 528//452 542//452 543//452
f 520//453 536//453 521//453
f 528//454 544//454 529//454
f 522//455 536//455 537//455
f 515//456 145//456 530//456
f 154//457 529//457 544//457
f 522//458 538//458 523//458
f 515//459 531//459 516//459
f 524//460 538//460 539//460
f 516//461 532//461 517//461
f 524//462 540//462 525//462
f 517//463 533//463 518//463
f 525//464 541//464 526//464
f 519//465 533//465 534//465
f 527//466 541//466 542//466
f 539//467 553//467 554//467
f 531//468 547//468 532//468
f 539//469 555//469 540//469
f 532//470 548//470 533//470
f 540//471 556//471 541//471
f 534//472 548//472 549//472
f 542//473 556//473 557//473
f 535//474 549//474 550//474
f 543//475 557//475 558//475
f 535//476 551//476 536//476
f 543//477 559//477 544//477
f 536//478 552//478 537//478
f 530//479 145//479 545//479
f 154//480 544//480 559//480
f 537//481 553//481 538//481
f 530//482 546//482 531//482
f 557//483 573//483 558//483
f 550//484 566//484 551//484
f 558//485 574//485 559//485
f 551//486 567//486 552//486
f 545//487 145//487 560//487
f 154//488 559//488 574//488
f 552//489 568//489 553//489
f 545//490 561//490 546//490
f 554//491 568//491 569//491
f 546//492 562//492 547//492
f 554//493 570//493 555//493
f 547//494 563//494 548//494
f 555//495 571//495 556//495
f 549//496 563//496 564//496
f 557//497 571//497 572//497
f 550//498 564//498 565//498
f 569//499 585//499 570//499
f 562//500 578//500 563//500
f 570//501 586//501 571//501
f 563//502 579//502 564//502
f 572//503 586//503 587//503
f 565//504 579//504 580//504
f 572//505 588//505 573//505
f 565//506 581//506 566//506
f 573//507 589//507 574//507
f 567//508 581//508 582//508
f 560//509 145//509 575//509
f 154//510 574//510 589//510
f 567//511 583//511 568//511
f 560//512 576//512 561//512
f 569//513 583//513 584//513
f 561//514 577//514 562//514
f 588//515 604//515 589//515
f 582//516 596//516 597//516
f 575//517 145//517 590//517
f 154//518 589//518 604//518
f 582//519 598//519 583//519
f 575//520 591//520 576//520
f 584//521 598//521 599//521
f 576//522 592//522 577//522
f 584//523 600//523 585//523
f 577//524 593//524 578//524
f 585//525 601//525 586//525
f 579//526 593//526 594//526
f 587//527 601//527 602//527
f 579//528 595//528 580//528
f 587//529 603//529 588//529
f 580//530 596//530 581//530
f 592//531 608//531 593//531
f 600//532 616//532 601//532
f 593//533 609//533 594//533
f 602//534 616//534 617//534
f 594//535 610//535 595//535
f 602//536 618//536 603//536
f 595//537 611//537 596//537
f 604//538 618//538 619//538
f 597//539 611//539 612//539
f 590//540 145//540 605//540
f 154//541 604//541 619//541
f 597//542 613//542 598//542
f 590//543 606//543 591//543
f 599//544 613//544 614//544
f 591//545 607//545 592//545
f 599//546 615//546 600//546
f 611//547 150//547 612//547
f 605//548 145//548 146//548
f 154//549 619//549 626//549
f 612//550 151//550 613//550
f 605//551 620//551 606//551
f 614//552 151//552 623//552
f 607//553 620//553 147//553
f 614//554 152//554 615//554
f 608//555 147//555 148//555
f 615//556 624//556 616//556
f 609//557 148//557 621//557
f 616//558 153//558 617//558
f 610//559 621//559 149//559
f 617//560 625//560 618//560
f 610//561 622//561 611//561
f 618//562 626//562 619//562
f 625//621 168//621 169//621
f 622//563 161//563 162//563
f 151//622 150//622 162//622
f 620//56 146//56 155//56
f 623//57 151//57 163//57
f 147//58 620//58 156//58
f 623//59 164//59 165//59
f 147//60 157//60 158//60
f 152//61 165//61 166//61
f 621//62 148//62 158//62
f 624//63 166//63 167//63
f 149//64 621//64 159//64
f 153//65 167//65 168//65
f 622//66 149//66 160//66
f 167//623 182//623 183//623
f 160//68 175//68 176//68
f 169//624 168//624 183//624
f 161//70 176//70 177//70
f 162//625 177//625 178//625
f 155//74 170//74 171//74
f 163//75 178//75 179//75
f 156//566 171//566 172//566
f 164//77 179//77 180//77
f 157//78 172//78 173//78
f 166//79 165//79 180//79
f 158//80 173//80 174//80
f 167//81 166//81 181//81
f 159//82 174//82 175//82
f 171//626 186//626 187//626
f 179//84 194//84 195//84
f 172//85 187//85 188//85
f 181//86 180//86 195//86
f 173//87 188//87 189//87
f 182//88 181//88 196//88
f 174//89 189//89 190//89
f 183//627 182//627 197//627
f 175//91 190//91 191//91
f 184//628 183//628 198//628
f 177//567 176//567 191//567
f 177//629 192//629 193//629
f 170//630 185//630 186//630
f 179//98 178//98 193//98
f 190//99 205//99 206//99
f 199//631 198//631 213//631
f 192//101 191//101 206//101
f 192//104 207//104 208//104
f 185//632 200//632 201//632
f 194//106 193//106 208//106
f 186//107 201//107 202//107
f 195//108 194//108 209//108
f 187//109 202//109 203//109
f 195//110 210//110 211//110
f 188//111 203//111 204//111
f 196//112 211//112 212//112
f 189//113 204//113 205//113
f 198//114 197//114 212//114
f 210//115 209//115 224//115
f 202//116 217//116 218//116
f 211//117 210//117 225//117
f 204//118 203//118 218//118
f 211//119 226//119 227//119
f 204//120 219//120 220//120
f 213//121 212//121 227//121
f 205//122 220//122 221//122
f 213//633 228//633 229//633
f 207//571 206//571 221//571
f 207//634 222//634 223//634
f 200//635 215//635 216//635
f 209//129 208//129 223//129
f 201//130 216//130 217//130
f 229//636 228//636 243//636
f 221//637 236//637 237//637
f 222//638 237//638 238//638
f 215//639 230//639 231//639
f 223//137 238//137 239//137
f 217//138 216//138 231//138
f 225//139 224//139 239//139
f 218//140 217//140 232//140
f 225//141 240//141 241//141
f 218//142 233//142 234//142
f 226//143 241//143 242//143
f 219//144 234//144 235//144
f 228//145 227//145 242//145
f 220//146 235//146 236//146
f 232//147 247//147 248//147
f 241//148 240//148 255//148
f 233//149 248//149 249//149
f 241//150 256//150 257//150
f 234//640 249//640 250//640
f 243//152 242//152 257//152
f 235//153 250//153 251//153
f 243//641 258//641 259//641
f 236//573 251//573 252//573
f 237//642 252//642 253//642
f 230//159 245//159 246//159
f 238//160 253//160 254//160
f 232//161 231//161 246//161
f 240//643 239//643 254//643
f 251//644 266//644 267//644
f 252//645 267//645 268//645
f 245//646 260//646 261//646
f 253//168 268//168 269//168
f 246//169 261//169 262//169
f 254//170 269//170 270//170
f 247//171 262//171 263//171
f 256//172 255//172 270//172
f 248//173 263//173 264//173
f 256//174 271//174 272//174
f 249//175 264//175 265//175
f 258//176 257//176 272//176
f 250//177 265//177 266//177
f 258//647 273//647 274//647
f 270//179 285//179 286//179
f 263//180 278//180 279//180
f 271//181 286//181 287//181
f 264//182 279//182 280//182
f 273//183 272//183 287//183
f 265//184 280//184 281//184
f 273//648 288//648 289//648
f 266//649 281//649 282//649
f 267//189 282//189 283//189
f 260//650 275//650 276//650
f 268//191 283//191 284//191
f 262//192 261//192 276//192
f 270//193 269//193 284//193
f 263//194 262//194 277//194
f 282//196 297//196 298//196
f 275//577 290//577 291//577
f 283//198 298//198 299//198
f 276//199 291//199 292//199
f 285//651 284//651 299//651
f 278//201 277//201 292//201
f 285//202 300//202 301//202
f 278//203 293//203 294//203
f 286//204 301//204 302//204
f 279//652 294//652 295//652
f 288//206 287//206 302//206
f 280//207 295//207 296//207
f 288//653 303//653 304//653
f 282//209 281//209 296//209
f 301//211 316//211 317//211
f 294//212 309//212 310//212
f 302//213 317//213 318//213
f 295//214 310//214 311//214
f 304//654 303//654 318//654
f 296//579 311//579 312//579
f 297//219 312//219 313//219
f 290//655 305//655 306//655
f 299//221 298//221 313//221
f 291//222 306//222 307//222
f 300//223 299//223 314//223
f 293//224 292//224 307//224
f 301//225 300//225 315//225
f 293//226 308//226 309//226
f 305//227 320//227 321//227
f 313//228 328//228 329//228
f 306//656 321//656 322//656
f 315//230 314//230 329//230
f 308//231 307//231 322//231
f 315//232 330//232 331//232
f 308//233 323//233 324//233
f 316//234 331//234 332//234
f 309//235 324//235 325//235
f 317//236 332//236 333//236
f 310//237 325//237 326//237
f 318//238 333//238 334//238
f 312//239 311//239 326//239
f 312//242 327//242 328//242
f 324//243 339//243 340//243
f 333//244 332//244 347//244
f 325//245 340//245 341//245
f 333//657 348//657 349//657
f 327//583 326//583 341//583
f 327//658 342//658 343//658
f 320//659 335//659 336//659
f 328//252 343//252 344//252
f 321//253 336//253 337//253
f 330//254 329//254 344//254
f 322//255 337//255 338//255
f 330//256 345//256 346//256
f 324//660 323//660 338//660
f 331//258 346//258 347//258
f 343//259 358//259 359//259
f 336//584 351//584 352//584
f 345//261 344//261 359//261
f 338//262 337//262 352//262
f 345//263 360//263 361//263
f 339//264 338//264 353//264
f 346//265 361//265 362//265
f 339//266 354//266 355//266
f 348//661 347//661 362//661
f 340//268 355//268 356//268
f 348//662 363//662 364//662
f 342//663 341//663 356//663
f 342//664 357//664 358//664
f 335//665 350//665 351//665
f 362//275 377//275 378//275
f 356//276 355//276 370//276
f 363//666 378//666 379//666
f 356//586 371//586 372//586
f 357//667 372//667 373//667
f 350//282 365//282 366//282
f 358//283 373//283 374//283
f 352//284 351//284 366//284
f 360//285 359//285 374//285
f 352//286 367//286 368//286
f 360//287 375//287 376//287
f 354//288 353//288 368//288
f 361//289 376//289 377//289
f 354//290 369//290 370//290
f 366//291 381//291 382//291
f 375//292 374//292 389//292
f 367//668 382//668 383//668
f 376//294 375//294 390//294
f 368//295 383//295 384//295
f 376//296 391//296 392//296
f 369//297 384//297 385//297
f 378//298 377//298 392//298
f 371//299 370//299 385//299
f 378//300 393//300 394//300
f 371//669 386//669 387//669
f 372//304 387//304 388//304
f 365//670 380//670 381//670
f 373//306 388//306 389//306
f 385//307 400//307 401//307
f 393//308 408//308 409//308
f 387//671 386//671 401//671
f 387//672 402//672 403//672
f 380//673 395//673 396//673
f 388//314 403//314 404//314
f 381//315 396//315 397//315
f 390//316 389//316 404//316
f 383//317 382//317 397//317
f 390//318 405//318 406//318
f 383//319 398//319 399//319
f 391//320 406//320 407//320
f 384//321 399//321 400//321
f 393//322 392//322 407//322
f 405//323 404//323 419//323
f 398//324 397//324 412//324
f 406//325 405//325 420//325
f 398//326 413//326 414//326
f 406//327 421//327 422//327
f 399//328 414//328 415//328
f 408//329 407//329 422//329
f 400//330 415//330 416//330
f 409//331 408//331 423//331
f 401//332 416//332 417//332
f 402//335 417//335 418//335
f 395//336 410//336 411//336
f 403//337 418//337 419//337
f 396//338 411//338 412//338
f 423//674 438//674 439//674
f 417//340 416//340 431//340
f 417//675 432//675 433//675
f 410//676 425//676 426//676
f 418//345 433//345 434//345
f 411//677 426//677 427//677
f 420//347 419//347 434//347
f 412//348 427//348 428//348
f 421//349 420//349 435//349
f 413//350 428//350 429//350
f 421//351 436//351 437//351
f 414//352 429//352 430//352
f 423//678 422//678 437//678
f 415//354 430//354 431//354
f 435//355 450//355 451//355
f 429//679 428//679 443//679
f 436//357 451//357 452//357
f 429//358 444//358 445//358
f 438//359 437//359 452//359
f 430//360 445//360 446//360
f 438//680 453//680 454//680
f 431//362 446//362 447//362
f 432//365 447//365 448//365
f 425//594 440//594 441//594
f 434//367 433//367 448//367
f 426//368 441//368 442//368
f 435//369 434//369 449//369
f 428//370 427//370 442//370
f 447//373 462//373 463//373
f 440//681 455//681 456//681
f 449//375 448//375 463//375
f 441//376 456//376 457//376
f 450//377 449//377 464//377
f 442//378 457//378 458//378
f 450//379 465//379 466//379
f 444//380 443//380 458//380
f 451//381 466//381 467//381
f 444//382 459//382 460//382
f 453//383 452//383 467//383
f 445//384 460//384 461//384
f 453//682 468//682 469//682
f 446//596 461//596 462//596
f 459//387 458//387 473//387
f 466//388 481//388 482//388
f 459//389 474//389 475//389
f 468//390 467//390 482//390
f 460//391 475//391 476//391
f 469//683 468//683 483//683
f 461//597 476//597 477//597
f 462//684 477//684 478//684
f 455//685 470//685 471//685
f 464//398 463//398 478//398
f 456//399 471//399 472//399
f 465//400 464//400 479//400
f 457//401 472//401 473//401
f 465//402 480//402 481//402
f 477//686 492//686 493//686
f 470//404 485//404 486//404
f 479//405 478//405 493//405
f 471//406 486//406 487//406
f 480//407 479//407 494//407
f 472//408 487//408 488//408
f 480//409 495//409 496//409
f 474//410 473//410 488//410
f 481//411 496//411 497//411
f 474//412 489//412 490//412
f 482//413 497//413 498//413
f 475//414 490//414 491//414
f 483//415 498//415 499//415
f 476//601 491//601 492//601
f 497//687 496//687 511//687
f 490//420 489//420 504//420
f 497//421 512//421 513//421
f 490//422 505//422 506//422
f 498//688 513//688 514//688
f 492//424 491//424 506//424
f 492//427 507//427 508//427
f 486//603 485//603 500//603
f 494//429 493//429 508//429
f 486//430 501//430 502//430
f 494//431 509//431 510//431
f 487//432 502//432 503//432
f 495//433 510//433 511//433
f 488//434 503//434 504//434
f 500//689 515//689 516//689
f 509//436 508//436 523//436
f 501//437 516//437 517//437
f 509//438 524//438 525//438
f 502//439 517//439 518//439
f 510//440 525//440 526//440
f 504//441 503//441 518//441
f 511//442 526//442 527//442
f 504//443 519//443 520//443
f 513//444 512//444 527//444
f 505//445 520//445 521//445
f 514//446 513//446 528//446
f 507//447 506//447 521//447
f 507//450 522//450 523//450
f 520//605 519//605 534//605
f 528//452 527//452 542//452
f 520//453 535//453 536//453
f 528//454 543//454 544//454
f 522//606 521//606 536//606
f 522//690 537//690 538//690
f 515//607 530//607 531//607
f 524//460 523//460 538//460
f 516//461 531//461 532//461
f 524//691 539//691 540//691
f 517//463 532//463 533//463
f 525//464 540//464 541//464
f 519//465 518//465 533//465
f 527//466 526//466 541//466
f 539//467 538//467 553//467
f 531//692 546//692 547//692
f 539//469 554//469 555//469
f 532//470 547//470 548//470
f 540//471 555//471 556//471
f 534//472 533//472 548//472
f 542//473 541//473 556//473
f 535//474 534//474 549//474
f 543//693 542//693 557//693
f 535//476 550//476 551//476
f 543//477 558//477 559//477
f 536//694 551//694 552//694
f 537//695 552//695 553//695
f 530//696 545//696 546//696
f 557//483 572//483 573//483
f 550//484 565//484 566//484
f 558//485 573//485 574//485
f 551//486 566//486 567//486
f 552//489 567//489 568//489
f 545//490 560//490 561//490
f 554//491 553//491 568//491
f 546//492 561//492 562//492
f 554//493 569//493 570//493
f 547//494 562//494 563//494
f 555//495 570//495 571//495
f 549//496 548//496 563//496
f 557//497 556//497 571//497
f 550//498 549//498 564//498
f 569//499 584//499 585//499
f 562//500 577//500 578//500
f 570//501 585//501 586//501
f 563//502 578//502 579//502
f 572//503 571//503 586//503
f 565//504 564//504 579//504
f 572//505 587//505 588//505
f 565//506 580//506 581//506
f 573//507 588//507 589//507
f 567//508 566//508 581//508
f 567//511 582//511 583//511
f 560//697 575//697 576//697
f 569//513 568//513 583//513
f 561//514 576//514 577//514
f 588//698 603//698 604//698
f 582//516 581//516 596//516
f 582//699 597//699 598//699
f 575//700 590//700 591//700
f 584//521 583//521 598//521
f 576//701 591//701 592//701
f 584//523 599//523 600//523
f 577//524 592//524 593//524
f 585//525 600//525 601//525
f 579//526 578//526 593//526
f 587//527 586//527 601//527
f 579//528 594//528 595//528
f 587//702 602//702 603//702
f 580//530 595//530 596//530
f 592//531 607//531 608//531
f 600//532 615//532 616//532
f 593//533 608//533 609//533
f 602//534 601//534 616//534
f 594//535 609//535 610//535
f 602//536 617//536 618//536
f 595//537 610//537 611//537
f 604//703 603//703 618//703
f 597//539 596//539 611//539
f 597//542 612//542 613//542
f 590//704 605//704 606//704
f 599//544 598//544 613//544
f 591//615 606//615 607//615
f 599//546 614//546 615//546
f 611//547 622//547 150//547
f 612//705 150//705 151//705
f 605//551 146//551 620//551
f 614//552 613//552 151//552
f 607//553 606//553 620//553
f 614//554 623//554 152//554
f 608//555 607//555 147//555
f 615//556 152//556 624//556
f 609//557 608//557 148//557
f 616//558 624//558 153//558
f 610//559 609//559 621//559
f 617//560 153//560 625//560
f 610//561 149//561 622//561
f 618//562 625//562 626//562
usemtl hatch_yellow
f 630//563 639//563 631//563
f 880//564 627//564 632//564
f 881//56 632//56 633//56
f 628//58 633//58 634//58
f 882//60 634//60 635//60
f 882//62 636//62 629//62
f 883//64 636//64 637//64
f 883//66 638//66 630//66
f 637//68 646//68 638//68
f 638//565 647//565 639//565
f 632//71 627//71 640//71
f 632//74 641//74 633//74
f 633//566 642//566 634//566
f 634//78 643//78 635//78
f 635//80 644//80 636//80
f 636//82 645//82 637//82
f 642//83 649//83 650//83
f 642//85 651//85 643//85
f 643//87 652//87 644//87
f 644//89 653//89 645//89
f 646//91 653//91 654//91
f 646//567 655//567 647//567
f 640//568 627//568 648//568
f 640//569 649//569 641//569
f 654//99 661//99 662//99
f 655//101 662//101 663//101
f 648//570 627//570 656//570
f 648//105 657//105 649//105
f 649//107 658//107 650//107
f 650//109 659//109 651//109
f 651//111 660//111 652//111
f 652//113 661//113 653//113
f 658//116 667//116 659//116
f 660//118 667//118 668//118
f 660//120 669//120 661//120
f 662//122 669//122 670//122
f 663//571 670//571 671//571
f 656//572 627//572 664//572
f 656//128 665//128 657//128
f 657//130 666//130 658//130
f 671//132 678//132 679//132
f 664//133 627//133 672//133
f 664//136 673//136 665//136
f 665//138 674//138 666//138
f 666//140 675//140 667//140
f 668//142 675//142 676//142
f 668//144 677//144 669//144
f 670//146 677//146 678//146
f 674//147 683//147 675//147
f 676//149 683//149 684//149
f 676//151 685//151 677//151
f 678//153 685//153 686//153
f 679//573 686//573 687//573
f 672//574 627//574 680//574
f 673//575 680//575 681//575
f 673//161 682//161 674//161
f 687//576 694//576 695//576
f 680//164 627//164 688//164
f 680//167 689//167 681//167
f 681//169 690//169 682//169
f 682//171 691//171 683//171
f 684//173 691//173 692//173
f 684//175 693//175 685//175
f 686//177 693//177 694//177
f 692//180 699//180 700//180
f 692//182 701//182 693//182
f 694//184 701//184 702//184
f 695//186 702//186 703//186
f 688//187 627//187 696//187
f 689//190 696//190 697//190
f 689//192 698//192 690//192
f 690//194 699//194 691//194
f 696//577 705//577 697//577
f 697//199 706//199 698//199
f 698//201 707//201 699//201
f 700//203 707//203 708//203
f 700//205 709//205 701//205
f 702//207 709//207 710//207
f 703//209 710//209 711//209
f 696//578 627//578 704//578
f 708//212 717//212 709//212
f 710//214 717//214 718//214
f 711//579 718//579 719//579
f 704//580 627//580 712//580
f 704//581 713//581 705//581
f 705//222 714//222 706//222
f 706//224 715//224 707//224
f 708//226 715//226 716//226
f 712//582 721//582 713//582
f 714//229 721//229 722//229
f 714//231 723//231 715//231
f 716//233 723//233 724//233
f 716//235 725//235 717//235
f 718//237 725//237 726//237
f 719//239 726//239 727//239
f 712//240 627//240 720//240
f 724//243 733//243 725//243
f 726//245 733//245 734//245
f 727//583 734//583 735//583
f 720//248 627//248 728//248
f 720//251 729//251 721//251
f 721//253 730//253 722//253
f 722//255 731//255 723//255
f 724//257 731//257 732//257
f 729//584 738//584 730//584
f 730//262 739//262 731//262
f 732//264 739//264 740//264
f 732//266 741//266 733//266
f 734//268 741//268 742//268
f 735//585 742//585 743//585
f 728//271 627//271 736//271
f 728//274 737//274 729//274
f 742//276 749//276 750//276
f 743//586 750//586 751//586
f 736//279 627//279 744//279
f 736//587 745//587 737//587
f 737//284 746//284 738//284
f 738//286 747//286 739//286
f 740//288 747//288 748//288
f 740//290 749//290 741//290
f 745//291 754//291 746//291
f 746//293 755//293 747//293
f 747//295 756//295 748//295
f 748//297 757//297 749//297
f 750//299 757//299 758//299
f 751//301 758//301 759//301
f 744//588 627//588 752//588
f 745//305 752//305 753//305
f 758//307 765//307 766//307
f 759//589 766//589 767//589
f 752//590 627//590 760//590
f 752//313 761//313 753//313
f 754//315 761//315 762//315
f 754//317 763//317 755//317
f 756//319 763//319 764//319
f 756//321 765//321 757//321
f 762//324 771//324 763//324
f 764//326 771//326 772//326
f 764//328 773//328 765//328
f 766//330 773//330 774//330
f 767//332 774//332 775//332
f 760//333 627//333 768//333
f 761//336 768//336 769//336
f 761//338 770//338 762//338
f 775//591 782//591 783//591
f 768//592 627//592 776//592
f 768//593 777//593 769//593
f 769//346 778//346 770//346
f 770//348 779//348 771//348
f 772//350 779//350 780//350
f 772//352 781//352 773//352
f 774//354 781//354 782//354
f 779//356 788//356 780//356
f 780//358 789//358 781//358
f 782//360 789//360 790//360
f 783//362 790//362 791//362
f 776//363 627//363 784//363
f 776//594 785//594 777//594
f 777//368 786//368 778//368
f 778//370 787//370 779//370
f 784//595 627//595 792//595
f 784//374 793//374 785//374
f 785//376 794//376 786//376
f 786//378 795//378 787//378
f 788//380 795//380 796//380
f 788//382 797//382 789//382
f 790//384 797//384 798//384
f 791//596 798//596 799//596
f 796//387 803//387 804//387
f 796//389 805//389 797//389
f 798//391 805//391 806//391
f 799//597 806//597 807//597
f 792//598 627//598 800//598
f 792//599 801//599 793//599
f 793//600 802//600 794//600
f 794//401 803//401 795//401
f 800//404 809//404 801//404
f 802//406 809//406 810//406
f 802//408 811//408 803//408
f 804//410 811//410 812//410
f 804//412 813//412 805//412
f 806//414 813//414 814//414
f 807//601 814//601 815//601
f 800//417 627//417 808//417
f 812//420 821//420 813//420
f 814//422 821//422 822//422
f 815//602 822//602 823//602
f 808//425 627//425 816//425
f 808//603 817//603 809//603
f 810//430 817//430 818//430
f 810//432 819//432 811//432
f 812//434 819//434 820//434
f 816//435 825//435 817//435
f 818//437 825//437 826//437
f 818//439 827//439 819//439
f 820//441 827//441 828//441
f 820//443 829//443 821//443
f 822//445 829//445 830//445
f 823//604 830//604 831//604
f 816//448 627//448 824//448
f 828//605 837//605 829//605
f 830//453 837//453 838//453
f 831//606 838//606 839//606
f 824//456 627//456 832//456
f 824//607 833//607 825//607
f 826//461 833//461 834//461
f 826//463 835//463 827//463
f 828//465 835//465 836//465
f 834//468 841//468 842//468
f 834//470 843//470 835//470
f 836//472 843//472 844//472
f 836//474 845//474 837//474
f 838//476 845//476 846//476
f 839//608 846//608 847//608
f 832//609 627//609 840//609
f 832//610 841//610 833//610
f 846//484 853//484 854//484
f 847//611 854//611 855//611
f 840//487 627//487 848//487
f 840//490 849//490 841//490
f 842//492 849//492 850//492
f 842//494 851//494 843//494
f 844//496 851//496 852//496
f 844//498 853//498 845//498
f 850//500 859//500 851//500
f 852//502 859//502 860//502
f 852//504 861//504 853//504
f 854//506 861//506 862//506
f 855//612 862//612 863//612
f 848//509 627//509 856//509
f 848//512 857//512 849//512
f 850//514 857//514 858//514
f 863//613 870//613 871//613
f 856//517 627//517 864//517
f 857//520 864//520 865//520
f 857//522 866//522 858//522
f 858//524 867//524 859//524
f 860//526 867//526 868//526
f 860//528 869//528 861//528
f 862//530 869//530 870//530
f 866//531 875//531 867//531
f 868//533 875//533 876//533
f 868//535 877//535 869//535
f 870//537 877//537 878//537
f 871//614 878//614 879//614
f 864//540 627//540 872//540
f 864//543 873//543 865//543
f 866//615 873//615 874//615
f 879//616 630//616 631//616
f 872//548 627//548 880//548
f 872//551 881//551 873//551
f 873//553 628//553 874//553
f 874//555 882//555 875//555
f 876//557 882//557 629//557
f 877//559 629//559 883//559
f 878//561 883//561 630//561
f 663//18 727//18 791//18
f 630//706 638//706 639//706
f 881//56 880//56 632//56
f 628//58 881//58 633//58
f 882//60 628//60 634//60
f 882//62 635//62 636//62
f 883//64 629//64 636//64
f 883//66 637//66 638//66
f 637//68 645//68 646//68
f 638//70 646//70 647//70
f 632//707 640//707 641//707
f 633//76 641//76 642//76
f 634//78 642//78 643//78
f 635//80 643//80 644//80
f 636//82 644//82 645//82
f 642//83 641//83 649//83
f 642//85 650//85 651//85
f 643//87 651//87 652//87
f 644//89 652//89 653//89
f 646//91 645//91 653//91
f 646//567 654//567 655//567
f 640//630 648//630 649//630
f 654//99 653//99 661//99
f 655//101 654//101 662//101
f 648//708 656//708 657//708
f 649//107 657//107 658//107
f 650//109 658//109 659//109
f 651//111 659//111 660//111
f 652//113 660//113 661//113
f 658//116 666//116 667//116
f 660//118 659//118 667//118
f 660//120 668//120 669//120
f 662//122 661//122 669//122
f 663//124 662//124 670//124
f 656//635 664//635 665//635
f 657//130 665//130 666//130
f 671//637 670//637 678//637
f 664//709 672//709 673//709
f 665//138 673//138 674//138
f 666//140 674//140 675//140
f 668//142 667//142 675//142
f 668//144 676//144 677//144
f 670//146 669//146 677//146
f 674//147 682//147 683//147
f 676//149 675//149 683//149
f 676//151 684//151 685//151
f 678//153 677//153 685//153
f 679//573 678//573 686//573
f 673//159 672//159 680//159
f 673//161 681//161 682//161
f 687//644 686//644 694//644
f 680//167 688//167 689//167
f 681//169 689//169 690//169
f 682//171 690//171 691//171
f 684//173 683//173 691//173
f 684//175 692//175 693//175
f 686//177 685//177 693//177
f 692//180 691//180 699//180
f 692//182 700//182 701//182
f 694//184 693//184 701//184
f 695//649 694//649 702//649
f 689//650 688//650 696//650
f 689//192 697//192 698//192
f 690//194 698//194 699//194
f 696//197 704//197 705//197
f 697//199 705//199 706//199
f 698//201 706//201 707//201
f 700//203 699//203 707//203
f 700//205 708//205 709//205
f 702//207 701//207 709//207
f 703//209 702//209 710//209
f 708//212 716//212 717//212
f 710//214 709//214 717//214
f 711//216 710//216 718//216
f 704//655 712//655 713//655
f 705//710 713//710 714//710
f 706//224 714//224 715//224
f 708//226 707//226 715//226
f 712//227 720//227 721//227
f 714//229 713//229 721//229
f 714//231 722//231 723//231
f 716//233 715//233 723//233
f 716//235 724//235 725//235
f 718//237 717//237 725//237
f 719//239 718//239 726//239
f 724//243 732//243 733//243
f 726//245 725//245 733//245
f 727//583 726//583 734//583
f 720//659 728//659 729//659
f 721//253 729//253 730//253
f 722//255 730//255 731//255
f 724//257 723//257 731//257
f 729//584 737//584 738//584
f 730//262 738//262 739//262
f 732//264 731//264 739//264
f 732//266 740//266 741//266
f 734//268 733//268 741//268
f 735//663 734//663 742//663
f 728//665 736//665 737//665
f 742//276 741//276 749//276
f 743//586 742//586 750//586
f 736//282 744//282 745//282
f 737//711 745//711 746//711
f 738//286 746//286 747//286
f 740//288 739//288 747//288
f 740//290 748//290 749//290
f 745//291 753//291 754//291
f 746//293 754//293 755//293
f 747//295 755//295 756//295
f 748//297 756//297 757//297
f 750//299 749//299 757//299
f 751//669 750//669 758//669
f 745//712 744//712 752//712
f 758//307 757//307 765//307
f 759//671 758//671 766//671
f 752//713 760//713 761//713
f 754//315 753//315 761//315
f 754//317 762//317 763//317
f 756//319 755//319 763//319
f 756//321 764//321 765//321
f 762//324 770//324 771//324
f 764//326 763//326 771//326
f 764//328 772//328 773//328
f 766//330 765//330 773//330
f 767//332 766//332 774//332
f 761//336 760//336 768//336
f 761//338 769//338 770//338
f 775//340 774//340 782//340
f 768//344 776//344 777//344
f 769//346 777//346 778//346
f 770//348 778//348 779//348
f 772//350 771//350 779//350
f 772//352 780//352 781//352
f 774//354 773//354 781//354
f 779//356 787//356 788//356
f 780//358 788//358 789//358
f 782//360 781//360 789//360
f 783//362 782//362 790//362
f 776//714 784//714 785//714
f 777//368 785//368 786//368
f 778//370 786//370 787//370
f 784//681 792//681 793//681
f 785//376 793//376 794//376
f 786//378 794//378 795//378
f 788//380 787//380 795//380
f 788//382 796//382 797//382
f 790//384 789//384 797//384
f 791//596 790//596 798//596
f 796//387 795//387 803//387
f 796//389 804//389 805//389
f 798//391 797//391 805//391
f 799//597 798//597 806//597
f 792//685 800//685 801//685
f 793//399 801//399 802//399
f 794//401 802//401 803//401
f 800//404 808//404 809//404
f 802//406 801//406 809//406
f 802//408 810//408 811//408
f 804//410 803//410 811//410
f 804//715 812//715 813//715
f 806//414 805//414 813//414
f 807//601 806//601 814//601
f 812//420 820//420 821//420
f 814//422 813//422 821//422
f 815//716 814//716 822//716
f 808//428 816//428 817//428
f 810//430 809//430 817//430
f 810//432 818//432 819//432
f 812//434 811//434 819//434
f 816//689 824//689 825//689
f 818//437 817//437 825//437
f 818//439 826//439 827//439
f 820//441 819//441 827//441
f 820//443 828//443 829//443
f 822//445 821//445 829//445
f 823//717 822//717 830//717
f 828//451 836//451 837//451
f 830//453 829//453 837//453
f 831//606 830//606 838//606
f 824//459 832//459 833//459
f 826//461 825//461 833//461
f 826//463 834//463 835//463
f 828//465 827//465 835//465
f 834//468 833//468 841//468
f 834//470 842//470 843//470
f 836//472 835//472 843//472
f 836//474 844//474 845//474
f 838//476 837//476 845//476
f 839//694 838//694 846//694
f 832//696 840//696 841//696
f 846//484 845//484 853//484
f 847//611 846//611 854//611
f 840//718 848//718 849//718
f 842//492 841//492 849//492
f 842//494 850//494 851//494
f 844//496 843//496 851//496
f 844//498 852//498 853//498
f 850//500 858//500 859//500
f 852//502 851//502 859//502
f 852//504 860//504 861//504
f 854//506 853//506 861//506
f 855//612 854//612 862//612
f 848//719 856//719 857//719
f 850//514 849//514 857//514
f 863//613 862//613 870//613
f 857//720 856//720 864//720
f 857//701 865//701 866//701
f 858//524 866//524 867//524
f 860//526 859//526 867//526
f 860//528 868//528 869//528
f 862//530 861//530 869//530
f 866//531 874//531 875//531
f 868//533 867//533 875//533
f 868//535 876//535 877//535
f 870//537 869//537 877//537
f 871//614 870//614 878//614
f 864//704 872//704 873//704
f 866//545 865//545 873//545
f 879//616 878//616 630//616
f 872//721 880//721 881//721
f 873//553 881//553 628//553
f 874//555 628//555 882//555
f 876//557 875//557 882//557
f 877//559 876//559 629//559
f 878//561 877//561 883//561
f 791//18 799//18 807//18
f 807//18 815//18 823//18
f 823//722 831//722 839//722
f 839//723 847//723 855//723
f 855//18 863//18 871//18
f 871//18 879//18 631//18
f 631//18 639//18 647//18
f 647//18 655//18 663//18
f 663//18 671//18 679//18
f 679//18 687//18 695//18
f 695//18 703//18 711//18
f 711//722 719//722 727//722
f 727//18 735//18 743//18
f 743//18 751//18 759//18
f 759//18 767//18 775//18
f 775//18 783//18 791//18
f 791//18 807//18 823//18
f 823//18 839//18 855//18
f 855//18 871//18 631//18
f 631//18 647//18 663//18
f 663//18 679//18 695//18
f 695//18 711//18 727//18
f 727//18 743//18 759//18
f 759//18 775//18 791//18
f 791//18 823//18 855//18
f 855//18 631//18 663//18
f 663//18 695//18 727//18
f 727//18 759//18 791//18
f 791//18 855//18 663//18
