# Blender 5.2.2 LTS
# www.blender.org
mtllib transformer.mtl
o transformer
v -9.500000 0.730000 0.000000
v -9.500000 0.730000 0.150000
v -9.500000 1.830000 0.000000
v -9.500000 1.830000 0.150000
v -8.500000 0.730000 0.000000
v -8.500000 0.730000 0.150000
v -8.500000 1.830000 0.000000
v -8.500000 1.830000 0.150000
v -9.250000 0.780000 0.150000
v -9.250000 0.780000 0.400000
v -9.250000 1.780000 0.150000
v -9.250000 1.780000 0.400000
v -8.750000 0.780000 0.150000
v -8.750000 0.780000 0.400000
v -8.750000 1.780000 0.150000
v -8.750000 1.780000 0.400000
v -9.250000 0.780000 1.750000
v -9.250000 0.780000 2.000000
v -9.250000 1.780000 1.750000
v -9.250000 1.780000 2.000000
v -8.750000 0.780000 1.750000
v -8.750000 0.780000 2.000000
v -8.750000 1.780000 1.750000
v -8.750000 1.780000 2.000000
v -9.000000 1.020000 0.400000
v -9.000000 1.020000 1.750000
v -8.968674 1.017947 0.400000
v -8.968674 1.017947 1.750000
v -8.937883 1.011822 0.400000
v -8.937883 1.011822 1.750000
v -8.908156 1.001731 0.400000
v -8.908156 1.001731 1.750000
v -8.880000 0.987846 0.400000
v -8.880000 0.987846 1.750000
v -8.853897 0.970405 0.400000
v -8.853897 0.970405 1.750000
v -8.830295 0.949706 0.400000
v -8.830295 0.949706 1.750000
v -8.809595 0.926103 0.400000
v -8.809595 0.926103 1.750000
v -8.792154 0.900000 0.400000
v -8.792154 0.900000 1.750000
v -8.778269 0.871844 0.400000
v -8.778269 0.871844 1.750000
v -8.768178 0.842117 0.400000
v -8.768178 0.842117 1.750000
v -8.762053 0.811326 0.400000
v -8.762053 0.811326 1.750000
v -8.760000 0.780000 0.400000
v -8.760000 0.780000 1.750000
v -8.762053 0.748674 0.400000
v -8.762053 0.748674 1.750000
v -8.768178 0.717883 0.400000
v -8.768178 0.717883 1.750000
v -8.778269 0.688156 0.400000
v -8.778269 0.688156 1.750000
v -8.792154 0.660000 0.400000
v -8.792154 0.660000 1.750000
v -8.809595 0.633897 0.400000
v -8.809595 0.633897 1.750000
v -8.830295 0.610294 0.400000
v -8.830295 0.610294 1.750000
v -8.853897 0.589595 0.400000
v -8.853897 0.589595 1.750000
v -8.880000 0.572154 0.400000
v -8.880000 0.572154 1.750000
v -8.908156 0.558269 0.400000
v -8.908156 0.558269 1.750000
v -8.937883 0.548178 0.400000
v -8.937883 0.548178 1.750000
v -8.968674 0.542053 0.400000
v -8.968674 0.542053 1.750000
v -9.000000 0.540000 0.400000
v -9.000000 0.540000 1.750000
v -9.031326 0.542053 0.400000
v -9.031326 0.542053 1.750000
v -9.062117 0.548178 0.400000
v -9.062117 0.548178 1.750000
v -9.091844 0.558269 0.400000
v -9.091844 0.558269 1.750000
v -9.120000 0.572154 0.400000
v -9.120000 0.572154 1.750000
v -9.146103 0.589595 0.400000
v -9.146103 0.589595 1.750000
v -9.169705 0.610294 0.400000
v -9.169705 0.610294 1.750000
v -9.190405 0.633897 0.400000
v -9.190405 0.633897 1.750000
v -9.207846 0.660000 0.400000
v -9.207846 0.660000 1.750000
v -9.221731 0.688156 0.400000
v -9.221731 0.688156 1.750000
v -9.231822 0.717883 0.400000
v -9.231822 0.717883 1.750000
v -9.237947 0.748674 0.400000
v -9.237947 0.748674 1.750000
v -9.240000 0.780000 0.400000
v -9.240000 0.780000 1.750000
v -9.237947 0.811326 0.400000
v -9.237947 0.811326 1.750000
v -9.231822 0.842117 0.400000
v -9.231822 0.842117 1.750000
v -9.221731 0.871844 0.400000
v -9.221731 0.871844 1.750000
v -9.207846 0.900000 0.400000
v -9.207846 0.900000 1.750000
v -9.190405 0.926103 0.400000
v -9.190405 0.926103 1.750000
v -9.169705 0.949706 0.400000
v -9.169705 0.949706 1.750000
v -9.146103 0.970405 0.400000
v -9.146103 0.970405 1.750000
v -9.120000 0.987846 0.400000
v -9.120000 0.987846 1.750000
v -9.091844 1.001731 0.400000
v -9.091844 1.001731 1.750000
v -9.062117 1.011822 0.400000
v -9.062117 1.011822 1.750000
v -9.031326 1.017947 0.400000
v -9.031326 1.017947 1.750000
v -8.800000 0.810000 2.000000
v -8.800000 0.810000 2.200000
v -8.796084 0.809743 2.000000
v -8.796084 0.809743 2.200000
v -8.792235 0.808978 2.000000
v -8.792235 0.808978 2.200000
v -8.788520 0.807716 2.000000
v -8.788520 0.807716 2.200000
v -8.785000 0.805981 2.000000
v -8.785000 0.805981 2.200000
v -8.781737 0.803801 2.000000
v -8.781737 0.803801 2.200000
v -8.778787 0.801213 2.000000
v -8.778787 0.801213 2.200000
v -8.776199 0.798263 2.000000
v -8.776199 0.798263 2.200000
v -8.774019 0.795000 2.000000
v -8.774019 0.795000 2.200000
v -8.772284 0.791480 2.000000
v -8.772284 0.791480 2.200000
v -8.771023 0.787765 2.000000
v -8.771023 0.787765 2.200000
v -8.770257 0.783916 2.000000
v -8.770257 0.783916 2.200000
v -8.770000 0.780000 2.000000
v -8.770000 0.780000 2.200000
v -8.770257 0.776084 2.000000
v -8.770257 0.776084 2.200000
v -8.771023 0.772235 2.000000
v -8.771023 0.772235 2.200000
v -8.772284 0.768519 2.000000
v -8.772284 0.768519 2.200000
v -8.774019 0.765000 2.000000
v -8.774019 0.765000 2.200000
v -8.776199 0.761737 2.000000
v -8.776199 0.761737 2.200000
v -8.778787 0.758787 2.000000
v -8.778787 0.758787 2.200000
v -8.781737 0.756199 2.000000
v -8.781737 0.756199 2.200000
v -8.785000 0.754019 2.000000
v -8.785000 0.754019 2.200000
v -8.788520 0.752284 2.000000
v -8.788520 0.752284 2.200000
v -8.792235 0.751022 2.000000
v -8.792235 0.751022 2.200000
v -8.796084 0.750257 2.000000
v -8.796084 0.750257 2.200000
v -8.800000 0.750000 2.000000
v -8.800000 0.750000 2.200000
v -8.803916 0.750257 2.000000
v -8.803916 0.750257 2.200000
v -8.807765 0.751022 2.000000
v -8.807765 0.751022 2.200000
v -8.811481 0.752284 2.000000
v -8.811481 0.752284 2.200000
v -8.815001 0.754019 2.000000
v -8.815001 0.754019 2.200000
v -8.818263 0.756199 2.000000
v -8.818263 0.756199 2.200000
v -8.821214 0.758787 2.000000
v -8.821214 0.758787 2.200000
v -8.823801 0.761737 2.000000
v -8.823801 0.761737 2.200000
v -8.825981 0.765000 2.000000
v -8.825981 0.765000 2.200000
v -8.827717 0.768519 2.000000
v -8.827717 0.768519 2.200000
v -8.828978 0.772235 2.000000
v -8.828978 0.772235 2.200000
v -8.829743 0.776084 2.000000
v -8.829743 0.776084 2.200000
v -8.830000 0.780000 2.000000
v -8.830000 0.780000 2.200000
v -8.829743 0.783916 2.000000
v -8.829743 0.783916 2.200000
v -8.828978 0.787765 2.000000
v -8.828978 0.787765 2.200000
v -8.827717 0.791480 2.000000
v -8.827717 0.791480 2.200000
v -8.825981 0.795000 2.000000
v -8.825981 0.795000 2.200000
v -8.823801 0.798263 2.000000
v -8.823801 0.798263 2.200000
v -8.821214 0.801213 2.000000
v -8.821214 0.801213 2.200000
v -8.818263 0.803801 2.000000
v -8.818263 0.803801 2.200000
v -8.815001 0.805981 2.000000
v -8.815001 0.805981 2.200000
v -8.811481 0.807716 2.000000
v -8.811481 0.807716 2.200000
v -8.807765 0.808978 2.000000
v -8.807765 0.808978 2.200000
v -8.803916 0.809743 2.000000
v -8.803916 0.809743 2.200000
v -9.000000 1.520000 0.400000
v -9.000000 1.520000 1.750000
v -8.968674 1.517947 0.400000
v -8.968674 1.517947 1.750000
v -8.937883 1.511822 0.400000
v -8.937883 1.511822 1.750000
v -8.908156 1.501731 0.400000
v -8.908156 1.501731 1.750000
v -8.880000 1.487846 0.400000
v -8.880000 1.487846 1.750000
v -8.853897 1.470405 0.400000
v -8.853897 1.470405 1.750000
v -8.830295 1.449706 0.400000
v -8.830295 1.449706 1.750000
v -8.809595 1.426103 0.400000
v -8.809595 1.426103 1.750000
v -8.792154 1.400000 0.400000
v -8.792154 1.400000 1.750000
v -8.778269 1.371844 0.400000
v -8.778269 1.371844 1.750000
v -8.768178 1.342117 0.400000
v -8.768178 1.342117 1.750000
v -8.762053 1.311326 0.400000
v -8.762053 1.311326 1.750000
v -8.760000 1.280000 0.400000
v -8.760000 1.280000 1.750000
v -8.762053 1.248674 0.400000
v -8.762053 1.248674 1.750000
v -8.768178 1.217883 0.400000
v -8.768178 1.217883 1.750000
v -8.778269 1.188156 0.400000
v -8.778269 1.188156 1.750000
v -8.792154 1.160000 0.400000
v -8.792154 1.160000 1.750000
v -8.809595 1.133897 0.400000
v -8.809595 1.133897 1.750000
v -8.830295 1.110294 0.400000
v -8.830295 1.110294 1.750000
v -8.853897 1.089595 0.400000
v -8.853897 1.089595 1.750000
v -8.880000 1.072154 0.400000
v -8.880000 1.072154 1.750000
v -8.908156 1.058269 0.400000
v -8.908156 1.058269 1.750000
v -8.937883 1.048178 0.400000
v -8.937883 1.048178 1.750000
v -8.968674 1.042053 0.400000
v -8.968674 1.042053 1.750000
v -9.000000 1.040000 0.400000
v -9.000000 1.040000 1.750000
v -9.031326 1.042053 0.400000
v -9.031326 1.042053 1.750000
v -9.062117 1.048178 0.400000
v -9.062117 1.048178 1.750000
v -9.091844 1.058269 0.400000
v -9.091844 1.058269 1.750000
v -9.120000 1.072154 0.400000
v -9.120000 1.072154 1.750000
v -9.146103 1.089595 0.400000
v -9.146103 1.089595 1.750000
v -9.169705 1.110294 0.400000
v -9.169705 1.110294 1.750000
v -9.190405 1.133897 0.400000
v -9.190405 1.133897 1.750000
v -9.207846 1.160000 0.400000
v -9.207846 1.160000 1.750000
v -9.221731 1.188156 0.400000
v -9.221731 1.188156 1.750000
v -9.231822 1.217883 0.400000
v -9.231822 1.217883 1.750000
v -9.237947 1.248674 0.400000
v -9.237947 1.248674 1.750000
v -9.240000 1.280000 0.400000
v -9.240000 1.280000 1.750000
v -9.237947 1.311326 0.400000
v -9.237947 1.311326 1.750000
v -9.231822 1.342117 0.400000
v -9.231822 1.342117 1.750000
v -9.221731 1.371844 0.400000
v -9.221731 1.371844 1.750000
v -9.207846 1.400000 0.400000
v -9.207846 1.400000 1.750000
v -9.190405 1.426103 0.400000
v -9.190405 1.426103 1.750000
v -9.169705 1.449706 0.400000
v -9.169705 1.449706 1.750000
v -9.146103 1.470405 0.400000
v -9.146103 1.470405 1.750000
v -9.120000 1.487846 0.400000
v -9.120000 1.487846 1.750000
v -9.091844 1.501731 0.400000
v -9.091844 1.501731 1.750000
v -9.062117 1.511822 0.400000
v -9.062117 1.511822 1.750000
v -9.031326 1.517947 0.400000
v -9.031326 1.517947 1.750000
v -8.800000 1.310000 2.000000
v -8.800000 1.310000 2.200000
v -8.796084 1.309743 2.000000
v -8.796084 1.309743 2.200000
v -8.792235 1.308978 2.000000
v -8.792235 1.308978 2.200000
v -8.788520 1.307716 2.000000
v -8.788520 1.307716 2.200000
v -8.785000 1.305981 2.000000
v -8.785000 1.305981 2.200000
v -8.781737 1.303801 2.000000
v -8.781737 1.303801 2.200000
v -8.778787 1.301213 2.000000
v -8.778787 1.301213 2.200000
v -8.776199 1.298263 2.000000
v -8.776199 1.298263 2.200000
v -8.774019 1.295000 2.000000
v -8.774019 1.295000 2.200000
v -8.772284 1.291480 2.000000
v -8.772284 1.291480 2.200000
v -8.771023 1.287765 2.000000
v -8.771023 1.287765 2.200000
v -8.770257 1.283916 2.000000
v -8.770257 1.283916 2.200000
v -8.770000 1.280000 2.000000
v -8.770000 1.280000 2.200000
v -8.770257 1.276084 2.000000
v -8.770257 1.276084 2.200000
v -8.771023 1.272235 2.000000
v -8.771023 1.272235 2.200000
v -8.772284 1.268520 2.000000
v -8.772284 1.268520 2.200000
v -8.774019 1.265000 2.000000
v -8.774019 1.265000 2.200000
v -8.776199 1.261737 2.000000
v -8.776199 1.261737 2.200000
v -8.778787 1.258787 2.000000
v -8.778787 1.258787 2.200000
v -8.781737 1.256199 2.000000
v -8.781737 1.256199 2.200000
v -8.785000 1.254019 2.000000
v -8.785000 1.254019 2.200000
v -8.788520 1.252284 2.000000
v -8.788520 1.252284 2.200000
v -8.792235 1.251022 2.000000
v -8.792235 1.251022 2.200000
v -8.796084 1.250257 2.000000
v -8.796084 1.250257 2.200000
v -8.800000 1.250000 2.000000
v -8.800000 1.250000 2.200000
v -8.803916 1.250257 2.000000
v -8.803916 1.250257 2.200000
v -8.807765 1.251022 2.000000
v -8.807765 1.251022 2.200000
v -8.811481 1.252284 2.000000
v -8.811481 1.252284 2.200000
v -8.815001 1.254019 2.000000
v -8.815001 1.254019 2.200000
v -8.818263 1.256199 2.000000
v -8.818263 1.256199 2.200000
v -8.821214 1.258787 2.000000
v -8.821214 1.258787 2.200000
v -8.823801 1.261737 2.000000
v -8.823801 1.261737 2.200000
v -8.825981 1.265000 2.000000
v -8.825981 1.265000 2.200000
v -8.827717 1.268520 2.000000
v -8.827717 1.268520 2.200000
v -8.828978 1.272235 2.000000
v -8.828978 1.272235 2.200000
v -8.829743 1.276084 2.000000
v -8.829743 1.276084 2.200000
v -8.830000 1.280000 2.000000
v -8.830000 1.280000 2.200000
v -8.829743 1.283916 2.000000
v -8.829743 1.283916 2.200000
v -8.828978 1.287765 2.000000
v -8.828978 1.287765 2.200000
v -8.827717 1.291480 2.000000
v -8.827717 1.291480 2.200000
v -8.825981 1.295000 2.000000
v -8.825981 1.295000 2.200000
v -8.823801 1.298263 2.000000
v -8.823801 1.298263 2.200000
v -8.821214 1.301213 2.000000
v -8.821214 1.301213 2.200000
v -8.818263 1.303801 2.000000
v -8.818263 1.303801 2.200000
v -8.815001 1.305981 2.000000
v -8.815001 1.305981 2.200000
v -8.811481 1.307716 2.000000
v -8.811481 1.307716 2.200000
v -8.807765 1.308978 2.000000
v -8.807765 1.308978 2.200000
v -8.803916 1.309743 2.000000
v -8.803916 1.309743 2.200000
v -9.000000 2.020000 0.400000
v -9.000000 2.020000 1.750000
v -8.968674 2.017947 0.400000
v -8.968674 2.017947 1.750000
v -8.937883 2.011822 0.400000
v -8.937883 2.011822 1.750000
v -8.908156 2.001731 0.400000
v -8.908156 2.001731 1.750000
v -8.880000 1.987846 0.400000
v -8.880000 1.987846 1.750000
v -8.853897 1.970405 0.400000
v -8.853897 1.970405 1.750000
v -8.830295 1.949706 0.400000
v -8.830295 1.949706 1.750000
v -8.809595 1.926103 0.400000
v -8.809595 1.926103 1.750000
v -8.792154 1.900000 0.400000
v -8.792154 1.900000 1.750000
v -8.778269 1.871844 0.400000
v -8.778269 1.871844 1.750000
v -8.768178 1.842117 0.400000
v -8.768178 1.842117 1.750000
v -8.762053 1.811326 0.400000
v -8.762053 1.811326 1.750000
v -8.760000 1.780000 0.400000
v -8.760000 1.780000 1.750000
v -8.762053 1.748674 0.400000
v -8.762053 1.748674 1.750000
v -8.768178 1.717883 0.400000
v -8.768178 1.717883 1.750000
v -8.778269 1.688156 0.400000
v -8.778269 1.688156 1.750000
v -8.792154 1.660000 0.400000
v -8.792154 1.660000 1.750000
v -8.809595 1.633897 0.400000
v -8.809595 1.633897 1.750000
v -8.830295 1.610294 0.400000
v -8.830295 1.610294 1.750000
v -8.853897 1.589595 0.400000
v -8.853897 1.589595 1.750000
v -8.880000 1.572154 0.400000
v -8.880000 1.572154 1.750000
v -8.908156 1.558269 0.400000
v -8.908156 1.558269 1.750000
v -8.937883 1.548178 0.400000
v -8.937883 1.548178 1.750000
v -8.968674 1.542053 0.400000
v -8.968674 1.542053 1.750000
v -9.000000 1.540000 0.400000
v -9.000000 1.540000 1.750000
v -9.031326 1.542053 0.400000
v -9.031326 1.542053 1.750000
v -9.062117 1.548178 0.400000
v -9.062117 1.548178 1.750000
v -9.091844 1.558269 0.400000
v -9.091844 1.558269 1.750000
v -9.120000 1.572154 0.400000
v -9.120000 1.572154 1.750000
v -9.146103 1.589595 0.400000
v -9.146103 1.589595 1.750000
v -9.169705 1.610294 0.400000
v -9.169705 1.610294 1.750000
v -9.190405 1.633897 0.400000
v -9.190405 1.633897 1.750000
v -9.207846 1.660000 0.400000
v -9.207846 1.660000 1.750000
v -9.221731 1.688156 0.400000
v -9.221731 1.688156 1.750000
v -9.231822 1.717883 0.400000
v -9.231822 1.717883 1.750000
v -9.237947 1.748674 0.400000
v -9.237947 1.748674 1.750000
v -9.240000 1.780000 0.400000
v -9.240000 1.780000 1.750000
v -9.237947 1.811326 0.400000
v -9.237947 1.811326 1.750000
v -9.231822 1.842117 0.400000
v -9.231822 1.842117 1.750000
v -9.221731 1.871844 0.400000
v -9.221731 1.871844 1.750000
v -9.207846 1.900000 0.400000
v -9.207846 1.900000 1.750000
v -9.190405 1.926103 0.400000
v -9.190405 1.926103 1.750000
v -9.169705 1.949706 0.400000
v -9.169705 1.949706 1.750000
v -9.146103 1.970405 0.400000
v -9.146103 1.970405 1.750000
v -9.120000 1.987846 0.400000
v -9.120000 1.987846 1.750000
v -9.091844 2.001731 0.400000
v -9.091844 2.001731 1.750000
v -9.062117 2.011822 0.400000
v -9.062117 2.011822 1.750000
v -9.031326 2.017947 0.400000
v -9.031326 2.017947 1.750000
v -8.800000 1.810000 2.000000
v -8.800000 1.810000 2.200000
v -8.796084 1.809743 2.000000
v -8.796084 1.809743 2.200000
v -8.792235 1.808978 2.000000
v -8.792235 1.808978 2.200000
v -8.788520 1.807716 2.000000
v -8.788520 1.807716 2.200000
v -8.785000 1.805981 2.000000
v -8.785000 1.805981 2.200000
v -8.781737 1.803801 2.000000
v -8.781737 1.803801 2.200000
v -8.778787 1.801213 2.000000
v -8.778787 1.801213 2.200000
v -8.776199 1.798263 2.000000
v -8.776199 1.798263 2.200000
v -8.774019 1.795000 2.000000
v -8.774019 1.795000 2.200000
v -8.772284 1.791481 2.000000
v -8.772284 1.791481 2.200000
v -8.771023 1.787765 2.000000
v -8.771023 1.787765 2.200000
v -8.770257 1.783916 2.000000
v -8.770257 1.783916 2.200000
v -8.770000 1.780000 2.000000
v -8.770000 1.780000 2.200000
v -8.770257 1.776084 2.000000
v -8.770257 1.776084 2.200000
v -8.771023 1.772235 2.000000
v -8.771023 1.772235 2.200000
v -8.772284 1.768519 2.000000
v -8.772284 1.768519 2.200000
v -8.774019 1.765000 2.000000
v -8.774019 1.765000 2.200000
v -8.776199 1.761737 2.000000
v -8.776199 1.761737 2.200000
v -8.778787 1.758787 2.000000
v -8.778787 1.758787 2.200000
v -8.781737 1.756199 2.000000
v -8.781737 1.756199 2.200000
v -8.785000 1.754019 2.000000
v -8.785000 1.754019 2.200000
v -8.788520 1.752284 2.000000
v -8.788520 1.752284 2.200000
v -8.792235 1.751022 2.000000
v -8.792235 1.751022 2.200000
v -8.796084 1.750257 2.000000
v -8.796084 1.750257 2.200000
v -8.800000 1.750000 2.000000
v -8.800000 1.750000 2.200000
v -8.803916 1.750257 2.000000
v -8.803916 1.750257 2.200000
v -8.807765 1.751022 2.000000
v -8.807765 1.751022 2.200000
v -8.811481 1.752284 2.000000
v -8.811481 1.752284 2.200000
v -8.815001 1.754019 2.000000
v -8.815001 1.754019 2.200000
v -8.818263 1.756199 2.000000
v -8.818263 1.756199 2.200000
v -8.821214 1.758787 2.000000
v -8.821214 1.758787 2.200000
v -8.823801 1.761737 2.000000
v -8.823801 1.761737 2.200000
v -8.825981 1.765000 2.000000
v -8.825981 1.765000 2.200000
v -8.827717 1.768519 2.000000
v -8.827717 1.768519 2.200000
v -8.828978 1.772235 2.000000
v -8.828978 1.772235 2.200000
v -8.829743 1.776084 2.000000
v -8.829743 1.776084 2.200000
v -8.830000 1.780000 2.000000
v -8.830000 1.780000 2.200000
v -8.829743 1.783916 2.000000
v -8.829743 1.783916 2.200000
v -8.828978 1.787765 2.000000
v -8.828978 1.787765 2.200000
v -8.827717 1.791481 2.000000
v -8.827717 1.791481 2.200000
v -8.825981 1.795000 2.000000
v -8.825981 1.795000 2.200000
v -8.823801 1.798263 2.000000
v -8.823801 1.798263 2.200000
v -8.821214 1.801213 2.000000
v -8.821214 1.801213 2.200000
v -8.818263 1.803801 2.000000
v -8.818263 1.803801 2.200000
v -8.815001 1.805981 2.000000
v -8.815001 1.805981 2.200000
v -8.811481 1.807716 2.000000
v -8.811481 1.807716 2.200000
v -8.807765 1.808978 2.000000
v -8.807765 1.808978 2.200000
v -8.803916 1.809743 2.000000
v -8.803916 1.809743 2.200000
v -9.650000 0.572000 0.000000
v -9.650000 0.572000 2.300000
v -9.656928 0.576000 0.000000
v -9.656928 0.576000 2.300000
v -9.656928 0.584000 0.000000
v -9.656928 0.584000 2.300000
v -9.650000 0.588000 0.000000
v -9.650000 0.588000 2.300000
v -9.643071 0.584000 0.000000
v -9.643071 0.584000 2.300000
v -9.643071 0.576000 0.000000
v -9.643071 0.576000 2.300000
v -9.433333 0.572000 0.000000
v -9.433333 0.572000 2.300000
v -9.440262 0.576000 0.000000
v -9.440262 0.576000 2.300000
v -9.440262 0.584000 0.000000
v -9.440262 0.584000 2.300000
v -9.433333 0.588000 0.000000
v -9.433333 0.588000 2.300000
v -9.426405 0.584000 0.000000
v -9.426405 0.584000 2.300000
v -9.426405 0.576000 0.000000
v -9.426405 0.576000 2.300000
v -9.216666 0.572000 0.000000
v -9.216666 0.572000 2.300000
v -9.223595 0.576000 0.000000
v -9.223595 0.576000 2.300000
v -9.223595 0.584000 0.000000
v -9.223595 0.584000 2.300000
v -9.216666 0.588000 0.000000
v -9.216666 0.588000 2.300000
v -9.209738 0.584000 0.000000
v -9.209738 0.584000 2.300000
v -9.209738 0.576000 0.000000
v -9.209738 0.576000 2.300000
v -9.000000 0.572000 0.000000
v -9.000000 0.572000 2.300000
v -9.006928 0.576000 0.000000
v -9.006928 0.576000 2.300000
v -9.006928 0.584000 0.000000
v -9.006928 0.584000 2.300000
v -9.000000 0.588000 0.000000
v -9.000000 0.588000 2.300000
v -8.993072 0.584000 0.000000
v -8.993072 0.584000 2.300000
v -8.993072 0.576000 0.000000
v -8.993072 0.576000 2.300000
v -8.783334 0.572000 0.000000
v -8.783334 0.572000 2.300000
v -8.790262 0.576000 0.000000
v -8.790262 0.576000 2.300000
v -8.790262 0.584000 0.000000
v -8.790262 0.584000 2.300000
v -8.783334 0.588000 0.000000
v -8.783334 0.588000 2.300000
v -8.776405 0.584000 0.000000
v -8.776405 0.584000 2.300000
v -8.776405 0.576000 0.000000
v -8.776405 0.576000 2.300000
v -8.566667 0.572000 0.000000
v -8.566667 0.572000 2.300000
v -8.573595 0.576000 0.000000
v -8.573595 0.576000 2.300000
v -8.573595 0.584000 0.000000
v -8.573595 0.584000 2.300000
v -8.566667 0.588000 0.000000
v -8.566667 0.588000 2.300000
v -8.559738 0.584000 0.000000
v -8.559738 0.584000 2.300000
v -8.559738 0.576000 0.000000
v -8.559738 0.576000 2.300000
v -8.350000 0.572000 0.000000
v -8.350000 0.572000 2.300000
v -8.356929 0.576000 0.000000
v -8.356929 0.576000 2.300000
v -8.356929 0.584000 0.000000
v -8.356929 0.584000 2.300000
v -8.350000 0.588000 0.000000
v -8.350000 0.588000 2.300000
v -8.343072 0.584000 0.000000
v -8.343072 0.584000 2.300000
v -8.343072 0.576000 0.000000
v -8.343072 0.576000 2.300000
v -9.650000 0.580000 0.065000
v -8.350000 0.580000 0.065000
v -9.650000 0.592990 0.057500
v -8.350000 0.592990 0.057500
v -9.650000 0.592990 0.042500
v -8.350000 0.592990 0.042500
v -9.650000 0.580000 0.035000
v -8.350000 0.580000 0.035000
v -9.650000 0.567010 0.042500
v -8.350000 0.567010 0.042500
v -9.650000 0.567010 0.057500
v -8.350000 0.567010 0.057500
v -9.650000 0.580000 1.165000
v -8.350000 0.580000 1.165000
v -9.650000 0.592990 1.157500
v -8.350000 0.592990 1.157500
v -9.650000 0.592990 1.142500
v -8.350000 0.592990 1.142500
v -9.650000 0.580000 1.135000
v -8.350000 0.580000 1.135000
v -9.650000 0.567010 1.142500
v -8.350000 0.567010 1.142500
v -9.650000 0.567010 1.157500
v -8.350000 0.567010 1.157500
v -9.650000 0.580000 2.315000
v -8.350000 0.580000 2.315000
v -9.650000 0.592990 2.307500
v -8.350000 0.592990 2.307500
v -9.650000 0.592990 2.292500
v -8.350000 0.592990 2.292500
v -9.650000 0.580000 2.285000
v -8.350000 0.580000 2.285000
v -9.650000 0.567010 2.292500
v -8.350000 0.567010 2.292500
v -9.650000 0.567010 2.307500
v -8.350000 0.567010 2.307500
v -9.650000 1.972000 0.000000
v -9.650000 1.972000 2.300000
v -9.656928 1.976000 0.000000
v -9.656928 1.976000 2.300000
v -9.656928 1.984000 0.000000
v -9.656928 1.984000 2.300000
v -9.650000 1.988000 0.000000
v -9.650000 1.988000 2.300000
v -9.643071 1.984000 0.000000
v -9.643071 1.984000 2.300000
v -9.643071 1.976000 0.000000
v -9.643071 1.976000 2.300000
v -9.433333 1.972000 0.000000
v -9.433333 1.972000 2.300000
v -9.440262 1.976000 0.000000
v -9.440262 1.976000 2.300000
v -9.440262 1.984000 0.000000
v -9.440262 1.984000 2.300000
v -9.433333 1.988000 0.000000
v -9.433333 1.988000 2.300000
v -9.426405 1.984000 0.000000
v -9.426405 1.984000 2.300000
v -9.426405 1.976000 0.000000
v -9.426405 1.976000 2.300000
v -9.216666 1.972000 0.000000
v -9.216666 1.972000 2.300000
v -9.223595 1.976000 0.000000
v -9.223595 1.976000 2.300000
v -9.223595 1.984000 0.000000
v -9.223595 1.984000 2.300000
v -9.216666 1.988000 0.000000
v -9.216666 1.988000 2.300000
v -9.209738 1.984000 0.000000
v -9.209738 1.984000 2.300000
v -9.209738 1.976000 0.000000
v -9.209738 1.976000 2.300000
v -9.000000 1.972000 0.000000
v -9.000000 1.972000 2.300000
v -9.006928 1.976000 0.000000
v -9.006928 1.976000 2.300000
v -9.006928 1.984000 0.000000
v -9.006928 1.984000 2.300000
v -9.000000 1.988000 0.000000
v -9.000000 1.988000 2.300000
v -8.993072 1.984000 0.000000
v -8.993072 1.984000 2.300000
v -8.993072 1.976000 0.000000
v -8.993072 1.976000 2.300000
v -8.783334 1.972000 0.000000
v -8.783334 1.972000 2.300000
v -8.790262 1.976000 0.000000
v -8.790262 1.976000 2.300000
v -8.790262 1.984000 0.000000
v -8.790262 1.984000 2.300000
v -8.783334 1.988000 0.000000
v -8.783334 1.988000 2.300000
v -8.776405 1.984000 0.000000
v -8.776405 1.984000 2.300000
v -8.776405 1.976000 0.000000
v -8.776405 1.976000 2.300000
v -8.566667 1.972000 0.000000
v -8.566667 1.972000 2.300000
v -8.573595 1.976000 0.000000
v -8.573595 1.976000 2.300000
v -8.573595 1.984000 0.000000
v -8.573595 1.984000 2.300000
v -8.566667 1.988000 0.000000
v -8.566667 1.988000 2.300000
v -8.559738 1.984000 0.000000
v -8.559738 1.984000 2.300000
v -8.559738 1.976000 0.000000
v -8.559738 1.976000 2.300000
v -8.350000 1.972000 0.000000
v -8.350000 1.972000 2.300000
v -8.356929 1.976000 0.000000
v -8.356929 1.976000 2.300000
v -8.356929 1.984000 0.000000
v -8.356929 1.984000 2.300000
v -8.350000 1.988000 0.000000
v -8.350000 1.988000 2.300000
v -8.343072 1.984000 0.000000
v -8.343072 1.984000 2.300000
v -8.343072 1.976000 0.000000
v -8.343072 1.976000 2.300000
v -9.650000 1.980000 0.065000
v -8.350000 1.980000 0.065000
v -9.650000 1.992990 0.057500
v -8.350000 1.992990 0.057500
v -9.650000 1.992990 0.042500
v -8.350000 1.992990 0.042500
v -9.650000 1.980000 0.035000
v -8.350000 1.980000 0.035000
v -9.650000 1.967010 0.042500
v -8.350000 1.967010 0.042500
v -9.650000 1.967010 0.057500
v -8.350000 1.967010 0.057500
v -9.650000 1.980000 1.165000
v -8.350000 1.980000 1.165000
v -9.650000 1.992990 1.157500
v -8.350000 1.992990 1.157500
v -9.650000 1.992990 1.142500
v -8.350000 1.992990 1.142500
v -9.650000 1.980000 1.135000
v -8.350000 1.980000 1.135000
v -9.650000 1.967010 1.142500
v -8.350000 1.967010 1.142500
v -9.650000 1.967010 1.157500
v -8.350000 1.967010 1.157500
v -9.650000 1.980000 2.315000
v -8.350000 1.980000 2.315000
v -9.650000 1.992990 2.307500
v -8.350000 1.992990 2.307500
v -9.650000 1.992990 2.292500
v -8.350000 1.992990 2.292500
v -9.650000 1.980000 2.285000
v -8.350000 1.980000 2.285000
v -9.650000 1.967010 2.292500
v -8.350000 1.967010 2.292500
v -9.650000 1.967010 2.307500
v -8.350000 1.967010 2.307500
v -9.650000 0.572000 0.000000
v -9.650000 0.572000 2.300000
v -9.656928 0.576000 0.000000
v -9.656928 0.576000 2.300000
v -9.656928 0.584000 0.000000
v -9.656928 0.584000 2.300000
v -9.650000 0.588000 0.000000
v -9.650000 0.588000 2.300000
v -9.643071 0.584000 0.000000
v -9.643071 0.584000 2.300000
v -9.643071 0.576000 0.000000
v -9.643071 0.576000 2.300000
v -9.650000 0.805333 0.000000
v -9.650000 0.805333 2.300000
v -9.656928 0.809333 0.000000
v -9.656928 0.809333 2.300000
v -9.656928 0.817333 0.000000
v -9.656928 0.817333 2.300000
v -9.650000 0.821333 0.000000
v -9.650000 0.821333 2.300000
v -9.643071 0.817333 0.000000
v -9.643071 0.817333 2.300000
v -9.643071 0.809333 0.000000
v -9.643071 0.809333 2.300000
v -9.650000 1.038667 0.000000
v -9.650000 1.038667 2.300000
v -9.656928 1.042667 0.000000
v -9.656928 1.042667 2.300000
v -9.656928 1.050667 0.000000
v -9.656928 1.050667 2.300000
v -9.650000 1.054667 0.000000
v -9.650000 1.054667 2.300000
v -9.643071 1.050667 0.000000
v -9.643071 1.050667 2.300000
v -9.643071 1.042667 0.000000
v -9.643071 1.042667 2.300000
v -9.650000 1.272000 0.000000
v -9.650000 1.272000 2.300000
v -9.656928 1.276000 0.000000
v -9.656928 1.276000 2.300000
v -9.656928 1.284000 0.000000
v -9.656928 1.284000 2.300000
v -9.650000 1.288000 0.000000
v -9.650000 1.288000 2.300000
v -9.643071 1.284000 0.000000
v -9.643071 1.284000 2.300000
v -9.643071 1.276000 0.000000
v -9.643071 1.276000 2.300000
v -9.650000 1.505333 0.000000
v -9.650000 1.505333 2.300000
v -9.656928 1.509333 0.000000
v -9.656928 1.509333 2.300000
v -9.656928 1.517333 0.000000
v -9.656928 1.517333 2.300000
v -9.650000 1.521333 0.000000
v -9.650000 1.521333 2.300000
v -9.643071 1.517333 0.000000
v -9.643071 1.517333 2.300000
v -9.643071 1.509333 0.000000
v -9.643071 1.509333 2.300000
v -9.650000 1.738667 0.000000
v -9.650000 1.738667 2.300000
v -9.656928 1.742667 0.000000
v -9.656928 1.742667 2.300000
v -9.656928 1.750667 0.000000
v -9.656928 1.750667 2.300000
v -9.650000 1.754667 0.000000
v -9.650000 1.754667 2.300000
v -9.643071 1.750667 0.000000
v -9.643071 1.750667 2.300000
v -9.643071 1.742667 0.000000
v -9.643071 1.742667 2.300000
v -9.650000 1.972000 0.000000
v -9.650000 1.972000 2.300000
v -9.656928 1.976000 0.000000
v -9.656928 1.976000 2.300000
v -9.656928 1.984000 0.000000
v -9.656928 1.984000 2.300000
v -9.650000 1.988000 0.000000
v -9.650000 1.988000 2.300000
v -9.643071 1.984000 0.000000
v -9.643071 1.984000 2.300000
v -9.643071 1.976000 0.000000
v -9.643071 1.976000 2.300000
v -9.650000 0.580000 0.065000
v -9.650000 1.980000 0.065000
v -9.662990 0.580000 0.057500
v -9.662990 1.980000 0.057500
v -9.662990 0.580000 0.042500
v -9.662990 1.980000 0.042500
v -9.650000 0.580000 0.035000
v -9.650000 1.980000 0.035000
v -9.637010 0.580000 0.042500
v -9.637010 1.980000 0.042500
v -9.637010 0.580000 0.057500
v -9.637010 1.980000 0.057500
v -9.650000 0.580000 1.165000
v -9.650000 1.980000 1.165000
v -9.662990 0.580000 1.157500
v -9.662990 1.980000 1.157500
v -9.662990 0.580000 1.142500
v -9.662990 1.980000 1.142500
v -9.650000 0.580000 1.135000
v -9.650000 1.980000 1.135000
v -9.637010 0.580000 1.142500
v -9.637010 1.980000 1.142500
v -9.637010 0.580000 1.157500
v -9.637010 1.980000 1.157500
v -9.650000 0.580000 2.315000
v -9.650000 1.980000 2.315000
v -9.662990 0.580000 2.307500
v -9.662990 1.980000 2.307500
v -9.662990 0.580000 2.292500
v -9.662990 1.980000 2.292500
v -9.650000 0.580000 2.285000
v -9.650000 1.980000 2.285000
v -9.637010 0.580000 2.292500
v -9.637010 1.980000 2.292500
v -9.637010 0.580000 2.307500
v -9.637010 1.980000 2.307500
v -8.350000 0.572000 0.000000
v -8.350000 0.572000 2.300000
v -8.356929 0.576000 0.000000
v -8.356929 0.576000 2.300000
v -8.356929 0.584000 0.000000
v -8.356929 0.584000 2.300000
v -8.350000 0.588000 0.000000
v -8.350000 0.588000 2.300000
v -8.343072 0.584000 0.000000
v -8.343072 0.584000 2.300000
v -8.343072 0.576000 0.000000
v -8.343072 0.576000 2.300000
v -8.350000 0.805333 0.000000
v -8.350000 0.805333 2.300000
v -8.356929 0.809333 0.000000
v -8.356929 0.809333 2.300000
v -8.356929 0.817333 0.000000
v -8.356929 0.817333 2.300000
v -8.350000 0.821333 0.000000
v -8.350000 0.821333 2.300000
v -8.343072 0.817333 0.000000
v -8.343072 0.817333 2.300000
v -8.343072 0.809333 0.000000
v -8.343072 0.809333 2.300000
v -8.350000 1.038667 0.000000
v -8.350000 1.038667 2.300000
v -8.356929 1.042667 0.000000
v -8.356929 1.042667 2.300000
v -8.356929 1.050667 0.000000
v -8.356929 1.050667 2.300000
v -8.350000 1.054667 0.000000
v -8.350000 1.054667 2.300000
v -8.343072 1.050667 0.000000
v -8.343072 1.050667 2.300000
v -8.343072 1.042667 0.000000
v -8.343072 1.042667 2.300000
v -8.350000 1.272000 0.000000
v -8.350000 1.272000 2.300000
v -8.356929 1.276000 0.000000
v -8.356929 1.276000 2.300000
v -8.356929 1.284000 0.000000
v -8.356929 1.284000 2.300000
v -8.350000 1.288000 0.000000
v -8.350000 1.288000 2.300000
v -8.343072 1.284000 0.000000
v -8.343072 1.284000 2.300000
v -8.343072 1.276000 0.000000
v -8.343072 1.276000 2.300000
v -8.350000 1.505333 0.000000
v -8.350000 1.505333 2.300000
v -8.356929 1.509333 0.000000
v -8.356929 1.509333 2.300000
v -8.356929 1.517333 0.000000
v -8.356929 1.517333 2.300000
v -8.350000 1.521333 0.000000
v -8.350000 1.521333 2.300000
v -8.343072 1.517333 0.000000
v -8.343072 1.517333 2.300000
v -8.343072 1.509333 0.000000
v -8.343072 1.509333 2.300000
v -8.350000 1.738667 0.000000
v -8.350000 1.738667 2.300000
v -8.356929 1.742667 0.000000
v -8.356929 1.742667 2.300000
v -8.356929 1.750667 0.000000
v -8.356929 1.750667 2.300000
v -8.350000 1.754667 0.000000
v -8.350000 1.754667 2.300000
v -8.343072 1.750667 0.000000
v -8.343072 1.750667 2.300000
v -8.343072 1.742667 0.000000
v -8.343072 1.742667 2.300000
v -8.350000 1.972000 0.000000
v -8.350000 1.972000 2.300000
v -8.356929 1.976000 0.000000
v -8.356929 1.976000 2.300000
v -8.356929 1.984000 0.000000
v -8.356929 1.984000 2.300000
v -8.350000 1.988000 0.000000
v -8.350000 1.988000 2.300000
v -8.343072 1.984000 0.000000
v -8.343072 1.984000 2.300000
v -8.343072 1.976000 0.000000
v -8.343072 1.976000 2.300000
v -8.350000 0.580000 0.065000
v -8.350000 1.980000 0.065000
v -8.362990 0.580000 0.057500
v -8.362990 1.980000 0.057500
v -8.362990 0.580000 0.042500
v -8.362990 1.980000 0.042500
v -8.350000 0.580000 0.035000
v -8.350000 1.980000 0.035000
v -8.337010 0.580000 0.042500
v -8.337010 1.980000 0.042500
v -8.337010 0.580000 0.057500
v -8.337010 1.980000 0.057500
v -8.350000 0.580000 1.165000
v -8.350000 1.980000 1.165000
v -8.362990 0.580000 1.157500
v -8.362990 1.980000 1.157500
v -8.362990 0.580000 1.142500
v -8.362990 1.980000 1.142500
v -8.350000 0.580000 1.135000
v -8.350000 1.980000 1.135000
v -8.337010 0.580000 1.142500
v -8.337010 1.980000 1.142500
v -8.337010 0.580000 1.157500
v -8.337010 1.980000 1.157500
v -8.350000 0.580000 2.315000
v -8.350000 1.980000 2.315000
v -8.362990 0.580000 2.307500
v -8.362990 1.980000 2.307500
v -8.362990 0.580000 2.292500
v -8.362990 1.980000 2.292500
v -8.350000 0.580000 2.285000
v -8.350000 1.980000 2.285000
v -8.337010 0.580000 2.292500
v -8.337010 1.980000 2.292500
v -8.337010 0.580000 2.307500
v -8.337010 1.980000 2.307500
v -8.344999 1.130000 1.300000
v -8.344999 1.130000 1.600000
v -8.344999 1.430000 1.300000
v -8.344999 1.430000 1.600000
v -8.340000 1.130000 1.300000
v -8.340000 1.130000 1.600000
v -8.340000 1.430000 1.300000
v -8.340000 1.430000 1.600000
vn -1.0000 -0.0000 -0.0000
vn -0.0000 1.0000 -0.0000
vn 1.0000 -0.0000 -0.0000
vn -0.0000 -1.0000 -0.0000
vn -0.0000 -0.0000 -1.0000
vn -0.0000 -0.0000 1.0000
vn 0.0654 0.9979 -0.0000
vn 0.1951 0.9808 -0.0000
vn 0.3214 0.9469 -0.0000
vn 0.4423 0.8969 -0.0000
vn 0.5556 0.8315 -0.0000
vn 0.6593 0.7518 -0.0000
vn 0.7518 0.6593 -0.0000
vn 0.8315 0.5556 -0.0000
vn 0.8969 0.4423 -0.0000
vn 0.9469 0.3214 -0.0000
vn 0.9808 0.1951 -0.0000
vn 0.9979 0.0654 -0.0000
vn 0.9979 -0.0654 -0.0000
vn 0.9808 -0.1951 -0.0000
vn 0.9469 -0.3214 -0.0000
vn 0.8969 -0.4423 -0.0000
vn 0.8315 -0.5556 -0.0000
vn 0.7518 -0.6593 -0.0000
vn 0.6593 -0.7518 -0.0000
vn 0.5556 -0.8315 -0.0000
vn 0.4423 -0.8969 -0.0000
vn 0.3214 -0.9469 -0.0000
vn 0.1951 -0.9808 -0.0000
vn 0.0654 -0.9979 -0.0000
vn -0.0654 -0.9979 -0.0000
vn -0.1951 -0.9808 -0.0000
vn -0.3214 -0.9469 -0.0000
vn -0.4423 -0.8969 -0.0000
vn -0.5556 -0.8315 -0.0000
vn -0.6593 -0.7518 -0.0000
vn -0.7518 -0.6593 -0.0000
vn -0.8315 -0.5556 -0.0000
vn -0.8969 -0.4423 -0.0000
vn -0.9469 -0.3214 -0.0000
vn -0.9808 -0.1951 -0.0000
vn -0.9979 -0.0654 -0.0000
vn -0.9979 0.0654 -0.0000
vn -0.9808 0.1951 -0.0000
vn -0.9469 0.3214 -0.0000
vn -0.8969 0.4423 -0.0000
vn -0.8315 0.5556 -0.0000
vn -0.7518 0.6593 -0.0000
vn -0.6593 0.7518 -0.0000
vn -0.5556 0.8315 -0.0000
vn -0.4423 0.8969 -0.0000
vn -0.3214 0.9469 -0.0000
vn -0.1951 0.9808 -0.0000
vn -0.0654 0.9979 -0.0000
vn 0.7518 -0.6594 -0.0000
vn 0.6594 -0.7518 -0.0000
vn -0.6594 -0.7518 -0.0000
vn 0.6594 0.7518 -0.0000
vn -0.7518 0.6594 -0.0000
vn -0.5000 -0.8660 -0.0000
vn -0.5000 0.8660 -0.0000
vn 0.5000 0.8660 -0.0000
vn 0.5000 -0.8660 -0.0000
vn -0.0000 0.5000 0.8660
vn -0.0000 0.5000 -0.8660
vn -0.0000 -0.5000 -0.8660
vn -0.0000 -0.5000 0.8660
vn -0.5000 -0.0000 0.8660
vn -0.5000 -0.0000 -0.8660
vn 0.5000 -0.0000 -0.8660
vn 0.5000 -0.0000 0.8660
vn 0.0001 -0.0000 1.0000
vn -0.0001 -0.0000 1.0000
vn 0.7518 0.6594 -0.0000
vn -0.7518 -0.6594 -0.0000
vn -0.6594 0.7518 -0.0000
vn 0.0002 -0.0000 1.0000
vn -0.0002 -0.0000 1.0000
vn -0.0002 -0.0000 -1.0000
vn 0.0005 -0.0000 -1.0000
vn -0.0005 -0.0000 -1.0000
vn 0.0001 -0.0000 -1.0000
vn -0.0001 -0.0000 -1.0000
vn -0.0009 -0.0000 1.0000
vn 0.0009 -0.0000 1.0000
vn 0.0002 -0.0000 -1.0000
s 0
usemtl steel_grey
f 2//1 3//1 1//1
f 4//2 7//2 3//2
f 8//3 5//3 7//3
f 6//4 1//4 5//4
f 7//5 1//5 3//5
f 4//6 6//6 8//6
f 602//60 603//60 601//60
f 604//1 605//1 603//1
f 606//61 607//61 605//61
f 608//62 609//62 607//62
f 602//6 610//6 606//6
f 610//3 611//3 609//3
f 612//63 601//63 611//63
f 603//5 607//5 611//5
f 614//60 615//60 613//60
f 616//1 617//1 615//1
f 618//61 619//61 617//61
f 620//62 621//62 619//62
f 614//6 622//6 618//6
f 622//3 623//3 621//3
f 624//63 613//63 623//63
f 615//5 619//5 623//5
f 626//60 627//60 625//60
f 628//1 629//1 627//1
f 630//61 631//61 629//61
f 632//62 633//62 631//62
f 626//6 634//6 630//6
f 634//3 635//3 633//3
f 636//63 625//63 635//63
f 627//5 631//5 635//5
f 638//60 639//60 637//60
f 640//1 641//1 639//1
f 642//61 643//61 641//61
f 644//62 645//62 643//62
f 638//6 646//6 642//6
f 646//3 647//3 645//3
f 648//63 637//63 647//63
f 639//5 643//5 647//5
f 650//60 651//60 649//60
f 652//1 653//1 651//1
f 654//61 655//61 653//61
f 656//62 657//62 655//62
f 650//6 658//6 654//6
f 658//3 659//3 657//3
f 660//63 649//63 659//63
f 651//5 655//5 659//5
f 662//60 663//60 661//60
f 664//1 665//1 663//1
f 666//61 667//61 665//61
f 668//62 669//62 667//62
f 662//6 670//6 666//6
f 670//3 671//3 669//3
f 672//63 661//63 671//63
f 663//5 667//5 671//5
f 674//60 675//60 673//60
f 676//1 677//1 675//1
f 678//61 679//61 677//61
f 680//62 681//62 679//62
f 674//6 682//6 678//6
f 682//3 683//3 681//3
f 684//63 673//63 683//63
f 675//5 679//5 683//5
f 686//64 687//64 685//64
f 688//2 689//2 687//2
f 690//65 691//65 689//65
f 692//66 693//66 691//66
f 686//3 694//3 690//3
f 694//4 695//4 693//4
f 696//67 685//67 695//67
f 687//1 691//1 695//1
f 698//64 699//64 697//64
f 700//2 701//2 699//2
f 702//65 703//65 701//65
f 704//66 705//66 703//66
f 698//3 706//3 702//3
f 706//4 707//4 705//4
f 708//67 697//67 707//67
f 699//1 703//1 707//1
f 710//64 711//64 709//64
f 712//2 713//2 711//2
f 714//65 715//65 713//65
f 716//66 717//66 715//66
f 710//3 718//3 714//3
f 718//4 719//4 717//4
f 720//67 709//67 719//67
f 711//1 715//1 719//1
f 722//60 723//60 721//60
f 724//1 725//1 723//1
f 726//61 727//61 725//61
f 728//62 729//62 727//62
f 722//6 730//6 726//6
f 730//3 731//3 729//3
f 732//63 721//63 731//63
f 723//5 727//5 731//5
f 734//60 735//60 733//60
f 736//1 737//1 735//1
f 738//61 739//61 737//61
f 740//62 741//62 739//62
f 734//6 742//6 738//6
f 742//3 743//3 741//3
f 744//63 733//63 743//63
f 735//5 739//5 743//5
f 746//60 747//60 745//60
f 748//1 749//1 747//1
f 750//61 751//61 749//61
f 752//62 753//62 751//62
f 746//6 754//6 750//6
f 754//3 755//3 753//3
f 756//63 745//63 755//63
f 747//5 751//5 755//5
f 758//60 759//60 757//60
f 760//1 761//1 759//1
f 762//61 763//61 761//61
f 764//62 765//62 763//62
f 758//6 766//6 762//6
f 766//3 767//3 765//3
f 768//63 757//63 767//63
f 759//5 763//5 767//5
f 770//60 771//60 769//60
f 772//1 773//1 771//1
f 774//61 775//61 773//61
f 776//62 777//62 775//62
f 770//6 778//6 774//6
f 778//3 779//3 777//3
f 780//63 769//63 779//63
f 771//5 775//5 779//5
f 782//60 783//60 781//60
f 784//1 785//1 783//1
f 786//61 787//61 785//61
f 788//62 789//62 787//62
f 782//6 790//6 786//6
f 790//3 791//3 789//3
f 792//63 781//63 791//63
f 783//5 787//5 791//5
f 794//60 795//60 793//60
f 796//1 797//1 795//1
f 798//61 799//61 797//61
f 800//62 801//62 799//62
f 794//6 802//6 798//6
f 802//3 803//3 801//3
f 804//63 793//63 803//63
f 795//5 799//5 803//5
f 806//64 807//64 805//64
f 808//2 809//2 807//2
f 810//65 811//65 809//65
f 812//66 813//66 811//66
f 806//3 814//3 810//3
f 814//4 815//4 813//4
f 816//67 805//67 815//67
f 807//1 811//1 815//1
f 817//64 820//64 819//64
f 820//2 821//2 819//2
f 822//65 823//65 821//65
f 824//66 825//66 823//66
f 818//3 826//3 822//3
f 826//4 827//4 825//4
f 828//67 817//67 827//67
f 819//1 823//1 827//1
f 830//64 831//64 829//64
f 832//2 833//2 831//2
f 834//65 835//65 833//65
f 836//66 837//66 835//66
f 830//3 838//3 834//3
f 838//4 839//4 837//4
f 840//67 829//67 839//67
f 831//1 835//1 839//1
f 842//60 843//60 841//60
f 844//1 845//1 843//1
f 846//61 847//61 845//61
f 848//62 849//62 847//62
f 842//6 850//6 846//6
f 850//3 851//3 849//3
f 852//63 841//63 851//63
f 843//5 847//5 851//5
f 854//60 855//60 853//60
f 856//1 857//1 855//1
f 858//61 859//61 857//61
f 860//62 861//62 859//62
f 854//6 862//6 858//6
f 862//3 863//3 861//3
f 864//63 853//63 863//63
f 855//5 859//5 863//5
f 866//60 867//60 865//60
f 868//1 869//1 867//1
f 870//61 871//61 869//61
f 872//62 873//62 871//62
f 866//6 874//6 870//6
f 874//3 875//3 873//3
f 876//63 865//63 875//63
f 867//5 871//5 875//5
f 878//60 879//60 877//60
f 880//1 881//1 879//1
f 882//61 883//61 881//61
f 884//62 885//62 883//62
f 878//6 886//6 882//6
f 886//3 887//3 885//3
f 888//63 877//63 887//63
f 879//5 883//5 887//5
f 890//60 891//60 889//60
f 892//1 893//1 891//1
f 894//61 895//61 893//61
f 896//62 897//62 895//62
f 890//6 898//6 894//6
f 898//3 899//3 897//3
f 900//63 889//63 899//63
f 891//5 895//5 899//5
f 902//60 903//60 901//60
f 904//1 905//1 903//1
f 906//61 907//61 905//61
f 908//62 909//62 907//62
f 902//6 910//6 906//6
f 910//3 911//3 909//3
f 912//63 901//63 911//63
f 903//5 907//5 911//5
f 914//60 915//60 913//60
f 916//1 917//1 915//1
f 918//61 919//61 917//61
f 920//62 921//62 919//62
f 914//6 922//6 918//6
f 922//3 923//3 921//3
f 924//63 913//63 923//63
f 915//5 919//5 923//5
f 925//68 928//68 927//68
f 928//1 929//1 927//1
f 929//69 932//69 931//69
f 931//70 934//70 933//70
f 926//2 934//2 930//2
f 934//3 935//3 933//3
f 936//71 925//71 935//71
f 927//4 931//4 935//4
f 937//68 940//68 939//68
f 939//1 942//1 941//1
f 941//69 944//69 943//69
f 944//70 945//70 943//70
f 938//2 946//2 942//2
f 946//3 947//3 945//3
f 947//71 938//71 937//71
f 939//4 943//4 947//4
f 950//68 951//68 949//68
f 952//1 953//1 951//1
f 954//69 955//69 953//69
f 956//70 957//70 955//70
f 950//2 958//2 954//2
f 958//3 959//3 957//3
f 960//71 949//71 959//71
f 951//4 955//4 959//4
f 962//60 963//60 961//60
f 964//1 965//1 963//1
f 966//61 967//61 965//61
f 968//62 969//62 967//62
f 962//6 970//6 966//6
f 970//3 971//3 969//3
f 972//63 961//63 971//63
f 963//5 967//5 971//5
f 974//60 975//60 973//60
f 976//1 977//1 975//1
f 978//61 979//61 977//61
f 980//62 981//62 979//62
f 974//6 982//6 978//6
f 982//3 983//3 981//3
f 984//63 973//63 983//63
f 975//5 979//5 983//5
f 986//60 987//60 985//60
f 988//1 989//1 987//1
f 990//61 991//61 989//61
f 992//62 993//62 991//62
f 986//6 994//6 990//6
f 994//3 995//3 993//3
f 996//63 985//63 995//63
f 987//5 991//5 995//5
f 998//60 999//60 997//60
f 1000//1 1001//1 999//1
f 1002//61 1003//61 1001//61
f 1004//62 1005//62 1003//62
f 998//6 1006//6 1002//6
f 1006//3 1007//3 1005//3
f 1008//63 997//63 1007//63
f 999//5 1003//5 1007//5
f 1010//60 1011//60 1009//60
f 1012//1 1013//1 1011//1
f 1014//61 1015//61 1013//61
f 1016//62 1017//62 1015//62
f 1010//6 1018//6 1014//6
f 1018//3 1019//3 1017//3
f 1020//63 1009//63 1019//63
f 1011//5 1015//5 1019//5
f 1022//60 1023//60 1021//60
f 1024//1 1025//1 1023//1
f 1026//61 1027//61 1025//61
f 1028//62 1029//62 1027//62
f 1022//6 1030//6 1026//6
f 1030//3 1031//3 1029//3
f 1032//63 1021//63 1031//63
f 1023//5 1027//5 1031//5
f 1034//60 1035//60 1033//60
f 1036//1 1037//1 1035//1
f 1038//61 1039//61 1037//61
f 1040//62 1041//62 1039//62
f 1034//6 1042//6 1038//6
f 1042//3 1043//3 1041//3
f 1044//63 1033//63 1043//63
f 1035//5 1039//5 1043//5
f 1045//68 1048//68 1047//68
f 1048//1 1049//1 1047//1
f 1049//69 1052//69 1051//69
f 1051//70 1054//70 1053//70
f 1046//2 1054//2 1050//2
f 1054//3 1055//3 1053//3
f 1056//71 1045//71 1055//71
f 1047//4 1051//4 1055//4
f 1058//68 1059//68 1057//68
f 1059//1 1062//1 1061//1
f 1062//69 1063//69 1061//69
f 1064//70 1065//70 1063//70
f 1058//2 1066//2 1062//2
f 1066//3 1067//3 1065//3
f 1067//71 1058//71 1057//71
f 1059//4 1063//4 1067//4
f 1070//68 1071//68 1069//68
f 1072//1 1073//1 1071//1
f 1073//69 1076//69 1075//69
f 1075//70 1078//70 1077//70
f 1070//2 1078//2 1074//2
f 1078//3 1079//3 1077//3
f 1080//71 1069//71 1079//71
f 1071//4 1075//4 1079//4
f 2//1 4//1 3//1
f 4//2 8//2 7//2
f 8//3 6//3 5//3
f 6//4 2//4 1//4
f 7//5 5//5 1//5
f 4//6 2//6 6//6
f 602//60 604//60 603//60
f 604//1 606//1 605//1
f 606//61 608//61 607//61
f 608//62 610//62 609//62
f 606//6 604//6 602//6
f 602//72 612//72 610//72
f 610//6 608//6 606//6
f 610//3 612//3 611//3
f 612//63 602//63 601//63
f 611//5 601//5 603//5
f 603//5 605//5 607//5
f 607//5 609//5 611//5
f 614//60 616//60 615//60
f 616//1 618//1 617//1
f 618//61 620//61 619//61
f 620//62 622//62 621//62
f 618//6 616//6 614//6
f 614//72 624//72 622//72
f 622//6 620//6 618//6
f 622//3 624//3 623//3
f 624//63 614//63 613//63
f 623//5 613//5 615//5
f 615//5 617//5 619//5
f 619//5 621//5 623//5
f 626//60 628//60 627//60
f 628//1 630//1 629//1
f 630//61 632//61 631//61
f 632//62 634//62 633//62
f 630//6 628//6 626//6
f 626//72 636//72 634//72
f 634//6 632//6 630//6
f 634//3 636//3 635//3
f 636//63 626//63 625//63
f 635//5 625//5 627//5
f 627//5 629//5 631//5
f 631//5 633//5 635//5
f 638//60 640//60 639//60
f 640//1 642//1 641//1
f 642//61 644//61 643//61
f 644//62 646//62 645//62
f 642//6 640//6 638//6
f 638//72 648//72 646//72
f 646//6 644//6 642//6
f 646//3 648//3 647//3
f 648//63 638//63 637//63
f 647//5 637//5 639//5
f 639//5 641//5 643//5
f 643//5 645//5 647//5
f 650//60 652//60 651//60
f 652//1 654//1 653//1
f 654//61 656//61 655//61
f 656//62 658//62 657//62
f 654//6 652//6 650//6
f 650//72 660//72 658//72
f 658//6 656//6 654//6
f 658//3 660//3 659//3
f 660//63 650//63 649//63
f 659//5 649//5 651//5
f 651//5 653//5 655//5
f 655//5 657//5 659//5
f 662//60 664//60 663//60
f 664//1 666//1 665//1
f 666//61 668//61 667//61
f 668//62 670//62 669//62
f 666//6 664//6 662//6
f 662//72 672//72 670//72
f 670//6 668//6 666//6
f 670//3 672//3 671//3
f 672//63 662//63 661//63
f 671//5 661//5 663//5
f 663//5 665//5 667//5
f 667//5 669//5 671//5
f 674//60 676//60 675//60
f 676//1 678//1 677//1
f 678//61 680//61 679//61
f 680//62 682//62 681//62
f 678//6 676//6 674//6
f 674//72 684//72 682//72
f 682//6 680//6 678//6
f 682//3 684//3 683//3
f 684//63 674//63 673//63
f 683//5 673//5 675//5
f 675//5 677//5 679//5
f 679//5 681//5 683//5
f 686//64 688//64 687//64
f 688//2 690//2 689//2
f 690//65 692//65 691//65
f 692//66 694//66 693//66
f 690//3 688//3 686//3
f 686//3 696//3 694//3
f 694//3 692//3 690//3
f 694//4 696//4 695//4
f 696//67 686//67 685//67
f 695//1 685//1 687//1
f 687//1 689//1 691//1
f 691//1 693//1 695//1
f 698//64 700//64 699//64
f 700//2 702//2 701//2
f 702//65 704//65 703//65
f 704//66 706//66 705//66
f 702//3 700//3 698//3
f 698//3 708//3 706//3
f 706//3 704//3 702//3
f 706//4 708//4 707//4
f 708//67 698//67 697//67
f 707//1 697//1 699//1
f 699//1 701//1 703//1
f 703//1 705//1 707//1
f 710//64 712//64 711//64
f 712//2 714//2 713//2
f 714//65 716//65 715//65
f 716//66 718//66 717//66
f 714//3 712//3 710//3
f 710//3 720//3 718//3
f 718//3 716//3 714//3
f 718//4 720//4 719//4
f 720//67 710//67 709//67
f 719//1 709//1 711//1
f 711//1 713//1 715//1
f 715//1 717//1 719//1
f 722//60 724//60 723//60
f 724//1 726//1 725//1
f 726//61 728//61 727//61
f 728//62 730//62 729//62
f 726//6 724//6 722//6
f 722//6 732//6 730//6
f 730//6 728//6 726//6
f 730//3 732//3 731//3
f 732//63 722//63 721//63
f 731//5 721//5 723//5
f 723//5 725//5 727//5
f 727//5 729//5 731//5
f 734//60 736//60 735//60
f 736//1 738//1 737//1
f 738//61 740//61 739//61
f 740//62 742//62 741//62
f 738//6 736//6 734//6
f 734//6 744//6 742//6
f 742//6 740//6 738//6
f 742//3 744//3 743//3
f 744//63 734//63 733//63
f 743//5 733//5 735//5
f 735//5 737//5 739//5
f 739//5 741//5 743//5
f 746//60 748//60 747//60
f 748//1 750//1 749//1
f 750//61 752//61 751//61
f 752//62 754//62 753//62
f 750//6 748//6 746//6
f 746//6 756//6 754//6
f 754//6 752//6 750//6
f 754//3 756//3 755//3
f 756//63 746//63 745//63
f 755//5 745//5 747//5
f 747//5 749//5 751//5
f 751//5 753//5 755//5
f 758//60 760//60 759//60
f 760//1 762//1 761//1
f 762//61 764//61 763//61
f 764//62 766//62 765//62
f 762//6 760//6 758//6
f 758//6 768//6 766//6
f 766//6 764//6 762//6
f 766//3 768//3 767//3
f 768//63 758//63 757//63
f 767//5 757//5 759//5
f 759//5 761//5 763//5
f 763//5 765//5 767//5
f 770//60 772//60 771//60
f 772//1 774//1 773//1
f 774//61 776//61 775//61
f 776//62 778//62 777//62
f 774//6 772//6 770//6
f 770//6 780//6 778//6
f 778//6 776//6 774//6
f 778//3 780//3 779//3
f 780//63 770//63 769//63
f 779//5 769//5 771//5
f 771//5 773//5 775//5
f 775//5 777//5 779//5
f 782//60 784//60 783//60
f 784//1 786//1 785//1
f 786//61 788//61 787//61
f 788//62 790//62 789//62
f 786//6 784//6 782//6
f 782//6 792//6 790//6
f 790//6 788//6 786//6
f 790//3 792//3 791//3
f 792//63 782//63 781//63
f 791//5 781//5 783//5
f 783//5 785//5 787//5
f 787//5 789//5 791//5
f 794//60 796//60 795//60
f 796//1 798//1 797//1
f 798//61 800//61 799//61
f 800//62 802//62 801//62
f 798//6 796//6 794//6
f 794//6 804//6 802//6
f 802//6 800//6 798//6
f 802//3 804//3 803//3
f 804//63 794//63 793//63
f 803//5 793//5 795//5
f 795//5 797//5 799//5
f 799//5 801//5 803//5
f 806//64 808//64 807//64
f 808//2 810//2 809//2
f 810//65 812//65 811//65
f 812//66 814//66 813//66
f 810//3 808//3 806//3
f 806//3 816//3 814//3
f 814//3 812//3 810//3
f 814//4 816//4 815//4
f 816//67 806//67 805//67
f 815//1 805//1 807//1
f 807//1 809//1 811//1
f 811//1 813//1 815//1
f 817//64 818//64 820//64
f 820//2 822//2 821//2
f 822//65 824//65 823//65
f 824//66 826//66 825//66
f 822//3 820//3 818//3
f 818//3 828//3 826//3
f 826//3 824//3 822//3
f 826//4 828//4 827//4
f 828//67 818//67 817//67
f 827//1 817//1 819//1
f 819//1 821//1 823//1
f 823//1 825//1 827//1
f 830//64 832//64 831//64
f 832//2 834//2 833//2
f 834//65 836//65 835//65
f 836//66 838//66 837//66
f 834//3 832//3 830//3
f 830//3 840//3 838//3
f 838//3 836//3 834//3
f 838//4 840//4 839//4
f 840//67 830//67 829//67
f 839//1 829//1 831//1
f 831//1 833//1 835//1
f 835//1 837//1 839//1
f 842//60 844//60 843//60
f 844//1 846//1 845//1
f 846//61 848//61 847//61
f 848//62 850//62 849//62
f 846//6 844//6 842//6
f 842//72 852//72 850//72
f 850//6 848//6 846//6
f 850//3 852//3 851//3
f 852//63 842//63 841//63
f 851//5 841//5 843//5
f 843//5 845//5 847//5
f 847//5 849//5 851//5
f 854//60 856//60 855//60
f 856//1 858//1 857//1
f 858//61 860//61 859//61
f 860//62 862//62 861//62
f 858//6 856//6 854//6
f 854//72 864//72 862//72
f 862//6 860//6 858//6
f 862//3 864//3 863//3
f 864//63 854//63 853//63
f 863//5 853//5 855//5
f 855//5 857//5 859//5
f 859//5 861//5 863//5
f 866//60 868//60 867//60
f 868//1 870//1 869//1
f 870//61 872//61 871//61
f 872//62 874//62 873//62
f 870//6 868//6 866//6
f 866//6 876//6 874//6
f 874//6 872//6 870//6
f 874//3 876//3 875//3
f 876//63 866//63 865//63
f 875//5 865//5 867//5
f 867//5 869//5 871//5
f 871//5 873//5 875//5
f 878//60 880//60 879//60
f 880//1 882//1 881//1
f 882//61 884//61 883//61
f 884//62 886//62 885//62
f 882//6 880//6 878//6
f 878//6 888//6 886//6
f 886//6 884//6 882//6
f 886//3 888//3 887//3
f 888//63 878//63 877//63
f 887//5 877//5 879//5
f 879//5 881//5 883//5
f 883//5 885//5 887//5
f 890//60 892//60 891//60
f 892//1 894//1 893//1
f 894//61 896//61 895//61
f 896//62 898//62 897//62
f 894//6 892//6 890//6
f 890//6 900//6 898//6
f 898//6 896//6 894//6
f 898//3 900//3 899//3
f 900//63 890//63 889//63
f 899//5 889//5 891//5
f 891//5 893//5 895//5
f 895//5 897//5 899//5
f 902//60 904//60 903//60
f 904//1 906//1 905//1
f 906//61 908//61 907//61
f 908//62 910//62 909//62
f 906//6 904//6 902//6
f 902//6 912//6 910//6
f 910//6 908//6 906//6
f 910//3 912//3 911//3
f 912//63 902//63 901//63
f 911//5 901//5 903//5
f 903//5 905//5 907//5
f 907//5 909//5 911//5
f 914//60 916//60 915//60
f 916//1 918//1 917//1
f 918//61 920//61 919//61
f 920//62 922//62 921//62
f 918//6 916//6 914//6
f 914//6 924//6 922//6
f 922//6 920//6 918//6
f 922//3 924//3 923//3
f 924//63 914//63 913//63
f 923//5 913//5 915//5
f 915//5 917//5 919//5
f 919//5 921//5 923//5
f 925//68 926//68 928//68
f 928//1 930//1 929//1
f 929//69 930//69 932//69
f 931//70 932//70 934//70
f 930//2 928//2 926//2
f 926//2 936//2 934//2
f 934//2 932//2 930//2
f 934//3 936//3 935//3
f 936//71 926//71 925//71
f 935//4 925//4 927//4
f 927//4 929//4 931//4
f 931//4 933//4 935//4
f 937//68 938//68 940//68
f 939//1 940//1 942//1
f 941//69 942//69 944//69
f 944//70 946//70 945//70
f 942//2 940//2 938//2
f 938//2 948//2 946//2
f 946//2 944//2 942//2
f 946//3 948//3 947//3
f 947//71 948//71 938//71
f 947//4 937//4 939//4
f 939//4 941//4 943//4
f 943//4 945//4 947//4
f 950//68 952//68 951//68
f 952//1 954//1 953//1
f 954//69 956//69 955//69
f 956//70 958//70 957//70
f 954//2 952//2 950//2
f 950//2 960//2 958//2
f 958//2 956//2 954//2
f 958//3 960//3 959//3
f 960//71 950//71 949//71
f 959//4 949//4 951//4
f 951//4 953//4 955//4
f 955//4 957//4 959//4
f 962//60 964//60 963//60
f 964//1 966//1 965//1
f 966//61 968//61 967//61
f 968//62 970//62 969//62
f 966//6 964//6 962//6
f 962//72 972//72 970//72
f 970//6 968//6 966//6
f 970//3 972//3 971//3
f 972//63 962//63 961//63
f 971//5 961//5 963//5
f 963//5 965//5 967//5
f 967//5 969//5 971//5
f 974//60 976//60 975//60
f 976//1 978//1 977//1
f 978//61 980//61 979//61
f 980//62 982//62 981//62
f 978//6 976//6 974//6
f 974//72 984//72 982//72
f 982//6 980//6 978//6
f 982//3 984//3 983//3
f 984//63 974//63 973//63
f 983//5 973//5 975//5
f 975//5 977//5 979//5
f 979//5 981//5 983//5
f 986//60 988//60 987//60
f 988//1 990//1 989//1
f 990//61 992//61 991//61
f 992//62 994//62 993//62
f 990//6 988//6 986//6
f 986//6 996//6 994//6
f 994//6 992//6 990//6
f 994//3 996//3 995//3
f 996//63 986//63 985//63
f 995//5 985//5 987//5
f 987//5 989//5 991//5
f 991//5 993//5 995//5
f 998//60 1000//60 999//60
f 1000//1 1002//1 1001//1
f 1002//61 1004//61 1003//61
f 1004//62 1006//62 1005//62
f 1002//6 1000//6 998//6
f 998//6 1008//6 1006//6
f 1006//6 1004//6 1002//6
f 1006//3 1008//3 1007//3
f 1008//63 998//63 997//63
f 1007//5 997//5 999//5
f 999//5 1001//5 1003//5
f 1003//5 1005//5 1007//5
f 1010//60 1012//60 1011//60
f 1012//1 1014//1 1013//1
f 1014//61 1016//61 1015//61
f 1016//62 1018//62 1017//62
f 1014//6 1012//6 1010//6
f 1010//6 1020//6 1018//6
f 1018//6 1016//6 1014//6
f 1018//3 1020//3 1019//3
f 1020//63 1010//63 1009//63
f 1019//5 1009//5 1011//5
f 1011//5 1013//5 1015//5
f 1015//5 1017//5 1019//5
f 1022//60 1024//60 1023//60
f 1024//1 1026//1 1025//1
f 1026//61 1028//61 1027//61
f 1028//62 1030//62 1029//62
f 1026//6 1024//6 1022//6
f 1022//6 1032//6 1030//6
f 1030//6 1028//6 1026//6
f 1030//3 1032//3 1031//3
f 1032//63 1022//63 1021//63
f 1031//5 1021//5 1023//5
f 1023//5 1025//5 1027//5
f 1027//5 1029//5 1031//5
f 1034//60 1036//60 1035//60
f 1036//1 1038//1 1037//1
f 1038//61 1040//61 1039//61
f 1040//62 1042//62 1041//62
f 1038//6 1036//6 1034//6
f 1034//6 1044//6 1042//6
f 1042//6 1040//6 1038//6
f 1042//3 1044//3 1043//3
f 1044//63 1034//63 1033//63
f 1043//5 1033//5 1035//5
f 1035//5 1037//5 1039//5
f 1039//5 1041//5 1043//5
f 1045//68 1046//68 1048//68
f 1048//1 1050//1 1049//1
f 1049//69 1050//69 1052//69
f 1051//70 1052//70 1054//70
f 1050//2 1048//2 1046//2
f 1046//2 1056//2 1054//2
f 1054//2 1052//2 1050//2
f 1054//3 1056//3 1055//3
f 1056//71 1046//71 1045//71
f 1055//4 1045//4 1047//4
f 1047//4 1049//4 1051//4
f 1051//4 1053//4 1055//4
f 1058//68 1060//68 1059//68
f 1059//1 1060//1 1062//1
f 1062//69 1064//69 1063//69
f 1064//70 1066//70 1065//70
f 1062//2 1060//2 1058//2
f 1058//2 1068//2 1066//2
f 1066//2 1064//2 1062//2
f 1066//3 1068//3 1067//3
f 1067//71 1068//71 1058//71
f 1067//4 1057//4 1059//4
f 1059//4 1061//4 1063//4
f 1063//4 1065//4 1067//4
f 1070//68 1072//68 1071//68
f 1072//1 1074//1 1073//1
f 1073//69 1074//69 1076//69
f 1075//70 1076//70 1078//70
f 1074//2 1072//2 1070//2
f 1070//2 1080//2 1078//2
f 1078//2 1076//2 1074//2
f 1078//3 1080//3 1079//3
f 1080//71 1070//71 1069//71
f 1079//4 1069//4 1071//4
f 1071//4 1073//4 1075//4
f 1075//4 1077//4 1079//4
usemtl bolt_black
f 10//1 11//1 9//1
f 12//2 15//2 11//2
f 16//3 13//3 15//3
f 14//4 9//4 13//4
f 15//5 9//5 11//5
f 12//6 14//6 16//6
f 18//1 19//1 17//1
f 20//2 23//2 19//2
f 24//3 21//3 23//3
f 22//4 17//4 21//4
f 23//5 17//5 19//5
f 20//6 22//6 24//6
f 10//1 12//1 11//1
f 12//2 16//2 15//2
f 16//3 14//3 13//3
f 14//4 10//4 9//4
f 15//5 13//5 9//5
f 12//6 10//6 14//6
f 18//1 20//1 19//1
f 20//2 24//2 23//2
f 24//3 22//3 21//3
f 22//4 18//4 17//4
f 23//5 21//5 17//5
f 20//6 18//6 22//6
usemtl resin
f 26//7 27//7 25//7
f 28//8 29//8 27//8
f 30//9 31//9 29//9
f 32//10 33//10 31//10
f 34//11 35//11 33//11
f 36//12 37//12 35//12
f 38//13 39//13 37//13
f 40//14 41//14 39//14
f 42//15 43//15 41//15
f 44//16 45//16 43//16
f 46//17 47//17 45//17
f 48//18 49//18 47//18
f 50//19 51//19 49//19
f 52//20 53//20 51//20
f 54//21 55//21 53//21
f 56//22 57//22 55//22
f 58//23 59//23 57//23
f 60//24 61//24 59//24
f 62//25 63//25 61//25
f 64//26 65//26 63//26
f 66//27 67//27 65//27
f 68//28 69//28 67//28
f 70//29 71//29 69//29
f 72//30 73//30 71//30
f 74//31 75//31 73//31
f 76//32 77//32 75//32
f 78//33 79//33 77//33
f 80//34 81//34 79//34
f 82//35 83//35 81//35
f 84//36 85//36 83//36
f 86//37 87//37 85//37
f 88//38 89//38 87//38
f 90//39 91//39 89//39
f 92//40 93//40 91//40
f 94//41 95//41 93//41
f 96//42 97//42 95//42
f 98//43 99//43 97//43
f 100//44 101//44 99//44
f 102//45 103//45 101//45
f 104//46 105//46 103//46
f 106//47 107//47 105//47
f 108//48 109//48 107//48
f 110//49 111//49 109//49
f 112//50 113//50 111//50
f 114//51 115//51 113//51
f 116//52 117//52 115//52
f 94//6 62//6 30//6
f 118//53 119//53 117//53
f 120//54 25//54 119//54
f 55//5 87//5 119//5
f 218//7 219//7 217//7
f 220//8 221//8 219//8
f 222//9 223//9 221//9
f 224//10 225//10 223//10
f 226//11 227//11 225//11
f 228//12 229//12 227//12
f 230//13 231//13 229//13
f 232//14 233//14 231//14
f 234//15 235//15 233//15
f 236//16 237//16 235//16
f 238//17 239//17 237//17
f 240//18 241//18 239//18
f 242//19 243//19 241//19
f 244//20 245//20 243//20
f 246//21 247//21 245//21
f 248//22 249//22 247//22
f 250//23 251//23 249//23
f 252//24 253//24 251//24
f 254//25 255//25 253//25
f 256//26 257//26 255//26
f 258//27 259//27 257//27
f 260//28 261//28 259//28
f 262//29 263//29 261//29
f 264//30 265//30 263//30
f 266//31 267//31 265//31
f 268//32 269//32 267//32
f 270//33 271//33 269//33
f 272//34 273//34 271//34
f 274//35 275//35 273//35
f 276//36 277//36 275//36
f 278//37 279//37 277//37
f 280//38 281//38 279//38
f 282//39 283//39 281//39
f 284//40 285//40 283//40
f 286//41 287//41 285//41
f 288//42 289//42 287//42
f 290//43 291//43 289//43
f 292//44 293//44 291//44
f 294//45 295//45 293//45
f 296//46 297//46 295//46
f 298//47 299//47 297//47
f 300//48 301//48 299//48
f 302//49 303//49 301//49
f 304//50 305//50 303//50
f 306//51 307//51 305//51
f 308//52 309//52 307//52
f 286//6 254//6 222//6
f 310//53 311//53 309//53
f 312//54 217//54 311//54
f 247//5 279//5 311//5
f 410//7 411//7 409//7
f 412//8 413//8 411//8
f 414//9 415//9 413//9
f 416//10 417//10 415//10
f 418//11 419//11 417//11
f 420//12 421//12 419//12
f 422//13 423//13 421//13
f 424//14 425//14 423//14
f 426//15 427//15 425//15
f 428//16 429//16 427//16
f 430//17 431//17 429//17
f 432//18 433//18 431//18
f 434//19 435//19 433//19
f 436//20 437//20 435//20
f 438//21 439//21 437//21
f 440//22 441//22 439//22
f 442//23 443//23 441//23
f 444//24 445//24 443//24
f 446//25 447//25 445//25
f 448//26 449//26 447//26
f 450//27 451//27 449//27
f 452//28 453//28 451//28
f 454//29 455//29 453//29
f 456//30 457//30 455//30
f 458//31 459//31 457//31
f 460//32 461//32 459//32
f 462//33 463//33 461//33
f 464//34 465//34 463//34
f 466//35 467//35 465//35
f 468//36 469//36 467//36
f 470//37 471//37 469//37
f 472//38 473//38 471//38
f 474//39 475//39 473//39
f 476//40 477//40 475//40
f 478//41 479//41 477//41
f 480//42 481//42 479//42
f 482//43 483//43 481//43
f 484//44 485//44 483//44
f 486//45 487//45 485//45
f 488//46 489//46 487//46
f 490//47 491//47 489//47
f 492//48 493//48 491//48
f 494//49 495//49 493//49
f 496//50 497//50 495//50
f 498//51 499//51 497//51
f 500//52 501//52 499//52
f 478//6 446//6 414//6
f 502//53 503//53 501//53
f 504//54 409//54 503//54
f 439//5 471//5 503//5
f 26//7 28//7 27//7
f 28//8 30//8 29//8
f 30//9 32//9 31//9
f 32//10 34//10 33//10
f 34//11 36//11 35//11
f 36//12 38//12 37//12
f 38//13 40//13 39//13
f 40//14 42//14 41//14
f 42//15 44//15 43//15
f 44//16 46//16 45//16
f 46//17 48//17 47//17
f 48//18 50//18 49//18
f 50//19 52//19 51//19
f 52//20 54//20 53//20
f 54//21 56//21 55//21
f 56//22 58//22 57//22
f 58//23 60//23 59//23
f 60//24 62//24 61//24
f 62//25 64//25 63//25
f 64//26 66//26 65//26
f 66//27 68//27 67//27
f 68//28 70//28 69//28
f 70//29 72//29 71//29
f 72//30 74//30 73//30
f 74//31 76//31 75//31
f 76//32 78//32 77//32
f 78//33 80//33 79//33
f 80//34 82//34 81//34
f 82//35 84//35 83//35
f 84//36 86//36 85//36
f 86//37 88//37 87//37
f 88//38 90//38 89//38
f 90//39 92//39 91//39
f 92//40 94//40 93//40
f 94//41 96//41 95//41
f 96//42 98//42 97//42
f 98//43 100//43 99//43
f 100//44 102//44 101//44
f 102//45 104//45 103//45
f 104//46 106//46 105//46
f 106//47 108//47 107//47
f 108//48 110//48 109//48
f 110//49 112//49 111//49
f 112//50 114//50 113//50
f 114//51 116//51 115//51
f 116//52 118//52 117//52
f 30//6 28//6 26//6
f 26//6 120//6 118//6
f 118//6 116//6 114//6
f 114//72 112//72 110//72
f 110//6 108//6 106//6
f 106//6 104//6 102//6
f 102//6 100//6 98//6
f 98//6 96//6 94//6
f 94//6 92//6 90//6
f 90//6 88//6 86//6
f 86//6 84//6 82//6
f 82//6 80//6 78//6
f 78//6 76//6 74//6
f 74//6 72//6 70//6
f 70//6 68//6 66//6
f 66//73 64//73 62//73
f 62//6 60//6 58//6
f 58//6 56//6 54//6
f 54//6 52//6 50//6
f 50//6 48//6 46//6
f 46//6 44//6 42//6
f 42//6 40//6 38//6
f 38//6 36//6 34//6
f 34//6 32//6 30//6
f 30//6 26//6 118//6
f 118//6 114//6 110//6
f 110//6 106//6 102//6
f 102//6 98//6 94//6
f 94//6 90//6 86//6
f 86//6 82//6 78//6
f 78//6 74//6 70//6
f 70//6 66//6 62//6
f 62//6 58//6 54//6
f 54//6 50//6 46//6
f 46//6 42//6 38//6
f 38//6 34//6 30//6
f 30//6 118//6 110//6
f 110//6 102//6 94//6
f 94//6 86//6 78//6
f 78//6 70//6 62//6
f 62//6 54//6 46//6
f 46//6 38//6 30//6
f 30//6 110//6 94//6
f 94//6 78//6 62//6
f 62//6 46//6 30//6
f 118//53 120//53 119//53
f 120//54 26//54 25//54
f 119//5 25//5 27//5
f 27//5 29//5 31//5
f 31//5 33//5 35//5
f 35//5 37//5 39//5
f 39//5 41//5 43//5
f 43//5 45//5 47//5
f 47//5 49//5 51//5
f 51//5 53//5 55//5
f 55//5 57//5 59//5
f 59//5 61//5 63//5
f 63//5 65//5 67//5
f 67//5 69//5 71//5
f 71//5 73//5 75//5
f 75//5 77//5 79//5
f 79//5 81//5 83//5
f 83//5 85//5 87//5
f 87//5 89//5 91//5
f 91//5 93//5 95//5
f 95//5 97//5 99//5
f 99//5 101//5 103//5
f 103//5 105//5 107//5
f 107//5 109//5 111//5
f 111//5 113//5 115//5
f 115//5 117//5 119//5
f 119//5 27//5 31//5
f 31//5 35//5 39//5
f 39//5 43//5 47//5
f 47//5 51//5 55//5
f 55//5 59//5 63//5
f 63//5 67//5 71//5
f 71//5 75//5 79//5
f 79//5 83//5 87//5
f 87//5 91//5 95//5
f 95//5 99//5 103//5
f 103//5 107//5 111//5
f 111//5 115//5 119//5
f 119//5 31//5 39//5
f 39//5 47//5 55//5
f 55//5 63//5 71//5
f 71//5 79//5 87//5
f 87//5 95//5 103//5
f 103//5 111//5 119//5
f 119//5 39//5 55//5
f 55//5 71//5 87//5
f 87//5 103//5 119//5
f 218//7 220//7 219//7
f 220//8 222//8 221//8
f 222//9 224//9 223//9
f 224//10 226//10 225//10
f 226//11 228//11 227//11
f 228//12 230//12 229//12
f 230//13 232//13 231//13
f 232//14 234//14 233//14
f 234//15 236//15 235//15
f 236//16 238//16 237//16
f 238//17 240//17 239//17
f 240//18 242//18 241//18
f 242//19 244//19 243//19
f 244//20 246//20 245//20
f 246//21 248//21 247//21
f 248//22 250//22 249//22
f 250//23 252//23 251//23
f 252//24 254//24 253//24
f 254//25 256//25 255//25
f 256//26 258//26 257//26
f 258//27 260//27 259//27
f 260//28 262//28 261//28
f 262//29 264//29 263//29
f 264//30 266//30 265//30
f 266//31 268//31 267//31
f 268//32 270//32 269//32
f 270//33 272//33 271//33
f 272//34 274//34 273//34
f 274//35 276//35 275//35
f 276//36 278//36 277//36
f 278//37 280//37 279//37
f 280//38 282//38 281//38
f 282//39 284//39 283//39
f 284//40 286//40 285//40
f 286//41 288//41 287//41
f 288//42 290//42 289//42
f 290//43 292//43 291//43
f 292//44 294//44 293//44
f 294//45 296//45 295//45
f 296//46 298//46 297//46
f 298//47 300//47 299//47
f 300//48 302//48 301//48
f 302//49 304//49 303//49
f 304//50 306//50 305//50
f 306//51 308//51 307//51
f 308//52 310//52 309//52
f 222//6 220//6 218//6
f 218//6 312//6 310//6
f 310//6 308//6 306//6
f 306//6 304//6 302//6
f 302//6 300//6 298//6
f 298//72 296//72 294//72
f 294//72 292//72 290//72
f 290//72 288//72 286//72
f 286//72 284//72 282//72
f 282//6 280//6 278//6
f 278//6 276//6 274//6
f 274//6 272//6 270//6
f 270//6 268//6 266//6
f 266//6 264//6 262//6
f 262//6 260//6 258//6
f 258//6 256//6 254//6
f 254//6 252//6 250//6
f 250//73 248//73 246//73
f 246//73 244//73 242//73
f 242//73 240//73 238//73
f 238//73 236//73 234//73
f 234//6 232//6 230//6
f 230//6 228//6 226//6
f 226//6 224//6 222//6
f 222//6 218//6 310//6
f 310//6 306//6 302//6
f 302//6 298//6 294//6
f 294//6 290//6 286//6
f 286//6 282//6 278//6
f 278//6 274//6 270//6
f 270//6 266//6 262//6
f 262//6 258//6 254//6
f 254//6 250//6 246//6
f 246//6 242//6 238//6
f 238//6 234//6 230//6
f 230//6 226//6 222//6
f 222//6 310//6 302//6
f 302//6 294//6 286//6
f 286//6 278//6 270//6
f 270//6 262//6 254//6
f 254//6 246//6 238//6
f 238//6 230//6 222//6
f 222//6 302//6 286//6
f 286//6 270//6 254//6
f 254//6 238//6 222//6
f 310//53 312//53 311//53
f 312//54 218//54 217//54
f 311//5 217//5 219//5
f 219//5 221//5 223//5
f 223//5 225//5 227//5
f 227//5 229//5 231//5
f 231//5 233//5 235//5
f 235//5 237//5 239//5
f 239//5 241//5 243//5
f 243//5 245//5 247//5
f 247//5 249//5 251//5
f 251//5 253//5 255//5
f 255//5 257//5 259//5
f 259//5 261//5 263//5
f 263//5 265//5 267//5
f 267//5 269//5 271//5
f 271//5 273//5 275//5
f 275//5 277//5 279//5
f 279//5 281//5 283//5
f 283//5 285//5 287//5
f 287//5 289//5 291//5
f 291//5 293//5 295//5
f 295//5 297//5 299//5
f 299//5 301//5 303//5
f 303//5 305//5 307//5
f 307//5 309//5 311//5
f 311//5 219//5 223//5
f 223//5 227//5 231//5
f 231//5 235//5 239//5
f 239//5 243//5 247//5
f 247//5 251//5 255//5
f 255//5 259//5 263//5
f 263//5 267//5 271//5
f 271//5 275//5 279//5
f 279//5 283//5 287//5
f 287//5 291//5 295//5
f 295//5 299//5 303//5
f 303//5 307//5 311//5
f 311//5 223//5 231//5
f 231//5 239//5 247//5
f 247//5 255//5 263//5
f 263//5 271//5 279//5
f 279//5 287//5 295//5
f 295//5 303//5 311//5
f 311//5 231//5 247//5
f 247//5 263//5 279//5
f 279//5 295//5 311//5
f 410//7 412//7 411//7
f 412//8 414//8 413//8
f 414//9 416//9 415//9
f 416//10 418//10 417//10
f 418//11 420//11 419//11
f 420//12 422//12 421//12
f 422//13 424//13 423//13
f 424//14 426//14 425//14
f 426//15 428//15 427//15
f 428//16 430//16 429//16
f 430//17 432//17 431//17
f 432//18 434//18 433//18
f 434//19 436//19 435//19
f 436//20 438//20 437//20
f 438//21 440//21 439//21
f 440//22 442//22 441//22
f 442//23 444//23 443//23
f 444//24 446//24 445//24
f 446//25 448//25 447//25
f 448//26 450//26 449//26
f 450//27 452//27 451//27
f 452//28 454//28 453//28
f 454//29 456//29 455//29
f 456//30 458//30 457//30
f 458//31 460//31 459//31
f 460//32 462//32 461//32
f 462//33 464//33 463//33
f 464//34 466//34 465//34
f 466//35 468//35 467//35
f 468//36 470//36 469//36
f 470//37 472//37 471//37
f 472//38 474//38 473//38
f 474//39 476//39 475//39
f 476//40 478//40 477//40
f 478//41 480//41 479//41
f 480//42 482//42 481//42
f 482//43 484//43 483//43
f 484//44 486//44 485//44
f 486//45 488//45 487//45
f 488//46 490//46 489//46
f 490//47 492//47 491//47
f 492//48 494//48 493//48
f 494//49 496//49 495//49
f 496//50 498//50 497//50
f 498//51 500//51 499//51
f 500//52 502//52 501//52
f 414//6 412//6 410//6
f 410//6 504//6 502//6
f 502//6 500//6 498//6
f 498//72 496//72 494//72
f 494//6 492//6 490//6
f 490//6 488//6 486//6
f 486//6 484//6 482//6
f 482//6 480//6 478//6
f 478//6 476//6 474//6
f 474//6 472//6 470//6
f 470//6 468//6 466//6
f 466//6 464//6 462//6
f 462//6 460//6 458//6
f 458//6 456//6 454//6
f 454//6 452//6 450//6
f 450//73 448//73 446//73
f 446//6 444//6 442//6
f 442//6 440//6 438//6
f 438//6 436//6 434//6
f 434//6 432//6 430//6
f 430//6 428//6 426//6
f 426//6 424//6 422//6
f 422//6 420//6 418//6
f 418//6 416//6 414//6
f 414//6 410//6 502//6
f 502//6 498//6 494//6
f 494//6 490//6 486//6
f 486//6 482//6 478//6
f 478//6 474//6 470//6
f 470//6 466//6 462//6
f 462//6 458//6 454//6
f 454//6 450//6 446//6
f 446//6 442//6 438//6
f 438//6 434//6 430//6
f 430//6 426//6 422//6
f 422//6 418//6 414//6
f 414//6 502//6 494//6
f 494//6 486//6 478//6
f 478//6 470//6 462//6
f 462//6 454//6 446//6
f 446//6 438//6 430//6
f 430//6 422//6 414//6
f 414//6 494//6 478//6
f 478//6 462//6 446//6
f 446//6 430//6 414//6
f 502//53 504//53 503//53
f 504//54 410//54 409//54
f 503//5 409//5 411//5
f 411//5 413//5 415//5
f 415//5 417//5 419//5
f 419//5 421//5 423//5
f 423//5 425//5 427//5
f 427//5 429//5 431//5
f 431//5 433//5 435//5
f 435//5 437//5 439//5
f 439//5 441//5 443//5
f 443//5 445//5 447//5
f 447//5 449//5 451//5
f 451//5 453//5 455//5
f 455//5 457//5 459//5
f 459//5 461//5 463//5
f 463//5 465//5 467//5
f 467//5 469//5 471//5
f 471//5 473//5 475//5
f 475//5 477//5 479//5
f 479//5 481//5 483//5
f 483//5 485//5 487//5
f 487//5 489//5 491//5
f 491//5 493//5 495//5
f 495//5 497//5 499//5
f 499//5 501//5 503//5
f 503//5 411//5 415//5
f 415//5 419//5 423//5
f 423//5 427//5 431//5
f 431//5 435//5 439//5
f 439//5 443//5 447//5
f 447//5 451//5 455//5
f 455//5 459//5 463//5
f 463//5 467//5 471//5
f 471//5 475//5 479//5
f 479//5 483//5 487//5
f 487//5 491//5 495//5
f 495//5 499//5 503//5
f 503//5 415//5 423//5
f 423//5 431//5 439//5
f 439//5 447//5 455//5
f 455//5 463//5 471//5
f 471//5 479//5 487//5
f 487//5 495//5 503//5
f 503//5 423//5 439//5
f 439//5 455//5 471//5
f 471//5 487//5 503//5
usemtl bottle_white
f 122//7 123//7 121//7
f 124//8 125//8 123//8
f 126//9 127//9 125//9
f 128//10 129//10 127//10
f 130//11 131//11 129//11
f 132//12 133//12 131//12
f 134//13 135//13 133//13
f 136//14 137//14 135//14
f 138//15 139//15 137//15
f 140//16 141//16 139//16
f 142//17 143//17 141//17
f 144//18 145//18 143//18
f 146//19 147//19 145//19
f 148//20 149//20 147//20
f 150//21 151//21 149//21
f 152//22 153//22 151//22
f 154//23 155//23 153//23
f 156//55 157//55 155//55
f 158//56 159//56 157//56
f 160//26 161//26 159//26
f 162//27 163//27 161//27
f 164//28 165//28 163//28
f 166//29 167//29 165//29
f 168//30 169//30 167//30
f 170//31 171//31 169//31
f 172//32 173//32 171//32
f 174//33 175//33 173//33
f 176//34 177//34 175//34
f 178//35 179//35 177//35
f 180//57 181//57 179//57
f 182//37 183//37 181//37
f 184//38 185//38 183//38
f 186//39 187//39 185//39
f 188//40 189//40 187//40
f 190//41 191//41 189//41
f 192//42 193//42 191//42
f 194//43 195//43 193//43
f 196//44 197//44 195//44
f 198//45 199//45 197//45
f 200//46 201//46 199//46
f 202//47 203//47 201//47
f 204//48 205//48 203//48
f 206//49 207//49 205//49
f 208//50 209//50 207//50
f 210//51 211//51 209//51
f 212//52 213//52 211//52
f 190//6 158//6 126//6
f 214//53 215//53 213//53
f 216//54 121//54 215//54
f 151//5 183//5 215//5
f 314//7 315//7 313//7
f 316//8 317//8 315//8
f 318//9 319//9 317//9
f 320//10 321//10 319//10
f 322//11 323//11 321//11
f 324//12 325//12 323//12
f 326//13 327//13 325//13
f 328//14 329//14 327//14
f 330//15 331//15 329//15
f 332//16 333//16 331//16
f 334//17 335//17 333//17
f 336//18 337//18 335//18
f 338//19 339//19 337//19
f 340//20 341//20 339//20
f 342//21 343//21 341//21
f 344//22 345//22 343//22
f 346//23 347//23 345//23
f 348//55 349//55 347//55
f 350//25 351//25 349//25
f 352//26 353//26 351//26
f 354//27 355//27 353//27
f 356//28 357//28 355//28
f 358//29 359//29 357//29
f 360//30 361//30 359//30
f 362//31 363//31 361//31
f 364//32 365//32 363//32
f 366//33 367//33 365//33
f 368//34 369//34 367//34
f 370//35 371//35 369//35
f 372//57 373//57 371//57
f 374//37 375//37 373//37
f 376//38 377//38 375//38
f 378//39 379//39 377//39
f 380//40 381//40 379//40
f 382//41 383//41 381//41
f 384//42 385//42 383//42
f 386//43 387//43 385//43
f 388//44 389//44 387//44
f 390//45 391//45 389//45
f 392//46 393//46 391//46
f 394//47 395//47 393//47
f 396//48 397//48 395//48
f 398//49 399//49 397//49
f 400//50 401//50 399//50
f 402//51 403//51 401//51
f 404//52 405//52 403//52
f 382//6 350//6 318//6
f 406//53 407//53 405//53
f 408//54 313//54 407//54
f 343//5 375//5 407//5
f 506//7 507//7 505//7
f 508//8 509//8 507//8
f 510//9 511//9 509//9
f 512//10 513//10 511//10
f 514//11 515//11 513//11
f 516//58 517//58 515//58
f 518//13 519//13 517//13
f 520//14 521//14 519//14
f 522//15 523//15 521//15
f 524//16 525//16 523//16
f 526//17 527//17 525//17
f 528//18 529//18 527//18
f 530//19 531//19 529//19
f 532//20 533//20 531//20
f 534//21 535//21 533//21
f 536//22 537//22 535//22
f 538//23 539//23 537//23
f 540//55 541//55 539//55
f 542//25 543//25 541//25
f 544//26 545//26 543//26
f 546//27 547//27 545//27
f 548//28 549//28 547//28
f 550//29 551//29 549//29
f 552//30 553//30 551//30
f 554//31 555//31 553//31
f 556//32 557//32 555//32
f 558//33 559//33 557//33
f 560//34 561//34 559//34
f 562//35 563//35 561//35
f 564//57 565//57 563//57
f 566//37 567//37 565//37
f 568//38 569//38 567//38
f 570//39 571//39 569//39
f 572//40 573//40 571//40
f 574//41 575//41 573//41
f 576//42 577//42 575//42
f 578//43 579//43 577//43
f 580//44 581//44 579//44
f 582//45 583//45 581//45
f 584//46 585//46 583//46
f 586//47 587//47 585//47
f 588//59 589//59 587//59
f 590//49 591//49 589//49
f 592//50 593//50 591//50
f 594//51 595//51 593//51
f 596//52 597//52 595//52
f 574//6 542//6 510//6
f 598//53 599//53 597//53
f 600//54 505//54 599//54
f 535//5 567//5 599//5
f 122//7 124//7 123//7
f 124//8 126//8 125//8
f 126//9 128//9 127//9
f 128//10 130//10 129//10
f 130//11 132//11 131//11
f 132//12 134//12 133//12
f 134//74 136//74 135//74
f 136//14 138//14 137//14
f 138//15 140//15 139//15
f 140//16 142//16 141//16
f 142//17 144//17 143//17
f 144//18 146//18 145//18
f 146//19 148//19 147//19
f 148//20 150//20 149//20
f 150//21 152//21 151//21
f 152//22 154//22 153//22
f 154//23 156//23 155//23
f 156//24 158//24 157//24
f 158//56 160//56 159//56
f 160//26 162//26 161//26
f 162//27 164//27 163//27
f 164//28 166//28 165//28
f 166//29 168//29 167//29
f 168//30 170//30 169//30
f 170//31 172//31 171//31
f 172//32 174//32 173//32
f 174//33 176//33 175//33
f 176//34 178//34 177//34
f 178//35 180//35 179//35
f 180//36 182//36 181//36
f 182//75 184//75 183//75
f 184//38 186//38 185//38
f 186//39 188//39 187//39
f 188//40 190//40 189//40
f 190//41 192//41 191//41
f 192//42 194//42 193//42
f 194//43 196//43 195//43
f 196//44 198//44 197//44
f 198//45 200//45 199//45
f 200//46 202//46 201//46
f 202//47 204//47 203//47
f 204//48 206//48 205//48
f 206//76 208//76 207//76
f 208//50 210//50 209//50
f 210//51 212//51 211//51
f 212//52 214//52 213//52
f 126//72 124//72 122//72
f 122//6 216//6 214//6
f 214//77 212//77 210//77
f 210//6 208//6 206//6
f 206//6 204//6 202//6
f 202//6 200//6 198//6
f 198//6 196//6 194//6
f 194//6 192//6 190//6
f 190//6 188//6 186//6
f 186//6 184//6 182//6
f 182//6 180//6 178//6
f 178//77 176//77 174//77
f 174//73 172//73 170//73
f 170//6 168//6 166//6
f 166//78 164//78 162//78
f 162//6 160//6 158//6
f 158//6 156//6 154//6
f 154//6 152//6 150//6
f 150//6 148//6 146//6
f 146//6 144//6 142//6
f 142//6 140//6 138//6
f 138//6 136//6 134//6
f 134//6 132//6 130//6
f 130//78 128//78 126//78
f 126//6 122//6 214//6
f 214//6 210//6 206//6
f 206//6 202//6 198//6
f 198//6 194//6 190//6
f 190//6 186//6 182//6
f 182//6 178//6 174//6
f 174//6 170//6 166//6
f 166//6 162//6 158//6
f 158//6 154//6 150//6
f 150//6 146//6 142//6
f 142//6 138//6 134//6
f 134//6 130//6 126//6
f 126//6 214//6 206//6
f 206//6 198//6 190//6
f 190//6 182//6 174//6
f 174//6 166//6 158//6
f 158//6 150//6 142//6
f 142//6 134//6 126//6
f 126//6 206//6 190//6
f 190//6 174//6 158//6
f 158//6 142//6 126//6
f 214//53 216//53 215//53
f 216//54 122//54 121//54
f 215//5 121//5 123//5
f 123//79 125//79 127//79
f 127//5 129//5 131//5
f 131//80 133//80 135//80
f 135//5 137//5 139//5
f 139//81 141//81 143//81
f 143//5 145//5 147//5
f 147//81 149//81 151//81
f 151//5 153//5 155//5
f 155//81 157//81 159//81
f 159//5 161//5 163//5
f 163//82 165//82 167//82
f 167//5 169//5 171//5
f 171//79 173//79 175//79
f 175//5 177//5 179//5
f 179//80 181//80 183//80
f 183//5 185//5 187//5
f 187//80 189//80 191//80
f 191//5 193//5 195//5
f 195//80 197//80 199//80
f 199//5 201//5 203//5
f 203//81 205//81 207//81
f 207//5 209//5 211//5
f 211//82 213//82 215//82
f 215//5 123//5 127//5
f 127//5 131//5 135//5
f 135//82 139//82 143//82
f 143//5 147//5 151//5
f 151//82 155//82 159//82
f 159//83 163//83 167//83
f 167//5 171//5 175//5
f 175//82 179//82 183//82
f 183//83 187//83 191//83
f 191//5 195//5 199//5
f 199//5 203//5 207//5
f 207//5 211//5 215//5
f 215//5 127//5 135//5
f 135//5 143//5 151//5
f 151//5 159//5 167//5
f 167//5 175//5 183//5
f 183//5 191//5 199//5
f 199//5 207//5 215//5
f 215//5 135//5 151//5
f 151//5 167//5 183//5
f 183//5 199//5 215//5
f 314//7 316//7 315//7
f 316//8 318//8 317//8
f 318//9 320//9 319//9
f 320//10 322//10 321//10
f 322//11 324//11 323//11
f 324//12 326//12 325//12
f 326//74 328//74 327//74
f 328//14 330//14 329//14
f 330//15 332//15 331//15
f 332//16 334//16 333//16
f 334//17 336//17 335//17
f 336//18 338//18 337//18
f 338//19 340//19 339//19
f 340//20 342//20 341//20
f 342//21 344//21 343//21
f 344//22 346//22 345//22
f 346//23 348//23 347//23
f 348//24 350//24 349//24
f 350//25 352//25 351//25
f 352//26 354//26 353//26
f 354//27 356//27 355//27
f 356//28 358//28 357//28
f 358//29 360//29 359//29
f 360//30 362//30 361//30
f 362//31 364//31 363//31
f 364//32 366//32 365//32
f 366//33 368//33 367//33
f 368//34 370//34 369//34
f 370//35 372//35 371//35
f 372//36 374//36 373//36
f 374//37 376//37 375//37
f 376//38 378//38 377//38
f 378//39 380//39 379//39
f 380//40 382//40 381//40
f 382//41 384//41 383//41
f 384//42 386//42 385//42
f 386//43 388//43 387//43
f 388//44 390//44 389//44
f 390//45 392//45 391//45
f 392//46 394//46 393//46
f 394//47 396//47 395//47
f 396//48 398//48 397//48
f 398//76 400//76 399//76
f 400//50 402//50 401//50
f 402//51 404//51 403//51
f 404//52 406//52 405//52
f 318//72 316//72 314//72
f 314//6 408//6 406//6
f 406//6 404//6 402//6
f 402//6 400//6 398//6
f 398//6 396//6 394//6
f 394//6 392//6 390//6
f 390//84 388//84 386//84
f 386//84 384//84 382//84
f 382//6 380//6 378//6
f 378//6 376//6 374//6
f 374//6 372//6 370//6
f 370//6 368//6 366//6
f 366//73 364//73 362//73
f 362//6 360//6 358//6
f 358//6 356//6 354//6
f 354//6 352//6 350//6
f 350//6 348//6 346//6
f 346//6 344//6 342//6
f 342//85 340//85 338//85
f 338//85 336//85 334//85
f 334//6 332//6 330//6
f 330//6 328//6 326//6
f 326//6 324//6 322//6
f 322//6 320//6 318//6
f 318//6 314//6 406//6
f 406//6 402//6 398//6
f 398//73 394//73 390//73
f 390//6 386//6 382//6
f 382//73 378//73 374//73
f 374//73 370//73 366//73
f 366//6 362//6 358//6
f 358//6 354//6 350//6
f 350//72 346//72 342//72
f 342//6 338//6 334//6
f 334//72 330//72 326//72
f 326//72 322//72 318//72
f 318//6 406//6 398//6
f 398//6 390//6 382//6
f 382//6 374//6 366//6
f 366//6 358//6 350//6
f 350//6 342//6 334//6
f 334//6 326//6 318//6
f 318//6 398//6 382//6
f 382//6 366//6 350//6
f 350//6 334//6 318//6
f 406//53 408//53 407//53
f 408//54 314//54 313//54
f 407//5 313//5 315//5
f 315//79 317//79 319//79
f 319//81 321//81 323//81
f 323//5 325//5 327//5
f 327//81 329//81 331//81
f 331//5 333//5 335//5
f 335//5 337//5 339//5
f 339//5 341//5 343//5
f 343//81 345//81 347//81
f 347//5 349//5 351//5
f 351//79 353//79 355//79
f 355//83 357//83 359//83
f 359//5 361//5 363//5
f 363//86 365//86 367//86
f 367//80 369//80 371//80
f 371//5 373//5 375//5
f 375//80 377//80 379//80
f 379//5 381//5 383//5
f 383//5 385//5 387//5
f 387//5 389//5 391//5
f 391//80 393//80 395//80
f 395//5 397//5 399//5
f 399//86 401//86 403//86
f 403//82 405//82 407//82
f 407//5 315//5 319//5
f 319//5 323//5 327//5
f 327//5 331//5 335//5
f 335//5 339//5 343//5
f 343//82 347//82 351//82
f 351//5 355//5 359//5
f 359//5 363//5 367//5
f 367//5 371//5 375//5
f 375//5 379//5 383//5
f 383//5 387//5 391//5
f 391//83 395//83 399//83
f 399//5 403//5 407//5
f 407//5 319//5 327//5
f 327//5 335//5 343//5
f 343//5 351//5 359//5
f 359//5 367//5 375//5
f 375//5 383//5 391//5
f 391//5 399//5 407//5
f 407//5 327//5 343//5
f 343//5 359//5 375//5
f 375//5 391//5 407//5
f 506//7 508//7 507//7
f 508//8 510//8 509//8
f 510//9 512//9 511//9
f 512//10 514//10 513//10
f 514//11 516//11 515//11
f 516//58 518//58 517//58
f 518//74 520//74 519//74
f 520//14 522//14 521//14
f 522//15 524//15 523//15
f 524//16 526//16 525//16
f 526//17 528//17 527//17
f 528//18 530//18 529//18
f 530//19 532//19 531//19
f 532//20 534//20 533//20
f 534//21 536//21 535//21
f 536//22 538//22 537//22
f 538//23 540//23 539//23
f 540//24 542//24 541//24
f 542//25 544//25 543//25
f 544//26 546//26 545//26
f 546//27 548//27 547//27
f 548//28 550//28 549//28
f 550//29 552//29 551//29
f 552//30 554//30 553//30
f 554//31 556//31 555//31
f 556//32 558//32 557//32
f 558//33 560//33 559//33
f 560//34 562//34 561//34
f 562//35 564//35 563//35
f 564//36 566//36 565//36
f 566//37 568//37 567//37
f 568//38 570//38 569//38
f 570//39 572//39 571//39
f 572//40 574//40 573//40
f 574//41 576//41 575//41
f 576//42 578//42 577//42
f 578//43 580//43 579//43
f 580//44 582//44 581//44
f 582//45 584//45 583//45
f 584//46 586//46 585//46
f 586//47 588//47 587//47
f 588//48 590//48 589//48
f 590//76 592//76 591//76
f 592//50 594//50 593//50
f 594//51 596//51 595//51
f 596//52 598//52 597//52
f 510//72 508//72 506//72
f 506//6 600//6 598//6
f 598//77 596//77 594//77
f 594//6 592//6 590//6
f 590//6 588//6 586//6
f 586//6 584//6 582//6
f 582//6 580//6 578//6
f 578//6 576//6 574//6
f 574//6 572//6 570//6
f 570//6 568//6 566//6
f 566//6 564//6 562//6
f 562//77 560//77 558//77
f 558//73 556//73 554//73
f 554//6 552//6 550//6
f 550//78 548//78 546//78
f 546//6 544//6 542//6
f 542//6 540//6 538//6
f 538//6 536//6 534//6
f 534//6 532//6 530//6
f 530//6 528//6 526//6
f 526//6 524//6 522//6
f 522//6 520//6 518//6
f 518//6 516//6 514//6
f 514//78 512//78 510//78
f 510//6 506//6 598//6
f 598//6 594//6 590//6
f 590//6 586//6 582//6
f 582//6 578//6 574//6
f 574//6 570//6 566//6
f 566//6 562//6 558//6
f 558//6 554//6 550//6
f 550//6 546//6 542//6
f 542//6 538//6 534//6
f 534//6 530//6 526//6
f 526//6 522//6 518//6
f 518//6 514//6 510//6
f 510//6 598//6 590//6
f 590//6 582//6 574//6
f 574//6 566//6 558//6
f 558//6 550//6 542//6
f 542//6 534//6 526//6
f 526//6 518//6 510//6
f 510//6 590//6 574//6
f 574//6 558//6 542//6
f 542//6 526//6 510//6
f 598//53 600//53 599//53
f 600//54 506//54 505//54
f 599//5 505//5 507//5
f 507//86 509//86 511//86
f 511//5 513//5 515//5
f 515//81 517//81 519//81
f 519//5 521//5 523//5
f 523//81 525//81 527//81
f 527//5 529//5 531//5
f 531//81 533//81 535//81
f 535//5 537//5 539//5
f 539//80 541//80 543//80
f 543//5 545//5 547//5
f 547//83 549//83 551//83
f 551//5 553//5 555//5
f 555//86 557//86 559//86
f 559//5 561//5 563//5
f 563//81 565//81 567//81
f 567//5 569//5 571//5
f 571//80 573//80 575//80
f 575//5 577//5 579//5
f 579//80 581//80 583//80
f 583//5 585//5 587//5
f 587//80 589//80 591//80
f 591//5 593//5 595//5
f 595//83 597//83 599//83
f 599//5 507//5 511//5
f 511//83 515//83 519//83
f 519//82 523//82 527//82
f 527//5 531//5 535//5
f 535//5 539//5 543//5
f 543//5 547//5 551//5
f 551//5 555//5 559//5
f 559//5 563//5 567//5
f 567//83 571//83 575//83
f 575//5 579//5 583//5
f 583//83 587//83 591//83
f 591//82 595//82 599//82
f 599//5 511//5 519//5
f 519//5 527//5 535//5
f 535//5 543//5 551//5
f 551//5 559//5 567//5
f 567//5 575//5 583//5
f 583//5 591//5 599//5
f 599//5 519//5 535//5
f 535//5 551//5 567//5
f 567//5 583//5 599//5
usemtl hatch_yellow
f 1082//1 1083//1 1081//1
f 1084//2 1087//2 1083//2
f 1088//3 1085//3 1087//3
f 1086//4 1081//4 1085//4
f 1087//5 1081//5 1083//5
f 1084//6 1086//6 1088//6
f 1082//1 1084//1 1083//1
f 1084//2 1088//2 1087//2
f 1088//3 1086//3 1085//3
f 1086//4 1082//4 1081//4
f 1087//5 1085//5 1081//5
f 1084//6 1082//6 1086//6
