# Blender 5.2.2 LTS
# www.blender.org
mtllib weather_mast.mtl
o weather_mast
v -8.900000 -0.045000 4.200000
v -8.900000 -0.045000 5.800000
v -8.922500 -0.038971 4.200000
v -8.922500 -0.038971 5.800000
v -8.938971 -0.022500 4.200000
v -8.938971 -0.022500 5.800000
v -8.945000 -0.000000 4.200000
v -8.945000 -0.000000 5.800000
v -8.938971 0.022500 4.200000
v -8.938971 0.022500 5.800000
v -8.922500 0.038971 4.200000
v -8.922500 0.038971 5.800000
v -8.900000 0.045000 4.200000
v -8.900000 0.045000 5.800000
v -8.877500 0.038971 4.200000
v -8.877500 0.038971 5.800000
v -8.861029 0.022500 4.200000
v -8.861029 0.022500 5.800000
v -8.855000 0.000000 4.200000
v -8.855000 0.000000 5.800000
v -8.861029 -0.022500 4.200000
v -8.861029 -0.022500 5.800000
v -8.877500 -0.038971 4.200000
v -8.877500 -0.038971 5.800000
v -8.900000 -0.550000 5.830000
v -8.900000 0.550000 5.830000
v -8.915000 -0.550000 5.825981
v -8.915000 0.550000 5.825981
v -8.925981 -0.550000 5.815000
v -8.925981 0.550000 5.815000
v -8.929999 -0.550000 5.800000
v -8.929999 0.550000 5.800000
v -8.925981 -0.550000 5.785000
v -8.925981 0.550000 5.785000
v -8.915000 -0.550000 5.774019
v -8.915000 0.550000 5.774019
v -8.900000 -0.550000 5.770000
v -8.900000 0.550000 5.770000
v -8.884999 -0.550000 5.774019
v -8.884999 0.550000 5.774019
v -8.874019 -0.550000 5.785000
v -8.874019 0.550000 5.785000
v -8.870000 -0.550000 5.800000
v -8.870000 0.550000 5.800000
v -8.874019 -0.550000 5.815000
v -8.874019 0.550000 5.815000
v -8.884999 -0.550000 5.825981
v -8.884999 0.550000 5.825981
v -9.049999 -0.150000 4.180000
v -9.049999 -0.150000 4.230000
v -9.049999 0.150000 4.180000
v -9.049999 0.150000 4.230000
v -8.750000 -0.150000 4.180000
v -8.750000 -0.150000 4.230000
v -8.750000 0.150000 4.180000
v -8.750000 0.150000 4.230000
vn -0.2588 -0.9659 -0.0000
vn -0.7071 -0.7071 -0.0000
vn -0.9659 -0.2588 -0.0000
vn -0.9659 0.2588 -0.0000
vn -0.7071 0.7071 -0.0000
vn -0.2588 0.9659 -0.0000
vn 0.2588 0.9659 -0.0000
vn 0.7071 0.7071 -0.0000
vn 0.9659 0.2588 -0.0000
vn 0.9659 -0.2588 -0.0000
vn -0.0000 -0.0000 1.0000
vn 0.7071 -0.7071 -0.0000
vn 0.2588 -0.9659 -0.0000
vn -0.0000 -0.0000 -1.0000
vn -0.2589 -0.0000 0.9659
vn -0.7071 -0.0000 0.7071
vn -0.9659 -0.0000 0.2588
vn -0.9659 -0.0000 -0.2588
vn -0.7071 -0.0000 -0.7071
vn -0.2588 -0.0000 -0.9659
vn 0.2588 -0.0000 -0.9659
vn 0.7071 -0.0000 -0.7071
vn 0.9659 -0.0000 -0.2588
vn 0.9659 -0.0000 0.2588
vn -0.0000 1.0000 -0.0000
vn 0.7071 -0.0000 0.7071
vn 0.2588 -0.0000 0.9659
vn -0.0000 -1.0000 -0.0000
vn -1.0000 -0.0000 -0.0000
vn 1.0000 -0.0000 -0.0000
vn -0.2588 -0.0000 0.9659
vn 0.2589 -0.0000 0.9659
s 0
usemtl steel_grey
f 2//1 3//1 1//1
f 4//2 5//2 3//2
f 6//3 7//3 5//3
f 8//4 9//4 7//4
f 10//5 11//5 9//5
f 12//6 13//6 11//6
f 14//7 15//7 13//7
f 16//8 17//8 15//8
f 18//9 19//9 17//9
f 20//10 21//10 19//10
f 22//11 14//11 6//11
f 22//12 23//12 21//12
f 24//13 1//13 23//13
f 7//14 15//14 23//14
f 26//15 27//15 25//15
f 28//16 29//16 27//16
f 30//17 31//17 29//17
f 32//18 33//18 31//18
f 34//19 35//19 33//19
f 36//20 37//20 35//20
f 38//21 39//21 37//21
f 40//22 41//22 39//22
f 42//23 43//23 41//23
f 44//24 45//24 43//24
f 46//25 38//25 30//25
f 46//26 47//26 45//26
f 48//27 25//27 47//27
f 31//28 39//28 47//28
f 50//29 51//29 49//29
f 52//25 55//25 51//25
f 56//30 53//30 55//30
f 54//28 49//28 53//28
f 55//14 49//14 51//14
f 52//11 54//11 56//11
f 2//1 4//1 3//1
f 4//2 6//2 5//2
f 6//3 8//3 7//3
f 8//4 10//4 9//4
f 10//5 12//5 11//5
f 12//6 14//6 13//6
f 14//7 16//7 15//7
f 16//8 18//8 17//8
f 18//9 20//9 19//9
f 20//10 22//10 21//10
f 6//11 4//11 2//11
f 2//11 24//11 22//11
f 22//11 20//11 18//11
f 18//11 16//11 14//11
f 14//11 12//11 10//11
f 10//11 8//11 6//11
f 6//11 2//11 22//11
f 22//11 18//11 14//11
f 14//11 10//11 6//11
f 22//12 24//12 23//12
f 24//13 2//13 1//13
f 23//14 1//14 3//14
f 3//14 5//14 7//14
f 7//14 9//14 11//14
f 11//14 13//14 15//14
f 15//14 17//14 19//14
f 19//14 21//14 23//14
f 23//14 3//14 7//14
f 7//14 11//14 15//14
f 15//14 19//14 23//14
f 26//31 28//31 27//31
f 28//16 30//16 29//16
f 30//17 32//17 31//17
f 32//18 34//18 33//18
f 34//19 36//19 35//19
f 36//20 38//20 37//20
f 38//21 40//21 39//21
f 40//22 42//22 41//22
f 42//23 44//23 43//23
f 44//24 46//24 45//24
f 30//25 28//25 26//25
f 26//25 48//25 46//25
f 46//25 44//25 42//25
f 42//25 40//25 38//25
f 38//25 36//25 34//25
f 34//25 32//25 30//25
f 30//25 26//25 46//25
f 46//25 42//25 38//25
f 38//25 34//25 30//25
f 46//26 48//26 47//26
f 48//32 26//32 25//32
f 47//28 25//28 27//28
f 27//28 29//28 31//28
f 31//28 33//28 35//28
f 35//28 37//28 39//28
f 39//28 41//28 43//28
f 43//28 45//28 47//28
f 47//28 27//28 31//28
f 31//28 35//28 39//28
f 39//28 43//28 47//28
f 50//29 52//29 51//29
f 52//25 56//25 55//25
f 56//30 54//30 53//30
f 54//28 50//28 49//28
f 55//14 53//14 49//14
f 52//11 50//11 54//11
